<?xml version="1.0" encoding="UTF-8" standalone="no"?>
<!DOCTYPE svg PUBLIC "-//W3C//DTD SVG 1.1//EN"
 "http://www.w3.org/Graphics/SVG/1.1/DTD/svg11.dtd">
<!-- Generated by graphviz version 2.43.0 (0)
 -->
<!-- Title: DGtal::CountedConstPtrOrConstPtr&lt; T &gt; Pages: 1 -->
<!--zoomable 760 -->
<svg id="main" version="1.1" xmlns="http://www.w3.org/2000/svg" xmlns:xlink="http://www.w3.org/1999/xlink" xml:space="preserve" onload="init(evt)">
<style type="text/css"><![CDATA[
.edge:hover path { stroke: red; }
.edge:hover polygon { stroke: red; fill: red; }
]]></style>
<script type="text/javascript"><![CDATA[
var edges = document.getElementsByTagName('g');
if (edges && edges.length) {
  for (var i=0;i<edges.length;i++) {
    if (edges[i].id.substr(0,4)=='edge') {
      edges[i].setAttribute('class','edge');
    }
  }
}
]]></script>
        <defs>
                <circle id="rim" cx="0" cy="0" r="7"/>
                <circle id="rim2" cx="0" cy="0" r="3.5"/>
                <g id="zoomPlus">
                        <use xlink:href="#rim" fill="#404040">
                                <set attributeName="fill" to="#808080" begin="zoomplus.mouseover" end="zoomplus.mouseout"/>
                        </use>
                        <path d="M-4,0h8M0,-4v8" fill="none" stroke="white" stroke-width="1.5" pointer-events="none"/>
                </g>
                <g id="zoomMin">
                        <use xlink:href="#rim" fill="#404040">
                                <set attributeName="fill" to="#808080" begin="zoomminus.mouseover" end="zoomminus.mouseout"/>
                        </use>
                        <path d="M-4,0h8" fill="none" stroke="white" stroke-width="1.5" pointer-events="none"/>
                </g>
                <g id="dirArrow">
                        <path fill="none" stroke="white" stroke-width="1.5" d="M0,-3.0v7 M-2.5,-0.5L0,-3.0L2.5,-0.5"/>
                </g>
               <g id="resetDef">
                       <use xlink:href="#rim2" fill="#404040">
                               <set attributeName="fill" to="#808080" begin="reset.mouseover" end="reset.mouseout"/>
                       </use>
               </g>
        </defs>

<script type="text/javascript">
var viewWidth = 526;
var viewHeight = 760;
var sectionId = 'dynsection-0';
</script>
<script xlink:href="svgpan.js"/>
<svg id="graph" class="graph">
<g id="viewport">
<title>DGtal::CountedConstPtrOrConstPtr&lt; T &gt;</title>
<polygon fill="white" stroke="transparent" points="-4,4 -4,-756.32 522,-756.32 522,4 -4,4"/>
<!-- Node1 -->
<g id="node1" class="node">
<title>Node1</title>
<g id="a_node1"><a xlink:title="Aim: Smart or simple const pointer on T. It can be a smart pointer based on reference counts or a sim...">
<polygon fill="#bfbfbf" stroke="black" points="0,-360.32 0,-390.32 143,-390.32 143,-360.32 0,-360.32"/>
<text text-anchor="start" x="8" y="-378.32" font-family="FreeSans" font-size="10.00">DGtal::CountedConstPtrOr</text>
<text text-anchor="middle" x="71.5" y="-367.32" font-family="FreeSans" font-size="10.00">ConstPtr&lt; T &gt;</text>
</a>
</g>
</g>
<!-- Node2 -->
<g id="node2" class="node">
<title>Node2</title>
<g id="a_node2"><a xlink:href="classDGtal_1_1CountedConstPtrOrConstPtr.html" target="_top" xlink:title=" ">
<polygon fill="white" stroke="black" points="321,-715.32 321,-745.32 518,-745.32 518,-715.32 321,-715.32"/>
<text text-anchor="start" x="329" y="-733.32" font-family="FreeSans" font-size="10.00">DGtal::CountedConstPtrOr</text>
<text text-anchor="middle" x="419.5" y="-722.32" font-family="FreeSans" font-size="10.00">ConstPtr&lt; DigitalSurfaceContainer &gt;</text>
</a>
</g>
</g>
<!-- Node1&#45;&gt;Node2 -->
<g id="edge1" class="edge">
<title>Node1&#45;&gt;Node2</title>
<path fill="none" stroke="orange" stroke-dasharray="5,2" d="M75.82,-400.51C85.4,-469.29 115.4,-657.72 161,-697.32 204.14,-734.77 267.68,-743.23 320.85,-742.22"/>
<polygon fill="orange" stroke="orange" points="79.28,-399.98 74.45,-390.55 72.34,-400.93 79.28,-399.98"/>
<text text-anchor="middle" x="232" y="-744.32" font-family="FreeSans" font-size="10.00"> &lt; DigitalSurfaceContainer &gt;</text>
</g>
<!-- Node3 -->
<g id="node3" class="node">
<title>Node3</title>
<g id="a_node3"><a xlink:href="classDGtal_1_1CountedConstPtrOrConstPtr.html" target="_top" xlink:title=" ">
<polygon fill="white" stroke="black" points="348,-666.32 348,-696.32 491,-696.32 491,-666.32 348,-666.32"/>
<text text-anchor="start" x="356" y="-684.32" font-family="FreeSans" font-size="10.00">DGtal::CountedConstPtrOr</text>
<text text-anchor="middle" x="419.5" y="-673.32" font-family="FreeSans" font-size="10.00">ConstPtr&lt; Surface &gt;</text>
</a>
</g>
</g>
<!-- Node1&#45;&gt;Node3 -->
<g id="edge2" class="edge">
<title>Node1&#45;&gt;Node3</title>
<path fill="none" stroke="orange" stroke-dasharray="5,2" d="M71.84,-400.61C71.9,-457.11 80.78,-593.66 161,-658.32 188.82,-680.75 281.68,-684.17 347.89,-683.56"/>
<polygon fill="orange" stroke="orange" points="75.35,-400.46 71.93,-390.43 68.35,-400.4 75.35,-400.46"/>
<text text-anchor="middle" x="232" y="-685.32" font-family="FreeSans" font-size="10.00"> &lt; Surface &gt;</text>
</g>
<!-- Node4 -->
<g id="node4" class="node">
<title>Node4</title>
<g id="a_node4"><a xlink:href="classDGtal_1_1CountedConstPtrOrConstPtr.html" target="_top" xlink:title=" ">
<polygon fill="white" stroke="black" points="328,-617.32 328,-647.32 511,-647.32 511,-617.32 328,-617.32"/>
<text text-anchor="start" x="336" y="-635.32" font-family="FreeSans" font-size="10.00">DGtal::CountedConstPtrOr</text>
<text text-anchor="middle" x="419.5" y="-624.32" font-family="FreeSans" font-size="10.00">ConstPtr&lt; DGtal::DigitalSurface &gt;</text>
</a>
</g>
</g>
<!-- Node1&#45;&gt;Node4 -->
<g id="edge3" class="edge">
<title>Node1&#45;&gt;Node4</title>
<path fill="none" stroke="orange" stroke-dasharray="5,2" d="M74.2,-400.75C78.9,-448.77 96.39,-552.43 161,-602.32 207.76,-638.42 274.25,-645.39 327.96,-643.61"/>
<polygon fill="orange" stroke="orange" points="77.67,-400.26 73.32,-390.6 70.7,-400.86 77.67,-400.26"/>
<text text-anchor="middle" x="232" y="-646.32" font-family="FreeSans" font-size="10.00"> &lt; DGtal::DigitalSurface &gt;</text>
</g>
<!-- Node5 -->
<g id="node5" class="node">
<title>Node5</title>
<g id="a_node5"><a xlink:href="classDGtal_1_1CountedConstPtrOrConstPtr.html" target="_top" xlink:title=" ">
<polygon fill="white" stroke="black" points="322.5,-556.82 322.5,-597.82 516.5,-597.82 516.5,-556.82 322.5,-556.82"/>
<text text-anchor="start" x="330.5" y="-585.82" font-family="FreeSans" font-size="10.00">DGtal::CountedConstPtrOr</text>
<text text-anchor="start" x="330.5" y="-574.82" font-family="FreeSans" font-size="10.00">ConstPtr&lt; DGtal::VoronoiCovariance</text>
<text text-anchor="middle" x="419.5" y="-563.82" font-family="FreeSans" font-size="10.00">MeasureOnDigitalSurface &gt;</text>
</a>
</g>
</g>
<!-- Node1&#45;&gt;Node5 -->
<g id="edge4" class="edge">
<title>Node1&#45;&gt;Node5</title>
<path fill="none" stroke="orange" stroke-dasharray="5,2" d="M79.51,-400.53C90.64,-435.58 115.86,-498.34 161,-530.32 207.54,-563.28 270.33,-575.22 322.26,-578.83"/>
<polygon fill="orange" stroke="orange" points="82.75,-399.16 76.5,-390.6 76.05,-401.19 82.75,-399.16"/>
<text text-anchor="start" x="162" y="-590.32" font-family="FreeSans" font-size="10.00"> &lt; DGtal::VoronoiCovariance</text>
<text text-anchor="middle" x="232" y="-579.32" font-family="FreeSans" font-size="10.00">MeasureOnDigitalSurface &gt;</text>
</g>
<!-- Node6 -->
<g id="node6" class="node">
<title>Node6</title>
<g id="a_node6"><a xlink:href="classDGtal_1_1CountedConstPtrOrConstPtr.html" target="_top" xlink:title=" ">
<polygon fill="white" stroke="black" points="340.5,-507.32 340.5,-537.32 498.5,-537.32 498.5,-507.32 340.5,-507.32"/>
<text text-anchor="start" x="348.5" y="-525.32" font-family="FreeSans" font-size="10.00">DGtal::CountedConstPtrOr</text>
<text text-anchor="middle" x="419.5" y="-514.32" font-family="FreeSans" font-size="10.00">ConstPtr&lt; Eigen::MatrixXd &gt;</text>
</a>
</g>
</g>
<!-- Node1&#45;&gt;Node6 -->
<g id="edge5" class="edge">
<title>Node1&#45;&gt;Node6</title>
<path fill="none" stroke="orange" stroke-dasharray="5,2" d="M87.07,-398.83C102.52,-421.65 129.07,-455.37 161,-473.32 215.94,-504.21 286.8,-516.02 340.28,-520.35"/>
<polygon fill="orange" stroke="orange" points="89.94,-396.82 81.52,-390.39 84.09,-400.67 89.94,-396.82"/>
<text text-anchor="middle" x="232" y="-518.32" font-family="FreeSans" font-size="10.00"> &lt; Eigen::MatrixXd &gt;</text>
</g>
<!-- Node7 -->
<g id="node7" class="node">
<title>Node7</title>
<g id="a_node7"><a xlink:href="classDGtal_1_1CountedConstPtrOrConstPtr.html" target="_top" xlink:title=" ">
<polygon fill="white" stroke="black" points="348,-458.32 348,-488.32 491,-488.32 491,-458.32 348,-458.32"/>
<text text-anchor="start" x="356" y="-476.32" font-family="FreeSans" font-size="10.00">DGtal::CountedConstPtrOr</text>
<text text-anchor="middle" x="419.5" y="-465.32" font-family="FreeSans" font-size="10.00">ConstPtr&lt; Metric &gt;</text>
</a>
</g>
</g>
<!-- Node1&#45;&gt;Node7 -->
<g id="edge6" class="edge">
<title>Node1&#45;&gt;Node7</title>
<path fill="none" stroke="orange" stroke-dasharray="5,2" d="M103.84,-395.88C120.27,-405.82 141.07,-417.12 161,-424.32 222.09,-446.4 295.12,-459.09 347.77,-466"/>
<polygon fill="orange" stroke="orange" points="105.55,-392.82 95.2,-390.54 101.87,-398.78 105.55,-392.82"/>
<text text-anchor="middle" x="232" y="-461.32" font-family="FreeSans" font-size="10.00"> &lt; Metric &gt;</text>
</g>
<!-- Node8 -->
<g id="node8" class="node">
<title>Node8</title>
<g id="a_node8"><a xlink:href="classDGtal_1_1CountedConstPtrOrConstPtr.html" target="_top" xlink:title=" ">
<polygon fill="white" stroke="black" points="327,-409.32 327,-439.32 512,-439.32 512,-409.32 327,-409.32"/>
<text text-anchor="start" x="335" y="-427.32" font-family="FreeSans" font-size="10.00">DGtal::CountedConstPtrOr</text>
<text text-anchor="middle" x="419.5" y="-416.32" font-family="FreeSans" font-size="10.00">ConstPtr&lt; VCMOnDigitalSurface &gt;</text>
</a>
</g>
</g>
<!-- Node1&#45;&gt;Node8 -->
<g id="edge7" class="edge">
<title>Node1&#45;&gt;Node8</title>
<path fill="none" stroke="orange" stroke-dasharray="5,2" d="M153.42,-389.16C155.97,-389.55 158.51,-389.94 161,-390.32 215.96,-398.6 277.68,-406.79 326.92,-413.05"/>
<polygon fill="orange" stroke="orange" points="153.89,-385.69 143.47,-387.58 152.8,-392.6 153.89,-385.69"/>
<text text-anchor="middle" x="232" y="-412.32" font-family="FreeSans" font-size="10.00"> &lt; VCMOnDigitalSurface &gt;</text>
</g>
<!-- Node9 -->
<g id="node9" class="node">
<title>Node9</title>
<g id="a_node9"><a xlink:href="classDGtal_1_1CountedConstPtrOrConstPtr.html" target="_top" xlink:title=" ">
<polygon fill="white" stroke="black" points="348,-360.32 348,-390.32 491,-390.32 491,-360.32 348,-360.32"/>
<text text-anchor="start" x="356" y="-378.32" font-family="FreeSans" font-size="10.00">DGtal::CountedConstPtrOr</text>
<text text-anchor="middle" x="419.5" y="-367.32" font-family="FreeSans" font-size="10.00">ConstPtr&lt; DummyTbl &gt;</text>
</a>
</g>
</g>
<!-- Node1&#45;&gt;Node9 -->
<g id="edge8" class="edge">
<title>Node1&#45;&gt;Node9</title>
<path fill="none" stroke="orange" stroke-dasharray="5,2" d="M153.37,-375.32C212.28,-375.32 291.32,-375.32 347.74,-375.32"/>
<polygon fill="orange" stroke="orange" points="153.35,-371.82 143.35,-375.32 153.35,-378.82 153.35,-371.82"/>
<text text-anchor="middle" x="232" y="-378.32" font-family="FreeSans" font-size="10.00"> &lt; DummyTbl &gt;</text>
</g>
<!-- Node10 -->
<g id="node10" class="node">
<title>Node10</title>
<g id="a_node10"><a xlink:href="classDGtal_1_1CountedConstPtrOrConstPtr.html" target="_top" xlink:title=" ">
<polygon fill="white" stroke="black" points="332,-311.32 332,-341.32 507,-341.32 507,-311.32 332,-311.32"/>
<text text-anchor="start" x="340" y="-329.32" font-family="FreeSans" font-size="10.00">DGtal::CountedConstPtrOr</text>
<text text-anchor="middle" x="419.5" y="-318.32" font-family="FreeSans" font-size="10.00">ConstPtr&lt; ConvolutionFunctor &gt;</text>
</a>
</g>
</g>
<!-- Node1&#45;&gt;Node10 -->
<g id="edge9" class="edge">
<title>Node1&#45;&gt;Node10</title>
<path fill="none" stroke="orange" stroke-dasharray="5,2" d="M153.42,-361.48C155.97,-361.08 158.51,-360.69 161,-360.32 217.85,-351.75 281.95,-343.28 331.97,-336.94"/>
<polygon fill="orange" stroke="orange" points="152.8,-358.03 143.47,-363.05 153.89,-364.95 152.8,-358.03"/>
<text text-anchor="middle" x="232" y="-363.32" font-family="FreeSans" font-size="10.00"> &lt; ConvolutionFunctor &gt;</text>
</g>
<!-- Node11 -->
<g id="node11" class="node">
<title>Node11</title>
<g id="a_node11"><a xlink:href="classDGtal_1_1CountedConstPtrOrConstPtr.html" target="_top" xlink:title=" ">
<polygon fill="white" stroke="black" points="340.5,-262.32 340.5,-292.32 498.5,-292.32 498.5,-262.32 340.5,-262.32"/>
<text text-anchor="start" x="348.5" y="-280.32" font-family="FreeSans" font-size="10.00">DGtal::CountedConstPtrOr</text>
<text text-anchor="middle" x="419.5" y="-269.32" font-family="FreeSans" font-size="10.00">ConstPtr&lt; EuclideanShape &gt;</text>
</a>
</g>
</g>
<!-- Node1&#45;&gt;Node11 -->
<g id="edge10" class="edge">
<title>Node1&#45;&gt;Node11</title>
<path fill="none" stroke="orange" stroke-dasharray="5,2" d="M103.09,-354.7C119.6,-344.45 140.71,-332.71 161,-325.32 219.22,-304.12 288.41,-291.89 340.4,-285.08"/>
<polygon fill="orange" stroke="orange" points="100.99,-351.89 94.43,-360.21 104.74,-357.8 100.99,-351.89"/>
<text text-anchor="middle" x="232" y="-328.32" font-family="FreeSans" font-size="10.00"> &lt; EuclideanShape &gt;</text>
</g>
<!-- Node12 -->
<g id="node12" class="node">
<title>Node12</title>
<g id="a_node12"><a xlink:href="classDGtal_1_1CountedConstPtrOrConstPtr.html" target="_top" xlink:title=" ">
<polygon fill="white" stroke="black" points="328.5,-201.82 328.5,-242.82 510.5,-242.82 510.5,-201.82 328.5,-201.82"/>
<text text-anchor="start" x="336.5" y="-230.82" font-family="FreeSans" font-size="10.00">DGtal::CountedConstPtrOr</text>
<text text-anchor="start" x="336.5" y="-219.82" font-family="FreeSans" font-size="10.00">ConstPtr&lt; DGtal::DiscreteExterior</text>
<text text-anchor="middle" x="419.5" y="-208.82" font-family="FreeSans" font-size="10.00">Calculus &gt;</text>
</a>
</g>
</g>
<!-- Node1&#45;&gt;Node12 -->
<g id="edge11" class="edge">
<title>Node1&#45;&gt;Node12</title>
<path fill="none" stroke="orange" stroke-dasharray="5,2" d="M84.62,-351.31C99.07,-325.36 125.77,-284.95 161,-264.32 211.42,-234.8 276.41,-224.36 328.49,-221.27"/>
<polygon fill="orange" stroke="orange" points="81.52,-349.69 79.86,-360.16 87.68,-353.01 81.52,-349.69"/>
<text text-anchor="start" x="168.5" y="-278.32" font-family="FreeSans" font-size="10.00"> &lt; DGtal::DiscreteExterior</text>
<text text-anchor="middle" x="232" y="-267.32" font-family="FreeSans" font-size="10.00">Calculus &gt;</text>
</g>
<!-- Node13 -->
<g id="node13" class="node">
<title>Node13</title>
<g id="a_node13"><a xlink:href="classDGtal_1_1CountedConstPtrOrConstPtr.html" target="_top" xlink:title=" ">
<polygon fill="white" stroke="black" points="348,-152.32 348,-182.32 491,-182.32 491,-152.32 348,-152.32"/>
<text text-anchor="start" x="356" y="-170.32" font-family="FreeSans" font-size="10.00">DGtal::CountedConstPtrOr</text>
<text text-anchor="middle" x="419.5" y="-159.32" font-family="FreeSans" font-size="10.00">ConstPtr&lt; KSpace &gt;</text>
</a>
</g>
</g>
<!-- Node1&#45;&gt;Node13 -->
<g id="edge12" class="edge">
<title>Node1&#45;&gt;Node13</title>
<path fill="none" stroke="orange" stroke-dasharray="5,2" d="M78.3,-349.97C88.3,-312.48 112.53,-242.97 161,-208.32 215.22,-169.55 292.26,-161.82 347.93,-162.24"/>
<polygon fill="orange" stroke="orange" points="74.81,-349.52 75.75,-360.07 81.59,-351.23 74.81,-349.52"/>
<text text-anchor="middle" x="232" y="-211.32" font-family="FreeSans" font-size="10.00"> &lt; KSpace &gt;</text>
</g>
<!-- Node14 -->
<g id="node14" class="node">
<title>Node14</title>
<g id="a_node14"><a xlink:href="classDGtal_1_1CountedConstPtrOrConstPtr.html" target="_top" xlink:title=" ">
<polygon fill="white" stroke="black" points="348,-103.32 348,-133.32 491,-133.32 491,-103.32 348,-103.32"/>
<text text-anchor="start" x="356" y="-121.32" font-family="FreeSans" font-size="10.00">DGtal::CountedConstPtrOr</text>
<text text-anchor="middle" x="419.5" y="-110.32" font-family="FreeSans" font-size="10.00">ConstPtr&lt; ShapeA &gt;</text>
</a>
</g>
</g>
<!-- Node1&#45;&gt;Node14 -->
<g id="edge13" class="edge">
<title>Node1&#45;&gt;Node14</title>
<path fill="none" stroke="orange" stroke-dasharray="5,2" d="M74.2,-349.88C78.9,-301.86 96.39,-198.2 161,-148.32 213.72,-107.61 291.55,-103.94 347.83,-108.1"/>
<polygon fill="orange" stroke="orange" points="70.7,-349.78 73.32,-360.04 77.67,-350.38 70.7,-349.78"/>
<text text-anchor="middle" x="232" y="-151.32" font-family="FreeSans" font-size="10.00"> &lt; ShapeA &gt;</text>
</g>
<!-- Node15 -->
<g id="node15" class="node">
<title>Node15</title>
<g id="a_node15"><a xlink:href="classDGtal_1_1CountedConstPtrOrConstPtr.html" target="_top" xlink:title=" ">
<polygon fill="white" stroke="black" points="348,-54.32 348,-84.32 491,-84.32 491,-54.32 348,-54.32"/>
<text text-anchor="start" x="356" y="-72.32" font-family="FreeSans" font-size="10.00">DGtal::CountedConstPtrOr</text>
<text text-anchor="middle" x="419.5" y="-61.32" font-family="FreeSans" font-size="10.00">ConstPtr&lt; Shape &gt;</text>
</a>
</g>
</g>
<!-- Node1&#45;&gt;Node15 -->
<g id="edge14" class="edge">
<title>Node1&#45;&gt;Node15</title>
<path fill="none" stroke="orange" stroke-dasharray="5,2" d="M71.79,-349.92C71.75,-293.18 80.43,-156.07 161,-91.32 212.94,-49.58 291.26,-48.86 347.89,-55.62"/>
<polygon fill="orange" stroke="orange" points="68.3,-350.18 71.9,-360.15 75.3,-350.11 68.3,-350.18"/>
<text text-anchor="middle" x="232" y="-94.32" font-family="FreeSans" font-size="10.00"> &lt; Shape &gt;</text>
</g>
<!-- Node16 -->
<g id="node16" class="node">
<title>Node16</title>
<g id="a_node16"><a xlink:href="classDGtal_1_1CountedConstPtrOrConstPtr.html" target="_top" xlink:title=" ">
<polygon fill="white" stroke="black" points="344,-5.32 344,-35.32 495,-35.32 495,-5.32 344,-5.32"/>
<text text-anchor="start" x="352" y="-23.32" font-family="FreeSans" font-size="10.00">DGtal::CountedConstPtrOr</text>
<text text-anchor="middle" x="419.5" y="-12.32" font-family="FreeSans" font-size="10.00">ConstPtr&lt; PointPredicate &gt;</text>
</a>
</g>
</g>
<!-- Node1&#45;&gt;Node16 -->
<g id="edge15" class="edge">
<title>Node1&#45;&gt;Node16</title>
<path fill="none" stroke="orange" stroke-dasharray="5,2" d="M75.39,-349.8C84.06,-278.32 112.25,-78.71 161,-38.32 213.45,5.14 294.4,3.34 351.51,-5.3"/>
<polygon fill="orange" stroke="orange" points="71.87,-349.79 74.17,-360.13 78.82,-350.61 71.87,-349.79"/>
<text text-anchor="middle" x="232" y="-41.32" font-family="FreeSans" font-size="10.00"> &lt; PointPredicate &gt;</text>
</g>
</g>
</svg>
        <g id="navigator" transform="translate(0 0)" fill="#404254">
                <rect fill="#f2f5e9" fill-opacity="0.5" stroke="#606060" stroke-width=".5" x="0" y="0" width="60" height="60"/>
                <use id="zoomplus" xlink:href="#zoomPlus" x="17" y="9" onmousedown="handleZoom(evt,'in')"/>
                <use id="zoomminus" xlink:href="#zoomMin" x="42" y="9" onmousedown="handleZoom(evt,'out')"/>
                <use id="reset" xlink:href="#resetDef" x="30" y="36" onmousedown="handleReset()"/>
                <g id="arrowUp" xlink:href="#dirArrow" transform="translate(30 24)" onmousedown="handlePan(0,-1)">
                  <use xlink:href="#rim" fill="#404040">
                        <set attributeName="fill" to="#808080" begin="arrowUp.mouseover" end="arrowUp.mouseout"/>
                  </use>
                  <path fill="none" stroke="white" stroke-width="1.5" d="M0,-3.0v7 M-2.5,-0.5L0,-3.0L2.5,-0.5"/>
                </g>
                <g id="arrowRight" xlink:href="#dirArrow" transform="rotate(90) translate(36 -43)" onmousedown="handlePan(1,0)">
                  <use xlink:href="#rim" fill="#404040">
                        <set attributeName="fill" to="#808080" begin="arrowRight.mouseover" end="arrowRight.mouseout"/>
                  </use>
                  <path fill="none" stroke="white" stroke-width="1.5" d="M0,-3.0v7 M-2.5,-0.5L0,-3.0L2.5,-0.5"/>
                </g>
                <g id="arrowDown" xlink:href="#dirArrow" transform="rotate(180) translate(-30 -48)" onmousedown="handlePan(0,1)">
                  <use xlink:href="#rim" fill="#404040">
                        <set attributeName="fill" to="#808080" begin="arrowDown.mouseover" end="arrowDown.mouseout"/>
                  </use>
                  <path fill="none" stroke="white" stroke-width="1.5" d="M0,-3.0v7 M-2.5,-0.5L0,-3.0L2.5,-0.5"/>
                </g>
                <g id="arrowLeft" xlink:href="#dirArrow" transform="rotate(270) translate(-36 17)" onmousedown="handlePan(-1,0)">
                  <use xlink:href="#rim" fill="#404040">
                        <set attributeName="fill" to="#808080" begin="arrowLeft.mouseover" end="arrowLeft.mouseout"/>
                  </use>
                  <path fill="none" stroke="white" stroke-width="1.5" d="M0,-3.0v7 M-2.5,-0.5L0,-3.0L2.5,-0.5"/>
                </g>
        </g>
        <svg viewBox="0 0 15 15" width="100%" height="30px" preserveAspectRatio="xMaxYMin meet">
         <g id="arrow_out" transform="scale(0.3 0.3)">
          <a xlink:href="classDGtal_1_1CountedConstPtrOrConstPtr__inherit__graph_org.svg" target="_base">
           <rect id="button" ry="5" rx="5" y="6" x="6" height="38" width="38"
                fill="#f2f5e9" fill-opacity="0.5" stroke="#606060" stroke-width="1.0"/>
           <path id="arrow"
             d="M 11.500037,31.436501 C 11.940474,20.09759 22.043105,11.32322 32.158766,21.979434 L 37.068811,17.246167 C 37.068811,17.246167 37.088388,32 37.088388,32 L 22.160133,31.978069 C 22.160133,31.978069 26.997745,27.140456 26.997745,27.140456 C 18.528582,18.264221 13.291696,25.230495 11.500037,31.436501 z"
             style="fill:#404040;"/>
          </a>
         </g>
        </svg>
</svg>
