<?xml version="1.0" encoding="UTF-8" standalone="no"?>
<!DOCTYPE svg PUBLIC "-//W3C//DTD SVG 1.1//EN"
 "http://www.w3.org/Graphics/SVG/1.1/DTD/svg11.dtd">
<!-- Generated by graphviz version 2.43.0 (0)
 -->
<!-- Title: DGtal::StarShaped2D&lt; TSpace &gt; Pages: 1 -->
<svg width="561pt" height="312pt"
 viewBox="0.00 0.00 561.00 312.28" xmlns="http://www.w3.org/2000/svg" xmlns:xlink="http://www.w3.org/1999/xlink">
<g id="graph0" class="graph" transform="scale(1 1) rotate(0) translate(4 308.28)">
<title>DGtal::StarShaped2D&lt; TSpace &gt;</title>
<polygon fill="white" stroke="transparent" points="-4,4 -4,-308.28 557,-308.28 557,4 -4,4"/>
<!-- Node1 -->
<g id="node1" class="node">
<title>Node1</title>
<g id="a_node1"><a xlink:title=" ">
<polygon fill="#bfbfbf" stroke="black" points="0,-140 0,-170 119,-170 119,-140 0,-140"/>
<text text-anchor="start" x="8" y="-158" font-family="FreeSans" font-size="10.00">DGtal::StarShaped2D</text>
<text text-anchor="middle" x="59.5" y="-147" font-family="FreeSans" font-size="10.00">&lt; TSpace &gt;</text>
</a>
</g>
</g>
<!-- Node2 -->
<g id="node2" class="node">
<title>Node2</title>
<g id="a_node2"><a xlink:href="classDGtal_1_1Astroid2D.html" target="_top" xlink:title=" ">
<polygon fill="white" stroke="black" points="403,-246.5 403,-265.5 553,-265.5 553,-246.5 403,-246.5"/>
<text text-anchor="middle" x="478" y="-253.5" font-family="FreeSans" font-size="10.00">DGtal::Astroid2D&lt; Space &gt;</text>
</a>
</g>
</g>
<!-- Node1&#45;&gt;Node2 -->
<g id="edge1" class="edge">
<title>Node1&#45;&gt;Node2</title>
<path fill="none" stroke="midnightblue" d="M70.82,-179.75C84.98,-210.05 113.6,-259.93 156,-281 257.12,-331.24 398.52,-286.63 453.68,-265.57"/>
<polygon fill="midnightblue" stroke="midnightblue" points="73.86,-177.98 66.57,-170.29 67.48,-180.85 73.86,-177.98"/>
</g>
<!-- Node3 -->
<g id="node3" class="node">
<title>Node3</title>
<g id="a_node3"><a xlink:href="classDGtal_1_1AccFlower2D.html" target="_top" xlink:title="Aim: Model of the concept StarShaped represents any accelerated flower in the plane.">
<polygon fill="white" stroke="black" points="177,-241 177,-271 291,-271 291,-241 177,-241"/>
<text text-anchor="start" x="185" y="-259" font-family="FreeSans" font-size="10.00">DGtal::AccFlower2D</text>
<text text-anchor="middle" x="234" y="-248" font-family="FreeSans" font-size="10.00">&lt; TSpace &gt;</text>
</a>
</g>
</g>
<!-- Node1&#45;&gt;Node3 -->
<g id="edge2" class="edge">
<title>Node1&#45;&gt;Node3</title>
<path fill="none" stroke="midnightblue" d="M83.6,-177.33C101.96,-194.06 128.97,-216.48 156,-231 162.93,-234.73 170.52,-238.02 178.14,-240.89"/>
<polygon fill="midnightblue" stroke="midnightblue" points="85.51,-174.33 75.8,-170.1 80.75,-179.47 85.51,-174.33"/>
</g>
<!-- Node4 -->
<g id="node4" class="node">
<title>Node4</title>
<g id="a_node4"><a xlink:href="classDGtal_1_1Astroid2D.html" target="_top" xlink:title="Aim: Model of the concept StarShaped represents an astroid.">
<polygon fill="white" stroke="black" points="156,-202.5 156,-221.5 312,-221.5 312,-202.5 156,-202.5"/>
<text text-anchor="middle" x="234" y="-209.5" font-family="FreeSans" font-size="10.00">DGtal::Astroid2D&lt; TSpace &gt;</text>
</a>
</g>
</g>
<!-- Node1&#45;&gt;Node4 -->
<g id="edge3" class="edge">
<title>Node1&#45;&gt;Node4</title>
<path fill="none" stroke="midnightblue" d="M104.64,-174.03C120.64,-180.53 138.97,-187.54 156,-193 166.88,-196.49 178.8,-199.71 189.94,-202.48"/>
<polygon fill="midnightblue" stroke="midnightblue" points="105.59,-170.63 95.01,-170.06 102.92,-177.1 105.59,-170.63"/>
</g>
<!-- Node5 -->
<g id="node5" class="node">
<title>Node5</title>
<g id="a_node5"><a xlink:href="classDGtal_1_1Ball2D.html" target="_top" xlink:title="Aim: Model of the concept StarShaped represents any circle in the plane.">
<polygon fill="white" stroke="black" points="164,-164.5 164,-183.5 304,-183.5 304,-164.5 164,-164.5"/>
<text text-anchor="middle" x="234" y="-171.5" font-family="FreeSans" font-size="10.00">DGtal::Ball2D&lt; TSpace &gt;</text>
</a>
</g>
</g>
<!-- Node1&#45;&gt;Node5 -->
<g id="edge5" class="edge">
<title>Node1&#45;&gt;Node5</title>
<path fill="none" stroke="midnightblue" d="M129.63,-162.61C140.94,-163.86 152.67,-165.15 163.98,-166.4"/>
<polygon fill="midnightblue" stroke="midnightblue" points="129.71,-159.1 119.38,-161.49 128.94,-166.06 129.71,-159.1"/>
</g>
<!-- Node6 -->
<g id="node6" class="node">
<title>Node6</title>
<g id="a_node6"><a xlink:href="classDGtal_1_1Ellipse2D.html" target="_top" xlink:title="Aim: Model of the concept StarShaped represents any ellipse in the plane.">
<polygon fill="white" stroke="black" points="157,-126.5 157,-145.5 311,-145.5 311,-126.5 157,-126.5"/>
<text text-anchor="middle" x="234" y="-133.5" font-family="FreeSans" font-size="10.00">DGtal::Ellipse2D&lt; TSpace &gt;</text>
</a>
</g>
</g>
<!-- Node1&#45;&gt;Node6 -->
<g id="edge6" class="edge">
<title>Node1&#45;&gt;Node6</title>
<path fill="none" stroke="midnightblue" d="M129.47,-147.4C138.52,-146.41 147.84,-145.38 157,-144.37"/>
<polygon fill="midnightblue" stroke="midnightblue" points="128.94,-143.94 119.38,-148.51 129.71,-150.9 128.94,-143.94"/>
</g>
<!-- Node7 -->
<g id="node7" class="node">
<title>Node7</title>
<g id="a_node7"><a xlink:href="classDGtal_1_1Flower2D.html" target="_top" xlink:title="Aim: Model of the concept StarShaped represents any flower with k&#45;petals in the plane.">
<polygon fill="white" stroke="black" points="156.5,-88.5 156.5,-107.5 311.5,-107.5 311.5,-88.5 156.5,-88.5"/>
<text text-anchor="middle" x="234" y="-95.5" font-family="FreeSans" font-size="10.00">DGtal::Flower2D&lt; TSpace &gt;</text>
</a>
</g>
</g>
<!-- Node1&#45;&gt;Node7 -->
<g id="edge7" class="edge">
<title>Node1&#45;&gt;Node7</title>
<path fill="none" stroke="midnightblue" d="M104.64,-135.97C120.64,-129.47 138.97,-122.46 156,-117 166.88,-113.51 178.8,-110.29 189.94,-107.52"/>
<polygon fill="midnightblue" stroke="midnightblue" points="102.92,-132.9 95.01,-139.94 105.59,-139.37 102.92,-132.9"/>
</g>
<!-- Node8 -->
<g id="node8" class="node">
<title>Node8</title>
<g id="a_node8"><a xlink:href="classDGtal_1_1Lemniscate2D.html" target="_top" xlink:title="Aim: Model of the concept StarShaped represents a lemniscate.">
<polygon fill="white" stroke="black" points="174,-39 174,-69 294,-69 294,-39 174,-39"/>
<text text-anchor="start" x="182" y="-57" font-family="FreeSans" font-size="10.00">DGtal::Lemniscate2D</text>
<text text-anchor="middle" x="234" y="-46" font-family="FreeSans" font-size="10.00">&lt; TSpace &gt;</text>
</a>
</g>
</g>
<!-- Node1&#45;&gt;Node8 -->
<g id="edge8" class="edge">
<title>Node1&#45;&gt;Node8</title>
<path fill="none" stroke="midnightblue" d="M83.6,-132.67C101.96,-115.94 128.97,-93.52 156,-79 162.93,-75.27 170.52,-71.98 178.14,-69.11"/>
<polygon fill="midnightblue" stroke="midnightblue" points="80.75,-130.53 75.8,-139.9 85.51,-135.67 80.75,-130.53"/>
</g>
<!-- Node9 -->
<g id="node9" class="node">
<title>Node9</title>
<g id="a_node9"><a xlink:href="classDGtal_1_1NGon2D.html" target="_top" xlink:title="Aim: Model of the concept StarShaped represents any regular k&#45;gon in the plane.">
<polygon fill="white" stroke="black" points="159.5,-0.5 159.5,-19.5 308.5,-19.5 308.5,-0.5 159.5,-0.5"/>
<text text-anchor="middle" x="234" y="-7.5" font-family="FreeSans" font-size="10.00">DGtal::NGon2D&lt; TSpace &gt;</text>
</a>
</g>
</g>
<!-- Node1&#45;&gt;Node9 -->
<g id="edge9" class="edge">
<title>Node1&#45;&gt;Node9</title>
<path fill="none" stroke="midnightblue" d="M72.55,-130.76C87.97,-102.27 117.37,-55.66 156,-30 162.56,-25.64 170.01,-22.24 177.64,-19.57"/>
<polygon fill="midnightblue" stroke="midnightblue" points="69.42,-129.18 67.86,-139.66 75.62,-132.44 69.42,-129.18"/>
</g>
<!-- Node4&#45;&gt;Node2 -->
<g id="edge4" class="edge">
<title>Node4&#45;&gt;Node2</title>
<path fill="none" stroke="orange" stroke-dasharray="5,2" d="M297.54,-223.37C336.96,-230.54 387.27,-239.69 424.59,-246.47"/>
<polygon fill="orange" stroke="orange" points="297.98,-219.89 287.51,-221.55 296.72,-226.78 297.98,-219.89"/>
<text text-anchor="middle" x="357.5" y="-242" font-family="FreeSans" font-size="10.00"> &lt; Space &gt;</text>
</g>
</g>
</svg>
