<?xml version="1.0" encoding="UTF-8" standalone="no"?>
<!DOCTYPE svg PUBLIC "-//W3C//DTD SVG 1.1//EN"
 "http://www.w3.org/Graphics/SVG/1.1/DTD/svg11.dtd">
<!-- Generated by graphviz version 2.43.0 (0)
 -->
<!-- Title: DGtal::BLUELocalLengthEstimator&lt; TConstIterator &gt; Pages: 1 -->
<svg width="190pt" height="106pt"
 viewBox="0.00 0.00 190.00 106.00" xmlns="http://www.w3.org/2000/svg" xmlns:xlink="http://www.w3.org/1999/xlink">
<g id="graph0" class="graph" transform="scale(1 1) rotate(0) translate(4 102)">
<title>DGtal::BLUELocalLengthEstimator&lt; TConstIterator &gt;</title>
<polygon fill="white" stroke="transparent" points="-4,4 -4,-102 186,-102 186,4 -4,4"/>
<!-- Node1 -->
<g id="node1" class="node">
<title>Node1</title>
<g id="a_node1"><a xlink:title="Aim: Best Linear Unbiased Two step length estimator.">
<polygon fill="#bfbfbf" stroke="black" points="0,-0.5 0,-30.5 182,-30.5 182,-0.5 0,-0.5"/>
<text text-anchor="start" x="8" y="-18.5" font-family="FreeSans" font-size="10.00">DGtal::BLUELocalLengthEstimator</text>
<text text-anchor="middle" x="91" y="-7.5" font-family="FreeSans" font-size="10.00">&lt; TConstIterator &gt;</text>
</a>
</g>
</g>
<!-- Node2 -->
<g id="node2" class="node">
<title>Node2</title>
<g id="a_node2"><a xlink:href="classDGtal_1_1TwoStepLocalLengthEstimator.html" target="_top" xlink:title="Aim: a simple model of CGlobalCurveEstimator that compute the length of a curve using the l_1 metric ...">
<polygon fill="white" stroke="black" points="13.5,-67.5 13.5,-97.5 168.5,-97.5 168.5,-67.5 13.5,-67.5"/>
<text text-anchor="start" x="21.5" y="-85.5" font-family="FreeSans" font-size="10.00">DGtal::TwoStepLocalLength</text>
<text text-anchor="middle" x="91" y="-74.5" font-family="FreeSans" font-size="10.00">Estimator&lt; TConstIterator &gt;</text>
</a>
</g>
</g>
<!-- Node2&#45;&gt;Node1 -->
<g id="edge1" class="edge">
<title>Node2&#45;&gt;Node1</title>
<path fill="none" stroke="midnightblue" d="M91,-57.11C91,-48.15 91,-38.32 91,-30.58"/>
<polygon fill="midnightblue" stroke="midnightblue" points="87.5,-57.4 91,-67.4 94.5,-57.4 87.5,-57.4"/>
</g>
</g>
</svg>
