<?xml version="1.0" encoding="UTF-8" standalone="no"?>
<!DOCTYPE svg PUBLIC "-//W3C//DTD SVG 1.1//EN"
 "http://www.w3.org/Graphics/SVG/1.1/DTD/svg11.dtd">
<!-- Generated by graphviz version 2.43.0 (0)
 -->
<!-- Title: DGtal::IteratorCompletion&lt; TDerived &gt; Pages: 1 -->
<svg width="756pt" height="102pt"
 viewBox="0.00 0.00 756.00 101.50" xmlns="http://www.w3.org/2000/svg" xmlns:xlink="http://www.w3.org/1999/xlink">
<g id="graph0" class="graph" transform="scale(1 1) rotate(0) translate(4 97.5)">
<title>DGtal::IteratorCompletion&lt; TDerived &gt;</title>
<polygon fill="white" stroke="transparent" points="-4,4 -4,-97.5 752,-97.5 752,4 -4,4"/>
<!-- Node1 -->
<g id="node1" class="node">
<title>Node1</title>
<g id="a_node1"><a xlink:title="Aim: Class that uses CRTP to add reverse iterators and ranges to a derived class.">
<polygon fill="#bfbfbf" stroke="black" points="0,-27.5 0,-57.5 143,-57.5 143,-27.5 0,-27.5"/>
<text text-anchor="start" x="8" y="-45.5" font-family="FreeSans" font-size="10.00">DGtal::IteratorCompletion</text>
<text text-anchor="middle" x="71.5" y="-34.5" font-family="FreeSans" font-size="10.00">&lt; TDerived &gt;</text>
</a>
</g>
</g>
<!-- Node2 -->
<g id="node2" class="node">
<title>Node2</title>
<g id="a_node2"><a xlink:href="classDGtal_1_1IteratorCompletion.html" target="_top" xlink:title=" ">
<polygon fill="white" stroke="black" points="315,-50 315,-91 520,-91 520,-50 315,-50"/>
<text text-anchor="start" x="323" y="-79" font-family="FreeSans" font-size="10.00">DGtal::IteratorCompletion</text>
<text text-anchor="start" x="323" y="-68" font-family="FreeSans" font-size="10.00">&lt; ArrayImageAdapter&lt; TArrayIterator,</text>
<text text-anchor="middle" x="417.5" y="-57" font-family="FreeSans" font-size="10.00"> HyperRectDomain&lt; TSpace &gt; &gt; &gt;</text>
</a>
</g>
</g>
<!-- Node1&#45;&gt;Node2 -->
<g id="edge1" class="edge">
<title>Node1&#45;&gt;Node2</title>
<path fill="none" stroke="orange" stroke-dasharray="5,2" d="M153.43,-49.09C201.64,-53.01 263.26,-58.03 314.74,-62.22"/>
<polygon fill="orange" stroke="orange" points="153.61,-45.59 143.36,-48.27 153.04,-52.57 153.61,-45.59"/>
<text text-anchor="start" x="161" y="-85.5" font-family="FreeSans" font-size="10.00"> &lt; ArrayImageAdapter</text>
<text text-anchor="start" x="161" y="-74.5" font-family="FreeSans" font-size="10.00">&lt; TArrayIterator, HyperRect</text>
<text text-anchor="middle" x="229" y="-63.5" font-family="FreeSans" font-size="10.00">Domain&lt; TSpace &gt; &gt; &gt;</text>
</g>
<!-- Node4 -->
<g id="node4" class="node">
<title>Node4</title>
<g id="a_node4"><a xlink:href="classDGtal_1_1IteratorCompletion.html" target="_top" xlink:title=" ">
<polygon fill="white" stroke="black" points="346,-0.5 346,-30.5 489,-30.5 489,-0.5 346,-0.5"/>
<text text-anchor="start" x="354" y="-18.5" font-family="FreeSans" font-size="10.00">DGtal::IteratorCompletion</text>
<text text-anchor="middle" x="417.5" y="-7.5" font-family="FreeSans" font-size="10.00">&lt; MyImage&lt; T, N &gt; &gt;</text>
</a>
</g>
</g>
<!-- Node1&#45;&gt;Node4 -->
<g id="edge3" class="edge">
<title>Node1&#45;&gt;Node4</title>
<path fill="none" stroke="orange" stroke-dasharray="5,2" d="M153.41,-32.24C155.97,-31.98 158.5,-31.73 161,-31.5 223.4,-25.67 294.57,-21.41 345.92,-18.76"/>
<polygon fill="orange" stroke="orange" points="153.04,-28.76 143.47,-33.29 153.78,-35.72 153.04,-28.76"/>
<text text-anchor="middle" x="229" y="-34.5" font-family="FreeSans" font-size="10.00"> &lt; MyImage&lt; T, N &gt; &gt;</text>
</g>
<!-- Node3 -->
<g id="node3" class="node">
<title>Node3</title>
<g id="a_node3"><a xlink:href="classDGtal_1_1ArrayImageAdapter_3_01TArrayIterator_00_01HyperRectDomain_3_01TSpace_01_4_01_4.html" target="_top" xlink:title="Aim: Image adapter for generic arrays with sub&#45;domain view capability.">
<polygon fill="white" stroke="black" points="557,-50 557,-91 748,-91 748,-50 557,-50"/>
<text text-anchor="start" x="565" y="-79" font-family="FreeSans" font-size="10.00">DGtal::ArrayImageAdapter</text>
<text text-anchor="start" x="565" y="-68" font-family="FreeSans" font-size="10.00">&lt; TArrayIterator, HyperRectDomain</text>
<text text-anchor="middle" x="652.5" y="-57" font-family="FreeSans" font-size="10.00">&lt; TSpace &gt; &gt;</text>
</a>
</g>
</g>
<!-- Node2&#45;&gt;Node3 -->
<g id="edge2" class="edge">
<title>Node2&#45;&gt;Node3</title>
<path fill="none" stroke="midnightblue" d="M530.12,-70.5C539.09,-70.5 548.1,-70.5 556.93,-70.5"/>
<polygon fill="midnightblue" stroke="midnightblue" points="530.02,-67 520.02,-70.5 530.02,-74 530.02,-67"/>
</g>
<!-- Node5 -->
<g id="node5" class="node">
<title>Node5</title>
<g id="a_node5"><a xlink:title=" ">
<polygon fill="white" stroke="#bfbfbf" points="600.5,-6 600.5,-25 704.5,-25 704.5,-6 600.5,-6"/>
<text text-anchor="middle" x="652.5" y="-13" font-family="FreeSans" font-size="10.00">MyImage&lt; T, N &gt;</text>
</a>
</g>
</g>
<!-- Node4&#45;&gt;Node5 -->
<g id="edge4" class="edge">
<title>Node4&#45;&gt;Node5</title>
<path fill="none" stroke="midnightblue" d="M499.3,-15.5C532.88,-15.5 570.83,-15.5 600.43,-15.5"/>
<polygon fill="midnightblue" stroke="midnightblue" points="499.04,-12 489.04,-15.5 499.04,-19 499.04,-12"/>
</g>
</g>
</svg>
