<?xml version="1.0" encoding="UTF-8" standalone="no"?>
<!DOCTYPE svg PUBLIC "-//W3C//DTD SVG 1.1//EN"
 "http://www.w3.org/Graphics/SVG/1.1/DTD/svg11.dtd">
<!-- Generated by graphviz version 2.43.0 (0)
 -->
<!-- Title: boost::graph_traits&lt; DGtal::Object&lt; TDigitalTopology, TDigitalSet &gt; &gt;::out_edge_iterator Pages: 1 -->
<svg width="380pt" height="61pt"
 viewBox="0.00 0.00 380.00 61.00" xmlns="http://www.w3.org/2000/svg" xmlns:xlink="http://www.w3.org/1999/xlink">
<g id="graph0" class="graph" transform="scale(1 1) rotate(0) translate(4 57)">
<title>boost::graph_traits&lt; DGtal::Object&lt; TDigitalTopology, TDigitalSet &gt; &gt;::out_edge_iterator</title>
<polygon fill="white" stroke="transparent" points="-4,4 -4,-57 376,-57 376,4 -4,4"/>
<!-- Node1 -->
<g id="node1" class="node">
<title>Node1</title>
<g id="a_node1"><a xlink:title=" ">
<polygon fill="#bfbfbf" stroke="black" points="183,-6 183,-47 372,-47 372,-6 183,-6"/>
<text text-anchor="start" x="191" y="-35" font-family="FreeSans" font-size="10.00">boost::graph_traits</text>
<text text-anchor="start" x="191" y="-24" font-family="FreeSans" font-size="10.00">&lt; DGtal::Object&lt; TDigitalTopology,</text>
<text text-anchor="middle" x="277.5" y="-13" font-family="FreeSans" font-size="10.00"> TDigitalSet &gt; &gt;::out_edge_iterator</text>
</a>
</g>
</g>
<!-- Node2 -->
<g id="node2" class="node">
<title>Node2</title>
<g id="a_node2"><a xlink:title=" ">
<polygon fill="white" stroke="#bfbfbf" points="0,-0.5 0,-52.5 147,-52.5 147,-0.5 0,-0.5"/>
<text text-anchor="start" x="8" y="-40.5" font-family="FreeSans" font-size="10.00">boost::iterator_facade</text>
<text text-anchor="start" x="8" y="-29.5" font-family="FreeSans" font-size="10.00">&lt; out_edge_iterator, Edge,</text>
<text text-anchor="start" x="8" y="-18.5" font-family="FreeSans" font-size="10.00"> bidirectional_traversal</text>
<text text-anchor="middle" x="73.5" y="-7.5" font-family="FreeSans" font-size="10.00">_tag, const Edge &amp; &gt;</text>
</a>
</g>
</g>
<!-- Node2&#45;&gt;Node1 -->
<g id="edge1" class="edge">
<title>Node2&#45;&gt;Node1</title>
<path fill="none" stroke="midnightblue" d="M157.26,-26.5C165.65,-26.5 174.2,-26.5 182.69,-26.5"/>
<polygon fill="midnightblue" stroke="midnightblue" points="157.14,-23 147.14,-26.5 157.14,-30 157.14,-23"/>
</g>
</g>
</svg>
