<?xml version="1.0" encoding="UTF-8" standalone="no"?>
<!DOCTYPE svg PUBLIC "-//W3C//DTD SVG 1.1//EN"
 "http://www.w3.org/Graphics/SVG/1.1/DTD/svg11.dtd">
<!-- Generated by graphviz version 2.43.0 (0)
 -->
<!-- Title: DGtal::HyperRectDomain_ReverseIterator&lt; TIterator &gt; Pages: 1 -->
<svg width="453pt" height="83pt"
 viewBox="0.00 0.00 453.00 83.00" xmlns="http://www.w3.org/2000/svg" xmlns:xlink="http://www.w3.org/1999/xlink">
<g id="graph0" class="graph" transform="scale(1 1) rotate(0) translate(4 79)">
<title>DGtal::HyperRectDomain_ReverseIterator&lt; TIterator &gt;</title>
<polygon fill="white" stroke="transparent" points="-4,4 -4,-79 449,-79 449,4 -4,4"/>
<!-- Node1 -->
<g id="node1" class="node">
<title>Node1</title>
<g id="a_node1"><a xlink:title="Reverse iterator for HyperRectDomain.">
<polygon fill="#bfbfbf" stroke="black" points="283,-22.5 283,-52.5 445,-52.5 445,-22.5 283,-22.5"/>
<text text-anchor="start" x="291" y="-40.5" font-family="FreeSans" font-size="10.00">DGtal::HyperRectDomain</text>
<text text-anchor="middle" x="364" y="-29.5" font-family="FreeSans" font-size="10.00">_ReverseIterator&lt; TIterator &gt;</text>
</a>
</g>
</g>
<!-- Node2 -->
<g id="node2" class="node">
<title>Node2</title>
<g id="a_node2"><a xlink:title=" ">
<polygon fill="white" stroke="#bfbfbf" points="0,-0.5 0,-74.5 247,-74.5 247,-0.5 0,-0.5"/>
<text text-anchor="start" x="8" y="-62.5" font-family="FreeSans" font-size="10.00">boost::iterator_facade</text>
<text text-anchor="start" x="8" y="-51.5" font-family="FreeSans" font-size="10.00">&lt; HyperRectDomain_ReverseIterator</text>
<text text-anchor="start" x="8" y="-40.5" font-family="FreeSans" font-size="10.00">&lt; TIterator &gt;, TIterator::Point</text>
<text text-anchor="start" x="8" y="-29.5" font-family="FreeSans" font-size="10.00"> const, std::random_access_iterator</text>
<text text-anchor="start" x="8" y="-18.5" font-family="FreeSans" font-size="10.00">_tag, TIterator::Point const &amp;, std</text>
<text text-anchor="middle" x="123.5" y="-7.5" font-family="FreeSans" font-size="10.00">::iterator_traits&lt; TIterator &gt;::difference_type &gt;</text>
</a>
</g>
</g>
<!-- Node2&#45;&gt;Node1 -->
<g id="edge1" class="edge">
<title>Node2&#45;&gt;Node1</title>
<path fill="none" stroke="midnightblue" d="M257.43,-37.5C266.08,-37.5 274.63,-37.5 282.9,-37.5"/>
<polygon fill="midnightblue" stroke="midnightblue" points="257.24,-34 247.24,-37.5 257.24,-41 257.24,-34"/>
</g>
</g>
</svg>
