<?xml version="1.0" encoding="UTF-8" standalone="no"?>
<!DOCTYPE svg PUBLIC "-//W3C//DTD SVG 1.1//EN"
 "http://www.w3.org/Graphics/SVG/1.1/DTD/svg11.dtd">
<!-- Generated by graphviz version 2.43.0 (0)
 -->
<!-- Title: DGtal::IteratorAdapter&lt; TIterator, TFunctor, TReturnType &gt; Pages: 1 -->
<svg width="341pt" height="61pt"
 viewBox="0.00 0.00 341.00 61.00" xmlns="http://www.w3.org/2000/svg" xmlns:xlink="http://www.w3.org/1999/xlink">
<g id="graph0" class="graph" transform="scale(1 1) rotate(0) translate(4 57)">
<title>DGtal::IteratorAdapter&lt; TIterator, TFunctor, TReturnType &gt;</title>
<polygon fill="white" stroke="transparent" points="-4,4 -4,-57 337,-57 337,4 -4,4"/>
<!-- Node1 -->
<g id="node1" class="node">
<title>Node1</title>
<g id="a_node1"><a xlink:title="This class adapts any lvalue iterator so that operator* returns a member on the element pointed to by...">
<polygon fill="#bfbfbf" stroke="black" points="208,-6 208,-47 333,-47 333,-6 208,-6"/>
<text text-anchor="start" x="216" y="-35" font-family="FreeSans" font-size="10.00">DGtal::IteratorAdapter</text>
<text text-anchor="start" x="216" y="-24" font-family="FreeSans" font-size="10.00">&lt; TIterator, TFunctor,</text>
<text text-anchor="middle" x="270.5" y="-13" font-family="FreeSans" font-size="10.00"> TReturnType &gt;</text>
</a>
</g>
</g>
<!-- Node2 -->
<g id="node2" class="node">
<title>Node2</title>
<g id="a_node2"><a xlink:title=" ">
<polygon fill="white" stroke="#bfbfbf" points="0,-0.5 0,-52.5 172,-52.5 172,-0.5 0,-0.5"/>
<text text-anchor="start" x="8" y="-40.5" font-family="FreeSans" font-size="10.00">boost::transform_iterator</text>
<text text-anchor="start" x="8" y="-29.5" font-family="FreeSans" font-size="10.00">&lt; TFunctor, TIterator,</text>
<text text-anchor="start" x="8" y="-18.5" font-family="FreeSans" font-size="10.00"> typename TFunctor::Value</text>
<text text-anchor="middle" x="86" y="-7.5" font-family="FreeSans" font-size="10.00"> &amp;, typename TFunctor::Value &gt;</text>
</a>
</g>
</g>
<!-- Node2&#45;&gt;Node1 -->
<g id="edge1" class="edge">
<title>Node2&#45;&gt;Node1</title>
<path fill="none" stroke="midnightblue" d="M182.31,-26.5C191.01,-26.5 199.65,-26.5 207.93,-26.5"/>
<polygon fill="midnightblue" stroke="midnightblue" points="182.11,-23 172.11,-26.5 182.11,-30 182.11,-23"/>
</g>
</g>
</svg>
