<?xml version="1.0" encoding="UTF-8" standalone="no"?>
<!DOCTYPE svg PUBLIC "-//W3C//DTD SVG 1.1//EN"
 "http://www.w3.org/Graphics/SVG/1.1/DTD/svg11.dtd">
<!-- Generated by graphviz version 2.43.0 (0)
 -->
<!-- Title: DGtal::detail::PosIndepScaleDepSCEstimator&lt; TSegmentComputer, Functor, ReturnType &gt; Pages: 1 -->
<svg width="813pt" height="61pt"
 viewBox="0.00 0.00 813.00 61.00" xmlns="http://www.w3.org/2000/svg" xmlns:xlink="http://www.w3.org/1999/xlink">
<g id="graph0" class="graph" transform="scale(1 1) rotate(0) translate(4 57)">
<title>DGtal::detail::PosIndepScaleDepSCEstimator&lt; TSegmentComputer, Functor, ReturnType &gt;</title>
<polygon fill="white" stroke="transparent" points="-4,4 -4,-57 809,-57 809,4 -4,4"/>
<!-- Node1 -->
<g id="node1" class="node">
<title>Node1</title>
<g id="a_node1"><a xlink:title=" ">
<polygon fill="#bfbfbf" stroke="black" points="0,-6 0,-47 208,-47 208,-6 0,-6"/>
<text text-anchor="start" x="8" y="-35" font-family="FreeSans" font-size="10.00">DGtal::detail::PosIndepScale</text>
<text text-anchor="start" x="8" y="-24" font-family="FreeSans" font-size="10.00">DepSCEstimator&lt; TSegmentComputer,</text>
<text text-anchor="middle" x="104" y="-13" font-family="FreeSans" font-size="10.00"> Functor, ReturnType &gt;</text>
</a>
</g>
</g>
<!-- Node2 -->
<g id="node2" class="node">
<title>Node2</title>
<g id="a_node2"><a xlink:href="classDGtal_1_1detail_1_1PosIndepScaleDepSCEstimator.html" target="_top" xlink:title=" ">
<polygon fill="white" stroke="black" points="398,-0.5 398,-52.5 577,-52.5 577,-0.5 398,-0.5"/>
<text text-anchor="start" x="406" y="-40.5" font-family="FreeSans" font-size="10.00">DGtal::detail::PosIndepScale</text>
<text text-anchor="start" x="406" y="-29.5" font-family="FreeSans" font-size="10.00">DepSCEstimator&lt; DCAComputer,</text>
<text text-anchor="start" x="406" y="-18.5" font-family="FreeSans" font-size="10.00"> detail::CurvatureFromDCA&lt;</text>
<text text-anchor="middle" x="487.5" y="-7.5" font-family="FreeSans" font-size="10.00"> true &gt; &gt;</text>
</a>
</g>
</g>
<!-- Node1&#45;&gt;Node2 -->
<g id="edge1" class="edge">
<title>Node1&#45;&gt;Node2</title>
<path fill="none" stroke="orange" stroke-dasharray="5,2" d="M218.44,-26.5C275.78,-26.5 344.33,-26.5 397.76,-26.5"/>
<polygon fill="orange" stroke="orange" points="218.24,-23 208.24,-26.5 218.24,-30 218.24,-23"/>
<text text-anchor="start" x="226" y="-40.5" font-family="FreeSans" font-size="10.00"> &lt; DCAComputer, detail</text>
<text text-anchor="middle" x="303" y="-29.5" font-family="FreeSans" font-size="10.00">::CurvatureFromDCA&lt; true &gt; &gt;</text>
</g>
<!-- Node3 -->
<g id="node3" class="node">
<title>Node3</title>
<g id="a_node3"><a xlink:href="classDGtal_1_1CurvatureFromDCAEstimator.html" target="_top" xlink:title=" ">
<polygon fill="white" stroke="black" points="614,-11.5 614,-41.5 805,-41.5 805,-11.5 614,-11.5"/>
<text text-anchor="start" x="622" y="-29.5" font-family="FreeSans" font-size="10.00">DGtal::CurvatureFromDCAEstimator</text>
<text text-anchor="middle" x="709.5" y="-18.5" font-family="FreeSans" font-size="10.00">&lt; DCAComputer, isCCW &gt;</text>
</a>
</g>
</g>
<!-- Node2&#45;&gt;Node3 -->
<g id="edge2" class="edge">
<title>Node2&#45;&gt;Node3</title>
<path fill="none" stroke="midnightblue" d="M587.28,-26.5C596.06,-26.5 604.93,-26.5 613.67,-26.5"/>
<polygon fill="midnightblue" stroke="midnightblue" points="587.03,-23 577.03,-26.5 587.03,-30 587.03,-23"/>
</g>
</g>
</svg>
