<?xml version="1.0" encoding="UTF-8" standalone="no"?>
<!DOCTYPE svg PUBLIC "-//W3C//DTD SVG 1.1//EN"
 "http://www.w3.org/Graphics/SVG/1.1/DTD/svg11.dtd">
<!-- Generated by graphviz version 2.43.0 (0)
 -->
<!-- Title: GGeom Pages: 1 -->
<svg width="2929pt" height="651pt"
 viewBox="0.00 0.00 2929.00 651.00" xmlns="http://www.w3.org/2000/svg" xmlns:xlink="http://www.w3.org/1999/xlink">
<g id="graph0" class="graph" transform="scale(1 1) rotate(0) translate(4 647)">
<title>GGeom</title>
<polygon fill="white" stroke="transparent" points="-4,4 -4,-647 2925,-647 2925,4 -4,4"/>
<g id="clust1" class="cluster">
<title>cluster_ext</title>
</g>
<g id="clust2" class="cluster">
<title>cluster_boost</title>
<polygon fill="white" stroke="white" points="500,-552 500,-627 1554,-627 1554,-552 500,-552"/>
<text text-anchor="middle" x="1027" y="-559.8" font-family="Times,serif" font-size="14.00">boost</text>
</g>
<g id="clust3" class="cluster">
<title>cluster_concepts_1</title>
<polygon fill="lightgrey" stroke="lightgrey" points="8,-8 8,-525 664,-525 664,-8 8,-8"/>
<text text-anchor="middle" x="336" y="-15.8" font-family="Times,serif" font-size="14.00">geometry/curves (main concepts)</text>
</g>
<g id="clust4" class="cluster">
<title>cluster_concepts_2</title>
<polygon fill="lightgrey" stroke="lightgrey" points="1851,-377 1851,-627 2461,-627 2461,-377 1851,-377"/>
<text text-anchor="middle" x="2156" y="-384.8" font-family="Times,serif" font-size="14.00">geometry/volumes (main concepts)</text>
</g>
<g id="clust5" class="cluster">
<title>cluster_concepts_3</title>
<polygon fill="lightgrey" stroke="lightgrey" points="1046,-283 1046,-525 1682,-525 1682,-283 1046,-283"/>
<text text-anchor="middle" x="1364" y="-290.8" font-family="Times,serif" font-size="14.00">geometry/surfaces (main concepts)</text>
</g>
<g id="clust6" class="cluster">
<title>cluster_models</title>
<polygon fill="#ccffcc" stroke="#ccffcc" points="672,-102 672,-264 2913,-264 2913,-102 672,-102"/>
<text text-anchor="middle" x="1792.5" y="-109.8" font-family="Times,serif" font-size="14.00">geometry/surfaces (main models)</text>
</g>
<g id="clust7" class="cluster">
<title>cluster_models_vol</title>
<polygon fill="#ccffcc" stroke="#ccffcc" points="1690,-283 1690,-358 2841,-358 2841,-283 1690,-283"/>
<text text-anchor="middle" x="2265.5" y="-290.8" font-family="Times,serif" font-size="14.00">geometry/volumes (main models)</text>
</g>
<!-- boost_CopyConstructible -->
<g id="node1" class="node">
<title>boost_CopyConstructible</title>
<ellipse fill="orange" stroke="orange" cx="1219" cy="-601" rx="126.98" ry="18"/>
<text text-anchor="middle" x="1219" y="-597.3" font-family="Times,serif" font-size="14.00">boost_CopyConstructible</text>
</g>
<!-- boost_DefaultConstructible -->
<g id="node2" class="node">
<title>boost_DefaultConstructible</title>
<ellipse fill="orange" stroke="orange" cx="936" cy="-601" rx="137.58" ry="18"/>
<text text-anchor="middle" x="936" y="-597.3" font-family="Times,serif" font-size="14.00">boost_DefaultConstructible</text>
</g>
<!-- boost_Assignable -->
<g id="node3" class="node">
<title>boost_Assignable</title>
<ellipse fill="orange" stroke="orange" cx="1455" cy="-601" rx="90.98" ry="18"/>
<text text-anchor="middle" x="1455" y="-597.3" font-family="Times,serif" font-size="14.00">boost_Assignable</text>
</g>
<!-- boost_EqualityComparable -->
<g id="node4" class="node">
<title>boost_EqualityComparable</title>
<ellipse fill="orange" stroke="orange" cx="644" cy="-601" rx="135.68" ry="18"/>
<text text-anchor="middle" x="644" y="-597.3" font-family="Times,serif" font-size="14.00">boost_EqualityComparable</text>
</g>
<!-- CSegment -->
<g id="node5" class="node">
<title>CSegment</title>
<g id="a_node5"><a xlink:href="structDGtal_1_1concepts_1_1CSegment.html" target="_top" xlink:title="CSegment">
<ellipse fill="white" stroke="white" cx="597" cy="-499" rx="59.29" ry="18"/>
<text text-anchor="middle" x="597" y="-495.3" font-family="Times,serif" font-size="14.00">CSegment</text>
</a>
</g>
</g>
<!-- CSegment&#45;&gt;boost_CopyConstructible -->
<g id="edge19" class="edge">
<title>CSegment&#45;&gt;boost_CopyConstructible</title>
<path fill="none" stroke="black" d="M656.29,-499.69C748.78,-500.46 932.42,-507.08 1083,-544 1115.91,-552.07 1151.25,-566.82 1177.65,-579.16"/>
<polygon fill="black" stroke="black" points="1176.42,-582.45 1186.95,-583.58 1179.42,-576.12 1176.42,-582.45"/>
</g>
<!-- CSegment&#45;&gt;boost_DefaultConstructible -->
<g id="edge20" class="edge">
<title>CSegment&#45;&gt;boost_DefaultConstructible</title>
<path fill="none" stroke="black" d="M646.02,-509.28C685.11,-517.15 741.06,-529.45 789,-544 822.69,-554.22 859.73,-568.35 888.2,-579.86"/>
<polygon fill="black" stroke="black" points="886.93,-583.12 897.51,-583.65 889.57,-576.64 886.93,-583.12"/>
</g>
<!-- CSegment&#45;&gt;boost_Assignable -->
<g id="edge21" class="edge">
<title>CSegment&#45;&gt;boost_Assignable</title>
<path fill="none" stroke="black" d="M654.55,-503.26C830.68,-513.23 1350.8,-542.77 1355,-544 1379.73,-551.23 1405.03,-565.47 1423.99,-577.78"/>
<polygon fill="black" stroke="black" points="1422.24,-580.82 1432.5,-583.45 1426.12,-574.99 1422.24,-580.82"/>
</g>
<!-- CSegment&#45;&gt;boost_EqualityComparable -->
<g id="edge22" class="edge">
<title>CSegment&#45;&gt;boost_EqualityComparable</title>
<path fill="none" stroke="black" d="M604.97,-516.96C612.27,-532.48 623.17,-555.68 631.6,-573.61"/>
<polygon fill="black" stroke="black" points="628.57,-575.39 635.99,-582.95 634.9,-572.41 628.57,-575.39"/>
</g>
<!-- CBidirectionalSegmentComputer -->
<g id="node6" class="node">
<title>CBidirectionalSegmentComputer</title>
<g id="a_node6"><a xlink:href="structDGtal_1_1concepts_1_1CBidirectionalSegmentComputer.html" target="_top" xlink:title="CBidirectionalSegmentComputer">
<ellipse fill="white" stroke="white" cx="181" cy="-151" rx="165.17" ry="18"/>
<text text-anchor="middle" x="181" y="-147.3" font-family="Times,serif" font-size="14.00">CBidirectionalSegmentComputer</text>
</a>
</g>
</g>
<!-- CForwardSegmentComputer -->
<g id="node8" class="node">
<title>CForwardSegmentComputer</title>
<g id="a_node8"><a xlink:href="structDGtal_1_1concepts_1_1CForwardSegmentComputer.html" target="_top" xlink:title="CForwardSegmentComputer">
<ellipse fill="white" stroke="white" cx="495" cy="-238" rx="144.07" ry="18"/>
<text text-anchor="middle" x="495" y="-234.3" font-family="Times,serif" font-size="14.00">CForwardSegmentComputer</text>
</a>
</g>
</g>
<!-- CBidirectionalSegmentComputer&#45;&gt;CForwardSegmentComputer -->
<g id="edge1" class="edge">
<title>CBidirectionalSegmentComputer&#45;&gt;CForwardSegmentComputer</title>
<path fill="none" stroke="black" d="M239.69,-167.89C293.11,-182.35 371.93,-203.69 427.84,-218.82"/>
<polygon fill="black" stroke="black" points="427.09,-222.24 437.66,-221.48 428.92,-215.49 427.09,-222.24"/>
</g>
<!-- CIncrementalSegmentComputer -->
<g id="node7" class="node">
<title>CIncrementalSegmentComputer</title>
<g id="a_node7"><a xlink:href="structDGtal_1_1concepts_1_1CIncrementalSegmentComputer.html" target="_top" xlink:title="CIncrementalSegmentComputer">
<ellipse fill="white" stroke="white" cx="495" cy="-332" rx="161.37" ry="18"/>
<text text-anchor="middle" x="495" y="-328.3" font-family="Times,serif" font-size="14.00">CIncrementalSegmentComputer</text>
</a>
</g>
</g>
<!-- CSegmentFactory -->
<g id="node9" class="node">
<title>CSegmentFactory</title>
<g id="a_node9"><a xlink:href="structDGtal_1_1concepts_1_1CSegmentFactory.html" target="_top" xlink:title="CSegmentFactory">
<ellipse fill="white" stroke="white" cx="545" cy="-426" rx="94.48" ry="18"/>
<text text-anchor="middle" x="545" y="-422.3" font-family="Times,serif" font-size="14.00">CSegmentFactory</text>
</a>
</g>
</g>
<!-- CIncrementalSegmentComputer&#45;&gt;CSegmentFactory -->
<g id="edge3" class="edge">
<title>CIncrementalSegmentComputer&#45;&gt;CSegmentFactory</title>
<path fill="none" stroke="black" d="M504.4,-350.3C511.85,-364.01 522.38,-383.38 530.85,-398.96"/>
<polygon fill="black" stroke="black" points="527.96,-400.97 535.81,-408.08 534.11,-397.63 527.96,-400.97"/>
</g>
<!-- CForwardSegmentComputer&#45;&gt;CIncrementalSegmentComputer -->
<g id="edge2" class="edge">
<title>CForwardSegmentComputer&#45;&gt;CIncrementalSegmentComputer</title>
<path fill="none" stroke="black" d="M495,-256.3C495,-269.54 495,-288.05 495,-303.34"/>
<polygon fill="black" stroke="black" points="491.5,-303.77 495,-313.77 498.5,-303.77 491.5,-303.77"/>
</g>
<!-- CSegmentFactory&#45;&gt;CSegment -->
<g id="edge4" class="edge">
<title>CSegmentFactory&#45;&gt;CSegment</title>
<path fill="none" stroke="black" d="M557.59,-444.19C563.85,-452.73 571.54,-463.23 578.45,-472.68"/>
<polygon fill="black" stroke="black" points="575.8,-474.97 584.53,-480.97 581.44,-470.84 575.8,-474.97"/>
</g>
<!-- CDynamicBidirectionalSegmentComputer -->
<g id="node10" class="node">
<title>CDynamicBidirectionalSegmentComputer</title>
<g id="a_node10"><a xlink:href="structDGtal_1_1concepts_1_1CDynamicBidirectionalSegmentComputer.html" target="_top" xlink:title="CDynamicBidirectionalSegmentComputer">
<ellipse fill="white" stroke="white" cx="336" cy="-57" rx="205.26" ry="18"/>
<text text-anchor="middle" x="336" y="-53.3" font-family="Times,serif" font-size="14.00">CDynamicBidirectionalSegmentComputer</text>
</a>
</g>
</g>
<!-- CDynamicBidirectionalSegmentComputer&#45;&gt;CBidirectionalSegmentComputer -->
<g id="edge7" class="edge">
<title>CDynamicBidirectionalSegmentComputer&#45;&gt;CBidirectionalSegmentComputer</title>
<path fill="none" stroke="black" d="M307.57,-74.87C282.44,-89.79 245.63,-111.64 218.17,-127.94"/>
<polygon fill="black" stroke="black" points="216.06,-125.12 209.25,-133.23 219.63,-131.14 216.06,-125.12"/>
</g>
<!-- CDynamicSegmentComputer -->
<g id="node11" class="node">
<title>CDynamicSegmentComputer</title>
<g id="a_node11"><a xlink:href="structDGtal_1_1concepts_1_1CDynamicSegmentComputer.html" target="_top" xlink:title="CDynamicSegmentComputer">
<ellipse fill="white" stroke="white" cx="510" cy="-151" rx="145.67" ry="18"/>
<text text-anchor="middle" x="510" y="-147.3" font-family="Times,serif" font-size="14.00">CDynamicSegmentComputer</text>
</a>
</g>
</g>
<!-- CDynamicBidirectionalSegmentComputer&#45;&gt;CDynamicSegmentComputer -->
<g id="edge6" class="edge">
<title>CDynamicBidirectionalSegmentComputer&#45;&gt;CDynamicSegmentComputer</title>
<path fill="none" stroke="black" d="M367.91,-74.87C396.46,-89.96 438.43,-112.16 469.36,-128.51"/>
<polygon fill="black" stroke="black" points="468.1,-131.81 478.58,-133.39 471.38,-125.62 468.1,-131.81"/>
</g>
<!-- CDynamicSegmentComputer&#45;&gt;CForwardSegmentComputer -->
<g id="edge5" class="edge">
<title>CDynamicSegmentComputer&#45;&gt;CForwardSegmentComputer</title>
<path fill="none" stroke="black" d="M506.96,-169.2C504.91,-180.84 502.16,-196.45 499.81,-209.76"/>
<polygon fill="black" stroke="black" points="496.32,-209.37 498.03,-219.82 503.22,-210.59 496.32,-209.37"/>
</g>
<!-- CMetricSpace -->
<g id="node12" class="node">
<title>CMetricSpace</title>
<g id="a_node12"><a xlink:href="structDGtal_1_1concepts_1_1CMetricSpace.html" target="_top" xlink:title="CMetricSpace">
<ellipse fill="white" stroke="white" cx="2126" cy="-601" rx="76.09" ry="18"/>
<text text-anchor="middle" x="2126" y="-597.3" font-family="Times,serif" font-size="14.00">CMetricSpace</text>
</a>
</g>
</g>
<!-- CDigitalMetricSpace -->
<g id="node13" class="node">
<title>CDigitalMetricSpace</title>
<g id="a_node13"><a xlink:href="structDGtal_1_1concepts_1_1CDigitalMetricSpace.html" target="_top" xlink:title="CDigitalMetricSpace">
<ellipse fill="white" stroke="white" cx="2346" cy="-499" rx="107.48" ry="18"/>
<text text-anchor="middle" x="2346" y="-495.3" font-family="Times,serif" font-size="14.00">CDigitalMetricSpace</text>
</a>
</g>
</g>
<!-- CSeparableMetric -->
<g id="node14" class="node">
<title>CSeparableMetric</title>
<g id="a_node14"><a xlink:href="structDGtal_1_1concepts_1_1CSeparableMetric.html" target="_top" xlink:title="CSeparableMetric">
<ellipse fill="white" stroke="white" cx="2126" cy="-499" rx="94.78" ry="18"/>
<text text-anchor="middle" x="2126" y="-495.3" font-family="Times,serif" font-size="14.00">CSeparableMetric</text>
</a>
</g>
</g>
<!-- CSeparableMetric&#45;&gt;CMetricSpace -->
<g id="edge8" class="edge">
<title>CSeparableMetric&#45;&gt;CMetricSpace</title>
<path fill="none" stroke="black" d="M2120.73,-517.42C2119.09,-532.62 2118.81,-554.93 2119.9,-572.54"/>
<polygon fill="black" stroke="black" points="2116.44,-573.11 2120.75,-582.78 2123.41,-572.52 2116.44,-573.11"/>
</g>
<!-- CSeparableMetric&#45;&gt;CMetricSpace -->
<g id="edge9" class="edge">
<title>CSeparableMetric&#45;&gt;CMetricSpace</title>
<path fill="none" stroke="black" d="M2131.27,-517.42C2132.91,-532.62 2133.19,-554.93 2132.1,-572.54"/>
<polygon fill="black" stroke="black" points="2128.59,-572.52 2131.25,-582.78 2135.56,-573.11 2128.59,-572.52"/>
</g>
<!-- CDigitalSeparableMetric -->
<g id="node15" class="node">
<title>CDigitalSeparableMetric</title>
<ellipse fill="white" stroke="white" cx="2327" cy="-426" rx="126.18" ry="18"/>
<text text-anchor="middle" x="2327" y="-422.3" font-family="Times,serif" font-size="14.00">CDigitalSeparableMetric</text>
</g>
<!-- CDigitalSeparableMetric&#45;&gt;CDigitalMetricSpace -->
<g id="edge10" class="edge">
<title>CDigitalSeparableMetric&#45;&gt;CDigitalMetricSpace</title>
<path fill="none" stroke="black" d="M2331.6,-444.19C2333.77,-452.3 2336.41,-462.16 2338.83,-471.22"/>
<polygon fill="black" stroke="black" points="2335.48,-472.22 2341.44,-480.97 2342.24,-470.41 2335.48,-472.22"/>
</g>
<!-- CDigitalSeparableMetric&#45;&gt;CSeparableMetric -->
<g id="edge11" class="edge">
<title>CDigitalSeparableMetric&#45;&gt;CSeparableMetric</title>
<path fill="none" stroke="black" d="M2282.14,-442.85C2251.52,-453.66 2210.85,-468.03 2178.69,-479.39"/>
<polygon fill="black" stroke="black" points="2177.26,-476.18 2169,-482.81 2179.59,-482.78 2177.26,-476.18"/>
</g>
<!-- CPowerMetric -->
<g id="node16" class="node">
<title>CPowerMetric</title>
<g id="a_node16"><a xlink:href="structDGtal_1_1concepts_1_1CPowerMetric.html" target="_top" xlink:title="CPowerMetric">
<ellipse fill="white" stroke="white" cx="1936" cy="-499" rx="77.19" ry="18"/>
<text text-anchor="middle" x="1936" y="-495.3" font-family="Times,serif" font-size="14.00">CPowerMetric</text>
</a>
</g>
</g>
<!-- CPowerMetric&#45;&gt;boost_CopyConstructible -->
<g id="edge17" class="edge">
<title>CPowerMetric&#45;&gt;boost_CopyConstructible</title>
<path fill="none" stroke="black" d="M1880.32,-511.62C1854.49,-516.57 1823.3,-521.89 1795,-525 1600.43,-546.36 1546.15,-501.88 1355,-544 1321.58,-551.36 1285.87,-566.37 1259.43,-578.99"/>
<polygon fill="black" stroke="black" points="1257.59,-576 1250.13,-583.52 1260.66,-582.29 1257.59,-576"/>
</g>
<!-- CPowerMetric&#45;&gt;boost_Assignable -->
<g id="edge18" class="edge">
<title>CPowerMetric&#45;&gt;boost_Assignable</title>
<path fill="none" stroke="black" d="M1880.35,-511.57C1792.46,-529.84 1621.62,-565.36 1525.35,-585.37"/>
<polygon fill="black" stroke="black" points="1524.49,-581.98 1515.42,-587.44 1525.92,-588.83 1524.49,-581.98"/>
</g>
<!-- CPowerSeparableMetric -->
<g id="node17" class="node">
<title>CPowerSeparableMetric</title>
<g id="a_node17"><a xlink:href="structDGtal_1_1concepts_1_1CPowerSeparableMetric.html" target="_top" xlink:title="CPowerSeparableMetric">
<ellipse fill="white" stroke="white" cx="2059" cy="-426" rx="124.28" ry="18"/>
<text text-anchor="middle" x="2059" y="-422.3" font-family="Times,serif" font-size="14.00">CPowerSeparableMetric</text>
</a>
</g>
</g>
<!-- CPowerSeparableMetric&#45;&gt;CPowerMetric -->
<g id="edge12" class="edge">
<title>CPowerSeparableMetric&#45;&gt;CPowerMetric</title>
<path fill="none" stroke="black" d="M2030.16,-443.65C2012.95,-453.58 1990.94,-466.29 1972.53,-476.92"/>
<polygon fill="black" stroke="black" points="1970.72,-473.92 1963.81,-481.95 1974.22,-479.98 1970.72,-473.92"/>
</g>
<!-- CPrimitiveComputer -->
<g id="node18" class="node">
<title>CPrimitiveComputer</title>
<g id="a_node18"><a xlink:href="structDGtal_1_1concepts_1_1CPrimitiveComputer.html" target="_top" xlink:title="CPrimitiveComputer">
<ellipse fill="white" stroke="white" cx="1455" cy="-499" rx="106.68" ry="18"/>
<text text-anchor="middle" x="1455" y="-495.3" font-family="Times,serif" font-size="14.00">CPrimitiveComputer</text>
</a>
</g>
</g>
<!-- CPrimitiveComputer&#45;&gt;boost_CopyConstructible -->
<g id="edge24" class="edge">
<title>CPrimitiveComputer&#45;&gt;boost_CopyConstructible</title>
<path fill="none" stroke="black" d="M1354.56,-505.11C1304.86,-509.71 1251.76,-518.44 1234,-535 1223.77,-544.54 1219.86,-559.53 1218.57,-572.72"/>
<polygon fill="black" stroke="black" points="1215.08,-572.6 1218.04,-582.77 1222.07,-572.97 1215.08,-572.6"/>
</g>
<!-- CPrimitiveComputer&#45;&gt;boost_DefaultConstructible -->
<g id="edge23" class="edge">
<title>CPrimitiveComputer&#45;&gt;boost_DefaultConstructible</title>
<path fill="none" stroke="black" d="M1354.73,-505.16C1279.17,-510.65 1173.47,-521.78 1083,-544 1047.85,-552.63 1009.7,-567.33 981.08,-579.51"/>
<polygon fill="black" stroke="black" points="979.55,-576.35 971.75,-583.53 982.32,-582.78 979.55,-576.35"/>
</g>
<!-- CPrimitiveComputer&#45;&gt;boost_Assignable -->
<g id="edge25" class="edge">
<title>CPrimitiveComputer&#45;&gt;boost_Assignable</title>
<path fill="none" stroke="black" d="M1455,-517.42C1455,-532.62 1455,-554.93 1455,-572.54"/>
<polygon fill="black" stroke="black" points="1451.5,-572.78 1455,-582.78 1458.5,-572.78 1451.5,-572.78"/>
</g>
<!-- CIncrementalPrimitiveComputer -->
<g id="node19" class="node">
<title>CIncrementalPrimitiveComputer</title>
<g id="a_node19"><a xlink:href="structDGtal_1_1concepts_1_1CIncrementalPrimitiveComputer.html" target="_top" xlink:title="CIncrementalPrimitiveComputer">
<ellipse fill="white" stroke="white" cx="1511" cy="-426" rx="163.27" ry="18"/>
<text text-anchor="middle" x="1511" y="-422.3" font-family="Times,serif" font-size="14.00">CIncrementalPrimitiveComputer</text>
</a>
</g>
</g>
<!-- CIncrementalPrimitiveComputer&#45;&gt;CPrimitiveComputer -->
<g id="edge14" class="edge">
<title>CIncrementalPrimitiveComputer&#45;&gt;CPrimitiveComputer</title>
<path fill="none" stroke="black" d="M1497.44,-444.19C1490.63,-452.82 1482.25,-463.44 1474.75,-472.97"/>
<polygon fill="black" stroke="black" points="1471.88,-470.95 1468.43,-480.97 1477.37,-475.29 1471.88,-470.95"/>
</g>
<!-- CAdditivePrimitiveComputer -->
<g id="node20" class="node">
<title>CAdditivePrimitiveComputer</title>
<g id="a_node20"><a xlink:href="structDGtal_1_1concepts_1_1CAdditivePrimitiveComputer.html" target="_top" xlink:title="CAdditivePrimitiveComputer">
<ellipse fill="white" stroke="white" cx="1528" cy="-332" rx="145.67" ry="18"/>
<text text-anchor="middle" x="1528" y="-328.3" font-family="Times,serif" font-size="14.00">CAdditivePrimitiveComputer</text>
</a>
</g>
</g>
<!-- CAdditivePrimitiveComputer&#45;&gt;CIncrementalPrimitiveComputer -->
<g id="edge13" class="edge">
<title>CAdditivePrimitiveComputer&#45;&gt;CIncrementalPrimitiveComputer</title>
<path fill="none" stroke="black" d="M1524.8,-350.3C1522.33,-363.67 1518.87,-382.41 1516.03,-397.78"/>
<polygon fill="black" stroke="black" points="1512.56,-397.3 1514.18,-407.77 1519.44,-398.58 1512.56,-397.3"/>
</g>
<!-- CDigitalSurfaceLocalEstimator -->
<g id="node21" class="node">
<title>CDigitalSurfaceLocalEstimator</title>
<g id="a_node21"><a xlink:href="structDGtal_1_1concepts_1_1CDigitalSurfaceLocalEstimator.html" target="_top" xlink:title="CDigitalSurfaceLocalEstimator">
<ellipse fill="white" stroke="white" cx="1209" cy="-332" rx="155.17" ry="18"/>
<text text-anchor="middle" x="1209" y="-328.3" font-family="Times,serif" font-size="14.00">CDigitalSurfaceLocalEstimator</text>
</a>
</g>
</g>
<!-- CDigitalSurfaceLocalEstimator&#45;&gt;boost_CopyConstructible -->
<g id="edge42" class="edge">
<title>CDigitalSurfaceLocalEstimator&#45;&gt;boost_CopyConstructible</title>
<path fill="none" stroke="black" d="M1209.64,-350.11C1211.33,-395.21 1215.92,-517.66 1217.98,-572.64"/>
<polygon fill="black" stroke="black" points="1214.48,-572.83 1218.35,-582.69 1221.47,-572.56 1214.48,-572.83"/>
</g>
<!-- CDigitalSurfaceLocalEstimator&#45;&gt;boost_DefaultConstructible -->
<g id="edge41" class="edge">
<title>CDigitalSurfaceLocalEstimator&#45;&gt;boost_DefaultConstructible</title>
<path fill="none" stroke="black" d="M1191.51,-350.11C1144.41,-396.17 1014.85,-522.88 960.5,-576.04"/>
<polygon fill="black" stroke="black" points="958.05,-573.54 953.35,-583.03 962.94,-578.54 958.05,-573.54"/>
</g>
<!-- CDigitalSurfaceLocalEstimator&#45;&gt;boost_Assignable -->
<g id="edge43" class="edge">
<title>CDigitalSurfaceLocalEstimator&#45;&gt;boost_Assignable</title>
<path fill="none" stroke="black" d="M1217.5,-350.05C1235.9,-385.73 1282.33,-469.52 1339,-525 1361.26,-546.79 1390.8,-565.78 1414.5,-579.2"/>
<polygon fill="black" stroke="black" points="1412.82,-582.27 1423.27,-584.06 1416.22,-576.15 1412.82,-582.27"/>
</g>
<!-- CMetric -->
<g id="node22" class="node">
<title>CMetric</title>
<ellipse fill="none" stroke="black" cx="1738" cy="-499" rx="48.19" ry="18"/>
<text text-anchor="middle" x="1738" y="-495.3" font-family="Times,serif" font-size="14.00">CMetric</text>
</g>
<!-- CMetric&#45;&gt;boost_CopyConstructible -->
<g id="edge15" class="edge">
<title>CMetric&#45;&gt;boost_CopyConstructible</title>
<path fill="none" stroke="black" d="M1713.15,-514.59C1704.8,-518.76 1695.25,-522.78 1686,-525 1662.93,-530.54 1279.58,-523.18 1259,-535 1244.34,-543.42 1234.36,-559.59 1228.03,-573.69"/>
<polygon fill="black" stroke="black" points="1224.77,-572.42 1224.23,-583 1231.25,-575.07 1224.77,-572.42"/>
</g>
<!-- CMetric&#45;&gt;boost_Assignable -->
<g id="edge16" class="edge">
<title>CMetric&#45;&gt;boost_Assignable</title>
<path fill="none" stroke="black" d="M1710.78,-513.93C1702.88,-517.74 1694.18,-521.72 1686,-525 1629,-547.84 1562.09,-568.96 1514.99,-582.94"/>
<polygon fill="black" stroke="black" points="1513.86,-579.62 1505.26,-585.81 1515.84,-586.34 1513.86,-579.62"/>
</g>
<!-- COBANaivePlaneComputer -->
<g id="node23" class="node">
<title>COBANaivePlaneComputer</title>
<g id="a_node23"><a xlink:href="classDGtal_1_1COBANaivePlaneComputer.html" target="_top" xlink:title="COBANaivePlaneComputer">
<ellipse fill="white" stroke="white" cx="2352" cy="-238" rx="137.28" ry="18"/>
<text text-anchor="middle" x="2352" y="-234.3" font-family="Times,serif" font-size="14.00">COBANaivePlaneComputer</text>
</a>
</g>
</g>
<!-- COBANaivePlaneComputer&#45;&gt;CAdditivePrimitiveComputer -->
<g id="edge31" class="edge">
<title>COBANaivePlaneComputer&#45;&gt;CAdditivePrimitiveComputer</title>
<path fill="none" stroke="black" d="M2230.19,-246.33C2045.26,-257.55 1712.24,-278.21 1686,-283 1650.37,-289.5 1611.43,-301.27 1581.12,-311.53"/>
<polygon fill="black" stroke="black" points="1579.92,-308.24 1571.6,-314.8 1582.2,-314.87 1579.92,-308.24"/>
</g>
<!-- COBAGenericNaivePlaneComputer -->
<g id="node24" class="node">
<title>COBAGenericNaivePlaneComputer</title>
<g id="a_node24"><a xlink:href="classDGtal_1_1COBAGenericNaivePlaneComputer.html" target="_top" xlink:title="COBAGenericNaivePlaneComputer">
<ellipse fill="white" stroke="white" cx="2732" cy="-151" rx="172.77" ry="18"/>
<text text-anchor="middle" x="2732" y="-147.3" font-family="Times,serif" font-size="14.00">COBAGenericNaivePlaneComputer</text>
</a>
</g>
</g>
<!-- COBAGenericNaivePlaneComputer&#45;&gt;CAdditivePrimitiveComputer -->
<g id="edge29" class="edge">
<title>COBAGenericNaivePlaneComputer&#45;&gt;CAdditivePrimitiveComputer</title>
<path fill="none" stroke="black" d="M2706.35,-168.8C2664.68,-195.02 2578.81,-244.66 2498,-264 2410.23,-285 1775.11,-268.7 1686,-283 1649.73,-288.82 1610.19,-300.84 1579.73,-311.39"/>
<polygon fill="black" stroke="black" points="1578.45,-308.14 1570.18,-314.76 1580.77,-314.74 1578.45,-308.14"/>
</g>
<!-- COBAGenericNaivePlaneComputer&#45;&gt;COBANaivePlaneComputer -->
<g id="edge30" class="edge">
<title>COBAGenericNaivePlaneComputer&#45;&gt;COBANaivePlaneComputer</title>
<path fill="none" stroke="black" stroke-dasharray="5,2" d="M2662.3,-167.59C2595.93,-182.44 2496.29,-204.73 2427.93,-220.02"/>
<polygon fill="black" stroke="black" points="2427.07,-216.62 2418.08,-222.22 2428.6,-223.45 2427.07,-216.62"/>
<text text-anchor="middle" x="2576.5" y="-190.8" font-family="Times,serif" font-size="14.00">use</text>
</g>
<!-- COBAGenericStandardPlaneComputer -->
<g id="node25" class="node">
<title>COBAGenericStandardPlaneComputer</title>
<g id="a_node25"><a xlink:href="classDGtal_1_1COBAGenericStandardPlaneComputer.html" target="_top" xlink:title="COBAGenericStandardPlaneComputer">
<ellipse fill="white" stroke="white" cx="2352" cy="-151" rx="189.27" ry="18"/>
<text text-anchor="middle" x="2352" y="-147.3" font-family="Times,serif" font-size="14.00">COBAGenericStandardPlaneComputer</text>
</a>
</g>
</g>
<!-- COBAGenericStandardPlaneComputer&#45;&gt;CAdditivePrimitiveComputer -->
<g id="edge32" class="edge">
<title>COBAGenericStandardPlaneComputer&#45;&gt;CAdditivePrimitiveComputer</title>
<path fill="none" stroke="black" d="M2221.86,-164.09C2199.25,-165.93 2175.95,-167.66 2154,-169 2099.62,-172.33 1715.04,-167.95 1664,-187 1634.35,-198.07 1577.02,-267.67 1547.15,-305.91"/>
<polygon fill="black" stroke="black" points="1544.23,-303.96 1540.87,-314.01 1549.76,-308.25 1544.23,-303.96"/>
</g>
<!-- COBAGenericStandardPlaneComputer&#45;&gt;COBANaivePlaneComputer -->
<g id="edge33" class="edge">
<title>COBAGenericStandardPlaneComputer&#45;&gt;COBANaivePlaneComputer</title>
<path fill="none" stroke="black" stroke-dasharray="5,2" d="M2352,-169.2C2352,-180.84 2352,-196.45 2352,-209.76"/>
<polygon fill="black" stroke="black" points="2348.5,-209.82 2352,-219.82 2355.5,-209.82 2348.5,-209.82"/>
<text text-anchor="middle" x="2364.5" y="-190.8" font-family="Times,serif" font-size="14.00">use</text>
</g>
<!-- ChordNaivePlaneComputer -->
<g id="node26" class="node">
<title>ChordNaivePlaneComputer</title>
<g id="a_node26"><a xlink:href="classDGtal_1_1ChordNaivePlaneComputer.html" target="_top" xlink:title="ChordNaivePlaneComputer">
<ellipse fill="white" stroke="white" cx="1770" cy="-238" rx="137.58" ry="18"/>
<text text-anchor="middle" x="1770" y="-234.3" font-family="Times,serif" font-size="14.00">ChordNaivePlaneComputer</text>
</a>
</g>
</g>
<!-- ChordNaivePlaneComputer&#45;&gt;CAdditivePrimitiveComputer -->
<g id="edge36" class="edge">
<title>ChordNaivePlaneComputer&#45;&gt;CAdditivePrimitiveComputer</title>
<path fill="none" stroke="black" d="M1727.57,-255.13C1686.53,-270.73 1624.23,-294.42 1580.18,-311.16"/>
<polygon fill="black" stroke="black" points="1578.89,-307.91 1570.79,-314.73 1581.38,-314.45 1578.89,-307.91"/>
</g>
<!-- ChordGenericNaivePlaneComputer -->
<g id="node27" class="node">
<title>ChordGenericNaivePlaneComputer</title>
<g id="a_node27"><a xlink:href="classDGtal_1_1ChordGenericNaivePlaneComputer.html" target="_top" xlink:title="ChordGenericNaivePlaneComputer">
<ellipse fill="white" stroke="white" cx="1971" cy="-151" rx="174.37" ry="18"/>
<text text-anchor="middle" x="1971" y="-147.3" font-family="Times,serif" font-size="14.00">ChordGenericNaivePlaneComputer</text>
</a>
</g>
</g>
<!-- ChordGenericNaivePlaneComputer&#45;&gt;CAdditivePrimitiveComputer -->
<g id="edge34" class="edge">
<title>ChordGenericNaivePlaneComputer&#45;&gt;CAdditivePrimitiveComputer</title>
<path fill="none" stroke="black" d="M1845.8,-163.58C1826.12,-165.4 1806.01,-167.25 1787,-169 1743.22,-173.02 1625.58,-161.18 1590,-187 1570.21,-201.36 1547.67,-266.45 1535.98,-304.02"/>
<polygon fill="black" stroke="black" points="1532.56,-303.24 1532.98,-313.82 1539.26,-305.29 1532.56,-303.24"/>
</g>
<!-- ChordGenericNaivePlaneComputer&#45;&gt;ChordNaivePlaneComputer -->
<g id="edge35" class="edge">
<title>ChordGenericNaivePlaneComputer&#45;&gt;ChordNaivePlaneComputer</title>
<path fill="none" stroke="black" stroke-dasharray="5,2" d="M1931.77,-168.59C1899.29,-182.32 1853.01,-201.9 1818.26,-216.59"/>
<polygon fill="black" stroke="black" points="1816.64,-213.48 1808.79,-220.6 1819.36,-219.92 1816.64,-213.48"/>
<text text-anchor="middle" x="1894.5" y="-190.8" font-family="Times,serif" font-size="14.00">use</text>
</g>
<!-- ChordGenericStandardPlaneComputer -->
<g id="node28" class="node">
<title>ChordGenericStandardPlaneComputer</title>
<g id="a_node28"><a xlink:href="classDGtal_1_1ChordGenericStandardPlaneComputer.html" target="_top" xlink:title="ChordGenericStandardPlaneComputer">
<ellipse fill="white" stroke="white" cx="1588" cy="-151" rx="190.37" ry="18"/>
<text text-anchor="middle" x="1588" y="-147.3" font-family="Times,serif" font-size="14.00">ChordGenericStandardPlaneComputer</text>
</a>
</g>
</g>
<!-- ChordGenericStandardPlaneComputer&#45;&gt;CAdditivePrimitiveComputer -->
<g id="edge37" class="edge">
<title>ChordGenericStandardPlaneComputer&#45;&gt;CAdditivePrimitiveComputer</title>
<path fill="none" stroke="black" d="M1566.06,-169.02C1560.68,-174.23 1555.48,-180.36 1552,-187 1532.53,-224.2 1528.21,-273.55 1527.58,-303.75"/>
<polygon fill="black" stroke="black" points="1524.08,-303.93 1527.5,-313.96 1531.08,-303.99 1524.08,-303.93"/>
</g>
<!-- ChordGenericStandardPlaneComputer&#45;&gt;ChordNaivePlaneComputer -->
<g id="edge38" class="edge">
<title>ChordGenericStandardPlaneComputer&#45;&gt;ChordNaivePlaneComputer</title>
<path fill="none" stroke="black" stroke-dasharray="5,2" d="M1623.96,-168.79C1653.06,-182.39 1694.2,-201.6 1725.4,-216.17"/>
<polygon fill="black" stroke="black" points="1724.19,-219.47 1734.74,-220.53 1727.16,-213.13 1724.19,-219.47"/>
<text text-anchor="middle" x="1701.5" y="-190.8" font-family="Times,serif" font-size="14.00">use</text>
</g>
<!-- TrueDigitalSurfaceLocalEstimator -->
<g id="node29" class="node">
<title>TrueDigitalSurfaceLocalEstimator</title>
<g id="a_node29"><a xlink:href="classDGtal_1_1TrueDigitalSurfaceLocalEstimator.html" target="_top" xlink:title="TrueDigitalSurfaceLocalEstimator">
<ellipse fill="white" stroke="white" cx="850" cy="-151" rx="169.77" ry="18"/>
<text text-anchor="middle" x="850" y="-147.3" font-family="Times,serif" font-size="14.00">TrueDigitalSurfaceLocalEstimator</text>
</a>
</g>
</g>
<!-- TrueDigitalSurfaceLocalEstimator&#45;&gt;CDigitalSurfaceLocalEstimator -->
<g id="edge39" class="edge">
<title>TrueDigitalSurfaceLocalEstimator&#45;&gt;CDigitalSurfaceLocalEstimator</title>
<path fill="none" stroke="black" d="M883.45,-168.68C948.92,-201.32 1093.88,-273.6 1166.21,-309.67"/>
<polygon fill="black" stroke="black" points="1164.99,-312.97 1175.5,-314.3 1168.12,-306.7 1164.99,-312.97"/>
</g>
<!-- VCMDigitalSurfaceLocalEstimator -->
<g id="node30" class="node">
<title>VCMDigitalSurfaceLocalEstimator</title>
<g id="a_node30"><a xlink:href="classDGtal_1_1VCMDigitalSurfaceLocalEstimator.html" target="_top" xlink:title="VCMDigitalSurfaceLocalEstimator">
<ellipse fill="white" stroke="white" cx="1209" cy="-151" rx="170.87" ry="18"/>
<text text-anchor="middle" x="1209" y="-147.3" font-family="Times,serif" font-size="14.00">VCMDigitalSurfaceLocalEstimator</text>
</a>
</g>
</g>
<!-- VCMDigitalSurfaceLocalEstimator&#45;&gt;CDigitalSurfaceLocalEstimator -->
<g id="edge40" class="edge">
<title>VCMDigitalSurfaceLocalEstimator&#45;&gt;CDigitalSurfaceLocalEstimator</title>
<path fill="none" stroke="black" d="M1209,-169.16C1209,-200.3 1209,-266.34 1209,-303.72"/>
<polygon fill="black" stroke="black" points="1205.5,-303.89 1209,-313.89 1212.5,-303.89 1205.5,-303.89"/>
</g>
<!-- ExactPredicateLpSeparableMetric -->
<g id="node31" class="node">
<title>ExactPredicateLpSeparableMetric</title>
<g id="a_node31"><a xlink:href="classDGtal_1_1ExactPredicateLpSeparableMetric.html" target="_top" xlink:title="ExactPredicateLpSeparableMetric">
<ellipse fill="white" stroke="white" cx="1869" cy="-332" rx="170.87" ry="18"/>
<text text-anchor="middle" x="1869" y="-328.3" font-family="Times,serif" font-size="14.00">ExactPredicateLpSeparableMetric</text>
</a>
</g>
</g>
<!-- ExactPredicateLpSeparableMetric&#45;&gt;CSeparableMetric -->
<g id="edge27" class="edge">
<title>ExactPredicateLpSeparableMetric&#45;&gt;CSeparableMetric</title>
<path fill="none" stroke="black" d="M1870.2,-350.13C1872.81,-374.33 1881.05,-418.39 1907,-444 1917.57,-454.43 1992.54,-471.47 2051.86,-483.61"/>
<polygon fill="black" stroke="black" points="2051.48,-487.11 2061.98,-485.67 2052.87,-480.25 2051.48,-487.11"/>
</g>
<!-- ExactPredicateLpPowerSeparableMetric -->
<g id="node32" class="node">
<title>ExactPredicateLpPowerSeparableMetric</title>
<g id="a_node32"><a xlink:href="classDGtal_1_1ExactPredicateLpPowerSeparableMetric.html" target="_top" xlink:title="ExactPredicateLpPowerSeparableMetric">
<ellipse fill="white" stroke="white" cx="2633" cy="-332" rx="199.56" ry="18"/>
<text text-anchor="middle" x="2633" y="-328.3" font-family="Times,serif" font-size="14.00">ExactPredicateLpPowerSeparableMetric</text>
</a>
</g>
</g>
<!-- ExactPredicateLpPowerSeparableMetric&#45;&gt;CPowerSeparableMetric -->
<g id="edge26" class="edge">
<title>ExactPredicateLpPowerSeparableMetric&#45;&gt;CPowerSeparableMetric</title>
<path fill="none" stroke="black" d="M2522.98,-347.02C2491.37,-350.83 2456.85,-354.79 2425,-358 2321.62,-368.42 2293.53,-354.95 2192,-377 2162.33,-383.44 2130.28,-394.87 2105.08,-404.95"/>
<polygon fill="black" stroke="black" points="2103.71,-401.73 2095.77,-408.74 2106.35,-408.21 2103.71,-401.73"/>
</g>
<!-- InexactPredicateLpSeparableMetric -->
<g id="node33" class="node">
<title>InexactPredicateLpSeparableMetric</title>
<g id="a_node33"><a xlink:href="classDGtal_1_1InexactPredicateLpSeparableMetric.html" target="_top" xlink:title="InexactPredicateLpSeparableMetric">
<ellipse fill="white" stroke="white" cx="2237" cy="-332" rx="178.97" ry="18"/>
<text text-anchor="middle" x="2237" y="-328.3" font-family="Times,serif" font-size="14.00">InexactPredicateLpSeparableMetric</text>
</a>
</g>
</g>
<!-- InexactPredicateLpSeparableMetric&#45;&gt;CSeparableMetric -->
<g id="edge28" class="edge">
<title>InexactPredicateLpSeparableMetric&#45;&gt;CSeparableMetric</title>
<path fill="none" stroke="black" d="M2134.23,-346.75C2044.33,-358.89 1927.75,-374.98 1926,-377 1906.47,-399.48 1907.9,-420.36 1926,-444 1934.13,-454.62 2000.33,-471.13 2054.38,-483.1"/>
<polygon fill="black" stroke="black" points="2053.79,-486.55 2064.31,-485.28 2055.29,-479.71 2053.79,-486.55"/>
</g>
</g>
</svg>
