<?xml version="1.0" encoding="UTF-8" standalone="no"?>
<!DOCTYPE svg PUBLIC "-//W3C//DTD SVG 1.1//EN"
 "http://www.w3.org/Graphics/SVG/1.1/DTD/svg11.dtd">
<!-- Generated by graphviz version 2.43.0 (0)
 -->
<!-- Title: Graphical Class Hierarchy Pages: 1 -->
<svg width="430pt" height="61pt"
 viewBox="0.00 0.00 430.00 61.00" xmlns="http://www.w3.org/2000/svg" xmlns:xlink="http://www.w3.org/1999/xlink">
<g id="graph0" class="graph" transform="scale(1 1) rotate(0) translate(4 57)">
<title>Graphical Class Hierarchy</title>
<polygon fill="white" stroke="transparent" points="-4,4 -4,-57 426,-57 426,4 -4,4"/>
<!-- Node0 -->
<g id="node1" class="node">
<title>Node0</title>
<g id="a_node1"><a xlink:href="classDGtal_1_1ImplicitFunctionDiff1LinearCellEmbedder.html" target="_top" xlink:title="Aim: a cellular embedder for implicit functions, (default constructible, copy constructible,...">
<polygon fill="white" stroke="black" points="0,-6 0,-47 200,-47 200,-6 0,-6"/>
<text text-anchor="start" x="8" y="-35" font-family="FreeSans" font-size="10.00">DGtal::ImplicitFunctionDiff1</text>
<text text-anchor="start" x="8" y="-24" font-family="FreeSans" font-size="10.00">LinearCellEmbedder&lt; TKSpace,</text>
<text text-anchor="middle" x="100" y="-13" font-family="FreeSans" font-size="10.00"> TImplicitFunctionDiff1, TEmbedder &gt;</text>
</a>
</g>
</g>
<!-- Node1 -->
<g id="node2" class="node">
<title>Node1</title>
<g id="a_node2"><a xlink:href="classDGtal_1_1ImplicitFunctionDiff1LinearCellEmbedderGradientMap.html" target="_top" xlink:title="Forward declaration.">
<polygon fill="white" stroke="black" points="236,-0.5 236,-52.5 422,-52.5 422,-0.5 236,-0.5"/>
<text text-anchor="start" x="244" y="-40.5" font-family="FreeSans" font-size="10.00">DGtal::ImplicitFunctionDiff1</text>
<text text-anchor="start" x="244" y="-29.5" font-family="FreeSans" font-size="10.00">LinearCellEmbedderGradientMap</text>
<text text-anchor="start" x="244" y="-18.5" font-family="FreeSans" font-size="10.00">&lt; TKSpace, TImplicitFunctionDiff1,</text>
<text text-anchor="middle" x="329" y="-7.5" font-family="FreeSans" font-size="10.00"> TEmbedder &gt;</text>
</a>
</g>
</g>
<!-- Node0&#45;&gt;Node1 -->
<g id="edge1" class="edge">
<title>Node0&#45;&gt;Node1</title>
<path fill="none" stroke="midnightblue" d="M210.24,-26.5C218.78,-26.5 227.36,-26.5 235.77,-26.5"/>
<polygon fill="midnightblue" stroke="midnightblue" points="210.24,-23 200.24,-26.5 210.24,-30 210.24,-23"/>
</g>
</g>
</svg>
