<?xml version="1.0" encoding="UTF-8" standalone="no"?>
<!DOCTYPE svg PUBLIC "-//W3C//DTD SVG 1.1//EN"
 "http://www.w3.org/Graphics/SVG/1.1/DTD/svg11.dtd">
<!-- Generated by graphviz version 2.43.0 (0)
 -->
<!-- Title: Graphical Class Hierarchy Pages: 1 -->
<svg width="361pt" height="88pt"
 viewBox="0.00 0.00 361.00 88.00" xmlns="http://www.w3.org/2000/svg" xmlns:xlink="http://www.w3.org/1999/xlink">
<g id="graph0" class="graph" transform="scale(1 1) rotate(0) translate(4 84)">
<title>Graphical Class Hierarchy</title>
<polygon fill="white" stroke="transparent" points="-4,4 -4,-84 357,-84 357,4 -4,4"/>
<!-- Node0 -->
<g id="node1" class="node">
<title>Node0</title>
<g id="a_node1"><a xlink:href="structDGtal_1_1concepts_1_1CDrawableWithDisplay3D.html" target="_top" xlink:title=" ">
<polygon fill="white" stroke="black" points="0,-24.5 0,-54.5 153,-54.5 153,-24.5 0,-24.5"/>
<text text-anchor="start" x="8" y="-42.5" font-family="FreeSans" font-size="10.00">DGtal::concepts::CDrawable</text>
<text text-anchor="middle" x="76.5" y="-31.5" font-family="FreeSans" font-size="10.00">WithDisplay3D&lt; T, S, KS &gt;</text>
</a>
</g>
</g>
<!-- Node1 -->
<g id="node2" class="node">
<title>Node1</title>
<g id="a_node2"><a xlink:href="structDGtal_1_1concepts_1_1CDrawableWithBoard3DTo2D.html" target="_top" xlink:title=" ">
<polygon fill="white" stroke="black" points="189,-49.5 189,-79.5 353,-79.5 353,-49.5 189,-49.5"/>
<text text-anchor="start" x="197" y="-67.5" font-family="FreeSans" font-size="10.00">DGtal::concepts::CDrawable</text>
<text text-anchor="middle" x="271" y="-56.5" font-family="FreeSans" font-size="10.00">WithBoard3DTo2D&lt; T, S, KS &gt;</text>
</a>
</g>
</g>
<!-- Node0&#45;&gt;Node1 -->
<g id="edge1" class="edge">
<title>Node0&#45;&gt;Node1</title>
<path fill="none" stroke="midnightblue" d="M163.07,-50.61C171.68,-51.73 180.41,-52.86 188.97,-53.98"/>
<polygon fill="midnightblue" stroke="midnightblue" points="163.4,-47.13 153.03,-49.31 162.49,-54.07 163.4,-47.13"/>
</g>
<!-- Node2 -->
<g id="node3" class="node">
<title>Node2</title>
<g id="a_node3"><a xlink:href="structDGtal_1_1concepts_1_1CDrawableWithViewer3D.html" target="_top" xlink:title="Aim: The concept CDrawableWithViewer3D specifies what are the classes that admit an export with Viewe...">
<polygon fill="white" stroke="black" points="194.5,-0.5 194.5,-30.5 347.5,-30.5 347.5,-0.5 194.5,-0.5"/>
<text text-anchor="start" x="202.5" y="-18.5" font-family="FreeSans" font-size="10.00">DGtal::concepts::CDrawable</text>
<text text-anchor="middle" x="271" y="-7.5" font-family="FreeSans" font-size="10.00">WithViewer3D&lt; T, S, KS &gt;</text>
</a>
</g>
</g>
<!-- Node0&#45;&gt;Node2 -->
<g id="edge2" class="edge">
<title>Node0&#45;&gt;Node2</title>
<path fill="none" stroke="midnightblue" d="M162.99,-28.84C173.44,-27.54 184.07,-26.21 194.37,-24.93"/>
<polygon fill="midnightblue" stroke="midnightblue" points="162.52,-25.37 153.03,-30.08 163.38,-32.32 162.52,-25.37"/>
</g>
</g>
</svg>
