<?xml version="1.0" encoding="UTF-8" standalone="no"?>
<!DOCTYPE svg PUBLIC "-//W3C//DTD SVG 1.1//EN"
 "http://www.w3.org/Graphics/SVG/1.1/DTD/svg11.dtd">
<!-- Generated by graphviz version 2.43.0 (0)
 -->
<!-- Title: Graphical Class Hierarchy Pages: 1 -->
<svg width="387pt" height="88pt"
 viewBox="0.00 0.00 387.00 88.00" xmlns="http://www.w3.org/2000/svg" xmlns:xlink="http://www.w3.org/1999/xlink">
<g id="graph0" class="graph" transform="scale(1 1) rotate(0) translate(4 84)">
<title>Graphical Class Hierarchy</title>
<polygon fill="white" stroke="transparent" points="-4,4 -4,-84 383,-84 383,4 -4,4"/>
<!-- Node0 -->
<g id="node1" class="node">
<title>Node0</title>
<g id="a_node1"><a xlink:href="classDGtal_1_1TwoStepLocalLengthEstimator.html" target="_top" xlink:title="Aim: a simple model of CGlobalCurveEstimator that compute the length of a curve using the l_1 metric ...">
<polygon fill="white" stroke="black" points="0,-24.5 0,-54.5 155,-54.5 155,-24.5 0,-24.5"/>
<text text-anchor="start" x="8" y="-42.5" font-family="FreeSans" font-size="10.00">DGtal::TwoStepLocalLength</text>
<text text-anchor="middle" x="77.5" y="-31.5" font-family="FreeSans" font-size="10.00">Estimator&lt; TConstIterator &gt;</text>
</a>
</g>
</g>
<!-- Node1 -->
<g id="node2" class="node">
<title>Node1</title>
<g id="a_node2"><a xlink:href="classDGtal_1_1BLUELocalLengthEstimator.html" target="_top" xlink:title="Aim: Best Linear Unbiased Two step length estimator.">
<polygon fill="white" stroke="black" points="194,-49.5 194,-79.5 376,-79.5 376,-49.5 194,-49.5"/>
<text text-anchor="start" x="202" y="-67.5" font-family="FreeSans" font-size="10.00">DGtal::BLUELocalLengthEstimator</text>
<text text-anchor="middle" x="285" y="-56.5" font-family="FreeSans" font-size="10.00">&lt; TConstIterator &gt;</text>
</a>
</g>
</g>
<!-- Node0&#45;&gt;Node1 -->
<g id="edge1" class="edge">
<title>Node0&#45;&gt;Node1</title>
<path fill="none" stroke="midnightblue" d="M165.22,-50.05C174.7,-51.2 184.37,-52.38 193.89,-53.54"/>
<polygon fill="midnightblue" stroke="midnightblue" points="165.37,-46.54 155.02,-48.81 164.52,-53.49 165.37,-46.54"/>
</g>
<!-- Node2 -->
<g id="node3" class="node">
<title>Node2</title>
<g id="a_node3"><a xlink:href="classDGtal_1_1RosenProffittLocalLengthEstimator.html" target="_top" xlink:title="Aim: Rosen&#45;Proffitt Length Estimator.">
<polygon fill="white" stroke="black" points="191,-0.5 191,-30.5 379,-30.5 379,-0.5 191,-0.5"/>
<text text-anchor="start" x="199" y="-18.5" font-family="FreeSans" font-size="10.00">DGtal::RosenProffittLocal</text>
<text text-anchor="middle" x="285" y="-7.5" font-family="FreeSans" font-size="10.00">LengthEstimator&lt; TConstIterator &gt;</text>
</a>
</g>
</g>
<!-- Node0&#45;&gt;Node2 -->
<g id="edge2" class="edge">
<title>Node0&#45;&gt;Node2</title>
<path fill="none" stroke="midnightblue" d="M165.22,-29.37C173.65,-28.39 182.24,-27.38 190.73,-26.39"/>
<polygon fill="midnightblue" stroke="midnightblue" points="164.55,-25.93 155.02,-30.56 165.36,-32.88 164.55,-25.93"/>
</g>
</g>
</svg>
