<?xml version="1.0" encoding="UTF-8" standalone="no"?>
<!DOCTYPE svg PUBLIC "-//W3C//DTD SVG 1.1//EN"
 "http://www.w3.org/Graphics/SVG/1.1/DTD/svg11.dtd">
<!-- Generated by graphviz version 2.43.0 (0)
 -->
<!-- Title: Graphical Class Hierarchy Pages: 1 -->
<svg width="477pt" height="72pt"
 viewBox="0.00 0.00 477.00 72.00" xmlns="http://www.w3.org/2000/svg" xmlns:xlink="http://www.w3.org/1999/xlink">
<g id="graph0" class="graph" transform="scale(1 1) rotate(0) translate(4 68)">
<title>Graphical Class Hierarchy</title>
<polygon fill="white" stroke="transparent" points="-4,4 -4,-68 473,-68 473,4 -4,4"/>
<!-- Node0 -->
<g id="node1" class="node">
<title>Node0</title>
<g id="a_node1"><a xlink:href="classDGtal_1_1VoronoiMap.html" target="_top" xlink:title=" ">
<polygon fill="white" stroke="black" points="0,-0.5 0,-63.5 227,-63.5 227,-0.5 0,-0.5"/>
<text text-anchor="start" x="8" y="-51.5" font-family="FreeSans" font-size="10.00">DGtal::VoronoiMap&lt;</text>
<text text-anchor="start" x="8" y="-40.5" font-family="FreeSans" font-size="10.00"> TSpace, TPointPredicate,</text>
<text text-anchor="start" x="8" y="-29.5" font-family="FreeSans" font-size="10.00"> TSeparableMetric, ImageContainer</text>
<text text-anchor="start" x="8" y="-18.5" font-family="FreeSans" font-size="10.00">BySTLVector&lt; HyperRectDomain</text>
<text text-anchor="middle" x="113.5" y="-7.5" font-family="FreeSans" font-size="10.00">&lt; TSpace &gt;, typename TSpace::Vector &gt; &gt;</text>
</a>
</g>
</g>
<!-- Node1 -->
<g id="node2" class="node">
<title>Node1</title>
<g id="a_node2"><a xlink:href="classDGtal_1_1DistanceTransformation.html" target="_top" xlink:title="Aim: Implementation of the linear in time distance transformation for separable metrics.">
<polygon fill="white" stroke="black" points="263,-11.5 263,-52.5 469,-52.5 469,-11.5 263,-11.5"/>
<text text-anchor="start" x="271" y="-40.5" font-family="FreeSans" font-size="10.00">DGtal::DistanceTransformation</text>
<text text-anchor="start" x="271" y="-29.5" font-family="FreeSans" font-size="10.00">&lt; TSpace, TPointPredicate,</text>
<text text-anchor="middle" x="366" y="-18.5" font-family="FreeSans" font-size="10.00"> TSeparableMetric, TImageContainer &gt;</text>
</a>
</g>
</g>
<!-- Node0&#45;&gt;Node1 -->
<g id="edge1" class="edge">
<title>Node0&#45;&gt;Node1</title>
<path fill="none" stroke="midnightblue" d="M237.57,-32C246,-32 254.46,-32 262.77,-32"/>
<polygon fill="midnightblue" stroke="midnightblue" points="237.29,-28.5 227.29,-32 237.29,-35.5 237.29,-28.5"/>
</g>
</g>
</svg>
