<?xml version="1.0" encoding="UTF-8" standalone="no"?>
<!DOCTYPE svg PUBLIC "-//W3C//DTD SVG 1.1//EN"
 "http://www.w3.org/Graphics/SVG/1.1/DTD/svg11.dtd">
<!-- Generated by graphviz version 2.43.0 (0)
 -->
<!-- Title: DGtal::concepts::CConstSinglePassRangeFromPoint&lt; T &gt; Pages: 1 -->
<svg width="860pt" height="94pt"
 viewBox="0.00 0.00 860.00 93.50" xmlns="http://www.w3.org/2000/svg" xmlns:xlink="http://www.w3.org/1999/xlink">
<g id="graph0" class="graph" transform="scale(1 1) rotate(0) translate(4 89.5)">
<title>DGtal::concepts::CConstSinglePassRangeFromPoint&lt; T &gt;</title>
<polygon fill="white" stroke="transparent" points="-4,4 -4,-89.5 856,-89.5 856,4 -4,4"/>
<!-- Node1 -->
<g id="node1" class="node">
<title>Node1</title>
<g id="a_node1"><a xlink:title="Aim: refined concept of const single pass range with a begin() method from a point.">
<polygon fill="#bfbfbf" stroke="black" points="201,-31 201,-61 365,-61 365,-31 201,-31"/>
<text text-anchor="start" x="209" y="-49" font-family="FreeSans" font-size="10.00">DGtal::concepts::CConstSingle</text>
<text text-anchor="middle" x="283" y="-38" font-family="FreeSans" font-size="10.00">PassRangeFromPoint&lt; T &gt;</text>
</a>
</g>
</g>
<!-- Node3 -->
<g id="node3" class="node">
<title>Node3</title>
<g id="a_node3"><a xlink:href="structDGtal_1_1concepts_1_1CSinglePassRangeFromPoint.html" target="_top" xlink:title="Aim: refined concept of single pass range with a begin() method from a point.">
<polygon fill="white" stroke="black" points="482.5,-55 482.5,-85 629.5,-85 629.5,-55 482.5,-55"/>
<text text-anchor="start" x="490.5" y="-73" font-family="FreeSans" font-size="10.00">DGtal::concepts::CSingle</text>
<text text-anchor="middle" x="556" y="-62" font-family="FreeSans" font-size="10.00">PassRangeFromPoint&lt; T &gt;</text>
</a>
</g>
</g>
<!-- Node1&#45;&gt;Node3 -->
<g id="edge2" class="edge">
<title>Node1&#45;&gt;Node3</title>
<path fill="none" stroke="midnightblue" d="M375.46,-54.1C410.19,-57.18 449.25,-60.63 482.05,-63.54"/>
<polygon fill="midnightblue" stroke="midnightblue" points="375.58,-50.6 365.31,-53.2 374.96,-57.57 375.58,-50.6"/>
</g>
<!-- Node4 -->
<g id="node4" class="node">
<title>Node4</title>
<g id="a_node4"><a xlink:href="structDGtal_1_1concepts_1_1CConstSinglePassRangeFromPoint.html" target="_top" xlink:title=" ">
<polygon fill="white" stroke="black" points="466,-6 466,-36 646,-36 646,-6 466,-6"/>
<text text-anchor="start" x="474" y="-24" font-family="FreeSans" font-size="10.00">DGtal::concepts::CConstSingle</text>
<text text-anchor="middle" x="556" y="-13" font-family="FreeSans" font-size="10.00">PassRangeFromPoint&lt; T, Value &gt;</text>
</a>
</g>
</g>
<!-- Node1&#45;&gt;Node4 -->
<g id="edge3" class="edge">
<title>Node1&#45;&gt;Node4</title>
<path fill="none" stroke="orange" stroke-dasharray="5,2" d="M375.47,-37.56C404.59,-34.88 436.74,-31.91 465.7,-29.24"/>
<polygon fill="orange" stroke="orange" points="374.95,-34.1 365.31,-38.5 375.59,-41.07 374.95,-34.1"/>
<text text-anchor="middle" x="415.5" y="-40" font-family="FreeSans" font-size="10.00"> &lt; T, Value &gt;</text>
</g>
<!-- Node2 -->
<g id="node2" class="node">
<title>Node2</title>
<g id="a_node2"><a xlink:href="structDGtal_1_1concepts_1_1CConstSinglePassRange.html" target="_top" xlink:title="Aim: Defines the concept describing a const single pass range.">
<polygon fill="white" stroke="black" points="0,-31 0,-61 164,-61 164,-31 0,-31"/>
<text text-anchor="start" x="8" y="-49" font-family="FreeSans" font-size="10.00">DGtal::concepts::CConstSingle</text>
<text text-anchor="middle" x="82" y="-38" font-family="FreeSans" font-size="10.00">PassRange&lt; T &gt;</text>
</a>
</g>
</g>
<!-- Node2&#45;&gt;Node1 -->
<g id="edge1" class="edge">
<title>Node2&#45;&gt;Node1</title>
<path fill="none" stroke="midnightblue" d="M174.46,-46C183.21,-46 192.06,-46 200.71,-46"/>
<polygon fill="midnightblue" stroke="midnightblue" points="174.23,-42.5 164.23,-46 174.23,-49.5 174.23,-42.5"/>
</g>
<!-- Node5 -->
<g id="node5" class="node">
<title>Node5</title>
<g id="a_node5"><a xlink:href="structDGtal_1_1concepts_1_1CSinglePassRangeWithWritableIteratorFromPoint.html" target="_top" xlink:title="Aim: refined concept of single pass range with a outputIterator() method from a point.">
<polygon fill="white" stroke="black" points="683,-0.5 683,-41.5 852,-41.5 852,-0.5 683,-0.5"/>
<text text-anchor="start" x="691" y="-29.5" font-family="FreeSans" font-size="10.00">DGtal::concepts::CSingle</text>
<text text-anchor="start" x="691" y="-18.5" font-family="FreeSans" font-size="10.00">PassRangeWithWritableIterator</text>
<text text-anchor="middle" x="767.5" y="-7.5" font-family="FreeSans" font-size="10.00">FromPoint&lt; T, Value &gt;</text>
</a>
</g>
</g>
<!-- Node4&#45;&gt;Node5 -->
<g id="edge4" class="edge">
<title>Node4&#45;&gt;Node5</title>
<path fill="none" stroke="midnightblue" d="M656.16,-21C665.06,-21 674.01,-21 682.75,-21"/>
<polygon fill="midnightblue" stroke="midnightblue" points="656.15,-17.5 646.15,-21 656.15,-24.5 656.15,-17.5"/>
</g>
</g>
</svg>
