<?xml version="1.0" encoding="UTF-8" standalone="no"?>
<!DOCTYPE svg PUBLIC "-//W3C//DTD SVG 1.1//EN"
 "http://www.w3.org/Graphics/SVG/1.1/DTD/svg11.dtd">
<!-- Generated by graphviz version 2.43.0 (0)
 -->
<!-- Title: DGtal::DelaunayRationalKernel&lt; dim, TCoordinateInteger, TInternalInteger &gt; Pages: 1 -->
<svg width="211pt" height="229pt"
 viewBox="0.00 0.00 211.00 229.00" xmlns="http://www.w3.org/2000/svg" xmlns:xlink="http://www.w3.org/1999/xlink">
<g id="graph0" class="graph" transform="scale(1 1) rotate(0) translate(4 225)">
<title>DGtal::DelaunayRationalKernel&lt; dim, TCoordinateInteger, TInternalInteger &gt;</title>
<polygon fill="white" stroke="transparent" points="-4,4 -4,-225 207,-225 207,4 -4,4"/>
<!-- Node1 -->
<g id="node1" class="node">
<title>Node1</title>
<g id="a_node1"><a xlink:title="Aim: a geometric kernel to compute the Delaunay triangulation of a range of floating points with inte...">
<polygon fill="#bfbfbf" stroke="black" points="7,-0.5 7,-41.5 175,-41.5 175,-0.5 7,-0.5"/>
<text text-anchor="start" x="15" y="-29.5" font-family="FreeSans" font-size="10.00">DGtal::DelaunayRationalKernel</text>
<text text-anchor="start" x="15" y="-18.5" font-family="FreeSans" font-size="10.00">&lt; dim, TCoordinateInteger,</text>
<text text-anchor="middle" x="91" y="-7.5" font-family="FreeSans" font-size="10.00"> TInternalInteger &gt;</text>
</a>
</g>
</g>
<!-- Node2 -->
<g id="node2" class="node">
<title>Node2</title>
<g id="a_node2"><a xlink:href="structDGtal_1_1ConvexHullCommonKernel.html" target="_top" xlink:title=" ">
<polygon fill="white" stroke="black" points="0,-79.5 0,-120.5 182,-120.5 182,-79.5 0,-79.5"/>
<text text-anchor="start" x="8" y="-108.5" font-family="FreeSans" font-size="10.00">DGtal::ConvexHullCommonKernel</text>
<text text-anchor="start" x="8" y="-97.5" font-family="FreeSans" font-size="10.00">&lt; dim+1, DGtal::int64_t,</text>
<text text-anchor="middle" x="91" y="-86.5" font-family="FreeSans" font-size="10.00"> DGtal::int64_t &gt;</text>
</a>
</g>
</g>
<!-- Node2&#45;&gt;Node1 -->
<g id="edge1" class="edge">
<title>Node2&#45;&gt;Node1</title>
<path fill="none" stroke="midnightblue" d="M91,-68.91C91,-59.79 91,-50.02 91,-41.76"/>
<polygon fill="midnightblue" stroke="midnightblue" points="87.5,-69.17 91,-79.17 94.5,-69.17 87.5,-69.17"/>
</g>
<!-- Node3 -->
<g id="node3" class="node">
<title>Node3</title>
<g id="a_node3"><a xlink:href="structDGtal_1_1ConvexHullCommonKernel.html" target="_top" xlink:title="Aim: the common part of all geometric kernels for computing the convex hull or Delaunay triangulation...">
<polygon fill="white" stroke="black" points="0,-179.5 0,-220.5 182,-220.5 182,-179.5 0,-179.5"/>
<text text-anchor="start" x="8" y="-208.5" font-family="FreeSans" font-size="10.00">DGtal::ConvexHullCommonKernel</text>
<text text-anchor="start" x="8" y="-197.5" font-family="FreeSans" font-size="10.00">&lt; dim, TCoordinateInteger,</text>
<text text-anchor="middle" x="91" y="-186.5" font-family="FreeSans" font-size="10.00"> TInternalInteger &gt;</text>
</a>
</g>
</g>
<!-- Node3&#45;&gt;Node2 -->
<g id="edge2" class="edge">
<title>Node3&#45;&gt;Node2</title>
<path fill="none" stroke="orange" stroke-dasharray="5,2" d="M91,-168.92C91,-153.29 91,-134.61 91,-120.8"/>
<polygon fill="orange" stroke="orange" points="87.5,-169.17 91,-179.17 94.5,-169.17 87.5,-169.17"/>
<text text-anchor="start" x="91" y="-153" font-family="FreeSans" font-size="10.00"> &lt; dim+1, DGtal::int64</text>
<text text-anchor="middle" x="147" y="-142" font-family="FreeSans" font-size="10.00">_t, DGtal::int64_t &gt;</text>
</g>
</g>
</svg>
