<?xml version="1.0" encoding="UTF-8" standalone="no"?>
<!DOCTYPE svg PUBLIC "-//W3C//DTD SVG 1.1//EN"
 "http://www.w3.org/Graphics/SVG/1.1/DTD/svg11.dtd">
<!-- Generated by graphviz version 2.43.0 (0)
 -->
<!-- Title: DGtal::DrawableWithDisplay3D Pages: 1 -->
<svg width="540pt" height="142pt"
 viewBox="0.00 0.00 540.00 142.00" xmlns="http://www.w3.org/2000/svg" xmlns:xlink="http://www.w3.org/1999/xlink">
<g id="graph0" class="graph" transform="scale(1 1) rotate(0) translate(4 138)">
<title>DGtal::DrawableWithDisplay3D</title>
<polygon fill="white" stroke="transparent" points="-4,4 -4,-138 536,-138 536,4 -4,4"/>
<!-- Node1 -->
<g id="node1" class="node">
<title>Node1</title>
<g id="a_node1"><a xlink:title=" ">
<polygon fill="#bfbfbf" stroke="black" points="0,-57.5 0,-76.5 170,-76.5 170,-57.5 0,-57.5"/>
<text text-anchor="middle" x="85" y="-64.5" font-family="FreeSans" font-size="10.00">DGtal::DrawableWithDisplay3D</text>
</a>
</g>
</g>
<!-- Node2 -->
<g id="node2" class="node">
<title>Node2</title>
<g id="a_node2"><a xlink:href="structDGtal_1_1DrawWithBoard3DTo2DModifier.html" target="_top" xlink:title="Base class specifying the methods for classes which intend to modify a Viewer3D stream.">
<polygon fill="white" stroke="black" points="206,-52 206,-82 363,-82 363,-52 206,-52"/>
<text text-anchor="start" x="214" y="-70" font-family="FreeSans" font-size="10.00">DGtal::DrawWithBoard3DTo2</text>
<text text-anchor="middle" x="284.5" y="-59" font-family="FreeSans" font-size="10.00">DModifier</text>
</a>
</g>
</g>
<!-- Node1&#45;&gt;Node2 -->
<g id="edge1" class="edge">
<title>Node1&#45;&gt;Node2</title>
<path fill="none" stroke="midnightblue" d="M180.11,-67C188.71,-67 197.36,-67 205.8,-67"/>
<polygon fill="midnightblue" stroke="midnightblue" points="180.04,-63.5 170.04,-67 180.04,-70.5 180.04,-63.5"/>
</g>
<!-- Node3 -->
<g id="node3" class="node">
<title>Node3</title>
<g id="a_node3"><a xlink:href="structDGtal_1_1CameraDirection.html" target="_top" xlink:title="CameraDirection class to set camera direction.">
<polygon fill="white" stroke="black" points="399,-114.5 399,-133.5 532,-133.5 532,-114.5 399,-114.5"/>
<text text-anchor="middle" x="465.5" y="-121.5" font-family="FreeSans" font-size="10.00">DGtal::CameraDirection</text>
</a>
</g>
</g>
<!-- Node2&#45;&gt;Node3 -->
<g id="edge2" class="edge">
<title>Node2&#45;&gt;Node3</title>
<path fill="none" stroke="midnightblue" d="M338.69,-85.3C357.67,-91.7 379.24,-98.83 399,-105 409.28,-108.21 420.53,-111.54 430.76,-114.5"/>
<polygon fill="midnightblue" stroke="midnightblue" points="339.62,-81.92 329.02,-82.03 337.37,-88.55 339.62,-81.92"/>
</g>
<!-- Node4 -->
<g id="node4" class="node">
<title>Node4</title>
<g id="a_node4"><a xlink:href="structDGtal_1_1CameraPosition.html" target="_top" xlink:title="CameraPosition class to set camera position.">
<polygon fill="white" stroke="black" points="401.5,-76.5 401.5,-95.5 529.5,-95.5 529.5,-76.5 401.5,-76.5"/>
<text text-anchor="middle" x="465.5" y="-83.5" font-family="FreeSans" font-size="10.00">DGtal::CameraPosition</text>
</a>
</g>
</g>
<!-- Node2&#45;&gt;Node4 -->
<g id="edge3" class="edge">
<title>Node2&#45;&gt;Node4</title>
<path fill="none" stroke="midnightblue" d="M373.43,-76.33C382.86,-77.33 392.3,-78.34 401.36,-79.3"/>
<polygon fill="midnightblue" stroke="midnightblue" points="373.54,-72.83 363.23,-75.25 372.81,-79.79 373.54,-72.83"/>
</g>
<!-- Node5 -->
<g id="node5" class="node">
<title>Node5</title>
<g id="a_node5"><a xlink:href="structDGtal_1_1CameraUpVector.html" target="_top" xlink:title="CameraUpVector class to set camera up&#45;vector.">
<polygon fill="white" stroke="black" points="399,-38.5 399,-57.5 532,-57.5 532,-38.5 399,-38.5"/>
<text text-anchor="middle" x="465.5" y="-45.5" font-family="FreeSans" font-size="10.00">DGtal::CameraUpVector</text>
</a>
</g>
</g>
<!-- Node2&#45;&gt;Node5 -->
<g id="edge4" class="edge">
<title>Node2&#45;&gt;Node5</title>
<path fill="none" stroke="midnightblue" d="M373.31,-57.68C381.92,-56.77 390.55,-55.85 398.88,-54.97"/>
<polygon fill="midnightblue" stroke="midnightblue" points="372.81,-54.21 363.23,-58.75 373.54,-61.17 372.81,-54.21"/>
</g>
<!-- Node6 -->
<g id="node6" class="node">
<title>Node6</title>
<g id="a_node6"><a xlink:href="structDGtal_1_1CameraZNearFar.html" target="_top" xlink:title="CameraZNearFar class to set near and far distance.">
<polygon fill="white" stroke="black" points="399,-0.5 399,-19.5 532,-19.5 532,-0.5 399,-0.5"/>
<text text-anchor="middle" x="465.5" y="-7.5" font-family="FreeSans" font-size="10.00">DGtal::CameraZNearFar</text>
</a>
</g>
</g>
<!-- Node2&#45;&gt;Node6 -->
<g id="edge5" class="edge">
<title>Node2&#45;&gt;Node6</title>
<path fill="none" stroke="midnightblue" d="M338.69,-48.7C357.67,-42.3 379.24,-35.17 399,-29 409.28,-25.79 420.53,-22.46 430.76,-19.5"/>
<polygon fill="midnightblue" stroke="midnightblue" points="337.37,-45.45 329.02,-51.97 339.62,-52.08 337.37,-45.45"/>
</g>
</g>
</svg>
