<?xml version="1.0" encoding="UTF-8" standalone="no"?>
<!DOCTYPE svg PUBLIC "-//W3C//DTD SVG 1.1//EN"
 "http://www.w3.org/Graphics/SVG/1.1/DTD/svg11.dtd">
<!-- Generated by graphviz version 2.43.0 (0)
 -->
<!-- Title: DGtal::Splitter&lt; TElement, TWord &gt; Pages: 1 -->
<svg width="432pt" height="116pt"
 viewBox="0.00 0.00 432.00 115.50" xmlns="http://www.w3.org/2000/svg" xmlns:xlink="http://www.w3.org/1999/xlink">
<g id="graph0" class="graph" transform="scale(1 1) rotate(0) translate(4 111.5)">
<title>DGtal::Splitter&lt; TElement, TWord &gt;</title>
<polygon fill="white" stroke="transparent" points="-4,4 -4,-111.5 428,-111.5 428,4 -4,4"/>
<!-- Node1 -->
<g id="node1" class="node">
<title>Node1</title>
<g id="a_node1"><a xlink:title=" ">
<polygon fill="#bfbfbf" stroke="black" points="0,-33 0,-63 146,-63 146,-33 0,-33"/>
<text text-anchor="start" x="8" y="-51" font-family="FreeSans" font-size="10.00">DGtal::Splitter&lt; TElement,</text>
<text text-anchor="middle" x="73" y="-40" font-family="FreeSans" font-size="10.00"> TWord &gt;</text>
</a>
</g>
</g>
<!-- Node2 -->
<g id="node2" class="node">
<title>Node2</title>
<g id="a_node2"><a xlink:href="structDGtal_1_1Splitter.html" target="_top" xlink:title=" ">
<polygon fill="white" stroke="black" points="289,-77 289,-107 424,-107 424,-77 289,-77"/>
<text text-anchor="start" x="297" y="-95" font-family="FreeSans" font-size="10.00">DGtal::Splitter&lt; DGtal</text>
<text text-anchor="middle" x="356.5" y="-84" font-family="FreeSans" font-size="10.00">::PointVector, uint64_t &gt;</text>
</a>
</g>
</g>
<!-- Node1&#45;&gt;Node2 -->
<g id="edge1" class="edge">
<title>Node1&#45;&gt;Node2</title>
<path fill="none" stroke="orange" stroke-dasharray="5,2" d="M156.3,-61.77C158.9,-62.19 161.47,-62.6 164,-63 205.51,-69.6 252.14,-76.67 288.99,-82.18"/>
<polygon fill="orange" stroke="orange" points="156.63,-58.27 146.2,-60.13 155.51,-65.18 156.63,-58.27"/>
<text text-anchor="start" x="164" y="-93" font-family="FreeSans" font-size="10.00"> &lt; DGtal::PointVector,</text>
<text text-anchor="middle" x="217.5" y="-82" font-family="FreeSans" font-size="10.00"> uint64_t &gt;</text>
</g>
<!-- Node3 -->
<g id="node3" class="node">
<title>Node3</title>
<g id="a_node3"><a xlink:href="structDGtal_1_1Splitter.html" target="_top" xlink:title=" ">
<polygon fill="white" stroke="black" points="293.5,-38.5 293.5,-57.5 419.5,-57.5 419.5,-38.5 293.5,-38.5"/>
<text text-anchor="middle" x="356.5" y="-45.5" font-family="FreeSans" font-size="10.00">DGtal::Splitter&lt; Key &gt;</text>
</a>
</g>
</g>
<!-- Node1&#45;&gt;Node3 -->
<g id="edge2" class="edge">
<title>Node1&#45;&gt;Node3</title>
<path fill="none" stroke="orange" stroke-dasharray="5,2" d="M156.17,-48C199.9,-48 252.8,-48 293.12,-48"/>
<polygon fill="orange" stroke="orange" points="156.13,-44.5 146.13,-48 156.13,-51.5 156.13,-44.5"/>
<text text-anchor="middle" x="217.5" y="-51" font-family="FreeSans" font-size="10.00"> &lt; Key &gt;</text>
</g>
<!-- Node4 -->
<g id="node4" class="node">
<title>Node4</title>
<g id="a_node4"><a xlink:href="structDGtal_1_1Splitter.html" target="_top" xlink:title=" ">
<polygon fill="white" stroke="black" points="290,-0.5 290,-19.5 423,-19.5 423,-0.5 290,-0.5"/>
<text text-anchor="middle" x="356.5" y="-7.5" font-family="FreeSans" font-size="10.00">DGtal::Splitter&lt; Point &gt;</text>
</a>
</g>
</g>
<!-- Node1&#45;&gt;Node4 -->
<g id="edge3" class="edge">
<title>Node1&#45;&gt;Node4</title>
<path fill="none" stroke="orange" stroke-dasharray="5,2" d="M156.28,-34.13C158.88,-33.74 161.46,-33.36 164,-33 205.76,-27.01 252.81,-21.35 289.82,-17.14"/>
<polygon fill="orange" stroke="orange" points="155.52,-30.71 146.17,-35.67 156.58,-37.63 155.52,-30.71"/>
<text text-anchor="middle" x="217.5" y="-36" font-family="FreeSans" font-size="10.00"> &lt; Point &gt;</text>
</g>
</g>
</svg>
