<?xml version="1.0" encoding="UTF-8" standalone="no"?>
<!DOCTYPE svg PUBLIC "-//W3C//DTD SVG 1.1//EN"
 "http://www.w3.org/Graphics/SVG/1.1/DTD/svg11.dtd">
<!-- Generated by graphviz version 2.43.0 (0)
 -->
<!-- Title: DGtal::deprecated::concepts::CConvolutionWeights&lt; T &gt; Pages: 1 -->
<svg width="324pt" height="95pt"
 viewBox="0.00 0.00 324.00 95.00" xmlns="http://www.w3.org/2000/svg" xmlns:xlink="http://www.w3.org/1999/xlink">
<g id="graph0" class="graph" transform="scale(1 1) rotate(0) translate(4 91)">
<title>DGtal::deprecated::concepts::CConvolutionWeights&lt; T &gt;</title>
<polygon fill="white" stroke="transparent" points="-4,4 -4,-91 320,-91 320,4 -4,4"/>
<!-- Node1 -->
<g id="node1" class="node">
<title>Node1</title>
<g id="a_node1"><a xlink:title="Aim: defines models of centered convolution kernel used for normal vector integration for instance.">
<polygon fill="#bfbfbf" stroke="black" points="67,-0.5 67,-30.5 266,-30.5 266,-0.5 67,-0.5"/>
<text text-anchor="start" x="75" y="-18.5" font-family="FreeSans" font-size="10.00">DGtal::deprecated::</text>
<text text-anchor="middle" x="166.5" y="-7.5" font-family="FreeSans" font-size="10.00">concepts::CConvolutionWeights&lt; T &gt;</text>
</a>
</g>
</g>
<!-- Node2 -->
<g id="node2" class="node">
<title>Node2</title>
<g id="a_node2"><a xlink:href="structboost_1_1CopyConstructible.html" target="_top" xlink:title="Go to http://www.sgi.com/tech/stl/CopyConstructible.html.">
<polygon fill="white" stroke="black" points="0,-67.5 0,-86.5 167,-86.5 167,-67.5 0,-67.5"/>
<text text-anchor="middle" x="83.5" y="-74.5" font-family="FreeSans" font-size="10.00">boost::CopyConstructible&lt; T &gt;</text>
</a>
</g>
</g>
<!-- Node2&#45;&gt;Node1 -->
<g id="edge1" class="edge">
<title>Node2&#45;&gt;Node1</title>
<path fill="none" stroke="midnightblue" d="M103.77,-61.47C116.91,-52.05 133.94,-39.84 146.94,-30.52"/>
<polygon fill="midnightblue" stroke="midnightblue" points="101.48,-58.8 95.39,-67.48 105.56,-64.49 101.48,-58.8"/>
</g>
<!-- Node3 -->
<g id="node3" class="node">
<title>Node3</title>
<g id="a_node3"><a xlink:href="structboost_1_1Assignable.html" target="_top" xlink:title="Go to http://www.sgi.com/tech/stl/Assignable.html.">
<polygon fill="white" stroke="black" points="185,-67.5 185,-86.5 316,-86.5 316,-67.5 185,-67.5"/>
<text text-anchor="middle" x="250.5" y="-74.5" font-family="FreeSans" font-size="10.00">boost::Assignable&lt; T &gt;</text>
</a>
</g>
</g>
<!-- Node3&#45;&gt;Node1 -->
<g id="edge2" class="edge">
<title>Node3&#45;&gt;Node1</title>
<path fill="none" stroke="midnightblue" d="M229.98,-61.47C216.68,-52.05 199.45,-39.84 186.3,-30.52"/>
<polygon fill="midnightblue" stroke="midnightblue" points="228.28,-64.55 238.46,-67.48 232.33,-58.84 228.28,-64.55"/>
</g>
</g>
</svg>
