<?xml version="1.0" encoding="UTF-8" standalone="no"?>
<!DOCTYPE svg PUBLIC "-//W3C//DTD SVG 1.1//EN"
 "http://www.w3.org/Graphics/SVG/1.1/DTD/svg11.dtd">
<!-- Generated by graphviz version 2.43.0 (0)
 -->
<!-- Title: DGtal::concepts::CQuantity&lt; T &gt; Pages: 1 -->
<svg width="1412pt" height="176pt"
 viewBox="0.00 0.00 1412.00 176.00" xmlns="http://www.w3.org/2000/svg" xmlns:xlink="http://www.w3.org/1999/xlink">
<g id="graph0" class="graph" transform="scale(1 1) rotate(0) translate(4 172)">
<title>DGtal::concepts::CQuantity&lt; T &gt;</title>
<polygon fill="white" stroke="transparent" points="-4,4 -4,-172 1408,-172 1408,4 -4,4"/>
<!-- Node1 -->
<g id="node1" class="node">
<title>Node1</title>
<g id="a_node1"><a xlink:title="Aim: defines the concept of quantity in DGtal.">
<polygon fill="#bfbfbf" stroke="black" points="434,-77 434,-96 611,-96 611,-77 434,-77"/>
<text text-anchor="middle" x="522.5" y="-84" font-family="FreeSans" font-size="10.00">DGtal::concepts::CQuantity&lt; T &gt;</text>
</a>
</g>
</g>
<!-- Node7 -->
<g id="node7" class="node">
<title>Node7</title>
<g id="a_node7"><a xlink:href="structDGtal_1_1concepts_1_1CBoundedNumber.html" target="_top" xlink:title="Aim: The concept CBoundedNumber specifies what are the bounded numbers. Models of this concept should...">
<polygon fill="white" stroke="black" points="648.5,-137.5 648.5,-167.5 797.5,-167.5 797.5,-137.5 648.5,-137.5"/>
<text text-anchor="start" x="656.5" y="-155.5" font-family="FreeSans" font-size="10.00">DGtal::concepts::CBounded</text>
<text text-anchor="middle" x="723" y="-144.5" font-family="FreeSans" font-size="10.00">Number&lt; T &gt;</text>
</a>
</g>
</g>
<!-- Node1&#45;&gt;Node7 -->
<g id="edge6" class="edge">
<title>Node1&#45;&gt;Node7</title>
<path fill="none" stroke="midnightblue" d="M562.05,-99.32C594.83,-110.22 641.95,-125.89 676.56,-137.39"/>
<polygon fill="midnightblue" stroke="midnightblue" points="562.96,-95.93 552.36,-96.1 560.75,-102.57 562.96,-95.93"/>
</g>
<!-- Node8 -->
<g id="node8" class="node">
<title>Node8</title>
<g id="a_node8"><a xlink:href="structDGtal_1_1concepts_1_1CIntegralNumber.html" target="_top" xlink:title="Aim: Concept checking for Integral Numbers. Models of this concept should be listed in NumberTraits c...">
<polygon fill="white" stroke="black" points="849.5,-95.5 849.5,-125.5 993.5,-125.5 993.5,-95.5 849.5,-95.5"/>
<text text-anchor="start" x="857.5" y="-113.5" font-family="FreeSans" font-size="10.00">DGtal::concepts::CIntegral</text>
<text text-anchor="middle" x="921.5" y="-102.5" font-family="FreeSans" font-size="10.00">Number&lt; T &gt;</text>
</a>
</g>
</g>
<!-- Node1&#45;&gt;Node8 -->
<g id="edge7" class="edge">
<title>Node1&#45;&gt;Node8</title>
<path fill="none" stroke="midnightblue" d="M621.36,-92.42C691.99,-96.69 785.74,-102.35 849.33,-106.2"/>
<polygon fill="midnightblue" stroke="midnightblue" points="621.31,-88.91 611.11,-91.8 620.89,-95.89 621.31,-88.91"/>
</g>
<!-- Node10 -->
<g id="node10" class="node">
<title>Node10</title>
<g id="a_node10"><a xlink:href="structDGtal_1_1concepts_1_1CSignedNumber.html" target="_top" xlink:title="Aim: Concept checking for Signed Numbers. Models of this concept should be listed in NumberTraits cla...">
<polygon fill="white" stroke="black" points="653,-49.5 653,-79.5 793,-79.5 793,-49.5 653,-49.5"/>
<text text-anchor="start" x="661" y="-67.5" font-family="FreeSans" font-size="10.00">DGtal::concepts::CSigned</text>
<text text-anchor="middle" x="723" y="-56.5" font-family="FreeSans" font-size="10.00">Number&lt; T &gt;</text>
</a>
</g>
</g>
<!-- Node1&#45;&gt;Node10 -->
<g id="edge9" class="edge">
<title>Node1&#45;&gt;Node10</title>
<path fill="none" stroke="midnightblue" d="M619.35,-75.88C630.71,-74.62 642.11,-73.35 652.99,-72.15"/>
<polygon fill="midnightblue" stroke="midnightblue" points="618.96,-72.4 609.41,-76.98 619.74,-79.36 618.96,-72.4"/>
</g>
<!-- Node13 -->
<g id="node13" class="node">
<title>Node13</title>
<g id="a_node13"><a xlink:href="structDGtal_1_1concepts_1_1CUnsignedNumber.html" target="_top" xlink:title="Aim: Concept checking for Unsigned numbers. Models of this concept should be listed in NumberTraits c...">
<polygon fill="white" stroke="black" points="647,-0.5 647,-30.5 799,-30.5 799,-0.5 647,-0.5"/>
<text text-anchor="start" x="655" y="-18.5" font-family="FreeSans" font-size="10.00">DGtal::concepts::CUnsigned</text>
<text text-anchor="middle" x="723" y="-7.5" font-family="FreeSans" font-size="10.00">Number&lt; T &gt;</text>
</a>
</g>
</g>
<!-- Node1&#45;&gt;Node13 -->
<g id="edge13" class="edge">
<title>Node1&#45;&gt;Node13</title>
<path fill="none" stroke="midnightblue" d="M557.13,-73.14C581.86,-63.45 616.36,-50.22 647,-39.5 655.52,-36.52 664.63,-33.48 673.46,-30.61"/>
<polygon fill="midnightblue" stroke="midnightblue" points="555.52,-70.01 547.5,-76.93 558.08,-76.53 555.52,-70.01"/>
</g>
<!-- Node2 -->
<g id="node2" class="node">
<title>Node2</title>
<g id="a_node2"><a xlink:href="structDGtal_1_1concepts_1_1CLabel.html" target="_top" xlink:title="Aim: Define the concept of DGtal labels. Models of CLabel can be default&#45;constructible,...">
<polygon fill="white" stroke="black" points="226,-96 226,-115 387,-115 387,-96 226,-96"/>
<text text-anchor="middle" x="306.5" y="-103" font-family="FreeSans" font-size="10.00">DGtal::concepts::CLabel&lt; T &gt;</text>
</a>
</g>
</g>
<!-- Node2&#45;&gt;Node1 -->
<g id="edge1" class="edge">
<title>Node2&#45;&gt;Node1</title>
<path fill="none" stroke="midnightblue" d="M397.27,-97.53C409.37,-96.46 421.77,-95.35 433.84,-94.28"/>
<polygon fill="midnightblue" stroke="midnightblue" points="396.84,-94.05 387.19,-98.43 397.46,-101.03 396.84,-94.05"/>
</g>
<!-- Node3 -->
<g id="node3" class="node">
<title>Node3</title>
<g id="a_node3"><a xlink:href="structboost_1_1DefaultConstructible.html" target="_top" xlink:title="Go to http://www.sgi.com/tech/stl/DefaultConstructible.html.">
<polygon fill="white" stroke="black" points="0,-134 0,-153 179,-153 179,-134 0,-134"/>
<text text-anchor="middle" x="89.5" y="-141" font-family="FreeSans" font-size="10.00">boost::DefaultConstructible&lt; T &gt;</text>
</a>
</g>
</g>
<!-- Node3&#45;&gt;Node2 -->
<g id="edge2" class="edge">
<title>Node3&#45;&gt;Node2</title>
<path fill="none" stroke="midnightblue" d="M154.7,-132.15C185.55,-126.7 222.11,-120.24 251.5,-115.04"/>
<polygon fill="midnightblue" stroke="midnightblue" points="153.71,-128.77 144.48,-133.96 154.93,-135.67 153.71,-128.77"/>
</g>
<!-- Node4 -->
<g id="node4" class="node">
<title>Node4</title>
<g id="a_node4"><a xlink:href="structboost_1_1Assignable.html" target="_top" xlink:title="Go to http://www.sgi.com/tech/stl/Assignable.html.">
<polygon fill="white" stroke="black" points="24,-96 24,-115 155,-115 155,-96 24,-96"/>
<text text-anchor="middle" x="89.5" y="-103" font-family="FreeSans" font-size="10.00">boost::Assignable&lt; T &gt;</text>
</a>
</g>
</g>
<!-- Node4&#45;&gt;Node2 -->
<g id="edge3" class="edge">
<title>Node4&#45;&gt;Node2</title>
<path fill="none" stroke="midnightblue" d="M165.1,-105.5C184.71,-105.5 205.94,-105.5 225.81,-105.5"/>
<polygon fill="midnightblue" stroke="midnightblue" points="165.01,-102 155.01,-105.5 165.01,-109 165.01,-102"/>
</g>
<!-- Node5 -->
<g id="node5" class="node">
<title>Node5</title>
<g id="a_node5"><a xlink:href="structboost_1_1EqualityComparable.html" target="_top" xlink:title="Go to http://www.sgi.com/tech/stl/EqualityComparable.html.">
<polygon fill="white" stroke="black" points="1,-58 1,-77 178,-77 178,-58 1,-58"/>
<text text-anchor="middle" x="89.5" y="-65" font-family="FreeSans" font-size="10.00">boost::EqualityComparable&lt; T &gt;</text>
</a>
</g>
</g>
<!-- Node5&#45;&gt;Node2 -->
<g id="edge4" class="edge">
<title>Node5&#45;&gt;Node2</title>
<path fill="none" stroke="midnightblue" d="M154.7,-78.85C185.55,-84.3 222.11,-90.76 251.5,-95.96"/>
<polygon fill="midnightblue" stroke="midnightblue" points="154.93,-75.33 144.48,-77.04 153.71,-82.23 154.93,-75.33"/>
</g>
<!-- Node6 -->
<g id="node6" class="node">
<title>Node6</title>
<g id="a_node6"><a xlink:href="structboost_1_1LessThanComparable.html" target="_top" xlink:title="Go to http://www.sgi.com/tech/stl/LessThanComparable.html.">
<polygon fill="white" stroke="black" points="215,-58 215,-77 398,-77 398,-58 215,-58"/>
<text text-anchor="middle" x="306.5" y="-65" font-family="FreeSans" font-size="10.00">boost::LessThanComparable&lt; T &gt;</text>
</a>
</g>
</g>
<!-- Node6&#45;&gt;Node1 -->
<g id="edge5" class="edge">
<title>Node6&#45;&gt;Node1</title>
<path fill="none" stroke="midnightblue" d="M408.48,-76.47C416.9,-77.21 425.37,-77.96 433.67,-78.7"/>
<polygon fill="midnightblue" stroke="midnightblue" points="408.53,-72.96 398.26,-75.56 407.91,-79.93 408.53,-72.96"/>
</g>
<!-- Node9 -->
<g id="node9" class="node">
<title>Node9</title>
<g id="a_node9"><a xlink:href="structDGtal_1_1concepts_1_1CInteger.html" target="_top" xlink:title="Aim: Concept checking for Integer Numbers. More precisely, this concept is a refinement of both CEucl...">
<polygon fill="white" stroke="black" points="1234,-76 1234,-95 1404,-95 1404,-76 1234,-76"/>
<text text-anchor="middle" x="1319" y="-83" font-family="FreeSans" font-size="10.00">DGtal::concepts::CInteger&lt; T &gt;</text>
</a>
</g>
</g>
<!-- Node8&#45;&gt;Node9 -->
<g id="edge8" class="edge">
<title>Node8&#45;&gt;Node9</title>
<path fill="none" stroke="midnightblue" d="M1003.77,-105.36C1070.86,-101.12 1165.76,-95.12 1233.68,-90.83"/>
<polygon fill="midnightblue" stroke="midnightblue" points="1003.42,-101.88 993.66,-106 1003.87,-108.86 1003.42,-101.88"/>
</g>
<!-- Node11 -->
<g id="node11" class="node">
<title>Node11</title>
<g id="a_node11"><a xlink:href="structDGtal_1_1concepts_1_1CCommutativeRing.html" target="_top" xlink:title="Aim: Defines the mathematical concept equivalent to a unitary commutative ring.">
<polygon fill="white" stroke="black" points="835,-46.5 835,-76.5 1008,-76.5 1008,-46.5 835,-46.5"/>
<text text-anchor="start" x="843" y="-64.5" font-family="FreeSans" font-size="10.00">DGtal::concepts::CCommutative</text>
<text text-anchor="middle" x="921.5" y="-53.5" font-family="FreeSans" font-size="10.00">Ring&lt; T &gt;</text>
</a>
</g>
</g>
<!-- Node10&#45;&gt;Node11 -->
<g id="edge10" class="edge">
<title>Node10&#45;&gt;Node11</title>
<path fill="none" stroke="midnightblue" d="M803.25,-63.29C813.62,-63.13 824.28,-62.97 834.75,-62.81"/>
<polygon fill="midnightblue" stroke="midnightblue" points="802.95,-59.79 793,-63.45 803.05,-66.79 802.95,-59.79"/>
</g>
<!-- Node12 -->
<g id="node12" class="node">
<title>Node12</title>
<g id="a_node12"><a xlink:href="structDGtal_1_1concepts_1_1CEuclideanRing.html" target="_top" xlink:title="Aim: Defines the mathematical concept equivalent to a unitary commutative ring with a division operat...">
<polygon fill="white" stroke="black" points="1044,-48.5 1044,-78.5 1198,-78.5 1198,-48.5 1044,-48.5"/>
<text text-anchor="start" x="1052" y="-66.5" font-family="FreeSans" font-size="10.00">DGtal::concepts::CEuclidean</text>
<text text-anchor="middle" x="1121" y="-55.5" font-family="FreeSans" font-size="10.00">Ring&lt; T &gt;</text>
</a>
</g>
</g>
<!-- Node11&#45;&gt;Node12 -->
<g id="edge11" class="edge">
<title>Node11&#45;&gt;Node12</title>
<path fill="none" stroke="midnightblue" d="M1018.32,-62.47C1026.92,-62.56 1035.54,-62.64 1043.93,-62.73"/>
<polygon fill="midnightblue" stroke="midnightblue" points="1018.3,-58.97 1008.26,-62.37 1018.23,-65.97 1018.3,-58.97"/>
</g>
<!-- Node12&#45;&gt;Node9 -->
<g id="edge12" class="edge">
<title>Node12&#45;&gt;Node9</title>
<path fill="none" stroke="midnightblue" d="M1208.04,-73.16C1216.61,-74.12 1225.3,-75.1 1233.85,-76.05"/>
<polygon fill="midnightblue" stroke="midnightblue" points="1208.39,-69.67 1198.06,-72.04 1207.61,-76.63 1208.39,-69.67"/>
</g>
</g>
</svg>
