<?xml version="1.0" encoding="UTF-8" standalone="no"?>
<!DOCTYPE svg PUBLIC "-//W3C//DTD SVG 1.1//EN"
 "http://www.w3.org/Graphics/SVG/1.1/DTD/svg11.dtd">
<!-- Generated by graphviz version 2.43.0 (0)
 -->
<!-- Title: DGtal::concepts::CBidirectionalRangeFromPoint&lt; T &gt; Pages: 1 -->
<svg width="840pt" height="88pt"
 viewBox="0.00 0.00 840.00 88.00" xmlns="http://www.w3.org/2000/svg" xmlns:xlink="http://www.w3.org/1999/xlink">
<g id="graph0" class="graph" transform="scale(1 1) rotate(0) translate(4 84)">
<title>DGtal::concepts::CBidirectionalRangeFromPoint&lt; T &gt;</title>
<polygon fill="white" stroke="transparent" points="-4,4 -4,-84 836,-84 836,4 -4,4"/>
<!-- Node1 -->
<g id="node1" class="node">
<title>Node1</title>
<g id="a_node1"><a xlink:title="Aim: refined concept of single pass range with a begin() method from a point.">
<polygon fill="#bfbfbf" stroke="black" points="664,-24.5 664,-54.5 832,-54.5 832,-24.5 664,-24.5"/>
<text text-anchor="start" x="672" y="-42.5" font-family="FreeSans" font-size="10.00">DGtal::concepts::CBidirectional</text>
<text text-anchor="middle" x="748" y="-31.5" font-family="FreeSans" font-size="10.00">RangeFromPoint&lt; T &gt;</text>
</a>
</g>
</g>
<!-- Node2 -->
<g id="node2" class="node">
<title>Node2</title>
<g id="a_node2"><a xlink:href="structDGtal_1_1concepts_1_1CBidirectionalRange.html" target="_top" xlink:title="Aim: Defines the concept describing a bidirectional range.">
<polygon fill="white" stroke="black" points="446,-49.5 446,-79.5 614,-79.5 614,-49.5 446,-49.5"/>
<text text-anchor="start" x="454" y="-67.5" font-family="FreeSans" font-size="10.00">DGtal::concepts::CBidirectional</text>
<text text-anchor="middle" x="530" y="-56.5" font-family="FreeSans" font-size="10.00">Range&lt; T &gt;</text>
</a>
</g>
</g>
<!-- Node2&#45;&gt;Node1 -->
<g id="edge1" class="edge">
<title>Node2&#45;&gt;Node1</title>
<path fill="none" stroke="midnightblue" d="M624.21,-53.71C637.39,-52.19 650.87,-50.63 663.84,-49.12"/>
<polygon fill="midnightblue" stroke="midnightblue" points="623.73,-50.24 614.2,-54.87 624.54,-57.2 623.73,-50.24"/>
</g>
<!-- Node3 -->
<g id="node3" class="node">
<title>Node3</title>
<g id="a_node3"><a xlink:href="structDGtal_1_1concepts_1_1CConstBidirectionalRange.html" target="_top" xlink:title="Aim: Defines the concept describing a bidirectional const range.">
<polygon fill="white" stroke="black" points="200,-24.5 200,-54.5 396,-54.5 396,-24.5 200,-24.5"/>
<text text-anchor="start" x="208" y="-42.5" font-family="FreeSans" font-size="10.00">DGtal::concepts::CConstBidirectional</text>
<text text-anchor="middle" x="298" y="-31.5" font-family="FreeSans" font-size="10.00">Range&lt; T &gt;</text>
</a>
</g>
</g>
<!-- Node3&#45;&gt;Node2 -->
<g id="edge2" class="edge">
<title>Node3&#45;&gt;Node2</title>
<path fill="none" stroke="midnightblue" d="M406.34,-51.17C419.65,-52.61 433.09,-54.08 445.96,-55.47"/>
<polygon fill="midnightblue" stroke="midnightblue" points="406.53,-47.67 396.21,-50.07 405.77,-54.63 406.53,-47.67"/>
</g>
<!-- Node5 -->
<g id="node5" class="node">
<title>Node5</title>
<g id="a_node5"><a xlink:href="structDGtal_1_1concepts_1_1CConstBidirectionalRangeFromPoint.html" target="_top" xlink:title="Aim: refined concept of const bidirectional range with a begin() method from a point.">
<polygon fill="white" stroke="black" points="432,-0.5 432,-30.5 628,-30.5 628,-0.5 432,-0.5"/>
<text text-anchor="start" x="440" y="-18.5" font-family="FreeSans" font-size="10.00">DGtal::concepts::CConstBidirectional</text>
<text text-anchor="middle" x="530" y="-7.5" font-family="FreeSans" font-size="10.00">RangeFromPoint&lt; T &gt;</text>
</a>
</g>
</g>
<!-- Node3&#45;&gt;Node5 -->
<g id="edge5" class="edge">
<title>Node3&#45;&gt;Node5</title>
<path fill="none" stroke="midnightblue" d="M406.19,-28.32C414.72,-27.42 423.31,-26.53 431.77,-25.65"/>
<polygon fill="midnightblue" stroke="midnightblue" points="405.79,-24.84 396.21,-29.36 406.52,-31.8 405.79,-24.84"/>
</g>
<!-- Node4 -->
<g id="node4" class="node">
<title>Node4</title>
<g id="a_node4"><a xlink:href="structDGtal_1_1concepts_1_1CConstSinglePassRange.html" target="_top" xlink:title="Aim: Defines the concept describing a const single pass range.">
<polygon fill="white" stroke="black" points="0,-24.5 0,-54.5 164,-54.5 164,-24.5 0,-24.5"/>
<text text-anchor="start" x="8" y="-42.5" font-family="FreeSans" font-size="10.00">DGtal::concepts::CConstSingle</text>
<text text-anchor="middle" x="82" y="-31.5" font-family="FreeSans" font-size="10.00">PassRange&lt; T &gt;</text>
</a>
</g>
</g>
<!-- Node4&#45;&gt;Node3 -->
<g id="edge3" class="edge">
<title>Node4&#45;&gt;Node3</title>
<path fill="none" stroke="midnightblue" d="M174.35,-39.5C182.73,-39.5 191.24,-39.5 199.67,-39.5"/>
<polygon fill="midnightblue" stroke="midnightblue" points="174.21,-36 164.21,-39.5 174.21,-43 174.21,-36"/>
</g>
<!-- Node5&#45;&gt;Node1 -->
<g id="edge4" class="edge">
<title>Node5&#45;&gt;Node1</title>
<path fill="none" stroke="midnightblue" d="M638.3,-27.42C646.87,-28.37 655.45,-29.33 663.81,-30.26"/>
<polygon fill="midnightblue" stroke="midnightblue" points="638.58,-23.93 628.26,-26.31 637.81,-30.89 638.58,-23.93"/>
</g>
</g>
</svg>
