<?xml version="1.0" encoding="UTF-8" standalone="no"?>
<!DOCTYPE svg PUBLIC "-//W3C//DTD SVG 1.1//EN"
 "http://www.w3.org/Graphics/SVG/1.1/DTD/svg11.dtd">
<!-- Generated by graphviz version 2.43.0 (0)
 -->
<!-- Title: DGtal::concepts::CCurveLocalGeometricEstimator&lt; T &gt; Pages: 1 -->
<svg width="169pt" height="106pt"
 viewBox="0.00 0.00 169.00 106.00" xmlns="http://www.w3.org/2000/svg" xmlns:xlink="http://www.w3.org/1999/xlink">
<g id="graph0" class="graph" transform="scale(1 1) rotate(0) translate(4 102)">
<title>DGtal::concepts::CCurveLocalGeometricEstimator&lt; T &gt;</title>
<polygon fill="white" stroke="transparent" points="-4,4 -4,-102 165,-102 165,4 -4,4"/>
<!-- Node1 -->
<g id="node1" class="node">
<title>Node1</title>
<g id="a_node1"><a xlink:title="Aim: This concept describes an object that can process a range so as to return one estimated quantity...">
<polygon fill="#bfbfbf" stroke="black" points="0,-67.5 0,-97.5 161,-97.5 161,-67.5 0,-67.5"/>
<text text-anchor="start" x="8" y="-85.5" font-family="FreeSans" font-size="10.00">DGtal::concepts::CCurveLocal</text>
<text text-anchor="middle" x="80.5" y="-74.5" font-family="FreeSans" font-size="10.00">GeometricEstimator&lt; T &gt;</text>
</a>
</g>
</g>
<!-- Node2 -->
<g id="node2" class="node">
<title>Node2</title>
<g id="a_node2"><a xlink:href="structDGtal_1_1concepts_1_1CSegmentComputerEstimator.html" target="_top" xlink:title="Aim: This concept is a refinement of CCurveLocalGeometricEstimator devoted to the estimation of a geo...">
<polygon fill="white" stroke="black" points="5.5,-0.5 5.5,-30.5 155.5,-30.5 155.5,-0.5 5.5,-0.5"/>
<text text-anchor="start" x="13.5" y="-18.5" font-family="FreeSans" font-size="10.00">DGtal::concepts::CSegment</text>
<text text-anchor="middle" x="80.5" y="-7.5" font-family="FreeSans" font-size="10.00">ComputerEstimator&lt; T &gt;</text>
</a>
</g>
</g>
<!-- Node1&#45;&gt;Node2 -->
<g id="edge1" class="edge">
<title>Node1&#45;&gt;Node2</title>
<path fill="none" stroke="midnightblue" d="M80.5,-57.11C80.5,-48.15 80.5,-38.32 80.5,-30.58"/>
<polygon fill="midnightblue" stroke="midnightblue" points="77,-57.4 80.5,-67.4 84,-57.4 77,-57.4"/>
</g>
</g>
</svg>
