<?xml version="1.0" encoding="UTF-8" standalone="no"?>
<!DOCTYPE svg PUBLIC "-//W3C//DTD SVG 1.1//EN"
 "http://www.w3.org/Graphics/SVG/1.1/DTD/svg11.dtd">
<!-- Generated by graphviz version 2.43.0 (0)
 -->
<!-- Title: DGtal::CameraZNearFar Pages: 1 -->
<svg width="384pt" height="151pt"
 viewBox="0.00 0.00 384.00 151.00" xmlns="http://www.w3.org/2000/svg" xmlns:xlink="http://www.w3.org/1999/xlink">
<g id="graph0" class="graph" transform="scale(1 1) rotate(0) translate(4 147)">
<title>DGtal::CameraZNearFar</title>
<polygon fill="white" stroke="transparent" points="-4,4 -4,-147 380,-147 380,4 -4,4"/>
<!-- Node1 -->
<g id="node1" class="node">
<title>Node1</title>
<g id="a_node1"><a xlink:title="CameraZNearFar class to set near and far distance.">
<polygon fill="#bfbfbf" stroke="black" points="116.5,-0.5 116.5,-19.5 249.5,-19.5 249.5,-0.5 116.5,-0.5"/>
<text text-anchor="middle" x="183" y="-7.5" font-family="FreeSans" font-size="10.00">DGtal::CameraZNearFar</text>
</a>
</g>
</g>
<!-- Node2 -->
<g id="node2" class="node">
<title>Node2</title>
<g id="a_node2"><a xlink:href="structDGtal_1_1DrawWithBoard3DTo2DModifier.html" target="_top" xlink:title="Base class specifying the methods for classes which intend to modify a Viewer3D stream.">
<polygon fill="white" stroke="black" points="8.5,-56.5 8.5,-86.5 165.5,-86.5 165.5,-56.5 8.5,-56.5"/>
<text text-anchor="start" x="16.5" y="-74.5" font-family="FreeSans" font-size="10.00">DGtal::DrawWithBoard3DTo2</text>
<text text-anchor="middle" x="87" y="-63.5" font-family="FreeSans" font-size="10.00">DModifier</text>
</a>
</g>
</g>
<!-- Node2&#45;&gt;Node1 -->
<g id="edge1" class="edge">
<title>Node2&#45;&gt;Node1</title>
<path fill="none" stroke="midnightblue" d="M118.35,-51.07C135.46,-40.46 155.8,-27.86 169.03,-19.66"/>
<polygon fill="midnightblue" stroke="midnightblue" points="116.41,-48.16 109.75,-56.4 120.09,-54.11 116.41,-48.16"/>
</g>
<!-- Node3 -->
<g id="node3" class="node">
<title>Node3</title>
<g id="a_node3"><a xlink:href="structDGtal_1_1DrawableWithDisplay3D.html" target="_top" xlink:title=" ">
<polygon fill="white" stroke="black" points="0,-123.5 0,-142.5 170,-142.5 170,-123.5 0,-123.5"/>
<text text-anchor="middle" x="85" y="-130.5" font-family="FreeSans" font-size="10.00">DGtal::DrawableWithDisplay3D</text>
</a>
</g>
</g>
<!-- Node3&#45;&gt;Node2 -->
<g id="edge2" class="edge">
<title>Node3&#45;&gt;Node2</title>
<path fill="none" stroke="midnightblue" d="M85.63,-113.23C85.92,-104.59 86.26,-94.5 86.53,-86.52"/>
<polygon fill="midnightblue" stroke="midnightblue" points="82.12,-113.36 85.29,-123.48 89.12,-113.6 82.12,-113.36"/>
</g>
<!-- Node4 -->
<g id="node4" class="node">
<title>Node4</title>
<g id="a_node4"><a xlink:href="structDGtal_1_1DrawWithViewer3DModifier.html" target="_top" xlink:title="Base class specifying the methods for classes which intend to modify a Viewer3D stream.">
<polygon fill="white" stroke="black" points="187.5,-62 187.5,-81 372.5,-81 372.5,-62 187.5,-62"/>
<text text-anchor="middle" x="280" y="-69" font-family="FreeSans" font-size="10.00">DGtal::DrawWithViewer3DModifier</text>
</a>
</g>
</g>
<!-- Node4&#45;&gt;Node1 -->
<g id="edge3" class="edge">
<title>Node4&#45;&gt;Node1</title>
<path fill="none" stroke="midnightblue" d="M257.57,-56.74C238.84,-45.25 212.71,-29.22 196.87,-19.51"/>
<polygon fill="midnightblue" stroke="midnightblue" points="255.75,-59.73 266.1,-61.98 259.41,-53.76 255.75,-59.73"/>
</g>
<!-- Node5 -->
<g id="node5" class="node">
<title>Node5</title>
<g id="a_node5"><a xlink:href="structDGtal_1_1DrawWithDisplay3DModifier.html" target="_top" xlink:title="Base class specifying the methods for classes which intend to modify a Viewer3D stream.">
<polygon fill="white" stroke="black" points="188,-123.5 188,-142.5 376,-142.5 376,-123.5 188,-123.5"/>
<text text-anchor="middle" x="282" y="-130.5" font-family="FreeSans" font-size="10.00">DGtal::DrawWithDisplay3DModifier</text>
</a>
</g>
</g>
<!-- Node5&#45;&gt;Node4 -->
<g id="edge4" class="edge">
<title>Node5&#45;&gt;Node4</title>
<path fill="none" stroke="midnightblue" d="M281.37,-113.32C281.01,-102.5 280.57,-89.4 280.29,-81.01"/>
<polygon fill="midnightblue" stroke="midnightblue" points="277.88,-113.6 281.71,-123.48 284.88,-113.36 277.88,-113.6"/>
</g>
</g>
</svg>
