<?xml version="1.0" encoding="UTF-8" standalone="no"?>
<!DOCTYPE svg PUBLIC "-//W3C//DTD SVG 1.1//EN"
 "http://www.w3.org/Graphics/SVG/1.1/DTD/svg11.dtd">
<!-- Generated by graphviz version 2.43.0 (0)
 -->
<!-- Title: DGtal::DrawWithBoardModifier Pages: 1 -->
<svg width="232pt" height="84pt"
 viewBox="0.00 0.00 232.00 84.00" xmlns="http://www.w3.org/2000/svg" xmlns:xlink="http://www.w3.org/1999/xlink">
<g id="graph0" class="graph" transform="scale(1 1) rotate(0) translate(4 80)">
<title>DGtal::DrawWithBoardModifier</title>
<polygon fill="white" stroke="transparent" points="-4,4 -4,-80 228,-80 228,4 -4,4"/>
<!-- Node1 -->
<g id="node1" class="node">
<title>Node1</title>
<g id="a_node1"><a xlink:title=" ">
<polygon fill="#bfbfbf" stroke="black" points="33,-56.5 33,-75.5 200,-75.5 200,-56.5 33,-56.5"/>
<text text-anchor="middle" x="116.5" y="-63.5" font-family="FreeSans" font-size="10.00">DGtal::DrawWithBoardModifier</text>
</a>
</g>
</g>
<!-- Node2 -->
<g id="node2" class="node">
<title>Node2</title>
<g id="a_node2"><a xlink:href="structDGtal_1_1CustomStyle.html" target="_top" xlink:title=" ">
<polygon fill="white" stroke="black" points="0,-0.5 0,-19.5 113,-19.5 113,-0.5 0,-0.5"/>
<text text-anchor="middle" x="56.5" y="-7.5" font-family="FreeSans" font-size="10.00">DGtal::CustomStyle</text>
</a>
</g>
</g>
<!-- Node1&#45;&gt;Node2 -->
<g id="edge1" class="edge">
<title>Node1&#45;&gt;Node2</title>
<path fill="none" stroke="midnightblue" d="M99.32,-49.54C88.62,-39.91 75.24,-27.87 66.32,-19.83"/>
<polygon fill="midnightblue" stroke="midnightblue" points="97.09,-52.24 106.86,-56.32 101.77,-47.03 97.09,-52.24"/>
</g>
<!-- Node3 -->
<g id="node3" class="node">
<title>Node3</title>
<g id="a_node3"><a xlink:href="structDGtal_1_1SetMode.html" target="_top" xlink:title="Modifier class in a Board2D stream. Useful to choose your own mode for a given class....">
<polygon fill="white" stroke="black" points="131,-0.5 131,-19.5 224,-19.5 224,-0.5 131,-0.5"/>
<text text-anchor="middle" x="177.5" y="-7.5" font-family="FreeSans" font-size="10.00">DGtal::SetMode</text>
</a>
</g>
</g>
<!-- Node1&#45;&gt;Node3 -->
<g id="edge2" class="edge">
<title>Node1&#45;&gt;Node3</title>
<path fill="none" stroke="midnightblue" d="M133.97,-49.54C144.84,-39.91 158.44,-27.87 167.52,-19.83"/>
<polygon fill="midnightblue" stroke="midnightblue" points="131.47,-47.07 126.3,-56.32 136.11,-52.32 131.47,-47.07"/>
</g>
</g>
</svg>
