<?xml version="1.0" encoding="UTF-8" standalone="no"?>
<!DOCTYPE svg PUBLIC "-//W3C//DTD SVG 1.1//EN"
 "http://www.w3.org/Graphics/SVG/1.1/DTD/svg11.dtd">
<!-- Generated by graphviz version 2.43.0 (0)
 -->
<!-- Title: DGtal::UnorderedSetByBlock&lt; Key, TSplitter, Hash, KeyEqual, UnorderedMapAllocator &gt; Pages: 1 -->
<svg width="532pt" height="110pt"
 viewBox="0.00 0.00 532.00 110.00" xmlns="http://www.w3.org/2000/svg" xmlns:xlink="http://www.w3.org/1999/xlink">
<g id="graph0" class="graph" transform="scale(1 1) rotate(0) translate(4 106)">
<title>DGtal::UnorderedSetByBlock&lt; Key, TSplitter, Hash, KeyEqual, UnorderedMapAllocator &gt;</title>
<polygon fill="white" stroke="transparent" points="-4,4 -4,-106 528,-106 528,4 -4,4"/>
<!-- Node1 -->
<g id="node1" class="node">
<title>Node1</title>
<g id="a_node1"><a xlink:title=" ">
<polygon fill="#bfbfbf" stroke="black" points="0,-36 0,-77 197,-77 197,-36 0,-36"/>
<text text-anchor="start" x="8" y="-65" font-family="FreeSans" font-size="10.00">DGtal::UnorderedSetByBlock</text>
<text text-anchor="start" x="8" y="-54" font-family="FreeSans" font-size="10.00">&lt; Key, TSplitter, Hash,</text>
<text text-anchor="middle" x="98.5" y="-43" font-family="FreeSans" font-size="10.00"> KeyEqual, UnorderedMapAllocator &gt;</text>
</a>
</g>
</g>
<!-- Node2 -->
<g id="node2" class="node">
<title>Node2</title>
<g id="a_node2"><a xlink:href="structDGtal_1_1UnorderedSetByBlock.html" target="_top" xlink:title=" ">
<polygon fill="white" stroke="black" points="365,-71.5 365,-101.5 522,-101.5 522,-71.5 365,-71.5"/>
<text text-anchor="start" x="373" y="-89.5" font-family="FreeSans" font-size="10.00">DGtal::UnorderedSetByBlock</text>
<text text-anchor="middle" x="443.5" y="-78.5" font-family="FreeSans" font-size="10.00">&lt; Point &gt;</text>
</a>
</g>
</g>
<!-- Node1&#45;&gt;Node2 -->
<g id="edge1" class="edge">
<title>Node1&#45;&gt;Node2</title>
<path fill="none" stroke="orange" stroke-dasharray="5,2" d="M207.43,-65.94C258.54,-70.41 318.43,-75.65 364.96,-79.72"/>
<polygon fill="orange" stroke="orange" points="207.6,-62.44 197.33,-65.06 206.99,-69.41 207.6,-62.44"/>
<text text-anchor="middle" x="280" y="-80.5" font-family="FreeSans" font-size="10.00"> &lt; Point &gt;</text>
</g>
<!-- Node3 -->
<g id="node3" class="node">
<title>Node3</title>
<g id="a_node3"><a xlink:href="structDGtal_1_1UnorderedSetByBlock.html" target="_top" xlink:title=" ">
<polygon fill="white" stroke="black" points="363,-0.5 363,-52.5 524,-52.5 524,-0.5 363,-0.5"/>
<text text-anchor="start" x="371" y="-40.5" font-family="FreeSans" font-size="10.00">DGtal::UnorderedSetByBlock</text>
<text text-anchor="start" x="371" y="-29.5" font-family="FreeSans" font-size="10.00">&lt; DGtal::PointVector, DGtal</text>
<text text-anchor="start" x="371" y="-18.5" font-family="FreeSans" font-size="10.00">::Splitter&lt; DGtal::PointVector,</text>
<text text-anchor="middle" x="443.5" y="-7.5" font-family="FreeSans" font-size="10.00"> uint64_t &gt; &gt;</text>
</a>
</g>
</g>
<!-- Node1&#45;&gt;Node3 -->
<g id="edge2" class="edge">
<title>Node1&#45;&gt;Node3</title>
<path fill="none" stroke="orange" stroke-dasharray="5,2" d="M187.16,-33.93C196.51,-32.14 205.92,-30.61 215,-29.5 263.91,-23.53 319.18,-22.67 362.99,-23.35"/>
<polygon fill="orange" stroke="orange" points="186.18,-30.56 177.06,-35.95 187.55,-37.42 186.18,-30.56"/>
<text text-anchor="start" x="215" y="-54.5" font-family="FreeSans" font-size="10.00"> &lt; DGtal::PointVector,</text>
<text text-anchor="start" x="215" y="-43.5" font-family="FreeSans" font-size="10.00"> DGtal::Splitter&lt; DGtal</text>
<text text-anchor="middle" x="280" y="-32.5" font-family="FreeSans" font-size="10.00">::PointVector, uint64_t &gt; &gt;</text>
</g>
</g>
</svg>
