<?xml version="1.0" encoding="UTF-8" standalone="no"?>
<!DOCTYPE svg PUBLIC "-//W3C//DTD SVG 1.1//EN"
 "http://www.w3.org/Graphics/SVG/1.1/DTD/svg11.dtd">
<!-- Generated by graphviz version 2.43.0 (0)
 -->
<!-- Title: DGtal::ContainerCategory Pages: 1 -->
<svg width="757pt" height="361pt"
 viewBox="0.00 0.00 757.00 361.00" xmlns="http://www.w3.org/2000/svg" xmlns:xlink="http://www.w3.org/1999/xlink">
<g id="graph0" class="graph" transform="scale(1 1) rotate(0) translate(4 357)">
<title>DGtal::ContainerCategory</title>
<polygon fill="white" stroke="transparent" points="-4,4 -4,-357 753,-357 753,4 -4,4"/>
<!-- Node1 -->
<g id="node1" class="node">
<title>Node1</title>
<g id="a_node1"><a xlink:title=" ">
<polygon fill="#bfbfbf" stroke="black" points="0,-150 0,-169 142,-169 142,-150 0,-150"/>
<text text-anchor="middle" x="71" y="-157" font-family="FreeSans" font-size="10.00">DGtal::ContainerCategory</text>
</a>
</g>
</g>
<!-- Node2 -->
<g id="node2" class="node">
<title>Node2</title>
<g id="a_node2"><a xlink:href="structDGtal_1_1AssociativeCategory.html" target="_top" xlink:title=" ">
<polygon fill="white" stroke="black" points="178,-169 178,-188 329,-188 329,-169 178,-169"/>
<text text-anchor="middle" x="253.5" y="-176" font-family="FreeSans" font-size="10.00">DGtal::AssociativeCategory</text>
</a>
</g>
</g>
<!-- Node1&#45;&gt;Node2 -->
<g id="edge1" class="edge">
<title>Node1&#45;&gt;Node2</title>
<path fill="none" stroke="midnightblue" d="M152.01,-167.92C160.55,-168.82 169.23,-169.73 177.71,-170.63"/>
<polygon fill="midnightblue" stroke="midnightblue" points="152.36,-164.44 142.04,-166.87 151.62,-171.4 152.36,-164.44"/>
</g>
<!-- Node17 -->
<g id="node17" class="node">
<title>Node17</title>
<g id="a_node17"><a xlink:href="structDGtal_1_1SequenceCategory.html" target="_top" xlink:title=" ">
<polygon fill="white" stroke="black" points="182.5,-131 182.5,-150 324.5,-150 324.5,-131 182.5,-131"/>
<text text-anchor="middle" x="253.5" y="-138" font-family="FreeSans" font-size="10.00">DGtal::SequenceCategory</text>
</a>
</g>
</g>
<!-- Node1&#45;&gt;Node17 -->
<g id="edge32" class="edge">
<title>Node1&#45;&gt;Node17</title>
<path fill="none" stroke="midnightblue" d="M152.1,-151.07C162.23,-150 172.54,-148.92 182.5,-147.87"/>
<polygon fill="midnightblue" stroke="midnightblue" points="151.62,-147.6 142.04,-152.13 152.36,-154.56 151.62,-147.6"/>
</g>
<!-- Node3 -->
<g id="node3" class="node">
<title>Node3</title>
<g id="a_node3"><a xlink:href="structDGtal_1_1MultipleAssociativeCategory.html" target="_top" xlink:title=" ">
<polygon fill="white" stroke="black" points="376.5,-278.5 376.5,-308.5 522.5,-308.5 522.5,-278.5 376.5,-278.5"/>
<text text-anchor="start" x="384.5" y="-296.5" font-family="FreeSans" font-size="10.00">DGtal::MultipleAssociative</text>
<text text-anchor="middle" x="449.5" y="-285.5" font-family="FreeSans" font-size="10.00">Category</text>
</a>
</g>
</g>
<!-- Node2&#45;&gt;Node3 -->
<g id="edge2" class="edge">
<title>Node2&#45;&gt;Node3</title>
<path fill="none" stroke="midnightblue" d="M270.74,-195.61C290.99,-216 327.53,-249.78 365,-269.5 371.41,-272.87 378.35,-275.82 385.39,-278.39"/>
<polygon fill="midnightblue" stroke="midnightblue" points="273.06,-192.98 263.57,-188.26 268.05,-197.87 273.06,-192.98"/>
</g>
<!-- Node8 -->
<g id="node8" class="node">
<title>Node8</title>
<g id="a_node8"><a xlink:href="structDGtal_1_1OrderedAssociativeCategory.html" target="_top" xlink:title=" ">
<polygon fill="white" stroke="black" points="376.5,-229.5 376.5,-259.5 522.5,-259.5 522.5,-229.5 376.5,-229.5"/>
<text text-anchor="start" x="384.5" y="-247.5" font-family="FreeSans" font-size="10.00">DGtal::OrderedAssociative</text>
<text text-anchor="middle" x="449.5" y="-236.5" font-family="FreeSans" font-size="10.00">Category</text>
</a>
</g>
</g>
<!-- Node2&#45;&gt;Node8 -->
<g id="edge7" class="edge">
<title>Node2&#45;&gt;Node8</title>
<path fill="none" stroke="midnightblue" d="M288.37,-191.71C310.14,-200.04 339.09,-210.82 365,-219.5 375.04,-222.86 385.84,-226.26 396.22,-229.41"/>
<polygon fill="midnightblue" stroke="midnightblue" points="289.51,-188.4 278.92,-188.07 286.99,-194.93 289.51,-188.4"/>
</g>
<!-- Node11 -->
<g id="node11" class="node">
<title>Node11</title>
<g id="a_node11"><a xlink:href="structDGtal_1_1PairAssociativeCategory.html" target="_top" xlink:title=" ">
<polygon fill="white" stroke="black" points="365,-191 365,-210 534,-210 534,-191 365,-191"/>
<text text-anchor="middle" x="449.5" y="-198" font-family="FreeSans" font-size="10.00">DGtal::PairAssociativeCategory</text>
</a>
</g>
</g>
<!-- Node2&#45;&gt;Node11 -->
<g id="edge12" class="edge">
<title>Node2&#45;&gt;Node11</title>
<path fill="none" stroke="midnightblue" d="M339.41,-188.13C347.83,-189.08 356.37,-190.05 364.77,-191"/>
<polygon fill="midnightblue" stroke="midnightblue" points="339.56,-184.62 329.23,-186.97 338.77,-191.58 339.56,-184.62"/>
</g>
<!-- Node13 -->
<g id="node13" class="node">
<title>Node13</title>
<g id="a_node13"><a xlink:href="structDGtal_1_1SimpleAssociativeCategory.html" target="_top" xlink:title=" ">
<polygon fill="white" stroke="black" points="379.5,-141.5 379.5,-171.5 519.5,-171.5 519.5,-141.5 379.5,-141.5"/>
<text text-anchor="start" x="387.5" y="-159.5" font-family="FreeSans" font-size="10.00">DGtal::SimpleAssociative</text>
<text text-anchor="middle" x="449.5" y="-148.5" font-family="FreeSans" font-size="10.00">Category</text>
</a>
</g>
</g>
<!-- Node2&#45;&gt;Node13 -->
<g id="edge17" class="edge">
<title>Node2&#45;&gt;Node13</title>
<path fill="none" stroke="midnightblue" d="M339.34,-168.88C352.66,-167.37 366.3,-165.82 379.22,-164.36"/>
<polygon fill="midnightblue" stroke="midnightblue" points="338.77,-165.42 329.23,-170.03 339.56,-172.38 338.77,-165.42"/>
</g>
<!-- Node15 -->
<g id="node15" class="node">
<title>Node15</title>
<g id="a_node15"><a xlink:href="structDGtal_1_1UniqueAssociativeCategory.html" target="_top" xlink:title=" ">
<polygon fill="white" stroke="black" points="379,-43.5 379,-73.5 520,-73.5 520,-43.5 379,-43.5"/>
<text text-anchor="start" x="387" y="-61.5" font-family="FreeSans" font-size="10.00">DGtal::UniqueAssociative</text>
<text text-anchor="middle" x="449.5" y="-50.5" font-family="FreeSans" font-size="10.00">Category</text>
</a>
</g>
</g>
<!-- Node2&#45;&gt;Node15 -->
<g id="edge22" class="edge">
<title>Node2&#45;&gt;Node15</title>
<path fill="none" stroke="midnightblue" d="M322.56,-164.09C324.81,-162.7 326.97,-161.17 329,-159.5 357.85,-135.74 336.65,-107.85 365,-83.5 369.48,-79.65 374.53,-76.4 379.87,-73.65"/>
<polygon fill="midnightblue" stroke="midnightblue" points="320.7,-161.11 313.45,-168.84 323.94,-167.32 320.7,-161.11"/>
</g>
<!-- Node16 -->
<g id="node16" class="node">
<title>Node16</title>
<g id="a_node16"><a xlink:href="structDGtal_1_1UnorderedAssociativeCategory.html" target="_top" xlink:title=" ">
<polygon fill="white" stroke="black" points="370.5,-92.5 370.5,-122.5 528.5,-122.5 528.5,-92.5 370.5,-92.5"/>
<text text-anchor="start" x="378.5" y="-110.5" font-family="FreeSans" font-size="10.00">DGtal::UnorderedAssociative</text>
<text text-anchor="middle" x="449.5" y="-99.5" font-family="FreeSans" font-size="10.00">Category</text>
</a>
</g>
</g>
<!-- Node2&#45;&gt;Node16 -->
<g id="edge27" class="edge">
<title>Node2&#45;&gt;Node16</title>
<path fill="none" stroke="midnightblue" d="M313.34,-165.84C318.73,-163.98 324.03,-161.88 329,-159.5 347.04,-150.86 347.14,-141.51 365,-132.5 372.43,-128.75 380.52,-125.46 388.65,-122.6"/>
<polygon fill="midnightblue" stroke="midnightblue" points="312.05,-162.58 303.57,-168.93 314.16,-169.25 312.05,-162.58"/>
</g>
<!-- Node4 -->
<g id="node4" class="node">
<title>Node4</title>
<g id="a_node4"><a xlink:href="structDGtal_1_1MultimapAssociativeCategory.html" target="_top" xlink:title=" ">
<polygon fill="white" stroke="black" points="583,-322.5 583,-352.5 736,-352.5 736,-322.5 583,-322.5"/>
<text text-anchor="start" x="591" y="-340.5" font-family="FreeSans" font-size="10.00">DGtal::MultimapAssociative</text>
<text text-anchor="middle" x="659.5" y="-329.5" font-family="FreeSans" font-size="10.00">Category</text>
</a>
</g>
</g>
<!-- Node3&#45;&gt;Node4 -->
<g id="edge3" class="edge">
<title>Node3&#45;&gt;Node4</title>
<path fill="none" stroke="midnightblue" d="M531.36,-310.61C549.87,-314.52 569.41,-318.65 587.47,-322.47"/>
<polygon fill="midnightblue" stroke="midnightblue" points="532.01,-307.16 521.5,-308.52 530.56,-314.01 532.01,-307.16"/>
</g>
<!-- Node5 -->
<g id="node5" class="node">
<title>Node5</title>
<g id="a_node5"><a xlink:href="structDGtal_1_1MultisetAssociativeCategory.html" target="_top" xlink:title=" ">
<polygon fill="white" stroke="black" points="586.5,-273.5 586.5,-303.5 732.5,-303.5 732.5,-273.5 586.5,-273.5"/>
<text text-anchor="start" x="594.5" y="-291.5" font-family="FreeSans" font-size="10.00">DGtal::MultisetAssociative</text>
<text text-anchor="middle" x="659.5" y="-280.5" font-family="FreeSans" font-size="10.00">Category</text>
</a>
</g>
</g>
<!-- Node3&#45;&gt;Node5 -->
<g id="edge4" class="edge">
<title>Node3&#45;&gt;Node5</title>
<path fill="none" stroke="midnightblue" d="M532.96,-291.52C550.65,-291.09 569.21,-290.65 586.46,-290.23"/>
<polygon fill="midnightblue" stroke="midnightblue" points="532.58,-288.03 522.66,-291.77 532.75,-295.02 532.58,-288.03"/>
</g>
<!-- Node6 -->
<g id="node6" class="node">
<title>Node6</title>
<g id="a_node6"><a xlink:href="structDGtal_1_1UnorderedMultimapAssociativeCategory.html" target="_top" xlink:title=" ">
<polygon fill="white" stroke="black" points="585.5,-224.5 585.5,-254.5 733.5,-254.5 733.5,-224.5 585.5,-224.5"/>
<text text-anchor="start" x="593.5" y="-242.5" font-family="FreeSans" font-size="10.00">DGtal::UnorderedMultimap</text>
<text text-anchor="middle" x="659.5" y="-231.5" font-family="FreeSans" font-size="10.00">AssociativeCategory</text>
</a>
</g>
</g>
<!-- Node3&#45;&gt;Node6 -->
<g id="edge5" class="edge">
<title>Node3&#45;&gt;Node6</title>
<path fill="none" stroke="midnightblue" d="M518.41,-275.87C544.93,-268.98 575.03,-261.17 600.51,-254.55"/>
<polygon fill="midnightblue" stroke="midnightblue" points="517.24,-272.56 508.44,-278.46 519,-279.33 517.24,-272.56"/>
</g>
<!-- Node7 -->
<g id="node7" class="node">
<title>Node7</title>
<g id="a_node7"><a xlink:href="structDGtal_1_1UnorderedMultisetAssociativeCategory.html" target="_top" xlink:title=" ">
<polygon fill="white" stroke="black" points="589,-175.5 589,-205.5 730,-205.5 730,-175.5 589,-175.5"/>
<text text-anchor="start" x="597" y="-193.5" font-family="FreeSans" font-size="10.00">DGtal::UnorderedMultiset</text>
<text text-anchor="middle" x="659.5" y="-182.5" font-family="FreeSans" font-size="10.00">AssociativeCategory</text>
</a>
</g>
</g>
<!-- Node3&#45;&gt;Node7 -->
<g id="edge6" class="edge">
<title>Node3&#45;&gt;Node7</title>
<path fill="none" stroke="midnightblue" d="M527.51,-273.78C529.75,-272.44 531.92,-271.02 534,-269.5 557.28,-252.48 546.68,-232.47 570,-215.5 575.68,-211.37 582.02,-207.92 588.63,-205.03"/>
<polygon fill="midnightblue" stroke="midnightblue" points="525.77,-270.74 518.54,-278.49 529.02,-276.93 525.77,-270.74"/>
</g>
<!-- Node8&#45;&gt;Node4 -->
<g id="edge9" class="edge">
<title>Node8&#45;&gt;Node4</title>
<path fill="none" stroke="midnightblue" d="M524.31,-263.83C527.67,-265.56 530.92,-267.45 534,-269.5 555.02,-283.52 548.8,-299.76 570,-313.5 575.34,-316.96 581.18,-319.93 587.22,-322.47"/>
<polygon fill="midnightblue" stroke="midnightblue" points="525.73,-260.63 515.19,-259.57 522.77,-266.97 525.73,-260.63"/>
</g>
<!-- Node8&#45;&gt;Node5 -->
<g id="edge10" class="edge">
<title>Node8&#45;&gt;Node5</title>
<path fill="none" stroke="midnightblue" d="M531.36,-261.61C549.87,-265.52 569.41,-269.65 587.47,-273.47"/>
<polygon fill="midnightblue" stroke="midnightblue" points="532.01,-258.16 521.5,-259.52 530.56,-265.01 532.01,-258.16"/>
</g>
<!-- Node9 -->
<g id="node9" class="node">
<title>Node9</title>
<g id="a_node9"><a xlink:href="structDGtal_1_1MapAssociativeCategory.html" target="_top" xlink:title=" ">
<polygon fill="white" stroke="black" points="573.5,-137 573.5,-156 745.5,-156 745.5,-137 573.5,-137"/>
<text text-anchor="middle" x="659.5" y="-144" font-family="FreeSans" font-size="10.00">DGtal::MapAssociativeCategory</text>
</a>
</g>
</g>
<!-- Node8&#45;&gt;Node9 -->
<g id="edge8" class="edge">
<title>Node8&#45;&gt;Node9</title>
<path fill="none" stroke="midnightblue" d="M526,-224.69C528.78,-223.09 531.46,-221.36 534,-219.5 556.97,-202.67 546.47,-182.54 570,-166.5 576.38,-162.15 583.56,-158.74 591,-156.06"/>
<polygon fill="midnightblue" stroke="midnightblue" points="524.14,-221.7 516.82,-229.37 527.32,-227.94 524.14,-221.7"/>
</g>
<!-- Node10 -->
<g id="node10" class="node">
<title>Node10</title>
<g id="a_node10"><a xlink:href="structDGtal_1_1SetAssociativeCategory.html" target="_top" xlink:title=" ">
<polygon fill="white" stroke="black" points="576,-99 576,-118 743,-118 743,-99 576,-99"/>
<text text-anchor="middle" x="659.5" y="-106" font-family="FreeSans" font-size="10.00">DGtal::SetAssociativeCategory</text>
</a>
</g>
</g>
<!-- Node8&#45;&gt;Node10 -->
<g id="edge11" class="edge">
<title>Node8&#45;&gt;Node10</title>
<path fill="none" stroke="midnightblue" d="M528.57,-223.95C530.47,-222.57 532.28,-221.08 534,-219.5 566.3,-189.75 536.55,-155.94 570,-127.5 574.43,-123.73 579.43,-120.66 584.74,-118.16"/>
<polygon fill="midnightblue" stroke="midnightblue" points="526.42,-221.17 519.83,-229.46 530.15,-227.1 526.42,-221.17"/>
</g>
<!-- Node11&#45;&gt;Node4 -->
<g id="edge14" class="edge">
<title>Node11&#45;&gt;Node4</title>
<path fill="none" stroke="midnightblue" d="M526.33,-214.84C529.04,-216.53 531.61,-218.41 534,-220.5 567.37,-249.67 537.07,-283.84 570,-313.5 573.9,-317.02 578.27,-320.02 582.92,-322.6"/>
<polygon fill="midnightblue" stroke="midnightblue" points="527.76,-211.64 517.29,-210.05 524.49,-217.82 527.76,-211.64"/>
</g>
<!-- Node11&#45;&gt;Node6 -->
<g id="edge16" class="edge">
<title>Node11&#45;&gt;Node6</title>
<path fill="none" stroke="midnightblue" d="M511.42,-211.92C534.57,-216.26 561.19,-221.25 585.36,-225.79"/>
<polygon fill="midnightblue" stroke="midnightblue" points="511.86,-208.44 501.38,-210.04 510.57,-215.32 511.86,-208.44"/>
</g>
<!-- Node11&#45;&gt;Node9 -->
<g id="edge13" class="edge">
<title>Node11&#45;&gt;Node9</title>
<path fill="none" stroke="midnightblue" d="M508.89,-188.56C517.38,-186.43 525.96,-184.07 534,-181.5 550.51,-176.22 553.49,-171.76 570,-166.5 582.61,-162.48 596.47,-158.95 609.41,-156.01"/>
<polygon fill="midnightblue" stroke="midnightblue" points="507.91,-185.19 499.01,-190.94 509.55,-192 507.91,-185.19"/>
</g>
<!-- Node12 -->
<g id="node12" class="node">
<title>Node12</title>
<g id="a_node12"><a xlink:href="structDGtal_1_1UnorderedMapAssociativeCategory.html" target="_top" xlink:title=" ">
<polygon fill="white" stroke="black" points="570,-49.5 570,-79.5 749,-79.5 749,-49.5 570,-49.5"/>
<text text-anchor="start" x="578" y="-67.5" font-family="FreeSans" font-size="10.00">DGtal::UnorderedMapAssociative</text>
<text text-anchor="middle" x="659.5" y="-56.5" font-family="FreeSans" font-size="10.00">Category</text>
</a>
</g>
</g>
<!-- Node11&#45;&gt;Node12 -->
<g id="edge15" class="edge">
<title>Node11&#45;&gt;Node12</title>
<path fill="none" stroke="midnightblue" d="M528.37,-185.77C530.33,-184.46 532.21,-183.04 534,-181.5 567.28,-152.85 537.47,-118.99 570,-89.5 574.26,-85.64 579.07,-82.37 584.19,-79.6"/>
<polygon fill="midnightblue" stroke="midnightblue" points="526.32,-182.9 519.3,-190.84 529.74,-189.01 526.32,-182.9"/>
</g>
<!-- Node13&#45;&gt;Node5 -->
<g id="edge18" class="edge">
<title>Node13&#45;&gt;Node5</title>
<path fill="none" stroke="midnightblue" d="M528.5,-177.13C530.41,-178.49 532.25,-179.95 534,-181.5 564.06,-208.2 539.59,-238.19 570,-264.5 574.82,-268.67 580.29,-272.12 586.09,-274.97"/>
<polygon fill="midnightblue" stroke="midnightblue" points="530.03,-173.96 519.67,-171.7 526.36,-179.92 530.03,-173.96"/>
</g>
<!-- Node13&#45;&gt;Node7 -->
<g id="edge20" class="edge">
<title>Node13&#45;&gt;Node7</title>
<path fill="none" stroke="midnightblue" d="M529.8,-169.46C549.23,-172.64 569.89,-176.02 588.83,-179.11"/>
<polygon fill="midnightblue" stroke="midnightblue" points="530.19,-165.98 519.76,-167.82 529.07,-172.89 530.19,-165.98"/>
</g>
<!-- Node13&#45;&gt;Node10 -->
<g id="edge19" class="edge">
<title>Node13&#45;&gt;Node10</title>
<path fill="none" stroke="midnightblue" d="M521.08,-139.04C537.14,-135.16 554.14,-131.13 570,-127.5 583.94,-124.31 599.15,-120.99 612.97,-118.03"/>
<polygon fill="midnightblue" stroke="midnightblue" points="520.11,-135.68 511.22,-141.43 521.76,-142.48 520.11,-135.68"/>
</g>
<!-- Node14 -->
<g id="node14" class="node">
<title>Node14</title>
<g id="a_node14"><a xlink:href="structDGtal_1_1UnorderedSetAssociativeCategory.html" target="_top" xlink:title=" ">
<polygon fill="white" stroke="black" points="573,-0.5 573,-30.5 746,-30.5 746,-0.5 573,-0.5"/>
<text text-anchor="start" x="581" y="-18.5" font-family="FreeSans" font-size="10.00">DGtal::UnorderedSetAssociative</text>
<text text-anchor="middle" x="659.5" y="-7.5" font-family="FreeSans" font-size="10.00">Category</text>
</a>
</g>
</g>
<!-- Node13&#45;&gt;Node14 -->
<g id="edge21" class="edge">
<title>Node13&#45;&gt;Node14</title>
<path fill="none" stroke="midnightblue" d="M528.57,-136.91C530.47,-135.54 532.28,-134.07 534,-132.5 566.71,-102.59 537.07,-69.16 570,-39.5 573.79,-36.09 578.01,-33.16 582.5,-30.64"/>
<polygon fill="midnightblue" stroke="midnightblue" points="526.48,-134.1 519.82,-142.34 530.17,-140.04 526.48,-134.1"/>
</g>
<!-- Node15&#45;&gt;Node9 -->
<g id="edge23" class="edge">
<title>Node15&#45;&gt;Node9</title>
<path fill="none" stroke="midnightblue" d="M524.31,-77.83C527.67,-79.56 530.92,-81.45 534,-83.5 555.02,-97.52 548.44,-114.33 570,-127.5 576.3,-131.35 583.28,-134.43 590.46,-136.88"/>
<polygon fill="midnightblue" stroke="midnightblue" points="525.73,-74.63 515.19,-73.57 522.77,-80.97 525.73,-74.63"/>
</g>
<!-- Node15&#45;&gt;Node10 -->
<g id="edge24" class="edge">
<title>Node15&#45;&gt;Node10</title>
<path fill="none" stroke="midnightblue" d="M516.63,-76.19C533.96,-80.68 552.65,-85.39 570,-89.5 583.61,-92.72 598.45,-96 612.03,-98.91"/>
<polygon fill="midnightblue" stroke="midnightblue" points="517.17,-72.71 506.61,-73.58 515.41,-79.49 517.17,-72.71"/>
</g>
<!-- Node15&#45;&gt;Node12 -->
<g id="edge25" class="edge">
<title>Node15&#45;&gt;Node12</title>
<path fill="none" stroke="midnightblue" d="M530.29,-60.8C543.21,-61.17 556.66,-61.56 569.78,-61.94"/>
<polygon fill="midnightblue" stroke="midnightblue" points="530.15,-57.3 520.05,-60.51 529.95,-64.29 530.15,-57.3"/>
</g>
<!-- Node15&#45;&gt;Node14 -->
<g id="edge26" class="edge">
<title>Node15&#45;&gt;Node14</title>
<path fill="none" stroke="midnightblue" d="M529.85,-42.1C548.24,-38.29 567.72,-34.27 585.81,-30.53"/>
<polygon fill="midnightblue" stroke="midnightblue" points="529.13,-38.67 520.05,-44.12 530.55,-45.52 529.13,-38.67"/>
</g>
<!-- Node16&#45;&gt;Node6 -->
<g id="edge29" class="edge">
<title>Node16&#45;&gt;Node6</title>
<path fill="none" stroke="midnightblue" d="M528.5,-128.13C530.41,-129.49 532.25,-130.95 534,-132.5 564.06,-159.2 539.59,-189.19 570,-215.5 574.58,-219.46 579.74,-222.77 585.22,-225.54"/>
<polygon fill="midnightblue" stroke="midnightblue" points="530.03,-124.96 519.67,-122.7 526.36,-130.92 530.03,-124.96"/>
</g>
<!-- Node16&#45;&gt;Node7 -->
<g id="edge30" class="edge">
<title>Node16&#45;&gt;Node7</title>
<path fill="none" stroke="midnightblue" d="M521.82,-126.41C526.03,-128.27 530.12,-130.3 534,-132.5 552.87,-143.22 551.04,-154.93 570,-165.5 576.83,-169.31 584.29,-172.58 591.89,-175.37"/>
<polygon fill="midnightblue" stroke="midnightblue" points="523.05,-123.13 512.47,-122.59 520.4,-129.61 523.05,-123.13"/>
</g>
<!-- Node16&#45;&gt;Node12 -->
<g id="edge28" class="edge">
<title>Node16&#45;&gt;Node12</title>
<path fill="none" stroke="midnightblue" d="M533.35,-90.37C550.69,-86.79 568.85,-83.03 585.79,-79.53"/>
<polygon fill="midnightblue" stroke="midnightblue" points="532.33,-87.01 523.25,-92.46 533.75,-93.86 532.33,-87.01"/>
</g>
<!-- Node16&#45;&gt;Node14 -->
<g id="edge31" class="edge">
<title>Node16&#45;&gt;Node14</title>
<path fill="none" stroke="midnightblue" d="M526.45,-87.98C529.05,-86.59 531.58,-85.09 534,-83.5 555.1,-69.6 548.8,-53.24 570,-39.5 575.34,-36.04 581.18,-33.07 587.22,-30.53"/>
<polygon fill="midnightblue" stroke="midnightblue" points="524.84,-84.87 517.33,-92.35 527.86,-91.18 524.84,-84.87"/>
</g>
</g>
</svg>
