<?xml version="1.0" encoding="UTF-8" standalone="no"?>
<!DOCTYPE svg PUBLIC "-//W3C//DTD SVG 1.1//EN"
 "http://www.w3.org/Graphics/SVG/1.1/DTD/svg11.dtd">
<!-- Generated by graphviz version 2.43.0 (0)
 -->
<!-- Title: DGtal::concepts::CMatrix&lt; T &gt; Pages: 1 -->
<svg width="748pt" height="176pt"
 viewBox="0.00 0.00 748.00 175.50" xmlns="http://www.w3.org/2000/svg" xmlns:xlink="http://www.w3.org/1999/xlink">
<g id="graph0" class="graph" transform="scale(1 1) rotate(0) translate(4 171.5)">
<title>DGtal::concepts::CMatrix&lt; T &gt;</title>
<polygon fill="white" stroke="transparent" points="-4,4 -4,-171.5 744,-171.5 744,4 -4,4"/>
<!-- Node1 -->
<g id="node1" class="node">
<title>Node1</title>
<g id="a_node1"><a xlink:title="Aim: Represent any static or dynamic sized matrix having sparse or dense representation.">
<polygon fill="#bfbfbf" stroke="black" points="340,-79 340,-98 507,-98 507,-79 340,-79"/>
<text text-anchor="middle" x="423.5" y="-86" font-family="FreeSans" font-size="10.00">DGtal::concepts::CMatrix&lt; T &gt;</text>
</a>
</g>
</g>
<!-- Node4 -->
<g id="node4" class="node">
<title>Node4</title>
<g id="a_node4"><a xlink:href="structDGtal_1_1concepts_1_1CDenseMatrix.html" target="_top" xlink:title="Aim: Represent any dynamic or static sized matrix having dense representation.">
<polygon fill="white" stroke="black" points="543,-148 543,-167 740,-167 740,-148 543,-148"/>
<text text-anchor="middle" x="641.5" y="-155" font-family="FreeSans" font-size="10.00">DGtal::concepts::CDenseMatrix&lt; T &gt;</text>
</a>
</g>
</g>
<!-- Node1&#45;&gt;Node4 -->
<g id="edge3" class="edge">
<title>Node1&#45;&gt;Node4</title>
<path fill="none" stroke="midnightblue" d="M452.84,-102.42C476.47,-113.55 511.27,-128.83 543,-138.5 555.21,-142.22 568.5,-145.38 581.24,-147.99"/>
<polygon fill="midnightblue" stroke="midnightblue" points="454.28,-99.23 443.75,-98.09 451.27,-105.55 454.28,-99.23"/>
</g>
<!-- Node5 -->
<g id="node5" class="node">
<title>Node5</title>
<g id="a_node5"><a xlink:href="structDGtal_1_1concepts_1_1CDynamicMatrix.html" target="_top" xlink:title="Aim: Represent any dynamic sized matrix having sparse or dense representation.">
<polygon fill="white" stroke="black" points="566.5,-98.5 566.5,-128.5 716.5,-128.5 716.5,-98.5 566.5,-98.5"/>
<text text-anchor="start" x="574.5" y="-116.5" font-family="FreeSans" font-size="10.00">DGtal::concepts::CDynamic</text>
<text text-anchor="middle" x="641.5" y="-105.5" font-family="FreeSans" font-size="10.00">Matrix&lt; T &gt;</text>
</a>
</g>
</g>
<!-- Node1&#45;&gt;Node5 -->
<g id="edge4" class="edge">
<title>Node1&#45;&gt;Node5</title>
<path fill="none" stroke="midnightblue" d="M516.95,-99.2C533.41,-101.11 550.37,-103.07 566.25,-104.91"/>
<polygon fill="midnightblue" stroke="midnightblue" points="517.11,-95.7 506.78,-98.02 516.31,-102.65 517.11,-95.7"/>
</g>
<!-- Node6 -->
<g id="node6" class="node">
<title>Node6</title>
<g id="a_node6"><a xlink:href="structDGtal_1_1concepts_1_1CSparseMatrix.html" target="_top" xlink:title="Aim: Represent any dynamic or static sized matrix having sparse representation.">
<polygon fill="white" stroke="black" points="564,-49.5 564,-79.5 719,-79.5 719,-49.5 564,-49.5"/>
<text text-anchor="start" x="572" y="-67.5" font-family="FreeSans" font-size="10.00">DGtal::concepts::CSparse</text>
<text text-anchor="middle" x="641.5" y="-56.5" font-family="FreeSans" font-size="10.00">Matrix&lt; T, TripletInterator &gt;</text>
</a>
</g>
</g>
<!-- Node1&#45;&gt;Node6 -->
<g id="edge5" class="edge">
<title>Node1&#45;&gt;Node6</title>
<path fill="none" stroke="midnightblue" d="M517.25,-78.19C532.85,-76.46 548.87,-74.68 563.99,-73"/>
<polygon fill="midnightblue" stroke="midnightblue" points="516.64,-74.74 507.08,-79.32 517.41,-81.7 516.64,-74.74"/>
</g>
<!-- Node7 -->
<g id="node7" class="node">
<title>Node7</title>
<g id="a_node7"><a xlink:href="structDGtal_1_1concepts_1_1CStaticMatrix.html" target="_top" xlink:title="Aim: Represent any static sized matrix having sparse or dense representation.">
<polygon fill="white" stroke="black" points="574.5,-0.5 574.5,-30.5 708.5,-30.5 708.5,-0.5 574.5,-0.5"/>
<text text-anchor="start" x="582.5" y="-18.5" font-family="FreeSans" font-size="10.00">DGtal::concepts::CStatic</text>
<text text-anchor="middle" x="641.5" y="-7.5" font-family="FreeSans" font-size="10.00">Matrix&lt; T &gt;</text>
</a>
</g>
</g>
<!-- Node1&#45;&gt;Node7 -->
<g id="edge6" class="edge">
<title>Node1&#45;&gt;Node7</title>
<path fill="none" stroke="midnightblue" d="M454.28,-74.72C477.96,-64.12 512.14,-49.62 543,-39.5 553.02,-36.22 563.75,-33.14 574.3,-30.37"/>
<polygon fill="midnightblue" stroke="midnightblue" points="452.79,-71.55 445.12,-78.86 455.67,-77.93 452.79,-71.55"/>
</g>
<!-- Node2 -->
<g id="node2" class="node">
<title>Node2</title>
<g id="a_node2"><a xlink:href="structDGtal_1_1concepts_1_1CVectorSpace.html" target="_top" xlink:title="Aim: Base concept for vector space structure.">
<polygon fill="white" stroke="black" points="167,-73.5 167,-103.5 304,-103.5 304,-73.5 167,-73.5"/>
<text text-anchor="start" x="175" y="-91.5" font-family="FreeSans" font-size="10.00">DGtal::concepts::CVector</text>
<text text-anchor="middle" x="235.5" y="-80.5" font-family="FreeSans" font-size="10.00">Space&lt; T &gt;</text>
</a>
</g>
</g>
<!-- Node2&#45;&gt;Node1 -->
<g id="edge1" class="edge">
<title>Node2&#45;&gt;Node1</title>
<path fill="none" stroke="midnightblue" d="M314.39,-88.5C322.85,-88.5 331.48,-88.5 339.99,-88.5"/>
<polygon fill="midnightblue" stroke="midnightblue" points="314.18,-85 304.18,-88.5 314.18,-92 314.18,-85"/>
</g>
<!-- Node3 -->
<g id="node3" class="node">
<title>Node3</title>
<g id="a_node3"><a xlink:href="structboost_1_1Assignable.html" target="_top" xlink:title="Go to http://www.sgi.com/tech/stl/Assignable.html.">
<polygon fill="white" stroke="black" points="0,-79 0,-98 131,-98 131,-79 0,-79"/>
<text text-anchor="middle" x="65.5" y="-86" font-family="FreeSans" font-size="10.00">boost::Assignable&lt; T &gt;</text>
</a>
</g>
</g>
<!-- Node3&#45;&gt;Node2 -->
<g id="edge2" class="edge">
<title>Node3&#45;&gt;Node2</title>
<path fill="none" stroke="midnightblue" d="M141.65,-88.5C150.07,-88.5 158.62,-88.5 166.94,-88.5"/>
<polygon fill="midnightblue" stroke="midnightblue" points="141.45,-85 131.45,-88.5 141.45,-92 141.45,-85"/>
</g>
</g>
</svg>
