<?xml version="1.0" encoding="UTF-8" standalone="no"?>
<!DOCTYPE svg PUBLIC "-//W3C//DTD SVG 1.1//EN"
 "http://www.w3.org/Graphics/SVG/1.1/DTD/svg11.dtd">
<!-- Generated by graphviz version 2.43.0 (0)
 -->
<!-- Title: DGtal::concepts::CVectorSpace&lt; T &gt; Pages: 1 -->
<svg width="766pt" height="313pt"
 viewBox="0.00 0.00 766.00 312.50" xmlns="http://www.w3.org/2000/svg" xmlns:xlink="http://www.w3.org/1999/xlink">
<g id="graph0" class="graph" transform="scale(1 1) rotate(0) translate(4 308.5)">
<title>DGtal::concepts::CVectorSpace&lt; T &gt;</title>
<polygon fill="white" stroke="transparent" points="-4,4 -4,-308.5 762,-308.5 762,4 -4,4"/>
<!-- Node1 -->
<g id="node1" class="node">
<title>Node1</title>
<g id="a_node1"><a xlink:title="Aim: Base concept for vector space structure.">
<polygon fill="#bfbfbf" stroke="black" points="167,-186.5 167,-216.5 304,-216.5 304,-186.5 167,-186.5"/>
<text text-anchor="start" x="175" y="-204.5" font-family="FreeSans" font-size="10.00">DGtal::concepts::CVector</text>
<text text-anchor="middle" x="235.5" y="-193.5" font-family="FreeSans" font-size="10.00">Space&lt; T &gt;</text>
</a>
</g>
</g>
<!-- Node3 -->
<g id="node3" class="node">
<title>Node3</title>
<g id="a_node3"><a xlink:href="structDGtal_1_1concepts_1_1CDiscreteExteriorCalculusVectorSpace.html" target="_top" xlink:title="Aim: Lift linear algebra container concept into the dec package.">
<polygon fill="white" stroke="black" points="340,-230.5 340,-260.5 525,-260.5 525,-230.5 340,-230.5"/>
<text text-anchor="start" x="348" y="-248.5" font-family="FreeSans" font-size="10.00">DGtal::concepts::CDiscrete</text>
<text text-anchor="middle" x="432.5" y="-237.5" font-family="FreeSans" font-size="10.00">ExteriorCalculusVectorSpace&lt; T &gt;</text>
</a>
</g>
</g>
<!-- Node1&#45;&gt;Node3 -->
<g id="edge2" class="edge">
<title>Node1&#45;&gt;Node3</title>
<path fill="none" stroke="midnightblue" d="M313.03,-218.77C330.17,-222.64 348.21,-226.71 364.91,-230.47"/>
<polygon fill="midnightblue" stroke="midnightblue" points="313.59,-215.31 303.06,-216.52 312.05,-222.13 313.59,-215.31"/>
</g>
<!-- Node4 -->
<g id="node4" class="node">
<title>Node4</title>
<g id="a_node4"><a xlink:href="structDGtal_1_1concepts_1_1CMatrix.html" target="_top" xlink:title="Aim: Represent any static or dynamic sized matrix having sparse or dense representation.">
<polygon fill="white" stroke="black" points="349,-192 349,-211 516,-211 516,-192 349,-192"/>
<text text-anchor="middle" x="432.5" y="-199" font-family="FreeSans" font-size="10.00">DGtal::concepts::CMatrix&lt; T &gt;</text>
</a>
</g>
</g>
<!-- Node1&#45;&gt;Node4 -->
<g id="edge3" class="edge">
<title>Node1&#45;&gt;Node4</title>
<path fill="none" stroke="midnightblue" d="M314.43,-201.5C325.74,-201.5 337.43,-201.5 348.84,-201.5"/>
<polygon fill="midnightblue" stroke="midnightblue" points="314.15,-198 304.15,-201.5 314.15,-205 314.15,-198"/>
</g>
<!-- Node9 -->
<g id="node9" class="node">
<title>Node9</title>
<g id="a_node9"><a xlink:href="structDGtal_1_1concepts_1_1CVector.html" target="_top" xlink:title="Aim: Represent any static or dynamic sized column vector having sparse or dense representation.">
<polygon fill="white" stroke="black" points="349.5,-77 349.5,-96 515.5,-96 515.5,-77 349.5,-77"/>
<text text-anchor="middle" x="432.5" y="-84" font-family="FreeSans" font-size="10.00">DGtal::concepts::CVector&lt; T &gt;</text>
</a>
</g>
</g>
<!-- Node1&#45;&gt;Node9 -->
<g id="edge8" class="edge">
<title>Node1&#45;&gt;Node9</title>
<path fill="none" stroke="midnightblue" d="M270.86,-181.24C313.33,-156.19 383.83,-114.61 415.38,-96.01"/>
<polygon fill="midnightblue" stroke="midnightblue" points="268.83,-178.37 261.99,-186.47 272.38,-184.4 268.83,-178.37"/>
</g>
<!-- Node2 -->
<g id="node2" class="node">
<title>Node2</title>
<g id="a_node2"><a xlink:href="structboost_1_1Assignable.html" target="_top" xlink:title="Go to http://www.sgi.com/tech/stl/Assignable.html.">
<polygon fill="white" stroke="black" points="0,-192 0,-211 131,-211 131,-192 0,-192"/>
<text text-anchor="middle" x="65.5" y="-199" font-family="FreeSans" font-size="10.00">boost::Assignable&lt; T &gt;</text>
</a>
</g>
</g>
<!-- Node2&#45;&gt;Node1 -->
<g id="edge1" class="edge">
<title>Node2&#45;&gt;Node1</title>
<path fill="none" stroke="midnightblue" d="M141.65,-201.5C150.07,-201.5 158.62,-201.5 166.94,-201.5"/>
<polygon fill="midnightblue" stroke="midnightblue" points="141.45,-198 131.45,-201.5 141.45,-205 141.45,-198"/>
</g>
<!-- Node5 -->
<g id="node5" class="node">
<title>Node5</title>
<g id="a_node5"><a xlink:href="structDGtal_1_1concepts_1_1CDenseMatrix.html" target="_top" xlink:title="Aim: Represent any dynamic or static sized matrix having dense representation.">
<polygon fill="white" stroke="black" points="561,-285 561,-304 758,-304 758,-285 561,-285"/>
<text text-anchor="middle" x="659.5" y="-292" font-family="FreeSans" font-size="10.00">DGtal::concepts::CDenseMatrix&lt; T &gt;</text>
</a>
</g>
</g>
<!-- Node4&#45;&gt;Node5 -->
<g id="edge4" class="edge">
<title>Node4&#45;&gt;Node5</title>
<path fill="none" stroke="midnightblue" d="M515.85,-215.14C519.03,-216.74 522.1,-218.52 525,-220.5 549.15,-236.95 536.75,-259.2 561,-275.5 566.72,-279.35 573.04,-282.46 579.62,-284.97"/>
<polygon fill="midnightblue" stroke="midnightblue" points="517.18,-211.9 506.61,-211.09 514.36,-218.31 517.18,-211.9"/>
</g>
<!-- Node6 -->
<g id="node6" class="node">
<title>Node6</title>
<g id="a_node6"><a xlink:href="structDGtal_1_1concepts_1_1CDynamicMatrix.html" target="_top" xlink:title="Aim: Represent any dynamic sized matrix having sparse or dense representation.">
<polygon fill="white" stroke="black" points="584.5,-235.5 584.5,-265.5 734.5,-265.5 734.5,-235.5 584.5,-235.5"/>
<text text-anchor="start" x="592.5" y="-253.5" font-family="FreeSans" font-size="10.00">DGtal::concepts::CDynamic</text>
<text text-anchor="middle" x="659.5" y="-242.5" font-family="FreeSans" font-size="10.00">Matrix&lt; T &gt;</text>
</a>
</g>
</g>
<!-- Node4&#45;&gt;Node6 -->
<g id="edge5" class="edge">
<title>Node4&#45;&gt;Node6</title>
<path fill="none" stroke="midnightblue" d="M490.07,-213.1C501.64,-215.51 513.72,-218.06 525,-220.5 547.06,-225.27 571.13,-230.63 592.68,-235.49"/>
<polygon fill="midnightblue" stroke="midnightblue" points="490.58,-209.63 480.08,-211.02 489.16,-216.48 490.58,-209.63"/>
</g>
<!-- Node7 -->
<g id="node7" class="node">
<title>Node7</title>
<g id="a_node7"><a xlink:href="structDGtal_1_1concepts_1_1CSparseMatrix.html" target="_top" xlink:title="Aim: Represent any dynamic or static sized matrix having sparse representation.">
<polygon fill="white" stroke="black" points="582,-186.5 582,-216.5 737,-216.5 737,-186.5 582,-186.5"/>
<text text-anchor="start" x="590" y="-204.5" font-family="FreeSans" font-size="10.00">DGtal::concepts::CSparse</text>
<text text-anchor="middle" x="659.5" y="-193.5" font-family="FreeSans" font-size="10.00">Matrix&lt; T, TripletInterator &gt;</text>
</a>
</g>
</g>
<!-- Node4&#45;&gt;Node7 -->
<g id="edge6" class="edge">
<title>Node4&#45;&gt;Node7</title>
<path fill="none" stroke="midnightblue" d="M526.22,-201.5C544.77,-201.5 564.06,-201.5 581.98,-201.5"/>
<polygon fill="midnightblue" stroke="midnightblue" points="526,-198 516,-201.5 526,-205 526,-198"/>
</g>
<!-- Node8 -->
<g id="node8" class="node">
<title>Node8</title>
<g id="a_node8"><a xlink:href="structDGtal_1_1concepts_1_1CStaticMatrix.html" target="_top" xlink:title="Aim: Represent any static sized matrix having sparse or dense representation.">
<polygon fill="white" stroke="black" points="592.5,-137.5 592.5,-167.5 726.5,-167.5 726.5,-137.5 592.5,-137.5"/>
<text text-anchor="start" x="600.5" y="-155.5" font-family="FreeSans" font-size="10.00">DGtal::concepts::CStatic</text>
<text text-anchor="middle" x="659.5" y="-144.5" font-family="FreeSans" font-size="10.00">Matrix&lt; T &gt;</text>
</a>
</g>
</g>
<!-- Node4&#45;&gt;Node8 -->
<g id="edge7" class="edge">
<title>Node4&#45;&gt;Node8</title>
<path fill="none" stroke="midnightblue" d="M487.08,-189.83C518.64,-182.96 558.83,-174.21 592.36,-166.9"/>
<polygon fill="midnightblue" stroke="midnightblue" points="486.18,-186.45 477.15,-191.99 487.66,-193.29 486.18,-186.45"/>
</g>
<!-- Node10 -->
<g id="node10" class="node">
<title>Node10</title>
<g id="a_node10"><a xlink:href="structDGtal_1_1concepts_1_1CDenseVector.html" target="_top" xlink:title="Aim: Represent any dynamic or static sized matrix having dense representation.">
<polygon fill="white" stroke="black" points="561,-99 561,-118 758,-118 758,-99 561,-99"/>
<text text-anchor="middle" x="659.5" y="-106" font-family="FreeSans" font-size="10.00">DGtal::concepts::CDenseVector&lt; T &gt;</text>
</a>
</g>
</g>
<!-- Node9&#45;&gt;Node10 -->
<g id="edge9" class="edge">
<title>Node9&#45;&gt;Node10</title>
<path fill="none" stroke="midnightblue" d="M525.86,-95.53C537.53,-96.67 549.51,-97.84 561.26,-98.99"/>
<polygon fill="midnightblue" stroke="midnightblue" points="525.98,-92.03 515.69,-94.54 525.3,-98.99 525.98,-92.03"/>
</g>
<!-- Node11 -->
<g id="node11" class="node">
<title>Node11</title>
<g id="a_node11"><a xlink:href="structDGtal_1_1concepts_1_1CDynamicVector.html" target="_top" xlink:title="Aim: Represent any dynamic sized column vector having sparse or dense representation.">
<polygon fill="white" stroke="black" points="584.5,-49.5 584.5,-79.5 734.5,-79.5 734.5,-49.5 584.5,-49.5"/>
<text text-anchor="start" x="592.5" y="-67.5" font-family="FreeSans" font-size="10.00">DGtal::concepts::CDynamic</text>
<text text-anchor="middle" x="659.5" y="-56.5" font-family="FreeSans" font-size="10.00">Vector&lt; T &gt;</text>
</a>
</g>
</g>
<!-- Node9&#45;&gt;Node11 -->
<g id="edge10" class="edge">
<title>Node9&#45;&gt;Node11</title>
<path fill="none" stroke="midnightblue" d="M525.79,-77.48C545.3,-75.57 565.64,-73.58 584.36,-71.75"/>
<polygon fill="midnightblue" stroke="midnightblue" points="525.3,-74.01 515.69,-78.46 525.98,-80.97 525.3,-74.01"/>
</g>
<!-- Node12 -->
<g id="node12" class="node">
<title>Node12</title>
<g id="a_node12"><a xlink:href="structDGtal_1_1concepts_1_1CStaticVector.html" target="_top" xlink:title="Aim: Represent any static sized column vector having sparse or dense representation.">
<polygon fill="white" stroke="black" points="592.5,-0.5 592.5,-30.5 726.5,-30.5 726.5,-0.5 592.5,-0.5"/>
<text text-anchor="start" x="600.5" y="-18.5" font-family="FreeSans" font-size="10.00">DGtal::concepts::CStatic</text>
<text text-anchor="middle" x="659.5" y="-7.5" font-family="FreeSans" font-size="10.00">Vector&lt; T &gt;</text>
</a>
</g>
</g>
<!-- Node9&#45;&gt;Node12 -->
<g id="edge11" class="edge">
<title>Node9&#45;&gt;Node12</title>
<path fill="none" stroke="midnightblue" d="M466.76,-73.08C492.29,-63.06 528.54,-49.44 561,-39.5 571.33,-36.33 582.38,-33.29 593.19,-30.5"/>
<polygon fill="midnightblue" stroke="midnightblue" points="465.21,-69.93 457.2,-76.86 467.78,-76.44 465.21,-69.93"/>
</g>
</g>
</svg>
