<?xml version="1.0" encoding="UTF-8" standalone="no"?>
<!DOCTYPE svg PUBLIC "-//W3C//DTD SVG 1.1//EN"
 "http://www.w3.org/Graphics/SVG/1.1/DTD/svg11.dtd">
<!-- Generated by graphviz version 2.43.0 (0)
 -->
<!-- Title: DGtal::concepts::CSTLAssociativeContainer&lt; T &gt; Pages: 1 -->
<svg width="370pt" height="163pt"
 viewBox="0.00 0.00 370.00 163.00" xmlns="http://www.w3.org/2000/svg" xmlns:xlink="http://www.w3.org/1999/xlink">
<g id="graph0" class="graph" transform="scale(1 1) rotate(0) translate(4 159)">
<title>DGtal::concepts::CSTLAssociativeContainer&lt; T &gt;</title>
<polygon fill="white" stroke="transparent" points="-4,4 -4,-159 366,-159 366,4 -4,4"/>
<!-- Node1 -->
<g id="node1" class="node">
<title>Node1</title>
<g id="a_node1"><a xlink:title="Aim: Defines the concept describing an Associative Container of the STL (https://www....">
<polygon fill="#bfbfbf" stroke="black" points="87,-0.5 87,-30.5 268,-30.5 268,-0.5 87,-0.5"/>
<text text-anchor="start" x="95" y="-18.5" font-family="FreeSans" font-size="10.00">DGtal::concepts::CSTLAssociative</text>
<text text-anchor="middle" x="177.5" y="-7.5" font-family="FreeSans" font-size="10.00">Container&lt; T &gt;</text>
</a>
</g>
</g>
<!-- Node2 -->
<g id="node2" class="node">
<title>Node2</title>
<g id="a_node2"><a xlink:href="structboost_1_1ForwardContainer.html" target="_top" xlink:title=" ">
<polygon fill="white" stroke="black" points="0.5,-68.5 0.5,-87.5 164.5,-87.5 164.5,-68.5 0.5,-68.5"/>
<text text-anchor="middle" x="82.5" y="-75.5" font-family="FreeSans" font-size="10.00">boost::ForwardContainer&lt; T &gt;</text>
</a>
</g>
</g>
<!-- Node2&#45;&gt;Node1 -->
<g id="edge1" class="edge">
<title>Node2&#45;&gt;Node1</title>
<path fill="none" stroke="midnightblue" d="M104.9,-62.73C120.17,-53.01 140.29,-40.2 155.48,-30.53"/>
<polygon fill="midnightblue" stroke="midnightblue" points="102.67,-60.01 96.11,-68.33 106.43,-65.91 102.67,-60.01"/>
</g>
<!-- Node3 -->
<g id="node3" class="node">
<title>Node3</title>
<g id="a_node3"><a xlink:href="structboost_1_1ForwardContainer.html" target="_top" xlink:title="Go to http://www.sgi.com/tech/stl/ForwardContainer.html.">
<polygon fill="white" stroke="black" points="0,-135.5 0,-154.5 165,-154.5 165,-135.5 0,-135.5"/>
<text text-anchor="middle" x="82.5" y="-142.5" font-family="FreeSans" font-size="10.00">boost::ForwardContainer&lt; C &gt;</text>
</a>
</g>
</g>
<!-- Node3&#45;&gt;Node2 -->
<g id="edge2" class="edge">
<title>Node3&#45;&gt;Node2</title>
<path fill="none" stroke="orange" stroke-dasharray="5,2" d="M82.5,-125.04C82.5,-112.67 82.5,-97.12 82.5,-87.63"/>
<polygon fill="orange" stroke="orange" points="79,-125.23 82.5,-135.23 86,-125.23 79,-125.23"/>
<text text-anchor="middle" x="98.5" y="-109" font-family="FreeSans" font-size="10.00"> &lt; T &gt;</text>
</g>
<!-- Node4 -->
<g id="node4" class="node">
<title>Node4</title>
<g id="a_node4"><a xlink:href="structboost_1_1DefaultConstructible.html" target="_top" xlink:title="Go to http://www.sgi.com/tech/stl/DefaultConstructible.html.">
<polygon fill="white" stroke="black" points="183,-68.5 183,-87.5 362,-87.5 362,-68.5 183,-68.5"/>
<text text-anchor="middle" x="272.5" y="-75.5" font-family="FreeSans" font-size="10.00">boost::DefaultConstructible&lt; T &gt;</text>
</a>
</g>
</g>
<!-- Node4&#45;&gt;Node1 -->
<g id="edge3" class="edge">
<title>Node4&#45;&gt;Node1</title>
<path fill="none" stroke="midnightblue" d="M250.1,-62.73C234.83,-53.01 214.71,-40.2 199.52,-30.53"/>
<polygon fill="midnightblue" stroke="midnightblue" points="248.57,-65.91 258.89,-68.33 252.33,-60.01 248.57,-65.91"/>
</g>
</g>
</svg>
