<?xml version="1.0" encoding="UTF-8" standalone="no"?>
<!DOCTYPE svg PUBLIC "-//W3C//DTD SVG 1.1//EN"
 "http://www.w3.org/Graphics/SVG/1.1/DTD/svg11.dtd">
<!-- Generated by graphviz version 2.43.0 (0)
 -->
<!-- Title: DGtal::concepts::CLabel&lt; T &gt; Pages: 1 -->
<svg width="1390pt" height="176pt"
 viewBox="0.00 0.00 1390.00 176.00" xmlns="http://www.w3.org/2000/svg" xmlns:xlink="http://www.w3.org/1999/xlink">
<g id="graph0" class="graph" transform="scale(1 1) rotate(0) translate(4 172)">
<title>DGtal::concepts::CLabel&lt; T &gt;</title>
<polygon fill="white" stroke="transparent" points="-4,4 -4,-172 1386,-172 1386,4 -4,4"/>
<!-- Node1 -->
<g id="node1" class="node">
<title>Node1</title>
<g id="a_node1"><a xlink:title="Aim: Define the concept of DGtal labels. Models of CLabel can be default&#45;constructible,...">
<polygon fill="#bfbfbf" stroke="black" points="215,-77 215,-96 376,-96 376,-77 215,-77"/>
<text text-anchor="middle" x="295.5" y="-84" font-family="FreeSans" font-size="10.00">DGtal::concepts::CLabel&lt; T &gt;</text>
</a>
</g>
</g>
<!-- Node5 -->
<g id="node5" class="node">
<title>Node5</title>
<g id="a_node5"><a xlink:href="structDGtal_1_1concepts_1_1CQuantity.html" target="_top" xlink:title="Aim: defines the concept of quantity in DGtal.">
<polygon fill="white" stroke="black" points="412,-77 412,-96 589,-96 589,-77 412,-77"/>
<text text-anchor="middle" x="500.5" y="-84" font-family="FreeSans" font-size="10.00">DGtal::concepts::CQuantity&lt; T &gt;</text>
</a>
</g>
</g>
<!-- Node1&#45;&gt;Node5 -->
<g id="edge4" class="edge">
<title>Node1&#45;&gt;Node5</title>
<path fill="none" stroke="midnightblue" d="M386.35,-86.5C394.77,-86.5 403.29,-86.5 411.69,-86.5"/>
<polygon fill="midnightblue" stroke="midnightblue" points="386.15,-83 376.15,-86.5 386.15,-90 386.15,-83"/>
</g>
<!-- Node2 -->
<g id="node2" class="node">
<title>Node2</title>
<g id="a_node2"><a xlink:href="structboost_1_1DefaultConstructible.html" target="_top" xlink:title="Go to http://www.sgi.com/tech/stl/DefaultConstructible.html.">
<polygon fill="white" stroke="black" points="0,-115 0,-134 179,-134 179,-115 0,-115"/>
<text text-anchor="middle" x="89.5" y="-122" font-family="FreeSans" font-size="10.00">boost::DefaultConstructible&lt; T &gt;</text>
</a>
</g>
</g>
<!-- Node2&#45;&gt;Node1 -->
<g id="edge1" class="edge">
<title>Node2&#45;&gt;Node1</title>
<path fill="none" stroke="midnightblue" d="M151.8,-113.08C180.99,-107.64 215.49,-101.22 243.26,-96.04"/>
<polygon fill="midnightblue" stroke="midnightblue" points="150.9,-109.69 141.71,-114.96 152.19,-116.57 150.9,-109.69"/>
</g>
<!-- Node3 -->
<g id="node3" class="node">
<title>Node3</title>
<g id="a_node3"><a xlink:href="structboost_1_1Assignable.html" target="_top" xlink:title="Go to http://www.sgi.com/tech/stl/Assignable.html.">
<polygon fill="white" stroke="black" points="24,-77 24,-96 155,-96 155,-77 24,-77"/>
<text text-anchor="middle" x="89.5" y="-84" font-family="FreeSans" font-size="10.00">boost::Assignable&lt; T &gt;</text>
</a>
</g>
</g>
<!-- Node3&#45;&gt;Node1 -->
<g id="edge2" class="edge">
<title>Node3&#45;&gt;Node1</title>
<path fill="none" stroke="midnightblue" d="M165.48,-86.5C181.6,-86.5 198.69,-86.5 214.97,-86.5"/>
<polygon fill="midnightblue" stroke="midnightblue" points="165.05,-83 155.05,-86.5 165.05,-90 165.05,-83"/>
</g>
<!-- Node4 -->
<g id="node4" class="node">
<title>Node4</title>
<g id="a_node4"><a xlink:href="structboost_1_1EqualityComparable.html" target="_top" xlink:title="Go to http://www.sgi.com/tech/stl/EqualityComparable.html.">
<polygon fill="white" stroke="black" points="1,-39 1,-58 178,-58 178,-39 1,-39"/>
<text text-anchor="middle" x="89.5" y="-46" font-family="FreeSans" font-size="10.00">boost::EqualityComparable&lt; T &gt;</text>
</a>
</g>
</g>
<!-- Node4&#45;&gt;Node1 -->
<g id="edge3" class="edge">
<title>Node4&#45;&gt;Node1</title>
<path fill="none" stroke="midnightblue" d="M151.8,-59.92C180.99,-65.36 215.49,-71.78 243.26,-76.96"/>
<polygon fill="midnightblue" stroke="midnightblue" points="152.19,-56.43 141.71,-58.04 150.9,-63.31 152.19,-56.43"/>
</g>
<!-- Node6 -->
<g id="node6" class="node">
<title>Node6</title>
<g id="a_node6"><a xlink:href="structDGtal_1_1concepts_1_1CBoundedNumber.html" target="_top" xlink:title="Aim: The concept CBoundedNumber specifies what are the bounded numbers. Models of this concept should...">
<polygon fill="white" stroke="black" points="626.5,-137.5 626.5,-167.5 775.5,-167.5 775.5,-137.5 626.5,-137.5"/>
<text text-anchor="start" x="634.5" y="-155.5" font-family="FreeSans" font-size="10.00">DGtal::concepts::CBounded</text>
<text text-anchor="middle" x="701" y="-144.5" font-family="FreeSans" font-size="10.00">Number&lt; T &gt;</text>
</a>
</g>
</g>
<!-- Node5&#45;&gt;Node6 -->
<g id="edge5" class="edge">
<title>Node5&#45;&gt;Node6</title>
<path fill="none" stroke="midnightblue" d="M540.05,-99.32C572.83,-110.22 619.95,-125.89 654.56,-137.39"/>
<polygon fill="midnightblue" stroke="midnightblue" points="540.96,-95.93 530.36,-96.1 538.75,-102.57 540.96,-95.93"/>
</g>
<!-- Node7 -->
<g id="node7" class="node">
<title>Node7</title>
<g id="a_node7"><a xlink:href="structDGtal_1_1concepts_1_1CIntegralNumber.html" target="_top" xlink:title="Aim: Concept checking for Integral Numbers. Models of this concept should be listed in NumberTraits c...">
<polygon fill="white" stroke="black" points="827.5,-95.5 827.5,-125.5 971.5,-125.5 971.5,-95.5 827.5,-95.5"/>
<text text-anchor="start" x="835.5" y="-113.5" font-family="FreeSans" font-size="10.00">DGtal::concepts::CIntegral</text>
<text text-anchor="middle" x="899.5" y="-102.5" font-family="FreeSans" font-size="10.00">Number&lt; T &gt;</text>
</a>
</g>
</g>
<!-- Node5&#45;&gt;Node7 -->
<g id="edge6" class="edge">
<title>Node5&#45;&gt;Node7</title>
<path fill="none" stroke="midnightblue" d="M599.36,-92.42C669.99,-96.69 763.74,-102.35 827.33,-106.2"/>
<polygon fill="midnightblue" stroke="midnightblue" points="599.31,-88.91 589.11,-91.8 598.89,-95.89 599.31,-88.91"/>
</g>
<!-- Node9 -->
<g id="node9" class="node">
<title>Node9</title>
<g id="a_node9"><a xlink:href="structDGtal_1_1concepts_1_1CSignedNumber.html" target="_top" xlink:title="Aim: Concept checking for Signed Numbers. Models of this concept should be listed in NumberTraits cla...">
<polygon fill="white" stroke="black" points="631,-49.5 631,-79.5 771,-79.5 771,-49.5 631,-49.5"/>
<text text-anchor="start" x="639" y="-67.5" font-family="FreeSans" font-size="10.00">DGtal::concepts::CSigned</text>
<text text-anchor="middle" x="701" y="-56.5" font-family="FreeSans" font-size="10.00">Number&lt; T &gt;</text>
</a>
</g>
</g>
<!-- Node5&#45;&gt;Node9 -->
<g id="edge8" class="edge">
<title>Node5&#45;&gt;Node9</title>
<path fill="none" stroke="midnightblue" d="M597.35,-75.88C608.71,-74.62 620.11,-73.35 630.99,-72.15"/>
<polygon fill="midnightblue" stroke="midnightblue" points="596.96,-72.4 587.41,-76.98 597.74,-79.36 596.96,-72.4"/>
</g>
<!-- Node12 -->
<g id="node12" class="node">
<title>Node12</title>
<g id="a_node12"><a xlink:href="structDGtal_1_1concepts_1_1CUnsignedNumber.html" target="_top" xlink:title="Aim: Concept checking for Unsigned numbers. Models of this concept should be listed in NumberTraits c...">
<polygon fill="white" stroke="black" points="625,-0.5 625,-30.5 777,-30.5 777,-0.5 625,-0.5"/>
<text text-anchor="start" x="633" y="-18.5" font-family="FreeSans" font-size="10.00">DGtal::concepts::CUnsigned</text>
<text text-anchor="middle" x="701" y="-7.5" font-family="FreeSans" font-size="10.00">Number&lt; T &gt;</text>
</a>
</g>
</g>
<!-- Node5&#45;&gt;Node12 -->
<g id="edge12" class="edge">
<title>Node5&#45;&gt;Node12</title>
<path fill="none" stroke="midnightblue" d="M535.13,-73.14C559.86,-63.45 594.36,-50.22 625,-39.5 633.52,-36.52 642.63,-33.48 651.46,-30.61"/>
<polygon fill="midnightblue" stroke="midnightblue" points="533.52,-70.01 525.5,-76.93 536.08,-76.53 533.52,-70.01"/>
</g>
<!-- Node8 -->
<g id="node8" class="node">
<title>Node8</title>
<g id="a_node8"><a xlink:href="structDGtal_1_1concepts_1_1CInteger.html" target="_top" xlink:title="Aim: Concept checking for Integer Numbers. More precisely, this concept is a refinement of both CEucl...">
<polygon fill="white" stroke="black" points="1212,-76 1212,-95 1382,-95 1382,-76 1212,-76"/>
<text text-anchor="middle" x="1297" y="-83" font-family="FreeSans" font-size="10.00">DGtal::concepts::CInteger&lt; T &gt;</text>
</a>
</g>
</g>
<!-- Node7&#45;&gt;Node8 -->
<g id="edge7" class="edge">
<title>Node7&#45;&gt;Node8</title>
<path fill="none" stroke="midnightblue" d="M981.77,-105.36C1048.86,-101.12 1143.76,-95.12 1211.68,-90.83"/>
<polygon fill="midnightblue" stroke="midnightblue" points="981.42,-101.88 971.66,-106 981.87,-108.86 981.42,-101.88"/>
</g>
<!-- Node10 -->
<g id="node10" class="node">
<title>Node10</title>
<g id="a_node10"><a xlink:href="structDGtal_1_1concepts_1_1CCommutativeRing.html" target="_top" xlink:title="Aim: Defines the mathematical concept equivalent to a unitary commutative ring.">
<polygon fill="white" stroke="black" points="813,-46.5 813,-76.5 986,-76.5 986,-46.5 813,-46.5"/>
<text text-anchor="start" x="821" y="-64.5" font-family="FreeSans" font-size="10.00">DGtal::concepts::CCommutative</text>
<text text-anchor="middle" x="899.5" y="-53.5" font-family="FreeSans" font-size="10.00">Ring&lt; T &gt;</text>
</a>
</g>
</g>
<!-- Node9&#45;&gt;Node10 -->
<g id="edge9" class="edge">
<title>Node9&#45;&gt;Node10</title>
<path fill="none" stroke="midnightblue" d="M781.25,-63.29C791.62,-63.13 802.28,-62.97 812.75,-62.81"/>
<polygon fill="midnightblue" stroke="midnightblue" points="780.95,-59.79 771,-63.45 781.05,-66.79 780.95,-59.79"/>
</g>
<!-- Node11 -->
<g id="node11" class="node">
<title>Node11</title>
<g id="a_node11"><a xlink:href="structDGtal_1_1concepts_1_1CEuclideanRing.html" target="_top" xlink:title="Aim: Defines the mathematical concept equivalent to a unitary commutative ring with a division operat...">
<polygon fill="white" stroke="black" points="1022,-48.5 1022,-78.5 1176,-78.5 1176,-48.5 1022,-48.5"/>
<text text-anchor="start" x="1030" y="-66.5" font-family="FreeSans" font-size="10.00">DGtal::concepts::CEuclidean</text>
<text text-anchor="middle" x="1099" y="-55.5" font-family="FreeSans" font-size="10.00">Ring&lt; T &gt;</text>
</a>
</g>
</g>
<!-- Node10&#45;&gt;Node11 -->
<g id="edge10" class="edge">
<title>Node10&#45;&gt;Node11</title>
<path fill="none" stroke="midnightblue" d="M996.32,-62.47C1004.92,-62.56 1013.54,-62.64 1021.93,-62.73"/>
<polygon fill="midnightblue" stroke="midnightblue" points="996.3,-58.97 986.26,-62.37 996.23,-65.97 996.3,-58.97"/>
</g>
<!-- Node11&#45;&gt;Node8 -->
<g id="edge11" class="edge">
<title>Node11&#45;&gt;Node8</title>
<path fill="none" stroke="midnightblue" d="M1186.04,-73.16C1194.61,-74.12 1203.3,-75.1 1211.85,-76.05"/>
<polygon fill="midnightblue" stroke="midnightblue" points="1186.39,-69.67 1176.06,-72.04 1185.61,-76.63 1186.39,-69.67"/>
</g>
</g>
</svg>
