<?xml version="1.0" encoding="UTF-8" standalone="no"?>
<!DOCTYPE svg PUBLIC "-//W3C//DTD SVG 1.1//EN"
 "http://www.w3.org/Graphics/SVG/1.1/DTD/svg11.dtd">
<!-- Generated by graphviz version 2.43.0 (0)
 -->
<!-- Title: testMeasure.cpp Pages: 1 -->
<svg width="2658pt" height="397pt"
 viewBox="0.00 0.00 2658.49 397.00" xmlns="http://www.w3.org/2000/svg" xmlns:xlink="http://www.w3.org/1999/xlink">
<g id="graph0" class="graph" transform="scale(1 1) rotate(0) translate(4 393)">
<title>testMeasure.cpp</title>
<polygon fill="white" stroke="transparent" points="-4,4 -4,-393 2654.49,-393 2654.49,4 -4,4"/>
<!-- Node1 -->
<g id="node1" class="node">
<title>Node1</title>
<g id="a_node1"><a xlink:title=" ">
<polygon fill="#bfbfbf" stroke="black" points="1863.49,-369.5 1863.49,-388.5 1961.49,-388.5 1961.49,-369.5 1863.49,-369.5"/>
<text text-anchor="middle" x="1912.49" y="-376.5" font-family="FreeSans" font-size="10.00">testMeasure.cpp</text>
</a>
</g>
</g>
<!-- Node2 -->
<g id="node2" class="node">
<title>Node2</title>
<g id="a_node2"><a xlink:title=" ">
<polygon fill="white" stroke="#bfbfbf" points="1744.49,-308 1744.49,-327 1790.49,-327 1790.49,-308 1744.49,-308"/>
<text text-anchor="middle" x="1767.49" y="-315" font-family="FreeSans" font-size="10.00">cstdio</text>
</a>
</g>
</g>
<!-- Node1&#45;&gt;Node2 -->
<g id="edge1" class="edge">
<title>Node1&#45;&gt;Node2</title>
<path fill="none" stroke="midnightblue" d="M1891.71,-369.48C1867.05,-359.36 1825.74,-342.4 1797.58,-330.85"/>
<polygon fill="midnightblue" stroke="midnightblue" points="1798.8,-327.57 1788.22,-327.01 1796.14,-334.04 1798.8,-327.57"/>
</g>
<!-- Node3 -->
<g id="node3" class="node">
<title>Node3</title>
<g id="a_node3"><a xlink:title=" ">
<polygon fill="white" stroke="#bfbfbf" points="1800.99,-112.5 1800.99,-131.5 1847.99,-131.5 1847.99,-112.5 1800.99,-112.5"/>
<text text-anchor="middle" x="1824.49" y="-119.5" font-family="FreeSans" font-size="10.00">cmath</text>
</a>
</g>
</g>
<!-- Node1&#45;&gt;Node3 -->
<g id="edge2" class="edge">
<title>Node1&#45;&gt;Node3</title>
<path fill="none" stroke="midnightblue" d="M1903.77,-369.5C1895.56,-360.99 1883.49,-347.17 1876.49,-333 1844.08,-267.38 1830.88,-180 1826.42,-141.99"/>
<polygon fill="midnightblue" stroke="midnightblue" points="1829.88,-141.42 1825.31,-131.86 1822.92,-142.19 1829.88,-141.42"/>
</g>
<!-- Node4 -->
<g id="node4" class="node">
<title>Node4</title>
<g id="a_node4"><a xlink:title=" ">
<polygon fill="white" stroke="#bfbfbf" points="1324.49,-0.5 1324.49,-19.5 1384.49,-19.5 1384.49,-0.5 1324.49,-0.5"/>
<text text-anchor="middle" x="1354.49" y="-7.5" font-family="FreeSans" font-size="10.00">iostream</text>
</a>
</g>
</g>
<!-- Node1&#45;&gt;Node4 -->
<g id="edge3" class="edge">
<title>Node1&#45;&gt;Node4</title>
<path fill="none" stroke="midnightblue" d="M1961.77,-374.78C2126.92,-363.35 2650.49,-321.57 2650.49,-251.5 2650.49,-251.5 2650.49,-251.5 2650.49,-121 2650.49,-74.49 2612.11,-72.11 2568.49,-56 2456.47,-14.65 1592.65,-11.24 1394.78,-11.01"/>
<polygon fill="midnightblue" stroke="midnightblue" points="1394.54,-7.51 1384.54,-11 1394.54,-14.51 1394.54,-7.51"/>
</g>
<!-- Node5 -->
<g id="node5" class="node">
<title>Node5</title>
<g id="a_node5"><a xlink:title=" ">
<polygon fill="white" stroke="#bfbfbf" points="1884.99,-308 1884.99,-327 1939.99,-327 1939.99,-308 1884.99,-308"/>
<text text-anchor="middle" x="1912.49" y="-315" font-family="FreeSans" font-size="10.00">fstream</text>
</a>
</g>
</g>
<!-- Node1&#45;&gt;Node5 -->
<g id="edge4" class="edge">
<title>Node1&#45;&gt;Node5</title>
<path fill="none" stroke="midnightblue" d="M1912.49,-369.48C1912.49,-361.08 1912.49,-347.98 1912.49,-337.16"/>
<polygon fill="midnightblue" stroke="midnightblue" points="1915.99,-337.01 1912.49,-327.01 1908.99,-337.01 1915.99,-337.01"/>
</g>
<!-- Node6 -->
<g id="node6" class="node">
<title>Node6</title>
<g id="a_node6"><a xlink:title=" ">
<polygon fill="white" stroke="#bfbfbf" points="2000.99,-241 2000.99,-260 2047.99,-260 2047.99,-241 2000.99,-241"/>
<text text-anchor="middle" x="2024.49" y="-248" font-family="FreeSans" font-size="10.00">vector</text>
</a>
</g>
</g>
<!-- Node1&#45;&gt;Node6 -->
<g id="edge5" class="edge">
<title>Node1&#45;&gt;Node6</title>
<path fill="none" stroke="midnightblue" d="M1920.18,-369.31C1938.73,-348.36 1986.1,-294.85 2010.1,-267.75"/>
<polygon fill="midnightblue" stroke="midnightblue" points="2012.72,-270.06 2016.73,-260.26 2007.48,-265.42 2012.72,-270.06"/>
</g>
<!-- Node7 -->
<g id="node7" class="node">
<title>Node7</title>
<g id="a_node7"><a xlink:href="Common_8h_source.html" target="_top" xlink:title=" ">
<polygon fill="white" stroke="black" points="1410.99,-241 1410.99,-260 1537.99,-260 1537.99,-241 1410.99,-241"/>
<text text-anchor="middle" x="1474.49" y="-248" font-family="FreeSans" font-size="10.00">DGtal/base/Common.h</text>
</a>
</g>
</g>
<!-- Node1&#45;&gt;Node7 -->
<g id="edge6" class="edge">
<title>Node1&#45;&gt;Node7</title>
<path fill="none" stroke="midnightblue" d="M1898.66,-369.42C1884.44,-360.52 1861.71,-346.1 1842.49,-333 1823.01,-319.74 1821.28,-310.94 1799.49,-302 1717.71,-268.44 1615.99,-257 1548.35,-253.2"/>
<polygon fill="midnightblue" stroke="midnightblue" points="1548.38,-249.7 1538.21,-252.68 1548.02,-256.69 1548.38,-249.7"/>
</g>
<!-- Node47 -->
<g id="node47" class="node">
<title>Node47</title>
<g id="a_node47"><a xlink:href="MeasureOfStraightLines_8h_source.html" target="_top" xlink:title=" ">
<polygon fill="white" stroke="black" points="1995.99,-302.5 1995.99,-332.5 2162.99,-332.5 2162.99,-302.5 1995.99,-302.5"/>
<text text-anchor="start" x="2003.99" y="-320.5" font-family="FreeSans" font-size="10.00">DGtal/math/MeasureOfStraight</text>
<text text-anchor="middle" x="2079.49" y="-309.5" font-family="FreeSans" font-size="10.00">Lines.h</text>
</a>
</g>
</g>
<!-- Node1&#45;&gt;Node47 -->
<g id="edge77" class="edge">
<title>Node1&#45;&gt;Node47</title>
<path fill="none" stroke="midnightblue" d="M1936.41,-369.48C1960.83,-360.78 1999.42,-347.03 2030.37,-336"/>
<polygon fill="midnightblue" stroke="midnightblue" points="2031.88,-339.18 2040.13,-332.52 2029.53,-332.58 2031.88,-339.18"/>
</g>
<!-- Node7&#45;&gt;Node3 -->
<g id="edge16" class="edge">
<title>Node7&#45;&gt;Node3</title>
<path fill="none" stroke="midnightblue" d="M1538.09,-246.82C1619.87,-242.15 1755.98,-229.87 1794.49,-199 1812,-184.96 1819.33,-159.24 1822.36,-141.64"/>
<polygon fill="midnightblue" stroke="midnightblue" points="1825.84,-142.07 1823.78,-131.68 1818.91,-141.09 1825.84,-142.07"/>
</g>
<!-- Node7&#45;&gt;Node4 -->
<g id="edge7" class="edge">
<title>Node7&#45;&gt;Node4</title>
<path fill="none" stroke="midnightblue" d="M1538.19,-245.37C1607.32,-239.55 1711.59,-226.41 1739.49,-199 1767.42,-171.55 1765.21,-149.37 1753.49,-112 1744.4,-83.06 1740.45,-71.68 1714.49,-56 1661.42,-23.94 1477.07,-14.58 1394.74,-11.96"/>
<polygon fill="midnightblue" stroke="midnightblue" points="1394.62,-8.46 1384.52,-11.66 1394.41,-15.45 1394.62,-8.46"/>
</g>
<!-- Node8 -->
<g id="node8" class="node">
<title>Node8</title>
<g id="a_node8"><a xlink:title=" ">
<polygon fill="white" stroke="#bfbfbf" points="2090.99,-174 2090.99,-193 2155.99,-193 2155.99,-174 2090.99,-174"/>
<text text-anchor="middle" x="2123.49" y="-181" font-family="FreeSans" font-size="10.00">exception</text>
</a>
</g>
</g>
<!-- Node7&#45;&gt;Node8 -->
<g id="edge8" class="edge">
<title>Node7&#45;&gt;Node8</title>
<path fill="none" stroke="midnightblue" d="M1538.37,-248.65C1648.99,-246.17 1882.91,-236.52 2076.49,-199 2080.73,-198.18 2085.13,-197.11 2089.47,-195.93"/>
<polygon fill="midnightblue" stroke="midnightblue" points="2090.73,-199.21 2099.34,-193.04 2088.76,-192.49 2090.73,-199.21"/>
</g>
<!-- Node9 -->
<g id="node9" class="node">
<title>Node9</title>
<g id="a_node9"><a xlink:title=" ">
<polygon fill="white" stroke="#bfbfbf" points="287.49,-174 287.49,-193 391.49,-193 391.49,-174 287.49,-174"/>
<text text-anchor="middle" x="339.49" y="-181" font-family="FreeSans" font-size="10.00">boost/version.hpp</text>
</a>
</g>
</g>
<!-- Node7&#45;&gt;Node9 -->
<g id="edge9" class="edge">
<title>Node7&#45;&gt;Node9</title>
<path fill="none" stroke="midnightblue" d="M1410.77,-248.06C1210.84,-243.31 597.45,-226.79 400.49,-199 393.98,-198.08 387.15,-196.79 380.51,-195.35"/>
<polygon fill="midnightblue" stroke="midnightblue" points="380.83,-191.84 370.3,-193.01 379.26,-198.66 380.83,-191.84"/>
</g>
<!-- Node10 -->
<g id="node10" class="node">
<title>Node10</title>
<g id="a_node10"><a xlink:title=" ">
<polygon fill="white" stroke="#bfbfbf" points="409.49,-174 409.49,-193 549.49,-193 549.49,-174 409.49,-174"/>
<text text-anchor="middle" x="479.49" y="-181" font-family="FreeSans" font-size="10.00">boost/concept_check.hpp</text>
</a>
</g>
</g>
<!-- Node7&#45;&gt;Node10 -->
<g id="edge10" class="edge">
<title>Node7&#45;&gt;Node10</title>
<path fill="none" stroke="midnightblue" d="M1410.95,-248.76C1261.67,-246.41 877.17,-236.88 558.49,-199 549.33,-197.91 539.64,-196.42 530.3,-194.8"/>
<polygon fill="midnightblue" stroke="midnightblue" points="530.8,-191.34 520.34,-193.02 529.56,-198.23 530.8,-191.34"/>
</g>
<!-- Node11 -->
<g id="node11" class="node">
<title>Node11</title>
<g id="a_node11"><a xlink:title=" ">
<polygon fill="white" stroke="#bfbfbf" points="567.49,-174 567.49,-193 697.49,-193 697.49,-174 567.49,-174"/>
<text text-anchor="middle" x="632.49" y="-181" font-family="FreeSans" font-size="10.00">boost/static_assert.hpp</text>
</a>
</g>
</g>
<!-- Node7&#45;&gt;Node11 -->
<g id="edge11" class="edge">
<title>Node7&#45;&gt;Node11</title>
<path fill="none" stroke="midnightblue" d="M1410.75,-248.06C1278.81,-244.48 966.35,-232.86 706.49,-199 698.27,-197.93 689.6,-196.5 681.19,-194.96"/>
<polygon fill="midnightblue" stroke="midnightblue" points="681.6,-191.48 671.12,-193.04 680.29,-198.35 681.6,-191.48"/>
</g>
<!-- Node12 -->
<g id="node12" class="node">
<title>Node12</title>
<g id="a_node12"><a xlink:title=" ">
<polygon fill="white" stroke="#bfbfbf" points="715.99,-174 715.99,-193 854.99,-193 854.99,-174 715.99,-174"/>
<text text-anchor="middle" x="785.49" y="-181" font-family="FreeSans" font-size="10.00">boost/concept/assert.hpp</text>
</a>
</g>
</g>
<!-- Node7&#45;&gt;Node12 -->
<g id="edge12" class="edge">
<title>Node7&#45;&gt;Node12</title>
<path fill="none" stroke="midnightblue" d="M1410.93,-246.37C1299.62,-240.42 1062.35,-225.63 863.49,-199 854.95,-197.86 845.93,-196.41 837.17,-194.87"/>
<polygon fill="midnightblue" stroke="midnightblue" points="837.52,-191.37 827.05,-193.03 836.27,-198.26 837.52,-191.37"/>
</g>
<!-- Node13 -->
<g id="node13" class="node">
<title>Node13</title>
<g id="a_node13"><a xlink:title=" ">
<polygon fill="white" stroke="#bfbfbf" points="872.99,-174 872.99,-193 1021.99,-193 1021.99,-174 872.99,-174"/>
<text text-anchor="middle" x="947.49" y="-181" font-family="FreeSans" font-size="10.00">boost/concept/requires.hpp</text>
</a>
</g>
</g>
<!-- Node7&#45;&gt;Node13 -->
<g id="edge13" class="edge">
<title>Node7&#45;&gt;Node13</title>
<path fill="none" stroke="midnightblue" d="M1410.88,-243.41C1324.71,-234.89 1166.16,-218.28 1031.49,-199 1022.65,-197.74 1013.32,-196.26 1004.21,-194.75"/>
<polygon fill="midnightblue" stroke="midnightblue" points="1004.51,-191.25 994.06,-193.03 1003.34,-198.15 1004.51,-191.25"/>
</g>
<!-- Node14 -->
<g id="node14" class="node">
<title>Node14</title>
<g id="a_node14"><a xlink:title=" ">
<polygon fill="white" stroke="#bfbfbf" points="1040.49,-168.5 1040.49,-198.5 1162.49,-198.5 1162.49,-168.5 1040.49,-168.5"/>
<text text-anchor="start" x="1048.49" y="-186.5" font-family="FreeSans" font-size="10.00">boost/iterator/iterator</text>
<text text-anchor="middle" x="1101.49" y="-175.5" font-family="FreeSans" font-size="10.00">_concepts.hpp</text>
</a>
</g>
</g>
<!-- Node7&#45;&gt;Node14 -->
<g id="edge14" class="edge">
<title>Node7&#45;&gt;Node14</title>
<path fill="none" stroke="midnightblue" d="M1419.36,-240.98C1360.68,-231.75 1264.88,-216.27 1172.61,-199.17"/>
<polygon fill="midnightblue" stroke="midnightblue" points="1173.01,-195.68 1162.54,-197.29 1171.73,-202.57 1173.01,-195.68"/>
</g>
<!-- Node15 -->
<g id="node15" class="node">
<title>Node15</title>
<g id="a_node15"><a xlink:title=" ">
<polygon fill="white" stroke="#bfbfbf" points="1180.49,-174 1180.49,-193 1340.49,-193 1340.49,-174 1180.49,-174"/>
<text text-anchor="middle" x="1260.49" y="-181" font-family="FreeSans" font-size="10.00">boost/concept_archetype.hpp</text>
</a>
</g>
</g>
<!-- Node7&#45;&gt;Node15 -->
<g id="edge15" class="edge">
<title>Node7&#45;&gt;Node15</title>
<path fill="none" stroke="midnightblue" d="M1446.07,-240.87C1408.07,-229.33 1340.6,-208.84 1298.33,-196"/>
<polygon fill="midnightblue" stroke="midnightblue" points="1299.26,-192.62 1288.68,-193.06 1297.23,-199.32 1299.26,-192.62"/>
</g>
<!-- Node16 -->
<g id="node16" class="node">
<title>Node16</title>
<g id="a_node16"><a xlink:title=" ">
<polygon fill="white" stroke="#bfbfbf" points="1358.49,-174 1358.49,-193 1408.49,-193 1408.49,-174 1358.49,-174"/>
<text text-anchor="middle" x="1383.49" y="-181" font-family="FreeSans" font-size="10.00">stdio.h</text>
</a>
</g>
</g>
<!-- Node7&#45;&gt;Node16 -->
<g id="edge17" class="edge">
<title>Node7&#45;&gt;Node16</title>
<path fill="none" stroke="midnightblue" d="M1462.21,-240.73C1447.34,-230.11 1422.05,-212.05 1404.16,-199.26"/>
<polygon fill="midnightblue" stroke="midnightblue" points="1405.74,-196.09 1395.56,-193.13 1401.67,-201.79 1405.74,-196.09"/>
</g>
<!-- Node17 -->
<g id="node17" class="node">
<title>Node17</title>
<g id="a_node17"><a xlink:href="Config_8h_source.html" target="_top" xlink:title=" ">
<polygon fill="white" stroke="black" points="615.99,-56.5 615.99,-75.5 728.99,-75.5 728.99,-56.5 615.99,-56.5"/>
<text text-anchor="middle" x="672.49" y="-63.5" font-family="FreeSans" font-size="10.00">DGtal/base/Config.h</text>
</a>
</g>
</g>
<!-- Node7&#45;&gt;Node17 -->
<g id="edge18" class="edge">
<title>Node7&#45;&gt;Node17</title>
<path fill="none" stroke="midnightblue" d="M1474.5,-240.9C1474.01,-223.89 1470.26,-186.06 1447.49,-168 1377.55,-112.56 1135.97,-143.63 1047.49,-132 931.97,-116.82 797.68,-91.71 725.28,-77.56"/>
<polygon fill="midnightblue" stroke="midnightblue" points="725.54,-74.04 715.05,-75.55 724.19,-80.91 725.54,-74.04"/>
</g>
<!-- Node19 -->
<g id="node19" class="node">
<title>Node19</title>
<g id="a_node19"><a xlink:href="Trace_8h_source.html" target="_top" xlink:title=" ">
<polygon fill="white" stroke="black" points="161.49,-174 161.49,-193 269.49,-193 269.49,-174 161.49,-174"/>
<text text-anchor="middle" x="215.49" y="-181" font-family="FreeSans" font-size="10.00">DGtal/base/Trace.h</text>
</a>
</g>
</g>
<!-- Node7&#45;&gt;Node19 -->
<g id="edge21" class="edge">
<title>Node7&#45;&gt;Node19</title>
<path fill="none" stroke="midnightblue" d="M1410.82,-248.36C1196.21,-244.27 500.4,-228.96 278.49,-199 271.61,-198.07 264.38,-196.75 257.37,-195.27"/>
<polygon fill="midnightblue" stroke="midnightblue" points="257.85,-191.79 247.33,-193.03 256.32,-198.62 257.85,-191.79"/>
</g>
<!-- Node26 -->
<g id="node26" class="node">
<title>Node26</title>
<g id="a_node26"><a xlink:href="TraceWriterTerm_8h_source.html" target="_top" xlink:title=" ">
<polygon fill="white" stroke="black" points="229.49,-112.5 229.49,-131.5 391.49,-131.5 391.49,-112.5 229.49,-112.5"/>
<text text-anchor="middle" x="310.49" y="-119.5" font-family="FreeSans" font-size="10.00">DGtal/base/TraceWriterTerm.h</text>
</a>
</g>
</g>
<!-- Node7&#45;&gt;Node26 -->
<g id="edge44" class="edge">
<title>Node7&#45;&gt;Node26</title>
<path fill="none" stroke="midnightblue" d="M1410.89,-249.49C1152.98,-249.15 196.56,-244.79 152.49,-199 119.88,-165.12 184.15,-144.46 240.26,-133.39"/>
<polygon fill="midnightblue" stroke="midnightblue" points="241.08,-136.8 250.26,-131.5 239.78,-129.92 241.08,-136.8"/>
</g>
<!-- Node27 -->
<g id="node27" class="node">
<title>Node27</title>
<g id="a_node27"><a xlink:href="Assert_8h_source.html" target="_top" xlink:title=" ">
<polygon fill="white" stroke="black" points="700.99,-112.5 700.99,-131.5 813.99,-131.5 813.99,-112.5 700.99,-112.5"/>
<text text-anchor="middle" x="757.49" y="-119.5" font-family="FreeSans" font-size="10.00">DGtal/base/Assert.h</text>
</a>
</g>
</g>
<!-- Node7&#45;&gt;Node27 -->
<g id="edge49" class="edge">
<title>Node7&#45;&gt;Node27</title>
<path fill="none" stroke="midnightblue" d="M1471.42,-240.91C1464.71,-223.58 1446.95,-184.65 1417.49,-168 1391.97,-153.58 987.45,-133.54 824.62,-126.02"/>
<polygon fill="midnightblue" stroke="midnightblue" points="824.4,-122.5 814.25,-125.54 824.08,-129.5 824.4,-122.5"/>
</g>
<!-- Node30 -->
<g id="node30" class="node">
<title>Node30</title>
<g id="a_node30"><a xlink:href="TraceWriterFile_8h_source.html" target="_top" xlink:title=" ">
<polygon fill="white" stroke="black" points="17.99,-112.5 17.99,-131.5 172.99,-131.5 172.99,-112.5 17.99,-112.5"/>
<text text-anchor="middle" x="95.49" y="-119.5" font-family="FreeSans" font-size="10.00">DGtal/base/TraceWriterFile.h</text>
</a>
</g>
</g>
<!-- Node7&#45;&gt;Node30 -->
<g id="edge45" class="edge">
<title>Node7&#45;&gt;Node30</title>
<path fill="none" stroke="midnightblue" d="M1410.9,-248.78C1152.94,-245.64 195.59,-231.81 140.49,-199 119.22,-186.34 106.88,-159.43 100.67,-141.27"/>
<polygon fill="midnightblue" stroke="midnightblue" points="103.95,-140.04 97.63,-131.54 97.26,-142.12 103.95,-140.04"/>
</g>
<!-- Node31 -->
<g id="node31" class="node">
<title>Node31</title>
<g id="a_node31"><a xlink:href="ConceptUtils_8h_source.html" target="_top" xlink:title=" ">
<polygon fill="white" stroke="black" points="1222.99,-112.5 1222.99,-131.5 1367.99,-131.5 1367.99,-112.5 1222.99,-112.5"/>
<text text-anchor="middle" x="1295.49" y="-119.5" font-family="FreeSans" font-size="10.00">DGtal/base/ConceptUtils.h</text>
</a>
</g>
</g>
<!-- Node7&#45;&gt;Node31 -->
<g id="edge50" class="edge">
<title>Node7&#45;&gt;Node31</title>
<path fill="none" stroke="midnightblue" d="M1479.89,-240.81C1489.18,-224.64 1505.62,-189.59 1488.49,-168 1480.12,-157.46 1409.92,-143 1356.58,-133.35"/>
<polygon fill="midnightblue" stroke="midnightblue" points="1356.96,-129.86 1346.5,-131.54 1355.72,-136.75 1356.96,-129.86"/>
</g>
<!-- Node32 -->
<g id="node32" class="node">
<title>Node32</title>
<g id="a_node32"><a xlink:href="BasicTypes_8h_source.html" target="_top" xlink:title=" ">
<polygon fill="white" stroke="black" points="1606.99,-112.5 1606.99,-131.5 1743.99,-131.5 1743.99,-112.5 1606.99,-112.5"/>
<text text-anchor="middle" x="1675.49" y="-119.5" font-family="FreeSans" font-size="10.00">DGtal/base/BasicTypes.h</text>
</a>
</g>
</g>
<!-- Node7&#45;&gt;Node32 -->
<g id="edge52" class="edge">
<title>Node7&#45;&gt;Node32</title>
<path fill="none" stroke="midnightblue" d="M1538.07,-245.55C1603.96,-239.97 1700.49,-227.13 1723.49,-199 1739.65,-179.23 1715.54,-153.69 1696.04,-137.82"/>
<polygon fill="midnightblue" stroke="midnightblue" points="1698.14,-135.02 1688.09,-131.66 1693.85,-140.56 1698.14,-135.02"/>
</g>
<!-- Node35 -->
<g id="node35" class="node">
<title>Node35</title>
<g id="a_node35"><a xlink:href="BasicFunctors_8h_source.html" target="_top" xlink:title=" ">
<polygon fill="white" stroke="black" points="1884.49,-174 1884.49,-193 2034.49,-193 2034.49,-174 1884.49,-174"/>
<text text-anchor="middle" x="1959.49" y="-181" font-family="FreeSans" font-size="10.00">DGtal/base/BasicFunctors.h</text>
</a>
</g>
</g>
<!-- Node7&#45;&gt;Node35 -->
<g id="edge57" class="edge">
<title>Node7&#45;&gt;Node35</title>
<path fill="none" stroke="midnightblue" d="M1533.64,-240.94C1620.87,-228.9 1783.92,-207.04 1881.03,-194.34"/>
<polygon fill="midnightblue" stroke="midnightblue" points="1881.62,-197.8 1891.09,-193.03 1880.72,-190.86 1881.62,-197.8"/>
</g>
<!-- Node45 -->
<g id="node45" class="node">
<title>Node45</title>
<g id="a_node45"><a xlink:href="BasicArchetypes_8h_source.html" target="_top" xlink:title=" ">
<polygon fill="white" stroke="black" points="1386.49,-112.5 1386.49,-131.5 1550.49,-131.5 1550.49,-112.5 1386.49,-112.5"/>
<text text-anchor="middle" x="1468.49" y="-119.5" font-family="FreeSans" font-size="10.00">DGtal/base/BasicArchetypes.h</text>
</a>
</g>
</g>
<!-- Node7&#45;&gt;Node45 -->
<g id="edge73" class="edge">
<title>Node7&#45;&gt;Node45</title>
<path fill="none" stroke="midnightblue" d="M1488.59,-240.68C1501.2,-231.88 1518.84,-217.08 1526.49,-199 1531.85,-186.31 1532.55,-180.37 1526.49,-168 1519.96,-154.68 1507.39,-144.18 1495.61,-136.68"/>
<polygon fill="midnightblue" stroke="midnightblue" points="1497.27,-133.59 1486.87,-131.53 1493.71,-139.62 1497.27,-133.59"/>
</g>
<!-- Node46 -->
<g id="node46" class="node">
<title>Node46</title>
<g id="a_node46"><a xlink:href="Exceptions_8h_source.html" target="_top" xlink:title=" ">
<polygon fill="white" stroke="black" points="1578.49,-174 1578.49,-193 1714.49,-193 1714.49,-174 1578.49,-174"/>
<text text-anchor="middle" x="1646.49" y="-181" font-family="FreeSans" font-size="10.00">DGtal/base/Exceptions.h</text>
</a>
</g>
</g>
<!-- Node7&#45;&gt;Node46 -->
<g id="edge75" class="edge">
<title>Node7&#45;&gt;Node46</title>
<path fill="none" stroke="midnightblue" d="M1497.33,-240.87C1527.35,-229.52 1580.27,-209.52 1614.33,-196.65"/>
<polygon fill="midnightblue" stroke="midnightblue" points="1615.71,-199.87 1623.82,-193.06 1613.23,-193.32 1615.71,-199.87"/>
</g>
<!-- Node17&#45;&gt;Node4 -->
<g id="edge19" class="edge">
<title>Node17&#45;&gt;Node4</title>
<path fill="none" stroke="midnightblue" d="M729.15,-60.01C744.51,-58.68 761.13,-57.26 776.49,-56 978.36,-39.41 1220.03,-21.09 1314.17,-14.02"/>
<polygon fill="midnightblue" stroke="midnightblue" points="1314.68,-17.49 1324.39,-13.25 1314.16,-10.51 1314.68,-17.49"/>
</g>
<!-- Node18 -->
<g id="node18" class="node">
<title>Node18</title>
<g id="a_node18"><a xlink:title=" ">
<polygon fill="white" stroke="#bfbfbf" points="527.49,-0.5 527.49,-19.5 571.49,-19.5 571.49,-0.5 527.49,-0.5"/>
<text text-anchor="middle" x="549.49" y="-7.5" font-family="FreeSans" font-size="10.00">string</text>
</a>
</g>
</g>
<!-- Node17&#45;&gt;Node18 -->
<g id="edge20" class="edge">
<title>Node17&#45;&gt;Node18</title>
<path fill="none" stroke="midnightblue" d="M653,-56.44C632.84,-47.6 601.16,-33.69 578.15,-23.59"/>
<polygon fill="midnightblue" stroke="midnightblue" points="579.45,-20.33 568.88,-19.52 576.63,-26.74 579.45,-20.33"/>
</g>
<!-- Node19&#45;&gt;Node4 -->
<g id="edge22" class="edge">
<title>Node19&#45;&gt;Node4</title>
<path fill="none" stroke="midnightblue" d="M247.32,-173.96C257.24,-171.63 268.25,-169.37 278.49,-168 476.21,-141.51 985.95,-194.24 1175.49,-132 1193.2,-126.18 1291.4,-56.39 1334.36,-25.53"/>
<polygon fill="midnightblue" stroke="midnightblue" points="1336.57,-28.25 1342.64,-19.57 1332.48,-22.57 1336.57,-28.25"/>
</g>
<!-- Node19&#45;&gt;Node17 -->
<g id="edge26" class="edge">
<title>Node19&#45;&gt;Node17</title>
<path fill="none" stroke="midnightblue" d="M249.69,-173.97C258.99,-171.83 269.09,-169.67 278.49,-168 404.19,-145.65 442.77,-173.57 563.49,-132 581.47,-125.81 624.77,-98.4 651.06,-81.22"/>
<polygon fill="midnightblue" stroke="midnightblue" points="653.15,-84.03 659.58,-75.61 649.3,-78.18 653.15,-84.03"/>
</g>
<!-- Node19&#45;&gt;Node18 -->
<g id="edge24" class="edge">
<title>Node19&#45;&gt;Node18</title>
<path fill="none" stroke="midnightblue" d="M250.04,-174C259.25,-171.88 269.22,-169.73 278.49,-168 333.88,-157.67 489.22,-171.42 529.49,-132 556.91,-105.15 555.63,-56.13 552.47,-29.46"/>
<polygon fill="midnightblue" stroke="midnightblue" points="555.93,-28.95 551.08,-19.53 549,-29.92 555.93,-28.95"/>
</g>
<!-- Node20 -->
<g id="node20" class="node">
<title>Node20</title>
<g id="a_node20"><a xlink:title=" ">
<polygon fill="white" stroke="#bfbfbf" points="81.99,-0.5 81.99,-19.5 138.99,-19.5 138.99,-0.5 81.99,-0.5"/>
<text text-anchor="middle" x="110.49" y="-7.5" font-family="FreeSans" font-size="10.00">ostream</text>
</a>
</g>
</g>
<!-- Node19&#45;&gt;Node20 -->
<g id="edge23" class="edge">
<title>Node19&#45;&gt;Node20</title>
<path fill="none" stroke="midnightblue" d="M161.25,-176.8C106.42,-169.79 27.16,-155.78 8.49,-132 -22.94,-91.99 44.45,-46.56 84.16,-24.48"/>
<polygon fill="midnightblue" stroke="midnightblue" points="85.98,-27.47 93.11,-19.63 82.65,-21.32 85.98,-27.47"/>
</g>
<!-- Node21 -->
<g id="node21" class="node">
<title>Node21</title>
<g id="a_node21"><a xlink:title=" ">
<polygon fill="white" stroke="#bfbfbf" points="615.99,-112.5 615.99,-131.5 658.99,-131.5 658.99,-112.5 615.99,-112.5"/>
<text text-anchor="middle" x="637.49" y="-119.5" font-family="FreeSans" font-size="10.00">stack</text>
</a>
</g>
</g>
<!-- Node19&#45;&gt;Node21 -->
<g id="edge25" class="edge">
<title>Node19&#45;&gt;Node21</title>
<path fill="none" stroke="midnightblue" d="M249.34,-173.95C258.74,-171.79 268.97,-169.62 278.49,-168 420.88,-143.76 459.32,-157.57 601.49,-132 602.95,-131.74 604.45,-131.45 605.95,-131.14"/>
<polygon fill="midnightblue" stroke="midnightblue" points="606.9,-134.51 615.88,-128.9 605.36,-127.68 606.9,-134.51"/>
</g>
<!-- Node22 -->
<g id="node22" class="node">
<title>Node22</title>
<g id="a_node22"><a xlink:href="Clock_8h_source.html" target="_top" xlink:title=" ">
<polygon fill="white" stroke="black" points="1056.49,-112.5 1056.49,-131.5 1166.49,-131.5 1166.49,-112.5 1056.49,-112.5"/>
<text text-anchor="middle" x="1111.49" y="-119.5" font-family="FreeSans" font-size="10.00">DGtal/base/Clock.h</text>
</a>
</g>
</g>
<!-- Node19&#45;&gt;Node22 -->
<g id="edge27" class="edge">
<title>Node19&#45;&gt;Node22</title>
<path fill="none" stroke="midnightblue" d="M247.66,-173.97C257.49,-171.67 268.37,-169.43 278.49,-168 426.4,-147.14 876.82,-130.68 1046.18,-125.07"/>
<polygon fill="midnightblue" stroke="midnightblue" points="1046.32,-128.57 1056.2,-124.74 1046.09,-121.57 1046.32,-128.57"/>
</g>
<!-- Node25 -->
<g id="node25" class="node">
<title>Node25</title>
<g id="a_node25"><a xlink:href="TraceWriter_8h_source.html" target="_top" xlink:title=" ">
<polygon fill="white" stroke="black" points="161.99,-56.5 161.99,-75.5 298.99,-75.5 298.99,-56.5 161.99,-56.5"/>
<text text-anchor="middle" x="230.49" y="-63.5" font-family="FreeSans" font-size="10.00">DGtal/base/TraceWriter.h</text>
</a>
</g>
</g>
<!-- Node19&#45;&gt;Node25 -->
<g id="edge31" class="edge">
<title>Node19&#45;&gt;Node25</title>
<path fill="none" stroke="midnightblue" d="M215.69,-173.77C216.1,-160.41 217.26,-134.1 220.49,-112 221.77,-103.18 223.83,-93.52 225.75,-85.41"/>
<polygon fill="midnightblue" stroke="midnightblue" points="229.18,-86.1 228.19,-75.56 222.39,-84.42 229.18,-86.1"/>
</g>
<!-- Node19&#45;&gt;Node26 -->
<g id="edge34" class="edge">
<title>Node19&#45;&gt;Node26</title>
<path fill="none" stroke="midnightblue" d="M229.1,-173.98C244.55,-164.3 269.98,-148.37 288.3,-136.89"/>
<polygon fill="midnightblue" stroke="midnightblue" points="290.28,-139.78 296.9,-131.51 286.57,-133.85 290.28,-139.78"/>
</g>
<!-- Node19&#45;&gt;Node27 -->
<g id="edge39" class="edge">
<title>Node19&#45;&gt;Node27</title>
<path fill="none" stroke="midnightblue" d="M240.04,-173.99C249.24,-171.77 259.73,-169.57 269.49,-168 440.92,-140.47 485.66,-148.64 658.49,-132 668.79,-131.01 679.76,-129.93 690.51,-128.88"/>
<polygon fill="midnightblue" stroke="midnightblue" points="691.12,-132.33 700.74,-127.88 690.44,-125.37 691.12,-132.33"/>
</g>
<!-- Node29 -->
<g id="node29" class="node">
<title>Node29</title>
<g id="a_node29"><a xlink:href="Trace_8ih_source.html" target="_top" xlink:title=" ">
<polygon fill="white" stroke="black" points="409.99,-112.5 409.99,-131.5 520.99,-131.5 520.99,-112.5 409.99,-112.5"/>
<text text-anchor="middle" x="465.49" y="-119.5" font-family="FreeSans" font-size="10.00">DGtal/base/Trace.ih</text>
</a>
</g>
</g>
<!-- Node19&#45;&gt;Node29 -->
<g id="edge43" class="edge">
<title>Node19&#45;&gt;Node29</title>
<path fill="none" stroke="midnightblue" d="M251.3,-173.98C295.67,-163.42 371.32,-145.41 419.82,-133.87"/>
<polygon fill="midnightblue" stroke="midnightblue" points="420.81,-137.23 429.73,-131.51 419.19,-130.42 420.81,-137.23"/>
</g>
<!-- Node22&#45;&gt;Node4 -->
<g id="edge28" class="edge">
<title>Node22&#45;&gt;Node4</title>
<path fill="none" stroke="midnightblue" d="M1118.13,-112.4C1129.4,-98.4 1153.69,-70.79 1180.49,-56 1222.63,-32.74 1277.17,-21.17 1313.86,-15.65"/>
<polygon fill="midnightblue" stroke="midnightblue" points="1314.76,-19.06 1324.17,-14.19 1313.78,-12.13 1314.76,-19.06"/>
</g>
<!-- Node23 -->
<g id="node23" class="node">
<title>Node23</title>
<g id="a_node23"><a xlink:title=" ">
<polygon fill="white" stroke="#bfbfbf" points="1420.99,-56.5 1420.99,-75.5 1469.99,-75.5 1469.99,-56.5 1420.99,-56.5"/>
<text text-anchor="middle" x="1445.49" y="-63.5" font-family="FreeSans" font-size="10.00">cstdlib</text>
</a>
</g>
</g>
<!-- Node22&#45;&gt;Node23 -->
<g id="edge29" class="edge">
<title>Node22&#45;&gt;Node23</title>
<path fill="none" stroke="midnightblue" d="M1164.41,-112.44C1233.33,-101.3 1351.9,-82.13 1410.55,-72.65"/>
<polygon fill="midnightblue" stroke="midnightblue" points="1411.46,-76.05 1420.77,-71 1410.34,-69.14 1411.46,-76.05"/>
</g>
<!-- Node24 -->
<g id="node24" class="node">
<title>Node24</title>
<g id="a_node24"><a xlink:href="Clock_8ih_source.html" target="_top" xlink:title=" ">
<polygon fill="white" stroke="black" points="1014.99,-56.5 1014.99,-75.5 1127.99,-75.5 1127.99,-56.5 1014.99,-56.5"/>
<text text-anchor="middle" x="1071.49" y="-63.5" font-family="FreeSans" font-size="10.00">DGtal/base/Clock.ih</text>
</a>
</g>
</g>
<!-- Node22&#45;&gt;Node24 -->
<g id="edge30" class="edge">
<title>Node22&#45;&gt;Node24</title>
<path fill="none" stroke="midnightblue" d="M1104.88,-112.08C1099.23,-104.46 1090.94,-93.26 1084.03,-83.94"/>
<polygon fill="midnightblue" stroke="midnightblue" points="1086.73,-81.7 1077.97,-75.75 1081.11,-85.87 1086.73,-81.7"/>
</g>
<!-- Node25&#45;&gt;Node4 -->
<g id="edge32" class="edge">
<title>Node25&#45;&gt;Node4</title>
<path fill="none" stroke="midnightblue" d="M299.1,-61.7C510.38,-51.55 1146.87,-20.97 1313.96,-12.95"/>
<polygon fill="midnightblue" stroke="midnightblue" points="1314.45,-16.43 1324.27,-12.45 1314.12,-9.44 1314.45,-16.43"/>
</g>
<!-- Node25&#45;&gt;Node20 -->
<g id="edge33" class="edge">
<title>Node25&#45;&gt;Node20</title>
<path fill="none" stroke="midnightblue" d="M211.47,-56.44C191.9,-47.64 161.18,-33.81 138.76,-23.72"/>
<polygon fill="midnightblue" stroke="midnightblue" points="139.97,-20.43 129.41,-19.52 137.09,-26.81 139.97,-20.43"/>
</g>
<!-- Node26&#45;&gt;Node4 -->
<g id="edge35" class="edge">
<title>Node26&#45;&gt;Node4</title>
<path fill="none" stroke="midnightblue" d="M341.74,-112.45C395.41,-98.14 508.77,-69.58 606.49,-56 874.87,-18.69 1201.67,-12.3 1314.18,-11.22"/>
<polygon fill="midnightblue" stroke="midnightblue" points="1314.42,-14.72 1324.39,-11.13 1314.36,-7.72 1314.42,-14.72"/>
</g>
<!-- Node26&#45;&gt;Node17 -->
<g id="edge38" class="edge">
<title>Node26&#45;&gt;Node17</title>
<path fill="none" stroke="midnightblue" d="M367.85,-112.44C432.41,-102.81 537.19,-87.18 605.48,-77"/>
<polygon fill="midnightblue" stroke="midnightblue" points="606.32,-80.41 615.69,-75.47 605.28,-73.49 606.32,-80.41"/>
</g>
<!-- Node26&#45;&gt;Node18 -->
<g id="edge36" class="edge">
<title>Node26&#45;&gt;Node18</title>
<path fill="none" stroke="midnightblue" d="M329.24,-112.37C371.12,-93.09 472.45,-46.45 521.7,-23.79"/>
<polygon fill="midnightblue" stroke="midnightblue" points="523.2,-26.95 530.82,-19.59 520.27,-20.59 523.2,-26.95"/>
</g>
<!-- Node26&#45;&gt;Node25 -->
<g id="edge37" class="edge">
<title>Node26&#45;&gt;Node25</title>
<path fill="none" stroke="midnightblue" d="M297.63,-112.32C285.27,-103.98 266.36,-91.21 251.75,-81.35"/>
<polygon fill="midnightblue" stroke="midnightblue" points="253.55,-78.35 243.31,-75.65 249.64,-84.15 253.55,-78.35"/>
</g>
<!-- Node27&#45;&gt;Node18 -->
<g id="edge42" class="edge">
<title>Node27&#45;&gt;Node18</title>
<path fill="none" stroke="midnightblue" d="M757.41,-112.45C756.8,-98.53 753.5,-71.03 737.49,-56 715.19,-35.08 629.38,-21.14 581.78,-14.85"/>
<polygon fill="midnightblue" stroke="midnightblue" points="582.04,-11.35 571.67,-13.55 581.15,-18.29 582.04,-11.35"/>
</g>
<!-- Node27&#45;&gt;Node19 -->
<g id="edge40" class="edge">
<title>Node27&#45;&gt;Node19</title>
<path fill="none" stroke="midnightblue" d="M700.56,-129.64C692.5,-130.45 684.3,-131.25 676.49,-132 503.66,-148.64 458.92,-140.47 287.49,-168 280.93,-169.05 274.05,-170.39 267.22,-171.83"/>
<polygon fill="midnightblue" stroke="midnightblue" points="266.33,-168.44 257.31,-173.99 267.82,-175.28 266.33,-168.44"/>
</g>
<!-- Node28 -->
<g id="node28" class="node">
<title>Node28</title>
<g id="a_node28"><a xlink:title=" ">
<polygon fill="white" stroke="#bfbfbf" points="785.99,-56.5 785.99,-75.5 932.99,-75.5 932.99,-56.5 785.99,-56.5"/>
<text text-anchor="middle" x="859.49" y="-63.5" font-family="FreeSans" font-size="10.00">boost/current_function.hpp</text>
</a>
</g>
</g>
<!-- Node27&#45;&gt;Node28 -->
<g id="edge41" class="edge">
<title>Node27&#45;&gt;Node28</title>
<path fill="none" stroke="midnightblue" d="M773.87,-112.32C790.16,-103.7 815.35,-90.36 834.2,-80.39"/>
<polygon fill="midnightblue" stroke="midnightblue" points="835.94,-83.43 843.14,-75.65 832.66,-77.24 835.94,-83.43"/>
</g>
<!-- Node30&#45;&gt;Node4 -->
<g id="edge46" class="edge">
<title>Node30&#45;&gt;Node4</title>
<path fill="none" stroke="midnightblue" d="M100.02,-112.24C108.21,-97.5 127.01,-68.12 152.49,-56 206.03,-30.52 1111.18,-14.82 1314.26,-11.61"/>
<polygon fill="midnightblue" stroke="midnightblue" points="1314.54,-15.11 1324.48,-11.45 1314.43,-8.11 1314.54,-15.11"/>
</g>
<!-- Node30&#45;&gt;Node18 -->
<g id="edge47" class="edge">
<title>Node30&#45;&gt;Node18</title>
<path fill="none" stroke="midnightblue" d="M95.92,-112.16C97.15,-97.82 101.82,-69.73 119.49,-56 150.76,-31.69 422.88,-16.87 517.35,-12.42"/>
<polygon fill="midnightblue" stroke="midnightblue" points="517.63,-15.91 527.45,-11.95 517.3,-8.92 517.63,-15.91"/>
</g>
<!-- Node30&#45;&gt;Node25 -->
<g id="edge48" class="edge">
<title>Node30&#45;&gt;Node25</title>
<path fill="none" stroke="midnightblue" d="M116.88,-112.44C139.19,-103.52 174.39,-89.44 199.69,-79.32"/>
<polygon fill="midnightblue" stroke="midnightblue" points="201.21,-82.48 209.19,-75.52 198.61,-75.98 201.21,-82.48"/>
</g>
<!-- Node31&#45;&gt;Node4 -->
<g id="edge51" class="edge">
<title>Node31&#45;&gt;Node4</title>
<path fill="none" stroke="midnightblue" d="M1300.11,-112.37C1309.77,-94.38 1332.2,-52.55 1345.03,-28.63"/>
<polygon fill="midnightblue" stroke="midnightblue" points="1348.23,-30.06 1349.88,-19.59 1342.07,-26.75 1348.23,-30.06"/>
</g>
<!-- Node32&#45;&gt;Node4 -->
<g id="edge54" class="edge">
<title>Node32&#45;&gt;Node4</title>
<path fill="none" stroke="midnightblue" d="M1637.77,-112.47C1605.32,-104.62 1557.55,-91.8 1517.49,-76 1499.36,-68.85 1496.34,-63.78 1478.49,-56 1449.52,-43.37 1415.75,-31.29 1390.77,-22.82"/>
<polygon fill="midnightblue" stroke="midnightblue" points="1391.58,-19.4 1380.99,-19.54 1389.35,-26.04 1391.58,-19.4"/>
</g>
<!-- Node32&#45;&gt;Node23 -->
<g id="edge53" class="edge">
<title>Node32&#45;&gt;Node23</title>
<path fill="none" stroke="midnightblue" d="M1639.04,-112.44C1595.39,-102.2 1522.82,-85.16 1480.03,-75.11"/>
<polygon fill="midnightblue" stroke="midnightblue" points="1480.63,-71.66 1470.09,-72.78 1479.03,-78.47 1480.63,-71.66"/>
</g>
<!-- Node33 -->
<g id="node33" class="node">
<title>Node33</title>
<g id="a_node33"><a xlink:title=" ">
<polygon fill="white" stroke="#bfbfbf" points="1526.99,-56.5 1526.99,-75.5 1627.99,-75.5 1627.99,-56.5 1526.99,-56.5"/>
<text text-anchor="middle" x="1577.49" y="-63.5" font-family="FreeSans" font-size="10.00">boost/cstdint.hpp</text>
</a>
</g>
</g>
<!-- Node32&#45;&gt;Node33 -->
<g id="edge55" class="edge">
<title>Node32&#45;&gt;Node33</title>
<path fill="none" stroke="midnightblue" d="M1659.74,-112.32C1644.17,-103.74 1620.11,-90.49 1602.03,-80.52"/>
<polygon fill="midnightblue" stroke="midnightblue" points="1603.64,-77.42 1593.19,-75.65 1600.26,-83.55 1603.64,-77.42"/>
</g>
<!-- Node34 -->
<g id="node34" class="node">
<title>Node34</title>
<g id="a_node34"><a xlink:title=" ">
<polygon fill="white" stroke="#bfbfbf" points="1645.99,-56.5 1645.99,-75.5 1704.99,-75.5 1704.99,-56.5 1645.99,-56.5"/>
<text text-anchor="middle" x="1675.49" y="-63.5" font-family="FreeSans" font-size="10.00">gmpxx.h</text>
</a>
</g>
</g>
<!-- Node32&#45;&gt;Node34 -->
<g id="edge56" class="edge">
<title>Node32&#45;&gt;Node34</title>
<path fill="none" stroke="midnightblue" d="M1675.49,-112.08C1675.49,-105.01 1675.49,-94.86 1675.49,-85.99"/>
<polygon fill="midnightblue" stroke="midnightblue" points="1678.99,-85.75 1675.49,-75.75 1671.99,-85.75 1678.99,-85.75"/>
</g>
<!-- Node35&#45;&gt;Node3 -->
<g id="edge60" class="edge">
<title>Node35&#45;&gt;Node3</title>
<path fill="none" stroke="midnightblue" d="M1940.14,-173.98C1917.39,-163.95 1879.39,-147.2 1853.2,-135.65"/>
<polygon fill="midnightblue" stroke="midnightblue" points="1854.35,-132.34 1843.79,-131.51 1851.53,-138.74 1854.35,-132.34"/>
</g>
<!-- Node35&#45;&gt;Node7 -->
<g id="edge68" class="edge">
<title>Node35&#45;&gt;Node7</title>
<path fill="none" stroke="midnightblue" d="M1900.66,-193.02C1812.03,-205.25 1644.61,-227.69 1548.05,-240.29"/>
<polygon fill="midnightblue" stroke="midnightblue" points="1547.53,-236.83 1538.07,-241.59 1548.44,-243.77 1547.53,-236.83"/>
</g>
<!-- Node36 -->
<g id="node36" class="node">
<title>Node36</title>
<g id="a_node36"><a xlink:title=" ">
<polygon fill="white" stroke="#bfbfbf" points="2118.49,-56.5 2118.49,-75.5 2182.49,-75.5 2182.49,-56.5 2118.49,-56.5"/>
<text text-anchor="middle" x="2150.49" y="-63.5" font-family="FreeSans" font-size="10.00">algorithm</text>
</a>
</g>
</g>
<!-- Node35&#45;&gt;Node36 -->
<g id="edge58" class="edge">
<title>Node35&#45;&gt;Node36</title>
<path fill="none" stroke="midnightblue" d="M2006.48,-173.95C2051.1,-164.94 2113.89,-149.62 2131.49,-132 2143.55,-119.92 2148.04,-100.64 2149.67,-86.2"/>
<polygon fill="midnightblue" stroke="midnightblue" points="2153.18,-86.14 2150.45,-75.9 2146.2,-85.61 2153.18,-86.14"/>
</g>
<!-- Node37 -->
<g id="node37" class="node">
<title>Node37</title>
<g id="a_node37"><a xlink:title=" ">
<polygon fill="white" stroke="#bfbfbf" points="2056.99,-112.5 2056.99,-131.5 2121.99,-131.5 2121.99,-112.5 2056.99,-112.5"/>
<text text-anchor="middle" x="2089.49" y="-119.5" font-family="FreeSans" font-size="10.00">functional</text>
</a>
</g>
</g>
<!-- Node35&#45;&gt;Node37 -->
<g id="edge59" class="edge">
<title>Node35&#45;&gt;Node37</title>
<path fill="none" stroke="midnightblue" d="M1978.11,-173.98C1999.93,-163.99 2036.29,-147.35 2061.5,-135.81"/>
<polygon fill="midnightblue" stroke="midnightblue" points="2063.26,-138.85 2070.89,-131.51 2060.34,-132.49 2063.26,-138.85"/>
</g>
<!-- Node38 -->
<g id="node38" class="node">
<title>Node38</title>
<g id="a_node38"><a xlink:href="Color_8h_source.html" target="_top" xlink:title=" ">
<polygon fill="white" stroke="black" points="2178.99,-112.5 2178.99,-131.5 2271.99,-131.5 2271.99,-112.5 2178.99,-112.5"/>
<text text-anchor="middle" x="2225.49" y="-119.5" font-family="FreeSans" font-size="10.00">DGtal/io/Color.h</text>
</a>
</g>
</g>
<!-- Node35&#45;&gt;Node38 -->
<g id="edge61" class="edge">
<title>Node35&#45;&gt;Node38</title>
<path fill="none" stroke="midnightblue" d="M1997.6,-173.98C2045,-163.37 2125.97,-145.26 2177.54,-133.72"/>
<polygon fill="midnightblue" stroke="midnightblue" points="2178.45,-137.11 2187.44,-131.51 2176.92,-130.28 2178.45,-137.11"/>
</g>
<!-- Node42 -->
<g id="node42" class="node">
<title>Node42</title>
<g id="a_node42"><a xlink:href="BasicBoolFunctors_8h_source.html" target="_top" xlink:title=" ">
<polygon fill="white" stroke="black" points="1866.49,-112.5 1866.49,-131.5 2038.49,-131.5 2038.49,-112.5 1866.49,-112.5"/>
<text text-anchor="middle" x="1952.49" y="-119.5" font-family="FreeSans" font-size="10.00">DGtal/base/BasicBoolFunctors.h</text>
</a>
</g>
</g>
<!-- Node35&#45;&gt;Node42 -->
<g id="edge69" class="edge">
<title>Node35&#45;&gt;Node42</title>
<path fill="none" stroke="midnightblue" d="M1958.48,-173.98C1957.49,-165.58 1955.95,-152.48 1954.68,-141.66"/>
<polygon fill="midnightblue" stroke="midnightblue" points="1958.13,-141.03 1953.49,-131.51 1951.18,-141.85 1958.13,-141.03"/>
</g>
<!-- Node38&#45;&gt;Node4 -->
<g id="edge62" class="edge">
<title>Node38&#45;&gt;Node4</title>
<path fill="none" stroke="midnightblue" d="M2223.83,-112.42C2220.52,-97.93 2211.63,-68.95 2191.49,-56 2124.1,-12.69 1553.42,-10.59 1395.08,-10.85"/>
<polygon fill="midnightblue" stroke="midnightblue" points="1394.82,-7.35 1384.83,-10.87 1394.84,-14.35 1394.82,-7.35"/>
</g>
<!-- Node38&#45;&gt;Node7 -->
<g id="edge63" class="edge">
<title>Node38&#45;&gt;Node7</title>
<path fill="none" stroke="midnightblue" d="M2185.09,-131.51C2155.55,-138.71 2115.12,-150.66 2082.49,-168 2062.93,-178.39 2064.05,-190.79 2043.49,-199 1955.41,-234.18 1681.32,-244.98 1548.34,-248.2"/>
<polygon fill="midnightblue" stroke="midnightblue" points="1548.15,-244.7 1538.24,-248.43 1548.32,-251.7 1548.15,-244.7"/>
</g>
<!-- Node38&#45;&gt;Node36 -->
<g id="edge65" class="edge">
<title>Node38&#45;&gt;Node36</title>
<path fill="none" stroke="midnightblue" d="M2213.44,-112.32C2202.02,-104.11 2184.65,-91.6 2171.05,-81.81"/>
<polygon fill="midnightblue" stroke="midnightblue" points="2172.91,-78.84 2162.75,-75.83 2168.82,-84.52 2172.91,-78.84"/>
</g>
<!-- Node39 -->
<g id="node39" class="node">
<title>Node39</title>
<g id="a_node39"><a xlink:title=" ">
<polygon fill="white" stroke="#bfbfbf" points="2412.99,-56.5 2412.99,-75.5 2537.99,-75.5 2537.99,-56.5 2412.99,-56.5"/>
<text text-anchor="middle" x="2475.49" y="-63.5" font-family="FreeSans" font-size="10.00">boost/lexical_cast.hpp</text>
</a>
</g>
</g>
<!-- Node38&#45;&gt;Node39 -->
<g id="edge64" class="edge">
<title>Node38&#45;&gt;Node39</title>
<path fill="none" stroke="midnightblue" d="M2265.1,-112.44C2308.71,-103.02 2378.89,-87.87 2426.06,-77.68"/>
<polygon fill="midnightblue" stroke="midnightblue" points="2427.02,-81.05 2436.06,-75.52 2425.54,-74.21 2427.02,-81.05"/>
</g>
<!-- Node40 -->
<g id="node40" class="node">
<title>Node40</title>
<g id="a_node40"><a xlink:title=" ">
<polygon fill="white" stroke="#bfbfbf" points="2238.49,-56.5 2238.49,-75.5 2280.49,-75.5 2280.49,-56.5 2238.49,-56.5"/>
<text text-anchor="middle" x="2259.49" y="-63.5" font-family="FreeSans" font-size="10.00">array</text>
</a>
</g>
</g>
<!-- Node38&#45;&gt;Node40 -->
<g id="edge66" class="edge">
<title>Node38&#45;&gt;Node40</title>
<path fill="none" stroke="midnightblue" d="M2231.1,-112.08C2235.85,-104.53 2242.8,-93.49 2248.64,-84.23"/>
<polygon fill="midnightblue" stroke="midnightblue" points="2251.61,-86.08 2253.98,-75.75 2245.69,-82.35 2251.61,-86.08"/>
</g>
<!-- Node41 -->
<g id="node41" class="node">
<title>Node41</title>
<g id="a_node41"><a xlink:href="Color_8ih_source.html" target="_top" xlink:title=" ">
<polygon fill="white" stroke="black" points="2298.49,-56.5 2298.49,-75.5 2394.49,-75.5 2394.49,-56.5 2298.49,-56.5"/>
<text text-anchor="middle" x="2346.49" y="-63.5" font-family="FreeSans" font-size="10.00">DGtal/io/Color.ih</text>
</a>
</g>
</g>
<!-- Node38&#45;&gt;Node41 -->
<g id="edge67" class="edge">
<title>Node38&#45;&gt;Node41</title>
<path fill="none" stroke="midnightblue" d="M2244.66,-112.44C2264.39,-103.64 2295.37,-89.81 2317.98,-79.72"/>
<polygon fill="midnightblue" stroke="midnightblue" points="2319.7,-82.79 2327.4,-75.52 2316.84,-76.4 2319.7,-82.79"/>
</g>
<!-- Node42&#45;&gt;Node4 -->
<g id="edge70" class="edge">
<title>Node42&#45;&gt;Node4</title>
<path fill="none" stroke="midnightblue" d="M1915.85,-112.47C1882.89,-104.4 1833.34,-91.26 1791.49,-76 1771.3,-68.64 1768.19,-61.74 1747.49,-56 1621.96,-21.22 1466.7,-13.27 1394.68,-11.49"/>
<polygon fill="midnightblue" stroke="midnightblue" points="1394.75,-7.99 1384.67,-11.27 1394.59,-14.99 1394.75,-7.99"/>
</g>
<!-- Node43 -->
<g id="node43" class="node">
<title>Node43</title>
<g id="a_node43"><a xlink:title=" ">
<polygon fill="white" stroke="#bfbfbf" points="1799.99,-56.5 1799.99,-75.5 1906.99,-75.5 1906.99,-56.5 1799.99,-56.5"/>
<text text-anchor="middle" x="1853.49" y="-63.5" font-family="FreeSans" font-size="10.00">boost/function.hpp</text>
</a>
</g>
</g>
<!-- Node42&#45;&gt;Node43 -->
<g id="edge71" class="edge">
<title>Node42&#45;&gt;Node43</title>
<path fill="none" stroke="midnightblue" d="M1936.58,-112.32C1920.85,-103.74 1896.54,-90.49 1878.28,-80.52"/>
<polygon fill="midnightblue" stroke="midnightblue" points="1879.81,-77.37 1869.35,-75.65 1876.45,-83.52 1879.81,-77.37"/>
</g>
<!-- Node44 -->
<g id="node44" class="node">
<title>Node44</title>
<g id="a_node44"><a xlink:href="BasicBoolFunctors_8ih_source.html" target="_top" xlink:title=" ">
<polygon fill="white" stroke="black" points="1924.99,-56.5 1924.99,-75.5 2099.99,-75.5 2099.99,-56.5 1924.99,-56.5"/>
<text text-anchor="middle" x="2012.49" y="-63.5" font-family="FreeSans" font-size="10.00">DGtal/base/BasicBoolFunctors.ih</text>
</a>
</g>
</g>
<!-- Node42&#45;&gt;Node44 -->
<g id="edge72" class="edge">
<title>Node42&#45;&gt;Node44</title>
<path fill="none" stroke="midnightblue" d="M1962.13,-112.32C1970.99,-104.34 1984.36,-92.31 1995.09,-82.65"/>
<polygon fill="midnightblue" stroke="midnightblue" points="1997.58,-85.13 2002.67,-75.83 1992.9,-79.92 1997.58,-85.13"/>
</g>
<!-- Node45&#45;&gt;Node4 -->
<g id="edge74" class="edge">
<title>Node45&#45;&gt;Node4</title>
<path fill="none" stroke="midnightblue" d="M1438.57,-112.43C1419.11,-105.46 1394.45,-93.83 1378.49,-76 1366.83,-62.99 1360.68,-43.83 1357.53,-29.68"/>
<polygon fill="midnightblue" stroke="midnightblue" points="1360.92,-28.78 1355.61,-19.62 1354.05,-30.1 1360.92,-28.78"/>
</g>
<!-- Node46&#45;&gt;Node4 -->
<g id="edge76" class="edge">
<title>Node46&#45;&gt;Node4</title>
<path fill="none" stroke="midnightblue" d="M1638.26,-173.65C1623.8,-158.64 1592.24,-128.22 1559.49,-112 1498.82,-81.96 1469.38,-111.08 1411.49,-76 1391.9,-64.13 1375.41,-43.32 1365.29,-28.44"/>
<polygon fill="midnightblue" stroke="midnightblue" points="1367.97,-26.15 1359.58,-19.68 1362.1,-29.97 1367.97,-26.15"/>
</g>
<!-- Node47&#45;&gt;Node4 -->
<g id="edge78" class="edge">
<title>Node47&#45;&gt;Node4</title>
<path fill="none" stroke="midnightblue" d="M2162.53,-302.45C2328.48,-271.19 2674.63,-188.04 2547.49,-56 2506.66,-13.6 1598.74,-11.02 1394.87,-10.97"/>
<polygon fill="midnightblue" stroke="midnightblue" points="1394.62,-7.47 1384.62,-10.97 1394.62,-14.47 1394.62,-7.47"/>
</g>
<!-- Node47&#45;&gt;Node6 -->
<g id="edge79" class="edge">
<title>Node47&#45;&gt;Node6</title>
<path fill="none" stroke="midnightblue" d="M2067.55,-302.4C2058.98,-292.26 2047.39,-278.57 2038.39,-267.94"/>
<polygon fill="midnightblue" stroke="midnightblue" points="2040.97,-265.57 2031.84,-260.19 2035.63,-270.09 2040.97,-265.57"/>
</g>
<!-- Node47&#45;&gt;Node7 -->
<g id="edge80" class="edge">
<title>Node47&#45;&gt;Node7</title>
<path fill="none" stroke="midnightblue" d="M1995.92,-307.12C1980.48,-305.4 1964.5,-303.64 1949.49,-302 1807.64,-286.55 1641.91,-269.06 1548.46,-259.25"/>
<polygon fill="midnightblue" stroke="midnightblue" points="1548.58,-255.74 1538.27,-258.18 1547.85,-262.7 1548.58,-255.74"/>
</g>
<!-- Node48 -->
<g id="node48" class="node">
<title>Node48</title>
<g id="a_node48"><a xlink:href="MeasureOfStraightLines_8ih_source.html" target="_top" xlink:title=" ">
<polygon fill="white" stroke="black" points="2455.99,-235.5 2455.99,-265.5 2622.99,-265.5 2622.99,-235.5 2455.99,-235.5"/>
<text text-anchor="start" x="2463.99" y="-253.5" font-family="FreeSans" font-size="10.00">DGtal/math/MeasureOfStraight</text>
<text text-anchor="middle" x="2539.49" y="-242.5" font-family="FreeSans" font-size="10.00">Lines.ih</text>
</a>
</g>
</g>
<!-- Node47&#45;&gt;Node48 -->
<g id="edge81" class="edge">
<title>Node47&#45;&gt;Node48</title>
<path fill="none" stroke="midnightblue" d="M2163.14,-305.11C2236.74,-295.03 2346.76,-279.81 2442.49,-266 2443.58,-265.84 2444.68,-265.68 2445.79,-265.52"/>
<polygon fill="midnightblue" stroke="midnightblue" points="2446.5,-268.96 2455.89,-264.05 2445.49,-262.03 2446.5,-268.96"/>
</g>
</g>
</svg>
