<?xml version="1.0" encoding="UTF-8" standalone="no"?>
<!DOCTYPE svg PUBLIC "-//W3C//DTD SVG 1.1//EN"
 "http://www.w3.org/Graphics/SVG/1.1/DTD/svg11.dtd">
<!-- Generated by graphviz version 2.43.0 (0)
 -->
<!-- Title: testPartialTemplateSpecialization.cpp Pages: 1 -->
<!--zoomable 330 -->
<svg id="main" version="1.1" xmlns="http://www.w3.org/2000/svg" xmlns:xlink="http://www.w3.org/1999/xlink" xml:space="preserve" onload="init(evt)">
<style type="text/css"><![CDATA[
.edge:hover path { stroke: red; }
.edge:hover polygon { stroke: red; fill: red; }
]]></style>
<script type="text/javascript"><![CDATA[
var edges = document.getElementsByTagName('g');
if (edges && edges.length) {
  for (var i=0;i<edges.length;i++) {
    if (edges[i].id.substr(0,4)=='edge') {
      edges[i].setAttribute('class','edge');
    }
  }
}
]]></script>
        <defs>
                <circle id="rim" cx="0" cy="0" r="7"/>
                <circle id="rim2" cx="0" cy="0" r="3.5"/>
                <g id="zoomPlus">
                        <use xlink:href="#rim" fill="#404040">
                                <set attributeName="fill" to="#808080" begin="zoomplus.mouseover" end="zoomplus.mouseout"/>
                        </use>
                        <path d="M-4,0h8M0,-4v8" fill="none" stroke="white" stroke-width="1.5" pointer-events="none"/>
                </g>
                <g id="zoomMin">
                        <use xlink:href="#rim" fill="#404040">
                                <set attributeName="fill" to="#808080" begin="zoomminus.mouseover" end="zoomminus.mouseout"/>
                        </use>
                        <path d="M-4,0h8" fill="none" stroke="white" stroke-width="1.5" pointer-events="none"/>
                </g>
                <g id="dirArrow">
                        <path fill="none" stroke="white" stroke-width="1.5" d="M0,-3.0v7 M-2.5,-0.5L0,-3.0L2.5,-0.5"/>
                </g>
               <g id="resetDef">
                       <use xlink:href="#rim2" fill="#404040">
                               <set attributeName="fill" to="#808080" begin="reset.mouseover" end="reset.mouseout"/>
                       </use>
               </g>
        </defs>

<script type="text/javascript">
var viewWidth = 2780;
var viewHeight = 330;
var sectionId = 'dynsection-0';
</script>
<script xlink:href="svgpan.js"/>
<svg id="graph" class="graph">
<g id="viewport">
<title>testPartialTemplateSpecialization.cpp</title>
<polygon fill="white" stroke="transparent" points="-4,4 -4,-326 2776,-326 2776,4 -4,4"/>
<!-- Node1 -->
<g id="node1" class="node">
<title>Node1</title>
<g id="a_node1"><a xlink:title=" ">
<polygon fill="#bfbfbf" stroke="black" points="2073,-302.5 2073,-321.5 2273,-321.5 2273,-302.5 2073,-302.5"/>
<text text-anchor="middle" x="2173" y="-309.5" font-family="FreeSans" font-size="10.00">testPartialTemplateSpecialization.cpp</text>
</a>
</g>
</g>
<!-- Node2 -->
<g id="node2" class="node">
<title>Node2</title>
<g id="a_node2"><a xlink:title=" ">
<polygon fill="white" stroke="#bfbfbf" points="1545,-0.5 1545,-19.5 1605,-19.5 1605,-0.5 1545,-0.5"/>
<text text-anchor="middle" x="1575" y="-7.5" font-family="FreeSans" font-size="10.00">iostream</text>
</a>
</g>
</g>
<!-- Node1&#45;&gt;Node2 -->
<g id="edge1" class="edge">
<title>Node1&#45;&gt;Node2</title>
<path fill="none" stroke="midnightblue" d="M2273.26,-310.21C2443.78,-306.14 2772,-285.21 2772,-184.5 2772,-184.5 2772,-184.5 2772,-121 2772,-80.77 2745.73,-72.42 2709,-56 2607.6,-10.68 1805.04,-10.28 1615.17,-10.83"/>
<polygon fill="midnightblue" stroke="midnightblue" points="1615.05,-7.33 1605.07,-10.87 1615.08,-14.33 1615.05,-7.33"/>
</g>
<!-- Node3 -->
<g id="node3" class="node">
<title>Node3</title>
<g id="a_node3"><a xlink:title=" ">
<polygon fill="white" stroke="#bfbfbf" points="1990,-235.5 1990,-265.5 2100,-265.5 2100,-235.5 1990,-235.5"/>
<text text-anchor="start" x="1998" y="-253.5" font-family="FreeSans" font-size="10.00">boost/type_traits/is</text>
<text text-anchor="middle" x="2045" y="-242.5" font-family="FreeSans" font-size="10.00">_arithmetic.hpp</text>
</a>
</g>
</g>
<!-- Node1&#45;&gt;Node3 -->
<g id="edge2" class="edge">
<title>Node1&#45;&gt;Node3</title>
<path fill="none" stroke="midnightblue" d="M2154.66,-302.48C2136.43,-294 2107.9,-280.74 2084.5,-269.86"/>
<polygon fill="midnightblue" stroke="midnightblue" points="2085.71,-266.56 2075.17,-265.52 2082.76,-272.91 2085.71,-266.56"/>
</g>
<!-- Node4 -->
<g id="node4" class="node">
<title>Node4</title>
<g id="a_node4"><a xlink:title=" ">
<polygon fill="white" stroke="#bfbfbf" points="2118,-235.5 2118,-265.5 2228,-265.5 2228,-235.5 2118,-235.5"/>
<text text-anchor="start" x="2126" y="-253.5" font-family="FreeSans" font-size="10.00">boost/type_traits/is</text>
<text text-anchor="middle" x="2173" y="-242.5" font-family="FreeSans" font-size="10.00">_integral.hpp</text>
</a>
</g>
</g>
<!-- Node1&#45;&gt;Node4 -->
<g id="edge3" class="edge">
<title>Node1&#45;&gt;Node4</title>
<path fill="none" stroke="midnightblue" d="M2173,-302.48C2173,-295.47 2173,-285.19 2173,-275.7"/>
<polygon fill="midnightblue" stroke="midnightblue" points="2176.5,-275.52 2173,-265.52 2169.5,-275.52 2176.5,-275.52"/>
</g>
<!-- Node5 -->
<g id="node5" class="node">
<title>Node5</title>
<g id="a_node5"><a xlink:title=" ">
<polygon fill="white" stroke="#bfbfbf" points="2246.5,-235.5 2246.5,-265.5 2357.5,-265.5 2357.5,-235.5 2246.5,-235.5"/>
<text text-anchor="start" x="2254.5" y="-253.5" font-family="FreeSans" font-size="10.00">boost/utility/enable</text>
<text text-anchor="middle" x="2302" y="-242.5" font-family="FreeSans" font-size="10.00">_if.hpp</text>
</a>
</g>
</g>
<!-- Node1&#45;&gt;Node5 -->
<g id="edge4" class="edge">
<title>Node1&#45;&gt;Node5</title>
<path fill="none" stroke="midnightblue" d="M2191.48,-302.48C2209.93,-293.96 2238.87,-280.62 2262.5,-269.72"/>
<polygon fill="midnightblue" stroke="midnightblue" points="2263.98,-272.89 2271.6,-265.52 2261.05,-266.53 2263.98,-272.89"/>
</g>
<!-- Node6 -->
<g id="node6" class="node">
<title>Node6</title>
<g id="a_node6"><a xlink:href="Common_8h_source.html" target="_top" xlink:title=" ">
<polygon fill="white" stroke="black" points="1400.5,-241 1400.5,-260 1527.5,-260 1527.5,-241 1400.5,-241"/>
<text text-anchor="middle" x="1464" y="-248" font-family="FreeSans" font-size="10.00">DGtal/base/Common.h</text>
</a>
</g>
</g>
<!-- Node1&#45;&gt;Node6 -->
<g id="edge5" class="edge">
<title>Node1&#45;&gt;Node6</title>
<path fill="none" stroke="midnightblue" d="M2072.92,-302.6C1928.72,-290.5 1665.82,-268.44 1537.88,-257.7"/>
<polygon fill="midnightblue" stroke="midnightblue" points="1538.05,-254.2 1527.79,-256.85 1537.46,-261.18 1538.05,-254.2"/>
</g>
<!-- Node6&#45;&gt;Node2 -->
<g id="edge6" class="edge">
<title>Node6&#45;&gt;Node2</title>
<path fill="none" stroke="midnightblue" d="M1527.65,-242.81C1618.07,-229.38 1779.74,-189.87 1843,-76 1847.32,-68.23 1848.74,-62.79 1843,-56 1814.36,-22.15 1683.32,-13.75 1615.68,-11.67"/>
<polygon fill="midnightblue" stroke="midnightblue" points="1615.48,-8.17 1605.39,-11.39 1615.29,-15.16 1615.48,-8.17"/>
</g>
<!-- Node7 -->
<g id="node7" class="node">
<title>Node7</title>
<g id="a_node7"><a xlink:title=" ">
<polygon fill="white" stroke="#bfbfbf" points="2109.5,-174 2109.5,-193 2174.5,-193 2174.5,-174 2109.5,-174"/>
<text text-anchor="middle" x="2142" y="-181" font-family="FreeSans" font-size="10.00">exception</text>
</a>
</g>
</g>
<!-- Node6&#45;&gt;Node7 -->
<g id="edge7" class="edge">
<title>Node6&#45;&gt;Node7</title>
<path fill="none" stroke="midnightblue" d="M1527.76,-249C1642.33,-247.08 1890.2,-238.29 2095,-199 2099.25,-198.19 2103.65,-197.13 2107.98,-195.95"/>
<polygon fill="midnightblue" stroke="midnightblue" points="2109.25,-199.23 2117.86,-193.06 2107.28,-192.51 2109.25,-199.23"/>
</g>
<!-- Node8 -->
<g id="node8" class="node">
<title>Node8</title>
<g id="a_node8"><a xlink:title=" ">
<polygon fill="white" stroke="#bfbfbf" points="2231,-174 2231,-193 2335,-193 2335,-174 2231,-174"/>
<text text-anchor="middle" x="2283" y="-181" font-family="FreeSans" font-size="10.00">boost/version.hpp</text>
</a>
</g>
</g>
<!-- Node6&#45;&gt;Node8 -->
<g id="edge8" class="edge">
<title>Node6&#45;&gt;Node8</title>
<path fill="none" stroke="midnightblue" d="M1527.8,-248.43C1658,-245.54 1963.41,-235.15 2217,-199 2224.19,-197.98 2231.75,-196.6 2239.1,-195.1"/>
<polygon fill="midnightblue" stroke="midnightblue" points="2239.87,-198.51 2248.92,-193 2238.41,-191.67 2239.87,-198.51"/>
</g>
<!-- Node9 -->
<g id="node9" class="node">
<title>Node9</title>
<g id="a_node9"><a xlink:title=" ">
<polygon fill="white" stroke="#bfbfbf" points="0,-174 0,-193 140,-193 140,-174 0,-174"/>
<text text-anchor="middle" x="70" y="-181" font-family="FreeSans" font-size="10.00">boost/concept_check.hpp</text>
</a>
</g>
</g>
<!-- Node6&#45;&gt;Node9 -->
<g id="edge9" class="edge">
<title>Node6&#45;&gt;Node9</title>
<path fill="none" stroke="midnightblue" d="M1400.48,-248.27C1172.49,-243.65 395.96,-226.26 149,-199 139.74,-197.98 129.93,-196.5 120.49,-194.88"/>
<polygon fill="midnightblue" stroke="midnightblue" points="120.89,-191.39 110.43,-193.07 119.66,-198.28 120.89,-191.39"/>
</g>
<!-- Node10 -->
<g id="node10" class="node">
<title>Node10</title>
<g id="a_node10"><a xlink:title=" ">
<polygon fill="white" stroke="#bfbfbf" points="158,-174 158,-193 288,-193 288,-174 158,-174"/>
<text text-anchor="middle" x="223" y="-181" font-family="FreeSans" font-size="10.00">boost/static_assert.hpp</text>
</a>
</g>
</g>
<!-- Node6&#45;&gt;Node10 -->
<g id="edge10" class="edge">
<title>Node6&#45;&gt;Node10</title>
<path fill="none" stroke="midnightblue" d="M1400.48,-250.09C1224.47,-251.02 715.86,-248.81 297,-199 288.5,-197.99 279.51,-196.55 270.84,-194.96"/>
<polygon fill="midnightblue" stroke="midnightblue" points="271.33,-191.49 260.85,-193.05 270.02,-198.37 271.33,-191.49"/>
</g>
<!-- Node11 -->
<g id="node11" class="node">
<title>Node11</title>
<g id="a_node11"><a xlink:title=" ">
<polygon fill="white" stroke="#bfbfbf" points="306.5,-174 306.5,-193 445.5,-193 445.5,-174 306.5,-174"/>
<text text-anchor="middle" x="376" y="-181" font-family="FreeSans" font-size="10.00">boost/concept/assert.hpp</text>
</a>
</g>
</g>
<!-- Node6&#45;&gt;Node11 -->
<g id="edge11" class="edge">
<title>Node6&#45;&gt;Node11</title>
<path fill="none" stroke="midnightblue" d="M1400.24,-249.27C1240.39,-248.04 809.93,-240.79 454,-199 445.05,-197.95 435.59,-196.49 426.46,-194.9"/>
<polygon fill="midnightblue" stroke="midnightblue" points="426.79,-191.4 416.33,-193.06 425.54,-198.29 426.79,-191.4"/>
</g>
<!-- Node12 -->
<g id="node12" class="node">
<title>Node12</title>
<g id="a_node12"><a xlink:title=" ">
<polygon fill="white" stroke="#bfbfbf" points="463.5,-174 463.5,-193 612.5,-193 612.5,-174 463.5,-174"/>
<text text-anchor="middle" x="538" y="-181" font-family="FreeSans" font-size="10.00">boost/concept/requires.hpp</text>
</a>
</g>
</g>
<!-- Node6&#45;&gt;Node12 -->
<g id="edge12" class="edge">
<title>Node6&#45;&gt;Node12</title>
<path fill="none" stroke="midnightblue" d="M1400.41,-248.1C1259.7,-244.46 911.48,-232.56 622,-199 612.29,-197.87 602,-196.36 592.07,-194.74"/>
<polygon fill="midnightblue" stroke="midnightblue" points="592.34,-191.24 581.9,-193.02 591.18,-198.14 592.34,-191.24"/>
</g>
<!-- Node13 -->
<g id="node13" class="node">
<title>Node13</title>
<g id="a_node13"><a xlink:title=" ">
<polygon fill="white" stroke="#bfbfbf" points="631,-168.5 631,-198.5 753,-198.5 753,-168.5 631,-168.5"/>
<text text-anchor="start" x="639" y="-186.5" font-family="FreeSans" font-size="10.00">boost/iterator/iterator</text>
<text text-anchor="middle" x="692" y="-175.5" font-family="FreeSans" font-size="10.00">_concepts.hpp</text>
</a>
</g>
</g>
<!-- Node6&#45;&gt;Node13 -->
<g id="edge13" class="edge">
<title>Node6&#45;&gt;Node13</title>
<path fill="none" stroke="midnightblue" d="M1400.3,-247.74C1278.38,-243.76 1003.53,-231.82 762.98,-199.01"/>
<polygon fill="midnightblue" stroke="midnightblue" points="763.39,-195.53 753,-197.63 762.43,-202.47 763.39,-195.53"/>
</g>
<!-- Node14 -->
<g id="node14" class="node">
<title>Node14</title>
<g id="a_node14"><a xlink:title=" ">
<polygon fill="white" stroke="#bfbfbf" points="771,-174 771,-193 931,-193 931,-174 771,-174"/>
<text text-anchor="middle" x="851" y="-181" font-family="FreeSans" font-size="10.00">boost/concept_archetype.hpp</text>
</a>
</g>
</g>
<!-- Node6&#45;&gt;Node14 -->
<g id="edge14" class="edge">
<title>Node6&#45;&gt;Node14</title>
<path fill="none" stroke="midnightblue" d="M1400.36,-244.46C1302.36,-236.45 1108.7,-219.57 945,-199 934.69,-197.7 923.78,-196.17 913.18,-194.59"/>
<polygon fill="midnightblue" stroke="midnightblue" points="913.54,-191.11 903.13,-193.07 912.5,-198.03 913.54,-191.11"/>
</g>
<!-- Node15 -->
<g id="node15" class="node">
<title>Node15</title>
<g id="a_node15"><a xlink:title=" ">
<polygon fill="white" stroke="#bfbfbf" points="1865.5,-112.5 1865.5,-131.5 1912.5,-131.5 1912.5,-112.5 1865.5,-112.5"/>
<text text-anchor="middle" x="1889" y="-119.5" font-family="FreeSans" font-size="10.00">cmath</text>
</a>
</g>
</g>
<!-- Node6&#45;&gt;Node15 -->
<g id="edge15" class="edge">
<title>Node6&#45;&gt;Node15</title>
<path fill="none" stroke="midnightblue" d="M1527.74,-248.3C1623.95,-245.33 1800.42,-234.99 1851,-199 1870.11,-185.4 1880.14,-159.38 1885,-141.61"/>
<polygon fill="midnightblue" stroke="midnightblue" points="1888.42,-142.34 1887.39,-131.8 1881.62,-140.68 1888.42,-142.34"/>
</g>
<!-- Node16 -->
<g id="node16" class="node">
<title>Node16</title>
<g id="a_node16"><a xlink:title=" ">
<polygon fill="white" stroke="#bfbfbf" points="987,-174 987,-193 1037,-193 1037,-174 987,-174"/>
<text text-anchor="middle" x="1012" y="-181" font-family="FreeSans" font-size="10.00">stdio.h</text>
</a>
</g>
</g>
<!-- Node6&#45;&gt;Node16 -->
<g id="edge16" class="edge">
<title>Node6&#45;&gt;Node16</title>
<path fill="none" stroke="midnightblue" d="M1400.2,-246.34C1318.34,-241.23 1172.42,-228.56 1051,-199 1048.01,-198.27 1044.93,-197.38 1041.88,-196.41"/>
<polygon fill="midnightblue" stroke="midnightblue" points="1042.96,-193.08 1032.36,-193.1 1040.66,-199.69 1042.96,-193.08"/>
</g>
<!-- Node17 -->
<g id="node17" class="node">
<title>Node17</title>
<g id="a_node17"><a xlink:href="Config_8h_source.html" target="_top" xlink:title=" ">
<polygon fill="white" stroke="black" points="744.5,-56.5 744.5,-75.5 857.5,-75.5 857.5,-56.5 744.5,-56.5"/>
<text text-anchor="middle" x="801" y="-63.5" font-family="FreeSans" font-size="10.00">DGtal/base/Config.h</text>
</a>
</g>
</g>
<!-- Node6&#45;&gt;Node17 -->
<g id="edge17" class="edge">
<title>Node6&#45;&gt;Node17</title>
<path fill="none" stroke="midnightblue" d="M1400.27,-245.25C1307.27,-238.34 1139.43,-222.98 1084,-199 1063.99,-190.35 1066.02,-176.62 1046,-168 988.99,-143.44 809.97,-178.64 769,-132 756.25,-117.49 770.31,-97 783.61,-82.92"/>
<polygon fill="midnightblue" stroke="midnightblue" points="786.11,-85.37 790.74,-75.84 781.17,-80.4 786.11,-85.37"/>
</g>
<!-- Node19 -->
<g id="node19" class="node">
<title>Node19</title>
<g id="a_node19"><a xlink:href="Trace_8h_source.html" target="_top" xlink:title=" ">
<polygon fill="white" stroke="black" points="1093,-174 1093,-193 1201,-193 1201,-174 1093,-174"/>
<text text-anchor="middle" x="1147" y="-181" font-family="FreeSans" font-size="10.00">DGtal/base/Trace.h</text>
</a>
</g>
</g>
<!-- Node6&#45;&gt;Node19 -->
<g id="edge20" class="edge">
<title>Node6&#45;&gt;Node19</title>
<path fill="none" stroke="midnightblue" d="M1422.23,-240.94C1364.66,-229.13 1260.98,-207.87 1198.62,-195.09"/>
<polygon fill="midnightblue" stroke="midnightblue" points="1199.11,-191.61 1188.61,-193.03 1197.7,-198.47 1199.11,-191.61"/>
</g>
<!-- Node26 -->
<g id="node26" class="node">
<title>Node26</title>
<g id="a_node26"><a xlink:href="TraceWriterTerm_8h_source.html" target="_top" xlink:title=" ">
<polygon fill="white" stroke="black" points="1011,-112.5 1011,-131.5 1173,-131.5 1173,-112.5 1011,-112.5"/>
<text text-anchor="middle" x="1092" y="-119.5" font-family="FreeSans" font-size="10.00">DGtal/base/TraceWriterTerm.h</text>
</a>
</g>
</g>
<!-- Node6&#45;&gt;Node26 -->
<g id="edge43" class="edge">
<title>Node6&#45;&gt;Node26</title>
<path fill="none" stroke="midnightblue" d="M1438.72,-240.9C1373.91,-218.86 1201.66,-160.29 1127.15,-134.95"/>
<polygon fill="midnightblue" stroke="midnightblue" points="1127.91,-131.51 1117.31,-131.61 1125.65,-138.14 1127.91,-131.51"/>
</g>
<!-- Node27 -->
<g id="node27" class="node">
<title>Node27</title>
<g id="a_node27"><a xlink:href="Assert_8h_source.html" target="_top" xlink:title=" ">
<polygon fill="white" stroke="black" points="536.5,-112.5 536.5,-131.5 649.5,-131.5 649.5,-112.5 536.5,-112.5"/>
<text text-anchor="middle" x="593" y="-119.5" font-family="FreeSans" font-size="10.00">DGtal/base/Assert.h</text>
</a>
</g>
</g>
<!-- Node6&#45;&gt;Node27 -->
<g id="edge48" class="edge">
<title>Node6&#45;&gt;Node27</title>
<path fill="none" stroke="midnightblue" d="M1400.38,-247.4C1286.52,-242.9 1052.81,-230.09 978,-199 957.87,-190.63 960.02,-176.62 940,-168 938.4,-167.31 759.97,-144.38 659.63,-131.53"/>
<polygon fill="midnightblue" stroke="midnightblue" points="659.95,-128.04 649.58,-130.24 659.06,-134.98 659.95,-128.04"/>
</g>
<!-- Node30 -->
<g id="node30" class="node">
<title>Node30</title>
<g id="a_node30"><a xlink:href="TraceWriterFile_8h_source.html" target="_top" xlink:title=" ">
<polygon fill="white" stroke="black" points="1229.5,-112.5 1229.5,-131.5 1384.5,-131.5 1384.5,-112.5 1229.5,-112.5"/>
<text text-anchor="middle" x="1307" y="-119.5" font-family="FreeSans" font-size="10.00">DGtal/base/TraceWriterFile.h</text>
</a>
</g>
</g>
<!-- Node6&#45;&gt;Node30 -->
<g id="edge44" class="edge">
<title>Node6&#45;&gt;Node30</title>
<path fill="none" stroke="midnightblue" d="M1453.21,-240.81C1426.88,-219.59 1359.08,-164.96 1325.88,-138.22"/>
<polygon fill="midnightblue" stroke="midnightblue" points="1327.85,-135.3 1317.87,-131.76 1323.46,-140.76 1327.85,-135.3"/>
</g>
<!-- Node31 -->
<g id="node31" class="node">
<title>Node31</title>
<g id="a_node31"><a xlink:href="ConceptUtils_8h_source.html" target="_top" xlink:title=" ">
<polygon fill="white" stroke="black" points="2407.5,-112.5 2407.5,-131.5 2552.5,-131.5 2552.5,-112.5 2407.5,-112.5"/>
<text text-anchor="middle" x="2480" y="-119.5" font-family="FreeSans" font-size="10.00">DGtal/base/ConceptUtils.h</text>
</a>
</g>
</g>
<!-- Node6&#45;&gt;Node31 -->
<g id="edge49" class="edge">
<title>Node6&#45;&gt;Node31</title>
<path fill="none" stroke="midnightblue" d="M1527.75,-249.92C1680.89,-250.17 2065.53,-245.93 2184,-199 2204.26,-190.97 2202.17,-177.06 2222,-168 2252.62,-154.01 2334.14,-141.15 2397.43,-132.79"/>
<polygon fill="midnightblue" stroke="midnightblue" points="2397.96,-136.25 2407.42,-131.49 2397.05,-129.31 2397.96,-136.25"/>
</g>
<!-- Node32 -->
<g id="node32" class="node">
<title>Node32</title>
<g id="a_node32"><a xlink:href="BasicTypes_8h_source.html" target="_top" xlink:title=" ">
<polygon fill="white" stroke="black" points="1607.5,-112.5 1607.5,-131.5 1744.5,-131.5 1744.5,-112.5 1607.5,-112.5"/>
<text text-anchor="middle" x="1676" y="-119.5" font-family="FreeSans" font-size="10.00">DGtal/base/BasicTypes.h</text>
</a>
</g>
</g>
<!-- Node6&#45;&gt;Node32 -->
<g id="edge51" class="edge">
<title>Node6&#45;&gt;Node32</title>
<path fill="none" stroke="midnightblue" d="M1505.96,-240.94C1536.41,-233.34 1577.58,-220.11 1609,-199 1632.53,-183.19 1652.98,-157.17 1664.91,-140.05"/>
<polygon fill="midnightblue" stroke="midnightblue" points="1667.94,-141.83 1670.63,-131.59 1662.13,-137.92 1667.94,-141.83"/>
</g>
<!-- Node35 -->
<g id="node35" class="node">
<title>Node35</title>
<g id="a_node35"><a xlink:href="BasicFunctors_8h_source.html" target="_top" xlink:title=" ">
<polygon fill="white" stroke="black" points="1903,-174 1903,-193 2053,-193 2053,-174 1903,-174"/>
<text text-anchor="middle" x="1978" y="-181" font-family="FreeSans" font-size="10.00">DGtal/base/BasicFunctors.h</text>
</a>
</g>
</g>
<!-- Node6&#45;&gt;Node35 -->
<g id="edge56" class="edge">
<title>Node6&#45;&gt;Node35</title>
<path fill="none" stroke="midnightblue" d="M1527.67,-242.11C1609.4,-233.01 1755.29,-216.56 1880,-199 1889.53,-197.66 1899.62,-196.12 1909.58,-194.57"/>
<polygon fill="midnightblue" stroke="midnightblue" points="1910.12,-198.02 1919.46,-193.01 1909.03,-191.11 1910.12,-198.02"/>
</g>
<!-- Node45 -->
<g id="node45" class="node">
<title>Node45</title>
<g id="a_node45"><a xlink:href="BasicArchetypes_8h_source.html" target="_top" xlink:title=" ">
<polygon fill="white" stroke="black" points="2577,-112.5 2577,-131.5 2741,-131.5 2741,-112.5 2577,-112.5"/>
<text text-anchor="middle" x="2659" y="-119.5" font-family="FreeSans" font-size="10.00">DGtal/base/BasicArchetypes.h</text>
</a>
</g>
</g>
<!-- Node6&#45;&gt;Node45 -->
<g id="edge72" class="edge">
<title>Node6&#45;&gt;Node45</title>
<path fill="none" stroke="midnightblue" d="M1527.66,-247.33C1702.28,-241.15 2186.28,-222.36 2344,-199 2445.58,-183.96 2562.46,-151.72 2621.17,-134.47"/>
<polygon fill="midnightblue" stroke="midnightblue" points="2622.5,-137.72 2631.1,-131.53 2620.51,-131.01 2622.5,-137.72"/>
</g>
<!-- Node46 -->
<g id="node46" class="node">
<title>Node46</title>
<g id="a_node46"><a xlink:href="Exceptions_8h_source.html" target="_top" xlink:title=" ">
<polygon fill="white" stroke="black" points="1464,-174 1464,-193 1600,-193 1600,-174 1464,-174"/>
<text text-anchor="middle" x="1532" y="-181" font-family="FreeSans" font-size="10.00">DGtal/base/Exceptions.h</text>
</a>
</g>
</g>
<!-- Node6&#45;&gt;Node46 -->
<g id="edge74" class="edge">
<title>Node6&#45;&gt;Node46</title>
<path fill="none" stroke="midnightblue" d="M1473.17,-240.73C1483.98,-230.4 1502.15,-213.04 1515.44,-200.33"/>
<polygon fill="midnightblue" stroke="midnightblue" points="1518.16,-202.57 1522.97,-193.13 1513.33,-197.51 1518.16,-202.57"/>
</g>
<!-- Node17&#45;&gt;Node2 -->
<g id="edge18" class="edge">
<title>Node17&#45;&gt;Node2</title>
<path fill="none" stroke="midnightblue" d="M857.6,-61.05C1006.41,-50.67 1405.97,-22.79 1534.55,-13.82"/>
<polygon fill="midnightblue" stroke="midnightblue" points="1535.01,-17.3 1544.74,-13.11 1534.52,-10.32 1535.01,-17.3"/>
</g>
<!-- Node18 -->
<g id="node18" class="node">
<title>Node18</title>
<g id="a_node18"><a xlink:title=" ">
<polygon fill="white" stroke="#bfbfbf" points="779,-0.5 779,-19.5 823,-19.5 823,-0.5 779,-0.5"/>
<text text-anchor="middle" x="801" y="-7.5" font-family="FreeSans" font-size="10.00">string</text>
</a>
</g>
</g>
<!-- Node17&#45;&gt;Node18 -->
<g id="edge19" class="edge">
<title>Node17&#45;&gt;Node18</title>
<path fill="none" stroke="midnightblue" d="M801,-56.08C801,-49.01 801,-38.86 801,-29.99"/>
<polygon fill="midnightblue" stroke="midnightblue" points="804.5,-29.75 801,-19.75 797.5,-29.75 804.5,-29.75"/>
</g>
<!-- Node19&#45;&gt;Node2 -->
<g id="edge21" class="edge">
<title>Node19&#45;&gt;Node2</title>
<path fill="none" stroke="midnightblue" d="M1201.07,-182.79C1293.74,-182.11 1477.27,-175.17 1522,-132 1546.66,-108.2 1520.16,-86.89 1535,-56 1540.3,-44.98 1549.11,-34.63 1557.11,-26.64"/>
<polygon fill="midnightblue" stroke="midnightblue" points="1559.81,-28.91 1564.69,-19.51 1555.01,-23.82 1559.81,-28.91"/>
</g>
<!-- Node19&#45;&gt;Node17 -->
<g id="edge25" class="edge">
<title>Node19&#45;&gt;Node17</title>
<path fill="none" stroke="midnightblue" d="M1110.06,-173.98C1100.02,-171.84 1089.12,-169.68 1079,-168 1012.54,-156.96 822.72,-182.38 778,-132 765.89,-118.36 776.35,-97.93 786.79,-83.62"/>
<polygon fill="midnightblue" stroke="midnightblue" points="789.66,-85.64 793.1,-75.62 784.16,-81.31 789.66,-85.64"/>
</g>
<!-- Node19&#45;&gt;Node18 -->
<g id="edge23" class="edge">
<title>Node19&#45;&gt;Node18</title>
<path fill="none" stroke="midnightblue" d="M1092.77,-174.58C1077.64,-172.4 1061.18,-170.08 1046,-168 984.5,-159.59 821.02,-165.87 769,-132 737.99,-111.81 717.71,-88.72 735,-56 742.48,-41.85 756.62,-31.32 769.9,-24.01"/>
<polygon fill="midnightblue" stroke="midnightblue" points="771.53,-27.11 778.87,-19.47 768.36,-20.87 771.53,-27.11"/>
</g>
<!-- Node20 -->
<g id="node20" class="node">
<title>Node20</title>
<g id="a_node20"><a xlink:title=" ">
<polygon fill="white" stroke="#bfbfbf" points="1017.5,-0.5 1017.5,-19.5 1074.5,-19.5 1074.5,-0.5 1017.5,-0.5"/>
<text text-anchor="middle" x="1046" y="-7.5" font-family="FreeSans" font-size="10.00">ostream</text>
</a>
</g>
</g>
<!-- Node19&#45;&gt;Node20 -->
<g id="edge22" class="edge">
<title>Node19&#45;&gt;Node20</title>
<path fill="none" stroke="midnightblue" d="M1109.33,-173.93C1099.49,-171.84 1088.87,-169.71 1079,-168 1019.79,-157.73 850.56,-177.23 811,-132 805.15,-125.31 806.11,-119.42 811,-112 822.77,-94.13 950.06,-45.9 1012.23,-23.17"/>
<polygon fill="midnightblue" stroke="midnightblue" points="1013.77,-26.33 1021.97,-19.62 1011.38,-19.75 1013.77,-26.33"/>
</g>
<!-- Node21 -->
<g id="node21" class="node">
<title>Node21</title>
<g id="a_node21"><a xlink:title=" ">
<polygon fill="white" stroke="#bfbfbf" points="949.5,-112.5 949.5,-131.5 992.5,-131.5 992.5,-112.5 949.5,-112.5"/>
<text text-anchor="middle" x="971" y="-119.5" font-family="FreeSans" font-size="10.00">stack</text>
</a>
</g>
</g>
<!-- Node19&#45;&gt;Node21 -->
<g id="edge24" class="edge">
<title>Node19&#45;&gt;Node21</title>
<path fill="none" stroke="midnightblue" d="M1121.78,-173.98C1090.34,-163.35 1036.59,-145.17 1002.48,-133.64"/>
<polygon fill="midnightblue" stroke="midnightblue" points="1003.17,-130.18 992.57,-130.29 1000.92,-136.81 1003.17,-130.18"/>
</g>
<!-- Node22 -->
<g id="node22" class="node">
<title>Node22</title>
<g id="a_node22"><a xlink:href="Clock_8h_source.html" target="_top" xlink:title=" ">
<polygon fill="white" stroke="black" points="1403,-112.5 1403,-131.5 1513,-131.5 1513,-112.5 1403,-112.5"/>
<text text-anchor="middle" x="1458" y="-119.5" font-family="FreeSans" font-size="10.00">DGtal/base/Clock.h</text>
</a>
</g>
</g>
<!-- Node19&#45;&gt;Node22 -->
<g id="edge26" class="edge">
<title>Node19&#45;&gt;Node22</title>
<path fill="none" stroke="midnightblue" d="M1191.56,-173.98C1247.45,-163.28 1343.23,-144.96 1403.44,-133.44"/>
<polygon fill="midnightblue" stroke="midnightblue" points="1404.36,-136.83 1413.52,-131.51 1403.04,-129.95 1404.36,-136.83"/>
</g>
<!-- Node25 -->
<g id="node25" class="node">
<title>Node25</title>
<g id="a_node25"><a xlink:href="TraceWriter_8h_source.html" target="_top" xlink:title=" ">
<polygon fill="white" stroke="black" points="1110.5,-56.5 1110.5,-75.5 1247.5,-75.5 1247.5,-56.5 1110.5,-56.5"/>
<text text-anchor="middle" x="1179" y="-63.5" font-family="FreeSans" font-size="10.00">DGtal/base/TraceWriter.h</text>
</a>
</g>
</g>
<!-- Node19&#45;&gt;Node25 -->
<g id="edge30" class="edge">
<title>Node19&#45;&gt;Node25</title>
<path fill="none" stroke="midnightblue" d="M1155.61,-173.75C1164.2,-164.34 1176.84,-148.49 1182,-132 1186.74,-116.84 1185.37,-98.72 1183.17,-85.47"/>
<polygon fill="midnightblue" stroke="midnightblue" points="1186.6,-84.79 1181.24,-75.65 1179.73,-86.14 1186.6,-84.79"/>
</g>
<!-- Node19&#45;&gt;Node26 -->
<g id="edge33" class="edge">
<title>Node19&#45;&gt;Node26</title>
<path fill="none" stroke="midnightblue" d="M1139.12,-173.98C1130.71,-164.87 1117.18,-150.24 1106.77,-138.98"/>
<polygon fill="midnightblue" stroke="midnightblue" points="1109.22,-136.48 1099.87,-131.51 1104.08,-141.23 1109.22,-136.48"/>
</g>
<!-- Node19&#45;&gt;Node27 -->
<g id="edge38" class="edge">
<title>Node19&#45;&gt;Node27</title>
<path fill="none" stroke="midnightblue" d="M1092.89,-175.51C1075,-172.98 1055.11,-170.2 1037,-168 903.23,-151.76 746.71,-137.19 659.73,-129.27"/>
<polygon fill="midnightblue" stroke="midnightblue" points="660.01,-125.78 649.74,-128.36 659.38,-132.75 660.01,-125.78"/>
</g>
<!-- Node29 -->
<g id="node29" class="node">
<title>Node29</title>
<g id="a_node29"><a xlink:href="Trace_8ih_source.html" target="_top" xlink:title=" ">
<polygon fill="white" stroke="black" points="820.5,-112.5 820.5,-131.5 931.5,-131.5 931.5,-112.5 820.5,-112.5"/>
<text text-anchor="middle" x="876" y="-119.5" font-family="FreeSans" font-size="10.00">DGtal/base/Trace.ih</text>
</a>
</g>
</g>
<!-- Node19&#45;&gt;Node29 -->
<g id="edge42" class="edge">
<title>Node19&#45;&gt;Node29</title>
<path fill="none" stroke="midnightblue" d="M1108.17,-173.98C1059.88,-163.37 977.39,-145.26 924.85,-133.72"/>
<polygon fill="midnightblue" stroke="midnightblue" points="925.27,-130.24 914.76,-131.51 923.77,-137.07 925.27,-130.24"/>
</g>
<!-- Node22&#45;&gt;Node2 -->
<g id="edge27" class="edge">
<title>Node22&#45;&gt;Node2</title>
<path fill="none" stroke="midnightblue" d="M1457.19,-112.38C1456.39,-98.86 1456.82,-72.49 1470,-56 1486,-35.98 1512.6,-24.71 1535.02,-18.45"/>
<polygon fill="midnightblue" stroke="midnightblue" points="1536.15,-21.77 1544.97,-15.91 1534.42,-14.99 1536.15,-21.77"/>
</g>
<!-- Node23 -->
<g id="node23" class="node">
<title>Node23</title>
<g id="a_node23"><a xlink:title=" ">
<polygon fill="white" stroke="#bfbfbf" points="1550.5,-56.5 1550.5,-75.5 1599.5,-75.5 1599.5,-56.5 1550.5,-56.5"/>
<text text-anchor="middle" x="1575" y="-63.5" font-family="FreeSans" font-size="10.00">cstdlib</text>
</a>
</g>
</g>
<!-- Node22&#45;&gt;Node23 -->
<g id="edge28" class="edge">
<title>Node22&#45;&gt;Node23</title>
<path fill="none" stroke="midnightblue" d="M1476.54,-112.44C1495.62,-103.64 1525.57,-89.81 1547.44,-79.72"/>
<polygon fill="midnightblue" stroke="midnightblue" points="1548.93,-82.88 1556.55,-75.52 1546,-76.53 1548.93,-82.88"/>
</g>
<!-- Node24 -->
<g id="node24" class="node">
<title>Node24</title>
<g id="a_node24"><a xlink:href="Clock_8ih_source.html" target="_top" xlink:title=" ">
<polygon fill="white" stroke="black" points="1304.5,-56.5 1304.5,-75.5 1417.5,-75.5 1417.5,-56.5 1304.5,-56.5"/>
<text text-anchor="middle" x="1361" y="-63.5" font-family="FreeSans" font-size="10.00">DGtal/base/Clock.ih</text>
</a>
</g>
</g>
<!-- Node22&#45;&gt;Node24 -->
<g id="edge29" class="edge">
<title>Node22&#45;&gt;Node24</title>
<path fill="none" stroke="midnightblue" d="M1442.42,-112.32C1427,-103.74 1403.19,-90.49 1385.29,-80.52"/>
<polygon fill="midnightblue" stroke="midnightblue" points="1386.99,-77.46 1376.55,-75.65 1383.58,-83.58 1386.99,-77.46"/>
</g>
<!-- Node25&#45;&gt;Node2 -->
<g id="edge31" class="edge">
<title>Node25&#45;&gt;Node2</title>
<path fill="none" stroke="midnightblue" d="M1241.75,-56.44C1323.89,-45.24 1465.54,-25.93 1534.68,-16.5"/>
<polygon fill="midnightblue" stroke="midnightblue" points="1535.3,-19.95 1544.73,-15.13 1534.35,-13.01 1535.3,-19.95"/>
</g>
<!-- Node25&#45;&gt;Node20 -->
<g id="edge32" class="edge">
<title>Node25&#45;&gt;Node20</title>
<path fill="none" stroke="midnightblue" d="M1157.93,-56.44C1135.94,-47.52 1101.27,-33.44 1076.34,-23.32"/>
<polygon fill="midnightblue" stroke="midnightblue" points="1077.56,-20.04 1066.98,-19.52 1074.92,-26.52 1077.56,-20.04"/>
</g>
<!-- Node26&#45;&gt;Node2 -->
<g id="edge34" class="edge">
<title>Node26&#45;&gt;Node2</title>
<path fill="none" stroke="midnightblue" d="M1090.22,-112.37C1087.88,-98.33 1085.7,-70.66 1101,-56 1132.05,-26.25 1425.76,-15.13 1534.64,-12.01"/>
<polygon fill="midnightblue" stroke="midnightblue" points="1534.99,-15.51 1544.89,-11.73 1534.8,-8.51 1534.99,-15.51"/>
</g>
<!-- Node26&#45;&gt;Node17 -->
<g id="edge37" class="edge">
<title>Node26&#45;&gt;Node17</title>
<path fill="none" stroke="midnightblue" d="M1045.89,-112.44C994.59,-102.92 911.73,-87.55 856.81,-77.36"/>
<polygon fill="midnightblue" stroke="midnightblue" points="857.36,-73.9 846.89,-75.52 856.09,-80.78 857.36,-73.9"/>
</g>
<!-- Node26&#45;&gt;Node18 -->
<g id="edge35" class="edge">
<title>Node26&#45;&gt;Node18</title>
<path fill="none" stroke="midnightblue" d="M1069.17,-112.37C1017.62,-92.88 892.11,-45.44 832.91,-23.06"/>
<polygon fill="midnightblue" stroke="midnightblue" points="833.92,-19.7 823.33,-19.44 831.44,-26.25 833.92,-19.7"/>
</g>
<!-- Node26&#45;&gt;Node25 -->
<g id="edge36" class="edge">
<title>Node26&#45;&gt;Node25</title>
<path fill="none" stroke="midnightblue" d="M1105.98,-112.32C1119.55,-103.9 1140.38,-90.97 1156.32,-81.07"/>
<polygon fill="midnightblue" stroke="midnightblue" points="1158.41,-83.9 1165.06,-75.65 1154.71,-77.95 1158.41,-83.9"/>
</g>
<!-- Node27&#45;&gt;Node18 -->
<g id="edge41" class="edge">
<title>Node27&#45;&gt;Node18</title>
<path fill="none" stroke="midnightblue" d="M606.49,-112.29C626.81,-99.33 666.67,-74.49 702,-56 724.61,-44.17 750.94,-32.28 770.76,-23.7"/>
<polygon fill="midnightblue" stroke="midnightblue" points="772.39,-26.81 780.2,-19.65 769.63,-20.38 772.39,-26.81"/>
</g>
<!-- Node27&#45;&gt;Node19 -->
<g id="edge39" class="edge">
<title>Node27&#45;&gt;Node19</title>
<path fill="none" stroke="midnightblue" d="M649.61,-127.34C736.99,-134.64 909.46,-150.33 1055,-168 1066.11,-169.35 1077.88,-170.91 1089.18,-172.51"/>
<polygon fill="midnightblue" stroke="midnightblue" points="1089,-176.02 1099.4,-173.97 1090,-169.09 1089,-176.02"/>
</g>
<!-- Node28 -->
<g id="node28" class="node">
<title>Node28</title>
<g id="a_node28"><a xlink:title=" ">
<polygon fill="white" stroke="#bfbfbf" points="502.5,-56.5 502.5,-75.5 649.5,-75.5 649.5,-56.5 502.5,-56.5"/>
<text text-anchor="middle" x="576" y="-63.5" font-family="FreeSans" font-size="10.00">boost/current_function.hpp</text>
</a>
</g>
</g>
<!-- Node27&#45;&gt;Node28 -->
<g id="edge40" class="edge">
<title>Node27&#45;&gt;Node28</title>
<path fill="none" stroke="midnightblue" d="M590.19,-112.08C587.92,-104.85 584.63,-94.41 581.79,-85.4"/>
<polygon fill="midnightblue" stroke="midnightblue" points="585.1,-84.24 578.75,-75.75 578.42,-86.34 585.1,-84.24"/>
</g>
<!-- Node30&#45;&gt;Node2 -->
<g id="edge45" class="edge">
<title>Node30&#45;&gt;Node2</title>
<path fill="none" stroke="midnightblue" d="M1301.44,-112.28C1293.5,-98.62 1281.31,-72.07 1295,-56 1325.3,-20.44 1464.52,-12.87 1534.55,-11.34"/>
<polygon fill="midnightblue" stroke="midnightblue" points="1534.83,-14.83 1544.76,-11.15 1534.69,-7.83 1534.83,-14.83"/>
</g>
<!-- Node30&#45;&gt;Node18 -->
<g id="edge46" class="edge">
<title>Node30&#45;&gt;Node18</title>
<path fill="none" stroke="midnightblue" d="M1267.72,-112.46C1170.88,-91.41 922.14,-37.33 833.21,-18"/>
<polygon fill="midnightblue" stroke="midnightblue" points="833.69,-14.53 823.18,-15.82 832.21,-21.37 833.69,-14.53"/>
</g>
<!-- Node30&#45;&gt;Node25 -->
<g id="edge47" class="edge">
<title>Node30&#45;&gt;Node25</title>
<path fill="none" stroke="midnightblue" d="M1286.72,-112.44C1265.65,-103.56 1232.48,-89.56 1208.51,-79.45"/>
<polygon fill="midnightblue" stroke="midnightblue" points="1209.76,-76.18 1199.19,-75.52 1207.04,-82.63 1209.76,-76.18"/>
</g>
<!-- Node31&#45;&gt;Node2 -->
<g id="edge50" class="edge">
<title>Node31&#45;&gt;Node2</title>
<path fill="none" stroke="midnightblue" d="M2552.64,-113.83C2602.14,-107.27 2661.42,-95.54 2677,-76 2682.54,-69.05 2683.16,-62.41 2677,-56 2639.52,-16.96 1808.7,-11.78 1615.08,-11.1"/>
<polygon fill="midnightblue" stroke="midnightblue" points="1615.06,-7.6 1605.05,-11.07 1615.04,-14.6 1615.06,-7.6"/>
</g>
<!-- Node32&#45;&gt;Node2 -->
<g id="edge53" class="edge">
<title>Node32&#45;&gt;Node2</title>
<path fill="none" stroke="midnightblue" d="M1668.07,-112.37C1651.19,-93.97 1611.43,-50.67 1589.74,-27.05"/>
<polygon fill="midnightblue" stroke="midnightblue" points="1592.23,-24.59 1582.89,-19.59 1587.07,-29.32 1592.23,-24.59"/>
</g>
<!-- Node32&#45;&gt;Node23 -->
<g id="edge52" class="edge">
<title>Node32&#45;&gt;Node23</title>
<path fill="none" stroke="midnightblue" d="M1659.77,-112.32C1643.65,-103.7 1618.7,-90.36 1600.04,-80.39"/>
<polygon fill="midnightblue" stroke="midnightblue" points="1601.66,-77.28 1591.19,-75.65 1598.36,-83.46 1601.66,-77.28"/>
</g>
<!-- Node33 -->
<g id="node33" class="node">
<title>Node33</title>
<g id="a_node33"><a xlink:title=" ">
<polygon fill="white" stroke="#bfbfbf" points="1733.5,-56.5 1733.5,-75.5 1834.5,-75.5 1834.5,-56.5 1733.5,-56.5"/>
<text text-anchor="middle" x="1784" y="-63.5" font-family="FreeSans" font-size="10.00">boost/cstdint.hpp</text>
</a>
</g>
</g>
<!-- Node32&#45;&gt;Node33 -->
<g id="edge54" class="edge">
<title>Node32&#45;&gt;Node33</title>
<path fill="none" stroke="midnightblue" d="M1693.35,-112.32C1710.67,-103.66 1737.52,-90.24 1757.5,-80.25"/>
<polygon fill="midnightblue" stroke="midnightblue" points="1759.31,-83.26 1766.69,-75.65 1756.18,-77 1759.31,-83.26"/>
</g>
<!-- Node34 -->
<g id="node34" class="node">
<title>Node34</title>
<g id="a_node34"><a xlink:title=" ">
<polygon fill="white" stroke="#bfbfbf" points="1656.5,-56.5 1656.5,-75.5 1715.5,-75.5 1715.5,-56.5 1656.5,-56.5"/>
<text text-anchor="middle" x="1686" y="-63.5" font-family="FreeSans" font-size="10.00">gmpxx.h</text>
</a>
</g>
</g>
<!-- Node32&#45;&gt;Node34 -->
<g id="edge55" class="edge">
<title>Node32&#45;&gt;Node34</title>
<path fill="none" stroke="midnightblue" d="M1677.65,-112.08C1678.98,-104.93 1680.88,-94.64 1682.54,-85.69"/>
<polygon fill="midnightblue" stroke="midnightblue" points="1686,-86.22 1684.38,-75.75 1679.12,-84.95 1686,-86.22"/>
</g>
<!-- Node35&#45;&gt;Node6 -->
<g id="edge67" class="edge">
<title>Node35&#45;&gt;Node6</title>
<path fill="none" stroke="midnightblue" d="M1936.87,-193.01C1924.41,-195.08 1910.71,-197.21 1898,-199 1772.02,-216.74 1624.44,-233.34 1537.82,-242.39"/>
<polygon fill="midnightblue" stroke="midnightblue" points="1537.41,-238.91 1527.82,-243.43 1538.13,-245.88 1537.41,-238.91"/>
</g>
<!-- Node35&#45;&gt;Node15 -->
<g id="edge59" class="edge">
<title>Node35&#45;&gt;Node15</title>
<path fill="none" stroke="midnightblue" d="M1965.25,-173.98C1950.97,-164.43 1927.6,-148.81 1910.49,-137.37"/>
<polygon fill="midnightblue" stroke="midnightblue" points="1911.99,-134.16 1901.73,-131.51 1908.1,-139.98 1911.99,-134.16"/>
</g>
<!-- Node36 -->
<g id="node36" class="node">
<title>Node36</title>
<g id="a_node36"><a xlink:title=" ">
<polygon fill="white" stroke="#bfbfbf" points="2248,-56.5 2248,-75.5 2312,-75.5 2312,-56.5 2248,-56.5"/>
<text text-anchor="middle" x="2280" y="-63.5" font-family="FreeSans" font-size="10.00">algorithm</text>
</a>
</g>
</g>
<!-- Node35&#45;&gt;Node36 -->
<g id="edge57" class="edge">
<title>Node35&#45;&gt;Node36</title>
<path fill="none" stroke="midnightblue" d="M2003.57,-173.93C2030.82,-164.54 2075.04,-148.61 2112,-132 2129.41,-124.18 2132.49,-119.59 2150,-112 2180.22,-98.91 2215.6,-86.86 2241.81,-78.54"/>
<polygon fill="midnightblue" stroke="midnightblue" points="2242.89,-81.87 2251.38,-75.53 2240.79,-75.19 2242.89,-81.87"/>
</g>
<!-- Node37 -->
<g id="node37" class="node">
<title>Node37</title>
<g id="a_node37"><a xlink:title=" ">
<polygon fill="white" stroke="#bfbfbf" points="2159.5,-112.5 2159.5,-131.5 2224.5,-131.5 2224.5,-112.5 2159.5,-112.5"/>
<text text-anchor="middle" x="2192" y="-119.5" font-family="FreeSans" font-size="10.00">functional</text>
</a>
</g>
</g>
<!-- Node35&#45;&gt;Node37 -->
<g id="edge58" class="edge">
<title>Node35&#45;&gt;Node37</title>
<path fill="none" stroke="midnightblue" d="M2008.66,-173.98C2046.24,-163.53 2110.04,-145.79 2151.6,-134.23"/>
<polygon fill="midnightblue" stroke="midnightblue" points="2152.7,-137.56 2161.4,-131.51 2150.82,-130.82 2152.7,-137.56"/>
</g>
<!-- Node38 -->
<g id="node38" class="node">
<title>Node38</title>
<g id="a_node38"><a xlink:href="Color_8h_source.html" target="_top" xlink:title=" ">
<polygon fill="white" stroke="black" points="2293.5,-112.5 2293.5,-131.5 2386.5,-131.5 2386.5,-112.5 2293.5,-112.5"/>
<text text-anchor="middle" x="2340" y="-119.5" font-family="FreeSans" font-size="10.00">DGtal/io/Color.h</text>
</a>
</g>
</g>
<!-- Node35&#45;&gt;Node38 -->
<g id="edge60" class="edge">
<title>Node35&#45;&gt;Node38</title>
<path fill="none" stroke="midnightblue" d="M2029.87,-173.98C2097.13,-162.92 2214.05,-143.7 2283.51,-132.29"/>
<polygon fill="midnightblue" stroke="midnightblue" points="2284.1,-135.73 2293.4,-130.66 2282.97,-128.83 2284.1,-135.73"/>
</g>
<!-- Node42 -->
<g id="node42" class="node">
<title>Node42</title>
<g id="a_node42"><a xlink:href="BasicBoolFunctors_8h_source.html" target="_top" xlink:title=" ">
<polygon fill="white" stroke="black" points="1931,-112.5 1931,-131.5 2103,-131.5 2103,-112.5 1931,-112.5"/>
<text text-anchor="middle" x="2017" y="-119.5" font-family="FreeSans" font-size="10.00">DGtal/base/BasicBoolFunctors.h</text>
</a>
</g>
</g>
<!-- Node35&#45;&gt;Node42 -->
<g id="edge68" class="edge">
<title>Node35&#45;&gt;Node42</title>
<path fill="none" stroke="midnightblue" d="M1983.59,-173.98C1989.38,-165.14 1998.59,-151.09 2005.87,-139.98"/>
<polygon fill="midnightblue" stroke="midnightblue" points="2008.87,-141.79 2011.42,-131.51 2003.01,-137.95 2008.87,-141.79"/>
</g>
<!-- Node38&#45;&gt;Node2 -->
<g id="edge61" class="edge">
<title>Node38&#45;&gt;Node2</title>
<path fill="none" stroke="midnightblue" d="M2340.35,-112.14C2340.38,-97.77 2338.1,-69.64 2321,-56 2265.71,-11.89 1763.42,-10.28 1615.69,-10.77"/>
<polygon fill="midnightblue" stroke="midnightblue" points="1615.26,-7.27 1605.28,-10.81 1615.29,-14.27 1615.26,-7.27"/>
</g>
<!-- Node38&#45;&gt;Node6 -->
<g id="edge62" class="edge">
<title>Node38&#45;&gt;Node6</title>
<path fill="none" stroke="midnightblue" d="M2293.48,-128.94C2233.73,-137.04 2133.69,-152.35 2100,-168 2080.23,-177.18 2082.21,-190.83 2062,-199 1968.77,-236.7 1676.1,-246.26 1537.79,-248.68"/>
<polygon fill="midnightblue" stroke="midnightblue" points="1537.65,-245.18 1527.71,-248.85 1537.76,-252.18 1537.65,-245.18"/>
</g>
<!-- Node38&#45;&gt;Node36 -->
<g id="edge64" class="edge">
<title>Node38&#45;&gt;Node36</title>
<path fill="none" stroke="midnightblue" d="M2330.36,-112.32C2321.49,-104.34 2308.13,-92.31 2297.39,-82.65"/>
<polygon fill="midnightblue" stroke="midnightblue" points="2299.59,-79.92 2289.82,-75.83 2294.91,-85.13 2299.59,-79.92"/>
</g>
<!-- Node39 -->
<g id="node39" class="node">
<title>Node39</title>
<g id="a_node39"><a xlink:title=" ">
<polygon fill="white" stroke="#bfbfbf" points="2368.5,-56.5 2368.5,-75.5 2493.5,-75.5 2493.5,-56.5 2368.5,-56.5"/>
<text text-anchor="middle" x="2431" y="-63.5" font-family="FreeSans" font-size="10.00">boost/lexical_cast.hpp</text>
</a>
</g>
</g>
<!-- Node38&#45;&gt;Node39 -->
<g id="edge63" class="edge">
<title>Node38&#45;&gt;Node39</title>
<path fill="none" stroke="midnightblue" d="M2354.62,-112.32C2368.95,-103.82 2391.01,-90.73 2407.75,-80.8"/>
<polygon fill="midnightblue" stroke="midnightblue" points="2409.6,-83.77 2416.42,-75.65 2406.03,-77.75 2409.6,-83.77"/>
</g>
<!-- Node40 -->
<g id="node40" class="node">
<title>Node40</title>
<g id="a_node40"><a xlink:title=" ">
<polygon fill="white" stroke="#bfbfbf" points="2512,-56.5 2512,-75.5 2554,-75.5 2554,-56.5 2512,-56.5"/>
<text text-anchor="middle" x="2533" y="-63.5" font-family="FreeSans" font-size="10.00">array</text>
</a>
</g>
</g>
<!-- Node38&#45;&gt;Node40 -->
<g id="edge65" class="edge">
<title>Node38&#45;&gt;Node40</title>
<path fill="none" stroke="midnightblue" d="M2371.61,-112.5C2402.5,-104.14 2451.1,-90.85 2501.87,-76.28"/>
<polygon fill="midnightblue" stroke="midnightblue" points="2503.07,-79.58 2511.71,-73.45 2501.13,-72.85 2503.07,-79.58"/>
</g>
<!-- Node41 -->
<g id="node41" class="node">
<title>Node41</title>
<g id="a_node41"><a xlink:href="Color_8ih_source.html" target="_top" xlink:title=" ">
<polygon fill="white" stroke="black" points="2572,-56.5 2572,-75.5 2668,-75.5 2668,-56.5 2572,-56.5"/>
<text text-anchor="middle" x="2620" y="-63.5" font-family="FreeSans" font-size="10.00">DGtal/io/Color.ih</text>
</a>
</g>
</g>
<!-- Node38&#45;&gt;Node41 -->
<g id="edge66" class="edge">
<title>Node38&#45;&gt;Node41</title>
<path fill="none" stroke="midnightblue" d="M2384.37,-112.44C2433.62,-102.94 2513.13,-87.61 2565.97,-77.42"/>
<polygon fill="midnightblue" stroke="midnightblue" points="2566.68,-80.85 2575.84,-75.52 2565.36,-73.97 2566.68,-80.85"/>
</g>
<!-- Node42&#45;&gt;Node2 -->
<g id="edge69" class="edge">
<title>Node42&#45;&gt;Node2</title>
<path fill="none" stroke="midnightblue" d="M1998.4,-112.38C1978.87,-103.32 1947.28,-88.67 1920,-76 1900.88,-67.12 1897.19,-62.06 1877,-56 1785.95,-28.67 1674.26,-17.55 1615.53,-13.34"/>
<polygon fill="midnightblue" stroke="midnightblue" points="1615.41,-9.82 1605.2,-12.63 1614.94,-16.8 1615.41,-9.82"/>
</g>
<!-- Node43 -->
<g id="node43" class="node">
<title>Node43</title>
<g id="a_node43"><a xlink:title=" ">
<polygon fill="white" stroke="#bfbfbf" points="2122.5,-56.5 2122.5,-75.5 2229.5,-75.5 2229.5,-56.5 2122.5,-56.5"/>
<text text-anchor="middle" x="2176" y="-63.5" font-family="FreeSans" font-size="10.00">boost/function.hpp</text>
</a>
</g>
</g>
<!-- Node42&#45;&gt;Node43 -->
<g id="edge70" class="edge">
<title>Node42&#45;&gt;Node43</title>
<path fill="none" stroke="midnightblue" d="M2042.19,-112.44C2068.94,-103.36 2111.4,-88.94 2141.31,-78.78"/>
<polygon fill="midnightblue" stroke="midnightblue" points="2142.58,-82.05 2150.92,-75.52 2140.33,-75.42 2142.58,-82.05"/>
</g>
<!-- Node44 -->
<g id="node44" class="node">
<title>Node44</title>
<g id="a_node44"><a xlink:href="BasicBoolFunctors_8ih_source.html" target="_top" xlink:title=" ">
<polygon fill="white" stroke="black" points="1929.5,-56.5 1929.5,-75.5 2104.5,-75.5 2104.5,-56.5 1929.5,-56.5"/>
<text text-anchor="middle" x="2017" y="-63.5" font-family="FreeSans" font-size="10.00">DGtal/base/BasicBoolFunctors.ih</text>
</a>
</g>
</g>
<!-- Node42&#45;&gt;Node44 -->
<g id="edge71" class="edge">
<title>Node42&#45;&gt;Node44</title>
<path fill="none" stroke="midnightblue" d="M2017,-112.08C2017,-105.01 2017,-94.86 2017,-85.99"/>
<polygon fill="midnightblue" stroke="midnightblue" points="2020.5,-85.75 2017,-75.75 2013.5,-85.75 2020.5,-85.75"/>
</g>
<!-- Node45&#45;&gt;Node2 -->
<g id="edge73" class="edge">
<title>Node45&#45;&gt;Node2</title>
<path fill="none" stroke="midnightblue" d="M2669.41,-112.48C2684.57,-99.09 2709.23,-72.9 2693,-56 2654.95,-16.39 1811.18,-11.64 1615.34,-11.08"/>
<polygon fill="midnightblue" stroke="midnightblue" points="1615.21,-7.58 1605.2,-11.05 1615.19,-14.58 1615.21,-7.58"/>
</g>
<!-- Node46&#45;&gt;Node2 -->
<g id="edge75" class="edge">
<title>Node46&#45;&gt;Node2</title>
<path fill="none" stroke="midnightblue" d="M1537.27,-173.96C1542.94,-164.22 1551.61,-147.63 1555,-132 1556.89,-123.31 1556.64,-120.74 1555,-112 1550.27,-86.78 1532.84,-80.32 1541,-56 1544.6,-45.25 1551.9,-35.02 1558.82,-27.04"/>
<polygon fill="midnightblue" stroke="midnightblue" points="1561.48,-29.32 1565.71,-19.61 1556.35,-24.56 1561.48,-29.32"/>
</g>
</g>
</svg>
        <g id="navigator" transform="translate(0 0)" fill="#404254">
                <rect fill="#f2f5e9" fill-opacity="0.5" stroke="#606060" stroke-width=".5" x="0" y="0" width="60" height="60"/>
                <use id="zoomplus" xlink:href="#zoomPlus" x="17" y="9" onmousedown="handleZoom(evt,'in')"/>
                <use id="zoomminus" xlink:href="#zoomMin" x="42" y="9" onmousedown="handleZoom(evt,'out')"/>
                <use id="reset" xlink:href="#resetDef" x="30" y="36" onmousedown="handleReset()"/>
                <g id="arrowUp" xlink:href="#dirArrow" transform="translate(30 24)" onmousedown="handlePan(0,-1)">
                  <use xlink:href="#rim" fill="#404040">
                        <set attributeName="fill" to="#808080" begin="arrowUp.mouseover" end="arrowUp.mouseout"/>
                  </use>
                  <path fill="none" stroke="white" stroke-width="1.5" d="M0,-3.0v7 M-2.5,-0.5L0,-3.0L2.5,-0.5"/>
                </g>
                <g id="arrowRight" xlink:href="#dirArrow" transform="rotate(90) translate(36 -43)" onmousedown="handlePan(1,0)">
                  <use xlink:href="#rim" fill="#404040">
                        <set attributeName="fill" to="#808080" begin="arrowRight.mouseover" end="arrowRight.mouseout"/>
                  </use>
                  <path fill="none" stroke="white" stroke-width="1.5" d="M0,-3.0v7 M-2.5,-0.5L0,-3.0L2.5,-0.5"/>
                </g>
                <g id="arrowDown" xlink:href="#dirArrow" transform="rotate(180) translate(-30 -48)" onmousedown="handlePan(0,1)">
                  <use xlink:href="#rim" fill="#404040">
                        <set attributeName="fill" to="#808080" begin="arrowDown.mouseover" end="arrowDown.mouseout"/>
                  </use>
                  <path fill="none" stroke="white" stroke-width="1.5" d="M0,-3.0v7 M-2.5,-0.5L0,-3.0L2.5,-0.5"/>
                </g>
                <g id="arrowLeft" xlink:href="#dirArrow" transform="rotate(270) translate(-36 17)" onmousedown="handlePan(-1,0)">
                  <use xlink:href="#rim" fill="#404040">
                        <set attributeName="fill" to="#808080" begin="arrowLeft.mouseover" end="arrowLeft.mouseout"/>
                  </use>
                  <path fill="none" stroke="white" stroke-width="1.5" d="M0,-3.0v7 M-2.5,-0.5L0,-3.0L2.5,-0.5"/>
                </g>
        </g>
        <svg viewBox="0 0 15 15" width="100%" height="30px" preserveAspectRatio="xMaxYMin meet">
         <g id="arrow_out" transform="scale(0.3 0.3)">
          <a xlink:href="testPartialTemplateSpecialization_8cpp__incl_org.svg" target="_base">
           <rect id="button" ry="5" rx="5" y="6" x="6" height="38" width="38"
                fill="#f2f5e9" fill-opacity="0.5" stroke="#606060" stroke-width="1.0"/>
           <path id="arrow"
             d="M 11.500037,31.436501 C 11.940474,20.09759 22.043105,11.32322 32.158766,21.979434 L 37.068811,17.246167 C 37.068811,17.246167 37.088388,32 37.088388,32 L 22.160133,31.978069 C 22.160133,31.978069 26.997745,27.140456 26.997745,27.140456 C 18.528582,18.264221 13.291696,25.230495 11.500037,31.436501 z"
             style="fill:#404040;"/>
          </a>
         </g>
        </svg>
</svg>
