<?xml version="1.0" encoding="UTF-8" standalone="no"?>
<!DOCTYPE svg PUBLIC "-//W3C//DTD SVG 1.1//EN"
 "http://www.w3.org/Graphics/SVG/1.1/DTD/svg11.dtd">
<!-- Generated by graphviz version 2.43.0 (0)
 -->
<!-- Title: testBits.cpp Pages: 1 -->
<svg width="2417pt" height="431pt"
 viewBox="0.00 0.00 2417.03 431.00" xmlns="http://www.w3.org/2000/svg" xmlns:xlink="http://www.w3.org/1999/xlink">
<g id="graph0" class="graph" transform="scale(1 1) rotate(0) translate(4 427)">
<title>testBits.cpp</title>
<polygon fill="white" stroke="transparent" points="-4,4 -4,-427 2413.03,-427 2413.03,4 -4,4"/>
<!-- Node1 -->
<g id="node1" class="node">
<title>Node1</title>
<g id="a_node1"><a xlink:title=" ">
<polygon fill="#bfbfbf" stroke="black" points="1147.04,-403.5 1147.04,-422.5 1221.04,-422.5 1221.04,-403.5 1147.04,-403.5"/>
<text text-anchor="middle" x="1184.04" y="-410.5" font-family="FreeSans" font-size="10.00">testBits.cpp</text>
</a>
</g>
</g>
<!-- Node2 -->
<g id="node2" class="node">
<title>Node2</title>
<g id="a_node2"><a xlink:title=" ">
<polygon fill="white" stroke="#bfbfbf" points="972.04,-347.5 972.04,-366.5 1018.04,-366.5 1018.04,-347.5 972.04,-347.5"/>
<text text-anchor="middle" x="995.04" y="-354.5" font-family="FreeSans" font-size="10.00">cstdio</text>
</a>
</g>
</g>
<!-- Node1&#45;&gt;Node2 -->
<g id="edge1" class="edge">
<title>Node1&#45;&gt;Node2</title>
<path fill="none" stroke="midnightblue" d="M1154.09,-403.44C1119.79,-393.65 1063.77,-377.64 1028.19,-367.47"/>
<polygon fill="midnightblue" stroke="midnightblue" points="1028.87,-364.03 1018.29,-364.64 1026.94,-370.76 1028.87,-364.03"/>
</g>
<!-- Node3 -->
<g id="node3" class="node">
<title>Node3</title>
<g id="a_node3"><a xlink:title=" ">
<polygon fill="white" stroke="#bfbfbf" points="2202.54,-112.5 2202.54,-131.5 2249.54,-131.5 2249.54,-112.5 2202.54,-112.5"/>
<text text-anchor="middle" x="2226.04" y="-119.5" font-family="FreeSans" font-size="10.00">cmath</text>
</a>
</g>
</g>
<!-- Node1&#45;&gt;Node3 -->
<g id="edge2" class="edge">
<title>Node1&#45;&gt;Node3</title>
<path fill="none" stroke="midnightblue" d="M1221.33,-411.82C1400.71,-410.45 2166.04,-398.93 2166.04,-302 2166.04,-302 2166.04,-302 2166.04,-244 2166.04,-203.01 2194.01,-161.59 2211.75,-139.43"/>
<polygon fill="midnightblue" stroke="midnightblue" points="2214.5,-141.6 2218.19,-131.67 2209.11,-137.13 2214.5,-141.6"/>
</g>
<!-- Node4 -->
<g id="node4" class="node">
<title>Node4</title>
<g id="a_node4"><a xlink:title=" ">
<polygon fill="white" stroke="#bfbfbf" points="1128.04,-0.5 1128.04,-19.5 1188.04,-19.5 1188.04,-0.5 1128.04,-0.5"/>
<text text-anchor="middle" x="1158.04" y="-7.5" font-family="FreeSans" font-size="10.00">iostream</text>
</a>
</g>
</g>
<!-- Node1&#45;&gt;Node4 -->
<g id="edge3" class="edge">
<title>Node1&#45;&gt;Node4</title>
<path fill="none" stroke="midnightblue" d="M1221.2,-411.93C1342.99,-411.31 1740.9,-406.21 2067.04,-367 2220.22,-348.59 2408.04,-456.28 2408.04,-302 2408.04,-302 2408.04,-302 2408.04,-121 2408.04,-90.77 2412.02,-74.4 2388.04,-56 2339.81,-19 1405.56,-12.22 1198.46,-11.17"/>
<polygon fill="midnightblue" stroke="midnightblue" points="1198.35,-7.67 1188.33,-11.12 1198.31,-14.67 1198.35,-7.67"/>
</g>
<!-- Node5 -->
<g id="node5" class="node">
<title>Node5</title>
<g id="a_node5"><a xlink:href="Common_8h_source.html" target="_top" xlink:title=" ">
<polygon fill="white" stroke="black" points="1059.54,-235.5 1059.54,-254.5 1186.54,-254.5 1186.54,-235.5 1059.54,-235.5"/>
<text text-anchor="middle" x="1123.04" y="-242.5" font-family="FreeSans" font-size="10.00">DGtal/base/Common.h</text>
</a>
</g>
</g>
<!-- Node1&#45;&gt;Node5 -->
<g id="edge4" class="edge">
<title>Node1&#45;&gt;Node5</title>
<path fill="none" stroke="midnightblue" d="M1164.78,-403.46C1150.67,-396.05 1132.55,-383.85 1124.04,-367 1107.36,-333.99 1113.15,-289.16 1118.39,-264.38"/>
<polygon fill="midnightblue" stroke="midnightblue" points="1121.82,-265.05 1120.67,-254.52 1115,-263.47 1121.82,-265.05"/>
</g>
<!-- Node45 -->
<g id="node45" class="node">
<title>Node45</title>
<g id="a_node45"><a xlink:href="Bits_8h_source.html" target="_top" xlink:title=" ">
<polygon fill="white" stroke="black" points="1133.54,-347.5 1133.54,-366.5 1234.54,-366.5 1234.54,-347.5 1133.54,-347.5"/>
<text text-anchor="middle" x="1184.04" y="-354.5" font-family="FreeSans" font-size="10.00">DGtal/base/Bits.h</text>
</a>
</g>
</g>
<!-- Node1&#45;&gt;Node45 -->
<g id="edge75" class="edge">
<title>Node1&#45;&gt;Node45</title>
<path fill="none" stroke="midnightblue" d="M1184.04,-403.08C1184.04,-396.01 1184.04,-385.86 1184.04,-376.99"/>
<polygon fill="midnightblue" stroke="midnightblue" points="1187.54,-376.75 1184.04,-366.75 1180.54,-376.75 1187.54,-376.75"/>
</g>
<!-- Node5&#45;&gt;Node3 -->
<g id="edge14" class="edge">
<title>Node5&#45;&gt;Node3</title>
<path fill="none" stroke="midnightblue" d="M1186.68,-243.85C1367.97,-242.94 1884.57,-237 2049.04,-199 2106.57,-185.71 2168.94,-154.6 2202.11,-136.57"/>
<polygon fill="midnightblue" stroke="midnightblue" points="2203.97,-139.54 2211.04,-131.64 2200.59,-133.41 2203.97,-139.54"/>
</g>
<!-- Node5&#45;&gt;Node4 -->
<g id="edge5" class="edge">
<title>Node5&#45;&gt;Node4</title>
<path fill="none" stroke="midnightblue" d="M1186.92,-235.62C1230.44,-228.45 1282.51,-216.49 1296.04,-199 1313.78,-176.05 1274.11,-112.08 1274.04,-112 1254.28,-88.48 1238.54,-95.77 1215.04,-76 1197.89,-61.58 1181.35,-41.87 1170.55,-27.95"/>
<polygon fill="midnightblue" stroke="midnightblue" points="1173.16,-25.6 1164.33,-19.75 1167.59,-29.83 1173.16,-25.6"/>
</g>
<!-- Node6 -->
<g id="node6" class="node">
<title>Node6</title>
<g id="a_node6"><a xlink:title=" ">
<polygon fill="white" stroke="#bfbfbf" points="1419.54,-174 1419.54,-193 1484.54,-193 1484.54,-174 1419.54,-174"/>
<text text-anchor="middle" x="1452.04" y="-181" font-family="FreeSans" font-size="10.00">exception</text>
</a>
</g>
</g>
<!-- Node5&#45;&gt;Node6 -->
<g id="edge6" class="edge">
<title>Node5&#45;&gt;Node6</title>
<path fill="none" stroke="midnightblue" d="M1186.81,-236.43C1244.29,-229 1330.92,-216.26 1405.04,-199 1408.86,-198.11 1412.82,-197.07 1416.75,-195.97"/>
<polygon fill="midnightblue" stroke="midnightblue" points="1417.75,-199.32 1426.36,-193.14 1415.77,-192.61 1417.75,-199.32"/>
</g>
<!-- Node7 -->
<g id="node7" class="node">
<title>Node7</title>
<g id="a_node7"><a xlink:title=" ">
<polygon fill="white" stroke="#bfbfbf" points="1503.04,-174 1503.04,-193 1607.04,-193 1607.04,-174 1503.04,-174"/>
<text text-anchor="middle" x="1555.04" y="-181" font-family="FreeSans" font-size="10.00">boost/version.hpp</text>
</a>
</g>
</g>
<!-- Node5&#45;&gt;Node7 -->
<g id="edge7" class="edge">
<title>Node5&#45;&gt;Node7</title>
<path fill="none" stroke="midnightblue" d="M1186.85,-238.37C1260.85,-231.34 1386.31,-217.91 1493.04,-199 1498.96,-197.95 1505.17,-196.69 1511.28,-195.36"/>
<polygon fill="midnightblue" stroke="midnightblue" points="1512.4,-198.69 1521.39,-193.07 1510.86,-191.86 1512.4,-198.69"/>
</g>
<!-- Node8 -->
<g id="node8" class="node">
<title>Node8</title>
<g id="a_node8"><a xlink:title=" ">
<polygon fill="white" stroke="#bfbfbf" points="1625.04,-174 1625.04,-193 1765.04,-193 1765.04,-174 1625.04,-174"/>
<text text-anchor="middle" x="1695.04" y="-181" font-family="FreeSans" font-size="10.00">boost/concept_check.hpp</text>
</a>
</g>
</g>
<!-- Node5&#45;&gt;Node8 -->
<g id="edge8" class="edge">
<title>Node5&#45;&gt;Node8</title>
<path fill="none" stroke="midnightblue" d="M1186.67,-240.04C1280.8,-233.76 1462.55,-220.05 1616.04,-199 1624.67,-197.82 1633.79,-196.35 1642.65,-194.8"/>
<polygon fill="midnightblue" stroke="midnightblue" points="1643.28,-198.24 1652.51,-193.03 1642.05,-191.35 1643.28,-198.24"/>
</g>
<!-- Node9 -->
<g id="node9" class="node">
<title>Node9</title>
<g id="a_node9"><a xlink:title=" ">
<polygon fill="white" stroke="#bfbfbf" points="52.04,-174 52.04,-193 182.04,-193 182.04,-174 52.04,-174"/>
<text text-anchor="middle" x="117.04" y="-181" font-family="FreeSans" font-size="10.00">boost/static_assert.hpp</text>
</a>
</g>
</g>
<!-- Node5&#45;&gt;Node9 -->
<g id="edge9" class="edge">
<title>Node5&#45;&gt;Node9</title>
<path fill="none" stroke="midnightblue" d="M1059.48,-244.1C908.36,-243.66 515.88,-238.46 191.04,-199 182.54,-197.97 173.55,-196.52 164.88,-194.93"/>
<polygon fill="midnightblue" stroke="midnightblue" points="165.37,-191.46 154.89,-193.02 164.06,-198.33 165.37,-191.46"/>
</g>
<!-- Node10 -->
<g id="node10" class="node">
<title>Node10</title>
<g id="a_node10"><a xlink:title=" ">
<polygon fill="white" stroke="#bfbfbf" points="200.54,-174 200.54,-193 339.54,-193 339.54,-174 200.54,-174"/>
<text text-anchor="middle" x="270.04" y="-181" font-family="FreeSans" font-size="10.00">boost/concept/assert.hpp</text>
</a>
</g>
</g>
<!-- Node5&#45;&gt;Node10 -->
<g id="edge10" class="edge">
<title>Node5&#45;&gt;Node10</title>
<path fill="none" stroke="midnightblue" d="M1059.51,-243.01C926.85,-240.36 610.94,-230.94 348.04,-199 339.19,-197.93 329.84,-196.47 320.8,-194.89"/>
<polygon fill="midnightblue" stroke="midnightblue" points="321.24,-191.41 310.77,-193.07 319.99,-198.3 321.24,-191.41"/>
</g>
<!-- Node11 -->
<g id="node11" class="node">
<title>Node11</title>
<g id="a_node11"><a xlink:title=" ">
<polygon fill="white" stroke="#bfbfbf" points="357.54,-174 357.54,-193 506.54,-193 506.54,-174 357.54,-174"/>
<text text-anchor="middle" x="432.04" y="-181" font-family="FreeSans" font-size="10.00">boost/concept/requires.hpp</text>
</a>
</g>
</g>
<!-- Node5&#45;&gt;Node11 -->
<g id="edge11" class="edge">
<title>Node5&#45;&gt;Node11</title>
<path fill="none" stroke="midnightblue" d="M1059.48,-241.32C948.77,-236.2 713.47,-223.3 516.04,-199 506.55,-197.83 496.51,-196.33 486.79,-194.74"/>
<polygon fill="midnightblue" stroke="midnightblue" points="487.26,-191.27 476.82,-193.06 486.1,-198.17 487.26,-191.27"/>
</g>
<!-- Node12 -->
<g id="node12" class="node">
<title>Node12</title>
<g id="a_node12"><a xlink:title=" ">
<polygon fill="white" stroke="#bfbfbf" points="525.04,-168.5 525.04,-198.5 647.04,-198.5 647.04,-168.5 525.04,-168.5"/>
<text text-anchor="start" x="533.04" y="-186.5" font-family="FreeSans" font-size="10.00">boost/iterator/iterator</text>
<text text-anchor="middle" x="586.04" y="-175.5" font-family="FreeSans" font-size="10.00">_concepts.hpp</text>
</a>
</g>
</g>
<!-- Node5&#45;&gt;Node12 -->
<g id="edge12" class="edge">
<title>Node5&#45;&gt;Node12</title>
<path fill="none" stroke="midnightblue" d="M1059.32,-240.05C971.19,-234.11 806.97,-221.28 657.34,-199.09"/>
<polygon fill="midnightblue" stroke="midnightblue" points="657.46,-195.57 647.05,-197.54 656.42,-202.49 657.46,-195.57"/>
</g>
<!-- Node13 -->
<g id="node13" class="node">
<title>Node13</title>
<g id="a_node13"><a xlink:title=" ">
<polygon fill="white" stroke="#bfbfbf" points="665.04,-174 665.04,-193 825.04,-193 825.04,-174 665.04,-174"/>
<text text-anchor="middle" x="745.04" y="-181" font-family="FreeSans" font-size="10.00">boost/concept_archetype.hpp</text>
</a>
</g>
</g>
<!-- Node5&#45;&gt;Node13 -->
<g id="edge13" class="edge">
<title>Node5&#45;&gt;Node13</title>
<path fill="none" stroke="midnightblue" d="M1067.61,-235.49C1009.42,-226.52 915.27,-211.94 834.04,-199 825.39,-197.62 816.27,-196.15 807.3,-194.7"/>
<polygon fill="midnightblue" stroke="midnightblue" points="807.7,-191.22 797.26,-193.07 806.57,-198.13 807.7,-191.22"/>
</g>
<!-- Node14 -->
<g id="node14" class="node">
<title>Node14</title>
<g id="a_node14"><a xlink:title=" ">
<polygon fill="white" stroke="#bfbfbf" points="843.04,-174 843.04,-193 893.04,-193 893.04,-174 843.04,-174"/>
<text text-anchor="middle" x="868.04" y="-181" font-family="FreeSans" font-size="10.00">stdio.h</text>
</a>
</g>
</g>
<!-- Node5&#45;&gt;Node14 -->
<g id="edge15" class="edge">
<title>Node5&#45;&gt;Node14</title>
<path fill="none" stroke="midnightblue" d="M1064.99,-235.48C1019.94,-228.08 956.24,-215.89 902.04,-199 899.89,-198.33 897.71,-197.58 895.52,-196.77"/>
<polygon fill="midnightblue" stroke="midnightblue" points="896.72,-193.48 886.13,-193.02 894.12,-199.98 896.72,-193.48"/>
</g>
<!-- Node15 -->
<g id="node15" class="node">
<title>Node15</title>
<g id="a_node15"><a xlink:href="Config_8h_source.html" target="_top" xlink:title=" ">
<polygon fill="white" stroke="black" points="567.54,-56.5 567.54,-75.5 680.54,-75.5 680.54,-56.5 567.54,-56.5"/>
<text text-anchor="middle" x="624.04" y="-63.5" font-family="FreeSans" font-size="10.00">DGtal/base/Config.h</text>
</a>
</g>
</g>
<!-- Node5&#45;&gt;Node15 -->
<g id="edge16" class="edge">
<title>Node5&#45;&gt;Node15</title>
<path fill="none" stroke="midnightblue" d="M1118.65,-235.38C1110.08,-219.43 1089.5,-185.35 1062.04,-168 1003.34,-130.92 975.17,-156.01 910.04,-132 891.76,-125.26 889.48,-118.26 871.04,-112 811.76,-91.89 741.26,-80.18 690.78,-73.78"/>
<polygon fill="midnightblue" stroke="midnightblue" points="691,-70.28 680.65,-72.53 690.14,-77.23 691,-70.28"/>
</g>
<!-- Node17 -->
<g id="node17" class="node">
<title>Node17</title>
<g id="a_node17"><a xlink:href="Trace_8h_source.html" target="_top" xlink:title=" ">
<polygon fill="white" stroke="black" points="911.04,-174 911.04,-193 1019.04,-193 1019.04,-174 911.04,-174"/>
<text text-anchor="middle" x="965.04" y="-181" font-family="FreeSans" font-size="10.00">DGtal/base/Trace.h</text>
</a>
</g>
</g>
<!-- Node5&#45;&gt;Node17 -->
<g id="edge19" class="edge">
<title>Node5&#45;&gt;Node17</title>
<path fill="none" stroke="midnightblue" d="M1100.4,-235.48C1073.3,-225.27 1027.73,-208.11 997.03,-196.55"/>
<polygon fill="midnightblue" stroke="midnightblue" points="998.22,-193.26 987.63,-193.01 995.76,-199.81 998.22,-193.26"/>
</g>
<!-- Node24 -->
<g id="node24" class="node">
<title>Node24</title>
<g id="a_node24"><a xlink:href="TraceWriterTerm_8h_source.html" target="_top" xlink:title=" ">
<polygon fill="white" stroke="black" points="301.04,-112.5 301.04,-131.5 463.04,-131.5 463.04,-112.5 301.04,-112.5"/>
<text text-anchor="middle" x="382.04" y="-119.5" font-family="FreeSans" font-size="10.00">DGtal/base/TraceWriterTerm.h</text>
</a>
</g>
</g>
<!-- Node5&#45;&gt;Node24 -->
<g id="edge42" class="edge">
<title>Node5&#45;&gt;Node24</title>
<path fill="none" stroke="midnightblue" d="M1059.49,-242.53C830.58,-237.09 60.72,-217.44 43.04,-199 33.5,-189.06 33.96,-178.36 43.04,-168 59.2,-149.55 195.71,-136.17 290.5,-129"/>
<polygon fill="midnightblue" stroke="midnightblue" points="290.97,-132.48 300.68,-128.24 290.45,-125.5 290.97,-132.48"/>
</g>
<!-- Node25 -->
<g id="node25" class="node">
<title>Node25</title>
<g id="a_node25"><a xlink:href="Assert_8h_source.html" target="_top" xlink:title=" ">
<polygon fill="white" stroke="black" points="749.54,-112.5 749.54,-131.5 862.54,-131.5 862.54,-112.5 749.54,-112.5"/>
<text text-anchor="middle" x="806.04" y="-119.5" font-family="FreeSans" font-size="10.00">DGtal/base/Assert.h</text>
</a>
</g>
</g>
<!-- Node5&#45;&gt;Node25 -->
<g id="edge47" class="edge">
<title>Node5&#45;&gt;Node25</title>
<path fill="none" stroke="midnightblue" d="M1112.76,-235.32C1090.2,-216.34 1037.6,-172.47 1028.04,-168 1000.95,-155.34 927.74,-141.84 872.74,-132.97"/>
<polygon fill="midnightblue" stroke="midnightblue" points="873.12,-129.49 862.69,-131.37 872.02,-136.4 873.12,-129.49"/>
</g>
<!-- Node28 -->
<g id="node28" class="node">
<title>Node28</title>
<g id="a_node28"><a xlink:href="TraceWriterFile_8h_source.html" target="_top" xlink:title=" ">
<polygon fill="white" stroke="black" points="89.54,-112.5 89.54,-131.5 244.54,-131.5 244.54,-112.5 89.54,-112.5"/>
<text text-anchor="middle" x="167.04" y="-119.5" font-family="FreeSans" font-size="10.00">DGtal/base/TraceWriterFile.h</text>
</a>
</g>
</g>
<!-- Node5&#45;&gt;Node28 -->
<g id="edge43" class="edge">
<title>Node5&#45;&gt;Node28</title>
<path fill="none" stroke="midnightblue" d="M1059.3,-242.55C828.76,-237.16 50.9,-217.62 33.04,-199 3.32,-168.04 63.49,-146.03 112.55,-133.92"/>
<polygon fill="midnightblue" stroke="midnightblue" points="113.57,-137.27 122.49,-131.56 111.96,-130.46 113.57,-137.27"/>
</g>
<!-- Node29 -->
<g id="node29" class="node">
<title>Node29</title>
<g id="a_node29"><a xlink:href="ConceptUtils_8h_source.html" target="_top" xlink:title=" ">
<polygon fill="white" stroke="black" points="1498.54,-112.5 1498.54,-131.5 1643.54,-131.5 1643.54,-112.5 1498.54,-112.5"/>
<text text-anchor="middle" x="1571.04" y="-119.5" font-family="FreeSans" font-size="10.00">DGtal/base/ConceptUtils.h</text>
</a>
</g>
</g>
<!-- Node5&#45;&gt;Node29 -->
<g id="edge48" class="edge">
<title>Node5&#45;&gt;Node29</title>
<path fill="none" stroke="midnightblue" d="M1186.69,-239.24C1236.47,-233.84 1306.63,-222.52 1364.04,-199 1386.85,-189.65 1387.65,-178.34 1410.04,-168 1443.79,-152.4 1484.09,-141.15 1515.93,-133.79"/>
<polygon fill="midnightblue" stroke="midnightblue" points="1516.96,-137.15 1525.95,-131.54 1515.42,-130.32 1516.96,-137.15"/>
</g>
<!-- Node30 -->
<g id="node30" class="node">
<title>Node30</title>
<g id="a_node30"><a xlink:href="BasicTypes_8h_source.html" target="_top" xlink:title=" ">
<polygon fill="white" stroke="black" points="1343.54,-112.5 1343.54,-131.5 1480.54,-131.5 1480.54,-112.5 1343.54,-112.5"/>
<text text-anchor="middle" x="1412.04" y="-119.5" font-family="FreeSans" font-size="10.00">DGtal/base/BasicTypes.h</text>
</a>
</g>
</g>
<!-- Node5&#45;&gt;Node30 -->
<g id="edge50" class="edge">
<title>Node5&#45;&gt;Node30</title>
<path fill="none" stroke="midnightblue" d="M1186.79,-238.77C1229.05,-233.26 1284.67,-222 1329.04,-199 1357.66,-184.16 1383.86,-156.88 1398.88,-139.36"/>
<polygon fill="midnightblue" stroke="midnightblue" points="1401.6,-141.56 1405.31,-131.64 1396.22,-137.08 1401.6,-141.56"/>
</g>
<!-- Node33 -->
<g id="node33" class="node">
<title>Node33</title>
<g id="a_node33"><a xlink:href="BasicFunctors_8h_source.html" target="_top" xlink:title=" ">
<polygon fill="white" stroke="black" points="1890.04,-174 1890.04,-193 2040.04,-193 2040.04,-174 1890.04,-174"/>
<text text-anchor="middle" x="1965.04" y="-181" font-family="FreeSans" font-size="10.00">DGtal/base/BasicFunctors.h</text>
</a>
</g>
</g>
<!-- Node5&#45;&gt;Node33 -->
<g id="edge55" class="edge">
<title>Node5&#45;&gt;Node33</title>
<path fill="none" stroke="midnightblue" d="M1186.66,-240.05C1306.44,-232.86 1573.21,-216.71 1798.04,-199 1824.46,-196.92 1853.34,-194.35 1879.58,-191.96"/>
<polygon fill="midnightblue" stroke="midnightblue" points="1880.24,-195.42 1889.88,-191.02 1879.6,-188.45 1880.24,-195.42"/>
</g>
<!-- Node43 -->
<g id="node43" class="node">
<title>Node43</title>
<g id="a_node43"><a xlink:href="BasicArchetypes_8h_source.html" target="_top" xlink:title=" ">
<polygon fill="white" stroke="black" points="1085.04,-112.5 1085.04,-131.5 1249.04,-131.5 1249.04,-112.5 1085.04,-112.5"/>
<text text-anchor="middle" x="1167.04" y="-119.5" font-family="FreeSans" font-size="10.00">DGtal/base/BasicArchetypes.h</text>
</a>
</g>
</g>
<!-- Node5&#45;&gt;Node43 -->
<g id="edge71" class="edge">
<title>Node5&#45;&gt;Node43</title>
<path fill="none" stroke="midnightblue" d="M1124.44,-235.34C1126.92,-220.99 1132.75,-191.53 1142.04,-168 1145.81,-158.44 1151.24,-148.39 1156.07,-140.22"/>
<polygon fill="midnightblue" stroke="midnightblue" points="1159.1,-141.98 1161.34,-131.63 1153.13,-138.32 1159.1,-141.98"/>
</g>
<!-- Node44 -->
<g id="node44" class="node">
<title>Node44</title>
<g id="a_node44"><a xlink:href="Exceptions_8h_source.html" target="_top" xlink:title=" ">
<polygon fill="white" stroke="black" points="1151.04,-174 1151.04,-193 1287.04,-193 1287.04,-174 1151.04,-174"/>
<text text-anchor="middle" x="1219.04" y="-181" font-family="FreeSans" font-size="10.00">DGtal/base/Exceptions.h</text>
</a>
</g>
</g>
<!-- Node5&#45;&gt;Node44 -->
<g id="edge73" class="edge">
<title>Node5&#45;&gt;Node44</title>
<path fill="none" stroke="midnightblue" d="M1136.79,-235.48C1152.4,-225.8 1178.1,-209.87 1196.62,-198.39"/>
<polygon fill="midnightblue" stroke="midnightblue" points="1198.65,-201.25 1205.31,-193.01 1194.96,-195.3 1198.65,-201.25"/>
</g>
<!-- Node15&#45;&gt;Node4 -->
<g id="edge17" class="edge">
<title>Node15&#45;&gt;Node4</title>
<path fill="none" stroke="midnightblue" d="M680.68,-59.27C789.21,-48.3 1024.04,-24.55 1117.99,-15.05"/>
<polygon fill="midnightblue" stroke="midnightblue" points="1118.35,-18.53 1127.95,-14.04 1117.65,-11.57 1118.35,-18.53"/>
</g>
<!-- Node16 -->
<g id="node16" class="node">
<title>Node16</title>
<g id="a_node16"><a xlink:title=" ">
<polygon fill="white" stroke="#bfbfbf" points="446.04,-0.5 446.04,-19.5 490.04,-19.5 490.04,-0.5 446.04,-0.5"/>
<text text-anchor="middle" x="468.04" y="-7.5" font-family="FreeSans" font-size="10.00">string</text>
</a>
</g>
</g>
<!-- Node15&#45;&gt;Node16 -->
<g id="edge18" class="edge">
<title>Node15&#45;&gt;Node16</title>
<path fill="none" stroke="midnightblue" d="M599.32,-56.44C572.42,-47.13 529.33,-32.22 499.9,-22.03"/>
<polygon fill="midnightblue" stroke="midnightblue" points="500.71,-18.61 490.12,-18.64 498.42,-25.22 500.71,-18.61"/>
</g>
<!-- Node17&#45;&gt;Node4 -->
<g id="edge20" class="edge">
<title>Node17&#45;&gt;Node4</title>
<path fill="none" stroke="midnightblue" d="M979.04,-173.91C994.15,-164.39 1018.66,-148.23 1038.04,-132 1079.01,-97.67 1121.93,-51.52 1143.63,-27.34"/>
<polygon fill="midnightblue" stroke="midnightblue" points="1146.35,-29.55 1150.38,-19.76 1141.12,-24.9 1146.35,-29.55"/>
</g>
<!-- Node17&#45;&gt;Node15 -->
<g id="edge24" class="edge">
<title>Node17&#45;&gt;Node15</title>
<path fill="none" stroke="midnightblue" d="M928.07,-173.94C919.52,-171.98 910.46,-169.91 902.04,-168 830.1,-151.73 808.94,-158.31 740.04,-132 730.51,-128.36 678.86,-98.77 647.78,-80.79"/>
<polygon fill="midnightblue" stroke="midnightblue" points="649.27,-77.61 638.86,-75.63 645.76,-83.67 649.27,-77.61"/>
</g>
<!-- Node17&#45;&gt;Node16 -->
<g id="edge22" class="edge">
<title>Node17&#45;&gt;Node16</title>
<path fill="none" stroke="midnightblue" d="M930.49,-173.96C921.28,-171.85 911.31,-169.7 902.04,-168 786.43,-146.8 749.71,-174.27 640.04,-132 606.76,-119.18 524.12,-55.47 486.83,-26"/>
<polygon fill="midnightblue" stroke="midnightblue" points="488.79,-23.09 478.78,-19.62 484.44,-28.57 488.79,-23.09"/>
</g>
<!-- Node18 -->
<g id="node18" class="node">
<title>Node18</title>
<g id="a_node18"><a xlink:title=" ">
<polygon fill="white" stroke="#bfbfbf" points="77.54,-0.5 77.54,-19.5 134.54,-19.5 134.54,-0.5 77.54,-0.5"/>
<text text-anchor="middle" x="106.04" y="-7.5" font-family="FreeSans" font-size="10.00">ostream</text>
</a>
</g>
</g>
<!-- Node17&#45;&gt;Node18 -->
<g id="edge21" class="edge">
<title>Node17&#45;&gt;Node18</title>
<path fill="none" stroke="midnightblue" d="M933.19,-173.98C923.28,-171.65 912.27,-169.39 902.04,-168 856.74,-161.85 111.64,-165.02 80.04,-132 52.91,-103.66 77.7,-54.2 94.15,-28.16"/>
<polygon fill="midnightblue" stroke="midnightblue" points="97.14,-29.98 99.72,-19.7 91.3,-26.13 97.14,-29.98"/>
</g>
<!-- Node19 -->
<g id="node19" class="node">
<title>Node19</title>
<g id="a_node19"><a xlink:title=" ">
<polygon fill="white" stroke="#bfbfbf" points="649.54,-112.5 649.54,-131.5 692.54,-131.5 692.54,-112.5 649.54,-112.5"/>
<text text-anchor="middle" x="671.04" y="-119.5" font-family="FreeSans" font-size="10.00">stack</text>
</a>
</g>
</g>
<!-- Node17&#45;&gt;Node19 -->
<g id="edge23" class="edge">
<title>Node17&#45;&gt;Node19</title>
<path fill="none" stroke="midnightblue" d="M929.11,-173.95C920.28,-171.92 910.83,-169.82 902.04,-168 815.74,-150.11 793.16,-150.7 707.04,-132 705.58,-131.68 704.09,-131.35 702.59,-131.01"/>
<polygon fill="midnightblue" stroke="midnightblue" points="703.23,-127.56 692.69,-128.65 701.6,-134.37 703.23,-127.56"/>
</g>
<!-- Node20 -->
<g id="node20" class="node">
<title>Node20</title>
<g id="a_node20"><a xlink:href="Clock_8h_source.html" target="_top" xlink:title=" ">
<polygon fill="white" stroke="black" points="919.04,-112.5 919.04,-131.5 1029.04,-131.5 1029.04,-112.5 919.04,-112.5"/>
<text text-anchor="middle" x="974.04" y="-119.5" font-family="FreeSans" font-size="10.00">DGtal/base/Clock.h</text>
</a>
</g>
</g>
<!-- Node17&#45;&gt;Node20 -->
<g id="edge25" class="edge">
<title>Node17&#45;&gt;Node20</title>
<path fill="none" stroke="midnightblue" d="M966.32,-173.98C967.59,-165.58 969.58,-152.48 971.21,-141.66"/>
<polygon fill="midnightblue" stroke="midnightblue" points="974.71,-141.92 972.75,-131.51 967.79,-140.87 974.71,-141.92"/>
</g>
<!-- Node23 -->
<g id="node23" class="node">
<title>Node23</title>
<g id="a_node23"><a xlink:href="TraceWriter_8h_source.html" target="_top" xlink:title=" ">
<polygon fill="white" stroke="black" points="233.54,-56.5 233.54,-75.5 370.54,-75.5 370.54,-56.5 233.54,-56.5"/>
<text text-anchor="middle" x="302.04" y="-63.5" font-family="FreeSans" font-size="10.00">DGtal/base/TraceWriter.h</text>
</a>
</g>
</g>
<!-- Node17&#45;&gt;Node23 -->
<g id="edge29" class="edge">
<title>Node17&#45;&gt;Node23</title>
<path fill="none" stroke="midnightblue" d="M932.53,-173.93C922.79,-171.65 912.03,-169.44 902.04,-168 834.83,-158.35 338.61,-181.4 292.04,-132 280.33,-119.58 285.7,-99.5 292.2,-84.94"/>
<polygon fill="midnightblue" stroke="midnightblue" points="295.38,-86.42 296.69,-75.91 289.11,-83.31 295.38,-86.42"/>
</g>
<!-- Node17&#45;&gt;Node24 -->
<g id="edge32" class="edge">
<title>Node17&#45;&gt;Node24</title>
<path fill="none" stroke="midnightblue" d="M931.86,-173.93C922.29,-171.71 911.79,-169.52 902.04,-168 715.79,-138.92 664.75,-149.17 473.57,-132.12"/>
<polygon fill="midnightblue" stroke="midnightblue" points="473.74,-128.62 463.46,-131.2 473.11,-135.59 473.74,-128.62"/>
</g>
<!-- Node17&#45;&gt;Node25 -->
<g id="edge37" class="edge">
<title>Node17&#45;&gt;Node25</title>
<path fill="none" stroke="midnightblue" d="M937.35,-173.98C908.11,-163.86 862.58,-146.9 833.44,-135.35"/>
<polygon fill="midnightblue" stroke="midnightblue" points="834.46,-131.99 823.88,-131.51 831.85,-138.48 834.46,-131.99"/>
</g>
<!-- Node27 -->
<g id="node27" class="node">
<title>Node27</title>
<g id="a_node27"><a xlink:href="Trace_8ih_source.html" target="_top" xlink:title=" ">
<polygon fill="white" stroke="black" points="481.54,-112.5 481.54,-131.5 592.54,-131.5 592.54,-112.5 481.54,-112.5"/>
<text text-anchor="middle" x="537.04" y="-119.5" font-family="FreeSans" font-size="10.00">DGtal/base/Trace.ih</text>
</a>
</g>
</g>
<!-- Node17&#45;&gt;Node27 -->
<g id="edge41" class="edge">
<title>Node17&#45;&gt;Node27</title>
<path fill="none" stroke="midnightblue" d="M930.84,-173.94C921.53,-171.8 911.43,-169.65 902.04,-168 771.94,-145.16 738.09,-148.42 607.04,-132 605.74,-131.84 604.42,-131.67 603.1,-131.51"/>
<polygon fill="midnightblue" stroke="midnightblue" points="603.18,-127.99 592.82,-130.2 602.3,-134.93 603.18,-127.99"/>
</g>
<!-- Node20&#45;&gt;Node4 -->
<g id="edge26" class="edge">
<title>Node20&#45;&gt;Node4</title>
<path fill="none" stroke="midnightblue" d="M985.27,-112.46C1002.56,-99.48 1036.96,-74.39 1068.04,-56 1088.08,-44.14 1111.65,-32.43 1129.65,-23.93"/>
<polygon fill="midnightblue" stroke="midnightblue" points="1131.43,-26.96 1139.01,-19.56 1128.47,-20.62 1131.43,-26.96"/>
</g>
<!-- Node21 -->
<g id="node21" class="node">
<title>Node21</title>
<g id="a_node21"><a xlink:title=" ">
<polygon fill="white" stroke="#bfbfbf" points="1224.54,-56.5 1224.54,-75.5 1273.54,-75.5 1273.54,-56.5 1224.54,-56.5"/>
<text text-anchor="middle" x="1249.04" y="-63.5" font-family="FreeSans" font-size="10.00">cstdlib</text>
</a>
</g>
</g>
<!-- Node20&#45;&gt;Node21 -->
<g id="edge27" class="edge">
<title>Node20&#45;&gt;Node21</title>
<path fill="none" stroke="midnightblue" d="M1017.61,-112.44C1072.19,-101.73 1164.58,-83.58 1214.52,-73.78"/>
<polygon fill="midnightblue" stroke="midnightblue" points="1215.37,-77.18 1224.51,-71.82 1214.02,-70.31 1215.37,-77.18"/>
</g>
<!-- Node22 -->
<g id="node22" class="node">
<title>Node22</title>
<g id="a_node22"><a xlink:href="Clock_8ih_source.html" target="_top" xlink:title=" ">
<polygon fill="white" stroke="black" points="902.54,-56.5 902.54,-75.5 1015.54,-75.5 1015.54,-56.5 902.54,-56.5"/>
<text text-anchor="middle" x="959.04" y="-63.5" font-family="FreeSans" font-size="10.00">DGtal/base/Clock.ih</text>
</a>
</g>
</g>
<!-- Node20&#45;&gt;Node22 -->
<g id="edge28" class="edge">
<title>Node20&#45;&gt;Node22</title>
<path fill="none" stroke="midnightblue" d="M971.56,-112.08C969.55,-104.85 966.65,-94.41 964.15,-85.4"/>
<polygon fill="midnightblue" stroke="midnightblue" points="967.52,-84.45 961.47,-75.75 960.77,-86.32 967.52,-84.45"/>
</g>
<!-- Node23&#45;&gt;Node4 -->
<g id="edge30" class="edge">
<title>Node23&#45;&gt;Node4</title>
<path fill="none" stroke="midnightblue" d="M370.64,-60.67C541.37,-49.9 981.37,-22.14 1117.37,-13.57"/>
<polygon fill="midnightblue" stroke="midnightblue" points="1117.98,-17.03 1127.74,-12.91 1117.54,-10.05 1117.98,-17.03"/>
</g>
<!-- Node23&#45;&gt;Node18 -->
<g id="edge31" class="edge">
<title>Node23&#45;&gt;Node18</title>
<path fill="none" stroke="midnightblue" d="M270.98,-56.44C236.74,-47.01 181.62,-31.83 144.63,-21.63"/>
<polygon fill="midnightblue" stroke="midnightblue" points="145.29,-18.18 134.71,-18.9 143.43,-24.93 145.29,-18.18"/>
</g>
<!-- Node24&#45;&gt;Node4 -->
<g id="edge33" class="edge">
<title>Node24&#45;&gt;Node4</title>
<path fill="none" stroke="midnightblue" d="M400.03,-112.43C431.33,-97.97 498.2,-69.02 558.04,-56 665.3,-32.65 1000.9,-17.31 1117.57,-12.56"/>
<polygon fill="midnightblue" stroke="midnightblue" points="1118,-16.05 1127.85,-12.15 1117.72,-9.06 1118,-16.05"/>
</g>
<!-- Node24&#45;&gt;Node15 -->
<g id="edge36" class="edge">
<title>Node24&#45;&gt;Node15</title>
<path fill="none" stroke="midnightblue" d="M420.38,-112.44C462.51,-103.04 530.24,-87.93 575.91,-77.74"/>
<polygon fill="midnightblue" stroke="midnightblue" points="576.87,-81.11 585.87,-75.52 575.35,-74.28 576.87,-81.11"/>
</g>
<!-- Node24&#45;&gt;Node16 -->
<g id="edge34" class="edge">
<title>Node24&#45;&gt;Node16</title>
<path fill="none" stroke="midnightblue" d="M388.78,-112.37C403.04,-94.14 436.43,-51.43 455,-27.68"/>
<polygon fill="midnightblue" stroke="midnightblue" points="457.92,-29.63 461.32,-19.59 452.4,-25.31 457.92,-29.63"/>
</g>
<!-- Node24&#45;&gt;Node23 -->
<g id="edge35" class="edge">
<title>Node24&#45;&gt;Node23</title>
<path fill="none" stroke="midnightblue" d="M369.18,-112.32C356.82,-103.98 337.91,-91.21 323.3,-81.35"/>
<polygon fill="midnightblue" stroke="midnightblue" points="325.1,-78.35 314.86,-75.65 321.19,-84.15 325.1,-78.35"/>
</g>
<!-- Node25&#45;&gt;Node16 -->
<g id="edge40" class="edge">
<title>Node25&#45;&gt;Node16</title>
<path fill="none" stroke="midnightblue" d="M791.08,-112.36C761.98,-95.59 699.66,-59.93 689.04,-56 624.4,-32.11 544.19,-19.8 500.36,-14.44"/>
<polygon fill="midnightblue" stroke="midnightblue" points="500.63,-10.95 490.29,-13.25 499.82,-17.9 500.63,-10.95"/>
</g>
<!-- Node25&#45;&gt;Node17 -->
<g id="edge38" class="edge">
<title>Node25&#45;&gt;Node17</title>
<path fill="none" stroke="midnightblue" d="M833.67,-131.51C862.9,-141.62 908.43,-158.57 937.58,-170.13"/>
<polygon fill="midnightblue" stroke="midnightblue" points="936.57,-173.5 947.16,-173.98 939.18,-167 936.57,-173.5"/>
</g>
<!-- Node26 -->
<g id="node26" class="node">
<title>Node26</title>
<g id="a_node26"><a xlink:title=" ">
<polygon fill="white" stroke="#bfbfbf" points="737.54,-56.5 737.54,-75.5 884.54,-75.5 884.54,-56.5 737.54,-56.5"/>
<text text-anchor="middle" x="811.04" y="-63.5" font-family="FreeSans" font-size="10.00">boost/current_function.hpp</text>
</a>
</g>
</g>
<!-- Node25&#45;&gt;Node26 -->
<g id="edge39" class="edge">
<title>Node25&#45;&gt;Node26</title>
<path fill="none" stroke="midnightblue" d="M806.86,-112.08C807.52,-105.01 808.46,-94.86 809.28,-85.99"/>
<polygon fill="midnightblue" stroke="midnightblue" points="812.79,-86.03 810.23,-75.75 805.82,-85.39 812.79,-86.03"/>
</g>
<!-- Node28&#45;&gt;Node4 -->
<g id="edge44" class="edge">
<title>Node28&#45;&gt;Node4</title>
<path fill="none" stroke="midnightblue" d="M171.58,-112.27C179.79,-97.57 198.62,-68.26 224.04,-56 305.27,-16.81 949.33,-11.75 1117.81,-11.1"/>
<polygon fill="midnightblue" stroke="midnightblue" points="1118,-14.6 1127.99,-11.06 1117.98,-7.6 1118,-14.6"/>
</g>
<!-- Node28&#45;&gt;Node16 -->
<g id="edge45" class="edge">
<title>Node28&#45;&gt;Node16</title>
<path fill="none" stroke="midnightblue" d="M167.56,-112.27C168.92,-98.09 173.77,-70.23 191.04,-56 227.9,-25.63 370.8,-15.38 435.68,-12.25"/>
<polygon fill="midnightblue" stroke="midnightblue" points="435.92,-15.74 445.75,-11.79 435.6,-8.75 435.92,-15.74"/>
</g>
<!-- Node28&#45;&gt;Node23 -->
<g id="edge46" class="edge">
<title>Node28&#45;&gt;Node23</title>
<path fill="none" stroke="midnightblue" d="M188.43,-112.44C210.74,-103.52 245.94,-89.44 271.24,-79.32"/>
<polygon fill="midnightblue" stroke="midnightblue" points="272.76,-82.48 280.74,-75.52 270.16,-75.98 272.76,-82.48"/>
</g>
<!-- Node29&#45;&gt;Node4 -->
<g id="edge49" class="edge">
<title>Node29&#45;&gt;Node4</title>
<path fill="none" stroke="midnightblue" d="M1566.75,-112.48C1559.01,-98.09 1541.23,-69.25 1517.04,-56 1462.87,-26.33 1280.12,-15.69 1198.26,-12.35"/>
<polygon fill="midnightblue" stroke="midnightblue" points="1198.23,-8.85 1188.1,-11.95 1197.96,-15.84 1198.23,-8.85"/>
</g>
<!-- Node30&#45;&gt;Node4 -->
<g id="edge52" class="edge">
<title>Node30&#45;&gt;Node4</title>
<path fill="none" stroke="midnightblue" d="M1394.55,-112.45C1376.2,-103.45 1346.54,-88.84 1321.04,-76 1303.64,-67.24 1299.89,-63.78 1282.04,-56 1253.07,-43.37 1219.3,-31.29 1194.32,-22.82"/>
<polygon fill="midnightblue" stroke="midnightblue" points="1195.13,-19.4 1184.54,-19.54 1192.9,-26.04 1195.13,-19.4"/>
</g>
<!-- Node30&#45;&gt;Node21 -->
<g id="edge51" class="edge">
<title>Node30&#45;&gt;Node21</title>
<path fill="none" stroke="midnightblue" d="M1386.21,-112.44C1358.46,-103.25 1314.23,-88.6 1283.53,-78.43"/>
<polygon fill="midnightblue" stroke="midnightblue" points="1284.27,-74.99 1273.68,-75.16 1282.07,-81.63 1284.27,-74.99"/>
</g>
<!-- Node31 -->
<g id="node31" class="node">
<title>Node31</title>
<g id="a_node31"><a xlink:title=" ">
<polygon fill="white" stroke="#bfbfbf" points="1330.54,-56.5 1330.54,-75.5 1431.54,-75.5 1431.54,-56.5 1330.54,-56.5"/>
<text text-anchor="middle" x="1381.04" y="-63.5" font-family="FreeSans" font-size="10.00">boost/cstdint.hpp</text>
</a>
</g>
</g>
<!-- Node30&#45;&gt;Node31 -->
<g id="edge53" class="edge">
<title>Node30&#45;&gt;Node31</title>
<path fill="none" stroke="midnightblue" d="M1406.92,-112.08C1402.63,-104.61 1396.38,-93.72 1391.09,-84.52"/>
<polygon fill="midnightblue" stroke="midnightblue" points="1394.07,-82.68 1386.06,-75.75 1388,-86.17 1394.07,-82.68"/>
</g>
<!-- Node32 -->
<g id="node32" class="node">
<title>Node32</title>
<g id="a_node32"><a xlink:title=" ">
<polygon fill="white" stroke="#bfbfbf" points="1449.54,-56.5 1449.54,-75.5 1508.54,-75.5 1508.54,-56.5 1449.54,-56.5"/>
<text text-anchor="middle" x="1479.04" y="-63.5" font-family="FreeSans" font-size="10.00">gmpxx.h</text>
</a>
</g>
</g>
<!-- Node30&#45;&gt;Node32 -->
<g id="edge54" class="edge">
<title>Node30&#45;&gt;Node32</title>
<path fill="none" stroke="midnightblue" d="M1422.8,-112.32C1432.8,-104.26 1447.92,-92.08 1459.97,-82.37"/>
<polygon fill="midnightblue" stroke="midnightblue" points="1462.49,-84.83 1468.07,-75.83 1458.09,-79.38 1462.49,-84.83"/>
</g>
<!-- Node33&#45;&gt;Node3 -->
<g id="edge58" class="edge">
<title>Node33&#45;&gt;Node3</title>
<path fill="none" stroke="midnightblue" d="M2006.36,-173.97C2050.09,-164.81 2121.33,-149.49 2192.27,-132.09"/>
<polygon fill="midnightblue" stroke="midnightblue" points="2193.41,-135.42 2202.28,-129.63 2191.73,-128.62 2193.41,-135.42"/>
</g>
<!-- Node33&#45;&gt;Node5 -->
<g id="edge66" class="edge">
<title>Node33&#45;&gt;Node5</title>
<path fill="none" stroke="midnightblue" d="M1889.66,-192.62C1866.12,-194.81 1840.06,-197.11 1816.04,-199 1590.79,-216.74 1323.43,-232.92 1196.64,-240.09"/>
<polygon fill="midnightblue" stroke="midnightblue" points="1196.44,-236.6 1186.65,-240.66 1196.83,-243.59 1196.44,-236.6"/>
</g>
<!-- Node34 -->
<g id="node34" class="node">
<title>Node34</title>
<g id="a_node34"><a xlink:title=" ">
<polygon fill="white" stroke="#bfbfbf" points="1959.04,-56.5 1959.04,-75.5 2023.04,-75.5 2023.04,-56.5 1959.04,-56.5"/>
<text text-anchor="middle" x="1991.04" y="-63.5" font-family="FreeSans" font-size="10.00">algorithm</text>
</a>
</g>
</g>
<!-- Node33&#45;&gt;Node34 -->
<g id="edge56" class="edge">
<title>Node33&#45;&gt;Node34</title>
<path fill="none" stroke="midnightblue" d="M1966.99,-173.82C1971.19,-155.17 1981.14,-110.94 1986.84,-85.63"/>
<polygon fill="midnightblue" stroke="midnightblue" points="1990.28,-86.31 1989.06,-75.78 1983.45,-84.77 1990.28,-86.31"/>
</g>
<!-- Node35 -->
<g id="node35" class="node">
<title>Node35</title>
<g id="a_node35"><a xlink:title=" ">
<polygon fill="white" stroke="#bfbfbf" points="1890.54,-112.5 1890.54,-131.5 1955.54,-131.5 1955.54,-112.5 1890.54,-112.5"/>
<text text-anchor="middle" x="1923.04" y="-119.5" font-family="FreeSans" font-size="10.00">functional</text>
</a>
</g>
</g>
<!-- Node33&#45;&gt;Node35 -->
<g id="edge57" class="edge">
<title>Node33&#45;&gt;Node35</title>
<path fill="none" stroke="midnightblue" d="M1959.02,-173.98C1952.78,-165.14 1942.86,-151.09 1935.02,-139.98"/>
<polygon fill="midnightblue" stroke="midnightblue" points="1937.67,-137.66 1929.04,-131.51 1931.95,-141.7 1937.67,-137.66"/>
</g>
<!-- Node36 -->
<g id="node36" class="node">
<title>Node36</title>
<g id="a_node36"><a xlink:href="Color_8h_source.html" target="_top" xlink:title=" ">
<polygon fill="white" stroke="black" points="1740.54,-112.5 1740.54,-131.5 1833.54,-131.5 1833.54,-112.5 1740.54,-112.5"/>
<text text-anchor="middle" x="1787.04" y="-119.5" font-family="FreeSans" font-size="10.00">DGtal/io/Color.h</text>
</a>
</g>
</g>
<!-- Node33&#45;&gt;Node36 -->
<g id="edge59" class="edge">
<title>Node33&#45;&gt;Node36</title>
<path fill="none" stroke="midnightblue" d="M1939.53,-173.98C1908.73,-163.68 1856.77,-146.31 1822.19,-134.75"/>
<polygon fill="midnightblue" stroke="midnightblue" points="1823.08,-131.36 1812.49,-131.51 1820.87,-138 1823.08,-131.36"/>
</g>
<!-- Node40 -->
<g id="node40" class="node">
<title>Node40</title>
<g id="a_node40"><a xlink:href="BasicBoolFunctors_8h_source.html" target="_top" xlink:title=" ">
<polygon fill="white" stroke="black" points="2012.04,-112.5 2012.04,-131.5 2184.04,-131.5 2184.04,-112.5 2012.04,-112.5"/>
<text text-anchor="middle" x="2098.04" y="-119.5" font-family="FreeSans" font-size="10.00">DGtal/base/BasicBoolFunctors.h</text>
</a>
</g>
</g>
<!-- Node33&#45;&gt;Node40 -->
<g id="edge67" class="edge">
<title>Node33&#45;&gt;Node40</title>
<path fill="none" stroke="midnightblue" d="M1984.09,-173.98C2006.51,-163.95 2043.94,-147.2 2069.75,-135.65"/>
<polygon fill="midnightblue" stroke="midnightblue" points="2071.32,-138.79 2079.02,-131.51 2068.46,-132.4 2071.32,-138.79"/>
</g>
<!-- Node36&#45;&gt;Node4 -->
<g id="edge60" class="edge">
<title>Node36&#45;&gt;Node4</title>
<path fill="none" stroke="midnightblue" d="M1742.08,-112.44C1702.65,-104.48 1643.97,-91.52 1594.04,-76 1570.79,-68.77 1566.66,-61.91 1543.04,-56 1420.08,-25.25 1269.67,-15.39 1198.74,-12.33"/>
<polygon fill="midnightblue" stroke="midnightblue" points="1198.6,-8.82 1188.46,-11.91 1198.31,-15.81 1198.6,-8.82"/>
</g>
<!-- Node36&#45;&gt;Node5 -->
<g id="edge61" class="edge">
<title>Node36&#45;&gt;Node5</title>
<path fill="none" stroke="midnightblue" d="M1788.58,-131.64C1790.88,-147.63 1793.1,-181.76 1774.04,-199 1732.03,-236.99 1358.37,-243.09 1196.87,-243.94"/>
<polygon fill="midnightblue" stroke="midnightblue" points="1196.53,-240.44 1186.54,-243.98 1196.56,-247.44 1196.53,-240.44"/>
</g>
<!-- Node36&#45;&gt;Node34 -->
<g id="edge63" class="edge">
<title>Node36&#45;&gt;Node34</title>
<path fill="none" stroke="midnightblue" d="M1819.36,-112.44C1854.42,-103.16 1910.53,-88.31 1949,-78.13"/>
<polygon fill="midnightblue" stroke="midnightblue" points="1950.09,-81.46 1958.86,-75.52 1948.3,-74.69 1950.09,-81.46"/>
</g>
<!-- Node37 -->
<g id="node37" class="node">
<title>Node37</title>
<g id="a_node37"><a xlink:title=" ">
<polygon fill="white" stroke="#bfbfbf" points="1717.54,-56.5 1717.54,-75.5 1842.54,-75.5 1842.54,-56.5 1717.54,-56.5"/>
<text text-anchor="middle" x="1780.04" y="-63.5" font-family="FreeSans" font-size="10.00">boost/lexical_cast.hpp</text>
</a>
</g>
</g>
<!-- Node36&#45;&gt;Node37 -->
<g id="edge62" class="edge">
<title>Node36&#45;&gt;Node37</title>
<path fill="none" stroke="midnightblue" d="M1785.88,-112.08C1784.95,-104.93 1783.62,-94.64 1782.46,-85.69"/>
<polygon fill="midnightblue" stroke="midnightblue" points="1785.93,-85.22 1781.17,-75.75 1778.98,-86.12 1785.93,-85.22"/>
</g>
<!-- Node38 -->
<g id="node38" class="node">
<title>Node38</title>
<g id="a_node38"><a xlink:title=" ">
<polygon fill="white" stroke="#bfbfbf" points="1861.04,-56.5 1861.04,-75.5 1903.04,-75.5 1903.04,-56.5 1861.04,-56.5"/>
<text text-anchor="middle" x="1882.04" y="-63.5" font-family="FreeSans" font-size="10.00">array</text>
</a>
</g>
</g>
<!-- Node36&#45;&gt;Node38 -->
<g id="edge64" class="edge">
<title>Node36&#45;&gt;Node38</title>
<path fill="none" stroke="midnightblue" d="M1802.3,-112.32C1817.26,-103.82 1840.29,-90.73 1857.76,-80.8"/>
<polygon fill="midnightblue" stroke="midnightblue" points="1859.85,-83.64 1866.81,-75.65 1856.39,-77.55 1859.85,-83.64"/>
</g>
<!-- Node39 -->
<g id="node39" class="node">
<title>Node39</title>
<g id="a_node39"><a xlink:href="Color_8ih_source.html" target="_top" xlink:title=" ">
<polygon fill="white" stroke="black" points="1603.04,-56.5 1603.04,-75.5 1699.04,-75.5 1699.04,-56.5 1603.04,-56.5"/>
<text text-anchor="middle" x="1651.04" y="-63.5" font-family="FreeSans" font-size="10.00">DGtal/io/Color.ih</text>
</a>
</g>
</g>
<!-- Node36&#45;&gt;Node39 -->
<g id="edge65" class="edge">
<title>Node36&#45;&gt;Node39</title>
<path fill="none" stroke="midnightblue" d="M1765.49,-112.44C1743,-103.52 1707.55,-89.44 1682.06,-79.32"/>
<polygon fill="midnightblue" stroke="midnightblue" points="1683.07,-75.95 1672.48,-75.52 1680.49,-82.46 1683.07,-75.95"/>
</g>
<!-- Node40&#45;&gt;Node4 -->
<g id="edge68" class="edge">
<title>Node40&#45;&gt;Node4</title>
<path fill="none" stroke="midnightblue" d="M2092.4,-112.26C2082.33,-97.53 2059.71,-68.18 2032.04,-56 1955.24,-22.2 1360.21,-13.23 1198.49,-11.4"/>
<polygon fill="midnightblue" stroke="midnightblue" points="1198.51,-7.9 1188.47,-11.29 1198.43,-14.9 1198.51,-7.9"/>
</g>
<!-- Node41 -->
<g id="node41" class="node">
<title>Node41</title>
<g id="a_node41"><a xlink:title=" ">
<polygon fill="white" stroke="#bfbfbf" points="2272.54,-56.5 2272.54,-75.5 2379.54,-75.5 2379.54,-56.5 2272.54,-56.5"/>
<text text-anchor="middle" x="2326.04" y="-63.5" font-family="FreeSans" font-size="10.00">boost/function.hpp</text>
</a>
</g>
</g>
<!-- Node40&#45;&gt;Node41 -->
<g id="edge69" class="edge">
<title>Node40&#45;&gt;Node41</title>
<path fill="none" stroke="midnightblue" d="M2134.16,-112.44C2173.69,-103.08 2237.13,-88.06 2280.15,-77.87"/>
<polygon fill="midnightblue" stroke="midnightblue" points="2281.15,-81.23 2290.08,-75.52 2279.54,-74.42 2281.15,-81.23"/>
</g>
<!-- Node42 -->
<g id="node42" class="node">
<title>Node42</title>
<g id="a_node42"><a xlink:href="BasicBoolFunctors_8ih_source.html" target="_top" xlink:title=" ">
<polygon fill="white" stroke="black" points="2079.54,-56.5 2079.54,-75.5 2254.54,-75.5 2254.54,-56.5 2079.54,-56.5"/>
<text text-anchor="middle" x="2167.04" y="-63.5" font-family="FreeSans" font-size="10.00">DGtal/base/BasicBoolFunctors.ih</text>
</a>
</g>
</g>
<!-- Node40&#45;&gt;Node42 -->
<g id="edge70" class="edge">
<title>Node40&#45;&gt;Node42</title>
<path fill="none" stroke="midnightblue" d="M2109.12,-112.32C2119.52,-104.18 2135.3,-91.84 2147.76,-82.09"/>
<polygon fill="midnightblue" stroke="midnightblue" points="2150.03,-84.75 2155.75,-75.83 2145.72,-79.24 2150.03,-84.75"/>
</g>
<!-- Node43&#45;&gt;Node4 -->
<g id="edge72" class="edge">
<title>Node43&#45;&gt;Node4</title>
<path fill="none" stroke="midnightblue" d="M1160.93,-112.19C1155.28,-103.46 1147.28,-89.48 1144.04,-76 1140.24,-60.24 1144.82,-42.2 1149.73,-29.14"/>
<polygon fill="midnightblue" stroke="midnightblue" points="1152.98,-30.44 1153.59,-19.86 1146.52,-27.75 1152.98,-30.44"/>
</g>
<!-- Node44&#45;&gt;Node4 -->
<g id="edge74" class="edge">
<title>Node44&#45;&gt;Node4</title>
<path fill="none" stroke="midnightblue" d="M1230.08,-173.85C1245.91,-160.36 1271.72,-133.63 1258.04,-112 1238.05,-80.42 1207.27,-103.57 1182.04,-76 1170.25,-63.12 1164.11,-43.94 1161.01,-29.75"/>
<polygon fill="midnightblue" stroke="midnightblue" points="1164.4,-28.84 1159.12,-19.66 1157.52,-30.13 1164.4,-28.84"/>
</g>
<!-- Node45&#45;&gt;Node5 -->
<g id="edge77" class="edge">
<title>Node45&#45;&gt;Node5</title>
<path fill="none" stroke="midnightblue" d="M1173.59,-347.4C1164.08,-339.03 1150.28,-325.49 1142.04,-311 1133.85,-296.63 1128.93,-278.44 1126.15,-264.95"/>
<polygon fill="midnightblue" stroke="midnightblue" points="1129.55,-264.12 1124.3,-254.92 1122.67,-265.39 1129.55,-264.12"/>
</g>
<!-- Node45&#45;&gt;Node16 -->
<g id="edge76" class="edge">
<title>Node45&#45;&gt;Node16</title>
<path fill="none" stroke="midnightblue" d="M1133.38,-353.02C919.32,-339.91 96.55,-284.26 22.04,-199 -99.27,-60.2 314.85,-21.23 435.82,-12.92"/>
<polygon fill="midnightblue" stroke="midnightblue" points="436.2,-16.4 445.95,-12.25 435.74,-9.42 436.2,-16.4"/>
</g>
<!-- Node45&#45;&gt;Node33 -->
<g id="edge78" class="edge">
<title>Node45&#45;&gt;Node33</title>
<path fill="none" stroke="midnightblue" d="M1234.66,-352.04C1373.88,-340.61 1759.82,-305.15 1876.04,-255 1905.59,-242.25 1933.65,-217.08 1950.1,-200.53"/>
<polygon fill="midnightblue" stroke="midnightblue" points="1952.76,-202.81 1957.2,-193.18 1947.73,-197.94 1952.76,-202.81"/>
</g>
<!-- Node46 -->
<g id="node46" class="node">
<title>Node46</title>
<g id="a_node46"><a xlink:href="ExpressionTemplates_8h_source.html" target="_top" xlink:title=" ">
<polygon fill="white" stroke="black" points="1151.04,-291.5 1151.04,-310.5 1337.04,-310.5 1337.04,-291.5 1151.04,-291.5"/>
<text text-anchor="middle" x="1244.04" y="-298.5" font-family="FreeSans" font-size="10.00">DGtal/base/ExpressionTemplates.h</text>
</a>
</g>
</g>
<!-- Node45&#45;&gt;Node46 -->
<g id="edge79" class="edge">
<title>Node45&#45;&gt;Node46</title>
<path fill="none" stroke="midnightblue" d="M1193.68,-347.32C1202.54,-339.34 1215.91,-327.31 1226.64,-317.65"/>
<polygon fill="midnightblue" stroke="midnightblue" points="1229.13,-320.13 1234.22,-310.83 1224.45,-314.92 1229.13,-320.13"/>
</g>
<!-- Node46&#45;&gt;Node4 -->
<g id="edge80" class="edge">
<title>Node46&#45;&gt;Node4</title>
<path fill="none" stroke="midnightblue" d="M1337.28,-300.32C1451.96,-296.95 1649.45,-278.67 1796.04,-199 1800.16,-196.76 1910.3,-80.36 1912.04,-76 1915.32,-67.74 1918.13,-62.47 1912.04,-56 1887.39,-29.84 1351.96,-15.48 1198.69,-11.9"/>
<polygon fill="midnightblue" stroke="midnightblue" points="1198.41,-8.39 1188.33,-11.66 1198.24,-15.39 1198.41,-8.39"/>
</g>
<!-- Node46&#45;&gt;Node5 -->
<g id="edge81" class="edge">
<title>Node46&#45;&gt;Node5</title>
<path fill="none" stroke="midnightblue" d="M1224.86,-291.44C1205.13,-282.64 1174.15,-268.81 1151.54,-258.72"/>
<polygon fill="midnightblue" stroke="midnightblue" points="1152.68,-255.4 1142.12,-254.52 1149.82,-261.79 1152.68,-255.4"/>
</g>
</g>
</svg>
