<?xml version="1.0" encoding="UTF-8" standalone="no"?>
<!DOCTYPE svg PUBLIC "-//W3C//DTD SVG 1.1//EN"
 "http://www.w3.org/Graphics/SVG/1.1/DTD/svg11.dtd">
<!-- Generated by graphviz version 2.43.0 (0)
 -->
<!-- Title: testCirculator.cpp Pages: 1 -->
<svg width="2908pt" height="341pt"
 viewBox="0.00 0.00 2908.00 341.00" xmlns="http://www.w3.org/2000/svg" xmlns:xlink="http://www.w3.org/1999/xlink">
<g id="graph0" class="graph" transform="scale(1 1) rotate(0) translate(4 337)">
<title>testCirculator.cpp</title>
<polygon fill="white" stroke="transparent" points="-4,4 -4,-337 2904,-337 2904,4 -4,4"/>
<!-- Node1 -->
<g id="node1" class="node">
<title>Node1</title>
<g id="a_node1"><a xlink:title=" ">
<polygon fill="#bfbfbf" stroke="black" points="1200,-313.5 1200,-332.5 1302,-332.5 1302,-313.5 1200,-313.5"/>
<text text-anchor="middle" x="1251" y="-320.5" font-family="FreeSans" font-size="10.00">testCirculator.cpp</text>
</a>
</g>
</g>
<!-- Node2 -->
<g id="node2" class="node">
<title>Node2</title>
<g id="a_node2"><a xlink:title=" ">
<polygon fill="white" stroke="#bfbfbf" points="1181,-0.5 1181,-19.5 1241,-19.5 1241,-0.5 1181,-0.5"/>
<text text-anchor="middle" x="1211" y="-7.5" font-family="FreeSans" font-size="10.00">iostream</text>
</a>
</g>
</g>
<!-- Node1&#45;&gt;Node2 -->
<g id="edge1" class="edge">
<title>Node1&#45;&gt;Node2</title>
<path fill="none" stroke="midnightblue" d="M1199.63,-320C964.22,-310.48 0,-267.78 0,-206.5 0,-206.5 0,-206.5 0,-137.5 0,-81.87 43.23,-76.36 95,-56 196.56,-16.06 982.57,-11.57 1170.66,-11.06"/>
<polygon fill="midnightblue" stroke="midnightblue" points="1170.94,-14.56 1180.93,-11.04 1170.92,-7.56 1170.94,-14.56"/>
</g>
<!-- Node3 -->
<g id="node3" class="node">
<title>Node3</title>
<g id="a_node3"><a xlink:title=" ">
<polygon fill="white" stroke="#bfbfbf" points="1198.5,-257.5 1198.5,-276.5 1245.5,-276.5 1245.5,-257.5 1198.5,-257.5"/>
<text text-anchor="middle" x="1222" y="-264.5" font-family="FreeSans" font-size="10.00">vector</text>
</a>
</g>
</g>
<!-- Node1&#45;&gt;Node3 -->
<g id="edge2" class="edge">
<title>Node1&#45;&gt;Node3</title>
<path fill="none" stroke="midnightblue" d="M1246.21,-313.08C1242.24,-305.69 1236.47,-294.95 1231.57,-285.81"/>
<polygon fill="midnightblue" stroke="midnightblue" points="1234.51,-283.91 1226.7,-276.75 1228.35,-287.22 1234.51,-283.91"/>
</g>
<!-- Node4 -->
<g id="node4" class="node">
<title>Node4</title>
<g id="a_node4"><a xlink:title=" ">
<polygon fill="white" stroke="#bfbfbf" points="1264,-257.5 1264,-276.5 1296,-276.5 1296,-257.5 1264,-257.5"/>
<text text-anchor="middle" x="1280" y="-264.5" font-family="FreeSans" font-size="10.00">list</text>
</a>
</g>
</g>
<!-- Node1&#45;&gt;Node4 -->
<g id="edge3" class="edge">
<title>Node1&#45;&gt;Node4</title>
<path fill="none" stroke="midnightblue" d="M1255.79,-313.08C1259.76,-305.69 1265.53,-294.95 1270.43,-285.81"/>
<polygon fill="midnightblue" stroke="midnightblue" points="1273.65,-287.22 1275.3,-276.75 1267.49,-283.91 1273.65,-287.22"/>
</g>
<!-- Node5 -->
<g id="node5" class="node">
<title>Node5</title>
<g id="a_node5"><a xlink:title=" ">
<polygon fill="white" stroke="#bfbfbf" points="1314,-257.5 1314,-276.5 1388,-276.5 1388,-257.5 1314,-257.5"/>
<text text-anchor="middle" x="1351" y="-264.5" font-family="FreeSans" font-size="10.00">forward_list</text>
</a>
</g>
</g>
<!-- Node1&#45;&gt;Node5 -->
<g id="edge4" class="edge">
<title>Node1&#45;&gt;Node5</title>
<path fill="none" stroke="midnightblue" d="M1267.07,-313.32C1282.96,-304.74 1307.51,-291.49 1325.96,-281.52"/>
<polygon fill="midnightblue" stroke="midnightblue" points="1327.84,-284.49 1334.97,-276.65 1324.51,-278.33 1327.84,-284.49"/>
</g>
<!-- Node6 -->
<g id="node6" class="node">
<title>Node6</title>
<g id="a_node6"><a xlink:href="Common_8h_source.html" target="_top" xlink:title=" ">
<polygon fill="white" stroke="black" points="1053.5,-257.5 1053.5,-276.5 1180.5,-276.5 1180.5,-257.5 1053.5,-257.5"/>
<text text-anchor="middle" x="1117" y="-264.5" font-family="FreeSans" font-size="10.00">DGtal/base/Common.h</text>
</a>
</g>
</g>
<!-- Node1&#45;&gt;Node6 -->
<g id="edge5" class="edge">
<title>Node1&#45;&gt;Node6</title>
<path fill="none" stroke="midnightblue" d="M1229.77,-313.44C1207.62,-304.52 1172.68,-290.44 1147.56,-280.32"/>
<polygon fill="midnightblue" stroke="midnightblue" points="1148.72,-277.01 1138.13,-276.52 1146.1,-283.5 1148.72,-277.01"/>
</g>
<!-- Node47 -->
<g id="node44" class="node">
<title>Node47</title>
<g id="a_node44"><a xlink:href="Circulator_8h_source.html" target="_top" xlink:title=" ">
<polygon fill="white" stroke="black" points="2472.5,-257.5 2472.5,-276.5 2601.5,-276.5 2601.5,-257.5 2472.5,-257.5"/>
<text text-anchor="middle" x="2537" y="-264.5" font-family="FreeSans" font-size="10.00">DGtal/base/Circulator.h</text>
</a>
</g>
</g>
<!-- Node1&#45;&gt;Node47 -->
<g id="edge73" class="edge">
<title>Node1&#45;&gt;Node47</title>
<path fill="none" stroke="midnightblue" d="M1302.21,-319.85C1501.52,-311.48 2226.11,-281.05 2462.13,-271.14"/>
<polygon fill="midnightblue" stroke="midnightblue" points="2462.48,-274.63 2472.33,-270.72 2462.19,-267.64 2462.48,-274.63"/>
</g>
<!-- Node6&#45;&gt;Node2 -->
<g id="edge6" class="edge">
<title>Node6&#45;&gt;Node2</title>
<path fill="none" stroke="midnightblue" d="M1180.58,-257.81C1183.42,-257.52 1186.24,-257.25 1189,-257 1260.49,-250.54 1784.68,-273.15 1834,-221 1843.47,-210.99 1843.39,-200.08 1834,-190 1795.9,-149.07 1384.03,-174.5 1332,-154 1287.89,-136.62 1278.72,-123.93 1249,-87 1234.74,-69.28 1223.87,-45.33 1217.48,-29.08"/>
<polygon fill="midnightblue" stroke="midnightblue" points="1220.73,-27.79 1213.94,-19.66 1214.18,-30.26 1220.73,-27.79"/>
</g>
<!-- Node7 -->
<g id="node7" class="node">
<title>Node7</title>
<g id="a_node7"><a xlink:title=" ">
<polygon fill="white" stroke="#bfbfbf" points="688.5,-196 688.5,-215 753.5,-215 753.5,-196 688.5,-196"/>
<text text-anchor="middle" x="721" y="-203" font-family="FreeSans" font-size="10.00">exception</text>
</a>
</g>
</g>
<!-- Node6&#45;&gt;Node7 -->
<g id="edge7" class="edge">
<title>Node6&#45;&gt;Node7</title>
<path fill="none" stroke="midnightblue" d="M1053.32,-261.87C981.9,-256.33 863,-244.35 763,-221 759.59,-220.2 756.07,-219.23 752.59,-218.18"/>
<polygon fill="midnightblue" stroke="midnightblue" points="753.58,-214.82 742.98,-215.04 751.4,-221.47 753.58,-214.82"/>
</g>
<!-- Node8 -->
<g id="node8" class="node">
<title>Node8</title>
<g id="a_node8"><a xlink:title=" ">
<polygon fill="white" stroke="#bfbfbf" points="772,-196 772,-215 876,-215 876,-196 772,-196"/>
<text text-anchor="middle" x="824" y="-203" font-family="FreeSans" font-size="10.00">boost/version.hpp</text>
</a>
</g>
</g>
<!-- Node6&#45;&gt;Node8 -->
<g id="edge8" class="edge">
<title>Node6&#45;&gt;Node8</title>
<path fill="none" stroke="midnightblue" d="M1069.78,-257.44C1022.82,-248.78 948.77,-234.76 885,-221 879.68,-219.85 874.11,-218.6 868.59,-217.33"/>
<polygon fill="midnightblue" stroke="midnightblue" points="869.32,-213.9 858.78,-215.03 867.72,-220.72 869.32,-213.9"/>
</g>
<!-- Node9 -->
<g id="node9" class="node">
<title>Node9</title>
<g id="a_node9"><a xlink:title=" ">
<polygon fill="white" stroke="#bfbfbf" points="894,-196 894,-215 1034,-215 1034,-196 894,-196"/>
<text text-anchor="middle" x="964" y="-203" font-family="FreeSans" font-size="10.00">boost/concept_check.hpp</text>
</a>
</g>
</g>
<!-- Node6&#45;&gt;Node9 -->
<g id="edge9" class="edge">
<title>Node6&#45;&gt;Node9</title>
<path fill="none" stroke="midnightblue" d="M1095.08,-257.48C1068.95,-247.31 1025.09,-230.26 995.37,-218.7"/>
<polygon fill="midnightblue" stroke="midnightblue" points="996.47,-215.37 985.88,-215.01 993.93,-221.9 996.47,-215.37"/>
</g>
<!-- Node10 -->
<g id="node10" class="node">
<title>Node10</title>
<g id="a_node10"><a xlink:title=" ">
<polygon fill="white" stroke="#bfbfbf" points="1052,-196 1052,-215 1182,-215 1182,-196 1052,-196"/>
<text text-anchor="middle" x="1117" y="-203" font-family="FreeSans" font-size="10.00">boost/static_assert.hpp</text>
</a>
</g>
</g>
<!-- Node6&#45;&gt;Node10 -->
<g id="edge10" class="edge">
<title>Node6&#45;&gt;Node10</title>
<path fill="none" stroke="midnightblue" d="M1117,-257.48C1117,-249.08 1117,-235.98 1117,-225.16"/>
<polygon fill="midnightblue" stroke="midnightblue" points="1120.5,-225.01 1117,-215.01 1113.5,-225.01 1120.5,-225.01"/>
</g>
<!-- Node11 -->
<g id="node11" class="node">
<title>Node11</title>
<g id="a_node11"><a xlink:title=" ">
<polygon fill="white" stroke="#bfbfbf" points="1200.5,-196 1200.5,-215 1339.5,-215 1339.5,-196 1200.5,-196"/>
<text text-anchor="middle" x="1270" y="-203" font-family="FreeSans" font-size="10.00">boost/concept/assert.hpp</text>
</a>
</g>
</g>
<!-- Node6&#45;&gt;Node11 -->
<g id="edge11" class="edge">
<title>Node6&#45;&gt;Node11</title>
<path fill="none" stroke="midnightblue" d="M1138.92,-257.48C1165.05,-247.31 1208.91,-230.26 1238.63,-218.7"/>
<polygon fill="midnightblue" stroke="midnightblue" points="1240.07,-221.9 1248.12,-215.01 1237.53,-215.37 1240.07,-221.9"/>
</g>
<!-- Node12 -->
<g id="node12" class="node">
<title>Node12</title>
<g id="a_node12"><a xlink:title=" ">
<polygon fill="white" stroke="#bfbfbf" points="1357.5,-196 1357.5,-215 1506.5,-215 1506.5,-196 1357.5,-196"/>
<text text-anchor="middle" x="1432" y="-203" font-family="FreeSans" font-size="10.00">boost/concept/requires.hpp</text>
</a>
</g>
</g>
<!-- Node6&#45;&gt;Node12 -->
<g id="edge12" class="edge">
<title>Node6&#45;&gt;Node12</title>
<path fill="none" stroke="midnightblue" d="M1162.13,-257.48C1218.86,-246.76 1316.15,-228.38 1377.12,-216.87"/>
<polygon fill="midnightblue" stroke="midnightblue" points="1377.78,-220.3 1386.95,-215.01 1376.48,-213.43 1377.78,-220.3"/>
</g>
<!-- Node13 -->
<g id="node13" class="node">
<title>Node13</title>
<g id="a_node13"><a xlink:title=" ">
<polygon fill="white" stroke="#bfbfbf" points="1525,-190.5 1525,-220.5 1647,-220.5 1647,-190.5 1525,-190.5"/>
<text text-anchor="start" x="1533" y="-208.5" font-family="FreeSans" font-size="10.00">boost/iterator/iterator</text>
<text text-anchor="middle" x="1586" y="-197.5" font-family="FreeSans" font-size="10.00">_concepts.hpp</text>
</a>
</g>
</g>
<!-- Node6&#45;&gt;Node13 -->
<g id="edge13" class="edge">
<title>Node6&#45;&gt;Node13</title>
<path fill="none" stroke="midnightblue" d="M1180.6,-258C1183.44,-257.66 1186.25,-257.32 1189,-257 1333.77,-239.96 1370.99,-243.61 1515,-221 1515.1,-220.98 1515.2,-220.97 1515.3,-220.95"/>
<polygon fill="midnightblue" stroke="midnightblue" points="1515.59,-224.45 1524.87,-219.35 1514.43,-217.55 1515.59,-224.45"/>
</g>
<!-- Node14 -->
<g id="node14" class="node">
<title>Node14</title>
<g id="a_node14"><a xlink:title=" ">
<polygon fill="white" stroke="#bfbfbf" points="1665,-196 1665,-215 1825,-215 1825,-196 1665,-196"/>
<text text-anchor="middle" x="1745" y="-203" font-family="FreeSans" font-size="10.00">boost/concept_archetype.hpp</text>
</a>
</g>
</g>
<!-- Node6&#45;&gt;Node14 -->
<g id="edge14" class="edge">
<title>Node6&#45;&gt;Node14</title>
<path fill="none" stroke="midnightblue" d="M1180.58,-257.89C1183.43,-257.58 1186.24,-257.28 1189,-257 1396.12,-236.08 1449.31,-245.76 1656,-221 1666.03,-219.8 1676.65,-218.28 1686.93,-216.69"/>
<polygon fill="midnightblue" stroke="midnightblue" points="1687.74,-220.1 1697.07,-215.07 1686.64,-213.19 1687.74,-220.1"/>
</g>
<!-- Node15 -->
<g id="node15" class="node">
<title>Node15</title>
<g id="a_node15"><a xlink:title=" ">
<polygon fill="white" stroke="#bfbfbf" points="615.5,-129 615.5,-148 662.5,-148 662.5,-129 615.5,-129"/>
<text text-anchor="middle" x="639" y="-136" font-family="FreeSans" font-size="10.00">cmath</text>
</a>
</g>
</g>
<!-- Node6&#45;&gt;Node15 -->
<g id="edge15" class="edge">
<title>Node6&#45;&gt;Node15</title>
<path fill="none" stroke="midnightblue" d="M1053.35,-266.5C895.23,-267.07 494.37,-264.2 454,-221 444.59,-210.93 445.45,-200.81 454,-190 497.06,-135.55 540.17,-176.05 606,-154 607.87,-153.37 609.78,-152.68 611.69,-151.95"/>
<polygon fill="midnightblue" stroke="midnightblue" points="613.17,-155.13 621.08,-148.08 610.5,-148.66 613.17,-155.13"/>
</g>
<!-- Node16 -->
<g id="node16" class="node">
<title>Node16</title>
<g id="a_node16"><a xlink:title=" ">
<polygon fill="white" stroke="#bfbfbf" points="1881,-196 1881,-215 1931,-215 1931,-196 1881,-196"/>
<text text-anchor="middle" x="1906" y="-203" font-family="FreeSans" font-size="10.00">stdio.h</text>
</a>
</g>
</g>
<!-- Node6&#45;&gt;Node16 -->
<g id="edge16" class="edge">
<title>Node6&#45;&gt;Node16</title>
<path fill="none" stroke="midnightblue" d="M1180.58,-257.8C1183.42,-257.52 1186.24,-257.25 1189,-257 1489.57,-230.27 1571.53,-282.28 1867,-221 1870.25,-220.33 1873.6,-219.42 1876.89,-218.4"/>
<polygon fill="midnightblue" stroke="midnightblue" points="1878.2,-221.65 1886.5,-215.07 1875.91,-215.04 1878.2,-221.65"/>
</g>
<!-- Node17 -->
<g id="node17" class="node">
<title>Node17</title>
<g id="a_node17"><a xlink:href="Config_8h_source.html" target="_top" xlink:title=" ">
<polygon fill="white" stroke="black" points="2057.5,-62 2057.5,-81 2170.5,-81 2170.5,-62 2057.5,-62"/>
<text text-anchor="middle" x="2114" y="-69" font-family="FreeSans" font-size="10.00">DGtal/base/Config.h</text>
</a>
</g>
</g>
<!-- Node6&#45;&gt;Node17 -->
<g id="edge17" class="edge">
<title>Node6&#45;&gt;Node17</title>
<path fill="none" stroke="midnightblue" d="M1180.57,-257.75C1183.42,-257.48 1186.24,-257.22 1189,-257 1241.81,-252.71 2105.25,-259.16 2142,-221 2176.48,-185.19 2144.58,-121.03 2125.67,-90.11"/>
<polygon fill="midnightblue" stroke="midnightblue" points="2128.4,-87.88 2120.09,-81.32 2122.49,-91.64 2128.4,-87.88"/>
</g>
<!-- Node19 -->
<g id="node19" class="node">
<title>Node19</title>
<g id="a_node19"><a xlink:href="Trace_8h_source.html" target="_top" xlink:title=" ">
<polygon fill="white" stroke="black" points="2025,-196 2025,-215 2133,-215 2133,-196 2025,-196"/>
<text text-anchor="middle" x="2079" y="-203" font-family="FreeSans" font-size="10.00">DGtal/base/Trace.h</text>
</a>
</g>
</g>
<!-- Node6&#45;&gt;Node19 -->
<g id="edge20" class="edge">
<title>Node6&#45;&gt;Node19</title>
<path fill="none" stroke="midnightblue" d="M1180.57,-257.77C1183.42,-257.49 1186.24,-257.23 1189,-257 1553.39,-226.3 1648.26,-267.29 2011,-221 2018.58,-220.03 2026.56,-218.66 2034.29,-217.14"/>
<polygon fill="midnightblue" stroke="midnightblue" points="2035.17,-220.53 2044.25,-215.07 2033.75,-213.68 2035.17,-220.53"/>
</g>
<!-- Node26 -->
<g id="node26" class="node">
<title>Node26</title>
<g id="a_node26"><a xlink:href="TraceWriterTerm_8h_source.html" target="_top" xlink:title=" ">
<polygon fill="white" stroke="black" points="1666,-129 1666,-148 1828,-148 1828,-129 1666,-129"/>
<text text-anchor="middle" x="1747" y="-136" font-family="FreeSans" font-size="10.00">DGtal/base/TraceWriterTerm.h</text>
</a>
</g>
</g>
<!-- Node6&#45;&gt;Node26 -->
<g id="edge43" class="edge">
<title>Node6&#45;&gt;Node26</title>
<path fill="none" stroke="midnightblue" d="M1180.57,-257.78C1183.42,-257.5 1186.24,-257.24 1189,-257 1231.61,-253.34 1928.47,-251.94 1958,-221 1967.51,-211.03 1966.53,-200.82 1958,-190 1948.49,-177.94 1865.48,-160.76 1806.47,-149.87"/>
<polygon fill="midnightblue" stroke="midnightblue" points="1806.96,-146.4 1796.49,-148.04 1805.7,-153.28 1806.96,-146.4"/>
</g>
<!-- Node27 -->
<g id="node27" class="node">
<title>Node27</title>
<g id="a_node27"><a xlink:href="Assert_8h_source.html" target="_top" xlink:title=" ">
<polygon fill="white" stroke="black" points="2227.5,-129 2227.5,-148 2340.5,-148 2340.5,-129 2227.5,-129"/>
<text text-anchor="middle" x="2284" y="-136" font-family="FreeSans" font-size="10.00">DGtal/base/Assert.h</text>
</a>
</g>
</g>
<!-- Node6&#45;&gt;Node27 -->
<g id="edge48" class="edge">
<title>Node6&#45;&gt;Node27</title>
<path fill="none" stroke="midnightblue" d="M1180.57,-257.75C1183.42,-257.47 1186.24,-257.22 1189,-257 1298.27,-248.19 2071.62,-257.48 2175,-221 2213.58,-207.38 2249.83,-174.91 2269.26,-155.31"/>
<polygon fill="midnightblue" stroke="midnightblue" points="2271.87,-157.65 2276.29,-148.02 2266.83,-152.79 2271.87,-157.65"/>
</g>
<!-- Node30 -->
<g id="node30" class="node">
<title>Node30</title>
<g id="a_node30"><a xlink:href="TraceWriterFile_8h_source.html" target="_top" xlink:title=" ">
<polygon fill="white" stroke="black" points="1492.5,-129 1492.5,-148 1647.5,-148 1647.5,-129 1492.5,-129"/>
<text text-anchor="middle" x="1570" y="-136" font-family="FreeSans" font-size="10.00">DGtal/base/TraceWriterFile.h</text>
</a>
</g>
</g>
<!-- Node6&#45;&gt;Node30 -->
<g id="edge44" class="edge">
<title>Node6&#45;&gt;Node30</title>
<path fill="none" stroke="midnightblue" d="M1180.58,-257.79C1183.42,-257.5 1186.24,-257.24 1189,-257 1230.62,-253.41 1911.18,-251.23 1940,-221 1949.51,-211.03 1949.11,-200.34 1940,-190 1898.1,-142.43 1719.72,-163.21 1657,-154 1647.99,-152.68 1638.47,-151.18 1629.16,-149.68"/>
<polygon fill="midnightblue" stroke="midnightblue" points="1629.61,-146.2 1619.18,-148.04 1628.48,-153.11 1629.61,-146.2"/>
</g>
<!-- Node31 -->
<g id="node31" class="node">
<title>Node31</title>
<g id="a_node31"><a xlink:href="ConceptUtils_8h_source.html" target="_top" xlink:title=" ">
<polygon fill="white" stroke="black" points="28.5,-129 28.5,-148 173.5,-148 173.5,-129 28.5,-129"/>
<text text-anchor="middle" x="101" y="-136" font-family="FreeSans" font-size="10.00">DGtal/base/ConceptUtils.h</text>
</a>
</g>
</g>
<!-- Node6&#45;&gt;Node31 -->
<g id="edge49" class="edge">
<title>Node6&#45;&gt;Node31</title>
<path fill="none" stroke="midnightblue" d="M1053.41,-264.69C862.86,-260.49 304.94,-246.17 227,-221 183.91,-207.09 141.26,-174.5 118.3,-155.01"/>
<polygon fill="midnightblue" stroke="midnightblue" points="120.36,-152.16 110.51,-148.25 115.77,-157.44 120.36,-152.16"/>
</g>
<!-- Node32 -->
<g id="node32" class="node">
<title>Node32</title>
<g id="a_node32"><a xlink:href="BasicTypes_8h_source.html" target="_top" xlink:title=" ">
<polygon fill="white" stroke="black" points="967.5,-129 967.5,-148 1104.5,-148 1104.5,-129 967.5,-129"/>
<text text-anchor="middle" x="1036" y="-136" font-family="FreeSans" font-size="10.00">DGtal/base/BasicTypes.h</text>
</a>
</g>
</g>
<!-- Node6&#45;&gt;Node32 -->
<g id="edge51" class="edge">
<title>Node6&#45;&gt;Node32</title>
<path fill="none" stroke="midnightblue" d="M1053.27,-265.93C907.66,-265.11 560.34,-259.13 525,-221 515.63,-210.9 515.75,-200.21 525,-190 553.4,-158.65 820.59,-146.03 956.87,-141.6"/>
<polygon fill="midnightblue" stroke="midnightblue" points="957.36,-145.08 967.25,-141.27 957.14,-138.09 957.36,-145.08"/>
</g>
<!-- Node35 -->
<g id="node35" class="node">
<title>Node35</title>
<g id="a_node35"><a xlink:href="BasicFunctors_8h_source.html" target="_top" xlink:title=" ">
<polygon fill="white" stroke="black" points="252,-196 252,-215 402,-215 402,-196 252,-196"/>
<text text-anchor="middle" x="327" y="-203" font-family="FreeSans" font-size="10.00">DGtal/base/BasicFunctors.h</text>
</a>
</g>
</g>
<!-- Node6&#45;&gt;Node35 -->
<g id="edge56" class="edge">
<title>Node6&#45;&gt;Node35</title>
<path fill="none" stroke="midnightblue" d="M1053.23,-264.16C928.52,-259.96 644.2,-247.87 407,-221 396.73,-219.84 385.84,-218.31 375.49,-216.68"/>
<polygon fill="midnightblue" stroke="midnightblue" points="375.79,-213.19 365.36,-215.03 374.67,-220.1 375.79,-213.19"/>
</g>
<!-- Node45 -->
<g id="node42" class="node">
<title>Node45</title>
<g id="a_node42"><a xlink:href="BasicArchetypes_8h_source.html" target="_top" xlink:title=" ">
<polygon fill="white" stroke="black" points="694,-62 694,-81 858,-81 858,-62 694,-62"/>
<text text-anchor="middle" x="776" y="-69" font-family="FreeSans" font-size="10.00">DGtal/base/BasicArchetypes.h</text>
</a>
</g>
</g>
<!-- Node6&#45;&gt;Node45 -->
<g id="edge69" class="edge">
<title>Node6&#45;&gt;Node45</title>
<path fill="none" stroke="midnightblue" d="M1053.3,-266.02C905.88,-265.4 551.05,-259.84 515,-221 505.63,-210.9 506.42,-200.78 515,-190 559.3,-134.32 606.73,-184.53 671,-154 706.38,-137.19 741.01,-106.84 760.32,-88.3"/>
<polygon fill="midnightblue" stroke="midnightblue" points="762.93,-90.64 767.62,-81.15 758.03,-85.64 762.93,-90.64"/>
</g>
<!-- Node46 -->
<g id="node43" class="node">
<title>Node46</title>
<g id="a_node43"><a xlink:href="Exceptions_8h_source.html" target="_top" xlink:title=" ">
<polygon fill="white" stroke="black" points="534,-196 534,-215 670,-215 670,-196 534,-196"/>
<text text-anchor="middle" x="602" y="-203" font-family="FreeSans" font-size="10.00">DGtal/base/Exceptions.h</text>
</a>
</g>
</g>
<!-- Node6&#45;&gt;Node46 -->
<g id="edge71" class="edge">
<title>Node6&#45;&gt;Node46</title>
<path fill="none" stroke="midnightblue" d="M1053.33,-261.14C967.9,-254.24 811.57,-240.26 679,-221 670.87,-219.82 662.28,-218.39 653.91,-216.89"/>
<polygon fill="midnightblue" stroke="midnightblue" points="654.32,-213.41 643.85,-215.04 653.06,-220.29 654.32,-213.41"/>
</g>
<!-- Node17&#45;&gt;Node2 -->
<g id="edge18" class="edge">
<title>Node17&#45;&gt;Node2</title>
<path fill="none" stroke="midnightblue" d="M2057.17,-66.76C1889.01,-55.68 1396.61,-23.23 1251.61,-13.68"/>
<polygon fill="midnightblue" stroke="midnightblue" points="1251.6,-10.17 1241.39,-13 1251.14,-17.15 1251.6,-10.17"/>
</g>
<!-- Node18 -->
<g id="node18" class="node">
<title>Node18</title>
<g id="a_node18"><a xlink:title=" ">
<polygon fill="white" stroke="#bfbfbf" points="2092,-0.5 2092,-19.5 2136,-19.5 2136,-0.5 2092,-0.5"/>
<text text-anchor="middle" x="2114" y="-7.5" font-family="FreeSans" font-size="10.00">string</text>
</a>
</g>
</g>
<!-- Node17&#45;&gt;Node18 -->
<g id="edge19" class="edge">
<title>Node17&#45;&gt;Node18</title>
<path fill="none" stroke="midnightblue" d="M2114,-61.98C2114,-53.58 2114,-40.48 2114,-29.66"/>
<polygon fill="midnightblue" stroke="midnightblue" points="2117.5,-29.51 2114,-19.51 2110.5,-29.51 2117.5,-29.51"/>
</g>
<!-- Node19&#45;&gt;Node2 -->
<g id="edge21" class="edge">
<title>Node19&#45;&gt;Node2</title>
<path fill="none" stroke="midnightblue" d="M2024.92,-198.32C1999.22,-195.52 1968.05,-192.32 1940,-190 1875.1,-184.62 1407.75,-192.2 1355,-154 1317.03,-126.51 1348.71,-89.58 1316,-56 1298.48,-38.01 1272.61,-26.81 1250.93,-20.08"/>
<polygon fill="midnightblue" stroke="midnightblue" points="1251.89,-16.72 1241.31,-17.3 1249.94,-23.44 1251.89,-16.72"/>
</g>
<!-- Node19&#45;&gt;Node17 -->
<g id="edge25" class="edge">
<title>Node19&#45;&gt;Node17</title>
<path fill="none" stroke="midnightblue" d="M2083.08,-195.74C2087.55,-185.81 2094.68,-169.05 2099,-154 2105.06,-132.88 2109.23,-107.95 2111.61,-91.27"/>
<polygon fill="midnightblue" stroke="midnightblue" points="2115.1,-91.57 2112.97,-81.19 2108.16,-90.64 2115.1,-91.57"/>
</g>
<!-- Node19&#45;&gt;Node18 -->
<g id="edge23" class="edge">
<title>Node19&#45;&gt;Node18</title>
<path fill="none" stroke="midnightblue" d="M2090.6,-195.74C2112.88,-178.1 2161.06,-135.77 2179,-87 2183.76,-74.07 2185.39,-68.2 2179,-56 2171.72,-42.11 2157.99,-31.65 2145.02,-24.33"/>
<polygon fill="midnightblue" stroke="midnightblue" points="2146.3,-21.05 2135.81,-19.55 2143.07,-27.27 2146.3,-21.05"/>
</g>
<!-- Node20 -->
<g id="node20" class="node">
<title>Node20</title>
<g id="a_node20"><a xlink:title=" ">
<polygon fill="white" stroke="#bfbfbf" points="1840.5,-0.5 1840.5,-19.5 1897.5,-19.5 1897.5,-0.5 1840.5,-0.5"/>
<text text-anchor="middle" x="1869" y="-7.5" font-family="FreeSans" font-size="10.00">ostream</text>
</a>
</g>
</g>
<!-- Node19&#45;&gt;Node20 -->
<g id="edge22" class="edge">
<title>Node19&#45;&gt;Node20</title>
<path fill="none" stroke="midnightblue" d="M2078.62,-195.97C2077.51,-180.05 2073.15,-145.42 2056,-123 2016.93,-71.94 1947.37,-39.33 1904.99,-23.16"/>
<polygon fill="midnightblue" stroke="midnightblue" points="1905.94,-19.78 1895.35,-19.59 1903.51,-26.35 1905.94,-19.78"/>
</g>
<!-- Node21 -->
<g id="node21" class="node">
<title>Node21</title>
<g id="a_node21"><a xlink:title=" ">
<polygon fill="white" stroke="#bfbfbf" points="1846.5,-129 1846.5,-148 1889.5,-148 1889.5,-129 1846.5,-129"/>
<text text-anchor="middle" x="1868" y="-136" font-family="FreeSans" font-size="10.00">stack</text>
</a>
</g>
</g>
<!-- Node19&#45;&gt;Node21 -->
<g id="edge24" class="edge">
<title>Node19&#45;&gt;Node21</title>
<path fill="none" stroke="midnightblue" d="M2040.93,-195.97C2003.87,-187.18 1946.22,-172.21 1898,-154 1896.58,-153.46 1895.13,-152.88 1893.69,-152.28"/>
<polygon fill="midnightblue" stroke="midnightblue" points="1894.83,-148.95 1884.27,-148.02 1891.94,-155.33 1894.83,-148.95"/>
</g>
<!-- Node22 -->
<g id="node22" class="node">
<title>Node22</title>
<g id="a_node22"><a xlink:href="Clock_8h_source.html" target="_top" xlink:title=" ">
<polygon fill="white" stroke="black" points="1364,-129 1364,-148 1474,-148 1474,-129 1364,-129"/>
<text text-anchor="middle" x="1419" y="-136" font-family="FreeSans" font-size="10.00">DGtal/base/Clock.h</text>
</a>
</g>
</g>
<!-- Node19&#45;&gt;Node22 -->
<g id="edge26" class="edge">
<title>Node19&#45;&gt;Node22</title>
<path fill="none" stroke="midnightblue" d="M2024.9,-198.54C1999.2,-195.78 1968.03,-192.57 1940,-190 1737.11,-171.43 1684.43,-184.59 1483,-154 1476.26,-152.98 1469.18,-151.64 1462.29,-150.19"/>
<polygon fill="midnightblue" stroke="midnightblue" points="1462.89,-146.74 1452.37,-148.02 1461.39,-153.58 1462.89,-146.74"/>
</g>
<!-- Node25 -->
<g id="node25" class="node">
<title>Node25</title>
<g id="a_node25"><a xlink:href="TraceWriter_8h_source.html" target="_top" xlink:title=" ">
<polygon fill="white" stroke="black" points="1678.5,-62 1678.5,-81 1815.5,-81 1815.5,-62 1678.5,-62"/>
<text text-anchor="middle" x="1747" y="-69" font-family="FreeSans" font-size="10.00">DGtal/base/TraceWriter.h</text>
</a>
</g>
</g>
<!-- Node19&#45;&gt;Node25 -->
<g id="edge30" class="edge">
<title>Node19&#45;&gt;Node25</title>
<path fill="none" stroke="midnightblue" d="M2076.18,-195.93C2070.13,-178.97 2054.18,-141.23 2027,-123 1994.84,-101.43 1897.04,-87.34 1826.07,-79.66"/>
<polygon fill="midnightblue" stroke="midnightblue" points="1826.12,-76.14 1815.81,-78.57 1825.38,-83.1 1826.12,-76.14"/>
</g>
<!-- Node19&#45;&gt;Node26 -->
<g id="edge33" class="edge">
<title>Node19&#45;&gt;Node26</title>
<path fill="none" stroke="midnightblue" d="M2039.48,-195.92C2030.15,-193.94 2020.23,-191.87 2011,-190 1939.46,-175.53 1856.78,-159.89 1803.29,-149.91"/>
<polygon fill="midnightblue" stroke="midnightblue" points="1803.79,-146.44 1793.32,-148.05 1802.51,-153.33 1803.79,-146.44"/>
</g>
<!-- Node19&#45;&gt;Node27 -->
<g id="edge38" class="edge">
<title>Node19&#45;&gt;Node27</title>
<path fill="none" stroke="midnightblue" d="M2101.46,-195.87C2135.4,-184.33 2199.85,-163.84 2242.45,-151"/>
<polygon fill="midnightblue" stroke="midnightblue" points="2243.67,-154.28 2252.25,-148.06 2241.66,-147.58 2243.67,-154.28"/>
</g>
<!-- Node29 -->
<g id="node29" class="node">
<title>Node29</title>
<g id="a_node29"><a xlink:href="Trace_8ih_source.html" target="_top" xlink:title=" ">
<polygon fill="white" stroke="black" points="1907.5,-129 1907.5,-148 2018.5,-148 2018.5,-129 1907.5,-129"/>
<text text-anchor="middle" x="1963" y="-136" font-family="FreeSans" font-size="10.00">DGtal/base/Trace.ih</text>
</a>
</g>
</g>
<!-- Node19&#45;&gt;Node29 -->
<g id="edge42" class="edge">
<title>Node19&#45;&gt;Node29</title>
<path fill="none" stroke="midnightblue" d="M2063.36,-195.73C2043.79,-184.77 2010.08,-165.88 1987.18,-153.05"/>
<polygon fill="midnightblue" stroke="midnightblue" points="1988.83,-149.96 1978.4,-148.13 1985.41,-156.07 1988.83,-149.96"/>
</g>
<!-- Node22&#45;&gt;Node2 -->
<g id="edge27" class="edge">
<title>Node22&#45;&gt;Node2</title>
<path fill="none" stroke="midnightblue" d="M1414.08,-129C1404.09,-112.51 1379.87,-76.03 1350,-56 1319.94,-35.84 1280.21,-24.18 1250.93,-17.8"/>
<polygon fill="midnightblue" stroke="midnightblue" points="1251.54,-14.35 1241.04,-15.76 1250.12,-21.21 1251.54,-14.35"/>
</g>
<!-- Node23 -->
<g id="node23" class="node">
<title>Node23</title>
<g id="a_node23"><a xlink:title=" ">
<polygon fill="white" stroke="#bfbfbf" points="1258.5,-62 1258.5,-81 1307.5,-81 1307.5,-62 1258.5,-62"/>
<text text-anchor="middle" x="1283" y="-69" font-family="FreeSans" font-size="10.00">cstdlib</text>
</a>
</g>
</g>
<!-- Node22&#45;&gt;Node23 -->
<g id="edge28" class="edge">
<title>Node22&#45;&gt;Node23</title>
<path fill="none" stroke="midnightblue" d="M1400.94,-128.87C1377.77,-117.8 1337.37,-98.49 1310.4,-85.6"/>
<polygon fill="midnightblue" stroke="midnightblue" points="1311.67,-82.32 1301.13,-81.17 1308.65,-88.64 1311.67,-82.32"/>
</g>
<!-- Node24 -->
<g id="node24" class="node">
<title>Node24</title>
<g id="a_node24"><a xlink:href="Clock_8ih_source.html" target="_top" xlink:title=" ">
<polygon fill="white" stroke="black" points="1402.5,-62 1402.5,-81 1515.5,-81 1515.5,-62 1402.5,-62"/>
<text text-anchor="middle" x="1459" y="-69" font-family="FreeSans" font-size="10.00">DGtal/base/Clock.ih</text>
</a>
</g>
</g>
<!-- Node22&#45;&gt;Node24 -->
<g id="edge29" class="edge">
<title>Node22&#45;&gt;Node24</title>
<path fill="none" stroke="midnightblue" d="M1424.39,-128.73C1430.51,-118.79 1440.64,-102.34 1448.36,-89.79"/>
<polygon fill="midnightblue" stroke="midnightblue" points="1451.43,-91.48 1453.69,-81.13 1445.47,-87.81 1451.43,-91.48"/>
</g>
<!-- Node25&#45;&gt;Node2 -->
<g id="edge31" class="edge">
<title>Node25&#45;&gt;Node2</title>
<path fill="none" stroke="midnightblue" d="M1699.22,-61.96C1686.5,-59.84 1672.75,-57.7 1660,-56 1509.81,-35.98 1330.28,-20.53 1251.47,-14.16"/>
<polygon fill="midnightblue" stroke="midnightblue" points="1251.28,-10.64 1241.03,-13.33 1250.72,-17.62 1251.28,-10.64"/>
</g>
<!-- Node25&#45;&gt;Node20 -->
<g id="edge32" class="edge">
<title>Node25&#45;&gt;Node20</title>
<path fill="none" stroke="midnightblue" d="M1764.48,-61.98C1784.86,-52.03 1818.78,-35.49 1842.42,-23.96"/>
<polygon fill="midnightblue" stroke="midnightblue" points="1844.1,-27.04 1851.55,-19.51 1841.03,-20.75 1844.1,-27.04"/>
</g>
<!-- Node26&#45;&gt;Node2 -->
<g id="edge34" class="edge">
<title>Node26&#45;&gt;Node2</title>
<path fill="none" stroke="midnightblue" d="M1730.83,-129C1698.06,-112.17 1621.08,-74.64 1552,-56 1445.78,-27.34 1315.83,-16.62 1251.32,-12.87"/>
<polygon fill="midnightblue" stroke="midnightblue" points="1251.35,-9.37 1241.17,-12.3 1250.96,-16.35 1251.35,-9.37"/>
</g>
<!-- Node26&#45;&gt;Node17 -->
<g id="edge37" class="edge">
<title>Node26&#45;&gt;Node17</title>
<path fill="none" stroke="midnightblue" d="M1800.03,-128.99C1859.33,-119.34 1958.2,-102.89 2043,-87 2049.65,-85.75 2056.63,-84.39 2063.52,-83.02"/>
<polygon fill="midnightblue" stroke="midnightblue" points="2064.38,-86.42 2073.49,-81.01 2063,-79.55 2064.38,-86.42"/>
</g>
<!-- Node26&#45;&gt;Node18 -->
<g id="edge35" class="edge">
<title>Node26&#45;&gt;Node18</title>
<path fill="none" stroke="midnightblue" d="M1771.94,-128.9C1836.67,-106.59 2010.04,-46.83 2082,-22.03"/>
<polygon fill="midnightblue" stroke="midnightblue" points="2083.55,-25.2 2091.86,-18.63 2081.27,-18.58 2083.55,-25.2"/>
</g>
<!-- Node26&#45;&gt;Node25 -->
<g id="edge36" class="edge">
<title>Node26&#45;&gt;Node25</title>
<path fill="none" stroke="midnightblue" d="M1747,-128.73C1747,-119.18 1747,-103.62 1747,-91.28"/>
<polygon fill="midnightblue" stroke="midnightblue" points="1750.5,-91.13 1747,-81.13 1743.5,-91.13 1750.5,-91.13"/>
</g>
<!-- Node27&#45;&gt;Node18 -->
<g id="edge41" class="edge">
<title>Node27&#45;&gt;Node18</title>
<path fill="none" stroke="midnightblue" d="M2309.98,-128.98C2347.42,-115.38 2409.32,-87.09 2383,-56 2353,-20.57 2211.14,-13.01 2146.38,-11.42"/>
<polygon fill="midnightblue" stroke="midnightblue" points="2146.38,-7.92 2136.31,-11.2 2146.24,-14.92 2146.38,-7.92"/>
</g>
<!-- Node27&#45;&gt;Node19 -->
<g id="edge39" class="edge">
<title>Node27&#45;&gt;Node19</title>
<path fill="none" stroke="midnightblue" d="M2261.74,-148.06C2227.92,-159.57 2163.49,-180.06 2120.8,-192.93"/>
<polygon fill="midnightblue" stroke="midnightblue" points="2119.56,-189.65 2110.98,-195.87 2121.57,-196.35 2119.56,-189.65"/>
</g>
<!-- Node28 -->
<g id="node28" class="node">
<title>Node28</title>
<g id="a_node28"><a xlink:title=" ">
<polygon fill="white" stroke="#bfbfbf" points="2227.5,-62 2227.5,-81 2374.5,-81 2374.5,-62 2227.5,-62"/>
<text text-anchor="middle" x="2301" y="-69" font-family="FreeSans" font-size="10.00">boost/current_function.hpp</text>
</a>
</g>
</g>
<!-- Node27&#45;&gt;Node28 -->
<g id="edge40" class="edge">
<title>Node27&#45;&gt;Node28</title>
<path fill="none" stroke="midnightblue" d="M2286.29,-128.73C2288.82,-119.09 2292.94,-103.3 2296.19,-90.91"/>
<polygon fill="midnightblue" stroke="midnightblue" points="2299.6,-91.69 2298.74,-81.13 2292.83,-89.92 2299.6,-91.69"/>
</g>
<!-- Node30&#45;&gt;Node2 -->
<g id="edge45" class="edge">
<title>Node30&#45;&gt;Node2</title>
<path fill="none" stroke="midnightblue" d="M1567.86,-128.87C1563.15,-111.81 1550.15,-73.89 1524,-56 1480.43,-26.2 1325.72,-15.78 1251.41,-12.44"/>
<polygon fill="midnightblue" stroke="midnightblue" points="1251.19,-8.92 1241.05,-11.99 1250.89,-15.92 1251.19,-8.92"/>
</g>
<!-- Node30&#45;&gt;Node18 -->
<g id="edge46" class="edge">
<title>Node30&#45;&gt;Node18</title>
<path fill="none" stroke="midnightblue" d="M1577.13,-128.93C1592.09,-111.64 1628.72,-72.78 1669,-56 1743.82,-24.83 1992.54,-14.57 2081.78,-11.85"/>
<polygon fill="midnightblue" stroke="midnightblue" points="2081.96,-15.34 2091.85,-11.55 2081.75,-8.35 2081.96,-15.34"/>
</g>
<!-- Node30&#45;&gt;Node25 -->
<g id="edge47" class="edge">
<title>Node30&#45;&gt;Node25</title>
<path fill="none" stroke="midnightblue" d="M1593.5,-128.87C1624.4,-117.52 1678.86,-97.52 1713.91,-84.65"/>
<polygon fill="midnightblue" stroke="midnightblue" points="1715.5,-87.8 1723.68,-81.06 1713.09,-81.23 1715.5,-87.8"/>
</g>
<!-- Node31&#45;&gt;Node2 -->
<g id="edge50" class="edge">
<title>Node31&#45;&gt;Node2</title>
<path fill="none" stroke="midnightblue" d="M99.14,-128.74C96.12,-111.79 92.38,-74.56 113,-56 153.06,-19.95 977.89,-12.48 1170.87,-11.22"/>
<polygon fill="midnightblue" stroke="midnightblue" points="1170.89,-14.72 1180.87,-11.16 1170.84,-7.72 1170.89,-14.72"/>
</g>
<!-- Node32&#45;&gt;Node2 -->
<g id="edge53" class="edge">
<title>Node32&#45;&gt;Node2</title>
<path fill="none" stroke="midnightblue" d="M1021.47,-128.93C997.63,-113.82 954.84,-81.59 976,-56 1000.22,-26.7 1109.91,-16.3 1170.49,-12.74"/>
<polygon fill="midnightblue" stroke="midnightblue" points="1171.05,-16.22 1180.84,-12.18 1170.67,-9.23 1171.05,-16.22"/>
</g>
<!-- Node32&#45;&gt;Node23 -->
<g id="edge52" class="edge">
<title>Node32&#45;&gt;Node23</title>
<path fill="none" stroke="midnightblue" d="M1068.54,-128.94C1115.17,-116.67 1200.59,-94.19 1248.35,-81.62"/>
<polygon fill="midnightblue" stroke="midnightblue" points="1249.44,-84.95 1258.22,-79.02 1247.66,-78.18 1249.44,-84.95"/>
</g>
<!-- Node33 -->
<g id="node33" class="node">
<title>Node33</title>
<g id="a_node33"><a xlink:title=" ">
<polygon fill="white" stroke="#bfbfbf" points="985.5,-62 985.5,-81 1086.5,-81 1086.5,-62 985.5,-62"/>
<text text-anchor="middle" x="1036" y="-69" font-family="FreeSans" font-size="10.00">boost/cstdint.hpp</text>
</a>
</g>
</g>
<!-- Node32&#45;&gt;Node33 -->
<g id="edge54" class="edge">
<title>Node32&#45;&gt;Node33</title>
<path fill="none" stroke="midnightblue" d="M1036,-128.73C1036,-119.18 1036,-103.62 1036,-91.28"/>
<polygon fill="midnightblue" stroke="midnightblue" points="1039.5,-91.13 1036,-81.13 1032.5,-91.13 1039.5,-91.13"/>
</g>
<!-- Node34 -->
<g id="node34" class="node">
<title>Node34</title>
<g id="a_node34"><a xlink:title=" ">
<polygon fill="white" stroke="#bfbfbf" points="1104.5,-62 1104.5,-81 1163.5,-81 1163.5,-62 1104.5,-62"/>
<text text-anchor="middle" x="1134" y="-69" font-family="FreeSans" font-size="10.00">gmpxx.h</text>
</a>
</g>
</g>
<!-- Node32&#45;&gt;Node34 -->
<g id="edge55" class="edge">
<title>Node32&#45;&gt;Node34</title>
<path fill="none" stroke="midnightblue" d="M1049.22,-128.73C1065.45,-117.96 1093.22,-99.55 1112.53,-86.74"/>
<polygon fill="midnightblue" stroke="midnightblue" points="1114.59,-89.57 1120.99,-81.13 1110.72,-83.74 1114.59,-89.57"/>
</g>
<!-- Node35&#45;&gt;Node6 -->
<g id="edge66" class="edge">
<title>Node35&#45;&gt;Node6</title>
<path fill="none" stroke="midnightblue" d="M382.63,-215.03C396.52,-217.25 411.31,-219.45 425,-221 649.53,-246.44 916.27,-258.63 1043.08,-263.42"/>
<polygon fill="midnightblue" stroke="midnightblue" points="1043.32,-266.93 1053.44,-263.81 1043.58,-259.93 1043.32,-266.93"/>
</g>
<!-- Node35&#45;&gt;Node15 -->
<g id="edge59" class="edge">
<title>Node35&#45;&gt;Node15</title>
<path fill="none" stroke="midnightblue" d="M377.78,-195.97C452.24,-183.37 584.55,-160.55 606,-154 607.93,-153.41 609.9,-152.74 611.86,-152.02"/>
<polygon fill="midnightblue" stroke="midnightblue" points="613.53,-155.12 621.48,-148.11 610.9,-148.63 613.53,-155.12"/>
</g>
<!-- Node36 -->
<g id="node36" class="node">
<title>Node36</title>
<g id="a_node36"><a xlink:title=" ">
<polygon fill="white" stroke="#bfbfbf" points="364,-62 364,-81 428,-81 428,-62 364,-62"/>
<text text-anchor="middle" x="396" y="-69" font-family="FreeSans" font-size="10.00">algorithm</text>
</a>
</g>
</g>
<!-- Node35&#45;&gt;Node36 -->
<g id="edge57" class="edge">
<title>Node35&#45;&gt;Node36</title>
<path fill="none" stroke="midnightblue" d="M325.34,-195.8C322.81,-180.2 319.51,-146.87 332,-123 340.23,-107.26 355.78,-94.82 369.48,-86.22"/>
<polygon fill="midnightblue" stroke="midnightblue" points="371.29,-89.22 378.13,-81.13 367.74,-83.19 371.29,-89.22"/>
</g>
<!-- Node37 -->
<g id="node37" class="node">
<title>Node37</title>
<g id="a_node37"><a xlink:title=" ">
<polygon fill="white" stroke="#bfbfbf" points="341.5,-129 341.5,-148 406.5,-148 406.5,-129 341.5,-129"/>
<text text-anchor="middle" x="374" y="-136" font-family="FreeSans" font-size="10.00">functional</text>
</a>
</g>
</g>
<!-- Node35&#45;&gt;Node37 -->
<g id="edge58" class="edge">
<title>Node35&#45;&gt;Node37</title>
<path fill="none" stroke="midnightblue" d="M333.34,-195.73C340.6,-185.7 352.66,-169.01 361.76,-156.42"/>
<polygon fill="midnightblue" stroke="midnightblue" points="364.74,-158.28 367.76,-148.13 359.07,-154.18 364.74,-158.28"/>
</g>
<!-- Node38 -->
<g id="node38" class="node">
<title>Node38</title>
<g id="a_node38"><a xlink:href="Color_8h_source.html" target="_top" xlink:title=" ">
<polygon fill="white" stroke="red" points="191.5,-129 191.5,-148 284.5,-148 284.5,-129 191.5,-129"/>
<text text-anchor="middle" x="238" y="-136" font-family="FreeSans" font-size="10.00">DGtal/io/Color.h</text>
</a>
</g>
</g>
<!-- Node35&#45;&gt;Node38 -->
<g id="edge60" class="edge">
<title>Node35&#45;&gt;Node38</title>
<path fill="none" stroke="midnightblue" d="M315,-195.73C300.45,-185.11 275.72,-167.05 258.22,-154.26"/>
<polygon fill="midnightblue" stroke="midnightblue" points="259.95,-151.2 249.81,-148.13 255.82,-156.85 259.95,-151.2"/>
</g>
<!-- Node42 -->
<g id="node41" class="node">
<title>Node42</title>
<g id="a_node41"><a xlink:href="BasicBoolFunctors_8h_source.html" target="_top" xlink:title=" ">
<polygon fill="white" stroke="red" points="425,-129 425,-148 597,-148 597,-129 425,-129"/>
<text text-anchor="middle" x="511" y="-136" font-family="FreeSans" font-size="10.00">DGtal/base/BasicBoolFunctors.h</text>
</a>
</g>
</g>
<!-- Node35&#45;&gt;Node42 -->
<g id="edge67" class="edge">
<title>Node35&#45;&gt;Node42</title>
<path fill="none" stroke="midnightblue" d="M351.43,-195.87C383.69,-184.47 440.65,-164.35 477.07,-151.49"/>
<polygon fill="midnightblue" stroke="midnightblue" points="478.5,-154.69 486.76,-148.06 476.16,-148.09 478.5,-154.69"/>
</g>
<!-- Node38&#45;&gt;Node2 -->
<g id="edge61" class="edge">
<title>Node38&#45;&gt;Node2</title>
<path fill="none" stroke="midnightblue" d="M252.08,-128.96C267.91,-119.22 294.25,-102.63 316,-87 333.98,-74.08 334.29,-63.84 355,-56 431.69,-26.95 1010.99,-14.56 1170.47,-11.68"/>
<polygon fill="midnightblue" stroke="midnightblue" points="1170.85,-15.18 1180.78,-11.5 1170.72,-8.18 1170.85,-15.18"/>
</g>
<!-- Node38&#45;&gt;Node6 -->
<g id="edge62" class="edge">
<title>Node38&#45;&gt;Node6</title>
<path fill="none" stroke="midnightblue" d="M235.3,-148.12C230.66,-164.82 223.46,-201.65 243,-221 271.25,-248.97 837.74,-261.29 1043.3,-264.85"/>
<polygon fill="midnightblue" stroke="midnightblue" points="1043.34,-268.35 1053.4,-265.02 1043.46,-261.35 1043.34,-268.35"/>
</g>
<!-- Node38&#45;&gt;Node36 -->
<g id="edge64" class="edge">
<title>Node38&#45;&gt;Node36</title>
<path fill="none" stroke="midnightblue" d="M258.98,-128.87C286.25,-117.65 334.07,-97.98 365.39,-85.09"/>
<polygon fill="midnightblue" stroke="midnightblue" points="367.02,-88.21 374.93,-81.17 364.35,-81.74 367.02,-88.21"/>
</g>
<!-- Node39 -->
<g id="node39" class="node">
<title>Node39</title>
<g id="a_node39"><a xlink:title=" ">
<polygon fill="white" stroke="#bfbfbf" points="182.5,-62 182.5,-81 307.5,-81 307.5,-62 182.5,-62"/>
<text text-anchor="middle" x="245" y="-69" font-family="FreeSans" font-size="10.00">boost/lexical_cast.hpp</text>
</a>
</g>
</g>
<!-- Node38&#45;&gt;Node39 -->
<g id="edge63" class="edge">
<title>Node38&#45;&gt;Node39</title>
<path fill="none" stroke="midnightblue" d="M238.94,-128.73C239.97,-119.18 241.65,-103.62 242.98,-91.28"/>
<polygon fill="midnightblue" stroke="midnightblue" points="246.48,-91.44 244.07,-81.13 239.52,-90.7 246.48,-91.44"/>
</g>
<!-- Node40 -->
<g id="node40" class="node">
<title>Node40</title>
<g id="a_node40"><a xlink:title=" ">
<polygon fill="white" stroke="#bfbfbf" points="122,-62 122,-81 164,-81 164,-62 122,-62"/>
<text text-anchor="middle" x="143" y="-69" font-family="FreeSans" font-size="10.00">array</text>
</a>
</g>
</g>
<!-- Node38&#45;&gt;Node40 -->
<g id="edge65" class="edge">
<title>Node38&#45;&gt;Node40</title>
<path fill="none" stroke="midnightblue" d="M225.19,-128.73C209.52,-118.01 182.78,-99.72 164.07,-86.91"/>
<polygon fill="midnightblue" stroke="midnightblue" points="165.84,-83.89 155.61,-81.13 161.89,-89.66 165.84,-83.89"/>
</g>
<!-- Node42&#45;&gt;Node2 -->
<g id="edge68" class="edge">
<title>Node42&#45;&gt;Node2</title>
<path fill="none" stroke="midnightblue" d="M524.79,-128.96C553.4,-111.7 621.84,-72.92 685,-56 776.68,-31.45 1064.28,-17.17 1170.8,-12.61"/>
<polygon fill="midnightblue" stroke="midnightblue" points="1170.98,-16.11 1180.82,-12.19 1170.68,-9.11 1170.98,-16.11"/>
</g>
<!-- Node45&#45;&gt;Node2 -->
<g id="edge70" class="edge">
<title>Node45&#45;&gt;Node2</title>
<path fill="none" stroke="midnightblue" d="M838.32,-61.98C928.97,-49.58 1094.65,-26.91 1170.79,-16.5"/>
<polygon fill="midnightblue" stroke="midnightblue" points="1171.48,-19.94 1180.92,-15.11 1170.54,-13 1171.48,-19.94"/>
</g>
<!-- Node46&#45;&gt;Node2 -->
<g id="edge72" class="edge">
<title>Node46&#45;&gt;Node2</title>
<path fill="none" stroke="midnightblue" d="M643.03,-195.96C654.62,-193.77 667.27,-191.59 679,-190 774.9,-177.03 1026.53,-197.46 1113,-154 1164.22,-128.25 1193.47,-61.66 1205.09,-29.25"/>
<polygon fill="midnightblue" stroke="midnightblue" points="1208.44,-30.28 1208.36,-19.68 1201.82,-28.01 1208.44,-30.28"/>
</g>
<!-- Node48 -->
<g id="node45" class="node">
<title>Node48</title>
<g id="a_node45"><a xlink:title=" ">
<polygon fill="white" stroke="#bfbfbf" points="2566.5,-62 2566.5,-81 2619.5,-81 2619.5,-62 2566.5,-62"/>
<text text-anchor="middle" x="2593" y="-69" font-family="FreeSans" font-size="10.00">iterator</text>
</a>
</g>
</g>
<!-- Node47&#45;&gt;Node48 -->
<g id="edge74" class="edge">
<title>Node47&#45;&gt;Node48</title>
<path fill="none" stroke="midnightblue" d="M2546.38,-257.33C2554.84,-248.92 2566.86,-235.35 2573,-221 2591.62,-177.49 2593.87,-120.82 2593.62,-91.67"/>
<polygon fill="midnightblue" stroke="midnightblue" points="2597.11,-91.22 2593.41,-81.3 2590.11,-91.37 2597.11,-91.22"/>
</g>
<!-- Node49 -->
<g id="node46" class="node">
<title>Node49</title>
<g id="a_node46"><a xlink:href="IteratorCirculatorTraits_8h_source.html" target="_top" xlink:title=" ">
<polygon fill="white" stroke="black" points="2621.5,-123.5 2621.5,-153.5 2778.5,-153.5 2778.5,-123.5 2621.5,-123.5"/>
<text text-anchor="start" x="2629.5" y="-141.5" font-family="FreeSans" font-size="10.00">DGtal/base/IteratorCirculator</text>
<text text-anchor="middle" x="2700" y="-130.5" font-family="FreeSans" font-size="10.00">Traits.h</text>
</a>
</g>
</g>
<!-- Node47&#45;&gt;Node49 -->
<g id="edge75" class="edge">
<title>Node47&#45;&gt;Node49</title>
<path fill="none" stroke="midnightblue" d="M2551.63,-257.47C2566.09,-248.83 2588.65,-234.82 2607,-221 2632.36,-201.9 2659.45,-177.67 2677.82,-160.61"/>
<polygon fill="midnightblue" stroke="midnightblue" points="2680.21,-163.17 2685.12,-153.78 2675.43,-158.06 2680.21,-163.17"/>
</g>
<!-- Node52 -->
<g id="node49" class="node">
<title>Node52</title>
<g id="a_node49"><a xlink:href="IteratorFunctions_8h_source.html" target="_top" xlink:title=" ">
<polygon fill="white" stroke="black" points="2399.5,-196 2399.5,-215 2564.5,-215 2564.5,-196 2399.5,-196"/>
<text text-anchor="middle" x="2482" y="-203" font-family="FreeSans" font-size="10.00">DGtal/base/IteratorFunctions.h</text>
</a>
</g>
</g>
<!-- Node47&#45;&gt;Node52 -->
<g id="edge79" class="edge">
<title>Node47&#45;&gt;Node52</title>
<path fill="none" stroke="midnightblue" d="M2529.12,-257.48C2520.71,-248.37 2507.18,-233.74 2496.77,-222.48"/>
<polygon fill="midnightblue" stroke="midnightblue" points="2499.22,-219.98 2489.87,-215.01 2494.08,-224.73 2499.22,-219.98"/>
</g>
<!-- Node49&#45;&gt;Node48 -->
<g id="edge76" class="edge">
<title>Node49&#45;&gt;Node48</title>
<path fill="none" stroke="midnightblue" d="M2676.78,-123.4C2658.67,-112.39 2633.66,-97.2 2615.69,-86.28"/>
<polygon fill="midnightblue" stroke="midnightblue" points="2617.37,-83.21 2607,-81.01 2613.73,-89.19 2617.37,-83.21"/>
</g>
<!-- Node50 -->
<g id="node47" class="node">
<title>Node50</title>
<g id="a_node47"><a xlink:title=" ">
<polygon fill="white" stroke="#bfbfbf" points="2638,-56.5 2638,-86.5 2760,-86.5 2760,-56.5 2638,-56.5"/>
<text text-anchor="start" x="2646" y="-74.5" font-family="FreeSans" font-size="10.00">boost/iterator/iterator</text>
<text text-anchor="middle" x="2699" y="-63.5" font-family="FreeSans" font-size="10.00">_categories.hpp</text>
</a>
</g>
</g>
<!-- Node49&#45;&gt;Node50 -->
<g id="edge77" class="edge">
<title>Node49&#45;&gt;Node50</title>
<path fill="none" stroke="midnightblue" d="M2699.78,-123.4C2699.66,-115.64 2699.51,-105.81 2699.37,-96.86"/>
<polygon fill="midnightblue" stroke="midnightblue" points="2702.87,-96.52 2699.22,-86.58 2695.87,-96.63 2702.87,-96.52"/>
</g>
<!-- Node51 -->
<g id="node48" class="node">
<title>Node51</title>
<g id="a_node48"><a xlink:title=" ">
<polygon fill="white" stroke="#bfbfbf" points="2778,-56.5 2778,-86.5 2900,-86.5 2900,-56.5 2778,-56.5"/>
<text text-anchor="start" x="2786" y="-74.5" font-family="FreeSans" font-size="10.00">boost/iterator/iterator</text>
<text text-anchor="middle" x="2839" y="-63.5" font-family="FreeSans" font-size="10.00">_facade.hpp</text>
</a>
</g>
</g>
<!-- Node49&#45;&gt;Node51 -->
<g id="edge78" class="edge">
<title>Node49&#45;&gt;Node51</title>
<path fill="none" stroke="midnightblue" d="M2730.16,-123.4C2750.56,-113.86 2777.7,-101.16 2799.78,-90.84"/>
<polygon fill="midnightblue" stroke="midnightblue" points="2801.32,-93.98 2808.9,-86.58 2798.36,-87.64 2801.32,-93.98"/>
</g>
<!-- Node52&#45;&gt;Node48 -->
<g id="edge80" class="edge">
<title>Node52&#45;&gt;Node48</title>
<path fill="none" stroke="midnightblue" d="M2492.56,-195.78C2503.92,-186.15 2522.21,-169.9 2536,-154 2553.97,-133.29 2571.58,-106.9 2582.36,-89.86"/>
<polygon fill="midnightblue" stroke="midnightblue" points="2585.56,-91.36 2587.87,-81.02 2579.62,-87.65 2585.56,-91.36"/>
</g>
<!-- Node52&#45;&gt;Node49 -->
<g id="edge81" class="edge">
<title>Node52&#45;&gt;Node49</title>
<path fill="none" stroke="midnightblue" d="M2510.95,-195.87C2544.58,-185.84 2600.87,-169.06 2643.31,-156.4"/>
<polygon fill="midnightblue" stroke="midnightblue" points="2644.37,-159.74 2652.95,-153.53 2642.37,-153.03 2644.37,-159.74"/>
</g>
<!-- Node53 -->
<g id="node50" class="node">
<title>Node53</title>
<g id="a_node50"><a xlink:href="IteratorFunctions_8ih_source.html" target="_top" xlink:title=" ">
<polygon fill="white" stroke="black" points="2359,-129 2359,-148 2527,-148 2527,-129 2359,-129"/>
<text text-anchor="middle" x="2443" y="-136" font-family="FreeSans" font-size="10.00">DGtal/base/IteratorFunctions.ih</text>
</a>
</g>
</g>
<!-- Node52&#45;&gt;Node53 -->
<g id="edge82" class="edge">
<title>Node52&#45;&gt;Node53</title>
<path fill="none" stroke="midnightblue" d="M2476.74,-195.73C2470.78,-185.79 2460.9,-169.34 2453.37,-156.79"/>
<polygon fill="midnightblue" stroke="midnightblue" points="2456.32,-154.9 2448.18,-148.13 2450.32,-158.5 2456.32,-154.9"/>
</g>
</g>
</svg>
