<?xml version="1.0" encoding="UTF-8" standalone="no"?>
<!DOCTYPE svg PUBLIC "-//W3C//DTD SVG 1.1//EN"
 "http://www.w3.org/Graphics/SVG/1.1/DTD/svg11.dtd">
<!-- Generated by graphviz version 2.43.0 (0)
 -->
<!-- Title: DGtal::CurvatureFromDSSLengthEstimator&lt; DSSComputer &gt; Pages: 1 -->
<svg width="715pt" height="61pt"
 viewBox="0.00 0.00 715.00 61.00" xmlns="http://www.w3.org/2000/svg" xmlns:xlink="http://www.w3.org/1999/xlink">
<g id="graph0" class="graph" transform="scale(1 1) rotate(0) translate(4 57)">
<title>DGtal::CurvatureFromDSSLengthEstimator&lt; DSSComputer &gt;</title>
<polygon fill="white" stroke="transparent" points="-4,4 -4,-57 711,-57 711,4 -4,4"/>
<!-- Node1 -->
<g id="node1" class="node">
<title>Node1</title>
<g id="a_node1"><a xlink:title=" ">
<polygon fill="#bfbfbf" stroke="black" points="531,-11.5 531,-41.5 707,-41.5 707,-11.5 531,-11.5"/>
<text text-anchor="start" x="539" y="-29.5" font-family="FreeSans" font-size="10.00">DGtal::CurvatureFromDSSLength</text>
<text text-anchor="middle" x="619" y="-18.5" font-family="FreeSans" font-size="10.00">Estimator&lt; DSSComputer &gt;</text>
</a>
</g>
</g>
<!-- Node2 -->
<g id="node2" class="node">
<title>Node2</title>
<g id="a_node2"><a xlink:href="classDGtal_1_1detail_1_1CurvatureFromDSSBaseEstimator.html" target="_top" xlink:title=" ">
<polygon fill="white" stroke="black" points="319,-0.5 319,-52.5 494,-52.5 494,-0.5 319,-0.5"/>
<text text-anchor="start" x="327" y="-40.5" font-family="FreeSans" font-size="10.00">DGtal::detail::Curvature</text>
<text text-anchor="start" x="327" y="-29.5" font-family="FreeSans" font-size="10.00">FromDSSBaseEstimator&lt;</text>
<text text-anchor="start" x="327" y="-18.5" font-family="FreeSans" font-size="10.00"> DSSComputer, detail::Curvature</text>
<text text-anchor="middle" x="406.5" y="-7.5" font-family="FreeSans" font-size="10.00">FromDSSLength &gt;</text>
</a>
</g>
</g>
<!-- Node2&#45;&gt;Node1 -->
<g id="edge1" class="edge">
<title>Node2&#45;&gt;Node1</title>
<path fill="none" stroke="midnightblue" d="M504.05,-26.5C512.96,-26.5 521.96,-26.5 530.79,-26.5"/>
<polygon fill="midnightblue" stroke="midnightblue" points="504.03,-23 494.03,-26.5 504.03,-30 504.03,-23"/>
</g>
<!-- Node3 -->
<g id="node3" class="node">
<title>Node3</title>
<g id="a_node3"><a xlink:href="classDGtal_1_1detail_1_1CurvatureFromDSSBaseEstimator.html" target="_top" xlink:title=" ">
<polygon fill="white" stroke="black" points="0,-6 0,-47 140,-47 140,-6 0,-6"/>
<text text-anchor="start" x="8" y="-35" font-family="FreeSans" font-size="10.00">DGtal::detail::Curvature</text>
<text text-anchor="start" x="8" y="-24" font-family="FreeSans" font-size="10.00">FromDSSBaseEstimator&lt;</text>
<text text-anchor="middle" x="70" y="-13" font-family="FreeSans" font-size="10.00"> DSSComputer, Functor &gt;</text>
</a>
</g>
</g>
<!-- Node3&#45;&gt;Node2 -->
<g id="edge2" class="edge">
<title>Node3&#45;&gt;Node2</title>
<path fill="none" stroke="orange" stroke-dasharray="5,2" d="M150.55,-26.5C201.17,-26.5 266.74,-26.5 318.71,-26.5"/>
<polygon fill="orange" stroke="orange" points="150.31,-23 140.31,-26.5 150.31,-30 150.31,-23"/>
<text text-anchor="start" x="158" y="-40.5" font-family="FreeSans" font-size="10.00"> &lt; DSSComputer, detail</text>
<text text-anchor="middle" x="229.5" y="-29.5" font-family="FreeSans" font-size="10.00">::CurvatureFromDSSLength &gt;</text>
</g>
</g>
</svg>
