<?xml version="1.0" encoding="UTF-8" standalone="no"?>
<!DOCTYPE svg PUBLIC "-//W3C//DTD SVG 1.1//EN"
 "http://www.w3.org/Graphics/SVG/1.1/DTD/svg11.dtd">
<!-- Generated by graphviz version 2.43.0 (0)
 -->
<!-- Title: DGtal::IntegerSequenceIterator&lt; TInteger &gt; Pages: 1 -->
<svg width="421pt" height="61pt"
 viewBox="0.00 0.00 421.00 61.00" xmlns="http://www.w3.org/2000/svg" xmlns:xlink="http://www.w3.org/1999/xlink">
<g id="graph0" class="graph" transform="scale(1 1) rotate(0) translate(4 57)">
<title>DGtal::IntegerSequenceIterator&lt; TInteger &gt;</title>
<polygon fill="white" stroke="transparent" points="-4,4 -4,-57 417,-57 417,4 -4,4"/>
<!-- Node1 -->
<g id="node1" class="node">
<title>Node1</title>
<g id="a_node1"><a xlink:title="Aim: It is a simple class that mimics a (non mutable) iterator over integers. You can increment it,...">
<polygon fill="#bfbfbf" stroke="black" points="245,-11.5 245,-41.5 413,-41.5 413,-11.5 245,-11.5"/>
<text text-anchor="start" x="253" y="-29.5" font-family="FreeSans" font-size="10.00">DGtal::IntegerSequenceIterator</text>
<text text-anchor="middle" x="329" y="-18.5" font-family="FreeSans" font-size="10.00">&lt; TInteger &gt;</text>
</a>
</g>
</g>
<!-- Node2 -->
<g id="node2" class="node">
<title>Node2</title>
<g id="a_node2"><a xlink:title=" ">
<polygon fill="white" stroke="#bfbfbf" points="0,-0.5 0,-52.5 209,-52.5 209,-0.5 0,-0.5"/>
<text text-anchor="start" x="8" y="-40.5" font-family="FreeSans" font-size="10.00">boost::iterator_facade</text>
<text text-anchor="start" x="8" y="-29.5" font-family="FreeSans" font-size="10.00">&lt; IntegerSequenceIterator</text>
<text text-anchor="start" x="8" y="-18.5" font-family="FreeSans" font-size="10.00">&lt; TInteger &gt;, TInteger const,</text>
<text text-anchor="middle" x="104.5" y="-7.5" font-family="FreeSans" font-size="10.00"> boost::random_access_traversal_tag &gt;</text>
</a>
</g>
</g>
<!-- Node2&#45;&gt;Node1 -->
<g id="edge1" class="edge">
<title>Node2&#45;&gt;Node1</title>
<path fill="none" stroke="midnightblue" d="M219.31,-26.5C227.88,-26.5 236.42,-26.5 244.74,-26.5"/>
<polygon fill="midnightblue" stroke="midnightblue" points="219.26,-23 209.26,-26.5 219.26,-30 219.26,-23"/>
</g>
</g>
</svg>
