<?xml version="1.0" encoding="UTF-8" standalone="no"?>
<!DOCTYPE svg PUBLIC "-//W3C//DTD SVG 1.1//EN"
 "http://www.w3.org/Graphics/SVG/1.1/DTD/svg11.dtd">
<!-- Generated by graphviz version 2.43.0 (0)
 -->
<!-- Title: DGtal::HyperRectDomain_subIterator&lt; TPoint &gt; Pages: 1 -->
<svg width="381pt" height="105pt"
 viewBox="0.00 0.00 381.00 105.00" xmlns="http://www.w3.org/2000/svg" xmlns:xlink="http://www.w3.org/1999/xlink">
<g id="graph0" class="graph" transform="scale(1 1) rotate(0) translate(4 101)">
<title>DGtal::HyperRectDomain_subIterator&lt; TPoint &gt;</title>
<polygon fill="white" stroke="transparent" points="-4,4 -4,-101 377,-101 377,4 -4,4"/>
<!-- Node1 -->
<g id="node1" class="node">
<title>Node1</title>
<g id="a_node1"><a xlink:title=" ">
<polygon fill="#bfbfbf" stroke="black" points="233,-33.5 233,-63.5 373,-63.5 373,-33.5 233,-33.5"/>
<text text-anchor="start" x="241" y="-51.5" font-family="FreeSans" font-size="10.00">DGtal::HyperRectDomain</text>
<text text-anchor="middle" x="303" y="-40.5" font-family="FreeSans" font-size="10.00">_subIterator&lt; TPoint &gt;</text>
</a>
</g>
</g>
<!-- Node2 -->
<g id="node2" class="node">
<title>Node2</title>
<g id="a_node2"><a xlink:title=" ">
<polygon fill="white" stroke="#bfbfbf" points="0,-0.5 0,-96.5 197,-96.5 197,-0.5 0,-0.5"/>
<text text-anchor="start" x="8" y="-84.5" font-family="FreeSans" font-size="10.00">boost::iterator_facade</text>
<text text-anchor="start" x="8" y="-73.5" font-family="FreeSans" font-size="10.00">&lt; HyperRectDomain_subIterator</text>
<text text-anchor="start" x="8" y="-62.5" font-family="FreeSans" font-size="10.00">&lt; TPoint &gt;, const TPoint, std</text>
<text text-anchor="start" x="8" y="-51.5" font-family="FreeSans" font-size="10.00">::random_access_iterator_tag,</text>
<text text-anchor="start" x="8" y="-40.5" font-family="FreeSans" font-size="10.00"> TPoint const &amp;, std::conditional</text>
<text text-anchor="start" x="8" y="-29.5" font-family="FreeSans" font-size="10.00">&lt; std::is_same&lt; TPoint::Component,</text>
<text text-anchor="start" x="8" y="-18.5" font-family="FreeSans" font-size="10.00"> BigInteger &gt;::value, BigInteger,</text>
<text text-anchor="middle" x="98.5" y="-7.5" font-family="FreeSans" font-size="10.00"> std::ptrdiff_t &gt;::type &gt;</text>
</a>
</g>
</g>
<!-- Node2&#45;&gt;Node1 -->
<g id="edge1" class="edge">
<title>Node2&#45;&gt;Node1</title>
<path fill="none" stroke="midnightblue" d="M207.35,-48.5C215.99,-48.5 224.56,-48.5 232.82,-48.5"/>
<polygon fill="midnightblue" stroke="midnightblue" points="207.19,-45 197.19,-48.5 207.19,-52 207.19,-45"/>
</g>
</g>
</svg>
