<?xml version="1.0" encoding="UTF-8" standalone="no"?>
<!DOCTYPE svg PUBLIC "-//W3C//DTD SVG 1.1//EN"
 "http://www.w3.org/Graphics/SVG/1.1/DTD/svg11.dtd">
<!-- Generated by graphviz version 2.43.0 (0)
 -->
<!-- Title: DGtal::detail::CurvatureFromDSSBaseEstimator&lt; DSSComputer, Functor &gt; Pages: 1 -->
<svg width="737pt" height="132pt"
 viewBox="0.00 0.00 737.00 132.00" xmlns="http://www.w3.org/2000/svg" xmlns:xlink="http://www.w3.org/1999/xlink">
<g id="graph0" class="graph" transform="scale(1 1) rotate(0) translate(4 128)">
<title>DGtal::detail::CurvatureFromDSSBaseEstimator&lt; DSSComputer, Functor &gt;</title>
<polygon fill="white" stroke="transparent" points="-4,4 -4,-128 733,-128 733,4 -4,4"/>
<!-- Node1 -->
<g id="node1" class="node">
<title>Node1</title>
<g id="a_node1"><a xlink:title=" ">
<polygon fill="#bfbfbf" stroke="black" points="0,-41 0,-82 140,-82 140,-41 0,-41"/>
<text text-anchor="start" x="8" y="-70" font-family="FreeSans" font-size="10.00">DGtal::detail::Curvature</text>
<text text-anchor="start" x="8" y="-59" font-family="FreeSans" font-size="10.00">FromDSSBaseEstimator&lt;</text>
<text text-anchor="middle" x="70" y="-48" font-family="FreeSans" font-size="10.00"> DSSComputer, Functor &gt;</text>
</a>
</g>
</g>
<!-- Node2 -->
<g id="node2" class="node">
<title>Node2</title>
<g id="a_node2"><a xlink:href="classDGtal_1_1detail_1_1CurvatureFromDSSBaseEstimator.html" target="_top" xlink:title=" ">
<polygon fill="white" stroke="black" points="327,-71.5 327,-123.5 502,-123.5 502,-71.5 327,-71.5"/>
<text text-anchor="start" x="335" y="-111.5" font-family="FreeSans" font-size="10.00">DGtal::detail::Curvature</text>
<text text-anchor="start" x="335" y="-100.5" font-family="FreeSans" font-size="10.00">FromDSSBaseEstimator&lt;</text>
<text text-anchor="start" x="335" y="-89.5" font-family="FreeSans" font-size="10.00"> DSSComputer, detail::Curvature</text>
<text text-anchor="middle" x="414.5" y="-78.5" font-family="FreeSans" font-size="10.00">FromDSSLengthAndWidth &gt;</text>
</a>
</g>
</g>
<!-- Node1&#45;&gt;Node2 -->
<g id="edge1" class="edge">
<title>Node1&#45;&gt;Node2</title>
<path fill="none" stroke="orange" stroke-dasharray="5,2" d="M150.32,-69.84C203.18,-75.39 272.66,-82.7 326.95,-88.4"/>
<polygon fill="orange" stroke="orange" points="150.62,-66.35 140.31,-68.79 149.89,-73.31 150.62,-66.35"/>
<text text-anchor="start" x="158" y="-110.5" font-family="FreeSans" font-size="10.00"> &lt; DSSComputer, detail</text>
<text text-anchor="start" x="158" y="-99.5" font-family="FreeSans" font-size="10.00">::CurvatureFromDSSLengthAnd</text>
<text text-anchor="middle" x="233.5" y="-88.5" font-family="FreeSans" font-size="10.00">Width &gt;</text>
</g>
<!-- Node4 -->
<g id="node4" class="node">
<title>Node4</title>
<g id="a_node4"><a xlink:href="classDGtal_1_1detail_1_1CurvatureFromDSSBaseEstimator.html" target="_top" xlink:title=" ">
<polygon fill="white" stroke="black" points="327,-0.5 327,-52.5 502,-52.5 502,-0.5 327,-0.5"/>
<text text-anchor="start" x="335" y="-40.5" font-family="FreeSans" font-size="10.00">DGtal::detail::Curvature</text>
<text text-anchor="start" x="335" y="-29.5" font-family="FreeSans" font-size="10.00">FromDSSBaseEstimator&lt;</text>
<text text-anchor="start" x="335" y="-18.5" font-family="FreeSans" font-size="10.00"> DSSComputer, detail::Curvature</text>
<text text-anchor="middle" x="414.5" y="-7.5" font-family="FreeSans" font-size="10.00">FromDSSLength &gt;</text>
</a>
</g>
</g>
<!-- Node1&#45;&gt;Node4 -->
<g id="edge3" class="edge">
<title>Node1&#45;&gt;Node4</title>
<path fill="none" stroke="orange" stroke-dasharray="5,2" d="M150.31,-47.51C152.9,-47.15 155.47,-46.82 158,-46.5 214.07,-39.49 277.39,-34.51 326.96,-31.28"/>
<polygon fill="orange" stroke="orange" points="149.64,-44.07 140.25,-48.97 150.64,-51 149.64,-44.07"/>
<text text-anchor="start" x="162" y="-60.5" font-family="FreeSans" font-size="10.00"> &lt; DSSComputer, detail</text>
<text text-anchor="middle" x="233.5" y="-49.5" font-family="FreeSans" font-size="10.00">::CurvatureFromDSSLength &gt;</text>
</g>
<!-- Node3 -->
<g id="node3" class="node">
<title>Node3</title>
<g id="a_node3"><a xlink:href="classDGtal_1_1CurvatureFromDSSEstimator.html" target="_top" xlink:title=" ">
<polygon fill="white" stroke="black" points="539,-82.5 539,-112.5 729,-112.5 729,-82.5 539,-82.5"/>
<text text-anchor="start" x="547" y="-100.5" font-family="FreeSans" font-size="10.00">DGtal::CurvatureFromDSSEstimator</text>
<text text-anchor="middle" x="634" y="-89.5" font-family="FreeSans" font-size="10.00">&lt; DSSComputer &gt;</text>
</a>
</g>
</g>
<!-- Node2&#45;&gt;Node3 -->
<g id="edge2" class="edge">
<title>Node2&#45;&gt;Node3</title>
<path fill="none" stroke="midnightblue" d="M512.36,-97.5C521.16,-97.5 530.07,-97.5 538.85,-97.5"/>
<polygon fill="midnightblue" stroke="midnightblue" points="512.09,-94 502.09,-97.5 512.09,-101 512.09,-94"/>
</g>
<!-- Node5 -->
<g id="node5" class="node">
<title>Node5</title>
<g id="a_node5"><a xlink:href="classDGtal_1_1CurvatureFromDSSLengthEstimator.html" target="_top" xlink:title=" ">
<polygon fill="white" stroke="black" points="546,-11.5 546,-41.5 722,-41.5 722,-11.5 546,-11.5"/>
<text text-anchor="start" x="554" y="-29.5" font-family="FreeSans" font-size="10.00">DGtal::CurvatureFromDSSLength</text>
<text text-anchor="middle" x="634" y="-18.5" font-family="FreeSans" font-size="10.00">Estimator&lt; DSSComputer &gt;</text>
</a>
</g>
</g>
<!-- Node4&#45;&gt;Node5 -->
<g id="edge4" class="edge">
<title>Node4&#45;&gt;Node5</title>
<path fill="none" stroke="midnightblue" d="M512.24,-26.5C523.36,-26.5 534.66,-26.5 545.64,-26.5"/>
<polygon fill="midnightblue" stroke="midnightblue" points="512.09,-23 502.09,-26.5 512.09,-30 512.09,-23"/>
</g>
</g>
</svg>
