<?xml version="1.0" encoding="UTF-8" standalone="no"?>
<!DOCTYPE svg PUBLIC "-//W3C//DTD SVG 1.1//EN"
 "http://www.w3.org/Graphics/SVG/1.1/DTD/svg11.dtd">
<!-- Generated by graphviz version 2.43.0 (0)
 -->
<!-- Title: DGtal::Simple2x2DetComputer&lt; TArgumentInteger, TResultInteger &gt; Pages: 1 -->
<svg width="560pt" height="100pt"
 viewBox="0.00 0.00 560.00 99.50" xmlns="http://www.w3.org/2000/svg" xmlns:xlink="http://www.w3.org/1999/xlink">
<g id="graph0" class="graph" transform="scale(1 1) rotate(0) translate(4 95.5)">
<title>DGtal::Simple2x2DetComputer&lt; TArgumentInteger, TResultInteger &gt;</title>
<polygon fill="white" stroke="transparent" points="-4,4 -4,-95.5 556,-95.5 556,4 -4,4"/>
<!-- Node1 -->
<g id="node1" class="node">
<title>Node1</title>
<g id="a_node1"><a xlink:title="Aim: Small class useful to compute the determinant of a 2x2 matrix from its four coefficients,...">
<polygon fill="#bfbfbf" stroke="black" points="0,-33 0,-63 204,-63 204,-33 0,-33"/>
<text text-anchor="start" x="8" y="-51" font-family="FreeSans" font-size="10.00">DGtal::Simple2x2DetComputer</text>
<text text-anchor="middle" x="102" y="-40" font-family="FreeSans" font-size="10.00">&lt; TArgumentInteger, TResultInteger &gt;</text>
</a>
</g>
</g>
<!-- Node2 -->
<g id="node2" class="node">
<title>Node2</title>
<g id="a_node2"><a xlink:href="classDGtal_1_1Simple2x2DetComputer.html" target="_top" xlink:title=" ">
<polygon fill="white" stroke="black" points="382,-61 382,-91 549,-91 549,-61 382,-61"/>
<text text-anchor="start" x="390" y="-79" font-family="FreeSans" font-size="10.00">DGtal::Simple2x2DetComputer</text>
<text text-anchor="middle" x="465.5" y="-68" font-family="FreeSans" font-size="10.00">&lt; Integer &gt;</text>
</a>
</g>
</g>
<!-- Node1&#45;&gt;Node2 -->
<g id="edge1" class="edge">
<title>Node1&#45;&gt;Node2</title>
<path fill="none" stroke="orange" stroke-dasharray="5,2" d="M214.16,-56.61C268.28,-60.8 332.21,-65.75 381.92,-69.6"/>
<polygon fill="orange" stroke="orange" points="214.42,-53.12 204.18,-55.84 213.88,-60.1 214.42,-53.12"/>
<text text-anchor="middle" x="291.5" y="-70" font-family="FreeSans" font-size="10.00"> &lt; Integer &gt;</text>
</g>
<!-- Node3 -->
<g id="node3" class="node">
<title>Node3</title>
<g id="a_node3"><a xlink:href="classDGtal_1_1Simple2x2DetComputer.html" target="_top" xlink:title=" ">
<polygon fill="white" stroke="black" points="379,-0.5 379,-41.5 552,-41.5 552,-0.5 379,-0.5"/>
<text text-anchor="start" x="387" y="-29.5" font-family="FreeSans" font-size="10.00">DGtal::Simple2x2DetComputer</text>
<text text-anchor="start" x="387" y="-18.5" font-family="FreeSans" font-size="10.00">&lt; typename TPoint::Coordinate,</text>
<text text-anchor="middle" x="465.5" y="-7.5" font-family="FreeSans" font-size="10.00"> DGtal::int64_t &gt;</text>
</a>
</g>
</g>
<!-- Node1&#45;&gt;Node3 -->
<g id="edge2" class="edge">
<title>Node1&#45;&gt;Node3</title>
<path fill="none" stroke="orange" stroke-dasharray="5,2" d="M214.29,-32.73C216.88,-32.47 219.46,-32.23 222,-32 273.94,-27.34 332.34,-24.61 378.8,-23.04"/>
<polygon fill="orange" stroke="orange" points="213.79,-29.26 204.21,-33.77 214.51,-36.22 213.79,-29.26"/>
<text text-anchor="start" x="222" y="-46" font-family="FreeSans" font-size="10.00"> &lt; typename TPoint::</text>
<text text-anchor="middle" x="291.5" y="-35" font-family="FreeSans" font-size="10.00">Coordinate, DGtal::int64_t &gt;</text>
</g>
</g>
</svg>
