<?xml version="1.0" encoding="UTF-8" standalone="no"?>
<!DOCTYPE svg PUBLIC "-//W3C//DTD SVG 1.1//EN"
 "http://www.w3.org/Graphics/SVG/1.1/DTD/svg11.dtd">
<!-- Generated by graphviz version 2.43.0 (0)
 -->
<!-- Title: DGtal::PredicateFromOrientationFunctor2&lt; TOrientationFunctor, acceptNeg, acceptZero &gt; Pages: 1 -->
<svg width="519pt" height="88pt"
 viewBox="0.00 0.00 519.00 88.00" xmlns="http://www.w3.org/2000/svg" xmlns:xlink="http://www.w3.org/1999/xlink">
<g id="graph0" class="graph" transform="scale(1 1) rotate(0) translate(4 84)">
<title>DGtal::PredicateFromOrientationFunctor2&lt; TOrientationFunctor, acceptNeg, acceptZero &gt;</title>
<polygon fill="white" stroke="transparent" points="-4,4 -4,-84 515,-84 515,4 -4,4"/>
<!-- Node1 -->
<g id="node1" class="node">
<title>Node1</title>
<g id="a_node1"><a xlink:title="Aim: Small adapter to models of COrientationFunctor2. It is a model of concepts::CPointPredicate....">
<polygon fill="#bfbfbf" stroke="black" points="0,-19 0,-60 176,-60 176,-19 0,-19"/>
<text text-anchor="start" x="8" y="-48" font-family="FreeSans" font-size="10.00">DGtal::PredicateFromOrientation</text>
<text text-anchor="start" x="8" y="-37" font-family="FreeSans" font-size="10.00">Functor2&lt; TOrientationFunctor,</text>
<text text-anchor="middle" x="88" y="-26" font-family="FreeSans" font-size="10.00"> acceptNeg, acceptZero &gt;</text>
</a>
</g>
</g>
<!-- Node2 -->
<g id="node2" class="node">
<title>Node2</title>
<g id="a_node2"><a xlink:href="classDGtal_1_1PredicateFromOrientationFunctor2.html" target="_top" xlink:title=" ">
<polygon fill="white" stroke="black" points="334.5,-49.5 334.5,-79.5 510.5,-79.5 510.5,-49.5 334.5,-49.5"/>
<text text-anchor="start" x="342.5" y="-67.5" font-family="FreeSans" font-size="10.00">DGtal::PredicateFromOrientation</text>
<text text-anchor="middle" x="422.5" y="-56.5" font-family="FreeSans" font-size="10.00">Functor2&lt; Functor, true, false &gt;</text>
</a>
</g>
</g>
<!-- Node1&#45;&gt;Node2 -->
<g id="edge1" class="edge">
<title>Node1&#45;&gt;Node2</title>
<path fill="none" stroke="orange" stroke-dasharray="5,2" d="M186.52,-46.83C233.36,-50.35 289.04,-54.54 334.43,-57.95"/>
<polygon fill="orange" stroke="orange" points="186.59,-43.33 176.36,-46.07 186.07,-50.31 186.59,-43.33"/>
<text text-anchor="middle" x="255" y="-58.5" font-family="FreeSans" font-size="10.00"> &lt; Functor, true, false &gt;</text>
</g>
<!-- Node3 -->
<g id="node3" class="node">
<title>Node3</title>
<g id="a_node3"><a xlink:href="classDGtal_1_1PredicateFromOrientationFunctor2.html" target="_top" xlink:title=" ">
<polygon fill="white" stroke="black" points="334,-0.5 334,-30.5 511,-30.5 511,-0.5 334,-0.5"/>
<text text-anchor="start" x="342" y="-18.5" font-family="FreeSans" font-size="10.00">DGtal::PredicateFromOrientation</text>
<text text-anchor="middle" x="422.5" y="-7.5" font-family="FreeSans" font-size="10.00">Functor2&lt; Functor, false, false &gt;</text>
</a>
</g>
</g>
<!-- Node1&#45;&gt;Node3 -->
<g id="edge2" class="edge">
<title>Node1&#45;&gt;Node3</title>
<path fill="none" stroke="orange" stroke-dasharray="5,2" d="M186.25,-32.07C188.86,-31.88 191.45,-31.69 194,-31.5 240.2,-28.12 291.69,-24.48 333.99,-21.54"/>
<polygon fill="orange" stroke="orange" points="185.8,-28.59 176.09,-32.83 186.32,-35.57 185.8,-28.59"/>
<text text-anchor="middle" x="255" y="-34.5" font-family="FreeSans" font-size="10.00"> &lt; Functor, false, false &gt;</text>
</g>
</g>
</svg>
