<?xml version="1.0" encoding="UTF-8" standalone="no"?>
<!DOCTYPE svg PUBLIC "-//W3C//DTD SVG 1.1//EN"
 "http://www.w3.org/Graphics/SVG/1.1/DTD/svg11.dtd">
<!-- Generated by graphviz version 2.43.0 (0)
 -->
<!-- Title: DGtal::ArrayImageAdapter&lt; TArrayIterator, HyperRectDomain&lt; TSpace &gt; &gt; Pages: 1 -->
<svg width="756pt" height="62pt"
 viewBox="0.00 0.00 756.00 62.00" xmlns="http://www.w3.org/2000/svg" xmlns:xlink="http://www.w3.org/1999/xlink">
<g id="graph0" class="graph" transform="scale(1 1) rotate(0) translate(4 58)">
<title>DGtal::ArrayImageAdapter&lt; TArrayIterator, HyperRectDomain&lt; TSpace &gt; &gt;</title>
<polygon fill="white" stroke="transparent" points="-4,4 -4,-58 752,-58 752,4 -4,4"/>
<!-- Node1 -->
<g id="node1" class="node">
<title>Node1</title>
<g id="a_node1"><a xlink:title="Aim: Image adapter for generic arrays with sub&#45;domain view capability.">
<polygon fill="#bfbfbf" stroke="black" points="557,-0.5 557,-41.5 748,-41.5 748,-0.5 557,-0.5"/>
<text text-anchor="start" x="565" y="-29.5" font-family="FreeSans" font-size="10.00">DGtal::ArrayImageAdapter</text>
<text text-anchor="start" x="565" y="-18.5" font-family="FreeSans" font-size="10.00">&lt; TArrayIterator, HyperRectDomain</text>
<text text-anchor="middle" x="652.5" y="-7.5" font-family="FreeSans" font-size="10.00">&lt; TSpace &gt; &gt;</text>
</a>
</g>
</g>
<!-- Node2 -->
<g id="node2" class="node">
<title>Node2</title>
<g id="a_node2"><a xlink:href="classDGtal_1_1IteratorCompletion.html" target="_top" xlink:title=" ">
<polygon fill="white" stroke="black" points="315,-0.5 315,-41.5 520,-41.5 520,-0.5 315,-0.5"/>
<text text-anchor="start" x="323" y="-29.5" font-family="FreeSans" font-size="10.00">DGtal::IteratorCompletion</text>
<text text-anchor="start" x="323" y="-18.5" font-family="FreeSans" font-size="10.00">&lt; ArrayImageAdapter&lt; TArrayIterator,</text>
<text text-anchor="middle" x="417.5" y="-7.5" font-family="FreeSans" font-size="10.00"> HyperRectDomain&lt; TSpace &gt; &gt; &gt;</text>
</a>
</g>
</g>
<!-- Node2&#45;&gt;Node1 -->
<g id="edge1" class="edge">
<title>Node2&#45;&gt;Node1</title>
<path fill="none" stroke="midnightblue" d="M530.12,-21C539.09,-21 548.1,-21 556.93,-21"/>
<polygon fill="midnightblue" stroke="midnightblue" points="530.02,-17.5 520.02,-21 530.02,-24.5 530.02,-17.5"/>
</g>
<!-- Node3 -->
<g id="node3" class="node">
<title>Node3</title>
<g id="a_node3"><a xlink:href="classDGtal_1_1IteratorCompletion.html" target="_top" xlink:title="Aim: Class that uses CRTP to add reverse iterators and ranges to a derived class.">
<polygon fill="white" stroke="black" points="0,-6 0,-36 143,-36 143,-6 0,-6"/>
<text text-anchor="start" x="8" y="-24" font-family="FreeSans" font-size="10.00">DGtal::IteratorCompletion</text>
<text text-anchor="middle" x="71.5" y="-13" font-family="FreeSans" font-size="10.00">&lt; TDerived &gt;</text>
</a>
</g>
</g>
<!-- Node3&#45;&gt;Node2 -->
<g id="edge2" class="edge">
<title>Node3&#45;&gt;Node2</title>
<path fill="none" stroke="orange" stroke-dasharray="5,2" d="M153.43,-21C201.64,-21 263.26,-21 314.74,-21"/>
<polygon fill="orange" stroke="orange" points="153.36,-17.5 143.36,-21 153.36,-24.5 153.36,-17.5"/>
<text text-anchor="start" x="161" y="-46" font-family="FreeSans" font-size="10.00"> &lt; ArrayImageAdapter</text>
<text text-anchor="start" x="161" y="-35" font-family="FreeSans" font-size="10.00">&lt; TArrayIterator, HyperRect</text>
<text text-anchor="middle" x="229" y="-24" font-family="FreeSans" font-size="10.00">Domain&lt; TSpace &gt; &gt; &gt;</text>
</g>
</g>
</svg>
