<?xml version="1.0" encoding="UTF-8" standalone="no"?>
<!DOCTYPE svg PUBLIC "-//W3C//DTD SVG 1.1//EN"
 "http://www.w3.org/Graphics/SVG/1.1/DTD/svg11.dtd">
<!-- Generated by graphviz version 2.43.0 (0)
 -->
<!-- Title: GGeom Pages: 1 -->
<svg width="1495pt" height="326pt"
 viewBox="0.00 0.00 1495.00 326.00" xmlns="http://www.w3.org/2000/svg" xmlns:xlink="http://www.w3.org/1999/xlink">
<g id="graph0" class="graph" transform="scale(1 1) rotate(0) translate(4 322)">
<title>GGeom</title>
<polygon fill="white" stroke="transparent" points="-4,4 -4,-322 1491,-322 1491,4 -4,4"/>
<g id="clust2" class="cluster">
<title>cluster_concepts_1</title>
<polygon fill="lightgrey" stroke="lightgrey" points="8,-163 8,-310 1336,-310 1336,-163 8,-163"/>
<text text-anchor="middle" x="672" y="-170.8" font-family="Times,serif" font-size="14.00">Shapes (main concepts)</text>
</g>
<g id="clust3" class="cluster">
<title>cluster_models</title>
<polygon fill="#ccffcc" stroke="#ccffcc" points="585,-8 585,-155 1479,-155 1479,-8 585,-8"/>
<text text-anchor="middle" x="1032" y="-15.8" font-family="Times,serif" font-size="14.00">Shapes (main models)</text>
</g>
<!-- CEuclideanOrientedShape -->
<g id="node1" class="node">
<title>CEuclideanOrientedShape</title>
<g id="a_node1"><a xlink:href="structDGtal_1_1concepts_1_1CEuclideanOrientedShape.html" target="_top" xlink:title="CEuclideanOrientedShape">
<ellipse fill="white" stroke="white" cx="1195" cy="-212" rx="133.48" ry="18"/>
<text text-anchor="middle" x="1195" y="-208.3" font-family="Times,serif" font-size="14.00">CEuclideanOrientedShape</text>
</a>
</g>
</g>
<!-- CEuclideanBoundedShape -->
<g id="node2" class="node">
<title>CEuclideanBoundedShape</title>
<g id="a_node2"><a xlink:href="structDGtal_1_1concepts_1_1CEuclideanBoundedShape.html" target="_top" xlink:title="CEuclideanBoundedShape">
<ellipse fill="white" stroke="white" cx="655" cy="-212" rx="133.48" ry="18"/>
<text text-anchor="middle" x="655" y="-208.3" font-family="Times,serif" font-size="14.00">CEuclideanBoundedShape</text>
</a>
</g>
</g>
<!-- CDigitalOrientedShape -->
<g id="node3" class="node">
<title>CDigitalOrientedShape</title>
<g id="a_node3"><a xlink:href="structDGtal_1_1concepts_1_1CDigitalOrientedShape.html" target="_top" xlink:title="CDigitalOrientedShape">
<ellipse fill="white" stroke="white" cx="385" cy="-212" rx="118.08" ry="18"/>
<text text-anchor="middle" x="385" y="-208.3" font-family="Times,serif" font-size="14.00">CDigitalOrientedShape</text>
</a>
</g>
</g>
<!-- CDigitalBoundedShape -->
<g id="node4" class="node">
<title>CDigitalBoundedShape</title>
<g id="a_node4"><a xlink:href="structDGtal_1_1concepts_1_1CDigitalBoundedShape.html" target="_top" xlink:title="CDigitalBoundedShape">
<ellipse fill="white" stroke="white" cx="925" cy="-212" rx="118.08" ry="18"/>
<text text-anchor="middle" x="925" y="-208.3" font-family="Times,serif" font-size="14.00">CDigitalBoundedShape</text>
</a>
</g>
</g>
<!-- CImplicitFunction -->
<g id="node5" class="node">
<title>CImplicitFunction</title>
<g id="a_node5"><a xlink:href="structDGtal_1_1concepts_1_1CImplicitFunction.html" target="_top" xlink:title="CImplicitFunction">
<ellipse fill="white" stroke="white" cx="683" cy="-284" rx="94.48" ry="18"/>
<text text-anchor="middle" x="683" y="-280.3" font-family="Times,serif" font-size="14.00">CImplicitFunction</text>
</a>
</g>
</g>
<!-- CImplicitFunctionDiff1 -->
<g id="node6" class="node">
<title>CImplicitFunctionDiff1</title>
<g id="a_node6"><a xlink:href="structDGtal_1_1concepts_1_1CImplicitFunctionDiff1.html" target="_top" xlink:title="CImplicitFunctionDiff1">
<ellipse fill="white" stroke="white" cx="132" cy="-212" rx="116.18" ry="18"/>
<text text-anchor="middle" x="132" y="-208.3" font-family="Times,serif" font-size="14.00">CImplicitFunctionDiff1</text>
</a>
</g>
</g>
<!-- CImplicitFunctionDiff1&#45;&gt;CImplicitFunction -->
<g id="edge1" class="edge">
<title>CImplicitFunctionDiff1&#45;&gt;CImplicitFunction</title>
<path fill="none" stroke="black" d="M216.03,-224.46C230.04,-226.33 244.43,-228.24 258,-230 374.86,-245.17 509.9,-261.87 595.83,-272.39"/>
<polygon fill="black" stroke="black" points="595.45,-275.87 605.81,-273.61 596.3,-268.92 595.45,-275.87"/>
</g>
<!-- StarShaped2D -->
<g id="node7" class="node">
<title>StarShaped2D</title>
<g id="a_node7"><a xlink:href="classDGtal_1_1StarShaped2D.html" target="_top" xlink:title="StarShaped2D">
<ellipse fill="white" stroke="white" cx="914" cy="-129" rx="78.79" ry="18"/>
<text text-anchor="middle" x="914" y="-125.3" font-family="Times,serif" font-size="14.00">StarShaped2D</text>
</a>
</g>
</g>
<!-- StarShaped2D&#45;&gt;CEuclideanOrientedShape -->
<g id="edge3" class="edge">
<title>StarShaped2D&#45;&gt;CEuclideanOrientedShape</title>
<path fill="none" stroke="black" d="M969.03,-141.97C994.42,-147.8 1024.89,-155.22 1052,-163 1081.71,-171.52 1114.41,-182.38 1141.04,-191.62"/>
<polygon fill="black" stroke="black" points="1139.96,-194.95 1150.56,-194.94 1142.27,-188.34 1139.96,-194.95"/>
</g>
<!-- StarShaped2D&#45;&gt;CEuclideanBoundedShape -->
<g id="edge2" class="edge">
<title>StarShaped2D&#45;&gt;CEuclideanBoundedShape</title>
<path fill="none" stroke="black" d="M865.6,-143.23C844.73,-149.07 820.1,-156.15 798,-163 768.93,-172.01 736.78,-182.73 710.34,-191.76"/>
<polygon fill="black" stroke="black" points="709.2,-188.45 700.87,-195 711.46,-195.07 709.2,-188.45"/>
</g>
<!-- StarShaped2D&#45;&gt;CDigitalOrientedShape -->
<g id="edge5" class="edge">
<title>StarShaped2D&#45;&gt;CDigitalOrientedShape</title>
<path fill="none" stroke="black" d="M856.09,-141.21C827.32,-146.32 791.95,-151.9 760,-155 705.34,-160.3 566.87,-152.33 513,-163 483.92,-168.76 452.74,-180.33 428.44,-190.66"/>
<polygon fill="black" stroke="black" points="426.92,-187.51 419.14,-194.7 429.71,-193.93 426.92,-187.51"/>
</g>
<!-- StarShaped2D&#45;&gt;CDigitalBoundedShape -->
<g id="edge4" class="edge">
<title>StarShaped2D&#45;&gt;CDigitalBoundedShape</title>
<path fill="none" stroke="black" d="M916.33,-147.18C917.78,-157.81 919.66,-171.69 921.31,-183.8"/>
<polygon fill="black" stroke="black" points="917.86,-184.41 922.67,-193.85 924.79,-183.47 917.86,-184.41"/>
</g>
<!-- StarShaped3D -->
<g id="node8" class="node">
<title>StarShaped3D</title>
<g id="a_node8"><a xlink:href="classDGtal_1_1StarShaped3D.html" target="_top" xlink:title="StarShaped3D">
<ellipse fill="white" stroke="white" cx="672" cy="-129" rx="78.79" ry="18"/>
<text text-anchor="middle" x="672" y="-125.3" font-family="Times,serif" font-size="14.00">StarShaped3D</text>
</a>
</g>
</g>
<!-- StarShaped3D&#45;&gt;CEuclideanOrientedShape -->
<g id="edge7" class="edge">
<title>StarShaped3D&#45;&gt;CEuclideanOrientedShape</title>
<path fill="none" stroke="black" d="M730.28,-141.23C758.99,-146.31 794.19,-151.87 826,-155 926.02,-164.85 953.11,-145.04 1052,-163 1084.61,-168.92 1119.94,-180.72 1147.31,-191.14"/>
<polygon fill="black" stroke="black" points="1146.06,-194.41 1156.65,-194.76 1148.59,-187.88 1146.06,-194.41"/>
</g>
<!-- StarShaped3D&#45;&gt;CEuclideanBoundedShape -->
<g id="edge6" class="edge">
<title>StarShaped3D&#45;&gt;CEuclideanBoundedShape</title>
<path fill="none" stroke="black" d="M668.39,-147.18C666.16,-157.81 663.25,-171.69 660.71,-183.8"/>
<polygon fill="black" stroke="black" points="657.23,-183.34 658.6,-193.85 664.08,-184.78 657.23,-183.34"/>
</g>
<!-- StarShaped3D&#45;&gt;CDigitalOrientedShape -->
<g id="edge9" class="edge">
<title>StarShaped3D&#45;&gt;CDigitalOrientedShape</title>
<path fill="none" stroke="black" d="M610.68,-140.44C580.93,-146.08 544.82,-153.79 513,-163 485.95,-170.83 456.48,-181.71 432.64,-191.14"/>
<polygon fill="black" stroke="black" points="431.12,-187.98 423.13,-194.94 433.71,-194.48 431.12,-187.98"/>
</g>
<!-- StarShaped3D&#45;&gt;CDigitalBoundedShape -->
<g id="edge8" class="edge">
<title>StarShaped3D&#45;&gt;CDigitalBoundedShape</title>
<path fill="none" stroke="black" d="M724.34,-142.57C746.85,-148.29 773.37,-155.47 797,-163 823.33,-171.39 852.2,-182.08 875.84,-191.24"/>
<polygon fill="black" stroke="black" points="874.71,-194.56 885.29,-194.93 877.25,-188.03 874.71,-194.56"/>
</g>
<!-- Flower2D -->
<g id="node9" class="node">
<title>Flower2D</title>
<g id="a_node9"><a xlink:href="classDGtal_1_1Flower2D.html" target="_top" xlink:title="Flower2D">
<ellipse fill="white" stroke="white" cx="1133" cy="-57" rx="55.79" ry="18"/>
<text text-anchor="middle" x="1133" y="-53.3" font-family="Times,serif" font-size="14.00">Flower2D</text>
</a>
</g>
</g>
<!-- Flower2D&#45;&gt;StarShaped2D -->
<g id="edge10" class="edge">
<title>Flower2D&#45;&gt;StarShaped2D</title>
<path fill="none" stroke="black" d="M1094.85,-70.19C1059.61,-81.46 1006.89,-98.31 967.45,-110.92"/>
<polygon fill="black" stroke="black" points="966.19,-107.65 957.73,-114.02 968.32,-114.31 966.19,-107.65"/>
</g>
<!-- Ball2D -->
<g id="node10" class="node">
<title>Ball2D</title>
<g id="a_node10"><a xlink:href="classDGtal_1_1Ball2D.html" target="_top" xlink:title="Ball2D">
<ellipse fill="white" stroke="white" cx="1017" cy="-57" rx="42.49" ry="18"/>
<text text-anchor="middle" x="1017" y="-53.3" font-family="Times,serif" font-size="14.00">Ball2D</text>
</a>
</g>
</g>
<!-- Ball2D&#45;&gt;StarShaped2D -->
<g id="edge12" class="edge">
<title>Ball2D&#45;&gt;StarShaped2D</title>
<path fill="none" stroke="black" d="M995.16,-72.85C981.01,-82.46 962.32,-95.16 946.45,-105.95"/>
<polygon fill="black" stroke="black" points="944.27,-103.19 937.97,-111.71 948.21,-108.98 944.27,-103.19"/>
</g>
<!-- AccFlower2D -->
<g id="node11" class="node">
<title>AccFlower2D</title>
<g id="a_node11"><a xlink:href="classDGtal_1_1AccFlower2D.html" target="_top" xlink:title="AccFlower2D">
<ellipse fill="white" stroke="white" cx="885" cy="-57" rx="72.29" ry="18"/>
<text text-anchor="middle" x="885" y="-53.3" font-family="Times,serif" font-size="14.00">AccFlower2D</text>
</a>
</g>
</g>
<!-- AccFlower2D&#45;&gt;StarShaped2D -->
<g id="edge13" class="edge">
<title>AccFlower2D&#45;&gt;StarShaped2D</title>
<path fill="none" stroke="black" d="M892.02,-74.95C895.28,-82.82 899.24,-92.38 902.9,-101.21"/>
<polygon fill="black" stroke="black" points="899.78,-102.83 906.84,-110.72 906.25,-100.15 899.78,-102.83"/>
</g>
<!-- NGon2D -->
<g id="node12" class="node">
<title>NGon2D</title>
<g id="a_node12"><a xlink:href="classDGtal_1_1NGon2D.html" target="_top" xlink:title="NGon2D">
<ellipse fill="white" stroke="white" cx="745" cy="-57" rx="50.09" ry="18"/>
<text text-anchor="middle" x="745" y="-53.3" font-family="Times,serif" font-size="14.00">NGon2D</text>
</a>
</g>
</g>
<!-- NGon2D&#45;&gt;StarShaped2D -->
<g id="edge11" class="edge">
<title>NGon2D&#45;&gt;StarShaped2D</title>
<path fill="none" stroke="black" d="M776.79,-71.17C802.56,-81.84 839.22,-97.03 868.17,-109.02"/>
<polygon fill="black" stroke="black" points="867.08,-112.36 877.66,-112.95 869.76,-105.89 867.08,-112.36"/>
</g>
<!-- Ball3D -->
<g id="node13" class="node">
<title>Ball3D</title>
<g id="a_node13"><a xlink:href="classDGtal_1_1Ball3D.html" target="_top" xlink:title="Ball3D">
<ellipse fill="white" stroke="white" cx="635" cy="-57" rx="42.49" ry="18"/>
<text text-anchor="middle" x="635" y="-53.3" font-family="Times,serif" font-size="14.00">Ball3D</text>
</a>
</g>
</g>
<!-- Ball3D&#45;&gt;StarShaped3D -->
<g id="edge14" class="edge">
<title>Ball3D&#45;&gt;StarShaped3D</title>
<path fill="none" stroke="black" d="M643.96,-74.95C648.21,-82.99 653.39,-92.8 658.14,-101.77"/>
<polygon fill="black" stroke="black" points="655.1,-103.52 662.87,-110.72 661.29,-100.25 655.1,-103.52"/>
</g>
<!-- ImplicitPolynomial3Shape -->
<g id="node14" class="node">
<title>ImplicitPolynomial3Shape</title>
<g id="a_node14"><a xlink:href="classDGtal_1_1ImplicitPolynomial3Shape.html" target="_top" xlink:title="ImplicitPolynomial3Shape">
<ellipse fill="white" stroke="white" cx="1339" cy="-57" rx="131.88" ry="18"/>
<text text-anchor="middle" x="1339" y="-53.3" font-family="Times,serif" font-size="14.00">ImplicitPolynomial3Shape</text>
</a>
</g>
</g>
<!-- ImplicitPolynomial3Shape&#45;&gt;CEuclideanOrientedShape -->
<g id="edge16" class="edge">
<title>ImplicitPolynomial3Shape&#45;&gt;CEuclideanOrientedShape</title>
<path fill="none" stroke="black" d="M1323.04,-74.96C1297.52,-102.07 1247.43,-155.29 1218.03,-186.53"/>
<polygon fill="black" stroke="black" points="1215.34,-184.28 1211.03,-193.97 1220.43,-189.08 1215.34,-184.28"/>
</g>
<!-- ImplicitPolynomial3Shape&#45;&gt;CImplicitFunction -->
<g id="edge15" class="edge">
<title>ImplicitPolynomial3Shape&#45;&gt;CImplicitFunction</title>
<path fill="none" stroke="black" d="M1345.39,-75.13C1356.99,-109.51 1376.83,-187.31 1337,-230 1300.31,-269.32 961.91,-279.47 786.86,-282.09"/>
<polygon fill="black" stroke="black" points="786.8,-278.59 776.85,-282.23 786.9,-285.59 786.8,-278.59"/>
</g>
</g>
</svg>
