<?xml version="1.0" encoding="UTF-8" standalone="no"?>
<!DOCTYPE svg PUBLIC "-//W3C//DTD SVG 1.1//EN"
 "http://www.w3.org/Graphics/SVG/1.1/DTD/svg11.dtd">
<!-- Generated by graphviz version 2.43.0 (0)
 -->
<!-- Title: metric_concepts_2_vor Pages: 1 -->
<svg width="649pt" height="211pt"
 viewBox="0.00 0.00 649.38 211.00" xmlns="http://www.w3.org/2000/svg" xmlns:xlink="http://www.w3.org/1999/xlink">
<g id="graph0" class="graph" transform="scale(1 1) rotate(0) translate(4 207)">
<title>metric_concepts_2_vor</title>
<polygon fill="white" stroke="transparent" points="-4,4 -4,-207 645.38,-207 645.38,4 -4,4"/>
<text text-anchor="middle" x="320.69" y="-7.8" font-family="Times,serif" font-size="14.00">Main metric concepts</text>
<!-- CMetricSpace -->
<g id="node1" class="node">
<title>CMetricSpace</title>
<g id="a_node1"><a xlink:href="structDGtal_1_1concepts_1_1CMetricSpace.html" target="_top" xlink:title="CMetricSpace">
<ellipse fill="none" stroke="black" cx="327.24" cy="-41" rx="76.09" ry="18"/>
<text text-anchor="middle" x="327.24" y="-37.3" font-family="Times,serif" font-size="14.00">CMetricSpace</text>
</a>
</g>
</g>
<!-- CDigitalMetricSpace -->
<g id="node2" class="node">
<title>CDigitalMetricSpace</title>
<g id="a_node2"><a xlink:href="structDGtal_1_1concepts_1_1CDigitalMetricSpace.html" target="_top" xlink:title="CDigitalMetricSpace">
<ellipse fill="none" stroke="black" cx="107.24" cy="-113" rx="107.48" ry="18"/>
<text text-anchor="middle" x="107.24" y="-109.3" font-family="Times,serif" font-size="14.00">CDigitalMetricSpace</text>
</a>
</g>
</g>
<!-- CSeparableMetric -->
<g id="node3" class="node">
<title>CSeparableMetric</title>
<g id="a_node3"><a xlink:href="structDGtal_1_1concepts_1_1CSeparableMetric.html" target="_top" xlink:title="CSeparableMetric">
<ellipse fill="none" stroke="black" cx="327.24" cy="-113" rx="94.78" ry="18"/>
<text text-anchor="middle" x="327.24" y="-109.3" font-family="Times,serif" font-size="14.00">CSeparableMetric</text>
</a>
</g>
</g>
<!-- CSeparableMetric&#45;&gt;CMetricSpace -->
<g id="edge1" class="edge">
<title>CSeparableMetric&#45;&gt;CMetricSpace</title>
<path fill="none" stroke="black" d="M321.32,-94.7C320.53,-86.98 320.3,-77.71 320.65,-69.11"/>
<polygon fill="black" stroke="black" points="324.14,-69.32 321.35,-59.1 317.16,-68.84 324.14,-69.32"/>
</g>
<!-- CSeparableMetric&#45;&gt;CMetricSpace -->
<g id="edge2" class="edge">
<title>CSeparableMetric&#45;&gt;CMetricSpace</title>
<path fill="none" stroke="black" d="M333.16,-94.7C333.95,-86.98 334.18,-77.71 333.84,-69.11"/>
<polygon fill="black" stroke="black" points="337.33,-68.84 333.14,-59.1 330.34,-69.32 337.33,-68.84"/>
</g>
<!-- CDigitalSeparableMetric -->
<g id="node4" class="node">
<title>CDigitalSeparableMetric</title>
<ellipse fill="none" stroke="black" cx="178.24" cy="-185" rx="126.18" ry="18"/>
<text text-anchor="middle" x="178.24" y="-181.3" font-family="Times,serif" font-size="14.00">CDigitalSeparableMetric</text>
</g>
<!-- CDigitalSeparableMetric&#45;&gt;CDigitalMetricSpace -->
<g id="edge3" class="edge">
<title>CDigitalSeparableMetric&#45;&gt;CDigitalMetricSpace</title>
<path fill="none" stroke="black" d="M161.05,-167.05C152.16,-158.28 141.15,-147.43 131.41,-137.83"/>
<polygon fill="black" stroke="black" points="133.85,-135.32 124.27,-130.79 128.93,-140.3 133.85,-135.32"/>
</g>
<!-- CDigitalSeparableMetric&#45;&gt;CSeparableMetric -->
<g id="edge4" class="edge">
<title>CDigitalSeparableMetric&#45;&gt;CSeparableMetric</title>
<path fill="none" stroke="black" d="M213.17,-167.59C234.4,-157.62 261.66,-144.81 284.21,-134.22"/>
<polygon fill="black" stroke="black" points="285.99,-137.25 293.55,-129.83 283.01,-130.91 285.99,-137.25"/>
</g>
<!-- CPowerMetric -->
<g id="node5" class="node">
<title>CPowerMetric</title>
<g id="a_node5"><a xlink:href="structDGtal_1_1concepts_1_1CPowerMetric.html" target="_top" xlink:title="CPowerMetric">
<ellipse fill="none" stroke="black" cx="517.24" cy="-113" rx="77.19" ry="18"/>
<text text-anchor="middle" x="517.24" y="-109.3" font-family="Times,serif" font-size="14.00">CPowerMetric</text>
</a>
</g>
</g>
<!-- CPowerSeparableMetric -->
<g id="node6" class="node">
<title>CPowerSeparableMetric</title>
<g id="a_node6"><a xlink:href="structDGtal_1_1concepts_1_1CPowerSeparableMetric.html" target="_top" xlink:title="CPowerSeparableMetric">
<ellipse fill="none" stroke="black" cx="517.24" cy="-185" rx="124.28" ry="18"/>
<text text-anchor="middle" x="517.24" y="-181.3" font-family="Times,serif" font-size="14.00">CPowerSeparableMetric</text>
</a>
</g>
</g>
<!-- CPowerSeparableMetric&#45;&gt;CPowerMetric -->
<g id="edge5" class="edge">
<title>CPowerSeparableMetric&#45;&gt;CPowerMetric</title>
<path fill="none" stroke="black" d="M517.24,-166.7C517.24,-158.98 517.24,-149.71 517.24,-141.11"/>
<polygon fill="black" stroke="black" points="520.74,-141.1 517.24,-131.1 513.74,-141.1 520.74,-141.1"/>
</g>
</g>
</svg>
