<?xml version="1.0" encoding="UTF-8" standalone="no"?>
<!DOCTYPE svg PUBLIC "-//W3C//DTD SVG 1.1//EN"
 "http://www.w3.org/Graphics/SVG/1.1/DTD/svg11.dtd">
<!-- Generated by graphviz version 2.43.0 (0)
 -->
<!-- Title: Graphical Class Hierarchy Pages: 1 -->
<svg width="319pt" height="318pt"
 viewBox="0.00 0.00 319.00 318.00" xmlns="http://www.w3.org/2000/svg" xmlns:xlink="http://www.w3.org/1999/xlink">
<g id="graph0" class="graph" transform="scale(1 1) rotate(0) translate(4 314)">
<title>Graphical Class Hierarchy</title>
<polygon fill="white" stroke="transparent" points="-4,4 -4,-314 315,-314 315,4 -4,4"/>
<!-- Node0 -->
<g id="node1" class="node">
<title>Node0</title>
<g id="a_node1"><a xlink:href="classDGtal_1_1StarShaped2D.html" target="_top" xlink:title=" ">
<polygon fill="white" stroke="black" points="0,-140 0,-170 119,-170 119,-140 0,-140"/>
<text text-anchor="start" x="8" y="-158" font-family="FreeSans" font-size="10.00">DGtal::StarShaped2D</text>
<text text-anchor="middle" x="59.5" y="-147" font-family="FreeSans" font-size="10.00">&lt; TSpace &gt;</text>
</a>
</g>
</g>
<!-- Node1 -->
<g id="node2" class="node">
<title>Node1</title>
<g id="a_node2"><a xlink:href="classDGtal_1_1Astroid2D.html" target="_top" xlink:title=" ">
<polygon fill="white" stroke="black" points="158,-290.5 158,-309.5 308,-309.5 308,-290.5 158,-290.5"/>
<text text-anchor="middle" x="233" y="-297.5" font-family="FreeSans" font-size="10.00">DGtal::Astroid2D&lt; Space &gt;</text>
</a>
</g>
</g>
<!-- Node0&#45;&gt;Node1 -->
<g id="edge1" class="edge">
<title>Node0&#45;&gt;Node1</title>
<path fill="none" stroke="midnightblue" d="M72.02,-179.06C87.04,-207.81 116.08,-255.24 155,-281 160.86,-284.88 167.43,-287.96 174.22,-290.42"/>
<polygon fill="midnightblue" stroke="midnightblue" points="75.11,-177.42 67.47,-170.09 68.87,-180.59 75.11,-177.42"/>
</g>
<!-- Node2 -->
<g id="node3" class="node">
<title>Node2</title>
<g id="a_node3"><a xlink:href="classDGtal_1_1AccFlower2D.html" target="_top" xlink:title="Aim: Model of the concept StarShaped represents any accelerated flower in the plane.">
<polygon fill="white" stroke="black" points="176,-241 176,-271 290,-271 290,-241 176,-241"/>
<text text-anchor="start" x="184" y="-259" font-family="FreeSans" font-size="10.00">DGtal::AccFlower2D</text>
<text text-anchor="middle" x="233" y="-248" font-family="FreeSans" font-size="10.00">&lt; TSpace &gt;</text>
</a>
</g>
</g>
<!-- Node0&#45;&gt;Node2 -->
<g id="edge2" class="edge">
<title>Node0&#45;&gt;Node2</title>
<path fill="none" stroke="midnightblue" d="M83.31,-177.35C101.46,-194.08 128.18,-216.5 155,-231 161.92,-234.74 169.5,-238.05 177.12,-240.92"/>
<polygon fill="midnightblue" stroke="midnightblue" points="85.29,-174.4 75.61,-170.11 80.5,-179.51 85.29,-174.4"/>
</g>
<!-- Node3 -->
<g id="node4" class="node">
<title>Node3</title>
<g id="a_node4"><a xlink:href="classDGtal_1_1Astroid2D.html" target="_top" xlink:title="Aim: Model of the concept StarShaped represents an astroid.">
<polygon fill="white" stroke="black" points="155,-202.5 155,-221.5 311,-221.5 311,-202.5 155,-202.5"/>
<text text-anchor="middle" x="233" y="-209.5" font-family="FreeSans" font-size="10.00">DGtal::Astroid2D&lt; TSpace &gt;</text>
</a>
</g>
</g>
<!-- Node0&#45;&gt;Node3 -->
<g id="edge3" class="edge">
<title>Node0&#45;&gt;Node3</title>
<path fill="none" stroke="midnightblue" d="M104.16,-174.05C120,-180.56 138.14,-187.56 155,-193 165.75,-196.47 177.51,-199.66 188.53,-202.4"/>
<polygon fill="midnightblue" stroke="midnightblue" points="105.21,-170.69 94.63,-170.08 102.52,-177.15 105.21,-170.69"/>
</g>
<!-- Node4 -->
<g id="node5" class="node">
<title>Node4</title>
<g id="a_node5"><a xlink:href="classDGtal_1_1Ball2D.html" target="_top" xlink:title="Aim: Model of the concept StarShaped represents any circle in the plane.">
<polygon fill="white" stroke="black" points="163,-164.5 163,-183.5 303,-183.5 303,-164.5 163,-164.5"/>
<text text-anchor="middle" x="233" y="-171.5" font-family="FreeSans" font-size="10.00">DGtal::Ball2D&lt; TSpace &gt;</text>
</a>
</g>
</g>
<!-- Node0&#45;&gt;Node4 -->
<g id="edge4" class="edge">
<title>Node0&#45;&gt;Node4</title>
<path fill="none" stroke="midnightblue" d="M129.09,-162.6C140.18,-163.83 151.67,-165.1 162.78,-166.33"/>
<polygon fill="midnightblue" stroke="midnightblue" points="129.37,-159.11 119.04,-161.49 128.59,-166.07 129.37,-159.11"/>
</g>
<!-- Node5 -->
<g id="node6" class="node">
<title>Node5</title>
<g id="a_node6"><a xlink:href="classDGtal_1_1Ellipse2D.html" target="_top" xlink:title="Aim: Model of the concept StarShaped represents any ellipse in the plane.">
<polygon fill="white" stroke="black" points="156,-126.5 156,-145.5 310,-145.5 310,-126.5 156,-126.5"/>
<text text-anchor="middle" x="233" y="-133.5" font-family="FreeSans" font-size="10.00">DGtal::Ellipse2D&lt; TSpace &gt;</text>
</a>
</g>
</g>
<!-- Node0&#45;&gt;Node5 -->
<g id="edge5" class="edge">
<title>Node0&#45;&gt;Node5</title>
<path fill="none" stroke="midnightblue" d="M129.19,-147.39C137.95,-146.42 146.96,-145.42 155.83,-144.44"/>
<polygon fill="midnightblue" stroke="midnightblue" points="128.59,-143.93 119.04,-148.51 129.37,-150.89 128.59,-143.93"/>
</g>
<!-- Node6 -->
<g id="node7" class="node">
<title>Node6</title>
<g id="a_node7"><a xlink:href="classDGtal_1_1Flower2D.html" target="_top" xlink:title="Aim: Model of the concept StarShaped represents any flower with k&#45;petals in the plane.">
<polygon fill="white" stroke="black" points="155.5,-88.5 155.5,-107.5 310.5,-107.5 310.5,-88.5 155.5,-88.5"/>
<text text-anchor="middle" x="233" y="-95.5" font-family="FreeSans" font-size="10.00">DGtal::Flower2D&lt; TSpace &gt;</text>
</a>
</g>
</g>
<!-- Node0&#45;&gt;Node6 -->
<g id="edge6" class="edge">
<title>Node0&#45;&gt;Node6</title>
<path fill="none" stroke="midnightblue" d="M104.16,-135.95C120,-129.44 138.14,-122.44 155,-117 165.75,-113.53 177.51,-110.34 188.53,-107.6"/>
<polygon fill="midnightblue" stroke="midnightblue" points="102.52,-132.85 94.63,-139.92 105.21,-139.31 102.52,-132.85"/>
</g>
<!-- Node7 -->
<g id="node8" class="node">
<title>Node7</title>
<g id="a_node8"><a xlink:href="classDGtal_1_1Lemniscate2D.html" target="_top" xlink:title="Aim: Model of the concept StarShaped represents a lemniscate.">
<polygon fill="white" stroke="black" points="173,-39 173,-69 293,-69 293,-39 173,-39"/>
<text text-anchor="start" x="181" y="-57" font-family="FreeSans" font-size="10.00">DGtal::Lemniscate2D</text>
<text text-anchor="middle" x="233" y="-46" font-family="FreeSans" font-size="10.00">&lt; TSpace &gt;</text>
</a>
</g>
</g>
<!-- Node0&#45;&gt;Node7 -->
<g id="edge7" class="edge">
<title>Node0&#45;&gt;Node7</title>
<path fill="none" stroke="midnightblue" d="M83.31,-132.65C101.46,-115.92 128.18,-93.5 155,-79 161.92,-75.26 169.5,-71.95 177.12,-69.08"/>
<polygon fill="midnightblue" stroke="midnightblue" points="80.5,-130.49 75.61,-139.89 85.29,-135.6 80.5,-130.49"/>
</g>
<!-- Node8 -->
<g id="node9" class="node">
<title>Node8</title>
<g id="a_node9"><a xlink:href="classDGtal_1_1NGon2D.html" target="_top" xlink:title="Aim: Model of the concept StarShaped represents any regular k&#45;gon in the plane.">
<polygon fill="white" stroke="black" points="158.5,-0.5 158.5,-19.5 307.5,-19.5 307.5,-0.5 158.5,-0.5"/>
<text text-anchor="middle" x="233" y="-7.5" font-family="FreeSans" font-size="10.00">DGtal::NGon2D&lt; TSpace &gt;</text>
</a>
</g>
</g>
<!-- Node0&#45;&gt;Node8 -->
<g id="edge8" class="edge">
<title>Node0&#45;&gt;Node8</title>
<path fill="none" stroke="midnightblue" d="M72.36,-130.76C87.55,-102.27 116.58,-55.66 155,-30 161.55,-25.63 169,-22.21 176.62,-19.54"/>
<polygon fill="midnightblue" stroke="midnightblue" points="69.24,-129.17 67.74,-139.66 75.45,-132.39 69.24,-129.17"/>
</g>
</g>
</svg>
