<?xml version="1.0" encoding="UTF-8" standalone="no"?>
<!DOCTYPE svg PUBLIC "-//W3C//DTD SVG 1.1//EN"
 "http://www.w3.org/Graphics/SVG/1.1/DTD/svg11.dtd">
<!-- Generated by graphviz version 2.43.0 (0)
 -->
<!-- Title: Graphical Class Hierarchy Pages: 1 -->
<svg width="510pt" height="61pt"
 viewBox="0.00 0.00 510.00 61.00" xmlns="http://www.w3.org/2000/svg" xmlns:xlink="http://www.w3.org/1999/xlink">
<g id="graph0" class="graph" transform="scale(1 1) rotate(0) translate(4 57)">
<title>Graphical Class Hierarchy</title>
<polygon fill="white" stroke="transparent" points="-4,4 -4,-57 506,-57 506,4 -4,4"/>
<!-- Node0 -->
<g id="node1" class="node">
<title>Node0</title>
<g id="a_node1"><a xlink:href="classDGtal_1_1LambdaMST2DEstimator.html" target="_top" xlink:title=" ">
<polygon fill="white" stroke="black" points="0,-0.5 0,-52.5 299,-52.5 299,-0.5 0,-0.5"/>
<text text-anchor="start" x="8" y="-40.5" font-family="FreeSans" font-size="10.00">DGtal::LambdaMST2DEstimator</text>
<text text-anchor="start" x="8" y="-29.5" font-family="FreeSans" font-size="10.00">&lt; Z2i::Space, DSSSegmentationComputer,</text>
<text text-anchor="start" x="8" y="-18.5" font-family="FreeSans" font-size="10.00"> TangentFromDSS2DFunctor&lt; DSSSegmentationComputer</text>
<text text-anchor="middle" x="149.5" y="-7.5" font-family="FreeSans" font-size="10.00">::SegmentComputer, functors::Lambda64Function &gt; &gt;</text>
</a>
</g>
</g>
<!-- Node1 -->
<g id="node2" class="node">
<title>Node1</title>
<g id="a_node2"><a xlink:href="classDGtal_1_1LambdaMST2D.html" target="_top" xlink:title="Aim: Simplify creation of Lambda MST tangent estimator.">
<polygon fill="white" stroke="black" points="335,-6 335,-47 502,-47 502,-6 335,-6"/>
<text text-anchor="start" x="343" y="-35" font-family="FreeSans" font-size="10.00">DGtal::LambdaMST2D</text>
<text text-anchor="start" x="343" y="-24" font-family="FreeSans" font-size="10.00">&lt; DSSSegmentationComputer,</text>
<text text-anchor="middle" x="418.5" y="-13" font-family="FreeSans" font-size="10.00"> LambdaFunction &gt;</text>
</a>
</g>
</g>
<!-- Node0&#45;&gt;Node1 -->
<g id="edge1" class="edge">
<title>Node0&#45;&gt;Node1</title>
<path fill="none" stroke="midnightblue" d="M309.48,-26.5C318.16,-26.5 326.7,-26.5 334.93,-26.5"/>
<polygon fill="midnightblue" stroke="midnightblue" points="309.22,-23 299.22,-26.5 309.22,-30 309.22,-23"/>
</g>
</g>
</svg>
