<?xml version="1.0" encoding="UTF-8" standalone="no"?>
<!DOCTYPE svg PUBLIC "-//W3C//DTD SVG 1.1//EN"
 "http://www.w3.org/Graphics/SVG/1.1/DTD/svg11.dtd">
<!-- Generated by graphviz version 2.43.0 (0)
 -->
<!-- Title: Graphical Class Hierarchy Pages: 1 -->
<svg width="330pt" height="39pt"
 viewBox="0.00 0.00 330.00 39.00" xmlns="http://www.w3.org/2000/svg" xmlns:xlink="http://www.w3.org/1999/xlink">
<g id="graph0" class="graph" transform="scale(1 1) rotate(0) translate(4 35)">
<title>Graphical Class Hierarchy</title>
<polygon fill="white" stroke="transparent" points="-4,4 -4,-35 326,-35 326,4 -4,4"/>
<!-- Node0 -->
<g id="node1" class="node">
<title>Node0</title>
<g id="a_node1"><a xlink:href="structDGtal_1_1concepts_1_1CImplicitFunction.html" target="_top" xlink:title="Aim: Describes any function of the form f(x), where x is some real point in the given space,...">
<polygon fill="white" stroke="black" points="0,-0.5 0,-30.5 143,-30.5 143,-0.5 0,-0.5"/>
<text text-anchor="start" x="8" y="-18.5" font-family="FreeSans" font-size="10.00">DGtal::concepts::CImplicit</text>
<text text-anchor="middle" x="71.5" y="-7.5" font-family="FreeSans" font-size="10.00">Function&lt; T &gt;</text>
</a>
</g>
</g>
<!-- Node1 -->
<g id="node2" class="node">
<title>Node1</title>
<g id="a_node2"><a xlink:href="structDGtal_1_1concepts_1_1CImplicitFunctionDiff1.html" target="_top" xlink:title="Aim: Describes a 1&#45;differentiable function of the form f(x), where x is some real point in the given ...">
<polygon fill="white" stroke="black" points="179,-0.5 179,-30.5 322,-30.5 322,-0.5 179,-0.5"/>
<text text-anchor="start" x="187" y="-18.5" font-family="FreeSans" font-size="10.00">DGtal::concepts::CImplicit</text>
<text text-anchor="middle" x="250.5" y="-7.5" font-family="FreeSans" font-size="10.00">FunctionDiff1&lt; T &gt;</text>
</a>
</g>
</g>
<!-- Node0&#45;&gt;Node1 -->
<g id="edge1" class="edge">
<title>Node0&#45;&gt;Node1</title>
<path fill="none" stroke="midnightblue" d="M153.49,-15.5C161.97,-15.5 170.54,-15.5 178.89,-15.5"/>
<polygon fill="midnightblue" stroke="midnightblue" points="153.22,-12 143.22,-15.5 153.22,-19 153.22,-12"/>
</g>
</g>
</svg>
