<?xml version="1.0" encoding="UTF-8" standalone="no"?>
<!DOCTYPE svg PUBLIC "-//W3C//DTD SVG 1.1//EN"
 "http://www.w3.org/Graphics/SVG/1.1/DTD/svg11.dtd">
<!-- Generated by graphviz version 2.43.0 (0)
 -->
<!-- Title: Graphical Class Hierarchy Pages: 1 -->
<svg width="385pt" height="105pt"
 viewBox="0.00 0.00 385.00 105.00" xmlns="http://www.w3.org/2000/svg" xmlns:xlink="http://www.w3.org/1999/xlink">
<g id="graph0" class="graph" transform="scale(1 1) rotate(0) translate(4 101)">
<title>Graphical Class Hierarchy</title>
<polygon fill="white" stroke="transparent" points="-4,4 -4,-101 381,-101 381,4 -4,4"/>
<!-- Node877 -->
<g id="node1" class="node">
<title>Node877</title>
<g id="a_node1"><a xlink:title=" ">
<polygon fill="white" stroke="#bfbfbf" points="0,-0.5 0,-96.5 198,-96.5 198,-0.5 0,-0.5"/>
<text text-anchor="start" x="8" y="-84.5" font-family="FreeSans" font-size="10.00">boost::iterator_facade</text>
<text text-anchor="start" x="8" y="-73.5" font-family="FreeSans" font-size="10.00">&lt; ArrayImageIterator&lt;</text>
<text text-anchor="start" x="8" y="-62.5" font-family="FreeSans" font-size="10.00"> TIterableClass &gt;, TIterableClass</text>
<text text-anchor="start" x="8" y="-51.5" font-family="FreeSans" font-size="10.00">::Value, std::random_access_iterator</text>
<text text-anchor="start" x="8" y="-40.5" font-family="FreeSans" font-size="10.00">_tag, decltype(((new TIterableClass)</text>
<text text-anchor="start" x="8" y="-29.5" font-family="FreeSans" font-size="10.00">) &#45;&gt;dereference(TIterableClass::Point</text>
<text text-anchor="start" x="8" y="-18.5" font-family="FreeSans" font-size="10.00">::diagonal(0), TIterableClass::Point::</text>
<text text-anchor="middle" x="99" y="-7.5" font-family="FreeSans" font-size="10.00">Coordinate(0))) &gt;</text>
</a>
</g>
</g>
<!-- Node0 -->
<g id="node2" class="node">
<title>Node0</title>
<g id="a_node2"><a xlink:href="classDGtal_1_1ArrayImageIterator.html" target="_top" xlink:title="Aim: Random access iterator over an image given his definition domain and viewable domain.">
<polygon fill="white" stroke="black" points="234,-33.5 234,-63.5 377,-63.5 377,-33.5 234,-33.5"/>
<text text-anchor="start" x="242" y="-51.5" font-family="FreeSans" font-size="10.00">DGtal::ArrayImageIterator</text>
<text text-anchor="middle" x="305.5" y="-40.5" font-family="FreeSans" font-size="10.00">&lt; TIterableClass &gt;</text>
</a>
</g>
</g>
<!-- Node877&#45;&gt;Node0 -->
<g id="edge1" class="edge">
<title>Node877&#45;&gt;Node0</title>
<path fill="none" stroke="midnightblue" d="M208.27,-48.5C216.95,-48.5 225.58,-48.5 233.9,-48.5"/>
<polygon fill="midnightblue" stroke="midnightblue" points="208.06,-45 198.06,-48.5 208.06,-52 208.06,-45"/>
</g>
</g>
</svg>
