<?xml version="1.0" encoding="UTF-8" standalone="no"?>
<!DOCTYPE svg PUBLIC "-//W3C//DTD SVG 1.1//EN"
 "http://www.w3.org/Graphics/SVG/1.1/DTD/svg11.dtd">
<!-- Generated by graphviz version 2.43.0 (0)
 -->
<!-- Title: DGtal::concepts::CStaticVector&lt; T &gt; Pages: 1 -->
<svg width="372pt" height="218pt"
 viewBox="0.00 0.00 371.50 218.00" xmlns="http://www.w3.org/2000/svg" xmlns:xlink="http://www.w3.org/1999/xlink">
<g id="graph0" class="graph" transform="scale(1 1) rotate(0) translate(4 214)">
<title>DGtal::concepts::CStaticVector&lt; T &gt;</title>
<polygon fill="white" stroke="transparent" points="-4,4 -4,-214 367.5,-214 367.5,4 -4,4"/>
<!-- Node1 -->
<g id="node1" class="node">
<title>Node1</title>
<g id="a_node1"><a xlink:title="Aim: Represent any static sized column vector having sparse or dense representation.">
<polygon fill="#bfbfbf" stroke="black" points="111,-0.5 111,-30.5 245,-30.5 245,-0.5 111,-0.5"/>
<text text-anchor="start" x="119" y="-18.5" font-family="FreeSans" font-size="10.00">DGtal::concepts::CStatic</text>
<text text-anchor="middle" x="178" y="-7.5" font-family="FreeSans" font-size="10.00">Vector&lt; T &gt;</text>
</a>
</g>
</g>
<!-- Node2 -->
<g id="node2" class="node">
<title>Node2</title>
<g id="a_node2"><a xlink:href="structDGtal_1_1concepts_1_1CVector.html" target="_top" xlink:title="Aim: Represent any static or dynamic sized column vector having sparse or dense representation.">
<polygon fill="white" stroke="black" points="0,-67.5 0,-86.5 166,-86.5 166,-67.5 0,-67.5"/>
<text text-anchor="middle" x="83" y="-74.5" font-family="FreeSans" font-size="10.00">DGtal::concepts::CVector&lt; T &gt;</text>
</a>
</g>
</g>
<!-- Node2&#45;&gt;Node1 -->
<g id="edge1" class="edge">
<title>Node2&#45;&gt;Node1</title>
<path fill="none" stroke="midnightblue" d="M105.34,-62.01C120.49,-52.52 140.45,-40.02 155.61,-30.52"/>
<polygon fill="midnightblue" stroke="midnightblue" points="103.23,-59.2 96.61,-67.48 106.94,-65.13 103.23,-59.2"/>
</g>
<!-- Node3 -->
<g id="node3" class="node">
<title>Node3</title>
<g id="a_node3"><a xlink:href="structDGtal_1_1concepts_1_1CVectorSpace.html" target="_top" xlink:title="Aim: Base concept for vector space structure.">
<polygon fill="white" stroke="black" points="14.5,-123.5 14.5,-153.5 151.5,-153.5 151.5,-123.5 14.5,-123.5"/>
<text text-anchor="start" x="22.5" y="-141.5" font-family="FreeSans" font-size="10.00">DGtal::concepts::CVector</text>
<text text-anchor="middle" x="83" y="-130.5" font-family="FreeSans" font-size="10.00">Space&lt; T &gt;</text>
</a>
</g>
</g>
<!-- Node3&#45;&gt;Node2 -->
<g id="edge2" class="edge">
<title>Node3&#45;&gt;Node2</title>
<path fill="none" stroke="midnightblue" d="M83,-113.29C83,-103.86 83,-93.65 83,-86.66"/>
<polygon fill="midnightblue" stroke="midnightblue" points="79.5,-113.4 83,-123.4 86.5,-113.4 79.5,-113.4"/>
</g>
<!-- Node4 -->
<g id="node4" class="node">
<title>Node4</title>
<g id="a_node4"><a xlink:href="structboost_1_1Assignable.html" target="_top" xlink:title="Go to http://www.sgi.com/tech/stl/Assignable.html.">
<polygon fill="white" stroke="black" points="17.5,-190.5 17.5,-209.5 148.5,-209.5 148.5,-190.5 17.5,-190.5"/>
<text text-anchor="middle" x="83" y="-197.5" font-family="FreeSans" font-size="10.00">boost::Assignable&lt; T &gt;</text>
</a>
</g>
</g>
<!-- Node4&#45;&gt;Node3 -->
<g id="edge3" class="edge">
<title>Node4&#45;&gt;Node3</title>
<path fill="none" stroke="midnightblue" d="M83,-180.23C83,-171.59 83,-161.5 83,-153.52"/>
<polygon fill="midnightblue" stroke="midnightblue" points="79.5,-180.48 83,-190.48 86.5,-180.48 79.5,-180.48"/>
</g>
<!-- Node5 -->
<g id="node5" class="node">
<title>Node5</title>
<g id="a_node5"><a xlink:href="structboost_1_1DefaultConstructible.html" target="_top" xlink:title="Go to http://www.sgi.com/tech/stl/DefaultConstructible.html.">
<polygon fill="white" stroke="black" points="184.5,-67.5 184.5,-86.5 363.5,-86.5 363.5,-67.5 184.5,-67.5"/>
<text text-anchor="middle" x="274" y="-74.5" font-family="FreeSans" font-size="10.00">boost::DefaultConstructible&lt; T &gt;</text>
</a>
</g>
</g>
<!-- Node5&#45;&gt;Node1 -->
<g id="edge4" class="edge">
<title>Node5&#45;&gt;Node1</title>
<path fill="none" stroke="midnightblue" d="M251.43,-62.01C236.11,-52.52 215.95,-40.02 200.63,-30.52"/>
<polygon fill="midnightblue" stroke="midnightblue" points="249.9,-65.18 260.25,-67.48 253.59,-59.23 249.9,-65.18"/>
</g>
</g>
</svg>
