<?xml version="1.0" encoding="UTF-8" standalone="no"?>
<!DOCTYPE svg PUBLIC "-//W3C//DTD SVG 1.1//EN"
 "http://www.w3.org/Graphics/SVG/1.1/DTD/svg11.dtd">
<!-- Generated by graphviz version 2.43.0 (0)
 -->
<!-- Title: LibBoard::Polyline Pages: 1 -->
<svg width="435pt" height="207pt"
 viewBox="0.00 0.00 435.00 207.00" xmlns="http://www.w3.org/2000/svg" xmlns:xlink="http://www.w3.org/1999/xlink">
<g id="graph0" class="graph" transform="scale(1 1) rotate(0) translate(4 203)">
<title>LibBoard::Polyline</title>
<polygon fill="white" stroke="transparent" points="-4,4 -4,-203 431,-203 431,4 -4,4"/>
<!-- Node1 -->
<g id="node1" class="node">
<title>Node1</title>
<g id="a_node1"><a xlink:title="A polygonal line described by a series of 2D points.">
<polygon fill="#bfbfbf" stroke="black" points="168.5,-123.5 168.5,-142.5 272.5,-142.5 272.5,-123.5 168.5,-123.5"/>
<text text-anchor="middle" x="220.5" y="-130.5" font-family="FreeSans" font-size="10.00">LibBoard::Polyline</text>
</a>
</g>
</g>
<!-- Node3 -->
<g id="node3" class="node">
<title>Node3</title>
<g id="a_node3"><a xlink:href="structLibBoard_1_1GouraudTriangle.html" target="_top" xlink:title="A triangle with shaded filling according to colors given for each vertex.">
<polygon fill="white" stroke="black" points="0,-67.5 0,-86.5 145,-86.5 145,-67.5 0,-67.5"/>
<text text-anchor="middle" x="72.5" y="-74.5" font-family="FreeSans" font-size="10.00">LibBoard::GouraudTriangle</text>
</a>
</g>
</g>
<!-- Node1&#45;&gt;Node3 -->
<g id="edge2" class="edge">
<title>Node1&#45;&gt;Node3</title>
<path fill="none" stroke="midnightblue" d="M187.35,-119.91C159.53,-109.75 120.48,-95.51 95.84,-86.52"/>
<polygon fill="midnightblue" stroke="midnightblue" points="186.46,-123.3 197.05,-123.44 188.85,-116.73 186.46,-123.3"/>
</g>
<!-- Node4 -->
<g id="node4" class="node">
<title>Node4</title>
<g id="a_node4"><a xlink:href="structLibBoard_1_1Rectangle.html" target="_top" xlink:title="A rectangle.">
<polygon fill="white" stroke="black" points="163.5,-67.5 163.5,-86.5 277.5,-86.5 277.5,-67.5 163.5,-67.5"/>
<text text-anchor="middle" x="220.5" y="-74.5" font-family="FreeSans" font-size="10.00">LibBoard::Rectangle</text>
</a>
</g>
</g>
<!-- Node1&#45;&gt;Node4 -->
<g id="edge3" class="edge">
<title>Node1&#45;&gt;Node4</title>
<path fill="none" stroke="midnightblue" d="M220.5,-112.8C220.5,-103.91 220.5,-93.78 220.5,-86.75"/>
<polygon fill="midnightblue" stroke="midnightblue" points="217,-113.08 220.5,-123.08 224,-113.08 217,-113.08"/>
</g>
<!-- Node6 -->
<g id="node6" class="node">
<title>Node6</title>
<g id="a_node6"><a xlink:href="structLibBoard_1_1Triangle.html" target="_top" xlink:title="A triangle. Basically a Polyline with a convenient constructor.">
<polygon fill="white" stroke="black" points="300.5,-67.5 300.5,-86.5 404.5,-86.5 404.5,-67.5 300.5,-67.5"/>
<text text-anchor="middle" x="352.5" y="-74.5" font-family="FreeSans" font-size="10.00">LibBoard::Triangle</text>
</a>
</g>
</g>
<!-- Node1&#45;&gt;Node6 -->
<g id="edge5" class="edge">
<title>Node1&#45;&gt;Node6</title>
<path fill="none" stroke="midnightblue" d="M250.72,-119.64C275.49,-109.5 309.9,-95.43 331.68,-86.52"/>
<polygon fill="midnightblue" stroke="midnightblue" points="249.35,-116.42 241.42,-123.44 252,-122.9 249.35,-116.42"/>
</g>
<!-- Node2 -->
<g id="node2" class="node">
<title>Node2</title>
<g id="a_node2"><a xlink:href="structLibBoard_1_1Shape.html" target="_top" xlink:title="Abstract structure for a 2D shape.">
<polygon fill="white" stroke="black" points="173,-179.5 173,-198.5 268,-198.5 268,-179.5 173,-179.5"/>
<text text-anchor="middle" x="220.5" y="-186.5" font-family="FreeSans" font-size="10.00">LibBoard::Shape</text>
</a>
</g>
</g>
<!-- Node2&#45;&gt;Node1 -->
<g id="edge1" class="edge">
<title>Node2&#45;&gt;Node1</title>
<path fill="none" stroke="midnightblue" d="M220.5,-168.8C220.5,-159.91 220.5,-149.78 220.5,-142.75"/>
<polygon fill="midnightblue" stroke="midnightblue" points="217,-169.08 220.5,-179.08 224,-169.08 217,-169.08"/>
</g>
<!-- Node5 -->
<g id="node5" class="node">
<title>Node5</title>
<g id="a_node5"><a xlink:href="structLibBoard_1_1Image.html" target="_top" xlink:title="Used to draw image in figure.">
<polygon fill="white" stroke="black" points="169.5,-6 169.5,-25 265.5,-25 265.5,-6 169.5,-6"/>
<text text-anchor="middle" x="217.5" y="-13" font-family="FreeSans" font-size="10.00">LibBoard::Image</text>
</a>
</g>
</g>
<!-- Node4&#45;&gt;Node5 -->
<g id="edge4" class="edge">
<title>Node4&#45;&gt;Node5</title>
<path fill="none" stroke="midnightblue" d="M219.56,-57.32C219.01,-46.5 218.35,-33.4 217.93,-25.01"/>
<polygon fill="midnightblue" stroke="midnightblue" points="216.07,-57.66 220.07,-67.48 223.06,-57.31 216.07,-57.66"/>
</g>
<!-- Node7 -->
<g id="node7" class="node">
<title>Node7</title>
<g id="a_node7"><a xlink:href="structLibBoard_1_1QuadraticBezierCurve.html" target="_top" xlink:title="A quadratic Bezier curve having 3 control points. NB. It is also a parabola arc.">
<polygon fill="white" stroke="black" points="284,-0.5 284,-30.5 427,-30.5 427,-0.5 284,-0.5"/>
<text text-anchor="start" x="292" y="-18.5" font-family="FreeSans" font-size="10.00">LibBoard::QuadraticBezier</text>
<text text-anchor="middle" x="355.5" y="-7.5" font-family="FreeSans" font-size="10.00">Curve</text>
</a>
</g>
</g>
<!-- Node6&#45;&gt;Node7 -->
<g id="edge6" class="edge">
<title>Node6&#45;&gt;Node7</title>
<path fill="none" stroke="midnightblue" d="M353.45,-57.23C353.88,-48.59 354.39,-38.5 354.79,-30.52"/>
<polygon fill="midnightblue" stroke="midnightblue" points="349.94,-57.31 352.93,-67.48 356.93,-57.66 349.94,-57.31"/>
</g>
</g>
</svg>
