<?xml version="1.0" encoding="UTF-8" standalone="no"?>
<!DOCTYPE svg PUBLIC "-//W3C//DTD SVG 1.1//EN"
 "http://www.w3.org/Graphics/SVG/1.1/DTD/svg11.dtd">
<!-- Generated by graphviz version 2.43.0 (0)
 -->
<!-- Title: DGtal::ConvexHullCommonKernel&lt; dim, TCoordinateInteger, TInternalInteger &gt; Pages: 1 -->
<svg width="736pt" height="230pt"
 viewBox="0.00 0.00 736.00 230.00" xmlns="http://www.w3.org/2000/svg" xmlns:xlink="http://www.w3.org/1999/xlink">
<g id="graph0" class="graph" transform="scale(1 1) rotate(0) translate(4 226)">
<title>DGtal::ConvexHullCommonKernel&lt; dim, TCoordinateInteger, TInternalInteger &gt;</title>
<polygon fill="white" stroke="transparent" points="-4,4 -4,-226 732,-226 732,4 -4,4"/>
<!-- Node1 -->
<g id="node1" class="node">
<title>Node1</title>
<g id="a_node1"><a xlink:title="Aim: the common part of all geometric kernels for computing the convex hull or Delaunay triangulation...">
<polygon fill="#bfbfbf" stroke="black" points="0,-89.5 0,-130.5 182,-130.5 182,-89.5 0,-89.5"/>
<text text-anchor="start" x="8" y="-118.5" font-family="FreeSans" font-size="10.00">DGtal::ConvexHullCommonKernel</text>
<text text-anchor="start" x="8" y="-107.5" font-family="FreeSans" font-size="10.00">&lt; dim, TCoordinateInteger,</text>
<text text-anchor="middle" x="91" y="-96.5" font-family="FreeSans" font-size="10.00"> TInternalInteger &gt;</text>
</a>
</g>
</g>
<!-- Node2 -->
<g id="node2" class="node">
<title>Node2</title>
<g id="a_node2"><a xlink:href="structDGtal_1_1ConvexHullCommonKernel.html" target="_top" xlink:title=" ">
<polygon fill="white" stroke="black" points="330,-120.5 330,-161.5 512,-161.5 512,-120.5 330,-120.5"/>
<text text-anchor="start" x="338" y="-149.5" font-family="FreeSans" font-size="10.00">DGtal::ConvexHullCommonKernel</text>
<text text-anchor="start" x="338" y="-138.5" font-family="FreeSans" font-size="10.00">&lt; dim+1, DGtal::int64_t,</text>
<text text-anchor="middle" x="421" y="-127.5" font-family="FreeSans" font-size="10.00"> DGtal::int64_t &gt;</text>
</a>
</g>
</g>
<!-- Node1&#45;&gt;Node2 -->
<g id="edge1" class="edge">
<title>Node1&#45;&gt;Node2</title>
<path fill="none" stroke="orange" stroke-dasharray="5,2" d="M192.18,-119.47C236.07,-123.62 287.18,-128.45 329.86,-132.48"/>
<polygon fill="orange" stroke="orange" points="192.35,-115.97 182.06,-118.51 191.69,-122.94 192.35,-115.97"/>
<text text-anchor="start" x="200" y="-144" font-family="FreeSans" font-size="10.00"> &lt; dim+1, DGtal::int64</text>
<text text-anchor="middle" x="256" y="-133" font-family="FreeSans" font-size="10.00">_t, DGtal::int64_t &gt;</text>
</g>
<!-- Node5 -->
<g id="node5" class="node">
<title>Node5</title>
<g id="a_node5"><a xlink:href="structDGtal_1_1ConvexHullCommonKernel.html" target="_top" xlink:title=" ">
<polygon fill="white" stroke="black" points="330,-60.5 330,-101.5 512,-101.5 512,-60.5 330,-60.5"/>
<text text-anchor="start" x="338" y="-89.5" font-family="FreeSans" font-size="10.00">DGtal::ConvexHullCommonKernel</text>
<text text-anchor="start" x="338" y="-78.5" font-family="FreeSans" font-size="10.00">&lt; dim, DGtal::int64_t, DGtal</text>
<text text-anchor="middle" x="421" y="-67.5" font-family="FreeSans" font-size="10.00">::int64_t &gt;</text>
</a>
</g>
</g>
<!-- Node1&#45;&gt;Node5 -->
<g id="edge4" class="edge">
<title>Node1&#45;&gt;Node5</title>
<path fill="none" stroke="orange" stroke-dasharray="5,2" d="M192.23,-93.87C194.85,-93.56 197.44,-93.27 200,-93 242.6,-88.5 290.04,-85.64 329.92,-83.84"/>
<polygon fill="orange" stroke="orange" points="191.57,-90.42 182.07,-95.12 192.43,-97.37 191.57,-90.42"/>
<text text-anchor="start" x="207" y="-107" font-family="FreeSans" font-size="10.00"> &lt; dim, DGtal::int64</text>
<text text-anchor="middle" x="256" y="-96" font-family="FreeSans" font-size="10.00">_t, DGtal::int64_t &gt;</text>
</g>
<!-- Node3 -->
<g id="node3" class="node">
<title>Node3</title>
<g id="a_node3"><a xlink:href="structDGtal_1_1DelaunayIntegralKernel.html" target="_top" xlink:title="Aim: a geometric kernel to compute the Delaunay triangulation of digital points with integer&#45;only ari...">
<polygon fill="white" stroke="black" points="556,-180.5 556,-221.5 721,-221.5 721,-180.5 556,-180.5"/>
<text text-anchor="start" x="564" y="-209.5" font-family="FreeSans" font-size="10.00">DGtal::DelaunayIntegralKernel</text>
<text text-anchor="start" x="564" y="-198.5" font-family="FreeSans" font-size="10.00">&lt; dim, TCoordinateInteger,</text>
<text text-anchor="middle" x="638.5" y="-187.5" font-family="FreeSans" font-size="10.00"> TInternalInteger &gt;</text>
</a>
</g>
</g>
<!-- Node2&#45;&gt;Node3 -->
<g id="edge2" class="edge">
<title>Node2&#45;&gt;Node3</title>
<path fill="none" stroke="midnightblue" d="M505.75,-164.32C524.88,-169.64 545.06,-175.26 563.74,-180.46"/>
<polygon fill="midnightblue" stroke="midnightblue" points="506.43,-160.88 495.86,-161.56 504.56,-167.62 506.43,-160.88"/>
</g>
<!-- Node4 -->
<g id="node4" class="node">
<title>Node4</title>
<g id="a_node4"><a xlink:href="structDGtal_1_1DelaunayRationalKernel.html" target="_top" xlink:title="Aim: a geometric kernel to compute the Delaunay triangulation of a range of floating points with inte...">
<polygon fill="white" stroke="black" points="554.5,-120.5 554.5,-161.5 722.5,-161.5 722.5,-120.5 554.5,-120.5"/>
<text text-anchor="start" x="562.5" y="-149.5" font-family="FreeSans" font-size="10.00">DGtal::DelaunayRationalKernel</text>
<text text-anchor="start" x="562.5" y="-138.5" font-family="FreeSans" font-size="10.00">&lt; dim, TCoordinateInteger,</text>
<text text-anchor="middle" x="638.5" y="-127.5" font-family="FreeSans" font-size="10.00"> TInternalInteger &gt;</text>
</a>
</g>
</g>
<!-- Node2&#45;&gt;Node4 -->
<g id="edge3" class="edge">
<title>Node2&#45;&gt;Node4</title>
<path fill="none" stroke="midnightblue" d="M522.34,-141C533.02,-141 543.8,-141 554.25,-141"/>
<polygon fill="midnightblue" stroke="midnightblue" points="522.14,-137.5 512.14,-141 522.14,-144.5 522.14,-137.5"/>
</g>
<!-- Node6 -->
<g id="node6" class="node">
<title>Node6</title>
<g id="a_node6"><a xlink:href="structDGtal_1_1ConvexHullIntegralKernel.html" target="_top" xlink:title="Aim: a geometric kernel to compute the convex hull of digital points with integer&#45;only arithmetic.">
<polygon fill="white" stroke="black" points="549,-60.5 549,-101.5 728,-101.5 728,-60.5 549,-60.5"/>
<text text-anchor="start" x="557" y="-89.5" font-family="FreeSans" font-size="10.00">DGtal::ConvexHullIntegral</text>
<text text-anchor="start" x="557" y="-78.5" font-family="FreeSans" font-size="10.00">Kernel&lt; dim, TCoordinateInteger,</text>
<text text-anchor="middle" x="638.5" y="-67.5" font-family="FreeSans" font-size="10.00"> TInternalInteger &gt;</text>
</a>
</g>
</g>
<!-- Node5&#45;&gt;Node6 -->
<g id="edge5" class="edge">
<title>Node5&#45;&gt;Node6</title>
<path fill="none" stroke="midnightblue" d="M522.42,-81C531.21,-81 540.07,-81 548.75,-81"/>
<polygon fill="midnightblue" stroke="midnightblue" points="522.14,-77.5 512.14,-81 522.14,-84.5 522.14,-77.5"/>
</g>
<!-- Node7 -->
<g id="node7" class="node">
<title>Node7</title>
<g id="a_node7"><a xlink:href="structDGtal_1_1ConvexHullRationalKernel.html" target="_top" xlink:title="Aim: a geometric kernel to compute the convex hull of floating points with integer&#45;only arithmetic....">
<polygon fill="white" stroke="black" points="549,-0.5 549,-41.5 728,-41.5 728,-0.5 549,-0.5"/>
<text text-anchor="start" x="557" y="-29.5" font-family="FreeSans" font-size="10.00">DGtal::ConvexHullRational</text>
<text text-anchor="start" x="557" y="-18.5" font-family="FreeSans" font-size="10.00">Kernel&lt; dim, TCoordinateInteger,</text>
<text text-anchor="middle" x="638.5" y="-7.5" font-family="FreeSans" font-size="10.00"> TInternalInteger &gt;</text>
</a>
</g>
</g>
<!-- Node5&#45;&gt;Node7 -->
<g id="edge6" class="edge">
<title>Node5&#45;&gt;Node7</title>
<path fill="none" stroke="midnightblue" d="M505.75,-57.68C524.88,-52.36 545.06,-46.74 563.74,-41.54"/>
<polygon fill="midnightblue" stroke="midnightblue" points="504.56,-54.38 495.86,-60.44 506.43,-61.12 504.56,-54.38"/>
</g>
</g>
</svg>
