<?xml version="1.0" encoding="UTF-8" standalone="no"?>
<!DOCTYPE svg PUBLIC "-//W3C//DTD SVG 1.1//EN"
 "http://www.w3.org/Graphics/SVG/1.1/DTD/svg11.dtd">
<!-- Generated by graphviz version 2.43.0 (0)
 -->
<!-- Title: DGtal::concepts::CDenseVector&lt; T &gt; Pages: 1 -->
<svg width="205pt" height="207pt"
 viewBox="0.00 0.00 205.00 207.00" xmlns="http://www.w3.org/2000/svg" xmlns:xlink="http://www.w3.org/1999/xlink">
<g id="graph0" class="graph" transform="scale(1 1) rotate(0) translate(4 203)">
<title>DGtal::concepts::CDenseVector&lt; T &gt;</title>
<polygon fill="white" stroke="transparent" points="-4,4 -4,-203 201,-203 201,4 -4,4"/>
<!-- Node1 -->
<g id="node1" class="node">
<title>Node1</title>
<g id="a_node1"><a xlink:title="Aim: Represent any dynamic or static sized matrix having dense representation.">
<polygon fill="#bfbfbf" stroke="black" points="0,-0.5 0,-19.5 197,-19.5 197,-0.5 0,-0.5"/>
<text text-anchor="middle" x="98.5" y="-7.5" font-family="FreeSans" font-size="10.00">DGtal::concepts::CDenseVector&lt; T &gt;</text>
</a>
</g>
</g>
<!-- Node2 -->
<g id="node2" class="node">
<title>Node2</title>
<g id="a_node2"><a xlink:href="structDGtal_1_1concepts_1_1CVector.html" target="_top" xlink:title="Aim: Represent any static or dynamic sized column vector having sparse or dense representation.">
<polygon fill="white" stroke="black" points="15.5,-56.5 15.5,-75.5 181.5,-75.5 181.5,-56.5 15.5,-56.5"/>
<text text-anchor="middle" x="98.5" y="-63.5" font-family="FreeSans" font-size="10.00">DGtal::concepts::CVector&lt; T &gt;</text>
</a>
</g>
</g>
<!-- Node2&#45;&gt;Node1 -->
<g id="edge1" class="edge">
<title>Node2&#45;&gt;Node1</title>
<path fill="none" stroke="midnightblue" d="M98.5,-45.8C98.5,-36.91 98.5,-26.78 98.5,-19.75"/>
<polygon fill="midnightblue" stroke="midnightblue" points="95,-46.08 98.5,-56.08 102,-46.08 95,-46.08"/>
</g>
<!-- Node3 -->
<g id="node3" class="node">
<title>Node3</title>
<g id="a_node3"><a xlink:href="structDGtal_1_1concepts_1_1CVectorSpace.html" target="_top" xlink:title="Aim: Base concept for vector space structure.">
<polygon fill="white" stroke="black" points="30,-112.5 30,-142.5 167,-142.5 167,-112.5 30,-112.5"/>
<text text-anchor="start" x="38" y="-130.5" font-family="FreeSans" font-size="10.00">DGtal::concepts::CVector</text>
<text text-anchor="middle" x="98.5" y="-119.5" font-family="FreeSans" font-size="10.00">Space&lt; T &gt;</text>
</a>
</g>
</g>
<!-- Node3&#45;&gt;Node2 -->
<g id="edge2" class="edge">
<title>Node3&#45;&gt;Node2</title>
<path fill="none" stroke="midnightblue" d="M98.5,-102.29C98.5,-92.86 98.5,-82.65 98.5,-75.66"/>
<polygon fill="midnightblue" stroke="midnightblue" points="95,-102.4 98.5,-112.4 102,-102.4 95,-102.4"/>
</g>
<!-- Node4 -->
<g id="node4" class="node">
<title>Node4</title>
<g id="a_node4"><a xlink:href="structboost_1_1Assignable.html" target="_top" xlink:title="Go to http://www.sgi.com/tech/stl/Assignable.html.">
<polygon fill="white" stroke="black" points="33,-179.5 33,-198.5 164,-198.5 164,-179.5 33,-179.5"/>
<text text-anchor="middle" x="98.5" y="-186.5" font-family="FreeSans" font-size="10.00">boost::Assignable&lt; T &gt;</text>
</a>
</g>
</g>
<!-- Node4&#45;&gt;Node3 -->
<g id="edge3" class="edge">
<title>Node4&#45;&gt;Node3</title>
<path fill="none" stroke="midnightblue" d="M98.5,-169.23C98.5,-160.59 98.5,-150.5 98.5,-142.52"/>
<polygon fill="midnightblue" stroke="midnightblue" points="95,-169.48 98.5,-179.48 102,-169.48 95,-169.48"/>
</g>
</g>
</svg>
