<?xml version="1.0" encoding="UTF-8" standalone="no"?>
<!DOCTYPE svg PUBLIC "-//W3C//DTD SVG 1.1//EN"
 "http://www.w3.org/Graphics/SVG/1.1/DTD/svg11.dtd">
<!-- Generated by graphviz version 2.43.0 (0)
 -->
<!-- Title: DGtal::SimpleAssociativeCategory Pages: 1 -->
<svg width="722pt" height="176pt"
 viewBox="0.00 0.00 722.00 176.00" xmlns="http://www.w3.org/2000/svg" xmlns:xlink="http://www.w3.org/1999/xlink">
<g id="graph0" class="graph" transform="scale(1 1) rotate(0) translate(4 172)">
<title>DGtal::SimpleAssociativeCategory</title>
<polygon fill="white" stroke="transparent" points="-4,4 -4,-172 718,-172 718,4 -4,4"/>
<!-- Node1 -->
<g id="node1" class="node">
<title>Node1</title>
<g id="a_node1"><a xlink:title=" ">
<polygon fill="#bfbfbf" stroke="black" points="365,-71.5 365,-101.5 505,-101.5 505,-71.5 365,-71.5"/>
<text text-anchor="start" x="373" y="-89.5" font-family="FreeSans" font-size="10.00">DGtal::SimpleAssociative</text>
<text text-anchor="middle" x="435" y="-78.5" font-family="FreeSans" font-size="10.00">Category</text>
</a>
</g>
</g>
<!-- Node4 -->
<g id="node4" class="node">
<title>Node4</title>
<g id="a_node4"><a xlink:href="structDGtal_1_1MultisetAssociativeCategory.html" target="_top" xlink:title=" ">
<polygon fill="white" stroke="black" points="554.5,-137.5 554.5,-167.5 700.5,-167.5 700.5,-137.5 554.5,-137.5"/>
<text text-anchor="start" x="562.5" y="-155.5" font-family="FreeSans" font-size="10.00">DGtal::MultisetAssociative</text>
<text text-anchor="middle" x="627.5" y="-144.5" font-family="FreeSans" font-size="10.00">Category</text>
</a>
</g>
</g>
<!-- Node1&#45;&gt;Node4 -->
<g id="edge3" class="edge">
<title>Node1&#45;&gt;Node4</title>
<path fill="none" stroke="midnightblue" d="M481.45,-105.25C499.81,-112.56 521.28,-120.78 541,-127.5 551.1,-130.94 561.97,-134.34 572.45,-137.48"/>
<polygon fill="midnightblue" stroke="midnightblue" points="482.74,-102 472.16,-101.52 480.13,-108.5 482.74,-102"/>
</g>
<!-- Node5 -->
<g id="node5" class="node">
<title>Node5</title>
<g id="a_node5"><a xlink:href="structDGtal_1_1SetAssociativeCategory.html" target="_top" xlink:title=" ">
<polygon fill="white" stroke="black" points="544,-99 544,-118 711,-118 711,-99 544,-99"/>
<text text-anchor="middle" x="627.5" y="-106" font-family="FreeSans" font-size="10.00">DGtal::SetAssociativeCategory</text>
</a>
</g>
</g>
<!-- Node1&#45;&gt;Node5 -->
<g id="edge4" class="edge">
<title>Node1&#45;&gt;Node5</title>
<path fill="none" stroke="midnightblue" d="M515.26,-95.65C524.78,-96.75 534.51,-97.88 544.07,-98.98"/>
<polygon fill="midnightblue" stroke="midnightblue" points="515.38,-92.14 505.04,-94.47 514.58,-99.1 515.38,-92.14"/>
</g>
<!-- Node6 -->
<g id="node6" class="node">
<title>Node6</title>
<g id="a_node6"><a xlink:href="structDGtal_1_1UnorderedMultisetAssociativeCategory.html" target="_top" xlink:title=" ">
<polygon fill="white" stroke="black" points="557,-49.5 557,-79.5 698,-79.5 698,-49.5 557,-49.5"/>
<text text-anchor="start" x="565" y="-67.5" font-family="FreeSans" font-size="10.00">DGtal::UnorderedMultiset</text>
<text text-anchor="middle" x="627.5" y="-56.5" font-family="FreeSans" font-size="10.00">AssociativeCategory</text>
</a>
</g>
</g>
<!-- Node1&#45;&gt;Node6 -->
<g id="edge5" class="edge">
<title>Node1&#45;&gt;Node6</title>
<path fill="none" stroke="midnightblue" d="M515.02,-77.37C528.86,-75.78 543.17,-74.12 556.73,-72.56"/>
<polygon fill="midnightblue" stroke="midnightblue" points="514.58,-73.9 505.04,-78.53 515.38,-80.86 514.58,-73.9"/>
</g>
<!-- Node7 -->
<g id="node7" class="node">
<title>Node7</title>
<g id="a_node7"><a xlink:href="structDGtal_1_1UnorderedSetAssociativeCategory.html" target="_top" xlink:title=" ">
<polygon fill="white" stroke="black" points="541,-0.5 541,-30.5 714,-30.5 714,-0.5 541,-0.5"/>
<text text-anchor="start" x="549" y="-18.5" font-family="FreeSans" font-size="10.00">DGtal::UnorderedSetAssociative</text>
<text text-anchor="middle" x="627.5" y="-7.5" font-family="FreeSans" font-size="10.00">Category</text>
</a>
</g>
</g>
<!-- Node1&#45;&gt;Node7 -->
<g id="edge6" class="edge">
<title>Node1&#45;&gt;Node7</title>
<path fill="none" stroke="midnightblue" d="M475.88,-66.98C495.26,-57.93 519.05,-47.44 541,-39.5 549.7,-36.35 559.02,-33.36 568.18,-30.63"/>
<polygon fill="midnightblue" stroke="midnightblue" points="474.3,-63.86 466.75,-71.29 477.29,-70.19 474.3,-63.86"/>
</g>
<!-- Node2 -->
<g id="node2" class="node">
<title>Node2</title>
<g id="a_node2"><a xlink:href="structDGtal_1_1AssociativeCategory.html" target="_top" xlink:title=" ">
<polygon fill="white" stroke="black" points="178,-77 178,-96 329,-96 329,-77 178,-77"/>
<text text-anchor="middle" x="253.5" y="-84" font-family="FreeSans" font-size="10.00">DGtal::AssociativeCategory</text>
</a>
</g>
</g>
<!-- Node2&#45;&gt;Node1 -->
<g id="edge1" class="edge">
<title>Node2&#45;&gt;Node1</title>
<path fill="none" stroke="midnightblue" d="M339.13,-86.5C347.74,-86.5 356.42,-86.5 364.84,-86.5"/>
<polygon fill="midnightblue" stroke="midnightblue" points="339.06,-83 329.06,-86.5 339.06,-90 339.06,-83"/>
</g>
<!-- Node3 -->
<g id="node3" class="node">
<title>Node3</title>
<g id="a_node3"><a xlink:href="structDGtal_1_1ContainerCategory.html" target="_top" xlink:title=" ">
<polygon fill="white" stroke="black" points="0,-77 0,-96 142,-96 142,-77 0,-77"/>
<text text-anchor="middle" x="71" y="-84" font-family="FreeSans" font-size="10.00">DGtal::ContainerCategory</text>
</a>
</g>
</g>
<!-- Node3&#45;&gt;Node2 -->
<g id="edge2" class="edge">
<title>Node3&#45;&gt;Node2</title>
<path fill="none" stroke="midnightblue" d="M152.28,-86.5C160.74,-86.5 169.32,-86.5 177.71,-86.5"/>
<polygon fill="midnightblue" stroke="midnightblue" points="152.04,-83 142.04,-86.5 152.04,-90 152.04,-83"/>
</g>
</g>
</svg>
