<?xml version="1.0" encoding="UTF-8" standalone="no"?>
<!DOCTYPE svg PUBLIC "-//W3C//DTD SVG 1.1//EN"
 "http://www.w3.org/Graphics/SVG/1.1/DTD/svg11.dtd">
<!-- Generated by graphviz version 2.43.0 (0)
 -->
<!-- Title: DGtal::COBANaivePlaneComputer&lt; TSpace, TInternalInteger &gt; Pages: 1 -->
<svg width="541pt" height="88pt"
 viewBox="0.00 0.00 541.00 88.00" xmlns="http://www.w3.org/2000/svg" xmlns:xlink="http://www.w3.org/1999/xlink">
<g id="graph0" class="graph" transform="scale(1 1) rotate(0) translate(4 84)">
<title>DGtal::COBANaivePlaneComputer&lt; TSpace, TInternalInteger &gt;</title>
<polygon fill="white" stroke="transparent" points="-4,4 -4,-84 537,-84 537,4 -4,4"/>
<!-- Node1 -->
<g id="node1" class="node">
<title>Node1</title>
<g id="a_node1"><a xlink:title="Aim: A class that contains the COBA algorithm (Emilie Charrier, Lilian Buzer, DGCI2008) for recognizi...">
<polygon fill="#bfbfbf" stroke="black" points="0,-24.5 0,-54.5 182,-54.5 182,-24.5 0,-24.5"/>
<text text-anchor="start" x="8" y="-42.5" font-family="FreeSans" font-size="10.00">DGtal::COBANaivePlaneComputer</text>
<text text-anchor="middle" x="91" y="-31.5" font-family="FreeSans" font-size="10.00">&lt; TSpace, TInternalInteger &gt;</text>
</a>
</g>
</g>
<!-- Node2 -->
<g id="node2" class="node">
<title>Node2</title>
<g id="a_node2"><a xlink:href="classDGtal_1_1COBANaivePlaneComputer.html" target="_top" xlink:title=" ">
<polygon fill="white" stroke="black" points="351,-49.5 351,-79.5 533,-79.5 533,-49.5 351,-49.5"/>
<text text-anchor="start" x="359" y="-67.5" font-family="FreeSans" font-size="10.00">DGtal::COBANaivePlaneComputer</text>
<text text-anchor="middle" x="442" y="-56.5" font-family="FreeSans" font-size="10.00">&lt; Z3, InternalInteger &gt;</text>
</a>
</g>
</g>
<!-- Node1&#45;&gt;Node2 -->
<g id="edge1" class="edge">
<title>Node1&#45;&gt;Node2</title>
<path fill="none" stroke="orange" stroke-dasharray="5,2" d="M192.5,-46.7C242.44,-50.28 302.29,-54.56 350.75,-58.03"/>
<polygon fill="orange" stroke="orange" points="192.55,-43.19 182.33,-45.97 192.05,-50.18 192.55,-43.19"/>
<text text-anchor="middle" x="266.5" y="-58.5" font-family="FreeSans" font-size="10.00"> &lt; Z3, InternalInteger &gt;</text>
</g>
<!-- Node3 -->
<g id="node3" class="node">
<title>Node3</title>
<g id="a_node3"><a xlink:href="classDGtal_1_1COBANaivePlaneComputer.html" target="_top" xlink:title=" ">
<polygon fill="white" stroke="black" points="351,-0.5 351,-30.5 533,-30.5 533,-0.5 351,-0.5"/>
<text text-anchor="start" x="359" y="-18.5" font-family="FreeSans" font-size="10.00">DGtal::COBANaivePlaneComputer</text>
<text text-anchor="middle" x="442" y="-7.5" font-family="FreeSans" font-size="10.00">&lt; Space, InternalInteger &gt;</text>
</a>
</g>
</g>
<!-- Node1&#45;&gt;Node3 -->
<g id="edge2" class="edge">
<title>Node1&#45;&gt;Node3</title>
<path fill="none" stroke="orange" stroke-dasharray="5,2" d="M192.28,-32.05C194.88,-31.86 197.46,-31.68 200,-31.5 249.88,-28 305.59,-24.29 350.86,-21.32"/>
<polygon fill="orange" stroke="orange" points="191.88,-28.56 182.16,-32.77 192.38,-35.55 191.88,-28.56"/>
<text text-anchor="middle" x="266.5" y="-34.5" font-family="FreeSans" font-size="10.00"> &lt; Space, InternalInteger &gt;</text>
</g>
</g>
</svg>
