<?xml version="1.0" encoding="UTF-8" standalone="no"?>
<!DOCTYPE svg PUBLIC "-//W3C//DTD SVG 1.1//EN"
 "http://www.w3.org/Graphics/SVG/1.1/DTD/svg11.dtd">
<!-- Generated by graphviz version 2.43.0 (0)
 -->
<!-- Title: DGtal::TimeStampMemoizer&lt; TKey, TValue &gt; Pages: 1 -->
<svg width="204pt" height="117pt"
 viewBox="0.00 0.00 203.50 117.00" xmlns="http://www.w3.org/2000/svg" xmlns:xlink="http://www.w3.org/1999/xlink">
<g id="graph0" class="graph" transform="scale(1 1) rotate(0) translate(4 113)">
<title>DGtal::TimeStampMemoizer&lt; TKey, TValue &gt;</title>
<polygon fill="white" stroke="transparent" points="-4,4 -4,-113 199.5,-113 199.5,4 -4,4"/>
<!-- Node1 -->
<g id="node1" class="node">
<title>Node1</title>
<g id="a_node1"><a xlink:title="Aim: A generic class to store a given maximum number of pairs (key, value). The class tends to memori...">
<polygon fill="#bfbfbf" stroke="black" points="0,-78.5 0,-108.5 155,-108.5 155,-78.5 0,-78.5"/>
<text text-anchor="start" x="8" y="-96.5" font-family="FreeSans" font-size="10.00">DGtal::TimeStampMemoizer</text>
<text text-anchor="middle" x="77.5" y="-85.5" font-family="FreeSans" font-size="10.00">&lt; TKey, TValue &gt;</text>
</a>
</g>
</g>
<!-- Node2 -->
<g id="node2" class="node">
<title>Node2</title>
<g id="a_node2"><a xlink:href="classDGtal_1_1TimeStampMemoizer.html" target="_top" xlink:title=" ">
<polygon fill="white" stroke="black" points="0,-0.5 0,-30.5 155,-30.5 155,-0.5 0,-0.5"/>
<text text-anchor="start" x="8" y="-18.5" font-family="FreeSans" font-size="10.00">DGtal::TimeStampMemoizer</text>
<text text-anchor="middle" x="77.5" y="-7.5" font-family="FreeSans" font-size="10.00">&lt; Configuration, bool &gt;</text>
</a>
</g>
</g>
<!-- Node1&#45;&gt;Node2 -->
<g id="edge1" class="edge">
<title>Node1&#45;&gt;Node2</title>
<path fill="none" stroke="orange" stroke-dasharray="5,2" d="M77.5,-68.09C77.5,-55.76 77.5,-41.22 77.5,-30.73"/>
<polygon fill="orange" stroke="orange" points="74,-68.2 77.5,-78.2 81,-68.21 74,-68.2"/>
<text text-anchor="middle" x="136.5" y="-52" font-family="FreeSans" font-size="10.00"> &lt; Configuration, bool &gt;</text>
</g>
</g>
</svg>
