<?xml version="1.0" encoding="UTF-8" standalone="no"?>
<!DOCTYPE svg PUBLIC "-//W3C//DTD SVG 1.1//EN"
 "http://www.w3.org/Graphics/SVG/1.1/DTD/svg11.dtd">
<!-- Generated by graphviz version 2.43.0 (0)
 -->
<!-- Title: boost::graph_traits&lt; DGtal::Object&lt; TDigitalTopology, TDigitalSet &gt; &gt;::edge_iterator Pages: 1 -->
<svg width="363pt" height="61pt"
 viewBox="0.00 0.00 363.00 61.00" xmlns="http://www.w3.org/2000/svg" xmlns:xlink="http://www.w3.org/1999/xlink">
<g id="graph0" class="graph" transform="scale(1 1) rotate(0) translate(4 57)">
<title>boost::graph_traits&lt; DGtal::Object&lt; TDigitalTopology, TDigitalSet &gt; &gt;::edge_iterator</title>
<polygon fill="white" stroke="transparent" points="-4,4 -4,-57 359,-57 359,4 -4,4"/>
<!-- Node1 -->
<g id="node1" class="node">
<title>Node1</title>
<g id="a_node1"><a xlink:title=" ">
<polygon fill="#bfbfbf" stroke="black" points="166,-6 166,-47 355,-47 355,-6 166,-6"/>
<text text-anchor="start" x="174" y="-35" font-family="FreeSans" font-size="10.00">boost::graph_traits</text>
<text text-anchor="start" x="174" y="-24" font-family="FreeSans" font-size="10.00">&lt; DGtal::Object&lt; TDigitalTopology,</text>
<text text-anchor="middle" x="260.5" y="-13" font-family="FreeSans" font-size="10.00"> TDigitalSet &gt; &gt;::edge_iterator</text>
</a>
</g>
</g>
<!-- Node2 -->
<g id="node2" class="node">
<title>Node2</title>
<g id="a_node2"><a xlink:title=" ">
<polygon fill="white" stroke="#bfbfbf" points="0,-0.5 0,-52.5 130,-52.5 130,-0.5 0,-0.5"/>
<text text-anchor="start" x="8" y="-40.5" font-family="FreeSans" font-size="10.00">boost::iterator_facade</text>
<text text-anchor="start" x="8" y="-29.5" font-family="FreeSans" font-size="10.00">&lt; edge_iterator, Edge,</text>
<text text-anchor="start" x="8" y="-18.5" font-family="FreeSans" font-size="10.00"> forward_traversal_tag,</text>
<text text-anchor="middle" x="65" y="-7.5" font-family="FreeSans" font-size="10.00"> const Edge &amp; &gt;</text>
</a>
</g>
</g>
<!-- Node2&#45;&gt;Node1 -->
<g id="edge1" class="edge">
<title>Node2&#45;&gt;Node1</title>
<path fill="none" stroke="midnightblue" d="M140.24,-26.5C148.61,-26.5 157.22,-26.5 165.8,-26.5"/>
<polygon fill="midnightblue" stroke="midnightblue" points="140.16,-23 130.16,-26.5 140.16,-30 140.16,-23"/>
</g>
</g>
</svg>
