<?xml version="1.0" encoding="UTF-8" standalone="no"?>
<!DOCTYPE svg PUBLIC "-//W3C//DTD SVG 1.1//EN"
 "http://www.w3.org/Graphics/SVG/1.1/DTD/svg11.dtd">
<!-- Generated by graphviz version 2.43.0 (0)
 -->
<!-- Title: DGtal::Astroid2D&lt; TSpace &gt; Pages: 1 -->
<svg width="164pt" height="163pt"
 viewBox="0.00 0.00 164.00 163.00" xmlns="http://www.w3.org/2000/svg" xmlns:xlink="http://www.w3.org/1999/xlink">
<g id="graph0" class="graph" transform="scale(1 1) rotate(0) translate(4 159)">
<title>DGtal::Astroid2D&lt; TSpace &gt;</title>
<polygon fill="white" stroke="transparent" points="-4,4 -4,-159 160,-159 160,4 -4,4"/>
<!-- Node1 -->
<g id="node1" class="node">
<title>Node1</title>
<g id="a_node1"><a xlink:title="Aim: Model of the concept StarShaped represents an astroid.">
<polygon fill="#bfbfbf" stroke="black" points="0,-67.5 0,-86.5 156,-86.5 156,-67.5 0,-67.5"/>
<text text-anchor="middle" x="78" y="-74.5" font-family="FreeSans" font-size="10.00">DGtal::Astroid2D&lt; TSpace &gt;</text>
</a>
</g>
</g>
<!-- Node3 -->
<g id="node3" class="node">
<title>Node3</title>
<g id="a_node3"><a xlink:href="classDGtal_1_1Astroid2D.html" target="_top" xlink:title=" ">
<polygon fill="white" stroke="black" points="3,-0.5 3,-19.5 153,-19.5 153,-0.5 3,-0.5"/>
<text text-anchor="middle" x="78" y="-7.5" font-family="FreeSans" font-size="10.00">DGtal::Astroid2D&lt; Space &gt;</text>
</a>
</g>
</g>
<!-- Node1&#45;&gt;Node3 -->
<g id="edge2" class="edge">
<title>Node1&#45;&gt;Node3</title>
<path fill="none" stroke="orange" stroke-dasharray="5,2" d="M78,-57.04C78,-44.67 78,-29.12 78,-19.63"/>
<polygon fill="orange" stroke="orange" points="74.5,-57.23 78,-67.23 81.5,-57.23 74.5,-57.23"/>
<text text-anchor="middle" x="105.5" y="-41" font-family="FreeSans" font-size="10.00"> &lt; Space &gt;</text>
</g>
<!-- Node2 -->
<g id="node2" class="node">
<title>Node2</title>
<g id="a_node2"><a xlink:href="classDGtal_1_1StarShaped2D.html" target="_top" xlink:title=" ">
<polygon fill="white" stroke="black" points="18.5,-124.5 18.5,-154.5 137.5,-154.5 137.5,-124.5 18.5,-124.5"/>
<text text-anchor="start" x="26.5" y="-142.5" font-family="FreeSans" font-size="10.00">DGtal::StarShaped2D</text>
<text text-anchor="middle" x="78" y="-131.5" font-family="FreeSans" font-size="10.00">&lt; TSpace &gt;</text>
</a>
</g>
</g>
<!-- Node2&#45;&gt;Node1 -->
<g id="edge1" class="edge">
<title>Node2&#45;&gt;Node1</title>
<path fill="none" stroke="midnightblue" d="M78,-114.35C78,-104.51 78,-93.78 78,-86.54"/>
<polygon fill="midnightblue" stroke="midnightblue" points="74.5,-114.47 78,-124.47 81.5,-114.47 74.5,-114.47"/>
</g>
</g>
</svg>
