<?xml version="1.0" encoding="UTF-8" standalone="no"?>
<!DOCTYPE svg PUBLIC "-//W3C//DTD SVG 1.1//EN"
 "http://www.w3.org/Graphics/SVG/1.1/DTD/svg11.dtd">
<!-- Generated by graphviz version 2.43.0 (0)
 -->
<!-- Title: DGtal::MPolynomial&lt; n, TRing, TAlloc &gt; Pages: 1 -->
<svg width="254pt" height="117pt"
 viewBox="0.00 0.00 254.00 117.00" xmlns="http://www.w3.org/2000/svg" xmlns:xlink="http://www.w3.org/1999/xlink">
<g id="graph0" class="graph" transform="scale(1 1) rotate(0) translate(4 113)">
<title>DGtal::MPolynomial&lt; n, TRing, TAlloc &gt;</title>
<polygon fill="white" stroke="transparent" points="-4,4 -4,-113 250,-113 250,4 -4,4"/>
<!-- Node1 -->
<g id="node1" class="node">
<title>Node1</title>
<g id="a_node1"><a xlink:title="Aim: Represents a multivariate polynomial, i.e. an element of , where K is some ring or field.">
<polygon fill="#bfbfbf" stroke="black" points="66,-78.5 66,-108.5 180,-108.5 180,-78.5 66,-78.5"/>
<text text-anchor="start" x="74" y="-96.5" font-family="FreeSans" font-size="10.00">DGtal::MPolynomial</text>
<text text-anchor="middle" x="123" y="-85.5" font-family="FreeSans" font-size="10.00">&lt; n, TRing, TAlloc &gt;</text>
</a>
</g>
</g>
<!-- Node2 -->
<g id="node2" class="node">
<title>Node2</title>
<g id="a_node2"><a xlink:href="classDGtal_1_1MPolynomial.html" target="_top" xlink:title=" ">
<polygon fill="white" stroke="black" points="0,-0.5 0,-30.5 114,-30.5 114,-0.5 0,-0.5"/>
<text text-anchor="start" x="8" y="-18.5" font-family="FreeSans" font-size="10.00">DGtal::MPolynomial</text>
<text text-anchor="middle" x="57" y="-7.5" font-family="FreeSans" font-size="10.00">&lt; n, Ring, Alloc &gt;</text>
</a>
</g>
</g>
<!-- Node1&#45;&gt;Node2 -->
<g id="edge1" class="edge">
<title>Node1&#45;&gt;Node2</title>
<path fill="none" stroke="orange" stroke-dasharray="5,2" d="M90.04,-72.5C85.3,-68.73 80.76,-64.53 77,-60 69.88,-51.43 64.74,-39.92 61.45,-30.89"/>
<polygon fill="orange" stroke="orange" points="87.98,-75.32 98.11,-78.42 92.12,-69.68 87.98,-75.32"/>
<text text-anchor="middle" x="122" y="-52" font-family="FreeSans" font-size="10.00"> &lt; n, Ring, Alloc &gt;</text>
</g>
<!-- Node3 -->
<g id="node3" class="node">
<title>Node3</title>
<g id="a_node3"><a xlink:href="classDGtal_1_1MPolynomial.html" target="_top" xlink:title=" ">
<polygon fill="white" stroke="black" points="132,-0.5 132,-30.5 246,-30.5 246,-0.5 132,-0.5"/>
<text text-anchor="start" x="140" y="-18.5" font-family="FreeSans" font-size="10.00">DGtal::MPolynomial</text>
<text text-anchor="middle" x="189" y="-7.5" font-family="FreeSans" font-size="10.00">&lt; 3, Ring &gt;</text>
</a>
</g>
</g>
<!-- Node1&#45;&gt;Node3 -->
<g id="edge2" class="edge">
<title>Node1&#45;&gt;Node3</title>
<path fill="none" stroke="orange" stroke-dasharray="5,2" d="M154.42,-72.17C158.95,-68.45 163.32,-64.35 167,-60 174.32,-51.34 180,-39.82 183.76,-30.82"/>
<polygon fill="orange" stroke="orange" points="152.02,-69.6 146.18,-78.44 156.26,-75.17 152.02,-69.6"/>
<text text-anchor="middle" x="204" y="-52" font-family="FreeSans" font-size="10.00"> &lt; 3, Ring &gt;</text>
</g>
</g>
</svg>
