<?xml version="1.0" encoding="UTF-8" standalone="no"?>
<!DOCTYPE svg PUBLIC "-//W3C//DTD SVG 1.1//EN"
 "http://www.w3.org/Graphics/SVG/1.1/DTD/svg11.dtd">
<!-- Generated by graphviz version 2.43.0 (0)
 -->
<!-- Title: DGtal::PointVector&lt; dim, TEuclideanRing, TContainer &gt; Pages: 1 -->
<svg width="434pt" height="394pt"
 viewBox="0.00 0.00 434.00 394.00" xmlns="http://www.w3.org/2000/svg" xmlns:xlink="http://www.w3.org/1999/xlink">
<g id="graph0" class="graph" transform="scale(1 1) rotate(0) translate(4 390)">
<title>DGtal::PointVector&lt; dim, TEuclideanRing, TContainer &gt;</title>
<polygon fill="white" stroke="transparent" points="-4,4 -4,-390 430,-390 430,4 -4,4"/>
<!-- Node1 -->
<g id="node1" class="node">
<title>Node1</title>
<g id="a_node1"><a xlink:title="Aim: Implements basic operations that will be used in Point and Vector classes.">
<polygon fill="#bfbfbf" stroke="black" points="0,-166 0,-207 131,-207 131,-166 0,-166"/>
<text text-anchor="start" x="8" y="-195" font-family="FreeSans" font-size="10.00">DGtal::PointVector</text>
<text text-anchor="start" x="8" y="-184" font-family="FreeSans" font-size="10.00">&lt; dim, TEuclideanRing,</text>
<text text-anchor="middle" x="65.5" y="-173" font-family="FreeSans" font-size="10.00"> TContainer &gt;</text>
</a>
</g>
</g>
<!-- Node2 -->
<g id="node2" class="node">
<title>Node2</title>
<g id="a_node2"><a xlink:href="classDGtal_1_1PointVector.html" target="_top" xlink:title=" ">
<polygon fill="white" stroke="black" points="296.5,-355.5 296.5,-385.5 419.5,-385.5 419.5,-355.5 296.5,-355.5"/>
<text text-anchor="start" x="304.5" y="-373.5" font-family="FreeSans" font-size="10.00">DGtal::PointVector</text>
<text text-anchor="middle" x="358" y="-362.5" font-family="FreeSans" font-size="10.00">&lt; 3, InternalInteger &gt;</text>
</a>
</g>
</g>
<!-- Node1&#45;&gt;Node2 -->
<g id="edge1" class="edge">
<title>Node1&#45;&gt;Node2</title>
<path fill="none" stroke="orange" stroke-dasharray="5,2" d="M75.87,-216.71C87.59,-249.28 110.89,-300.14 149,-327.5 191.84,-358.25 251.72,-368.06 296.24,-370.74"/>
<polygon fill="orange" stroke="orange" points="79.17,-215.54 72.6,-207.23 72.55,-217.82 79.17,-215.54"/>
<text text-anchor="middle" x="210.5" y="-371.5" font-family="FreeSans" font-size="10.00"> &lt; 3, InternalInteger &gt;</text>
</g>
<!-- Node3 -->
<g id="node3" class="node">
<title>Node3</title>
<g id="a_node3"><a xlink:href="classDGtal_1_1PointVector.html" target="_top" xlink:title=" ">
<polygon fill="white" stroke="black" points="299.5,-295 299.5,-336 416.5,-336 416.5,-295 299.5,-295"/>
<text text-anchor="start" x="307.5" y="-324" font-family="FreeSans" font-size="10.00">DGtal::PointVector</text>
<text text-anchor="start" x="307.5" y="-313" font-family="FreeSans" font-size="10.00">&lt; Space::dimension,</text>
<text text-anchor="middle" x="358" y="-302" font-family="FreeSans" font-size="10.00"> Real &gt;</text>
</a>
</g>
</g>
<!-- Node1&#45;&gt;Node3 -->
<g id="edge2" class="edge">
<title>Node1&#45;&gt;Node3</title>
<path fill="none" stroke="orange" stroke-dasharray="5,2" d="M91.08,-214.82C106.29,-230.69 127.05,-249.63 149,-261.5 196.09,-286.97 255.74,-300.86 299.08,-308.14"/>
<polygon fill="orange" stroke="orange" points="93.47,-212.24 84.08,-207.32 88.35,-217.02 93.47,-212.24"/>
<text text-anchor="start" x="158.5" y="-315.5" font-family="FreeSans" font-size="10.00"> &lt; Space::dimension,</text>
<text text-anchor="middle" x="210.5" y="-304.5" font-family="FreeSans" font-size="10.00"> Real &gt;</text>
</g>
<!-- Node4 -->
<g id="node4" class="node">
<title>Node4</title>
<g id="a_node4"><a xlink:href="classDGtal_1_1PointVector.html" target="_top" xlink:title=" ">
<polygon fill="white" stroke="black" points="305,-245.5 305,-275.5 411,-275.5 411,-245.5 305,-245.5"/>
<text text-anchor="start" x="313" y="-263.5" font-family="FreeSans" font-size="10.00">DGtal::PointVector</text>
<text text-anchor="middle" x="358" y="-252.5" font-family="FreeSans" font-size="10.00">&lt; 2, Integer &gt;</text>
</a>
</g>
</g>
<!-- Node1&#45;&gt;Node4 -->
<g id="edge3" class="edge">
<title>Node1&#45;&gt;Node4</title>
<path fill="none" stroke="orange" stroke-dasharray="5,2" d="M124.71,-210.49C132.79,-213.41 141.05,-216.17 149,-218.5 201.15,-233.76 262.26,-245.38 304.69,-252.48"/>
<polygon fill="orange" stroke="orange" points="125.92,-207.21 115.32,-207.02 123.48,-213.77 125.92,-207.21"/>
<text text-anchor="middle" x="210.5" y="-249.5" font-family="FreeSans" font-size="10.00"> &lt; 2, Integer &gt;</text>
</g>
<!-- Node5 -->
<g id="node5" class="node">
<title>Node5</title>
<g id="a_node5"><a xlink:href="classDGtal_1_1PointVector.html" target="_top" xlink:title=" ">
<polygon fill="white" stroke="black" points="298.5,-196.5 298.5,-226.5 417.5,-226.5 417.5,-196.5 298.5,-196.5"/>
<text text-anchor="start" x="306.5" y="-214.5" font-family="FreeSans" font-size="10.00">DGtal::PointVector</text>
<text text-anchor="middle" x="358" y="-203.5" font-family="FreeSans" font-size="10.00">&lt; 3, InternalScalar &gt;</text>
</a>
</g>
</g>
<!-- Node1&#45;&gt;Node5 -->
<g id="edge4" class="edge">
<title>Node1&#45;&gt;Node5</title>
<path fill="none" stroke="orange" stroke-dasharray="5,2" d="M141.53,-192.96C190.35,-197.16 253.11,-202.56 298.29,-206.45"/>
<polygon fill="orange" stroke="orange" points="141.6,-189.45 131.33,-192.08 141,-196.42 141.6,-189.45"/>
<text text-anchor="middle" x="210.5" y="-206.5" font-family="FreeSans" font-size="10.00"> &lt; 3, InternalScalar &gt;</text>
</g>
<!-- Node6 -->
<g id="node6" class="node">
<title>Node6</title>
<g id="a_node6"><a xlink:href="classDGtal_1_1PointVector.html" target="_top" xlink:title=" ">
<polygon fill="white" stroke="black" points="305,-147.5 305,-177.5 411,-177.5 411,-147.5 305,-147.5"/>
<text text-anchor="start" x="313" y="-165.5" font-family="FreeSans" font-size="10.00">DGtal::PointVector</text>
<text text-anchor="middle" x="358" y="-154.5" font-family="FreeSans" font-size="10.00">&lt; 2, double &gt;</text>
</a>
</g>
</g>
<!-- Node1&#45;&gt;Node6 -->
<g id="edge5" class="edge">
<title>Node1&#45;&gt;Node6</title>
<path fill="none" stroke="orange" stroke-dasharray="5,2" d="M141.36,-179.17C143.94,-178.94 146.49,-178.72 149,-178.5 202.04,-173.89 262.75,-169.3 304.83,-166.22"/>
<polygon fill="orange" stroke="orange" points="140.98,-175.7 131.34,-180.09 141.62,-182.67 140.98,-175.7"/>
<text text-anchor="middle" x="210.5" y="-181.5" font-family="FreeSans" font-size="10.00"> &lt; 2, double &gt;</text>
</g>
<!-- Node7 -->
<g id="node7" class="node">
<title>Node7</title>
<g id="a_node7"><a xlink:href="classDGtal_1_1PointVector.html" target="_top" xlink:title=" ">
<polygon fill="white" stroke="black" points="305,-98.5 305,-128.5 411,-128.5 411,-98.5 305,-98.5"/>
<text text-anchor="start" x="313" y="-116.5" font-family="FreeSans" font-size="10.00">DGtal::PointVector</text>
<text text-anchor="middle" x="358" y="-105.5" font-family="FreeSans" font-size="10.00">&lt; 3, double &gt;</text>
</a>
</g>
</g>
<!-- Node1&#45;&gt;Node7 -->
<g id="edge6" class="edge">
<title>Node1&#45;&gt;Node7</title>
<path fill="none" stroke="orange" stroke-dasharray="5,2" d="M123.08,-162.23C131.67,-159.02 140.5,-155.99 149,-153.5 201.05,-138.24 262.17,-127.28 304.63,-120.74"/>
<polygon fill="orange" stroke="orange" points="121.59,-159.05 113.51,-165.91 124.1,-165.59 121.59,-159.05"/>
<text text-anchor="middle" x="210.5" y="-156.5" font-family="FreeSans" font-size="10.00"> &lt; 3, double &gt;</text>
</g>
<!-- Node8 -->
<g id="node8" class="node">
<title>Node8</title>
<g id="a_node8"><a xlink:href="classDGtal_1_1PointVector.html" target="_top" xlink:title=" ">
<polygon fill="white" stroke="black" points="305,-49.5 305,-79.5 411,-79.5 411,-49.5 305,-49.5"/>
<text text-anchor="start" x="313" y="-67.5" font-family="FreeSans" font-size="10.00">DGtal::PointVector</text>
<text text-anchor="middle" x="358" y="-56.5" font-family="FreeSans" font-size="10.00">&lt; dim, Integer &gt;</text>
</a>
</g>
</g>
<!-- Node1&#45;&gt;Node8 -->
<g id="edge7" class="edge">
<title>Node1&#45;&gt;Node8</title>
<path fill="none" stroke="orange" stroke-dasharray="5,2" d="M90.25,-158.14C105.43,-141.82 126.45,-122.27 149,-110.5 198.18,-84.83 261.14,-73.45 304.84,-68.43"/>
<polygon fill="orange" stroke="orange" points="87.4,-156.08 83.29,-165.84 92.59,-160.77 87.4,-156.08"/>
<text text-anchor="middle" x="210.5" y="-113.5" font-family="FreeSans" font-size="10.00"> &lt; dim, Integer &gt;</text>
</g>
<!-- Node9 -->
<g id="node9" class="node">
<title>Node9</title>
<g id="a_node9"><a xlink:href="classDGtal_1_1PointVector.html" target="_top" xlink:title=" ">
<polygon fill="white" stroke="black" points="290,-0.5 290,-30.5 426,-30.5 426,-0.5 290,-0.5"/>
<text text-anchor="start" x="298" y="-18.5" font-family="FreeSans" font-size="10.00">DGtal::PointVector</text>
<text text-anchor="middle" x="358" y="-7.5" font-family="FreeSans" font-size="10.00">&lt; dim, InternalInteger &gt;</text>
</a>
</g>
</g>
<!-- Node1&#45;&gt;Node9 -->
<g id="edge8" class="edge">
<title>Node1&#45;&gt;Node9</title>
<path fill="none" stroke="orange" stroke-dasharray="5,2" d="M77.6,-156.28C90.21,-126.37 113.73,-81.66 149,-57.5 190.34,-29.19 246.46,-19.1 289.99,-15.87"/>
<polygon fill="orange" stroke="orange" points="74.26,-155.22 73.75,-165.81 80.74,-157.85 74.26,-155.22"/>
<text text-anchor="middle" x="210.5" y="-60.5" font-family="FreeSans" font-size="10.00"> &lt; dim, InternalInteger &gt;</text>
</g>
</g>
</svg>
