<?xml version="1.0" encoding="UTF-8" standalone="no"?>
<!DOCTYPE svg PUBLIC "-//W3C//DTD SVG 1.1//EN"
 "http://www.w3.org/Graphics/SVG/1.1/DTD/svg11.dtd">
<!-- Generated by graphviz version 2.43.0 (0)
 -->
<!-- Title: DGtal::LambdaMST2DEstimator&lt; TSpace, TSegmentation, Functor &gt; Pages: 1 -->
<svg width="966pt" height="79pt"
 viewBox="0.00 0.00 966.00 78.50" xmlns="http://www.w3.org/2000/svg" xmlns:xlink="http://www.w3.org/1999/xlink">
<g id="graph0" class="graph" transform="scale(1 1) rotate(0) translate(4 74.5)">
<title>DGtal::LambdaMST2DEstimator&lt; TSpace, TSegmentation, Functor &gt;</title>
<polygon fill="white" stroke="transparent" points="-4,4 -4,-74.5 962,-74.5 962,4 -4,4"/>
<!-- Node1 -->
<g id="node1" class="node">
<title>Node1</title>
<g id="a_node1"><a xlink:title=" ">
<polygon fill="#bfbfbf" stroke="black" points="0,-6 0,-47 171,-47 171,-6 0,-6"/>
<text text-anchor="start" x="8" y="-35" font-family="FreeSans" font-size="10.00">DGtal::LambdaMST2DEstimator</text>
<text text-anchor="start" x="8" y="-24" font-family="FreeSans" font-size="10.00">&lt; TSpace, TSegmentation,</text>
<text text-anchor="middle" x="85.5" y="-13" font-family="FreeSans" font-size="10.00"> Functor &gt;</text>
</a>
</g>
</g>
<!-- Node2 -->
<g id="node2" class="node">
<title>Node2</title>
<g id="a_node2"><a xlink:href="classDGtal_1_1LambdaMST2DEstimator.html" target="_top" xlink:title=" ">
<polygon fill="white" stroke="black" points="455,-0.5 455,-52.5 754,-52.5 754,-0.5 455,-0.5"/>
<text text-anchor="start" x="463" y="-40.5" font-family="FreeSans" font-size="10.00">DGtal::LambdaMST2DEstimator</text>
<text text-anchor="start" x="463" y="-29.5" font-family="FreeSans" font-size="10.00">&lt; Z2i::Space, DSSSegmentationComputer,</text>
<text text-anchor="start" x="463" y="-18.5" font-family="FreeSans" font-size="10.00"> TangentFromDSS2DFunctor&lt; DSSSegmentationComputer</text>
<text text-anchor="middle" x="604.5" y="-7.5" font-family="FreeSans" font-size="10.00">::SegmentComputer, functors::Lambda64Function &gt; &gt;</text>
</a>
</g>
</g>
<!-- Node1&#45;&gt;Node2 -->
<g id="edge1" class="edge">
<title>Node1&#45;&gt;Node2</title>
<path fill="none" stroke="orange" stroke-dasharray="5,2" d="M181.11,-26.5C257.65,-26.5 366.81,-26.5 454.98,-26.5"/>
<polygon fill="orange" stroke="orange" points="181,-23 171,-26.5 181,-30 181,-23"/>
<text text-anchor="start" x="189" y="-62.5" font-family="FreeSans" font-size="10.00"> &lt; Z2i::Space, DSSSegmentation</text>
<text text-anchor="start" x="189" y="-51.5" font-family="FreeSans" font-size="10.00">Computer, TangentFromDSS2DFunctor</text>
<text text-anchor="start" x="189" y="-40.5" font-family="FreeSans" font-size="10.00">&lt; DSSSegmentationComputer::SegmentComputer,</text>
<text text-anchor="middle" x="313" y="-29.5" font-family="FreeSans" font-size="10.00"> functors::Lambda64Function &gt; &gt;</text>
</g>
<!-- Node3 -->
<g id="node3" class="node">
<title>Node3</title>
<g id="a_node3"><a xlink:href="classDGtal_1_1LambdaMST2D.html" target="_top" xlink:title="Aim: Simplify creation of Lambda MST tangent estimator.">
<polygon fill="white" stroke="black" points="791,-6 791,-47 958,-47 958,-6 791,-6"/>
<text text-anchor="start" x="799" y="-35" font-family="FreeSans" font-size="10.00">DGtal::LambdaMST2D</text>
<text text-anchor="start" x="799" y="-24" font-family="FreeSans" font-size="10.00">&lt; DSSSegmentationComputer,</text>
<text text-anchor="middle" x="874.5" y="-13" font-family="FreeSans" font-size="10.00"> LambdaFunction &gt;</text>
</a>
</g>
</g>
<!-- Node2&#45;&gt;Node3 -->
<g id="edge2" class="edge">
<title>Node2&#45;&gt;Node3</title>
<path fill="none" stroke="midnightblue" d="M764.26,-26.5C773.29,-26.5 782.17,-26.5 790.72,-26.5"/>
<polygon fill="midnightblue" stroke="midnightblue" points="764,-23 754,-26.5 764,-30 764,-23"/>
</g>
</g>
</svg>
