<?xml version="1.0" encoding="UTF-8" standalone="no"?>
<!DOCTYPE svg PUBLIC "-//W3C//DTD SVG 1.1//EN"
 "http://www.w3.org/Graphics/SVG/1.1/DTD/svg11.dtd">
<!-- Generated by graphviz version 2.43.0 (0)
 -->
<!-- Title: DGtal::MPolynomialEvaluatorImpl&lt; n, TRing, TOwner, TAlloc, TX &gt; Pages: 1 -->
<svg width="520pt" height="88pt"
 viewBox="0.00 0.00 520.00 88.00" xmlns="http://www.w3.org/2000/svg" xmlns:xlink="http://www.w3.org/1999/xlink">
<g id="graph0" class="graph" transform="scale(1 1) rotate(0) translate(4 84)">
<title>DGtal::MPolynomialEvaluatorImpl&lt; n, TRing, TOwner, TAlloc, TX &gt;</title>
<polygon fill="white" stroke="transparent" points="-4,4 -4,-84 516,-84 516,4 -4,4"/>
<!-- Node1 -->
<g id="node1" class="node">
<title>Node1</title>
<g id="a_node1"><a xlink:title=" ">
<polygon fill="#bfbfbf" stroke="black" points="0,-19 0,-60 161,-60 161,-19 0,-19"/>
<text text-anchor="start" x="8" y="-48" font-family="FreeSans" font-size="10.00">DGtal::MPolynomialEvaluator</text>
<text text-anchor="start" x="8" y="-37" font-family="FreeSans" font-size="10.00">Impl&lt; n, TRing, TOwner,</text>
<text text-anchor="middle" x="80.5" y="-26" font-family="FreeSans" font-size="10.00"> TAlloc, TX &gt;</text>
</a>
</g>
</g>
<!-- Node2 -->
<g id="node2" class="node">
<title>Node2</title>
<g id="a_node2"><a xlink:href="classDGtal_1_1MPolynomialEvaluatorImpl.html" target="_top" xlink:title=" ">
<polygon fill="white" stroke="black" points="337,-49.5 337,-79.5 512,-79.5 512,-49.5 337,-49.5"/>
<text text-anchor="start" x="345" y="-67.5" font-family="FreeSans" font-size="10.00">DGtal::MPolynomialEvaluator</text>
<text text-anchor="middle" x="424.5" y="-56.5" font-family="FreeSans" font-size="10.00">Impl&lt; n, Ring, Owner, Alloc, X &gt;</text>
</a>
</g>
</g>
<!-- Node1&#45;&gt;Node2 -->
<g id="edge1" class="edge">
<title>Node1&#45;&gt;Node2</title>
<path fill="none" stroke="orange" stroke-dasharray="5,2" d="M171.3,-46.06C222.41,-49.8 286.12,-54.46 336.72,-58.16"/>
<polygon fill="orange" stroke="orange" points="171.48,-42.57 161.25,-45.33 170.97,-49.55 171.48,-42.57"/>
<text text-anchor="middle" x="249" y="-58.5" font-family="FreeSans" font-size="10.00"> &lt; n, Ring, Owner, Alloc, X &gt;</text>
</g>
<!-- Node3 -->
<g id="node3" class="node">
<title>Node3</title>
<g id="a_node3"><a xlink:href="classDGtal_1_1MPolynomialEvaluatorImpl.html" target="_top" xlink:title=" ">
<polygon fill="white" stroke="black" points="337,-0.5 337,-30.5 512,-30.5 512,-0.5 337,-0.5"/>
<text text-anchor="start" x="345" y="-18.5" font-family="FreeSans" font-size="10.00">DGtal::MPolynomialEvaluator</text>
<text text-anchor="middle" x="424.5" y="-7.5" font-family="FreeSans" font-size="10.00">Impl&lt; 1, Ring, Owner, Alloc, X &gt;</text>
</a>
</g>
</g>
<!-- Node1&#45;&gt;Node3 -->
<g id="edge2" class="edge">
<title>Node1&#45;&gt;Node3</title>
<path fill="none" stroke="orange" stroke-dasharray="5,2" d="M171.23,-32.08C173.85,-31.88 176.44,-31.69 179,-31.5 231.39,-27.64 290.14,-23.78 336.91,-20.82"/>
<polygon fill="orange" stroke="orange" points="170.74,-28.61 161.04,-32.86 171.28,-35.59 170.74,-28.61"/>
<text text-anchor="middle" x="249" y="-34.5" font-family="FreeSans" font-size="10.00"> &lt; 1, Ring, Owner, Alloc, X &gt;</text>
</g>
</g>
</svg>
