<?xml version="1.0" encoding="UTF-8" standalone="no"?>
<!DOCTYPE svg PUBLIC "-//W3C//DTD SVG 1.1//EN"
 "http://www.w3.org/Graphics/SVG/1.1/DTD/svg11.dtd">
<!-- Generated by graphviz version 2.43.0 (0)
 -->
<!-- Title: GKERNEL Pages: 1 -->
<!--zoomable 797 -->
<svg id="main" version="1.1" xmlns="http://www.w3.org/2000/svg" xmlns:xlink="http://www.w3.org/1999/xlink" xml:space="preserve" onload="init(evt)">
<style type="text/css"><![CDATA[
.edge:hover path { stroke: red; }
.edge:hover polygon { stroke: red; fill: red; }
]]></style>
<script type="text/javascript"><![CDATA[
var edges = document.getElementsByTagName('g');
if (edges && edges.length) {
  for (var i=0;i<edges.length;i++) {
    if (edges[i].id.substr(0,4)=='edge') {
      edges[i].setAttribute('class','edge');
    }
  }
}
]]></script>
        <defs>
                <circle id="rim" cx="0" cy="0" r="7"/>
                <circle id="rim2" cx="0" cy="0" r="3.5"/>
                <g id="zoomPlus">
                        <use xlink:href="#rim" fill="#404040">
                                <set attributeName="fill" to="#808080" begin="zoomplus.mouseover" end="zoomplus.mouseout"/>
                        </use>
                        <path d="M-4,0h8M0,-4v8" fill="none" stroke="white" stroke-width="1.5" pointer-events="none"/>
                </g>
                <g id="zoomMin">
                        <use xlink:href="#rim" fill="#404040">
                                <set attributeName="fill" to="#808080" begin="zoomminus.mouseover" end="zoomminus.mouseout"/>
                        </use>
                        <path d="M-4,0h8" fill="none" stroke="white" stroke-width="1.5" pointer-events="none"/>
                </g>
                <g id="dirArrow">
                        <path fill="none" stroke="white" stroke-width="1.5" d="M0,-3.0v7 M-2.5,-0.5L0,-3.0L2.5,-0.5"/>
                </g>
               <g id="resetDef">
                       <use xlink:href="#rim2" fill="#404040">
                               <set attributeName="fill" to="#808080" begin="reset.mouseover" end="reset.mouseout"/>
                       </use>
               </g>
        </defs>

<script type="text/javascript">
var viewWidth = 2309;
var viewHeight = 797;
</script>
<script xlink:href="svgpan.js"/>
<svg id="graph" class="graph">
<g id="viewport">
<title>GKERNEL</title>
<polygon fill="white" stroke="transparent" points="-4,4 -4,-793 2305,-793 2305,4 -4,4"/>
<g id="clust1" class="cluster">
<title>cluster_ext</title>
</g>
<g id="clust2" class="cluster">
<title>cluster_base</title>
<polygon fill="#eeeeff" stroke="#eeeeff" points="1066,-698 1066,-773 1790,-773 1790,-698 1066,-698"/>
<text text-anchor="middle" x="1428" y="-705.8" font-family="Times,serif" font-size="14.00">base</text>
</g>
<g id="clust3" class="cluster">
<title>cluster_boost</title>
<polygon fill="white" stroke="white" points="16,-698 16,-773 1058,-773 1058,-698 16,-698"/>
<text text-anchor="middle" x="537" y="-705.8" font-family="Times,serif" font-size="14.00">boost</text>
</g>
<g id="clust4" class="cluster">
<title>cluster_main</title>
<polygon fill="#ddddee" stroke="#ddddee" points="867,-116 867,-671 1683,-671 1683,-116 867,-116"/>
<text text-anchor="middle" x="1275" y="-123.8" font-family="Times,serif" font-size="14.00">kernel (main concepts)</text>
</g>
<g id="clust5" class="cluster">
<title>cluster_models</title>
<polygon fill="#ccffcc" stroke="#ccffcc" points="546,-8 546,-83 2293,-83 2293,-8 546,-8"/>
<text text-anchor="middle" x="1419.5" y="-15.8" font-family="Times,serif" font-size="14.00">Kernel (main models)</text>
</g>
<!-- CQuantity -->
<g id="node1" class="node">
<title>CQuantity</title>
<g id="a_node1"><a xlink:href="structDGtal_1_1concepts_1_1CQuantity.html" target="_top" xlink:title="CQuantity">
<ellipse fill="white" stroke="white" cx="1582" cy="-747" rx="57.69" ry="18"/>
<text text-anchor="middle" x="1582" y="-743.3" font-family="Times,serif" font-size="14.00">CQuantity</text>
</a>
</g>
</g>
<!-- CUnaryFunctor -->
<g id="node2" class="node">
<title>CUnaryFunctor</title>
<g id="a_node2"><a xlink:href="structDGtal_1_1concepts_1_1CUnaryFunctor.html" target="_top" xlink:title="CUnaryFunctor">
<ellipse fill="white" stroke="white" cx="1157" cy="-747" rx="83.39" ry="18"/>
<text text-anchor="middle" x="1157" y="-743.3" font-family="Times,serif" font-size="14.00">CUnaryFunctor</text>
</a>
</g>
</g>
<!-- CPredicate -->
<g id="node3" class="node">
<title>CPredicate</title>
<g id="a_node3"><a xlink:href="structDGtal_1_1concepts_1_1CPredicate.html" target="_top" xlink:title="CPredicate">
<ellipse fill="white" stroke="white" cx="1720" cy="-747" rx="61.99" ry="18"/>
<text text-anchor="middle" x="1720" y="-743.3" font-family="Times,serif" font-size="14.00">CPredicate</text>
</a>
</g>
</g>
<!-- CConstSinglePassRange -->
<g id="node4" class="node">
<title>CConstSinglePassRange</title>
<g id="a_node4"><a xlink:href="structDGtal_1_1concepts_1_1CConstSinglePassRange.html" target="_top" xlink:title="CConstSinglePassRange">
<ellipse fill="white" stroke="white" cx="1382" cy="-747" rx="124.28" ry="18"/>
<text text-anchor="middle" x="1382" y="-743.3" font-family="Times,serif" font-size="14.00">CConstSinglePassRange</text>
</a>
</g>
</g>
<!-- boost_CopyConstructible -->
<g id="node5" class="node">
<title>boost_CopyConstructible</title>
<g id="a_node5"><a xlink:href="structboost_1_1CopyConstructible.html" target="_top" xlink:title="boost::CopyConstructible">
<ellipse fill="orange" stroke="orange" cx="720" cy="-747" rx="128.08" ry="18"/>
<text text-anchor="middle" x="720" y="-743.3" font-family="Times,serif" font-size="14.00">boost::CopyConstructible</text>
</a>
</g>
</g>
<!-- boost_Assignable -->
<g id="node6" class="node">
<title>boost_Assignable</title>
<g id="a_node6"><a xlink:href="structboost_1_1Assignable.html" target="_top" xlink:title="boost::Assignable">
<ellipse fill="orange" stroke="orange" cx="958" cy="-747" rx="92.08" ry="18"/>
<text text-anchor="middle" x="958" y="-743.3" font-family="Times,serif" font-size="14.00">boost::Assignable</text>
</a>
</g>
</g>
<!-- boost_DefaultConstructible -->
<g id="node7" class="node">
<title>boost_DefaultConstructible</title>
<g id="a_node7"><a xlink:href="structboost_1_1DefaultConstructible.html" target="_top" xlink:title="boost::DefaultConstructible">
<ellipse fill="orange" stroke="orange" cx="435" cy="-747" rx="139.18" ry="18"/>
<text text-anchor="middle" x="435" y="-743.3" font-family="Times,serif" font-size="14.00">boost::DefaultConstructible</text>
</a>
</g>
</g>
<!-- boost_ForwardContainer -->
<g id="node8" class="node">
<title>boost_ForwardContainer</title>
<g id="a_node8"><a xlink:href="structboost_1_1ForwardContainer.html" target="_top" xlink:title="boost::ForwardContainer">
<ellipse fill="orange" stroke="orange" cx="151" cy="-747" rx="126.98" ry="18"/>
<text text-anchor="middle" x="151" y="-743.3" font-family="Times,serif" font-size="14.00">boost::ForwardContainer</text>
</a>
</g>
</g>
<!-- CPointPredicate -->
<g id="node9" class="node">
<title>CPointPredicate</title>
<g id="a_node9"><a xlink:href="structDGtal_1_1concepts_1_1CPointPredicate.html" target="_top" xlink:title="CPointPredicate">
<ellipse fill="white" stroke="white" cx="1589" cy="-252" rx="85.59" ry="18"/>
<text text-anchor="middle" x="1589" y="-248.3" font-family="Times,serif" font-size="14.00">CPointPredicate</text>
</a>
</g>
</g>
<!-- CPointPredicate&#45;&gt;CPredicate -->
<g id="edge2" class="edge">
<title>CPointPredicate&#45;&gt;CPredicate</title>
<path fill="none" stroke="black" d="M1672.15,-256.79C1775.38,-263.81 1938,-283.51 1938,-338 1938,-338 1938,-338 1938,-646 1938,-712.01 1854.41,-734.61 1790.75,-742.26"/>
<polygon fill="black" stroke="black" points="1790.28,-738.79 1780.73,-743.36 1791.05,-745.74 1790.28,-738.79"/>
</g>
<!-- CPointFunctor -->
<g id="node10" class="node">
<title>CPointFunctor</title>
<g id="a_node10"><a xlink:href="structDGtal_1_1concepts_1_1CPointFunctor.html" target="_top" xlink:title="CPointFunctor">
<ellipse fill="white" stroke="white" cx="1239" cy="-165" rx="77.99" ry="18"/>
<text text-anchor="middle" x="1239" y="-161.3" font-family="Times,serif" font-size="14.00">CPointFunctor</text>
</a>
</g>
</g>
<!-- CPointFunctor&#45;&gt;CUnaryFunctor -->
<g id="edge1" class="edge">
<title>CPointFunctor&#45;&gt;CUnaryFunctor</title>
<path fill="none" stroke="black" d="M1185.31,-178.09C1170.96,-183.3 1156.32,-190.67 1145,-201 1126.79,-217.62 1121,-226.35 1121,-251 1121,-251 1121,-251 1121,-646 1121,-672.32 1132.18,-700.36 1142.08,-720.03"/>
<polygon fill="black" stroke="black" points="1139.03,-721.75 1146.78,-728.97 1145.22,-718.49 1139.03,-721.75"/>
</g>
<!-- CSpace -->
<g id="node11" class="node">
<title>CSpace</title>
<ellipse fill="white" stroke="white" cx="1533" cy="-339" rx="45.49" ry="18"/>
<text text-anchor="middle" x="1533" y="-335.3" font-family="Times,serif" font-size="14.00">CSpace</text>
</g>
<!-- CInteger -->
<g id="node12" class="node">
<title>CInteger</title>
<g id="a_node12"><a xlink:href="structDGtal_1_1concepts_1_1CInteger.html" target="_top" xlink:title="CInteger">
<ellipse fill="white" stroke="white" cx="1533" cy="-426" rx="51.99" ry="18"/>
<text text-anchor="middle" x="1533" y="-422.3" font-family="Times,serif" font-size="14.00">CInteger</text>
</a>
</g>
</g>
<!-- CSpace&#45;&gt;CInteger -->
<g id="edge16" class="edge">
<title>CSpace&#45;&gt;CInteger</title>
<path fill="none" stroke="black" stroke-dasharray="5,2" d="M1533,-357.2C1533,-368.84 1533,-384.45 1533,-397.76"/>
<polygon fill="black" stroke="black" points="1529.5,-397.82 1533,-407.82 1536.5,-397.82 1529.5,-397.82"/>
<text text-anchor="middle" x="1545.5" y="-378.8" font-family="Times,serif" font-size="14.00">use</text>
</g>
<!-- CUnsignedNumber -->
<g id="node13" class="node">
<title>CUnsignedNumber</title>
<g id="a_node13"><a xlink:href="structDGtal_1_1concepts_1_1CUnsignedNumber.html" target="_top" xlink:title="CUnsignedNumber">
<ellipse fill="white" stroke="white" cx="1363" cy="-426" rx="100.18" ry="18"/>
<text text-anchor="middle" x="1363" y="-422.3" font-family="Times,serif" font-size="14.00">CUnsignedNumber</text>
</a>
</g>
</g>
<!-- CSpace&#45;&gt;CUnsignedNumber -->
<g id="edge18" class="edge">
<title>CSpace&#45;&gt;CUnsignedNumber</title>
<path fill="none" stroke="black" stroke-dasharray="5,2" d="M1505.69,-353.66C1478.27,-367.37 1435.68,-388.66 1404.16,-404.42"/>
<polygon fill="black" stroke="black" points="1402.56,-401.31 1395.18,-408.91 1405.69,-407.57 1402.56,-401.31"/>
<text text-anchor="middle" x="1470.5" y="-378.8" font-family="Times,serif" font-size="14.00">use</text>
</g>
<!-- CIntegralNumber -->
<g id="node15" class="node">
<title>CIntegralNumber</title>
<g id="a_node15"><a xlink:href="structDGtal_1_1concepts_1_1CIntegralNumber.html" target="_top" xlink:title="CIntegralNumber">
<ellipse fill="white" stroke="white" cx="1582" cy="-499" rx="92.88" ry="18"/>
<text text-anchor="middle" x="1582" y="-495.3" font-family="Times,serif" font-size="14.00">CIntegralNumber</text>
</a>
</g>
</g>
<!-- CSpace&#45;&gt;CIntegralNumber -->
<g id="edge17" class="edge">
<title>CSpace&#45;&gt;CIntegralNumber</title>
<path fill="none" stroke="black" stroke-dasharray="5,2" d="M1553.12,-355.41C1567.56,-367.82 1585.84,-386.67 1594,-408 1601.76,-428.28 1597.7,-452.79 1592.29,-471.11"/>
<polygon fill="black" stroke="black" points="1588.89,-470.25 1589.12,-480.84 1595.54,-472.41 1588.89,-470.25"/>
<text text-anchor="middle" x="1610.5" y="-422.3" font-family="Times,serif" font-size="14.00">use</text>
</g>
<!-- CInteger&#45;&gt;CIntegralNumber -->
<g id="edge7" class="edge">
<title>CInteger&#45;&gt;CIntegralNumber</title>
<path fill="none" stroke="black" d="M1544.61,-443.83C1550.51,-452.37 1557.79,-462.92 1564.36,-472.44"/>
<polygon fill="black" stroke="black" points="1561.57,-474.56 1570.13,-480.8 1567.33,-470.58 1561.57,-474.56"/>
</g>
<!-- CEuclideanRing -->
<g id="node17" class="node">
<title>CEuclideanRing</title>
<g id="a_node17"><a xlink:href="structDGtal_1_1concepts_1_1CEuclideanRing.html" target="_top" xlink:title="CEuclideanRing">
<ellipse fill="white" stroke="white" cx="1386" cy="-499" rx="85.29" ry="18"/>
<text text-anchor="middle" x="1386" y="-495.3" font-family="Times,serif" font-size="14.00">CEuclideanRing</text>
</a>
</g>
</g>
<!-- CInteger&#45;&gt;CEuclideanRing -->
<g id="edge8" class="edge">
<title>CInteger&#45;&gt;CEuclideanRing</title>
<path fill="none" stroke="black" d="M1503.96,-441.03C1482.14,-451.56 1451.96,-466.14 1427.59,-477.91"/>
<polygon fill="black" stroke="black" points="1426.05,-474.77 1418.56,-482.27 1429.09,-481.07 1426.05,-474.77"/>
</g>
<!-- CUnsignedNumber&#45;&gt;CQuantity -->
<g id="edge4" class="edge">
<title>CUnsignedNumber&#45;&gt;CQuantity</title>
<path fill="none" stroke="black" d="M1320.11,-442.35C1296.93,-453.67 1273,-471.73 1273,-498 1273,-498 1273,-498 1273,-646 1273,-681.98 1314.84,-663.35 1350,-671 1422.13,-686.7 1447.17,-660.89 1515,-690 1532.03,-697.31 1548.07,-710.4 1560.18,-722.09"/>
<polygon fill="black" stroke="black" points="1558.02,-724.88 1567.55,-729.5 1562.98,-719.94 1558.02,-724.88"/>
</g>
<!-- CSignedNumber -->
<g id="node14" class="node">
<title>CSignedNumber</title>
<g id="a_node14"><a xlink:href="structDGtal_1_1concepts_1_1CSignedNumber.html" target="_top" xlink:title="CSignedNumber">
<ellipse fill="white" stroke="white" cx="1447" cy="-645" rx="87.99" ry="18"/>
<text text-anchor="middle" x="1447" y="-641.3" font-family="Times,serif" font-size="14.00">CSignedNumber</text>
</a>
</g>
</g>
<!-- CSignedNumber&#45;&gt;CQuantity -->
<g id="edge3" class="edge">
<title>CSignedNumber&#45;&gt;CQuantity</title>
<path fill="none" stroke="black" d="M1473.66,-662.19C1486.42,-670.21 1501.76,-680.24 1515,-690 1529.01,-700.33 1543.94,-712.66 1556.14,-723.12"/>
<polygon fill="black" stroke="black" points="1553.87,-725.79 1563.72,-729.68 1558.45,-720.49 1553.87,-725.79"/>
</g>
<!-- CIntegralNumber&#45;&gt;CQuantity -->
<g id="edge5" class="edge">
<title>CIntegralNumber&#45;&gt;CQuantity</title>
<path fill="none" stroke="black" d="M1582,-517.3C1582,-559.38 1582,-667.37 1582,-718.45"/>
<polygon fill="black" stroke="black" points="1578.5,-718.72 1582,-728.72 1585.5,-718.72 1578.5,-718.72"/>
</g>
<!-- CBoundedNumber -->
<g id="node16" class="node">
<title>CBoundedNumber</title>
<g id="a_node16"><a xlink:href="structDGtal_1_1concepts_1_1CBoundedNumber.html" target="_top" xlink:title="CBoundedNumber">
<ellipse fill="white" stroke="white" cx="1432" cy="-165" rx="96.68" ry="18"/>
<text text-anchor="middle" x="1432" y="-161.3" font-family="Times,serif" font-size="14.00">CBoundedNumber</text>
</a>
</g>
</g>
<!-- CBoundedNumber&#45;&gt;CQuantity -->
<g id="edge6" class="edge">
<title>CBoundedNumber&#45;&gt;CQuantity</title>
<path fill="none" stroke="black" d="M1362.2,-177.54C1350.14,-179.43 1337.72,-181.32 1326,-183 1294.29,-187.54 1208.99,-182.28 1183,-201 1163,-215.41 1159,-226.35 1159,-251 1159,-251 1159,-251 1159,-646 1159,-691.81 1213.77,-663.72 1259,-671 1315.32,-680.06 1462.13,-668.57 1515,-690 1532.45,-697.07 1548.74,-710.47 1560.89,-722.38"/>
<polygon fill="black" stroke="black" points="1558.4,-724.84 1567.89,-729.54 1563.4,-719.95 1558.4,-724.84"/>
</g>
<!-- CCommutativeRing -->
<g id="node18" class="node">
<title>CCommutativeRing</title>
<g id="a_node18"><a xlink:href="structDGtal_1_1concepts_1_1CCommutativeRing.html" target="_top" xlink:title="CCommutativeRing">
<ellipse fill="white" stroke="white" cx="1428" cy="-572" rx="101.28" ry="18"/>
<text text-anchor="middle" x="1428" y="-568.3" font-family="Times,serif" font-size="14.00">CCommutativeRing</text>
</a>
</g>
</g>
<!-- CEuclideanRing&#45;&gt;CCommutativeRing -->
<g id="edge9" class="edge">
<title>CEuclideanRing&#45;&gt;CCommutativeRing</title>
<path fill="none" stroke="black" d="M1396.17,-517.19C1401.12,-525.56 1407.18,-535.8 1412.68,-545.1"/>
<polygon fill="black" stroke="black" points="1409.82,-547.15 1417.93,-553.97 1415.85,-543.58 1409.82,-547.15"/>
</g>
<!-- CCommutativeRing&#45;&gt;CSignedNumber -->
<g id="edge10" class="edge">
<title>CCommutativeRing&#45;&gt;CSignedNumber</title>
<path fill="none" stroke="black" d="M1432.6,-590.19C1434.77,-598.3 1437.41,-608.16 1439.83,-617.22"/>
<polygon fill="black" stroke="black" points="1436.48,-618.22 1442.44,-626.97 1443.24,-616.41 1436.48,-618.22"/>
</g>
<!-- CDomain -->
<g id="node19" class="node">
<title>CDomain</title>
<g id="a_node19"><a xlink:href="structDGtal_1_1concepts_1_1CDomain.html" target="_top" xlink:title="CDomain">
<ellipse fill="white" stroke="white" cx="1432" cy="-252" rx="53.09" ry="18"/>
<text text-anchor="middle" x="1432" y="-248.3" font-family="Times,serif" font-size="14.00">CDomain</text>
</a>
</g>
</g>
<!-- CDomain&#45;&gt;CConstSinglePassRange -->
<g id="edge11" class="edge">
<title>CDomain&#45;&gt;CConstSinglePassRange</title>
<path fill="none" stroke="black" d="M1378.95,-253.99C1320.6,-258.22 1235,-275.14 1235,-338 1235,-338 1235,-338 1235,-646 1235,-687.26 1275.08,-712.7 1313.38,-727.58"/>
<polygon fill="black" stroke="black" points="1312.46,-730.98 1323.06,-731.15 1314.88,-724.41 1312.46,-730.98"/>
</g>
<!-- CDomain&#45;&gt;CSpace -->
<g id="edge19" class="edge">
<title>CDomain&#45;&gt;CSpace</title>
<path fill="none" stroke="black" stroke-dasharray="5,2" d="M1451,-268.99C1466.61,-282.13 1488.92,-300.9 1506.33,-315.55"/>
<polygon fill="black" stroke="black" points="1504.52,-318.61 1514.43,-322.37 1509.03,-313.25 1504.52,-318.61"/>
<text text-anchor="middle" x="1500.5" y="-291.8" font-family="Times,serif" font-size="14.00">use</text>
</g>
<!-- CSTLAssociativeContainer -->
<g id="node20" class="node">
<title>CSTLAssociativeContainer</title>
<g id="a_node20"><a xlink:href="structDGtal_1_1concepts_1_1CSTLAssociativeContainer.html" target="_top" xlink:title="CSTLAssociativeContainer">
<ellipse fill="white" stroke="white" cx="1009" cy="-165" rx="133.78" ry="18"/>
<text text-anchor="middle" x="1009" y="-161.3" font-family="Times,serif" font-size="14.00">CSTLAssociativeContainer</text>
</a>
</g>
</g>
<!-- CSTLAssociativeContainer&#45;&gt;boost_DefaultConstructible -->
<g id="edge12" class="edge">
<title>CSTLAssociativeContainer&#45;&gt;boost_DefaultConstructible</title>
<path fill="none" stroke="black" d="M893.32,-174.1C846.82,-184.29 804,-205.92 804,-251 804,-251 804,-251 804,-646 804,-696.08 631.14,-676.2 583,-690 548.71,-699.83 511.14,-714.09 482.43,-725.76"/>
<polygon fill="black" stroke="black" points="480.98,-722.57 473.05,-729.61 483.63,-729.05 480.98,-722.57"/>
</g>
<!-- CSTLAssociativeContainer&#45;&gt;boost_ForwardContainer -->
<g id="edge13" class="edge">
<title>CSTLAssociativeContainer&#45;&gt;boost_ForwardContainer</title>
<path fill="none" stroke="black" d="M880.38,-170.02C690.14,-177.71 356,-198.66 356,-251 356,-251 356,-251 356,-646 356,-654.74 258.49,-698.99 197.97,-725.61"/>
<polygon fill="black" stroke="black" points="196.35,-722.5 188.6,-729.72 199.16,-728.91 196.35,-722.5"/>
</g>
<!-- CDigitalSet -->
<g id="node21" class="node">
<title>CDigitalSet</title>
<ellipse fill="white" stroke="white" cx="1611" cy="-165" rx="64.19" ry="18"/>
<text text-anchor="middle" x="1611" y="-161.3" font-family="Times,serif" font-size="14.00">CDigitalSet</text>
</g>
<!-- CDigitalSet&#45;&gt;boost_CopyConstructible -->
<g id="edge21" class="edge">
<title>CDigitalSet&#45;&gt;boost_CopyConstructible</title>
<path fill="none" stroke="black" d="M1565.67,-177.83C1556.56,-179.85 1547.02,-181.7 1538,-183 1398.32,-203.08 1359.75,-175.26 1221,-201 1149.41,-214.28 1065,-178.19 1065,-251 1065,-251 1065,-251 1065,-646 1065,-693.25 902.16,-676.12 857,-690 825.39,-699.72 790.94,-713.82 764.49,-725.44"/>
<polygon fill="black" stroke="black" points="762.85,-722.34 755.13,-729.59 765.69,-728.73 762.85,-722.34"/>
</g>
<!-- CDigitalSet&#45;&gt;boost_Assignable -->
<g id="edge20" class="edge">
<title>CDigitalSet&#45;&gt;boost_Assignable</title>
<path fill="none" stroke="black" d="M1563.54,-177.29C1555.04,-179.24 1546.27,-181.21 1538,-183 1462.47,-199.32 1197,-173.73 1197,-251 1197,-251 1197,-251 1197,-646 1197,-709.11 1120.01,-665.16 1062,-690 1038.73,-699.96 1013.72,-713.34 994.05,-724.52"/>
<polygon fill="black" stroke="black" points="992.07,-721.63 985.14,-729.65 995.56,-727.69 992.07,-721.63"/>
</g>
<!-- CDigitalSet&#45;&gt;CPointPredicate -->
<g id="edge14" class="edge">
<title>CDigitalSet&#45;&gt;CPointPredicate</title>
<path fill="none" stroke="black" d="M1606.55,-183.2C1603.54,-194.84 1599.49,-210.45 1596.05,-223.76"/>
<polygon fill="black" stroke="black" points="1592.56,-223.27 1593.45,-233.82 1599.34,-225.02 1592.56,-223.27"/>
</g>
<!-- CDigitalSet&#45;&gt;CDomain -->
<g id="edge15" class="edge">
<title>CDigitalSet&#45;&gt;CDomain</title>
<path fill="none" stroke="black" stroke-dasharray="5,2" d="M1579.82,-180.81C1549.55,-195.18 1503.52,-217.04 1470.88,-232.54"/>
<polygon fill="black" stroke="black" points="1469.17,-229.48 1461.63,-236.93 1472.17,-235.8 1469.17,-229.48"/>
<text text-anchor="middle" x="1544.5" y="-204.8" font-family="Times,serif" font-size="14.00">use</text>
</g>
<!-- SpaceND -->
<g id="node22" class="node">
<title>SpaceND</title>
<g id="a_node22"><a xlink:href="classDGtal_1_1SpaceND.html" target="_top" xlink:title="SpaceND">
<ellipse fill="white" stroke="white" cx="2231" cy="-57" rx="53.89" ry="18"/>
<text text-anchor="middle" x="2231" y="-53.3" font-family="Times,serif" font-size="14.00">SpaceND</text>
</a>
</g>
</g>
<!-- SpaceND&#45;&gt;CSpace -->
<g id="edge22" class="edge">
<title>SpaceND&#45;&gt;CSpace</title>
<path fill="none" stroke="black" d="M2199.65,-71.74C2135.6,-99.7 1984.98,-164.9 1857,-216 1756.33,-256.2 1636.7,-300.31 1574.78,-322.87"/>
<polygon fill="black" stroke="black" points="1573.55,-319.59 1565.35,-326.3 1575.95,-326.17 1573.55,-319.59"/>
</g>
<!-- HyperRectDomain -->
<g id="node23" class="node">
<title>HyperRectDomain</title>
<g id="a_node23"><a xlink:href="classDGtal_1_1HyperRectDomain.html" target="_top" xlink:title="HyperRectDomain">
<ellipse fill="white" stroke="white" cx="1703" cy="-57" rx="96.38" ry="18"/>
<text text-anchor="middle" x="1703" y="-53.3" font-family="Times,serif" font-size="14.00">HyperRectDomain</text>
</a>
</g>
</g>
<!-- HyperRectDomain&#45;&gt;CDomain -->
<g id="edge23" class="edge">
<title>HyperRectDomain&#45;&gt;CDomain</title>
<path fill="none" stroke="black" d="M1705.78,-75.39C1708.98,-102.05 1710.78,-153.06 1684,-183 1625.71,-248.17 1578.38,-211.11 1494,-234 1490,-235.08 1485.86,-236.21 1481.7,-237.35"/>
<polygon fill="black" stroke="black" points="1480.74,-233.98 1472.01,-239.99 1482.58,-240.73 1480.74,-233.98"/>
</g>
<!-- DigitalSetBySTLSet -->
<g id="node24" class="node">
<title>DigitalSetBySTLSet</title>
<g id="a_node24"><a xlink:href="classDGtal_1_1DigitalSetBySTLSet.html" target="_top" xlink:title="DigitalSetBySTLSet">
<ellipse fill="white" stroke="white" cx="1485" cy="-57" rx="103.18" ry="18"/>
<text text-anchor="middle" x="1485" y="-53.3" font-family="Times,serif" font-size="14.00">DigitalSetBySTLSet</text>
</a>
</g>
</g>
<!-- DigitalSetBySTLSet&#45;&gt;CDigitalSet -->
<g id="edge25" class="edge">
<title>DigitalSetBySTLSet&#45;&gt;CDigitalSet</title>
<path fill="none" stroke="black" d="M1504.97,-74.8C1526.19,-92.66 1559.91,-121.02 1583.61,-140.96"/>
<polygon fill="black" stroke="black" points="1581.64,-143.87 1591.54,-147.63 1586.14,-138.51 1581.64,-143.87"/>
</g>
<!-- DigitalSetBySTLVector -->
<g id="node25" class="node">
<title>DigitalSetBySTLVector</title>
<g id="a_node25"><a xlink:href="classDGtal_1_1DigitalSetBySTLVector.html" target="_top" xlink:title="DigitalSetBySTLVector">
<ellipse fill="white" stroke="white" cx="1024" cy="-57" rx="116.18" ry="18"/>
<text text-anchor="middle" x="1024" y="-53.3" font-family="Times,serif" font-size="14.00">DigitalSetBySTLVector</text>
</a>
</g>
</g>
<!-- DigitalSetBySTLVector&#45;&gt;CDigitalSet -->
<g id="edge24" class="edge">
<title>DigitalSetBySTLVector&#45;&gt;CDigitalSet</title>
<path fill="none" stroke="black" d="M1087.68,-72.16C1107.27,-76.13 1128.95,-80.14 1149,-83 1276.63,-101.23 1309.52,-97.3 1438,-108 1460.22,-109.85 1516.92,-108.76 1538,-116 1554.48,-121.66 1570.86,-131.9 1583.92,-141.47"/>
<polygon fill="black" stroke="black" points="1581.91,-144.34 1591.99,-147.61 1586.15,-138.77 1581.91,-144.34"/>
</g>
<!-- DigitalSetFromMap -->
<g id="node26" class="node">
<title>DigitalSetFromMap</title>
<g id="a_node26"><a xlink:href="classDGtal_1_1DigitalSetFromMap.html" target="_top" xlink:title="DigitalSetFromMap">
<ellipse fill="white" stroke="white" cx="1261" cy="-57" rx="102.88" ry="18"/>
<text text-anchor="middle" x="1261" y="-53.3" font-family="Times,serif" font-size="14.00">DigitalSetFromMap</text>
</a>
</g>
</g>
<!-- DigitalSetFromMap&#45;&gt;CDigitalSet -->
<g id="edge26" class="edge">
<title>DigitalSetFromMap&#45;&gt;CDigitalSet</title>
<path fill="none" stroke="black" d="M1321.11,-71.67C1337.89,-75.42 1356.14,-79.43 1373,-83 1446.17,-98.48 1468.82,-87.6 1538,-116 1553.88,-122.52 1569.99,-132.66 1583.03,-141.94"/>
<polygon fill="black" stroke="black" points="1580.98,-144.78 1591.11,-147.87 1585.12,-139.14 1580.98,-144.78"/>
</g>
<!-- SetPredicate -->
<g id="node27" class="node">
<title>SetPredicate</title>
<g id="a_node27"><a xlink:href="structDGtal_1_1deprecated_1_1SetPredicate.html" target="_top" xlink:title="SetPredicate">
<ellipse fill="white" stroke="white" cx="1888" cy="-57" rx="70.69" ry="18"/>
<text text-anchor="middle" x="1888" y="-53.3" font-family="Times,serif" font-size="14.00">SetPredicate</text>
</a>
</g>
</g>
<!-- SetPredicate&#45;&gt;CPointPredicate -->
<g id="edge30" class="edge">
<title>SetPredicate&#45;&gt;CPointPredicate</title>
<path fill="none" stroke="black" d="M1848.85,-72.13C1835.41,-77.75 1820.59,-84.84 1808,-93 1737.94,-138.42 1737.59,-173.03 1666,-216 1656.75,-221.56 1646.46,-226.81 1636.49,-231.47"/>
<polygon fill="black" stroke="black" points="1634.73,-228.42 1627.08,-235.75 1637.63,-234.8 1634.73,-228.42"/>
</g>
<!-- SetPredicate&#45;&gt;CDigitalSet -->
<g id="edge29" class="edge">
<title>SetPredicate&#45;&gt;CDigitalSet</title>
<path fill="none" stroke="black" stroke-dasharray="5,2" d="M1848.06,-71.88C1835.37,-75.92 1821.2,-80.03 1808,-83 1776.91,-90 1767.18,-82.78 1737,-93 1702.48,-104.69 1666.59,-125.96 1641.99,-142.17"/>
<polygon fill="black" stroke="black" points="1639.81,-139.42 1633.46,-147.9 1643.71,-145.23 1639.81,-139.42"/>
<text text-anchor="middle" x="1749.5" y="-96.8" font-family="Times,serif" font-size="14.00">use</text>
</g>
<!-- DomainPredicate -->
<g id="node28" class="node">
<title>DomainPredicate</title>
<g id="a_node28"><a xlink:href="structDGtal_1_1functors_1_1DomainPredicate.html" target="_top" xlink:title="DomainPredicate">
<ellipse fill="white" stroke="white" cx="2068" cy="-57" rx="90.98" ry="18"/>
<text text-anchor="middle" x="2068" y="-53.3" font-family="Times,serif" font-size="14.00">DomainPredicate</text>
</a>
</g>
</g>
<!-- DomainPredicate&#45;&gt;CPointPredicate -->
<g id="edge32" class="edge">
<title>DomainPredicate&#45;&gt;CPointPredicate</title>
<path fill="none" stroke="black" d="M2016.58,-71.91C2001.04,-75.83 1983.89,-79.87 1968,-83 1937.6,-88.99 1924.21,-74.98 1899,-93 1849.04,-128.72 1886.02,-180.36 1836,-216 1811.62,-233.37 1741.53,-242.19 1682.22,-246.62"/>
<polygon fill="black" stroke="black" points="1681.77,-243.15 1672.04,-247.35 1682.27,-250.13 1681.77,-243.15"/>
</g>
<!-- DomainPredicate&#45;&gt;CDomain -->
<g id="edge31" class="edge">
<title>DomainPredicate&#45;&gt;CDomain</title>
<path fill="none" stroke="black" stroke-dasharray="5,2" d="M2017.41,-72.02C2001.67,-76.01 1984.2,-80.07 1968,-83 1929.27,-90.01 1917.83,-82.12 1880,-93 1774.57,-123.32 1770.02,-181.16 1666,-216 1593.12,-240.41 1569.54,-219.79 1494,-234 1489.56,-234.84 1484.98,-235.83 1480.4,-236.92"/>
<polygon fill="black" stroke="black" points="1479.32,-233.58 1470.47,-239.41 1481.02,-240.37 1479.32,-233.58"/>
<text text-anchor="middle" x="1834.5" y="-161.3" font-family="Times,serif" font-size="14.00">use</text>
</g>
<!-- DigitalSetByAssociativeContainer -->
<g id="node29" class="node">
<title>DigitalSetByAssociativeContainer</title>
<g id="a_node29"><a xlink:href="classDGtal_1_1DigitalSetByAssociativeContainer.html" target="_top" xlink:title="DigitalSetByAssociativeContainer">
<ellipse fill="white" stroke="white" cx="722" cy="-57" rx="167.87" ry="18"/>
<text text-anchor="middle" x="722" y="-53.3" font-family="Times,serif" font-size="14.00">DigitalSetByAssociativeContainer</text>
</a>
</g>
</g>
<!-- DigitalSetByAssociativeContainer&#45;&gt;CSTLAssociativeContainer -->
<g id="edge28" class="edge">
<title>DigitalSetByAssociativeContainer&#45;&gt;CSTLAssociativeContainer</title>
<path fill="none" stroke="black" stroke-dasharray="5,2" d="M766.53,-74.45C817.62,-93.32 901.36,-124.24 955.83,-144.36"/>
<polygon fill="black" stroke="black" points="954.72,-147.68 965.31,-147.86 957.14,-141.12 954.72,-147.68"/>
<text text-anchor="middle" x="868.5" y="-96.8" font-family="Times,serif" font-size="14.00">use</text>
</g>
<!-- DigitalSetByAssociativeContainer&#45;&gt;CDigitalSet -->
<g id="edge27" class="edge">
<title>DigitalSetByAssociativeContainer&#45;&gt;CDigitalSet</title>
<path fill="none" stroke="black" d="M813.73,-72.1C841.11,-76 871.23,-79.99 899,-83 1044.79,-98.82 1081.55,-100.55 1228,-108 1262.41,-109.75 1505.12,-105.69 1538,-116 1554.74,-121.25 1571.26,-131.55 1584.33,-141.27"/>
<polygon fill="black" stroke="black" points="1582.35,-144.16 1592.4,-147.52 1586.63,-138.63 1582.35,-144.16"/>
</g>
</g>
</svg>
        <g id="navigator" transform="translate(0 0)" fill="#404254">
                <rect fill="#f2f5e9" fill-opacity="0.5" stroke="#606060" stroke-width=".5" x="0" y="0" width="60" height="60"/>
                <use id="zoomplus" xlink:href="#zoomPlus" x="17" y="9" onmousedown="handleZoom(evt,'in')"/>
                <use id="zoomminus" xlink:href="#zoomMin" x="42" y="9" onmousedown="handleZoom(evt,'out')"/>
                <use id="reset" xlink:href="#resetDef" x="30" y="36" onmousedown="handleReset()"/>
                <g id="arrowUp" xlink:href="#dirArrow" transform="translate(30 24)" onmousedown="handlePan(0,-1)">
                  <use xlink:href="#rim" fill="#404040">
                        <set attributeName="fill" to="#808080" begin="arrowUp.mouseover" end="arrowUp.mouseout"/>
                  </use>
                  <path fill="none" stroke="white" stroke-width="1.5" d="M0,-3.0v7 M-2.5,-0.5L0,-3.0L2.5,-0.5"/>
                </g>
                <g id="arrowRight" xlink:href="#dirArrow" transform="rotate(90) translate(36 -43)" onmousedown="handlePan(1,0)">
                  <use xlink:href="#rim" fill="#404040">
                        <set attributeName="fill" to="#808080" begin="arrowRight.mouseover" end="arrowRight.mouseout"/>
                  </use>
                  <path fill="none" stroke="white" stroke-width="1.5" d="M0,-3.0v7 M-2.5,-0.5L0,-3.0L2.5,-0.5"/>
                </g>
                <g id="arrowDown" xlink:href="#dirArrow" transform="rotate(180) translate(-30 -48)" onmousedown="handlePan(0,1)">
                  <use xlink:href="#rim" fill="#404040">
                        <set attributeName="fill" to="#808080" begin="arrowDown.mouseover" end="arrowDown.mouseout"/>
                  </use>
                  <path fill="none" stroke="white" stroke-width="1.5" d="M0,-3.0v7 M-2.5,-0.5L0,-3.0L2.5,-0.5"/>
                </g>
                <g id="arrowLeft" xlink:href="#dirArrow" transform="rotate(270) translate(-36 17)" onmousedown="handlePan(-1,0)">
                  <use xlink:href="#rim" fill="#404040">
                        <set attributeName="fill" to="#808080" begin="arrowLeft.mouseover" end="arrowLeft.mouseout"/>
                  </use>
                  <path fill="none" stroke="white" stroke-width="1.5" d="M0,-3.0v7 M-2.5,-0.5L0,-3.0L2.5,-0.5"/>
                </g>
        </g>
        <svg viewBox="0 0 15 15" width="100%" height="30px" preserveAspectRatio="xMaxYMin meet">
         <g id="arrow_out" transform="scale(0.3 0.3)">
          <a xlink:href="dot_inline_dotgraph_11_org.svg" target="_base">
           <rect id="button" ry="5" rx="5" y="6" x="6" height="38" width="38"
                fill="#f2f5e9" fill-opacity="0.5" stroke="#606060" stroke-width="1.0"/>
           <path id="arrow"
             d="M 11.500037,31.436501 C 11.940474,20.09759 22.043105,11.32322 32.158766,21.979434 L 37.068811,17.246167 C 37.068811,17.246167 37.088388,32 37.088388,32 L 22.160133,31.978069 C 22.160133,31.978069 26.997745,27.140456 26.997745,27.140456 C 18.528582,18.264221 13.291696,25.230495 11.500037,31.436501 z"
             style="fill:#404040;"/>
          </a>
         </g>
        </svg>
</svg>
