<?xml version="1.0" encoding="UTF-8" standalone="no"?>
<!DOCTYPE svg PUBLIC "-//W3C//DTD SVG 1.1//EN"
 "http://www.w3.org/Graphics/SVG/1.1/DTD/svg11.dtd">
<!-- Generated by graphviz version 2.43.0 (0)
 -->
<!-- Title: GTOPOLOGY Pages: 1 -->
<svg width="1729pt" height="608pt"
 viewBox="0.00 0.00 1729.00 608.00" xmlns="http://www.w3.org/2000/svg" xmlns:xlink="http://www.w3.org/1999/xlink">
<g id="graph0" class="graph" transform="scale(1 1) rotate(0) translate(4 604)">
<title>GTOPOLOGY</title>
<polygon fill="white" stroke="transparent" points="-4,4 -4,-604 1725,-604 1725,4 -4,4"/>
<g id="clust1" class="cluster">
<title>cluster_ext</title>
</g>
<g id="clust2" class="cluster">
<title>cluster_1</title>
<polygon fill="#eeeeff" stroke="#eeeeff" points="1258,-509 1258,-584 1522,-584 1522,-509 1258,-509"/>
<text text-anchor="middle" x="1390" y="-516.8" font-family="Times,serif" font-size="14.00">base</text>
</g>
<g id="clust3" class="cluster">
<title>cluster_2</title>
<polygon fill="#ddddff" stroke="#ddddff" points="1227,-342 1227,-490 1553,-490 1553,-342 1227,-342"/>
<text text-anchor="middle" x="1390" y="-349.8" font-family="Times,serif" font-size="14.00">graph</text>
</g>
<g id="clust4" class="cluster">
<title>cluster_4</title>
<polygon fill="#e0eeff" stroke="#e0eeff" points="1561,-342 1561,-417 1705,-417 1705,-342 1561,-342"/>
<text text-anchor="middle" x="1633" y="-349.8" font-family="Times,serif" font-size="14.00">kernel</text>
</g>
<g id="clust5" class="cluster">
<title>cluster_5</title>
<polygon fill="white" stroke="white" points="947,-342 947,-417 1219,-417 1219,-342 947,-342"/>
<text text-anchor="middle" x="1083" y="-349.8" font-family="Times,serif" font-size="14.00">boost</text>
</g>
<g id="clust6" class="cluster">
<title>cluster_0</title>
<polygon fill="lightgrey" stroke="lightgrey" points="274,-153 274,-417 931,-417 931,-153 274,-153"/>
<text text-anchor="middle" x="602.5" y="-160.8" font-family="Times,serif" font-size="14.00">topology (main concepts)</text>
</g>
<g id="clust7" class="cluster">
<title>cluster_models</title>
<polygon fill="#ccffcc" stroke="#ccffcc" points="8,-8 8,-122 1421,-122 1421,-8 8,-8"/>
<text text-anchor="middle" x="714.5" y="-15.8" font-family="Times,serif" font-size="14.00">topology (main models)</text>
</g>
<g id="clust8" class="cluster">
<title>cluster_models_0</title>
<polygon fill="#ccffcc" stroke="#ccffcc" points="498,-39 498,-114 1413,-114 1413,-39 498,-39"/>
<text text-anchor="middle" x="955.5" y="-46.8" font-family="Times,serif" font-size="14.00">(main graph models)</text>
</g>
<g id="clust9" class="cluster">
<title>cluster_models_2</title>
<polygon fill="#ccffcc" stroke="#ccffcc" points="16,-39 16,-114 490,-114 490,-39 16,-39"/>
<text text-anchor="middle" x="253" y="-46.8" font-family="Times,serif" font-size="14.00">(others)</text>
</g>
<!-- CConstSinglePassRange -->
<g id="node1" class="node">
<title>CConstSinglePassRange</title>
<g id="a_node1"><a xlink:href="structDGtal_1_1concepts_1_1CConstSinglePassRange.html" target="_top" xlink:title="CConstSinglePassRange">
<ellipse fill="white" stroke="white" cx="1390" cy="-558" rx="124.28" ry="18"/>
<text text-anchor="middle" x="1390" y="-554.3" font-family="Times,serif" font-size="14.00">CConstSinglePassRange</text>
</a>
</g>
</g>
<!-- CUndirectedSimpleGraph -->
<g id="node2" class="node">
<title>CUndirectedSimpleGraph</title>
<g id="a_node2"><a xlink:href="structDGtal_1_1concepts_1_1CUndirectedSimpleGraph.html" target="_top" xlink:title="CUndirectedSimpleGraph">
<ellipse fill="white" stroke="white" cx="1366" cy="-391" rx="130.78" ry="18"/>
<text text-anchor="middle" x="1366" y="-387.3" font-family="Times,serif" font-size="14.00">CUndirectedSimpleGraph</text>
</a>
</g>
</g>
<!-- CUndirectedSimpleLocalGraph -->
<g id="node3" class="node">
<title>CUndirectedSimpleLocalGraph</title>
<g id="a_node3"><a xlink:href="structDGtal_1_1concepts_1_1CUndirectedSimpleLocalGraph.html" target="_top" xlink:title="CUndirectedSimpleLocalGraph">
<ellipse fill="white" stroke="white" cx="1390" cy="-464" rx="155.17" ry="18"/>
<text text-anchor="middle" x="1390" y="-460.3" font-family="Times,serif" font-size="14.00">CUndirectedSimpleLocalGraph</text>
</a>
</g>
</g>
<!-- CUndirectedSimpleGraph&#45;&gt;CUndirectedSimpleLocalGraph -->
<g id="edge6" class="edge">
<title>CUndirectedSimpleGraph&#45;&gt;CUndirectedSimpleLocalGraph</title>
<path fill="none" stroke="black" d="M1371.81,-409.19C1374.55,-417.3 1377.89,-427.16 1380.95,-436.22"/>
<polygon fill="black" stroke="black" points="1377.73,-437.62 1384.24,-445.97 1384.36,-435.38 1377.73,-437.62"/>
</g>
<!-- CUndirectedSimpleLocalGraph&#45;&gt;CConstSinglePassRange -->
<g id="edge5" class="edge">
<title>CUndirectedSimpleLocalGraph&#45;&gt;CConstSinglePassRange</title>
<path fill="none" stroke="black" d="M1390,-482.3C1390,-495.54 1390,-514.05 1390,-529.34"/>
<polygon fill="black" stroke="black" points="1386.5,-529.77 1390,-539.77 1393.5,-529.77 1386.5,-529.77"/>
</g>
<!-- CDigitalSet -->
<g id="node4" class="node">
<title>CDigitalSet</title>
<g id="a_node4"><a xlink:href="structDGtal_1_1concepts_1_1CDigitalSet.html" target="_top" xlink:title="CDigitalSet">
<ellipse fill="white" stroke="white" cx="1633" cy="-391" rx="64.19" ry="18"/>
<text text-anchor="middle" x="1633" y="-387.3" font-family="Times,serif" font-size="14.00">CDigitalSet</text>
</a>
</g>
</g>
<!-- boost_CopyConstructible -->
<g id="node5" class="node">
<title>boost_CopyConstructible</title>
<g id="a_node5"><a xlink:href="structboost_1_1CopyConstructible.html" target="_top" xlink:title="boost::CopyConstructible">
<ellipse fill="orange" stroke="orange" cx="1083" cy="-391" rx="128.08" ry="18"/>
<text text-anchor="middle" x="1083" y="-387.3" font-family="Times,serif" font-size="14.00">boost::CopyConstructible</text>
</a>
</g>
</g>
<!-- CDigitalSurfaceContainer -->
<g id="node6" class="node">
<title>CDigitalSurfaceContainer</title>
<g id="a_node6"><a xlink:href="structDGtal_1_1concepts_1_1CDigitalSurfaceContainer.html" target="_top" xlink:title="CDigitalSurfaceContainer">
<ellipse fill="white" stroke="white" cx="793" cy="-202" rx="129.98" ry="18"/>
<text text-anchor="middle" x="793" y="-198.3" font-family="Times,serif" font-size="14.00">CDigitalSurfaceContainer</text>
</a>
</g>
</g>
<!-- CDigitalSurfaceContainer&#45;&gt;boost_CopyConstructible -->
<g id="edge1" class="edge">
<title>CDigitalSurfaceContainer&#45;&gt;boost_CopyConstructible</title>
<path fill="none" stroke="black" d="M831.63,-219.23C860.19,-231.86 899.59,-250.63 932,-271 978.23,-300.06 1027.05,-340.59 1056.26,-366.05"/>
<polygon fill="black" stroke="black" points="1054.14,-368.84 1063.96,-372.81 1058.76,-363.58 1054.14,-368.84"/>
</g>
<!-- CDigitalSurfaceTracker -->
<g id="node7" class="node">
<title>CDigitalSurfaceTracker</title>
<g id="a_node7"><a xlink:href="structDGtal_1_1concepts_1_1CDigitalSurfaceTracker.html" target="_top" xlink:title="CDigitalSurfaceTracker">
<ellipse fill="white" stroke="white" cx="803" cy="-289" rx="120.48" ry="18"/>
<text text-anchor="middle" x="803" y="-285.3" font-family="Times,serif" font-size="14.00">CDigitalSurfaceTracker</text>
</a>
</g>
</g>
<!-- CDigitalSurfaceContainer&#45;&gt;CDigitalSurfaceTracker -->
<g id="edge3" class="edge">
<title>CDigitalSurfaceContainer&#45;&gt;CDigitalSurfaceTracker</title>
<path fill="none" stroke="black" stroke-dasharray="5,2" d="M795.02,-220.2C796.39,-231.84 798.23,-247.45 799.8,-260.76"/>
<polygon fill="black" stroke="black" points="796.33,-261.3 800.98,-270.82 803.29,-260.48 796.33,-261.3"/>
<text text-anchor="middle" x="810.5" y="-241.8" font-family="Times,serif" font-size="14.00">use</text>
</g>
<!-- CCellularGridSpaceND -->
<g id="node10" class="node">
<title>CCellularGridSpaceND</title>
<g id="a_node10"><a xlink:href="structDGtal_1_1concepts_1_1CCellularGridSpaceND.html" target="_top" xlink:title="CCellularGridSpaceND">
<ellipse fill="white" stroke="white" cx="400" cy="-289" rx="117.78" ry="18"/>
<text text-anchor="middle" x="400" y="-285.3" font-family="Times,serif" font-size="14.00">CCellularGridSpaceND</text>
</a>
</g>
</g>
<!-- CDigitalSurfaceContainer&#45;&gt;CCellularGridSpaceND -->
<g id="edge4" class="edge">
<title>CDigitalSurfaceContainer&#45;&gt;CCellularGridSpaceND</title>
<path fill="none" stroke="black" stroke-dasharray="5,2" d="M725.89,-217.52C656.16,-232.6 547.31,-256.14 474.85,-271.81"/>
<polygon fill="black" stroke="black" points="473.91,-268.43 464.88,-273.97 475.39,-275.28 473.91,-268.43"/>
<text text-anchor="middle" x="632.5" y="-241.8" font-family="Times,serif" font-size="14.00">use</text>
</g>
<!-- CDigitalSurfaceTracker&#45;&gt;boost_CopyConstructible -->
<g id="edge2" class="edge">
<title>CDigitalSurfaceTracker&#45;&gt;boost_CopyConstructible</title>
<path fill="none" stroke="black" d="M851.12,-305.53C876.21,-313.75 907.35,-324.16 935,-334 967.56,-345.58 1003.85,-359.3 1032.35,-370.26"/>
<polygon fill="black" stroke="black" points="1031.11,-373.53 1041.7,-373.87 1033.63,-367 1031.11,-373.53"/>
</g>
<!-- CDomainAdjacency -->
<g id="node8" class="node">
<title>CDomainAdjacency</title>
<g id="a_node8"><a xlink:href="structDGtal_1_1concepts_1_1CDomainAdjacency.html" target="_top" xlink:title="CDomainAdjacency">
<ellipse fill="white" stroke="white" cx="545" cy="-202" rx="100.18" ry="18"/>
<text text-anchor="middle" x="545" y="-198.3" font-family="Times,serif" font-size="14.00">CDomainAdjacency</text>
</a>
</g>
</g>
<!-- CAdjacency -->
<g id="node9" class="node">
<title>CAdjacency</title>
<g id="a_node9"><a xlink:href="structDGtal_1_1concepts_1_1CAdjacency.html" target="_top" xlink:title="CAdjacency">
<ellipse fill="white" stroke="white" cx="600" cy="-289" rx="64.19" ry="18"/>
<text text-anchor="middle" x="600" y="-285.3" font-family="Times,serif" font-size="14.00">CAdjacency</text>
</a>
</g>
</g>
<!-- CDomainAdjacency&#45;&gt;CAdjacency -->
<g id="edge8" class="edge">
<title>CDomainAdjacency&#45;&gt;CAdjacency</title>
<path fill="none" stroke="black" d="M556.13,-220.2C564.01,-232.38 574.71,-248.91 583.57,-262.6"/>
<polygon fill="black" stroke="black" points="580.7,-264.62 589.07,-271.11 586.58,-260.82 580.7,-264.62"/>
</g>
<!-- CAdjacency&#45;&gt;CUndirectedSimpleLocalGraph -->
<g id="edge7" class="edge">
<title>CAdjacency&#45;&gt;CUndirectedSimpleLocalGraph</title>
<path fill="none" stroke="black" d="M631.79,-304.88C691.38,-332.05 824.56,-389.45 943,-417 1038.75,-439.28 1148.54,-450.77 1235.35,-456.69"/>
<polygon fill="black" stroke="black" points="1235.34,-460.2 1245.55,-457.37 1235.81,-453.22 1235.34,-460.2"/>
</g>
<!-- CPreCellularGridSpaceND -->
<g id="node11" class="node">
<title>CPreCellularGridSpaceND</title>
<g id="a_node11"><a xlink:href="structDGtal_1_1concepts_1_1CPreCellularGridSpaceND.html" target="_top" xlink:title="CPreCellularGridSpaceND">
<ellipse fill="white" stroke="white" cx="416" cy="-391" rx="133.78" ry="18"/>
<text text-anchor="middle" x="416" y="-387.3" font-family="Times,serif" font-size="14.00">CPreCellularGridSpaceND</text>
</a>
</g>
</g>
<!-- CCellularGridSpaceND&#45;&gt;CPreCellularGridSpaceND -->
<g id="edge9" class="edge">
<title>CCellularGridSpaceND&#45;&gt;CPreCellularGridSpaceND</title>
<path fill="none" stroke="black" d="M402.79,-307.42C405.22,-322.62 408.79,-344.93 411.61,-362.54"/>
<polygon fill="black" stroke="black" points="408.21,-363.46 413.24,-372.78 415.12,-362.35 408.21,-363.46"/>
</g>
<!-- MetricAdjacency -->
<g id="node12" class="node">
<title>MetricAdjacency</title>
<g id="a_node12"><a xlink:href="classDGtal_1_1MetricAdjacency.html" target="_top" xlink:title="MetricAdjacency">
<ellipse fill="white" stroke="white" cx="594" cy="-88" rx="88.28" ry="18"/>
<text text-anchor="middle" x="594" y="-84.3" font-family="Times,serif" font-size="14.00">MetricAdjacency</text>
</a>
</g>
</g>
<!-- MetricAdjacency&#45;&gt;CAdjacency -->
<g id="edge12" class="edge">
<title>MetricAdjacency&#45;&gt;CAdjacency</title>
<path fill="none" stroke="black" d="M550.48,-103.82C506.1,-119.36 442.8,-142.91 436,-153 419.36,-177.69 419.46,-195.24 436,-220 448.9,-239.32 503.48,-259.47 546.18,-272.77"/>
<polygon fill="black" stroke="black" points="545.33,-276.17 555.92,-275.75 547.38,-269.47 545.33,-276.17"/>
</g>
<!-- DomainAdjacency -->
<g id="node13" class="node">
<title>DomainAdjacency</title>
<g id="a_node13"><a xlink:href="classDGtal_1_1DomainAdjacency.html" target="_top" xlink:title="DomainAdjacency">
<ellipse fill="white" stroke="white" cx="793" cy="-88" rx="92.88" ry="18"/>
<text text-anchor="middle" x="793" y="-84.3" font-family="Times,serif" font-size="14.00">DomainAdjacency</text>
</a>
</g>
</g>
<!-- DomainAdjacency&#45;&gt;CDomainAdjacency -->
<g id="edge13" class="edge">
<title>DomainAdjacency&#45;&gt;CDomainAdjacency</title>
<path fill="none" stroke="black" d="M757.99,-104.81C713.81,-124.76 637.76,-159.11 589.49,-180.91"/>
<polygon fill="black" stroke="black" points="587.9,-177.78 580.23,-185.09 590.78,-184.16 587.9,-177.78"/>
</g>
<!-- DigitalSurface -->
<g id="node14" class="node">
<title>DigitalSurface</title>
<g id="a_node14"><a xlink:href="classDGtal_1_1DigitalSurface.html" target="_top" xlink:title="DigitalSurface">
<ellipse fill="white" stroke="white" cx="1228" cy="-88" rx="77.19" ry="18"/>
<text text-anchor="middle" x="1228" y="-84.3" font-family="Times,serif" font-size="14.00">DigitalSurface</text>
</a>
</g>
</g>
<!-- DigitalSurface&#45;&gt;CUndirectedSimpleGraph -->
<g id="edge14" class="edge">
<title>DigitalSurface&#45;&gt;CUndirectedSimpleGraph</title>
<path fill="none" stroke="black" d="M1235.81,-106.05C1258.77,-156.11 1326.12,-303.01 1353.85,-363.5"/>
<polygon fill="black" stroke="black" points="1350.75,-365.14 1358.1,-372.77 1357.11,-362.22 1350.75,-365.14"/>
</g>
<!-- DigitalSurface&#45;&gt;CDigitalSurfaceContainer -->
<g id="edge15" class="edge">
<title>DigitalSurface&#45;&gt;CDigitalSurfaceContainer</title>
<path fill="none" stroke="black" stroke-dasharray="5,2" d="M1191.99,-103.95C1176.47,-110.06 1158.01,-116.87 1141,-122 1052.38,-148.72 948.67,-171.16 877.67,-185.22"/>
<polygon fill="black" stroke="black" points="876.57,-181.86 867.44,-187.23 877.92,-188.73 876.57,-181.86"/>
<text text-anchor="middle" x="1125.5" y="-133.8" font-family="Times,serif" font-size="14.00">use</text>
</g>
<!-- IndexedDigitalSurface -->
<g id="node15" class="node">
<title>IndexedDigitalSurface</title>
<g id="a_node15"><a xlink:href="classDGtal_1_1IndexedDigitalSurface.html" target="_top" xlink:title="IndexedDigitalSurface">
<ellipse fill="white" stroke="white" cx="1018" cy="-88" rx="114.28" ry="18"/>
<text text-anchor="middle" x="1018" y="-84.3" font-family="Times,serif" font-size="14.00">IndexedDigitalSurface</text>
</a>
</g>
</g>
<!-- IndexedDigitalSurface&#45;&gt;CUndirectedSimpleGraph -->
<g id="edge16" class="edge">
<title>IndexedDigitalSurface&#45;&gt;CUndirectedSimpleGraph</title>
<path fill="none" stroke="black" d="M1037.46,-105.83C1096.05,-156.51 1270.97,-307.8 1338.75,-366.43"/>
<polygon fill="black" stroke="black" points="1336.61,-369.21 1346.47,-373.1 1341.19,-363.92 1336.61,-369.21"/>
</g>
<!-- IndexedDigitalSurface&#45;&gt;CDigitalSurfaceContainer -->
<g id="edge17" class="edge">
<title>IndexedDigitalSurface&#45;&gt;CDigitalSurfaceContainer</title>
<path fill="none" stroke="black" stroke-dasharray="5,2" d="M985.28,-105.29C945.65,-125.01 878.81,-158.28 835.3,-179.94"/>
<polygon fill="black" stroke="black" points="833.52,-176.92 826.12,-184.51 836.63,-183.19 833.52,-176.92"/>
<text text-anchor="middle" x="944.5" y="-133.8" font-family="Times,serif" font-size="14.00">use</text>
</g>
<!-- Object -->
<g id="node16" class="node">
<title>Object</title>
<g id="a_node16"><a xlink:href="classDGtal_1_1Object.html" target="_top" xlink:title="Object">
<ellipse fill="white" stroke="white" cx="1364" cy="-88" rx="40.89" ry="18"/>
<text text-anchor="middle" x="1364" y="-84.3" font-family="Times,serif" font-size="14.00">Object</text>
</a>
</g>
</g>
<!-- Object&#45;&gt;CUndirectedSimpleGraph -->
<g id="edge10" class="edge">
<title>Object&#45;&gt;CUndirectedSimpleGraph</title>
<path fill="none" stroke="black" d="M1364.11,-106.05C1364.44,-155.91 1365.41,-301.8 1365.82,-362.75"/>
<polygon fill="black" stroke="black" points="1362.32,-362.79 1365.89,-372.77 1369.32,-362.75 1362.32,-362.79"/>
</g>
<!-- Object&#45;&gt;CDigitalSet -->
<g id="edge11" class="edge">
<title>Object&#45;&gt;CDigitalSet</title>
<path fill="none" stroke="black" stroke-dasharray="5,2" d="M1378.46,-105.18C1422.97,-154.98 1558.06,-306.15 1611.2,-365.61"/>
<polygon fill="black" stroke="black" points="1608.86,-368.24 1618.14,-373.37 1614.08,-363.58 1608.86,-368.24"/>
<text text-anchor="middle" x="1522.5" y="-241.8" font-family="Times,serif" font-size="14.00">use</text>
</g>
<!-- KhalimskySpaceND -->
<g id="node17" class="node">
<title>KhalimskySpaceND</title>
<g id="a_node17"><a xlink:href="classDGtal_1_1KhalimskySpaceND.html" target="_top" xlink:title="KhalimskySpaceND">
<ellipse fill="white" stroke="white" cx="380" cy="-88" rx="102.08" ry="18"/>
<text text-anchor="middle" x="380" y="-84.3" font-family="Times,serif" font-size="14.00">KhalimskySpaceND</text>
</a>
</g>
</g>
<!-- KhalimskySpaceND&#45;&gt;CCellularGridSpaceND -->
<g id="edge18" class="edge">
<title>KhalimskySpaceND&#45;&gt;CCellularGridSpaceND</title>
<path fill="none" stroke="black" d="M381.74,-106.31C385.23,-141.02 393.1,-219.34 397.28,-260.9"/>
<polygon fill="black" stroke="black" points="393.8,-261.27 398.28,-270.87 400.76,-260.57 393.8,-261.27"/>
</g>
<!-- KhalimskyPreSpaceND -->
<g id="node18" class="node">
<title>KhalimskyPreSpaceND</title>
<g id="a_node18"><a xlink:href="classDGtal_1_1KhalimskyPreSpaceND.html" target="_top" xlink:title="KhalimskyPreSpaceND">
<ellipse fill="white" stroke="white" cx="142" cy="-88" rx="118.08" ry="18"/>
<text text-anchor="middle" x="142" y="-84.3" font-family="Times,serif" font-size="14.00">KhalimskyPreSpaceND</text>
</a>
</g>
</g>
<!-- KhalimskyPreSpaceND&#45;&gt;CPreCellularGridSpaceND -->
<g id="edge19" class="edge">
<title>KhalimskyPreSpaceND&#45;&gt;CPreCellularGridSpaceND</title>
<path fill="none" stroke="black" d="M148.79,-106.24C165.07,-145.85 209.77,-244.72 273,-307 300.13,-333.72 337.53,-355.03 367.29,-369.37"/>
<polygon fill="black" stroke="black" points="366.11,-372.69 376.65,-373.78 369.1,-366.35 366.11,-372.69"/>
</g>
</g>
</svg>
