<?xml version="1.0" encoding="UTF-8" standalone="no"?>
<!DOCTYPE svg PUBLIC "-//W3C//DTD SVG 1.1//EN"
 "http://www.w3.org/Graphics/SVG/1.1/DTD/svg11.dtd">
<!-- Generated by graphviz version 2.43.0 (0)
 -->
<!-- Title: Graphical Class Hierarchy Pages: 1 -->
<svg width="513pt" height="83pt"
 viewBox="0.00 0.00 513.00 83.00" xmlns="http://www.w3.org/2000/svg" xmlns:xlink="http://www.w3.org/1999/xlink">
<g id="graph0" class="graph" transform="scale(1 1) rotate(0) translate(4 79)">
<title>Graphical Class Hierarchy</title>
<polygon fill="white" stroke="transparent" points="-4,4 -4,-79 509,-79 509,4 -4,4"/>
<!-- Node0 -->
<g id="node1" class="node">
<title>Node0</title>
<g id="a_node1"><a xlink:href="classDGtal_1_1LambdaMST3DEstimator.html" target="_top" xlink:title=" ">
<polygon fill="white" stroke="black" points="0,-0.5 0,-74.5 302,-74.5 302,-0.5 0,-0.5"/>
<text text-anchor="start" x="8" y="-62.5" font-family="FreeSans" font-size="10.00">DGtal::LambdaMST3DEstimator</text>
<text text-anchor="start" x="8" y="-51.5" font-family="FreeSans" font-size="10.00">&lt; Z3i::Space, DSSSegmentationComputer,</text>
<text text-anchor="start" x="8" y="-40.5" font-family="FreeSans" font-size="10.00"> TangentFromDSS3DFunctor&lt; DSSSegmentationComputer</text>
<text text-anchor="start" x="8" y="-29.5" font-family="FreeSans" font-size="10.00">::SegmentComputer, functors::Lambda64Function</text>
<text text-anchor="start" x="8" y="-18.5" font-family="FreeSans" font-size="10.00"> &gt;, DSSMuteFilter&lt; typename DSSSegmentationComputer</text>
<text text-anchor="middle" x="151" y="-7.5" font-family="FreeSans" font-size="10.00">::SegmentComputer &gt; &gt;</text>
</a>
</g>
</g>
<!-- Node1 -->
<g id="node2" class="node">
<title>Node1</title>
<g id="a_node2"><a xlink:href="classDGtal_1_1LambdaMST3D.html" target="_top" xlink:title="Aim: Simplify creation of Lambda MST tangent estimator.">
<polygon fill="white" stroke="black" points="338,-17 338,-58 505,-58 505,-17 338,-17"/>
<text text-anchor="start" x="346" y="-46" font-family="FreeSans" font-size="10.00">DGtal::LambdaMST3D</text>
<text text-anchor="start" x="346" y="-35" font-family="FreeSans" font-size="10.00">&lt; DSSSegmentationComputer,</text>
<text text-anchor="middle" x="421.5" y="-24" font-family="FreeSans" font-size="10.00"> LambdaFunction, DSSFilter &gt;</text>
</a>
</g>
</g>
<!-- Node0&#45;&gt;Node1 -->
<g id="edge1" class="edge">
<title>Node0&#45;&gt;Node1</title>
<path fill="none" stroke="midnightblue" d="M312.5,-37.5C321.11,-37.5 329.56,-37.5 337.72,-37.5"/>
<polygon fill="midnightblue" stroke="midnightblue" points="312.34,-34 302.34,-37.5 312.34,-41 312.34,-34"/>
</g>
</g>
</svg>
