<?xml version="1.0" encoding="UTF-8" standalone="no"?>
<!DOCTYPE svg PUBLIC "-//W3C//DTD SVG 1.1//EN"
 "http://www.w3.org/Graphics/SVG/1.1/DTD/svg11.dtd">
<!-- Generated by graphviz version 2.43.0 (0)
 -->
<!-- Title: Graphical Class Hierarchy Pages: 1 -->
<svg width="302pt" height="39pt"
 viewBox="0.00 0.00 302.00 39.00" xmlns="http://www.w3.org/2000/svg" xmlns:xlink="http://www.w3.org/1999/xlink">
<g id="graph0" class="graph" transform="scale(1 1) rotate(0) translate(4 35)">
<title>Graphical Class Hierarchy</title>
<polygon fill="white" stroke="transparent" points="-4,4 -4,-35 298,-35 298,4 -4,4"/>
<!-- Node148 -->
<g id="node1" class="node">
<title>Node148</title>
<g id="a_node1"><a xlink:title=" ">
<polygon fill="white" stroke="#bfbfbf" points="0,-0.5 0,-30.5 112,-30.5 112,-0.5 0,-0.5"/>
<text text-anchor="start" x="8" y="-18.5" font-family="FreeSans" font-size="10.00">boost::bidirectional</text>
<text text-anchor="middle" x="56" y="-7.5" font-family="FreeSans" font-size="10.00">_iterator_archetype</text>
</a>
</g>
</g>
<!-- Node0 -->
<g id="node2" class="node">
<title>Node0</title>
<g id="a_node2"><a xlink:href="structDGtal_1_1CConstBidirectionalIteratorArchetype.html" target="_top" xlink:title="An archetype of ConstBidirectionalIterator.">
<polygon fill="white" stroke="black" points="148,-0.5 148,-30.5 294,-30.5 294,-0.5 148,-0.5"/>
<text text-anchor="start" x="156" y="-18.5" font-family="FreeSans" font-size="10.00">DGtal::CConstBidirectional</text>
<text text-anchor="middle" x="221" y="-7.5" font-family="FreeSans" font-size="10.00">IteratorArchetype&lt; T &gt;</text>
</a>
</g>
</g>
<!-- Node148&#45;&gt;Node0 -->
<g id="edge1" class="edge">
<title>Node148&#45;&gt;Node0</title>
<path fill="none" stroke="midnightblue" d="M122.29,-15.5C130.68,-15.5 139.32,-15.5 147.82,-15.5"/>
<polygon fill="midnightblue" stroke="midnightblue" points="122.18,-12 112.18,-15.5 122.18,-19 122.18,-12"/>
</g>
</g>
</svg>
