<?xml version="1.0" encoding="UTF-8" standalone="no"?>
<!DOCTYPE svg PUBLIC "-//W3C//DTD SVG 1.1//EN"
 "http://www.w3.org/Graphics/SVG/1.1/DTD/svg11.dtd">
<!-- Generated by graphviz version 2.43.0 (0)
 -->
<!-- Title: Graphical Class Hierarchy Pages: 1 -->
<svg width="470pt" height="142pt"
 viewBox="0.00 0.00 470.00 142.00" xmlns="http://www.w3.org/2000/svg" xmlns:xlink="http://www.w3.org/1999/xlink">
<g id="graph0" class="graph" transform="scale(1 1) rotate(0) translate(4 138)">
<title>Graphical Class Hierarchy</title>
<polygon fill="white" stroke="transparent" points="-4,4 -4,-138 466,-138 466,4 -4,4"/>
<!-- Node0 -->
<g id="node1" class="node">
<title>Node0</title>
<g id="a_node1"><a xlink:href="structLibBoard_1_1Transform.html" target="_top" xlink:title="base class for transforms.">
<polygon fill="white" stroke="black" points="0,-57.5 0,-76.5 114,-76.5 114,-57.5 0,-57.5"/>
<text text-anchor="middle" x="57" y="-64.5" font-family="FreeSans" font-size="10.00">LibBoard::Transform</text>
</a>
</g>
</g>
<!-- Node1 -->
<g id="node2" class="node">
<title>Node1</title>
<g id="a_node2"><a xlink:href="structLibBoard_1_1TransformCairo.html" target="_top" xlink:title="Structure representing a scaling and translation suitable for an Cairo output.">
<polygon fill="white" stroke="black" points="150,-114.5 150,-133.5 290,-133.5 290,-114.5 150,-114.5"/>
<text text-anchor="middle" x="220" y="-121.5" font-family="FreeSans" font-size="10.00">LibBoard::TransformCairo</text>
</a>
</g>
</g>
<!-- Node0&#45;&gt;Node1 -->
<g id="edge1" class="edge">
<title>Node0&#45;&gt;Node1</title>
<path fill="none" stroke="midnightblue" d="M88.2,-80.58C105.99,-88.29 129.03,-97.81 150,-105 159.99,-108.42 170.95,-111.67 181.14,-114.48"/>
<polygon fill="midnightblue" stroke="midnightblue" points="89.48,-77.31 78.91,-76.5 86.66,-83.72 89.48,-77.31"/>
</g>
<!-- Node2 -->
<g id="node3" class="node">
<title>Node2</title>
<g id="a_node3"><a xlink:href="structLibBoard_1_1TransformEPS.html" target="_top" xlink:title="Structure representing a scaling and translation suitable for an EPS output.">
<polygon fill="white" stroke="black" points="154,-76.5 154,-95.5 286,-95.5 286,-76.5 154,-76.5"/>
<text text-anchor="middle" x="220" y="-83.5" font-family="FreeSans" font-size="10.00">LibBoard::TransformEPS</text>
</a>
</g>
</g>
<!-- Node0&#45;&gt;Node2 -->
<g id="edge2" class="edge">
<title>Node0&#45;&gt;Node2</title>
<path fill="none" stroke="midnightblue" d="M124.35,-74.83C134.11,-75.98 144.16,-77.17 153.9,-78.32"/>
<polygon fill="midnightblue" stroke="midnightblue" points="124.65,-71.34 114.31,-73.65 123.83,-78.29 124.65,-71.34"/>
</g>
<!-- Node3 -->
<g id="node4" class="node">
<title>Node3</title>
<g id="a_node4"><a xlink:href="structLibBoard_1_1TransformFIG.html" target="_top" xlink:title="Structure representing a scaling and translation suitable for an XFig output.">
<polygon fill="white" stroke="black" points="154.5,-38.5 154.5,-57.5 285.5,-57.5 285.5,-38.5 154.5,-38.5"/>
<text text-anchor="middle" x="220" y="-45.5" font-family="FreeSans" font-size="10.00">LibBoard::TransformFIG</text>
</a>
</g>
</g>
<!-- Node0&#45;&gt;Node3 -->
<g id="edge3" class="edge">
<title>Node0&#45;&gt;Node3</title>
<path fill="none" stroke="midnightblue" d="M124.5,-59.15C134.4,-57.98 144.59,-56.78 154.45,-55.62"/>
<polygon fill="midnightblue" stroke="midnightblue" points="123.83,-55.71 114.31,-60.35 124.65,-62.66 123.83,-55.71"/>
</g>
<!-- Node4 -->
<g id="node5" class="node">
<title>Node4</title>
<g id="a_node5"><a xlink:href="structLibBoard_1_1TransformSVG.html" target="_top" xlink:title="Structure representing a scaling and translation suitable for an SVG output.">
<polygon fill="white" stroke="black" points="153,-0.5 153,-19.5 287,-19.5 287,-0.5 153,-0.5"/>
<text text-anchor="middle" x="220" y="-7.5" font-family="FreeSans" font-size="10.00">LibBoard::TransformSVG</text>
</a>
</g>
</g>
<!-- Node0&#45;&gt;Node4 -->
<g id="edge4" class="edge">
<title>Node0&#45;&gt;Node4</title>
<path fill="none" stroke="midnightblue" d="M88.2,-53.42C105.99,-45.71 129.03,-36.19 150,-29 159.99,-25.58 170.95,-22.33 181.14,-19.52"/>
<polygon fill="midnightblue" stroke="midnightblue" points="86.66,-50.28 78.91,-57.5 89.48,-56.69 86.66,-50.28"/>
</g>
<!-- Node5 -->
<g id="node6" class="node">
<title>Node5</title>
<g id="a_node6"><a xlink:href="structLibBoard_1_1TransformTikZ.html" target="_top" xlink:title="Structure representing a scaling and translation suitable for an TikZ output.">
<polygon fill="white" stroke="black" points="326,-0.5 326,-19.5 462,-19.5 462,-0.5 326,-0.5"/>
<text text-anchor="middle" x="394" y="-7.5" font-family="FreeSans" font-size="10.00">LibBoard::TransformTikZ</text>
</a>
</g>
</g>
<!-- Node4&#45;&gt;Node5 -->
<g id="edge5" class="edge">
<title>Node4&#45;&gt;Node5</title>
<path fill="none" stroke="midnightblue" d="M297.23,-10C306.73,-10 316.39,-10 325.75,-10"/>
<polygon fill="midnightblue" stroke="midnightblue" points="297.01,-6.5 287.01,-10 297.01,-13.5 297.01,-6.5"/>
</g>
</g>
</svg>
