<?xml version="1.0" encoding="UTF-8" standalone="no"?>
<!DOCTYPE svg PUBLIC "-//W3C//DTD SVG 1.1//EN"
 "http://www.w3.org/Graphics/SVG/1.1/DTD/svg11.dtd">
<!-- Generated by graphviz version 2.43.0 (0)
 -->
<!-- Title: Graphical Class Hierarchy Pages: 1 -->
<svg width="394pt" height="110pt"
 viewBox="0.00 0.00 394.00 110.00" xmlns="http://www.w3.org/2000/svg" xmlns:xlink="http://www.w3.org/1999/xlink">
<g id="graph0" class="graph" transform="scale(1 1) rotate(0) translate(4 106)">
<title>Graphical Class Hierarchy</title>
<polygon fill="white" stroke="transparent" points="-4,4 -4,-106 390,-106 390,4 -4,4"/>
<!-- Node0 -->
<g id="node1" class="node">
<title>Node0</title>
<g id="a_node1"><a xlink:href="structDGtal_1_1ConvexHullCommonKernel.html" target="_top" xlink:title=" ">
<polygon fill="white" stroke="black" points="0,-30.5 0,-71.5 182,-71.5 182,-30.5 0,-30.5"/>
<text text-anchor="start" x="8" y="-59.5" font-family="FreeSans" font-size="10.00">DGtal::ConvexHullCommonKernel</text>
<text text-anchor="start" x="8" y="-48.5" font-family="FreeSans" font-size="10.00">&lt; dim+1, DGtal::int64_t,</text>
<text text-anchor="middle" x="91" y="-37.5" font-family="FreeSans" font-size="10.00"> DGtal::int64_t &gt;</text>
</a>
</g>
</g>
<!-- Node1 -->
<g id="node2" class="node">
<title>Node1</title>
<g id="a_node2"><a xlink:href="structDGtal_1_1DelaunayIntegralKernel.html" target="_top" xlink:title="Aim: a geometric kernel to compute the Delaunay triangulation of digital points with integer&#45;only ari...">
<polygon fill="white" stroke="black" points="219.5,-60.5 219.5,-101.5 384.5,-101.5 384.5,-60.5 219.5,-60.5"/>
<text text-anchor="start" x="227.5" y="-89.5" font-family="FreeSans" font-size="10.00">DGtal::DelaunayIntegralKernel</text>
<text text-anchor="start" x="227.5" y="-78.5" font-family="FreeSans" font-size="10.00">&lt; dim, TCoordinateInteger,</text>
<text text-anchor="middle" x="302" y="-67.5" font-family="FreeSans" font-size="10.00"> TInternalInteger &gt;</text>
</a>
</g>
</g>
<!-- Node0&#45;&gt;Node1 -->
<g id="edge1" class="edge">
<title>Node0&#45;&gt;Node1</title>
<path fill="none" stroke="midnightblue" d="M192.06,-65.36C201.21,-66.68 210.42,-68 219.38,-69.28"/>
<polygon fill="midnightblue" stroke="midnightblue" points="192.55,-61.9 182.15,-63.94 191.55,-68.83 192.55,-61.9"/>
</g>
<!-- Node2 -->
<g id="node3" class="node">
<title>Node2</title>
<g id="a_node3"><a xlink:href="structDGtal_1_1DelaunayRationalKernel.html" target="_top" xlink:title="Aim: a geometric kernel to compute the Delaunay triangulation of a range of floating points with inte...">
<polygon fill="white" stroke="black" points="218,-0.5 218,-41.5 386,-41.5 386,-0.5 218,-0.5"/>
<text text-anchor="start" x="226" y="-29.5" font-family="FreeSans" font-size="10.00">DGtal::DelaunayRationalKernel</text>
<text text-anchor="start" x="226" y="-18.5" font-family="FreeSans" font-size="10.00">&lt; dim, TCoordinateInteger,</text>
<text text-anchor="middle" x="302" y="-7.5" font-family="FreeSans" font-size="10.00"> TInternalInteger &gt;</text>
</a>
</g>
</g>
<!-- Node0&#45;&gt;Node2 -->
<g id="edge2" class="edge">
<title>Node0&#45;&gt;Node2</title>
<path fill="none" stroke="midnightblue" d="M192.17,-36.62C200.73,-35.39 209.33,-34.16 217.74,-32.95"/>
<polygon fill="midnightblue" stroke="midnightblue" points="191.55,-33.17 182.15,-38.06 192.55,-40.1 191.55,-33.17"/>
</g>
</g>
</svg>
