<?xml version="1.0" encoding="UTF-8" standalone="no"?>
<!DOCTYPE svg PUBLIC "-//W3C//DTD SVG 1.1//EN"
 "http://www.w3.org/Graphics/SVG/1.1/DTD/svg11.dtd">
<!-- Generated by graphviz version 2.43.0 (0)
 -->
<!-- Title: DGtal::NumberTraitsImpl&lt; T, Enable &gt; Pages: 1 -->
<svg width="225pt" height="263pt"
 viewBox="0.00 0.00 225.00 263.00" xmlns="http://www.w3.org/2000/svg" xmlns:xlink="http://www.w3.org/1999/xlink">
<g id="graph0" class="graph" transform="scale(1 1) rotate(0) translate(4 259)">
<title>DGtal::NumberTraitsImpl&lt; T, Enable &gt;</title>
<polygon fill="white" stroke="transparent" points="-4,4 -4,-259 221,-259 221,4 -4,4"/>
<!-- Node1 -->
<g id="node1" class="node">
<title>Node1</title>
<g id="a_node1"><a xlink:title="Aim: The traits class for all models of Cinteger (implementation)">
<polygon fill="#bfbfbf" stroke="black" points="6.5,-224.5 6.5,-254.5 143.5,-254.5 143.5,-224.5 6.5,-224.5"/>
<text text-anchor="start" x="14.5" y="-242.5" font-family="FreeSans" font-size="10.00">DGtal::NumberTraitsImpl</text>
<text text-anchor="middle" x="75" y="-231.5" font-family="FreeSans" font-size="10.00">&lt; T, Enable &gt;</text>
</a>
</g>
</g>
<!-- Node2 -->
<g id="node2" class="node">
<title>Node2</title>
<g id="a_node2"><a xlink:href="structDGtal_1_1NumberTraits.html" target="_top" xlink:title=" ">
<polygon fill="white" stroke="black" points="0,-0.5 0,-30.5 116,-30.5 116,-0.5 0,-0.5"/>
<text text-anchor="start" x="8" y="-18.5" font-family="FreeSans" font-size="10.00">DGtal::NumberTraits</text>
<text text-anchor="middle" x="58" y="-7.5" font-family="FreeSans" font-size="10.00">&lt; TInteger &gt;</text>
</a>
</g>
</g>
<!-- Node1&#45;&gt;Node2 -->
<g id="edge1" class="edge">
<title>Node1&#45;&gt;Node2</title>
<path fill="none" stroke="midnightblue" d="M69.32,-214.59C66.24,-200.53 62.73,-182.36 61,-166 55.76,-116.43 56.69,-57.12 57.49,-30.57"/>
<polygon fill="midnightblue" stroke="midnightblue" points="65.92,-215.46 71.54,-224.44 72.75,-213.91 65.92,-215.46"/>
</g>
<!-- Node3 -->
<g id="node3" class="node">
<title>Node3</title>
<g id="a_node3"><a xlink:href="structDGtal_1_1NumberTraitsImpl.html" target="_top" xlink:title=" ">
<polygon fill="white" stroke="black" points="70,-135.5 70,-165.5 216,-165.5 216,-135.5 70,-135.5"/>
<text text-anchor="start" x="78" y="-153.5" font-family="FreeSans" font-size="10.00">DGtal::NumberTraitsImpl</text>
<text text-anchor="middle" x="143" y="-142.5" font-family="FreeSans" font-size="10.00">&lt; std::decay&lt; T &gt;::type &gt;</text>
</a>
</g>
</g>
<!-- Node1&#45;&gt;Node3 -->
<g id="edge2" class="edge">
<title>Node1&#45;&gt;Node3</title>
<path fill="none" stroke="orange" stroke-dasharray="5,2" d="M92.68,-215.88C105.11,-199.97 121.36,-179.19 131.98,-165.6"/>
<polygon fill="orange" stroke="orange" points="89.63,-214.1 86.23,-224.13 95.14,-218.41 89.63,-214.1"/>
<text text-anchor="start" x="117" y="-198" font-family="FreeSans" font-size="10.00"> &lt; std::decay&lt; T &gt;::</text>
<text text-anchor="middle" x="167" y="-187" font-family="FreeSans" font-size="10.00">type &gt;</text>
</g>
<!-- Node4 -->
<g id="node4" class="node">
<title>Node4</title>
<g id="a_node4"><a xlink:href="structDGtal_1_1NumberTraits.html" target="_top" xlink:title="Aim: The traits class for all models of Cinteger.">
<polygon fill="white" stroke="black" points="70,-78.5 70,-97.5 214,-97.5 214,-78.5 70,-78.5"/>
<text text-anchor="middle" x="142" y="-85.5" font-family="FreeSans" font-size="10.00">DGtal::NumberTraits&lt; T &gt;</text>
</a>
</g>
</g>
<!-- Node3&#45;&gt;Node4 -->
<g id="edge3" class="edge">
<title>Node3&#45;&gt;Node4</title>
<path fill="none" stroke="midnightblue" d="M142.6,-125.35C142.44,-115.51 142.26,-104.78 142.14,-97.54"/>
<polygon fill="midnightblue" stroke="midnightblue" points="139.1,-125.53 142.77,-135.47 146.1,-125.41 139.1,-125.53"/>
</g>
<!-- Node4&#45;&gt;Node2 -->
<g id="edge4" class="edge">
<title>Node4&#45;&gt;Node2</title>
<path fill="none" stroke="orange" stroke-dasharray="5,2" d="M123.87,-71.78C109.29,-59.55 88.98,-42.5 74.77,-30.58"/>
<polygon fill="orange" stroke="orange" points="121.79,-74.61 131.7,-78.36 126.29,-69.25 121.79,-74.61"/>
<text text-anchor="middle" x="140.5" y="-52" font-family="FreeSans" font-size="10.00"> &lt; TInteger &gt;</text>
</g>
</g>
</svg>
