<?xml version="1.0" encoding="UTF-8" standalone="no"?>
<!DOCTYPE svg PUBLIC "-//W3C//DTD SVG 1.1//EN"
 "http://www.w3.org/Graphics/SVG/1.1/DTD/svg11.dtd">
<!-- Generated by graphviz version 2.43.0 (0)
 -->
<!-- Title: DGtal::IntersectionTargetTrait&lt; TSpace, TSeparation, TDimension &gt; Pages: 1 -->
<svg width="163pt" height="128pt"
 viewBox="0.00 0.00 163.00 128.00" xmlns="http://www.w3.org/2000/svg" xmlns:xlink="http://www.w3.org/1999/xlink">
<g id="graph0" class="graph" transform="scale(1 1) rotate(0) translate(4 124)">
<title>DGtal::IntersectionTargetTrait&lt; TSpace, TSeparation, TDimension &gt;</title>
<polygon fill="white" stroke="transparent" points="-4,4 -4,-124 159,-124 159,4 -4,4"/>
<!-- Node1 -->
<g id="node1" class="node">
<title>Node1</title>
<g id="a_node1"><a xlink:title="Aim: A class for intersection target used for voxelization.">
<polygon fill="#bfbfbf" stroke="black" points="0,-78.5 0,-119.5 152,-119.5 152,-78.5 0,-78.5"/>
<text text-anchor="start" x="8" y="-107.5" font-family="FreeSans" font-size="10.00">DGtal::IntersectionTarget</text>
<text text-anchor="start" x="8" y="-96.5" font-family="FreeSans" font-size="10.00">Trait&lt; TSpace, TSeparation,</text>
<text text-anchor="middle" x="76" y="-85.5" font-family="FreeSans" font-size="10.00"> TDimension &gt;</text>
</a>
</g>
</g>
<!-- Node2 -->
<g id="node2" class="node">
<title>Node2</title>
<g id="a_node2"><a xlink:href="structDGtal_1_1IntersectionTargetTrait.html" target="_top" xlink:title=" ">
<polygon fill="white" stroke="black" points="7,-0.5 7,-30.5 145,-30.5 145,-0.5 7,-0.5"/>
<text text-anchor="start" x="15" y="-18.5" font-family="FreeSans" font-size="10.00">DGtal::IntersectionTarget</text>
<text text-anchor="middle" x="76" y="-7.5" font-family="FreeSans" font-size="10.00">Trait&lt; Space, 6, 1 &gt;</text>
</a>
</g>
</g>
<!-- Node1&#45;&gt;Node2 -->
<g id="edge1" class="edge">
<title>Node1&#45;&gt;Node2</title>
<path fill="none" stroke="orange" stroke-dasharray="5,2" d="M76,-68.03C76,-55.26 76,-40.97 76,-30.68"/>
<polygon fill="orange" stroke="orange" points="72.5,-68.27 76,-78.27 79.5,-68.27 72.5,-68.27"/>
<text text-anchor="middle" x="115.5" y="-52" font-family="FreeSans" font-size="10.00"> &lt; Space, 6, 1 &gt;</text>
</g>
</g>
</svg>
