<?xml version="1.0" encoding="UTF-8" standalone="no"?>
<!DOCTYPE svg PUBLIC "-//W3C//DTD SVG 1.1//EN"
 "http://www.w3.org/Graphics/SVG/1.1/DTD/svg11.dtd">
<!-- Generated by graphviz version 2.43.0 (0)
 -->
<!-- Title: DGtal::Viewer3DFactory&lt; TSpace, TKSpace &gt; Pages: 1 -->
<svg width="179pt" height="196pt"
 viewBox="0.00 0.00 179.00 196.00" xmlns="http://www.w3.org/2000/svg" xmlns:xlink="http://www.w3.org/1999/xlink">
<g id="graph0" class="graph" transform="scale(1 1) rotate(0) translate(4 192)">
<title>DGtal::Viewer3DFactory&lt; TSpace, TKSpace &gt;</title>
<polygon fill="white" stroke="transparent" points="-4,4 -4,-192 175,-192 175,4 -4,4"/>
<!-- Node1 -->
<g id="node1" class="node">
<title>Node1</title>
<g id="a_node1"><a xlink:title="Factory for GPL Viewer3D:">
<polygon fill="#bfbfbf" stroke="black" points="10.5,-0.5 10.5,-30.5 143.5,-30.5 143.5,-0.5 10.5,-0.5"/>
<text text-anchor="start" x="18.5" y="-18.5" font-family="FreeSans" font-size="10.00">DGtal::Viewer3DFactory</text>
<text text-anchor="middle" x="77" y="-7.5" font-family="FreeSans" font-size="10.00">&lt; TSpace, TKSpace &gt;</text>
</a>
</g>
</g>
<!-- Node2 -->
<g id="node2" class="node">
<title>Node2</title>
<g id="a_node2"><a xlink:href="structDGtal_1_1Display3DFactory.html" target="_top" xlink:title=" ">
<polygon fill="white" stroke="black" points="0,-68.5 0,-98.5 154,-98.5 154,-68.5 0,-68.5"/>
<text text-anchor="start" x="8" y="-86.5" font-family="FreeSans" font-size="10.00">DGtal::Display3DFactory</text>
<text text-anchor="middle" x="77" y="-75.5" font-family="FreeSans" font-size="10.00">&lt; Z3i::Space, Z3i::KSpace &gt;</text>
</a>
</g>
</g>
<!-- Node2&#45;&gt;Node1 -->
<g id="edge1" class="edge">
<title>Node2&#45;&gt;Node1</title>
<path fill="none" stroke="midnightblue" d="M77,-58.03C77,-48.86 77,-38.74 77,-30.79"/>
<polygon fill="midnightblue" stroke="midnightblue" points="73.5,-58.18 77,-68.18 80.5,-58.18 73.5,-58.18"/>
</g>
<!-- Node3 -->
<g id="node3" class="node">
<title>Node3</title>
<g id="a_node3"><a xlink:href="structDGtal_1_1Display3DFactory.html" target="_top" xlink:title="Factory for GPL Display3D:">
<polygon fill="white" stroke="black" points="9,-157.5 9,-187.5 145,-187.5 145,-157.5 9,-157.5"/>
<text text-anchor="start" x="17" y="-175.5" font-family="FreeSans" font-size="10.00">DGtal::Display3DFactory</text>
<text text-anchor="middle" x="77" y="-164.5" font-family="FreeSans" font-size="10.00">&lt; TSpace, TKSpace &gt;</text>
</a>
</g>
</g>
<!-- Node3&#45;&gt;Node2 -->
<g id="edge2" class="edge">
<title>Node3&#45;&gt;Node2</title>
<path fill="none" stroke="orange" stroke-dasharray="5,2" d="M77,-147.09C77,-131.44 77,-111.68 77,-98.6"/>
<polygon fill="orange" stroke="orange" points="73.5,-147.13 77,-157.13 80.5,-147.13 73.5,-147.13"/>
<text text-anchor="start" x="77" y="-131" font-family="FreeSans" font-size="10.00"> &lt; Z3i::Space, Z3i::</text>
<text text-anchor="middle" x="124" y="-120" font-family="FreeSans" font-size="10.00">KSpace &gt;</text>
</g>
</g>
</svg>
