<?xml version="1.0" encoding="UTF-8" standalone="no"?>
<!DOCTYPE svg PUBLIC "-//W3C//DTD SVG 1.1//EN"
 "http://www.w3.org/Graphics/SVG/1.1/DTD/svg11.dtd">
<!-- Generated by graphviz version 2.43.0 (0)
 -->
<!-- Title: DGtal::UnorderedMapAssociativeCategory Pages: 1 -->
<svg width="757pt" height="127pt"
 viewBox="0.00 0.00 757.00 127.00" xmlns="http://www.w3.org/2000/svg" xmlns:xlink="http://www.w3.org/1999/xlink">
<g id="graph0" class="graph" transform="scale(1 1) rotate(0) translate(4 123)">
<title>DGtal::UnorderedMapAssociativeCategory</title>
<polygon fill="white" stroke="transparent" points="-4,4 -4,-123 753,-123 753,4 -4,4"/>
<!-- Node1 -->
<g id="node1" class="node">
<title>Node1</title>
<g id="a_node1"><a xlink:title=" ">
<polygon fill="#bfbfbf" stroke="black" points="570,-44.5 570,-74.5 749,-74.5 749,-44.5 570,-44.5"/>
<text text-anchor="start" x="578" y="-62.5" font-family="FreeSans" font-size="10.00">DGtal::UnorderedMapAssociative</text>
<text text-anchor="middle" x="659.5" y="-51.5" font-family="FreeSans" font-size="10.00">Category</text>
</a>
</g>
</g>
<!-- Node2 -->
<g id="node2" class="node">
<title>Node2</title>
<g id="a_node2"><a xlink:href="structDGtal_1_1UnorderedAssociativeCategory.html" target="_top" xlink:title=" ">
<polygon fill="white" stroke="black" points="370.5,-88.5 370.5,-118.5 528.5,-118.5 528.5,-88.5 370.5,-88.5"/>
<text text-anchor="start" x="378.5" y="-106.5" font-family="FreeSans" font-size="10.00">DGtal::UnorderedAssociative</text>
<text text-anchor="middle" x="449.5" y="-95.5" font-family="FreeSans" font-size="10.00">Category</text>
</a>
</g>
</g>
<!-- Node2&#45;&gt;Node1 -->
<g id="edge1" class="edge">
<title>Node2&#45;&gt;Node1</title>
<path fill="none" stroke="midnightblue" d="M531.36,-86.39C549.87,-82.48 569.41,-78.35 587.47,-74.53"/>
<polygon fill="midnightblue" stroke="midnightblue" points="530.56,-82.99 521.5,-88.48 532.01,-89.84 530.56,-82.99"/>
</g>
<!-- Node3 -->
<g id="node3" class="node">
<title>Node3</title>
<g id="a_node3"><a xlink:href="structDGtal_1_1AssociativeCategory.html" target="_top" xlink:title=" ">
<polygon fill="white" stroke="black" points="178,-50 178,-69 329,-69 329,-50 178,-50"/>
<text text-anchor="middle" x="253.5" y="-57" font-family="FreeSans" font-size="10.00">DGtal::AssociativeCategory</text>
</a>
</g>
</g>
<!-- Node3&#45;&gt;Node2 -->
<g id="edge2" class="edge">
<title>Node3&#45;&gt;Node2</title>
<path fill="none" stroke="midnightblue" d="M306.59,-71.31C329.79,-76.58 357.4,-82.84 382.08,-88.43"/>
<polygon fill="midnightblue" stroke="midnightblue" points="307.12,-67.85 296.6,-69.05 305.57,-74.67 307.12,-67.85"/>
</g>
<!-- Node5 -->
<g id="node5" class="node">
<title>Node5</title>
<g id="a_node5"><a xlink:href="structDGtal_1_1PairAssociativeCategory.html" target="_top" xlink:title=" ">
<polygon fill="white" stroke="black" points="365,-50 365,-69 534,-69 534,-50 365,-50"/>
<text text-anchor="middle" x="449.5" y="-57" font-family="FreeSans" font-size="10.00">DGtal::PairAssociativeCategory</text>
</a>
</g>
</g>
<!-- Node3&#45;&gt;Node5 -->
<g id="edge5" class="edge">
<title>Node3&#45;&gt;Node5</title>
<path fill="none" stroke="midnightblue" d="M339.41,-59.5C347.83,-59.5 356.37,-59.5 364.77,-59.5"/>
<polygon fill="midnightblue" stroke="midnightblue" points="339.23,-56 329.23,-59.5 339.23,-63 339.23,-56"/>
</g>
<!-- Node6 -->
<g id="node6" class="node">
<title>Node6</title>
<g id="a_node6"><a xlink:href="structDGtal_1_1UniqueAssociativeCategory.html" target="_top" xlink:title=" ">
<polygon fill="white" stroke="black" points="379,-0.5 379,-30.5 520,-30.5 520,-0.5 379,-0.5"/>
<text text-anchor="start" x="387" y="-18.5" font-family="FreeSans" font-size="10.00">DGtal::UniqueAssociative</text>
<text text-anchor="middle" x="449.5" y="-7.5" font-family="FreeSans" font-size="10.00">Category</text>
</a>
</g>
</g>
<!-- Node3&#45;&gt;Node6 -->
<g id="edge7" class="edge">
<title>Node3&#45;&gt;Node6</title>
<path fill="none" stroke="midnightblue" d="M306.59,-47.69C329.79,-42.42 357.4,-36.16 382.08,-30.57"/>
<polygon fill="midnightblue" stroke="midnightblue" points="305.57,-44.33 296.6,-49.95 307.12,-51.15 305.57,-44.33"/>
</g>
<!-- Node4 -->
<g id="node4" class="node">
<title>Node4</title>
<g id="a_node4"><a xlink:href="structDGtal_1_1ContainerCategory.html" target="_top" xlink:title=" ">
<polygon fill="white" stroke="black" points="0,-50 0,-69 142,-69 142,-50 0,-50"/>
<text text-anchor="middle" x="71" y="-57" font-family="FreeSans" font-size="10.00">DGtal::ContainerCategory</text>
</a>
</g>
</g>
<!-- Node4&#45;&gt;Node3 -->
<g id="edge3" class="edge">
<title>Node4&#45;&gt;Node3</title>
<path fill="none" stroke="midnightblue" d="M152.28,-59.5C160.74,-59.5 169.32,-59.5 177.71,-59.5"/>
<polygon fill="midnightblue" stroke="midnightblue" points="152.04,-56 142.04,-59.5 152.04,-63 152.04,-56"/>
</g>
<!-- Node5&#45;&gt;Node1 -->
<g id="edge4" class="edge">
<title>Node5&#45;&gt;Node1</title>
<path fill="none" stroke="midnightblue" d="M544.46,-59.5C552.91,-59.5 561.46,-59.5 569.87,-59.5"/>
<polygon fill="midnightblue" stroke="midnightblue" points="544.2,-56 534.2,-59.5 544.2,-63 544.2,-56"/>
</g>
<!-- Node6&#45;&gt;Node1 -->
<g id="edge6" class="edge">
<title>Node6&#45;&gt;Node1</title>
<path fill="none" stroke="midnightblue" d="M530.07,-32.33C548.88,-36.31 568.82,-40.53 587.24,-44.43"/>
<polygon fill="midnightblue" stroke="midnightblue" points="530.56,-28.86 520.05,-30.21 529.11,-35.71 530.56,-28.86"/>
</g>
</g>
</svg>
