<?xml version="1.0" encoding="UTF-8" standalone="no"?>
<!DOCTYPE svg PUBLIC "-//W3C//DTD SVG 1.1//EN"
 "http://www.w3.org/Graphics/SVG/1.1/DTD/svg11.dtd">
<!-- Generated by graphviz version 2.43.0 (0)
 -->
<!-- Title: boost::DigitalSurface_graph_traversal_category Pages: 1 -->
<svg width="537pt" height="95pt"
 viewBox="0.00 0.00 536.50 95.00" xmlns="http://www.w3.org/2000/svg" xmlns:xlink="http://www.w3.org/1999/xlink">
<g id="graph0" class="graph" transform="scale(1 1) rotate(0) translate(4 91)">
<title>boost::DigitalSurface_graph_traversal_category</title>
<polygon fill="white" stroke="transparent" points="-4,4 -4,-91 532.5,-91 532.5,4 -4,4"/>
<!-- Node1 -->
<g id="node1" class="node">
<title>Node1</title>
<g id="a_node1"><a xlink:title=" ">
<polygon fill="#bfbfbf" stroke="black" points="195,-0.5 195,-30.5 341,-30.5 341,-0.5 195,-0.5"/>
<text text-anchor="start" x="203" y="-18.5" font-family="FreeSans" font-size="10.00">boost::DigitalSurface</text>
<text text-anchor="middle" x="268" y="-7.5" font-family="FreeSans" font-size="10.00">_graph_traversal_category</text>
</a>
</g>
</g>
<!-- Node2 -->
<g id="node2" class="node">
<title>Node2</title>
<g id="a_node2"><a xlink:title=" ">
<polygon fill="white" stroke="#bfbfbf" points="0,-67.5 0,-86.5 120,-86.5 120,-67.5 0,-67.5"/>
<text text-anchor="middle" x="60" y="-74.5" font-family="FreeSans" font-size="10.00">adjacency_graph_tag</text>
</a>
</g>
</g>
<!-- Node2&#45;&gt;Node1 -->
<g id="edge1" class="edge">
<title>Node2&#45;&gt;Node1</title>
<path fill="none" stroke="midnightblue" d="M99.82,-64.61C133.75,-54.9 182.65,-40.92 218.98,-30.52"/>
<polygon fill="midnightblue" stroke="midnightblue" points="98.45,-61.36 89.8,-67.48 100.38,-68.09 98.45,-61.36"/>
</g>
<!-- Node3 -->
<g id="node3" class="node">
<title>Node3</title>
<g id="a_node3"><a xlink:title=" ">
<polygon fill="white" stroke="#bfbfbf" points="138,-67.5 138,-86.5 260,-86.5 260,-67.5 138,-67.5"/>
<text text-anchor="middle" x="199" y="-74.5" font-family="FreeSans" font-size="10.00">vertex_list_graph_tag</text>
</a>
</g>
</g>
<!-- Node3&#45;&gt;Node1 -->
<g id="edge2" class="edge">
<title>Node3&#45;&gt;Node1</title>
<path fill="none" stroke="midnightblue" d="M216.49,-60.92C227.32,-51.58 241.14,-39.66 251.74,-30.52"/>
<polygon fill="midnightblue" stroke="midnightblue" points="214.17,-58.29 208.89,-67.48 218.74,-63.6 214.17,-58.29"/>
</g>
<!-- Node4 -->
<g id="node4" class="node">
<title>Node4</title>
<g id="a_node4"><a xlink:title=" ">
<polygon fill="white" stroke="#bfbfbf" points="278.5,-67.5 278.5,-86.5 395.5,-86.5 395.5,-67.5 278.5,-67.5"/>
<text text-anchor="middle" x="337" y="-74.5" font-family="FreeSans" font-size="10.00">incidence_graph_tag</text>
</a>
</g>
</g>
<!-- Node4&#45;&gt;Node1 -->
<g id="edge3" class="edge">
<title>Node4&#45;&gt;Node1</title>
<path fill="none" stroke="midnightblue" d="M319.51,-60.92C308.68,-51.58 294.86,-39.66 284.26,-30.52"/>
<polygon fill="midnightblue" stroke="midnightblue" points="317.26,-63.6 327.11,-67.48 321.83,-58.29 317.26,-63.6"/>
</g>
<!-- Node5 -->
<g id="node5" class="node">
<title>Node5</title>
<g id="a_node5"><a xlink:title=" ">
<polygon fill="white" stroke="#bfbfbf" points="413.5,-67.5 413.5,-86.5 528.5,-86.5 528.5,-67.5 413.5,-67.5"/>
<text text-anchor="middle" x="471" y="-74.5" font-family="FreeSans" font-size="10.00">edge_list_graph_tag</text>
</a>
</g>
</g>
<!-- Node5&#45;&gt;Node1 -->
<g id="edge4" class="edge">
<title>Node5&#45;&gt;Node1</title>
<path fill="none" stroke="midnightblue" d="M432.14,-64.61C399.02,-54.9 351.3,-40.92 315.84,-30.52"/>
<polygon fill="midnightblue" stroke="midnightblue" points="431.33,-68.02 441.92,-67.48 433.3,-61.3 431.33,-68.02"/>
</g>
</g>
</svg>
