<?xml version="1.0" encoding="UTF-8" standalone="no"?>
<!DOCTYPE svg PUBLIC "-//W3C//DTD SVG 1.1//EN"
 "http://www.w3.org/Graphics/SVG/1.1/DTD/svg11.dtd">
<!-- Generated by graphviz version 2.43.0 (0)
 -->
<!-- Title: DGtal::concepts::CTrivialImage&lt; I &gt; Pages: 1 -->
<svg width="313pt" height="558pt"
 viewBox="0.00 0.00 312.50 558.00" xmlns="http://www.w3.org/2000/svg" xmlns:xlink="http://www.w3.org/1999/xlink">
<g id="graph0" class="graph" transform="scale(1 1) rotate(0) translate(4 554)">
<title>DGtal::concepts::CTrivialImage&lt; I &gt;</title>
<polygon fill="white" stroke="transparent" points="-4,4 -4,-554 308.5,-554 308.5,4 -4,4"/>
<!-- Node1 -->
<g id="node1" class="node">
<title>Node1</title>
<g id="a_node1"><a xlink:title="Aim: Defines the concept describing an image without extra ranges, which is a refinement of CTrivialC...">
<polygon fill="#bfbfbf" stroke="black" points="28.5,-57.5 28.5,-87.5 164.5,-87.5 164.5,-57.5 28.5,-57.5"/>
<text text-anchor="start" x="36.5" y="-75.5" font-family="FreeSans" font-size="10.00">DGtal::concepts::CTrivial</text>
<text text-anchor="middle" x="96.5" y="-64.5" font-family="FreeSans" font-size="10.00">Image&lt; I &gt;</text>
</a>
</g>
</g>
<!-- Node9 -->
<g id="node9" class="node">
<title>Node9</title>
<g id="a_node9"><a xlink:href="structDGtal_1_1concepts_1_1CImage.html" target="_top" xlink:title="Aim: Defines the concept describing a read/write image, having an output iterator.">
<polygon fill="white" stroke="black" points="15,-0.5 15,-19.5 178,-19.5 178,-0.5 15,-0.5"/>
<text text-anchor="middle" x="96.5" y="-7.5" font-family="FreeSans" font-size="10.00">DGtal::concepts::CImage&lt; I &gt;</text>
</a>
</g>
</g>
<!-- Node1&#45;&gt;Node9 -->
<g id="edge10" class="edge">
<title>Node1&#45;&gt;Node9</title>
<path fill="none" stroke="midnightblue" d="M96.5,-47.35C96.5,-37.51 96.5,-26.78 96.5,-19.54"/>
<polygon fill="midnightblue" stroke="midnightblue" points="93,-47.47 96.5,-57.47 100,-47.47 93,-47.47"/>
</g>
<!-- Node2 -->
<g id="node2" class="node">
<title>Node2</title>
<g id="a_node2"><a xlink:href="structDGtal_1_1concepts_1_1CTrivialConstImage.html" target="_top" xlink:title="Aim: Defines the concept describing a read&#45;only image, which is a refinement of CPointFunctor.">
<polygon fill="white" stroke="black" points="28.5,-125.5 28.5,-155.5 164.5,-155.5 164.5,-125.5 28.5,-125.5"/>
<text text-anchor="start" x="36.5" y="-143.5" font-family="FreeSans" font-size="10.00">DGtal::concepts::CTrivial</text>
<text text-anchor="middle" x="96.5" y="-132.5" font-family="FreeSans" font-size="10.00">ConstImage&lt; I &gt;</text>
</a>
</g>
</g>
<!-- Node2&#45;&gt;Node1 -->
<g id="edge1" class="edge">
<title>Node2&#45;&gt;Node1</title>
<path fill="none" stroke="midnightblue" d="M96.5,-115.03C96.5,-105.86 96.5,-95.74 96.5,-87.79"/>
<polygon fill="midnightblue" stroke="midnightblue" points="93,-115.18 96.5,-125.18 100,-115.18 93,-115.18"/>
</g>
<!-- Node3 -->
<g id="node3" class="node">
<title>Node3</title>
<g id="a_node3"><a xlink:href="structDGtal_1_1concepts_1_1CPointFunctor.html" target="_top" xlink:title=" ">
<polygon fill="white" stroke="black" points="0,-193.5 0,-212.5 193,-212.5 193,-193.5 0,-193.5"/>
<text text-anchor="middle" x="96.5" y="-200.5" font-family="FreeSans" font-size="10.00">DGtal::concepts::CPointFunctor&lt; I &gt;</text>
</a>
</g>
</g>
<!-- Node3&#45;&gt;Node2 -->
<g id="edge2" class="edge">
<title>Node3&#45;&gt;Node2</title>
<path fill="none" stroke="midnightblue" d="M96.5,-183.22C96.5,-174.36 96.5,-163.96 96.5,-155.76"/>
<polygon fill="midnightblue" stroke="midnightblue" points="93,-183.33 96.5,-193.33 100,-183.33 93,-183.33"/>
</g>
<!-- Node4 -->
<g id="node4" class="node">
<title>Node4</title>
<g id="a_node4"><a xlink:href="structDGtal_1_1concepts_1_1CUnaryFunctor.html" target="_top" xlink:title="Aim: Defines a unary functor, which associates arguments to results.">
<polygon fill="white" stroke="black" points="27.5,-395.5 27.5,-425.5 199.5,-425.5 199.5,-395.5 27.5,-395.5"/>
<text text-anchor="start" x="35.5" y="-413.5" font-family="FreeSans" font-size="10.00">DGtal::concepts::CUnaryFunctor</text>
<text text-anchor="middle" x="113.5" y="-402.5" font-family="FreeSans" font-size="10.00">&lt; X, A, R &gt;</text>
</a>
</g>
</g>
<!-- Node4&#45;&gt;Node3 -->
<g id="edge3" class="edge">
<title>Node4&#45;&gt;Node3</title>
<path fill="none" stroke="midnightblue" d="M107.92,-385.44C107.38,-382.6 106.89,-379.74 106.5,-377 97.55,-314.46 96.56,-238.11 96.49,-212.69"/>
<polygon fill="midnightblue" stroke="midnightblue" points="104.52,-386.27 110,-395.34 111.37,-384.83 104.52,-386.27"/>
</g>
<!-- Node8 -->
<g id="node8" class="node">
<title>Node8</title>
<g id="a_node8"><a xlink:href="structDGtal_1_1concepts_1_1CUnaryFunctor.html" target="_top" xlink:title=" ">
<polygon fill="white" stroke="black" points="120.5,-317.5 120.5,-347.5 292.5,-347.5 292.5,-317.5 120.5,-317.5"/>
<text text-anchor="start" x="128.5" y="-335.5" font-family="FreeSans" font-size="10.00">DGtal::concepts::CUnaryFunctor</text>
<text text-anchor="middle" x="206.5" y="-324.5" font-family="FreeSans" font-size="10.00">&lt; T, T::Point, T::Value &gt;</text>
</a>
</g>
</g>
<!-- Node4&#45;&gt;Node8 -->
<g id="edge9" class="edge">
<title>Node4&#45;&gt;Node8</title>
<path fill="none" stroke="orange" stroke-dasharray="5,2" d="M109.18,-385.12C109.22,-378.4 110.54,-371.46 114.5,-366 120.17,-358.18 127.87,-352.23 136.42,-347.71"/>
<polygon fill="orange" stroke="orange" points="105.71,-385.57 109.98,-395.27 112.69,-385.03 105.71,-385.57"/>
<text text-anchor="middle" x="173.5" y="-369" font-family="FreeSans" font-size="10.00"> &lt; T, T::Point, T::Value &gt;</text>
</g>
<!-- Node5 -->
<g id="node5" class="node">
<title>Node5</title>
<g id="a_node5"><a xlink:href="structboost_1_1Assignable.html" target="_top" xlink:title=" ">
<polygon fill="white" stroke="black" points="76.5,-463.5 76.5,-482.5 208.5,-482.5 208.5,-463.5 76.5,-463.5"/>
<text text-anchor="middle" x="142.5" y="-470.5" font-family="FreeSans" font-size="10.00">boost::Assignable&lt; X &gt;</text>
</a>
</g>
</g>
<!-- Node5&#45;&gt;Node4 -->
<g id="edge4" class="edge">
<title>Node5&#45;&gt;Node4</title>
<path fill="none" stroke="midnightblue" d="M133.92,-454.1C129.58,-445.05 124.4,-434.23 120.33,-425.76"/>
<polygon fill="midnightblue" stroke="midnightblue" points="130.87,-455.83 138.35,-463.33 137.18,-452.8 130.87,-455.83"/>
</g>
<!-- Node6 -->
<g id="node6" class="node">
<title>Node6</title>
<g id="a_node6"><a xlink:href="structboost_1_1Assignable.html" target="_top" xlink:title="Go to http://www.sgi.com/tech/stl/Assignable.html.">
<polygon fill="white" stroke="black" points="134,-530.5 134,-549.5 265,-549.5 265,-530.5 134,-530.5"/>
<text text-anchor="middle" x="199.5" y="-537.5" font-family="FreeSans" font-size="10.00">boost::Assignable&lt; T &gt;</text>
</a>
</g>
</g>
<!-- Node6&#45;&gt;Node5 -->
<g id="edge5" class="edge">
<title>Node6&#45;&gt;Node5</title>
<path fill="none" stroke="orange" stroke-dasharray="5,2" d="M185.15,-522.63C174,-509.92 158.98,-492.8 150.07,-482.63"/>
<polygon fill="orange" stroke="orange" points="182.59,-525.02 191.81,-530.23 187.85,-520.41 182.59,-525.02"/>
<text text-anchor="middle" x="190" y="-504" font-family="FreeSans" font-size="10.00"> &lt; X &gt;</text>
</g>
<!-- Node6&#45;&gt;Node8 -->
<g id="edge8" class="edge">
<title>Node6&#45;&gt;Node8</title>
<path fill="none" stroke="midnightblue" d="M207.33,-520.84C208.47,-517.91 209.57,-514.89 210.5,-512 229.15,-454.14 228.23,-437.64 232.5,-377 232.84,-372.12 234.12,-370.61 232.5,-366 230.16,-359.32 225.8,-352.99 221.31,-347.72"/>
<polygon fill="midnightblue" stroke="midnightblue" points="204.08,-519.55 203.51,-530.12 210.55,-522.21 204.08,-519.55"/>
</g>
<!-- Node7 -->
<g id="node7" class="node">
<title>Node7</title>
<g id="a_node7"><a xlink:href="structDGtal_1_1concepts_1_1CPointFunctor.html" target="_top" xlink:title="Aim: Defines a functor on points.">
<polygon fill="white" stroke="black" points="108.5,-260.5 108.5,-279.5 304.5,-279.5 304.5,-260.5 108.5,-260.5"/>
<text text-anchor="middle" x="206.5" y="-267.5" font-family="FreeSans" font-size="10.00">DGtal::concepts::CPointFunctor&lt; T &gt;</text>
</a>
</g>
</g>
<!-- Node7&#45;&gt;Node3 -->
<g id="edge6" class="edge">
<title>Node7&#45;&gt;Node3</title>
<path fill="none" stroke="orange" stroke-dasharray="5,2" d="M183,-255.12C161.21,-242.24 129.46,-223.48 111.1,-212.63"/>
<polygon fill="orange" stroke="orange" points="181.28,-258.16 191.66,-260.23 184.84,-252.13 181.28,-258.16"/>
<text text-anchor="middle" x="173" y="-234" font-family="FreeSans" font-size="10.00"> &lt; I &gt;</text>
</g>
<!-- Node8&#45;&gt;Node7 -->
<g id="edge7" class="edge">
<title>Node8&#45;&gt;Node7</title>
<path fill="none" stroke="midnightblue" d="M206.5,-307.35C206.5,-297.51 206.5,-286.78 206.5,-279.54"/>
<polygon fill="midnightblue" stroke="midnightblue" points="203,-307.47 206.5,-317.47 210,-307.47 203,-307.47"/>
</g>
</g>
</svg>
