<?xml version="1.0" encoding="UTF-8" standalone="no"?>
<!DOCTYPE svg PUBLIC "-//W3C//DTD SVG 1.1//EN"
 "http://www.w3.org/Graphics/SVG/1.1/DTD/svg11.dtd">
<!-- Generated by graphviz version 2.43.0 (0)
 -->
<!-- Title: DGtal::DrawableWithBoard2D Pages: 1 -->
<!--zoomable 522 -->
<svg id="main" version="1.1" xmlns="http://www.w3.org/2000/svg" xmlns:xlink="http://www.w3.org/1999/xlink" xml:space="preserve" onload="init(evt)">
<style type="text/css"><![CDATA[
.edge:hover path { stroke: red; }
.edge:hover polygon { stroke: red; fill: red; }
]]></style>
<script type="text/javascript"><![CDATA[
var edges = document.getElementsByTagName('g');
if (edges && edges.length) {
  for (var i=0;i<edges.length;i++) {
    if (edges[i].id.substr(0,4)=='edge') {
      edges[i].setAttribute('class','edge');
    }
  }
}
]]></script>
        <defs>
                <circle id="rim" cx="0" cy="0" r="7"/>
                <circle id="rim2" cx="0" cy="0" r="3.5"/>
                <g id="zoomPlus">
                        <use xlink:href="#rim" fill="#404040">
                                <set attributeName="fill" to="#808080" begin="zoomplus.mouseover" end="zoomplus.mouseout"/>
                        </use>
                        <path d="M-4,0h8M0,-4v8" fill="none" stroke="white" stroke-width="1.5" pointer-events="none"/>
                </g>
                <g id="zoomMin">
                        <use xlink:href="#rim" fill="#404040">
                                <set attributeName="fill" to="#808080" begin="zoomminus.mouseover" end="zoomminus.mouseout"/>
                        </use>
                        <path d="M-4,0h8" fill="none" stroke="white" stroke-width="1.5" pointer-events="none"/>
                </g>
                <g id="dirArrow">
                        <path fill="none" stroke="white" stroke-width="1.5" d="M0,-3.0v7 M-2.5,-0.5L0,-3.0L2.5,-0.5"/>
                </g>
               <g id="resetDef">
                       <use xlink:href="#rim2" fill="#404040">
                               <set attributeName="fill" to="#808080" begin="reset.mouseover" end="reset.mouseout"/>
                       </use>
               </g>
        </defs>

<script type="text/javascript">
var viewWidth = 364;
var viewHeight = 522;
var sectionId = 'dynsection-0';
</script>
<script xlink:href="svgpan.js"/>
<svg id="graph" class="graph">
<g id="viewport">
<title>DGtal::DrawableWithBoard2D</title>
<polygon fill="white" stroke="transparent" points="-4,4 -4,-518 360,-518 360,4 -4,4"/>
<!-- Node1 -->
<g id="node1" class="node">
<title>Node1</title>
<g id="a_node1"><a xlink:title=" ">
<polygon fill="#bfbfbf" stroke="black" points="0,-209.5 0,-228.5 161,-228.5 161,-209.5 0,-209.5"/>
<text text-anchor="middle" x="80.5" y="-216.5" font-family="FreeSans" font-size="10.00">DGtal::DrawableWithBoard2D</text>
</a>
</g>
</g>
<!-- Node2 -->
<g id="node2" class="node">
<title>Node2</title>
<g id="a_node2"><a xlink:href="structDGtal_1_1CustomColors.html" target="_top" xlink:title="Custom style class redefining the pen color and the fill color. You may use Board2D::Color::None for ...">
<polygon fill="white" stroke="black" points="217,-494.5 217,-513.5 336,-513.5 336,-494.5 217,-494.5"/>
<text text-anchor="middle" x="276.5" y="-501.5" font-family="FreeSans" font-size="10.00">DGtal::CustomColors</text>
</a>
</g>
</g>
<!-- Node1&#45;&gt;Node2 -->
<g id="edge1" class="edge">
<title>Node1&#45;&gt;Node2</title>
<path fill="none" stroke="midnightblue" d="M84.02,-238.53C91.46,-287.92 118,-418.56 197,-485 202.79,-489.87 209.64,-493.54 216.83,-496.28"/>
<polygon fill="midnightblue" stroke="midnightblue" points="87.47,-237.96 82.61,-228.54 80.54,-238.93 87.47,-237.96"/>
</g>
<!-- Node3 -->
<g id="node3" class="node">
<title>Node3</title>
<g id="a_node3"><a xlink:href="structDGtal_1_1CustomFillColor.html" target="_top" xlink:title="Custom style class redefining the fill color. You may use Board2D::Color::None for transparent color.">
<polygon fill="white" stroke="black" points="212.5,-456.5 212.5,-475.5 340.5,-475.5 340.5,-456.5 212.5,-456.5"/>
<text text-anchor="middle" x="276.5" y="-463.5" font-family="FreeSans" font-size="10.00">DGtal::CustomFillColor</text>
</a>
</g>
</g>
<!-- Node1&#45;&gt;Node3 -->
<g id="edge2" class="edge">
<title>Node1&#45;&gt;Node3</title>
<path fill="none" stroke="midnightblue" d="M85.52,-238.4C95.76,-282.69 127.09,-391.65 197,-447 201.84,-450.83 207.33,-453.9 213.11,-456.37"/>
<polygon fill="midnightblue" stroke="midnightblue" points="88.94,-237.62 83.37,-228.61 82.1,-239.13 88.94,-237.62"/>
</g>
<!-- Node4 -->
<g id="node4" class="node">
<title>Node4</title>
<g id="a_node4"><a xlink:href="structDGtal_1_1CustomPen.html" target="_top" xlink:title="Custom style class redefining the pen attributes. You may use Board2D::Color::None for transparent co...">
<polygon fill="white" stroke="black" points="223.5,-418.5 223.5,-437.5 329.5,-437.5 329.5,-418.5 223.5,-418.5"/>
<text text-anchor="middle" x="276.5" y="-425.5" font-family="FreeSans" font-size="10.00">DGtal::CustomPen</text>
</a>
</g>
</g>
<!-- Node1&#45;&gt;Node4 -->
<g id="edge3" class="edge">
<title>Node1&#45;&gt;Node4</title>
<path fill="none" stroke="midnightblue" d="M87.57,-238.29C100.8,-277.05 136.03,-364.45 197,-409 204.7,-414.63 213.85,-418.6 223.13,-421.41"/>
<polygon fill="midnightblue" stroke="midnightblue" points="90.87,-237.13 84.42,-228.73 84.22,-239.32 90.87,-237.13"/>
</g>
<!-- Node5 -->
<g id="node5" class="node">
<title>Node5</title>
<g id="a_node5"><a xlink:href="structDGtal_1_1CustomPenColor.html" target="_top" xlink:title="Custom style class redefining the pen color. You may use Board2D::Color::None for transparent color.">
<polygon fill="white" stroke="black" points="211,-380.5 211,-399.5 342,-399.5 342,-380.5 211,-380.5"/>
<text text-anchor="middle" x="276.5" y="-387.5" font-family="FreeSans" font-size="10.00">DGtal::CustomPenColor</text>
</a>
</g>
</g>
<!-- Node1&#45;&gt;Node5 -->
<g id="edge4" class="edge">
<title>Node1&#45;&gt;Node5</title>
<path fill="none" stroke="midnightblue" d="M90.43,-237.95C106.77,-270.49 144.69,-336.79 197,-371 202.98,-374.91 209.7,-378.02 216.62,-380.49"/>
<polygon fill="midnightblue" stroke="midnightblue" points="93.42,-236.11 85.89,-228.65 87.13,-239.18 93.42,-236.11"/>
</g>
<!-- Node6 -->
<g id="node6" class="node">
<title>Node6</title>
<g id="a_node6"><a xlink:title=" ">
<polygon fill="white" stroke="#bfbfbf" points="201,-342.5 201,-361.5 352,-361.5 352,-342.5 201,-342.5"/>
<text text-anchor="middle" x="276.5" y="-349.5" font-family="FreeSans" font-size="10.00">MyDomainStyleCustomRed</text>
</a>
</g>
</g>
<!-- Node1&#45;&gt;Node6 -->
<g id="edge5" class="edge">
<title>Node1&#45;&gt;Node6</title>
<path fill="none" stroke="midnightblue" d="M94.34,-236.74C113.68,-262.09 152.74,-308.35 197,-333 203.98,-336.89 211.75,-339.99 219.6,-342.46"/>
<polygon fill="midnightblue" stroke="midnightblue" points="97.14,-234.63 88.35,-228.71 91.53,-238.82 97.14,-234.63"/>
</g>
<!-- Node7 -->
<g id="node7" class="node">
<title>Node7</title>
<g id="a_node7"><a xlink:title=" ">
<polygon fill="white" stroke="#bfbfbf" points="206,-304.5 206,-323.5 347,-323.5 347,-304.5 206,-304.5"/>
<text text-anchor="middle" x="276.5" y="-311.5" font-family="FreeSans" font-size="10.00">MyDrawStyleCustomBlue</text>
</a>
</g>
</g>
<!-- Node1&#45;&gt;Node7 -->
<g id="edge6" class="edge">
<title>Node1&#45;&gt;Node7</title>
<path fill="none" stroke="midnightblue" d="M101.1,-234.97C123.15,-252.18 160.65,-279.21 197,-295 205.75,-298.8 215.38,-301.92 224.82,-304.45"/>
<polygon fill="midnightblue" stroke="midnightblue" points="103.19,-232.16 93.18,-228.69 98.84,-237.65 103.19,-232.16"/>
</g>
<!-- Node8 -->
<g id="node8" class="node">
<title>Node8</title>
<g id="a_node8"><a xlink:title=" ">
<polygon fill="white" stroke="#bfbfbf" points="204,-266.5 204,-285.5 349,-285.5 349,-266.5 204,-266.5"/>
<text text-anchor="middle" x="276.5" y="-273.5" font-family="FreeSans" font-size="10.00">MyDrawStyleCustomColor</text>
</a>
</g>
</g>
<!-- Node1&#45;&gt;Node8 -->
<g id="edge7" class="edge">
<title>Node1&#45;&gt;Node8</title>
<path fill="none" stroke="midnightblue" d="M117.92,-231.82C140.54,-239.57 170.3,-249.39 197,-257 208.73,-260.34 221.56,-263.61 233.38,-266.46"/>
<polygon fill="midnightblue" stroke="midnightblue" points="118.98,-228.48 108.38,-228.52 116.69,-235.09 118.98,-228.48"/>
</g>
<!-- Node9 -->
<g id="node9" class="node">
<title>Node9</title>
<g id="a_node9"><a xlink:title=" ">
<polygon fill="white" stroke="#bfbfbf" points="197,-228.5 197,-247.5 356,-247.5 356,-228.5 197,-228.5"/>
<text text-anchor="middle" x="276.5" y="-235.5" font-family="FreeSans" font-size="10.00">MyDrawStyleCustomFillColor</text>
</a>
</g>
</g>
<!-- Node1&#45;&gt;Node9 -->
<g id="edge8" class="edge">
<title>Node1&#45;&gt;Node9</title>
<path fill="none" stroke="midnightblue" d="M171.47,-227.81C179.89,-228.64 188.38,-229.47 196.69,-230.28"/>
<polygon fill="midnightblue" stroke="midnightblue" points="171.54,-224.3 161.25,-226.81 170.86,-231.27 171.54,-224.3"/>
</g>
<!-- Node10 -->
<g id="node10" class="node">
<title>Node10</title>
<g id="a_node10"><a xlink:title=" ">
<polygon fill="white" stroke="#bfbfbf" points="202,-190.5 202,-209.5 351,-209.5 351,-190.5 202,-190.5"/>
<text text-anchor="middle" x="276.5" y="-197.5" font-family="FreeSans" font-size="10.00">MyDrawStyleCustomGreen</text>
</a>
</g>
</g>
<!-- Node1&#45;&gt;Node10 -->
<g id="edge9" class="edge">
<title>Node1&#45;&gt;Node10</title>
<path fill="none" stroke="midnightblue" d="M131.8,-208.07C153.09,-205.25 178.31,-202.59 201.64,-200.66"/>
<polygon fill="midnightblue" stroke="midnightblue" points="131.12,-204.63 121.7,-209.47 132.08,-211.57 131.12,-204.63"/>
</g>
<!-- Node1&#45;&gt;Node10 -->
<g id="edge10" class="edge">
<title>Node1&#45;&gt;Node10</title>
<path fill="none" stroke="midnightblue" d="M171.48,-216.92C193.86,-214.83 216.74,-212.21 235.32,-209.53"/>
<polygon fill="midnightblue" stroke="midnightblue" points="170.89,-213.46 161.25,-217.84 171.52,-220.43 170.89,-213.46"/>
</g>
<!-- Node11 -->
<g id="node11" class="node">
<title>Node11</title>
<g id="a_node11"><a xlink:title=" ">
<polygon fill="white" stroke="#bfbfbf" points="207.5,-152.5 207.5,-171.5 345.5,-171.5 345.5,-152.5 207.5,-152.5"/>
<text text-anchor="middle" x="276.5" y="-159.5" font-family="FreeSans" font-size="10.00">MyDrawStyleCustomRed</text>
</a>
</g>
</g>
<!-- Node1&#45;&gt;Node11 -->
<g id="edge11" class="edge">
<title>Node1&#45;&gt;Node11</title>
<path fill="none" stroke="midnightblue" d="M102.36,-204.97C125.37,-194.52 163.58,-181.53 197,-172 200.37,-171.04 203.83,-170.08 207.33,-169.15"/>
<polygon fill="midnightblue" stroke="midnightblue" points="100.67,-201.9 93.21,-209.42 103.73,-208.19 100.67,-201.9"/>
</g>
<!-- Node1&#45;&gt;Node11 -->
<g id="edge12" class="edge">
<title>Node1&#45;&gt;Node11</title>
<path fill="none" stroke="midnightblue" d="M142.99,-206.4C160.37,-201.03 179.35,-195.03 197,-190 219.38,-183.62 245.75,-177.52 261.52,-171.57"/>
<polygon fill="midnightblue" stroke="midnightblue" points="141.5,-203.2 132.97,-209.48 143.56,-209.89 141.5,-203.2"/>
</g>
<!-- Node12 -->
<g id="node12" class="node">
<title>Node12</title>
<g id="a_node12"><a xlink:title=" ">
<polygon fill="white" stroke="#bfbfbf" points="214,-114.5 214,-133.5 339,-133.5 339,-114.5 214,-114.5"/>
<text text-anchor="middle" x="276.5" y="-121.5" font-family="FreeSans" font-size="10.00">MyObjectStyleCustom</text>
</a>
</g>
</g>
<!-- Node1&#45;&gt;Node12 -->
<g id="edge13" class="edge">
<title>Node1&#45;&gt;Node12</title>
<path fill="none" stroke="midnightblue" d="M101.1,-203.03C123.15,-185.82 160.65,-158.79 197,-143 205.75,-139.2 215.38,-136.08 224.82,-133.55"/>
<polygon fill="midnightblue" stroke="midnightblue" points="98.84,-200.35 93.18,-209.31 103.19,-205.84 98.84,-200.35"/>
</g>
<!-- Node13 -->
<g id="node13" class="node">
<title>Node13</title>
<g id="a_node13"><a xlink:title=" ">
<polygon fill="white" stroke="#bfbfbf" points="204.5,-76.5 204.5,-95.5 348.5,-95.5 348.5,-76.5 204.5,-76.5"/>
<text text-anchor="middle" x="276.5" y="-83.5" font-family="FreeSans" font-size="10.00">MyObjectStyleCustomRed</text>
</a>
</g>
</g>
<!-- Node1&#45;&gt;Node13 -->
<g id="edge14" class="edge">
<title>Node1&#45;&gt;Node13</title>
<path fill="none" stroke="midnightblue" d="M94.34,-201.26C113.68,-175.91 152.74,-129.65 197,-105 203.98,-101.11 211.75,-98.01 219.6,-95.54"/>
<polygon fill="midnightblue" stroke="midnightblue" points="91.53,-199.18 88.35,-209.29 97.14,-203.37 91.53,-199.18"/>
</g>
<!-- Node14 -->
<g id="node14" class="node">
<title>Node14</title>
<g id="a_node14"><a xlink:title=" ">
<polygon fill="white" stroke="#bfbfbf" points="229.5,-38.5 229.5,-57.5 323.5,-57.5 323.5,-38.5 229.5,-38.5"/>
<text text-anchor="middle" x="276.5" y="-45.5" font-family="FreeSans" font-size="10.00">MyStyleCustom</text>
</a>
</g>
</g>
<!-- Node1&#45;&gt;Node14 -->
<g id="edge15" class="edge">
<title>Node1&#45;&gt;Node14</title>
<path fill="none" stroke="midnightblue" d="M90.43,-200.05C106.77,-167.51 144.69,-101.21 197,-67 206.62,-60.71 218.13,-56.49 229.34,-53.68"/>
<polygon fill="midnightblue" stroke="midnightblue" points="87.13,-198.82 85.89,-209.35 93.42,-201.89 87.13,-198.82"/>
</g>
<!-- Node15 -->
<g id="node15" class="node">
<title>Node15</title>
<g id="a_node15"><a xlink:title=" ">
<polygon fill="white" stroke="#bfbfbf" points="220,-0.5 220,-19.5 333,-19.5 333,-0.5 220,-0.5"/>
<text text-anchor="middle" x="276.5" y="-7.5" font-family="FreeSans" font-size="10.00">MyStyleCustomRed</text>
</a>
</g>
</g>
<!-- Node1&#45;&gt;Node15 -->
<g id="edge16" class="edge">
<title>Node1&#45;&gt;Node15</title>
<path fill="none" stroke="midnightblue" d="M87.57,-199.71C100.8,-160.95 136.03,-73.55 197,-29 203.79,-24.04 211.71,-20.36 219.86,-17.63"/>
<polygon fill="midnightblue" stroke="midnightblue" points="84.22,-198.68 84.42,-209.27 90.87,-200.87 84.22,-198.68"/>
</g>
</g>
</svg>
        <g id="navigator" transform="translate(0 0)" fill="#404254">
                <rect fill="#f2f5e9" fill-opacity="0.5" stroke="#606060" stroke-width=".5" x="0" y="0" width="60" height="60"/>
                <use id="zoomplus" xlink:href="#zoomPlus" x="17" y="9" onmousedown="handleZoom(evt,'in')"/>
                <use id="zoomminus" xlink:href="#zoomMin" x="42" y="9" onmousedown="handleZoom(evt,'out')"/>
                <use id="reset" xlink:href="#resetDef" x="30" y="36" onmousedown="handleReset()"/>
                <g id="arrowUp" xlink:href="#dirArrow" transform="translate(30 24)" onmousedown="handlePan(0,-1)">
                  <use xlink:href="#rim" fill="#404040">
                        <set attributeName="fill" to="#808080" begin="arrowUp.mouseover" end="arrowUp.mouseout"/>
                  </use>
                  <path fill="none" stroke="white" stroke-width="1.5" d="M0,-3.0v7 M-2.5,-0.5L0,-3.0L2.5,-0.5"/>
                </g>
                <g id="arrowRight" xlink:href="#dirArrow" transform="rotate(90) translate(36 -43)" onmousedown="handlePan(1,0)">
                  <use xlink:href="#rim" fill="#404040">
                        <set attributeName="fill" to="#808080" begin="arrowRight.mouseover" end="arrowRight.mouseout"/>
                  </use>
                  <path fill="none" stroke="white" stroke-width="1.5" d="M0,-3.0v7 M-2.5,-0.5L0,-3.0L2.5,-0.5"/>
                </g>
                <g id="arrowDown" xlink:href="#dirArrow" transform="rotate(180) translate(-30 -48)" onmousedown="handlePan(0,1)">
                  <use xlink:href="#rim" fill="#404040">
                        <set attributeName="fill" to="#808080" begin="arrowDown.mouseover" end="arrowDown.mouseout"/>
                  </use>
                  <path fill="none" stroke="white" stroke-width="1.5" d="M0,-3.0v7 M-2.5,-0.5L0,-3.0L2.5,-0.5"/>
                </g>
                <g id="arrowLeft" xlink:href="#dirArrow" transform="rotate(270) translate(-36 17)" onmousedown="handlePan(-1,0)">
                  <use xlink:href="#rim" fill="#404040">
                        <set attributeName="fill" to="#808080" begin="arrowLeft.mouseover" end="arrowLeft.mouseout"/>
                  </use>
                  <path fill="none" stroke="white" stroke-width="1.5" d="M0,-3.0v7 M-2.5,-0.5L0,-3.0L2.5,-0.5"/>
                </g>
        </g>
        <svg viewBox="0 0 15 15" width="100%" height="30px" preserveAspectRatio="xMaxYMin meet">
         <g id="arrow_out" transform="scale(0.3 0.3)">
          <a xlink:href="structDGtal_1_1DrawableWithBoard2D__inherit__graph_org.svg" target="_base">
           <rect id="button" ry="5" rx="5" y="6" x="6" height="38" width="38"
                fill="#f2f5e9" fill-opacity="0.5" stroke="#606060" stroke-width="1.0"/>
           <path id="arrow"
             d="M 11.500037,31.436501 C 11.940474,20.09759 22.043105,11.32322 32.158766,21.979434 L 37.068811,17.246167 C 37.068811,17.246167 37.088388,32 37.088388,32 L 22.160133,31.978069 C 22.160133,31.978069 26.997745,27.140456 26.997745,27.140456 C 18.528582,18.264221 13.291696,25.230495 11.500037,31.436501 z"
             style="fill:#404040;"/>
          </a>
         </g>
        </svg>
</svg>
