<?xml version="1.0" encoding="UTF-8" standalone="no"?>
<!DOCTYPE svg PUBLIC "-//W3C//DTD SVG 1.1//EN"
 "http://www.w3.org/Graphics/SVG/1.1/DTD/svg11.dtd">
<!-- Generated by graphviz version 2.43.0 (0)
 -->
<!-- Title: DGtal::concepts::COrientationFunctor&lt; T &gt; Pages: 1 -->
<svg width="290pt" height="434pt"
 viewBox="0.00 0.00 290.00 434.00" xmlns="http://www.w3.org/2000/svg" xmlns:xlink="http://www.w3.org/1999/xlink">
<g id="graph0" class="graph" transform="scale(1 1) rotate(0) translate(4 430)">
<title>DGtal::concepts::COrientationFunctor&lt; T &gt;</title>
<polygon fill="white" stroke="transparent" points="-4,4 -4,-430 286,-430 286,4 -4,4"/>
<!-- Node1 -->
<g id="node1" class="node">
<title>Node1</title>
<g id="a_node1"><a xlink:title="Aim: This concept gathers models implementing an orientation test of &#160;points in a space of dimension ...">
<polygon fill="#bfbfbf" stroke="black" points="17.5,-68.5 17.5,-98.5 178.5,-98.5 178.5,-68.5 17.5,-68.5"/>
<text text-anchor="start" x="25.5" y="-86.5" font-family="FreeSans" font-size="10.00">DGtal::concepts::COrientation</text>
<text text-anchor="middle" x="98" y="-75.5" font-family="FreeSans" font-size="10.00">Functor&lt; T &gt;</text>
</a>
</g>
</g>
<!-- Node7 -->
<g id="node7" class="node">
<title>Node7</title>
<g id="a_node7"><a xlink:href="structDGtal_1_1concepts_1_1COrientationFunctor2.html" target="_top" xlink:title="Aim: This concept is a refinement of COrientationFunctor, useful for simple algebraic curves that can...">
<polygon fill="white" stroke="black" points="17.5,-0.5 17.5,-30.5 178.5,-30.5 178.5,-0.5 17.5,-0.5"/>
<text text-anchor="start" x="25.5" y="-18.5" font-family="FreeSans" font-size="10.00">DGtal::concepts::COrientation</text>
<text text-anchor="middle" x="98" y="-7.5" font-family="FreeSans" font-size="10.00">Functor2&lt; T &gt;</text>
</a>
</g>
</g>
<!-- Node1&#45;&gt;Node7 -->
<g id="edge7" class="edge">
<title>Node1&#45;&gt;Node7</title>
<path fill="none" stroke="midnightblue" d="M98,-58.03C98,-48.86 98,-38.74 98,-30.79"/>
<polygon fill="midnightblue" stroke="midnightblue" points="94.5,-58.18 98,-68.18 101.5,-58.18 94.5,-58.18"/>
</g>
<!-- Node2 -->
<g id="node2" class="node">
<title>Node2</title>
<g id="a_node2"><a xlink:href="structDGtal_1_1concepts_1_1CPointFunctor.html" target="_top" xlink:title="Aim: Defines a functor on points.">
<polygon fill="white" stroke="black" points="0,-136.5 0,-155.5 196,-155.5 196,-136.5 0,-136.5"/>
<text text-anchor="middle" x="98" y="-143.5" font-family="FreeSans" font-size="10.00">DGtal::concepts::CPointFunctor&lt; T &gt;</text>
</a>
</g>
</g>
<!-- Node2&#45;&gt;Node1 -->
<g id="edge1" class="edge">
<title>Node2&#45;&gt;Node1</title>
<path fill="none" stroke="midnightblue" d="M98,-126.22C98,-117.36 98,-106.96 98,-98.76"/>
<polygon fill="midnightblue" stroke="midnightblue" points="94.5,-126.33 98,-136.33 101.5,-126.33 94.5,-126.33"/>
</g>
<!-- Node3 -->
<g id="node3" class="node">
<title>Node3</title>
<g id="a_node3"><a xlink:href="structDGtal_1_1concepts_1_1CUnaryFunctor.html" target="_top" xlink:title=" ">
<polygon fill="white" stroke="black" points="12,-193.5 12,-223.5 184,-223.5 184,-193.5 12,-193.5"/>
<text text-anchor="start" x="20" y="-211.5" font-family="FreeSans" font-size="10.00">DGtal::concepts::CUnaryFunctor</text>
<text text-anchor="middle" x="98" y="-200.5" font-family="FreeSans" font-size="10.00">&lt; T, T::Point, T::Value &gt;</text>
</a>
</g>
</g>
<!-- Node3&#45;&gt;Node2 -->
<g id="edge2" class="edge">
<title>Node3&#45;&gt;Node2</title>
<path fill="none" stroke="midnightblue" d="M98,-183.35C98,-173.51 98,-162.78 98,-155.54"/>
<polygon fill="midnightblue" stroke="midnightblue" points="94.5,-183.47 98,-193.47 101.5,-183.47 94.5,-183.47"/>
</g>
<!-- Node4 -->
<g id="node4" class="node">
<title>Node4</title>
<g id="a_node4"><a xlink:href="structboost_1_1Assignable.html" target="_top" xlink:title="Go to http://www.sgi.com/tech/stl/Assignable.html.">
<polygon fill="white" stroke="black" points="32.5,-406.5 32.5,-425.5 163.5,-425.5 163.5,-406.5 32.5,-406.5"/>
<text text-anchor="middle" x="98" y="-413.5" font-family="FreeSans" font-size="10.00">boost::Assignable&lt; T &gt;</text>
</a>
</g>
</g>
<!-- Node4&#45;&gt;Node3 -->
<g id="edge3" class="edge">
<title>Node4&#45;&gt;Node3</title>
<path fill="none" stroke="midnightblue" d="M98,-396.32C98,-355.69 98,-260.02 98,-223.77"/>
<polygon fill="midnightblue" stroke="midnightblue" points="94.5,-396.43 98,-406.43 101.5,-396.43 94.5,-396.43"/>
</g>
<!-- Node6 -->
<g id="node6" class="node">
<title>Node6</title>
<g id="a_node6"><a xlink:href="structboost_1_1Assignable.html" target="_top" xlink:title=" ">
<polygon fill="white" stroke="black" points="120,-339.5 120,-358.5 252,-358.5 252,-339.5 120,-339.5"/>
<text text-anchor="middle" x="186" y="-346.5" font-family="FreeSans" font-size="10.00">boost::Assignable&lt; X &gt;</text>
</a>
</g>
</g>
<!-- Node4&#45;&gt;Node6 -->
<g id="edge6" class="edge">
<title>Node4&#45;&gt;Node6</title>
<path fill="none" stroke="orange" stroke-dasharray="5,2" d="M118.22,-400.07C135.59,-387.24 160.03,-369.19 174.32,-358.63"/>
<polygon fill="orange" stroke="orange" points="115.83,-397.48 109.87,-406.23 119.99,-403.11 115.83,-397.48"/>
<text text-anchor="middle" x="163.5" y="-380" font-family="FreeSans" font-size="10.00"> &lt; X &gt;</text>
</g>
<!-- Node5 -->
<g id="node5" class="node">
<title>Node5</title>
<g id="a_node5"><a xlink:href="structDGtal_1_1concepts_1_1CUnaryFunctor.html" target="_top" xlink:title="Aim: Defines a unary functor, which associates arguments to results.">
<polygon fill="white" stroke="black" points="110,-271.5 110,-301.5 282,-301.5 282,-271.5 110,-271.5"/>
<text text-anchor="start" x="118" y="-289.5" font-family="FreeSans" font-size="10.00">DGtal::concepts::CUnaryFunctor</text>
<text text-anchor="middle" x="196" y="-278.5" font-family="FreeSans" font-size="10.00">&lt; X, A, R &gt;</text>
</a>
</g>
</g>
<!-- Node5&#45;&gt;Node3 -->
<g id="edge4" class="edge">
<title>Node5&#45;&gt;Node3</title>
<path fill="none" stroke="orange" stroke-dasharray="5,2" d="M169.25,-264.75C152.46,-251.73 131.25,-235.28 116.35,-223.73"/>
<polygon fill="orange" stroke="orange" points="167.52,-267.84 177.57,-271.2 171.81,-262.31 167.52,-267.84"/>
<text text-anchor="middle" x="211" y="-245" font-family="FreeSans" font-size="10.00"> &lt; T, T::Point, T::Value &gt;</text>
</g>
<!-- Node6&#45;&gt;Node5 -->
<g id="edge5" class="edge">
<title>Node6&#45;&gt;Node5</title>
<path fill="none" stroke="midnightblue" d="M189.1,-329.22C190.57,-320.36 192.29,-309.96 193.64,-301.76"/>
<polygon fill="midnightblue" stroke="midnightblue" points="185.61,-328.89 187.43,-339.33 192.52,-330.04 185.61,-328.89"/>
</g>
</g>
</svg>
