<?xml version="1.0" encoding="UTF-8" standalone="no"?>
<!DOCTYPE svg PUBLIC "-//W3C//DTD SVG 1.1//EN"
 "http://www.w3.org/Graphics/SVG/1.1/DTD/svg11.dtd">
<!-- Generated by graphviz version 2.43.0 (0)
 -->
<!-- Title: DGtal::concepts::CSegmentComputerEstimator&lt; T &gt; Pages: 1 -->
<svg width="361pt" height="116pt"
 viewBox="0.00 0.00 361.00 115.50" xmlns="http://www.w3.org/2000/svg" xmlns:xlink="http://www.w3.org/1999/xlink">
<g id="graph0" class="graph" transform="scale(1 1) rotate(0) translate(4 111.5)">
<title>DGtal::concepts::CSegmentComputerEstimator&lt; T &gt;</title>
<polygon fill="white" stroke="transparent" points="-4,4 -4,-111.5 357,-111.5 357,4 -4,4"/>
<!-- Node1 -->
<g id="node1" class="node">
<title>Node1</title>
<g id="a_node1"><a xlink:title="Aim: This concept is a refinement of CCurveLocalGeometricEstimator devoted to the estimation of a geo...">
<polygon fill="#bfbfbf" stroke="black" points="203,-33 203,-63 353,-63 353,-33 203,-33"/>
<text text-anchor="start" x="211" y="-51" font-family="FreeSans" font-size="10.00">DGtal::concepts::CSegment</text>
<text text-anchor="middle" x="278" y="-40" font-family="FreeSans" font-size="10.00">ComputerEstimator&lt; T &gt;</text>
</a>
</g>
</g>
<!-- Node2 -->
<g id="node2" class="node">
<title>Node2</title>
<g id="a_node2"><a xlink:href="structDGtal_1_1concepts_1_1CCurveLocalGeometricEstimator.html" target="_top" xlink:title="Aim: This concept describes an object that can process a range so as to return one estimated quantity...">
<polygon fill="white" stroke="black" points="3,-77 3,-107 164,-107 164,-77 3,-77"/>
<text text-anchor="start" x="11" y="-95" font-family="FreeSans" font-size="10.00">DGtal::concepts::CCurveLocal</text>
<text text-anchor="middle" x="83.5" y="-84" font-family="FreeSans" font-size="10.00">GeometricEstimator&lt; T &gt;</text>
</a>
</g>
</g>
<!-- Node2&#45;&gt;Node1 -->
<g id="edge1" class="edge">
<title>Node2&#45;&gt;Node1</title>
<path fill="none" stroke="midnightblue" d="M160.05,-74.73C176.97,-70.86 194.78,-66.79 211.26,-63.03"/>
<polygon fill="midnightblue" stroke="midnightblue" points="159.18,-71.34 150.21,-76.98 160.74,-78.16 159.18,-71.34"/>
</g>
<!-- Node3 -->
<g id="node3" class="node">
<title>Node3</title>
<g id="a_node3"><a xlink:href="structboost_1_1CopyConstructible.html" target="_top" xlink:title="Go to http://www.sgi.com/tech/stl/CopyConstructible.html.">
<polygon fill="white" stroke="black" points="0,-38.5 0,-57.5 167,-57.5 167,-38.5 0,-38.5"/>
<text text-anchor="middle" x="83.5" y="-45.5" font-family="FreeSans" font-size="10.00">boost::CopyConstructible&lt; T &gt;</text>
</a>
</g>
</g>
<!-- Node3&#45;&gt;Node1 -->
<g id="edge2" class="edge">
<title>Node3&#45;&gt;Node1</title>
<path fill="none" stroke="midnightblue" d="M177.28,-48C185.84,-48 194.45,-48 202.82,-48"/>
<polygon fill="midnightblue" stroke="midnightblue" points="177.25,-44.5 167.25,-48 177.25,-51.5 177.25,-44.5"/>
</g>
<!-- Node4 -->
<g id="node4" class="node">
<title>Node4</title>
<g id="a_node4"><a xlink:href="structboost_1_1Assignable.html" target="_top" xlink:title="Go to http://www.sgi.com/tech/stl/Assignable.html.">
<polygon fill="white" stroke="black" points="18,-0.5 18,-19.5 149,-19.5 149,-0.5 18,-0.5"/>
<text text-anchor="middle" x="83.5" y="-7.5" font-family="FreeSans" font-size="10.00">boost::Assignable&lt; T &gt;</text>
</a>
</g>
</g>
<!-- Node4&#45;&gt;Node1 -->
<g id="edge3" class="edge">
<title>Node4&#45;&gt;Node1</title>
<path fill="none" stroke="midnightblue" d="M143.01,-21.55C161.9,-25.28 183.08,-29.46 202.94,-33.38"/>
<polygon fill="midnightblue" stroke="midnightblue" points="143.56,-18.09 133.08,-19.59 142.21,-24.96 143.56,-18.09"/>
</g>
</g>
</svg>
