<?xml version="1.0" encoding="UTF-8" standalone="no"?>
<!DOCTYPE svg PUBLIC "-//W3C//DTD SVG 1.1//EN"
 "http://www.w3.org/Graphics/SVG/1.1/DTD/svg11.dtd">
<!-- Generated by graphviz version 2.43.0 (0)
 -->
<!-- Title: DGtal::functors::ConstantPointPredicate&lt; TPoint, boolCst &gt; Pages: 1 -->
<svg width="594pt" height="110pt"
 viewBox="0.00 0.00 594.00 110.00" xmlns="http://www.w3.org/2000/svg" xmlns:xlink="http://www.w3.org/1999/xlink">
<g id="graph0" class="graph" transform="scale(1 1) rotate(0) translate(4 106)">
<title>DGtal::functors::ConstantPointPredicate&lt; TPoint, boolCst &gt;</title>
<polygon fill="white" stroke="transparent" points="-4,4 -4,-106 590,-106 590,4 -4,4"/>
<!-- Node1 -->
<g id="node1" class="node">
<title>Node1</title>
<g id="a_node1"><a xlink:title="Aim: The predicate that returns always the same value boolCst.">
<polygon fill="#bfbfbf" stroke="black" points="0,-30.5 0,-71.5 140,-71.5 140,-30.5 0,-30.5"/>
<text text-anchor="start" x="8" y="-59.5" font-family="FreeSans" font-size="10.00">DGtal::functors::Constant</text>
<text text-anchor="start" x="8" y="-48.5" font-family="FreeSans" font-size="10.00">PointPredicate&lt; TPoint,</text>
<text text-anchor="middle" x="70" y="-37.5" font-family="FreeSans" font-size="10.00"> boolCst &gt;</text>
</a>
</g>
</g>
<!-- Node2 -->
<g id="node2" class="node">
<title>Node2</title>
<g id="a_node2"><a xlink:href="structDGtal_1_1functors_1_1ConstantPointPredicate.html" target="_top" xlink:title=" ">
<polygon fill="white" stroke="black" points="263,-60.5 263,-101.5 403,-101.5 403,-60.5 263,-60.5"/>
<text text-anchor="start" x="271" y="-89.5" font-family="FreeSans" font-size="10.00">DGtal::functors::Constant</text>
<text text-anchor="start" x="271" y="-78.5" font-family="FreeSans" font-size="10.00">PointPredicate&lt; TPoint,</text>
<text text-anchor="middle" x="333" y="-67.5" font-family="FreeSans" font-size="10.00"> true &gt;</text>
</a>
</g>
</g>
<!-- Node1&#45;&gt;Node2 -->
<g id="edge1" class="edge">
<title>Node1&#45;&gt;Node2</title>
<path fill="none" stroke="orange" stroke-dasharray="5,2" d="M150.22,-60.11C186.15,-64.24 228.24,-69.07 262.87,-73.05"/>
<polygon fill="orange" stroke="orange" points="150.59,-56.63 140.26,-58.96 149.79,-63.58 150.59,-56.63"/>
<text text-anchor="middle" x="201.5" y="-73" font-family="FreeSans" font-size="10.00"> &lt; TPoint, true &gt;</text>
</g>
<!-- Node4 -->
<g id="node4" class="node">
<title>Node4</title>
<g id="a_node4"><a xlink:href="structDGtal_1_1functors_1_1ConstantPointPredicate.html" target="_top" xlink:title=" ">
<polygon fill="white" stroke="black" points="263,-0.5 263,-41.5 403,-41.5 403,-0.5 263,-0.5"/>
<text text-anchor="start" x="271" y="-29.5" font-family="FreeSans" font-size="10.00">DGtal::functors::Constant</text>
<text text-anchor="start" x="271" y="-18.5" font-family="FreeSans" font-size="10.00">PointPredicate&lt; TPoint,</text>
<text text-anchor="middle" x="333" y="-7.5" font-family="FreeSans" font-size="10.00"> false &gt;</text>
</a>
</g>
</g>
<!-- Node1&#45;&gt;Node4 -->
<g id="edge3" class="edge">
<title>Node1&#45;&gt;Node4</title>
<path fill="none" stroke="orange" stroke-dasharray="5,2" d="M150.22,-41.89C186.15,-37.76 228.24,-32.93 262.87,-28.95"/>
<polygon fill="orange" stroke="orange" points="149.79,-38.42 140.26,-43.04 150.59,-45.37 149.79,-38.42"/>
<text text-anchor="middle" x="201.5" y="-43" font-family="FreeSans" font-size="10.00"> &lt; TPoint, false &gt;</text>
</g>
<!-- Node3 -->
<g id="node3" class="node">
<title>Node3</title>
<g id="a_node3"><a xlink:href="structDGtal_1_1functors_1_1TruePointPredicate.html" target="_top" xlink:title="Aim: The predicate that returns always true.">
<polygon fill="white" stroke="black" points="442.5,-66 442.5,-96 583.5,-96 583.5,-66 442.5,-66"/>
<text text-anchor="start" x="450.5" y="-84" font-family="FreeSans" font-size="10.00">DGtal::functors::TruePoint</text>
<text text-anchor="middle" x="513" y="-73" font-family="FreeSans" font-size="10.00">Predicate&lt; TPoint &gt;</text>
</a>
</g>
</g>
<!-- Node2&#45;&gt;Node3 -->
<g id="edge2" class="edge">
<title>Node2&#45;&gt;Node3</title>
<path fill="none" stroke="midnightblue" d="M413.15,-81C422.89,-81 432.79,-81 442.38,-81"/>
<polygon fill="midnightblue" stroke="midnightblue" points="413.07,-77.5 403.07,-81 413.07,-84.5 413.07,-77.5"/>
</g>
<!-- Node5 -->
<g id="node5" class="node">
<title>Node5</title>
<g id="a_node5"><a xlink:href="structDGtal_1_1functors_1_1FalsePointPredicate.html" target="_top" xlink:title="Aim: The predicate that returns always false.">
<polygon fill="white" stroke="black" points="440,-6 440,-36 586,-36 586,-6 440,-6"/>
<text text-anchor="start" x="448" y="-24" font-family="FreeSans" font-size="10.00">DGtal::functors::FalsePoint</text>
<text text-anchor="middle" x="513" y="-13" font-family="FreeSans" font-size="10.00">Predicate&lt; TPoint &gt;</text>
</a>
</g>
</g>
<!-- Node4&#45;&gt;Node5 -->
<g id="edge4" class="edge">
<title>Node4&#45;&gt;Node5</title>
<path fill="none" stroke="midnightblue" d="M413.32,-21C422.11,-21 431.03,-21 439.73,-21"/>
<polygon fill="midnightblue" stroke="midnightblue" points="413.07,-17.5 403.07,-21 413.07,-24.5 413.07,-17.5"/>
</g>
</g>
</svg>
