<?xml version="1.0" encoding="UTF-8" standalone="no"?>
<!DOCTYPE svg PUBLIC "-//W3C//DTD SVG 1.1//EN"
 "http://www.w3.org/Graphics/SVG/1.1/DTD/svg11.dtd">
<!-- Generated by graphviz version 2.43.0 (0)
 -->
<!-- Title: DGtal::CubicalComplex&lt; TKSpace, TCellContainer &gt;::ConstIterator Pages: 1 -->
<svg width="192pt" height="128pt"
 viewBox="0.00 0.00 192.00 128.00" xmlns="http://www.w3.org/2000/svg" xmlns:xlink="http://www.w3.org/1999/xlink">
<g id="graph0" class="graph" transform="scale(1 1) rotate(0) translate(4 124)">
<title>DGtal::CubicalComplex&lt; TKSpace, TCellContainer &gt;::ConstIterator</title>
<polygon fill="white" stroke="transparent" points="-4,4 -4,-124 188,-124 188,4 -4,4"/>
<!-- Node1 -->
<g id="node1" class="node">
<title>Node1</title>
<g id="a_node1"><a xlink:title=" ">
<polygon fill="#bfbfbf" stroke="black" points="18.5,-0.5 18.5,-41.5 165.5,-41.5 165.5,-0.5 18.5,-0.5"/>
<text text-anchor="start" x="26.5" y="-29.5" font-family="FreeSans" font-size="10.00">DGtal::CubicalComplex</text>
<text text-anchor="start" x="26.5" y="-18.5" font-family="FreeSans" font-size="10.00">&lt; TKSpace, TCellContainer</text>
<text text-anchor="middle" x="92" y="-7.5" font-family="FreeSans" font-size="10.00"> &gt;::ConstIterator</text>
</a>
</g>
</g>
<!-- Node2 -->
<g id="node2" class="node">
<title>Node2</title>
<g id="a_node2"><a xlink:title=" ">
<polygon fill="white" stroke="#bfbfbf" points="0,-78.5 0,-119.5 184,-119.5 184,-78.5 0,-78.5"/>
<text text-anchor="start" x="8" y="-107.5" font-family="FreeSans" font-size="10.00">boost::iterator_facade</text>
<text text-anchor="start" x="8" y="-96.5" font-family="FreeSans" font-size="10.00">&lt; ConstIterator, Cell</text>
<text text-anchor="middle" x="92" y="-85.5" font-family="FreeSans" font-size="10.00"> const, std::forward_iterator_tag &gt;</text>
</a>
</g>
</g>
<!-- Node2&#45;&gt;Node1 -->
<g id="edge1" class="edge">
<title>Node2&#45;&gt;Node1</title>
<path fill="none" stroke="midnightblue" d="M92,-68.3C92,-59.3 92,-49.65 92,-41.51"/>
<polygon fill="midnightblue" stroke="midnightblue" points="88.5,-68.43 92,-78.43 95.5,-68.43 88.5,-68.43"/>
</g>
</g>
</svg>
