<?xml version="1.0" encoding="UTF-8" standalone="no"?>
<!DOCTYPE svg PUBLIC "-//W3C//DTD SVG 1.1//EN"
 "http://www.w3.org/Graphics/SVG/1.1/DTD/svg11.dtd">
<!-- Generated by graphviz version 2.43.0 (0)
 -->
<!-- Title: boost::LessThanComparable&lt; T &gt; Pages: 1 -->
<svg width="1197pt" height="176pt"
 viewBox="0.00 0.00 1197.00 176.00" xmlns="http://www.w3.org/2000/svg" xmlns:xlink="http://www.w3.org/1999/xlink">
<g id="graph0" class="graph" transform="scale(1 1) rotate(0) translate(4 172)">
<title>boost::LessThanComparable&lt; T &gt;</title>
<polygon fill="white" stroke="transparent" points="-4,4 -4,-172 1193,-172 1193,4 -4,4"/>
<!-- Node1 -->
<g id="node1" class="node">
<title>Node1</title>
<g id="a_node1"><a xlink:title="Go to http://www.sgi.com/tech/stl/LessThanComparable.html.">
<polygon fill="#bfbfbf" stroke="black" points="0,-77 0,-96 183,-96 183,-77 0,-77"/>
<text text-anchor="middle" x="91.5" y="-84" font-family="FreeSans" font-size="10.00">boost::LessThanComparable&lt; T &gt;</text>
</a>
</g>
</g>
<!-- Node2 -->
<g id="node2" class="node">
<title>Node2</title>
<g id="a_node2"><a xlink:href="structDGtal_1_1concepts_1_1CQuantity.html" target="_top" xlink:title="Aim: defines the concept of quantity in DGtal.">
<polygon fill="white" stroke="black" points="219,-77 219,-96 396,-96 396,-77 219,-77"/>
<text text-anchor="middle" x="307.5" y="-84" font-family="FreeSans" font-size="10.00">DGtal::concepts::CQuantity&lt; T &gt;</text>
</a>
</g>
</g>
<!-- Node1&#45;&gt;Node2 -->
<g id="edge1" class="edge">
<title>Node1&#45;&gt;Node2</title>
<path fill="none" stroke="midnightblue" d="M193.48,-86.5C201.9,-86.5 210.37,-86.5 218.67,-86.5"/>
<polygon fill="midnightblue" stroke="midnightblue" points="193.26,-83 183.26,-86.5 193.26,-90 193.26,-83"/>
</g>
<!-- Node3 -->
<g id="node3" class="node">
<title>Node3</title>
<g id="a_node3"><a xlink:href="structDGtal_1_1concepts_1_1CBoundedNumber.html" target="_top" xlink:title="Aim: The concept CBoundedNumber specifies what are the bounded numbers. Models of this concept should...">
<polygon fill="white" stroke="black" points="433.5,-137.5 433.5,-167.5 582.5,-167.5 582.5,-137.5 433.5,-137.5"/>
<text text-anchor="start" x="441.5" y="-155.5" font-family="FreeSans" font-size="10.00">DGtal::concepts::CBounded</text>
<text text-anchor="middle" x="508" y="-144.5" font-family="FreeSans" font-size="10.00">Number&lt; T &gt;</text>
</a>
</g>
</g>
<!-- Node2&#45;&gt;Node3 -->
<g id="edge2" class="edge">
<title>Node2&#45;&gt;Node3</title>
<path fill="none" stroke="midnightblue" d="M347.05,-99.32C379.83,-110.22 426.95,-125.89 461.56,-137.39"/>
<polygon fill="midnightblue" stroke="midnightblue" points="347.96,-95.93 337.36,-96.1 345.75,-102.57 347.96,-95.93"/>
</g>
<!-- Node4 -->
<g id="node4" class="node">
<title>Node4</title>
<g id="a_node4"><a xlink:href="structDGtal_1_1concepts_1_1CIntegralNumber.html" target="_top" xlink:title="Aim: Concept checking for Integral Numbers. Models of this concept should be listed in NumberTraits c...">
<polygon fill="white" stroke="black" points="634.5,-96.5 634.5,-126.5 778.5,-126.5 778.5,-96.5 634.5,-96.5"/>
<text text-anchor="start" x="642.5" y="-114.5" font-family="FreeSans" font-size="10.00">DGtal::concepts::CIntegral</text>
<text text-anchor="middle" x="706.5" y="-103.5" font-family="FreeSans" font-size="10.00">Number&lt; T &gt;</text>
</a>
</g>
</g>
<!-- Node2&#45;&gt;Node4 -->
<g id="edge3" class="edge">
<title>Node2&#45;&gt;Node4</title>
<path fill="none" stroke="midnightblue" d="M406.36,-92.66C476.99,-97.11 570.74,-103.01 634.33,-107.02"/>
<polygon fill="midnightblue" stroke="midnightblue" points="406.32,-89.15 396.11,-92.02 405.88,-96.14 406.32,-89.15"/>
</g>
<!-- Node6 -->
<g id="node6" class="node">
<title>Node6</title>
<g id="a_node6"><a xlink:href="structDGtal_1_1concepts_1_1CSignedNumber.html" target="_top" xlink:title="Aim: Concept checking for Signed Numbers. Models of this concept should be listed in NumberTraits cla...">
<polygon fill="white" stroke="black" points="438,-49.5 438,-79.5 578,-79.5 578,-49.5 438,-49.5"/>
<text text-anchor="start" x="446" y="-67.5" font-family="FreeSans" font-size="10.00">DGtal::concepts::CSigned</text>
<text text-anchor="middle" x="508" y="-56.5" font-family="FreeSans" font-size="10.00">Number&lt; T &gt;</text>
</a>
</g>
</g>
<!-- Node2&#45;&gt;Node6 -->
<g id="edge5" class="edge">
<title>Node2&#45;&gt;Node6</title>
<path fill="none" stroke="midnightblue" d="M404.35,-75.88C415.71,-74.62 427.11,-73.35 437.99,-72.15"/>
<polygon fill="midnightblue" stroke="midnightblue" points="403.96,-72.4 394.41,-76.98 404.74,-79.36 403.96,-72.4"/>
</g>
<!-- Node9 -->
<g id="node9" class="node">
<title>Node9</title>
<g id="a_node9"><a xlink:href="structDGtal_1_1concepts_1_1CUnsignedNumber.html" target="_top" xlink:title="Aim: Concept checking for Unsigned numbers. Models of this concept should be listed in NumberTraits c...">
<polygon fill="white" stroke="black" points="432,-0.5 432,-30.5 584,-30.5 584,-0.5 432,-0.5"/>
<text text-anchor="start" x="440" y="-18.5" font-family="FreeSans" font-size="10.00">DGtal::concepts::CUnsigned</text>
<text text-anchor="middle" x="508" y="-7.5" font-family="FreeSans" font-size="10.00">Number&lt; T &gt;</text>
</a>
</g>
</g>
<!-- Node2&#45;&gt;Node9 -->
<g id="edge9" class="edge">
<title>Node2&#45;&gt;Node9</title>
<path fill="none" stroke="midnightblue" d="M342.13,-73.14C366.86,-63.45 401.36,-50.22 432,-39.5 440.52,-36.52 449.63,-33.48 458.46,-30.61"/>
<polygon fill="midnightblue" stroke="midnightblue" points="340.52,-70.01 332.5,-76.93 343.08,-76.53 340.52,-70.01"/>
</g>
<!-- Node5 -->
<g id="node5" class="node">
<title>Node5</title>
<g id="a_node5"><a xlink:href="structDGtal_1_1concepts_1_1CInteger.html" target="_top" xlink:title="Aim: Concept checking for Integer Numbers. More precisely, this concept is a refinement of both CEucl...">
<polygon fill="white" stroke="black" points="1019,-77 1019,-96 1189,-96 1189,-77 1019,-77"/>
<text text-anchor="middle" x="1104" y="-84" font-family="FreeSans" font-size="10.00">DGtal::concepts::CInteger&lt; T &gt;</text>
</a>
</g>
</g>
<!-- Node4&#45;&gt;Node5 -->
<g id="edge4" class="edge">
<title>Node4&#45;&gt;Node5</title>
<path fill="none" stroke="midnightblue" d="M788.77,-106.36C855.86,-102.12 950.76,-96.12 1018.68,-91.83"/>
<polygon fill="midnightblue" stroke="midnightblue" points="788.42,-102.88 778.66,-107 788.87,-109.86 788.42,-102.88"/>
</g>
<!-- Node7 -->
<g id="node7" class="node">
<title>Node7</title>
<g id="a_node7"><a xlink:href="structDGtal_1_1concepts_1_1CCommutativeRing.html" target="_top" xlink:title="Aim: Defines the mathematical concept equivalent to a unitary commutative ring.">
<polygon fill="white" stroke="black" points="620,-47.5 620,-77.5 793,-77.5 793,-47.5 620,-47.5"/>
<text text-anchor="start" x="628" y="-65.5" font-family="FreeSans" font-size="10.00">DGtal::concepts::CCommutative</text>
<text text-anchor="middle" x="706.5" y="-54.5" font-family="FreeSans" font-size="10.00">Ring&lt; T &gt;</text>
</a>
</g>
</g>
<!-- Node6&#45;&gt;Node7 -->
<g id="edge6" class="edge">
<title>Node6&#45;&gt;Node7</title>
<path fill="none" stroke="midnightblue" d="M588.25,-63.69C598.62,-63.59 609.28,-63.48 619.75,-63.37"/>
<polygon fill="midnightblue" stroke="midnightblue" points="587.97,-60.2 578,-63.8 588.04,-67.2 587.97,-60.2"/>
</g>
<!-- Node8 -->
<g id="node8" class="node">
<title>Node8</title>
<g id="a_node8"><a xlink:href="structDGtal_1_1concepts_1_1CEuclideanRing.html" target="_top" xlink:title="Aim: Defines the mathematical concept equivalent to a unitary commutative ring with a division operat...">
<polygon fill="white" stroke="black" points="829,-49.5 829,-79.5 983,-79.5 983,-49.5 829,-49.5"/>
<text text-anchor="start" x="837" y="-67.5" font-family="FreeSans" font-size="10.00">DGtal::concepts::CEuclidean</text>
<text text-anchor="middle" x="906" y="-56.5" font-family="FreeSans" font-size="10.00">Ring&lt; T &gt;</text>
</a>
</g>
</g>
<!-- Node7&#45;&gt;Node8 -->
<g id="edge7" class="edge">
<title>Node7&#45;&gt;Node8</title>
<path fill="none" stroke="midnightblue" d="M803.32,-63.47C811.92,-63.56 820.54,-63.64 828.93,-63.73"/>
<polygon fill="midnightblue" stroke="midnightblue" points="803.3,-59.97 793.26,-63.37 803.23,-66.97 803.3,-59.97"/>
</g>
<!-- Node8&#45;&gt;Node5 -->
<g id="edge8" class="edge">
<title>Node8&#45;&gt;Node5</title>
<path fill="none" stroke="midnightblue" d="M993.04,-74.16C1001.61,-75.12 1010.3,-76.1 1018.85,-77.05"/>
<polygon fill="midnightblue" stroke="midnightblue" points="993.39,-70.67 983.06,-73.04 992.61,-77.63 993.39,-70.67"/>
</g>
</g>
</svg>
