<?xml version="1.0" encoding="UTF-8" standalone="no"?>
<!DOCTYPE svg PUBLIC "-//W3C//DTD SVG 1.1//EN"
 "http://www.w3.org/Graphics/SVG/1.1/DTD/svg11.dtd">
<!-- Generated by graphviz version 2.43.0 (0)
 -->
<!-- Title: DGtal::concepts::CConstImage&lt; I &gt; Pages: 1 -->
<svg width="313pt" height="547pt"
 viewBox="0.00 0.00 312.50 547.00" xmlns="http://www.w3.org/2000/svg" xmlns:xlink="http://www.w3.org/1999/xlink">
<g id="graph0" class="graph" transform="scale(1 1) rotate(0) translate(4 543)">
<title>DGtal::concepts::CConstImage&lt; I &gt;</title>
<polygon fill="white" stroke="transparent" points="-4,4 -4,-543 308.5,-543 308.5,4 -4,4"/>
<!-- Node1 -->
<g id="node1" class="node">
<title>Node1</title>
<g id="a_node1"><a xlink:title="Aim: Defines the concept describing a read&#45;only image, which is a refinement of CPointFunctor.">
<polygon fill="#bfbfbf" stroke="black" points="1,-57.5 1,-76.5 192,-76.5 192,-57.5 1,-57.5"/>
<text text-anchor="middle" x="96.5" y="-64.5" font-family="FreeSans" font-size="10.00">DGtal::concepts::CConstImage&lt; I &gt;</text>
</a>
</g>
</g>
<!-- Node9 -->
<g id="node9" class="node">
<title>Node9</title>
<g id="a_node9"><a xlink:href="structDGtal_1_1concepts_1_1CImage.html" target="_top" xlink:title="Aim: Defines the concept describing a read/write image, having an output iterator.">
<polygon fill="white" stroke="black" points="15,-0.5 15,-19.5 178,-19.5 178,-0.5 15,-0.5"/>
<text text-anchor="middle" x="96.5" y="-7.5" font-family="FreeSans" font-size="10.00">DGtal::concepts::CImage&lt; I &gt;</text>
</a>
</g>
</g>
<!-- Node1&#45;&gt;Node9 -->
<g id="edge10" class="edge">
<title>Node1&#45;&gt;Node9</title>
<path fill="none" stroke="midnightblue" d="M96.5,-47.12C96.5,-37.82 96.5,-27.06 96.5,-19.71"/>
<polygon fill="midnightblue" stroke="midnightblue" points="93,-47.41 96.5,-57.41 100,-47.41 93,-47.41"/>
</g>
<!-- Node2 -->
<g id="node2" class="node">
<title>Node2</title>
<g id="a_node2"><a xlink:href="structDGtal_1_1concepts_1_1CTrivialConstImage.html" target="_top" xlink:title="Aim: Defines the concept describing a read&#45;only image, which is a refinement of CPointFunctor.">
<polygon fill="white" stroke="black" points="28.5,-114.5 28.5,-144.5 164.5,-144.5 164.5,-114.5 28.5,-114.5"/>
<text text-anchor="start" x="36.5" y="-132.5" font-family="FreeSans" font-size="10.00">DGtal::concepts::CTrivial</text>
<text text-anchor="middle" x="96.5" y="-121.5" font-family="FreeSans" font-size="10.00">ConstImage&lt; I &gt;</text>
</a>
</g>
</g>
<!-- Node2&#45;&gt;Node1 -->
<g id="edge1" class="edge">
<title>Node2&#45;&gt;Node1</title>
<path fill="none" stroke="midnightblue" d="M96.5,-104.35C96.5,-94.51 96.5,-83.78 96.5,-76.54"/>
<polygon fill="midnightblue" stroke="midnightblue" points="93,-104.47 96.5,-114.47 100,-104.47 93,-104.47"/>
</g>
<!-- Node3 -->
<g id="node3" class="node">
<title>Node3</title>
<g id="a_node3"><a xlink:href="structDGtal_1_1concepts_1_1CPointFunctor.html" target="_top" xlink:title=" ">
<polygon fill="white" stroke="black" points="0,-182.5 0,-201.5 193,-201.5 193,-182.5 0,-182.5"/>
<text text-anchor="middle" x="96.5" y="-189.5" font-family="FreeSans" font-size="10.00">DGtal::concepts::CPointFunctor&lt; I &gt;</text>
</a>
</g>
</g>
<!-- Node3&#45;&gt;Node2 -->
<g id="edge2" class="edge">
<title>Node3&#45;&gt;Node2</title>
<path fill="none" stroke="midnightblue" d="M96.5,-172.22C96.5,-163.36 96.5,-152.96 96.5,-144.76"/>
<polygon fill="midnightblue" stroke="midnightblue" points="93,-172.33 96.5,-182.33 100,-172.33 93,-172.33"/>
</g>
<!-- Node4 -->
<g id="node4" class="node">
<title>Node4</title>
<g id="a_node4"><a xlink:href="structDGtal_1_1concepts_1_1CUnaryFunctor.html" target="_top" xlink:title="Aim: Defines a unary functor, which associates arguments to results.">
<polygon fill="white" stroke="black" points="27.5,-384.5 27.5,-414.5 199.5,-414.5 199.5,-384.5 27.5,-384.5"/>
<text text-anchor="start" x="35.5" y="-402.5" font-family="FreeSans" font-size="10.00">DGtal::concepts::CUnaryFunctor</text>
<text text-anchor="middle" x="113.5" y="-391.5" font-family="FreeSans" font-size="10.00">&lt; X, A, R &gt;</text>
</a>
</g>
</g>
<!-- Node4&#45;&gt;Node3 -->
<g id="edge3" class="edge">
<title>Node4&#45;&gt;Node3</title>
<path fill="none" stroke="midnightblue" d="M107.92,-374.44C107.38,-371.6 106.89,-368.74 106.5,-366 97.55,-303.46 96.56,-227.11 96.49,-201.69"/>
<polygon fill="midnightblue" stroke="midnightblue" points="104.52,-375.27 110,-384.34 111.37,-373.83 104.52,-375.27"/>
</g>
<!-- Node8 -->
<g id="node8" class="node">
<title>Node8</title>
<g id="a_node8"><a xlink:href="structDGtal_1_1concepts_1_1CUnaryFunctor.html" target="_top" xlink:title=" ">
<polygon fill="white" stroke="black" points="120.5,-306.5 120.5,-336.5 292.5,-336.5 292.5,-306.5 120.5,-306.5"/>
<text text-anchor="start" x="128.5" y="-324.5" font-family="FreeSans" font-size="10.00">DGtal::concepts::CUnaryFunctor</text>
<text text-anchor="middle" x="206.5" y="-313.5" font-family="FreeSans" font-size="10.00">&lt; T, T::Point, T::Value &gt;</text>
</a>
</g>
</g>
<!-- Node4&#45;&gt;Node8 -->
<g id="edge9" class="edge">
<title>Node4&#45;&gt;Node8</title>
<path fill="none" stroke="orange" stroke-dasharray="5,2" d="M109.18,-374.12C109.22,-367.4 110.54,-360.46 114.5,-355 120.17,-347.18 127.87,-341.23 136.42,-336.71"/>
<polygon fill="orange" stroke="orange" points="105.71,-374.57 109.98,-384.27 112.69,-374.03 105.71,-374.57"/>
<text text-anchor="middle" x="173.5" y="-358" font-family="FreeSans" font-size="10.00"> &lt; T, T::Point, T::Value &gt;</text>
</g>
<!-- Node5 -->
<g id="node5" class="node">
<title>Node5</title>
<g id="a_node5"><a xlink:href="structboost_1_1Assignable.html" target="_top" xlink:title=" ">
<polygon fill="white" stroke="black" points="76.5,-452.5 76.5,-471.5 208.5,-471.5 208.5,-452.5 76.5,-452.5"/>
<text text-anchor="middle" x="142.5" y="-459.5" font-family="FreeSans" font-size="10.00">boost::Assignable&lt; X &gt;</text>
</a>
</g>
</g>
<!-- Node5&#45;&gt;Node4 -->
<g id="edge4" class="edge">
<title>Node5&#45;&gt;Node4</title>
<path fill="none" stroke="midnightblue" d="M133.92,-443.1C129.58,-434.05 124.4,-423.23 120.33,-414.76"/>
<polygon fill="midnightblue" stroke="midnightblue" points="130.87,-444.83 138.35,-452.33 137.18,-441.8 130.87,-444.83"/>
</g>
<!-- Node6 -->
<g id="node6" class="node">
<title>Node6</title>
<g id="a_node6"><a xlink:href="structboost_1_1Assignable.html" target="_top" xlink:title="Go to http://www.sgi.com/tech/stl/Assignable.html.">
<polygon fill="white" stroke="black" points="134,-519.5 134,-538.5 265,-538.5 265,-519.5 134,-519.5"/>
<text text-anchor="middle" x="199.5" y="-526.5" font-family="FreeSans" font-size="10.00">boost::Assignable&lt; T &gt;</text>
</a>
</g>
</g>
<!-- Node6&#45;&gt;Node5 -->
<g id="edge5" class="edge">
<title>Node6&#45;&gt;Node5</title>
<path fill="none" stroke="orange" stroke-dasharray="5,2" d="M185.15,-511.63C174,-498.92 158.98,-481.8 150.07,-471.63"/>
<polygon fill="orange" stroke="orange" points="182.59,-514.02 191.81,-519.23 187.85,-509.41 182.59,-514.02"/>
<text text-anchor="middle" x="190" y="-493" font-family="FreeSans" font-size="10.00"> &lt; X &gt;</text>
</g>
<!-- Node6&#45;&gt;Node8 -->
<g id="edge8" class="edge">
<title>Node6&#45;&gt;Node8</title>
<path fill="none" stroke="midnightblue" d="M207.33,-509.84C208.47,-506.91 209.57,-503.89 210.5,-501 229.15,-443.14 228.23,-426.64 232.5,-366 232.84,-361.12 234.12,-359.61 232.5,-355 230.16,-348.32 225.8,-341.99 221.31,-336.72"/>
<polygon fill="midnightblue" stroke="midnightblue" points="204.08,-508.55 203.51,-519.12 210.55,-511.21 204.08,-508.55"/>
</g>
<!-- Node7 -->
<g id="node7" class="node">
<title>Node7</title>
<g id="a_node7"><a xlink:href="structDGtal_1_1concepts_1_1CPointFunctor.html" target="_top" xlink:title="Aim: Defines a functor on points.">
<polygon fill="white" stroke="black" points="108.5,-249.5 108.5,-268.5 304.5,-268.5 304.5,-249.5 108.5,-249.5"/>
<text text-anchor="middle" x="206.5" y="-256.5" font-family="FreeSans" font-size="10.00">DGtal::concepts::CPointFunctor&lt; T &gt;</text>
</a>
</g>
</g>
<!-- Node7&#45;&gt;Node3 -->
<g id="edge6" class="edge">
<title>Node7&#45;&gt;Node3</title>
<path fill="none" stroke="orange" stroke-dasharray="5,2" d="M183,-244.12C161.21,-231.24 129.46,-212.48 111.1,-201.63"/>
<polygon fill="orange" stroke="orange" points="181.28,-247.16 191.66,-249.23 184.84,-241.13 181.28,-247.16"/>
<text text-anchor="middle" x="173" y="-223" font-family="FreeSans" font-size="10.00"> &lt; I &gt;</text>
</g>
<!-- Node8&#45;&gt;Node7 -->
<g id="edge7" class="edge">
<title>Node8&#45;&gt;Node7</title>
<path fill="none" stroke="midnightblue" d="M206.5,-296.35C206.5,-286.51 206.5,-275.78 206.5,-268.54"/>
<polygon fill="midnightblue" stroke="midnightblue" points="203,-296.47 206.5,-306.47 210,-296.47 203,-296.47"/>
</g>
</g>
</svg>
