<?xml version="1.0" encoding="UTF-8" standalone="no"?>
<!DOCTYPE svg PUBLIC "-//W3C//DTD SVG 1.1//EN"
 "http://www.w3.org/Graphics/SVG/1.1/DTD/svg11.dtd">
<!-- Generated by graphviz version 2.43.0 (0)
 -->
<!-- Title: testCountedPtr.cpp Pages: 1 -->
<svg width="2486pt" height="375pt"
 viewBox="0.00 0.00 2485.50 375.00" xmlns="http://www.w3.org/2000/svg" xmlns:xlink="http://www.w3.org/1999/xlink">
<g id="graph0" class="graph" transform="scale(1 1) rotate(0) translate(4 371)">
<title>testCountedPtr.cpp</title>
<polygon fill="white" stroke="transparent" points="-4,4 -4,-371 2481.5,-371 2481.5,4 -4,4"/>
<!-- Node1 -->
<g id="node1" class="node">
<title>Node1</title>
<g id="a_node1"><a xlink:title=" ">
<polygon fill="#bfbfbf" stroke="black" points="245.5,-347.5 245.5,-366.5 354.5,-366.5 354.5,-347.5 245.5,-347.5"/>
<text text-anchor="middle" x="300" y="-354.5" font-family="FreeSans" font-size="10.00">testCountedPtr.cpp</text>
</a>
</g>
</g>
<!-- Node2 -->
<g id="node2" class="node">
<title>Node2</title>
<g id="a_node2"><a xlink:title=" ">
<polygon fill="white" stroke="#bfbfbf" points="1041,-0.5 1041,-19.5 1101,-19.5 1101,-0.5 1041,-0.5"/>
<text text-anchor="middle" x="1071" y="-7.5" font-family="FreeSans" font-size="10.00">iostream</text>
</a>
</g>
</g>
<!-- Node1&#45;&gt;Node2 -->
<g id="edge1" class="edge">
<title>Node1&#45;&gt;Node2</title>
<path fill="none" stroke="midnightblue" d="M245.32,-347.46C158.79,-332.38 0,-297.66 0,-246 0,-246 0,-246 0,-121 0,-80.77 26.31,-72.51 63,-56 152.28,-15.83 854.34,-11.5 1030.84,-11.05"/>
<polygon fill="midnightblue" stroke="midnightblue" points="1031,-14.55 1040.99,-11.03 1030.98,-7.55 1031,-14.55"/>
</g>
<!-- Node3 -->
<g id="node3" class="node">
<title>Node3</title>
<g id="a_node3"><a xlink:href="Common_8h_source.html" target="_top" xlink:title=" ">
<polygon fill="white" stroke="black" points="883.5,-235.5 883.5,-254.5 1010.5,-254.5 1010.5,-235.5 883.5,-235.5"/>
<text text-anchor="middle" x="947" y="-242.5" font-family="FreeSans" font-size="10.00">DGtal/base/Common.h</text>
</a>
</g>
</g>
<!-- Node1&#45;&gt;Node3 -->
<g id="edge2" class="edge">
<title>Node1&#45;&gt;Node3</title>
<path fill="none" stroke="midnightblue" d="M350.23,-347.46C467.74,-327.48 760.17,-277.76 886.88,-256.22"/>
<polygon fill="midnightblue" stroke="midnightblue" points="887.53,-259.66 896.8,-254.53 886.36,-252.76 887.53,-259.66"/>
</g>
<!-- Node44 -->
<g id="node44" class="node">
<title>Node44</title>
<g id="a_node44"><a xlink:href="CountedPtr_8h_source.html" target="_top" xlink:title=" ">
<polygon fill="white" stroke="black" points="232,-291.5 232,-310.5 368,-310.5 368,-291.5 232,-291.5"/>
<text text-anchor="middle" x="300" y="-298.5" font-family="FreeSans" font-size="10.00">DGtal/base/CountedPtr.h</text>
</a>
</g>
</g>
<!-- Node1&#45;&gt;Node44 -->
<g id="edge73" class="edge">
<title>Node1&#45;&gt;Node44</title>
<path fill="none" stroke="midnightblue" d="M300,-347.08C300,-340.01 300,-329.86 300,-320.99"/>
<polygon fill="midnightblue" stroke="midnightblue" points="303.5,-320.75 300,-310.75 296.5,-320.75 303.5,-320.75"/>
</g>
<!-- Node3&#45;&gt;Node2 -->
<g id="edge3" class="edge">
<title>Node3&#45;&gt;Node2</title>
<path fill="none" stroke="midnightblue" d="M883.41,-242.23C738.02,-237.8 384.97,-224.68 269,-199 184.97,-180.4 48.2,-183.57 96,-112 132.07,-57.98 167.66,-70.39 231,-56 385.92,-20.81 884.18,-12.93 1030.34,-11.36"/>
<polygon fill="midnightblue" stroke="midnightblue" points="1030.68,-14.86 1040.64,-11.25 1030.6,-7.86 1030.68,-14.86"/>
</g>
<!-- Node4 -->
<g id="node4" class="node">
<title>Node4</title>
<g id="a_node4"><a xlink:title=" ">
<polygon fill="white" stroke="#bfbfbf" points="811.5,-174 811.5,-193 876.5,-193 876.5,-174 811.5,-174"/>
<text text-anchor="middle" x="844" y="-181" font-family="FreeSans" font-size="10.00">exception</text>
</a>
</g>
</g>
<!-- Node3&#45;&gt;Node4 -->
<g id="edge4" class="edge">
<title>Node3&#45;&gt;Node4</title>
<path fill="none" stroke="midnightblue" d="M932.24,-235.48C915.34,-225.71 887.42,-209.58 867.51,-198.08"/>
<polygon fill="midnightblue" stroke="midnightblue" points="869.14,-194.98 858.73,-193.01 865.64,-201.04 869.14,-194.98"/>
</g>
<!-- Node5 -->
<g id="node5" class="node">
<title>Node5</title>
<g id="a_node5"><a xlink:title=" ">
<polygon fill="white" stroke="#bfbfbf" points="895,-174 895,-193 999,-193 999,-174 895,-174"/>
<text text-anchor="middle" x="947" y="-181" font-family="FreeSans" font-size="10.00">boost/version.hpp</text>
</a>
</g>
</g>
<!-- Node3&#45;&gt;Node5 -->
<g id="edge5" class="edge">
<title>Node3&#45;&gt;Node5</title>
<path fill="none" stroke="midnightblue" d="M947,-235.48C947,-227.08 947,-213.98 947,-203.16"/>
<polygon fill="midnightblue" stroke="midnightblue" points="950.5,-203.01 947,-193.01 943.5,-203.01 950.5,-203.01"/>
</g>
<!-- Node6 -->
<g id="node6" class="node">
<title>Node6</title>
<g id="a_node6"><a xlink:title=" ">
<polygon fill="white" stroke="#bfbfbf" points="1017,-174 1017,-193 1157,-193 1157,-174 1017,-174"/>
<text text-anchor="middle" x="1087" y="-181" font-family="FreeSans" font-size="10.00">boost/concept_check.hpp</text>
</a>
</g>
</g>
<!-- Node3&#45;&gt;Node6 -->
<g id="edge6" class="edge">
<title>Node3&#45;&gt;Node6</title>
<path fill="none" stroke="midnightblue" d="M967.06,-235.48C990.76,-225.4 1030.41,-208.55 1057.58,-197"/>
<polygon fill="midnightblue" stroke="midnightblue" points="1059.14,-200.14 1066.98,-193.01 1056.41,-193.7 1059.14,-200.14"/>
</g>
<!-- Node7 -->
<g id="node7" class="node">
<title>Node7</title>
<g id="a_node7"><a xlink:title=" ">
<polygon fill="white" stroke="#bfbfbf" points="1175,-174 1175,-193 1305,-193 1305,-174 1175,-174"/>
<text text-anchor="middle" x="1240" y="-181" font-family="FreeSans" font-size="10.00">boost/static_assert.hpp</text>
</a>
</g>
</g>
<!-- Node3&#45;&gt;Node7 -->
<g id="edge7" class="edge">
<title>Node3&#45;&gt;Node7</title>
<path fill="none" stroke="midnightblue" d="M988.98,-235.48C1041.52,-224.8 1131.5,-206.53 1188.25,-195.01"/>
<polygon fill="midnightblue" stroke="midnightblue" points="1188.99,-198.43 1198.1,-193.01 1187.6,-191.57 1188.99,-198.43"/>
</g>
<!-- Node8 -->
<g id="node8" class="node">
<title>Node8</title>
<g id="a_node8"><a xlink:title=" ">
<polygon fill="white" stroke="#bfbfbf" points="1323.5,-174 1323.5,-193 1462.5,-193 1462.5,-174 1323.5,-174"/>
<text text-anchor="middle" x="1393" y="-181" font-family="FreeSans" font-size="10.00">boost/concept/assert.hpp</text>
</a>
</g>
</g>
<!-- Node3&#45;&gt;Node8 -->
<g id="edge8" class="edge">
<title>Node3&#45;&gt;Node8</title>
<path fill="none" stroke="midnightblue" d="M1010.81,-237.34C1084.14,-229.42 1208.03,-215.21 1314,-199 1322.13,-197.76 1330.72,-196.32 1339.11,-194.83"/>
<polygon fill="midnightblue" stroke="midnightblue" points="1339.98,-198.23 1349.2,-193.02 1338.74,-191.34 1339.98,-198.23"/>
</g>
<!-- Node9 -->
<g id="node9" class="node">
<title>Node9</title>
<g id="a_node9"><a xlink:title=" ">
<polygon fill="white" stroke="#bfbfbf" points="1480.5,-174 1480.5,-193 1629.5,-193 1629.5,-174 1480.5,-174"/>
<text text-anchor="middle" x="1555" y="-181" font-family="FreeSans" font-size="10.00">boost/concept/requires.hpp</text>
</a>
</g>
</g>
<!-- Node3&#45;&gt;Node9 -->
<g id="edge9" class="edge">
<title>Node3&#45;&gt;Node9</title>
<path fill="none" stroke="midnightblue" d="M1010.63,-240.35C1109.58,-234.26 1306.21,-220.54 1472,-199 1481.16,-197.81 1490.85,-196.32 1500.26,-194.76"/>
<polygon fill="midnightblue" stroke="midnightblue" points="1501.04,-198.18 1510.31,-193.05 1499.86,-191.28 1501.04,-198.18"/>
</g>
<!-- Node10 -->
<g id="node10" class="node">
<title>Node10</title>
<g id="a_node10"><a xlink:title=" ">
<polygon fill="white" stroke="#bfbfbf" points="1648,-168.5 1648,-198.5 1770,-198.5 1770,-168.5 1648,-168.5"/>
<text text-anchor="start" x="1656" y="-186.5" font-family="FreeSans" font-size="10.00">boost/iterator/iterator</text>
<text text-anchor="middle" x="1709" y="-175.5" font-family="FreeSans" font-size="10.00">_concepts.hpp</text>
</a>
</g>
</g>
<!-- Node3&#45;&gt;Node10 -->
<g id="edge10" class="edge">
<title>Node3&#45;&gt;Node10</title>
<path fill="none" stroke="midnightblue" d="M1010.74,-242.82C1131.34,-239.94 1401.26,-230.41 1637.47,-199.08"/>
<polygon fill="midnightblue" stroke="midnightblue" points="1638.18,-202.52 1647.62,-197.72 1637.25,-195.58 1638.18,-202.52"/>
</g>
<!-- Node11 -->
<g id="node11" class="node">
<title>Node11</title>
<g id="a_node11"><a xlink:title=" ">
<polygon fill="white" stroke="#bfbfbf" points="1788,-174 1788,-193 1948,-193 1948,-174 1788,-174"/>
<text text-anchor="middle" x="1868" y="-181" font-family="FreeSans" font-size="10.00">boost/concept_archetype.hpp</text>
</a>
</g>
</g>
<!-- Node3&#45;&gt;Node11 -->
<g id="edge11" class="edge">
<title>Node3&#45;&gt;Node11</title>
<path fill="none" stroke="midnightblue" d="M1010.6,-242.89C1150.1,-239.94 1493.34,-229.9 1779,-199 1789.5,-197.86 1800.64,-196.32 1811.36,-194.66"/>
<polygon fill="midnightblue" stroke="midnightblue" points="1812.15,-198.08 1821.48,-193.05 1811.05,-191.17 1812.15,-198.08"/>
</g>
<!-- Node12 -->
<g id="node12" class="node">
<title>Node12</title>
<g id="a_node12"><a xlink:title=" ">
<polygon fill="white" stroke="#bfbfbf" points="874.5,-112.5 874.5,-131.5 921.5,-131.5 921.5,-112.5 874.5,-112.5"/>
<text text-anchor="middle" x="898" y="-119.5" font-family="FreeSans" font-size="10.00">cmath</text>
</a>
</g>
</g>
<!-- Node3&#45;&gt;Node12 -->
<g id="edge12" class="edge">
<title>Node3&#45;&gt;Node12</title>
<path fill="none" stroke="midnightblue" d="M883.24,-239.96C790.56,-233.43 627.69,-219.21 610,-199 551.84,-132.56 553.4,-194.84 864.06,-131.94"/>
<polygon fill="midnightblue" stroke="midnightblue" points="865.2,-135.28 874.29,-129.85 863.79,-128.43 865.2,-135.28"/>
</g>
<!-- Node13 -->
<g id="node13" class="node">
<title>Node13</title>
<g id="a_node13"><a xlink:title=" ">
<polygon fill="white" stroke="#bfbfbf" points="2130,-174 2130,-193 2180,-193 2180,-174 2130,-174"/>
<text text-anchor="middle" x="2155" y="-181" font-family="FreeSans" font-size="10.00">stdio.h</text>
</a>
</g>
</g>
<!-- Node3&#45;&gt;Node13 -->
<g id="edge13" class="edge">
<title>Node3&#45;&gt;Node13</title>
<path fill="none" stroke="midnightblue" d="M1010.54,-242.91C1239.24,-238.82 2012.66,-223.31 2121,-199 2123.52,-198.43 2126.09,-197.69 2128.63,-196.83"/>
<polygon fill="midnightblue" stroke="midnightblue" points="2130.06,-200.03 2138.11,-193.14 2127.52,-193.51 2130.06,-200.03"/>
</g>
<!-- Node14 -->
<g id="node14" class="node">
<title>Node14</title>
<g id="a_node14"><a xlink:href="Config_8h_source.html" target="_top" xlink:title=" ">
<polygon fill="white" stroke="black" points="2121.5,-56.5 2121.5,-75.5 2234.5,-75.5 2234.5,-56.5 2121.5,-56.5"/>
<text text-anchor="middle" x="2178" y="-63.5" font-family="FreeSans" font-size="10.00">DGtal/base/Config.h</text>
</a>
</g>
</g>
<!-- Node3&#45;&gt;Node14 -->
<g id="edge14" class="edge">
<title>Node3&#45;&gt;Node14</title>
<path fill="none" stroke="midnightblue" d="M1010.5,-244.15C1260.36,-244.42 2164.14,-242.38 2206,-199 2236.25,-167.65 2207.77,-112.18 2189.93,-84.19"/>
<polygon fill="midnightblue" stroke="midnightblue" points="2192.83,-82.22 2184.39,-75.82 2186.99,-86.09 2192.83,-82.22"/>
</g>
<!-- Node16 -->
<g id="node16" class="node">
<title>Node16</title>
<g id="a_node16"><a xlink:href="Trace_8h_source.html" target="_top" xlink:title=" ">
<polygon fill="white" stroke="black" points="2004,-174 2004,-193 2112,-193 2112,-174 2004,-174"/>
<text text-anchor="middle" x="2058" y="-181" font-family="FreeSans" font-size="10.00">DGtal/base/Trace.h</text>
</a>
</g>
</g>
<!-- Node3&#45;&gt;Node16 -->
<g id="edge17" class="edge">
<title>Node3&#45;&gt;Node16</title>
<path fill="none" stroke="midnightblue" d="M1010.56,-242.65C1206.42,-238.27 1798.97,-223.32 1990,-199 1997.66,-198.03 2005.74,-196.63 2013.55,-195.09"/>
<polygon fill="midnightblue" stroke="midnightblue" points="2014.52,-198.46 2023.6,-193 2013.09,-191.61 2014.52,-198.46"/>
</g>
<!-- Node23 -->
<g id="node23" class="node">
<title>Node23</title>
<g id="a_node23"><a xlink:href="TraceWriterTerm_8h_source.html" target="_top" xlink:title=" ">
<polygon fill="white" stroke="black" points="1998,-112.5 1998,-131.5 2160,-131.5 2160,-112.5 1998,-112.5"/>
<text text-anchor="middle" x="2079" y="-119.5" font-family="FreeSans" font-size="10.00">DGtal/base/TraceWriterTerm.h</text>
</a>
</g>
</g>
<!-- Node3&#45;&gt;Node23 -->
<g id="edge40" class="edge">
<title>Node3&#45;&gt;Node23</title>
<path fill="none" stroke="midnightblue" d="M1010.91,-244.11C1259.16,-244.25 2147.79,-241.73 2189,-199 2198.56,-189.08 2196.68,-179.44 2189,-168 2178.08,-151.73 2160.13,-141.34 2141.86,-134.71"/>
<polygon fill="midnightblue" stroke="midnightblue" points="2142.91,-131.37 2132.32,-131.57 2140.72,-138.02 2142.91,-131.37"/>
</g>
<!-- Node24 -->
<g id="node24" class="node">
<title>Node24</title>
<g id="a_node24"><a xlink:href="Assert_8h_source.html" target="_top" xlink:title=" ">
<polygon fill="white" stroke="black" points="2292.5,-112.5 2292.5,-131.5 2405.5,-131.5 2405.5,-112.5 2292.5,-112.5"/>
<text text-anchor="middle" x="2349" y="-119.5" font-family="FreeSans" font-size="10.00">DGtal/base/Assert.h</text>
</a>
</g>
</g>
<!-- Node3&#45;&gt;Node24 -->
<g id="edge45" class="edge">
<title>Node3&#45;&gt;Node24</title>
<path fill="none" stroke="midnightblue" d="M1010.66,-244.28C1257.43,-245.01 2143.07,-244.42 2260,-199 2291.58,-186.73 2319.77,-158.21 2335.6,-139.81"/>
<polygon fill="midnightblue" stroke="midnightblue" points="2338.63,-141.63 2342.33,-131.7 2333.25,-137.16 2338.63,-141.63"/>
</g>
<!-- Node27 -->
<g id="node27" class="node">
<title>Node27</title>
<g id="a_node27"><a xlink:href="TraceWriterFile_8h_source.html" target="_top" xlink:title=" ">
<polygon fill="white" stroke="black" points="1557.5,-112.5 1557.5,-131.5 1712.5,-131.5 1712.5,-112.5 1557.5,-112.5"/>
<text text-anchor="middle" x="1635" y="-119.5" font-family="FreeSans" font-size="10.00">DGtal/base/TraceWriterFile.h</text>
</a>
</g>
</g>
<!-- Node3&#45;&gt;Node27 -->
<g id="edge41" class="edge">
<title>Node3&#45;&gt;Node27</title>
<path fill="none" stroke="midnightblue" d="M1010.87,-243.56C1227.73,-241.74 1924.24,-233.25 1957,-199 1966.52,-189.04 1966.04,-178.39 1957,-168 1949.29,-159.14 1815.5,-142.78 1722.83,-132.42"/>
<polygon fill="midnightblue" stroke="midnightblue" points="1723.2,-128.94 1712.87,-131.31 1722.43,-135.89 1723.2,-128.94"/>
</g>
<!-- Node28 -->
<g id="node28" class="node">
<title>Node28</title>
<g id="a_node28"><a xlink:href="ConceptUtils_8h_source.html" target="_top" xlink:title=" ">
<polygon fill="white" stroke="black" points="104.5,-112.5 104.5,-131.5 249.5,-131.5 249.5,-112.5 104.5,-112.5"/>
<text text-anchor="middle" x="177" y="-119.5" font-family="FreeSans" font-size="10.00">DGtal/base/ConceptUtils.h</text>
</a>
</g>
</g>
<!-- Node3&#45;&gt;Node28 -->
<g id="edge46" class="edge">
<title>Node3&#45;&gt;Node28</title>
<path fill="none" stroke="midnightblue" d="M883.16,-241.61C752.67,-236.3 459.49,-222.17 362,-199 302.4,-184.84 237.09,-154.1 202.24,-136.36"/>
<polygon fill="midnightblue" stroke="midnightblue" points="203.74,-133.2 193.25,-131.73 200.54,-139.42 203.74,-133.2"/>
</g>
<!-- Node29 -->
<g id="node29" class="node">
<title>Node29</title>
<g id="a_node29"><a xlink:href="BasicTypes_8h_source.html" target="_top" xlink:title=" ">
<polygon fill="white" stroke="black" points="1119.5,-112.5 1119.5,-131.5 1256.5,-131.5 1256.5,-112.5 1119.5,-112.5"/>
<text text-anchor="middle" x="1188" y="-119.5" font-family="FreeSans" font-size="10.00">DGtal/base/BasicTypes.h</text>
</a>
</g>
</g>
<!-- Node3&#45;&gt;Node29 -->
<g id="edge48" class="edge">
<title>Node3&#45;&gt;Node29</title>
<path fill="none" stroke="midnightblue" d="M894.55,-235.42C841.61,-224.6 771.8,-203.05 803,-168 808.06,-162.32 998.12,-142.21 1109.26,-130.89"/>
<polygon fill="midnightblue" stroke="midnightblue" points="1109.84,-134.35 1119.43,-129.85 1109.13,-127.38 1109.84,-134.35"/>
</g>
<!-- Node32 -->
<g id="node32" class="node">
<title>Node32</title>
<g id="a_node32"><a xlink:href="BasicFunctors_8h_source.html" target="_top" xlink:title=" ">
<polygon fill="white" stroke="black" points="413,-174 413,-193 563,-193 563,-174 413,-174"/>
<text text-anchor="middle" x="488" y="-181" font-family="FreeSans" font-size="10.00">DGtal/base/BasicFunctors.h</text>
</a>
</g>
</g>
<!-- Node3&#45;&gt;Node32 -->
<g id="edge53" class="edge">
<title>Node3&#45;&gt;Node32</title>
<path fill="none" stroke="midnightblue" d="M883.28,-237.74C807.71,-229.64 678.35,-214.69 568,-199 558.78,-197.69 549.04,-196.2 539.63,-194.7"/>
<polygon fill="midnightblue" stroke="midnightblue" points="540.03,-191.22 529.59,-193.06 538.9,-198.12 540.03,-191.22"/>
</g>
<!-- Node42 -->
<g id="node42" class="node">
<title>Node42</title>
<g id="a_node42"><a xlink:href="BasicArchetypes_8h_source.html" target="_top" xlink:title=" ">
<polygon fill="white" stroke="black" points="268,-112.5 268,-131.5 432,-131.5 432,-112.5 268,-112.5"/>
<text text-anchor="middle" x="350" y="-119.5" font-family="FreeSans" font-size="10.00">DGtal/base/BasicArchetypes.h</text>
</a>
</g>
</g>
<!-- Node3&#45;&gt;Node42 -->
<g id="edge69" class="edge">
<title>Node3&#45;&gt;Node42</title>
<path fill="none" stroke="midnightblue" d="M883.37,-242.16C746.56,-237.73 433.51,-224.88 393,-199 372.59,-185.96 360.91,-159.6 355.01,-141.62"/>
<polygon fill="midnightblue" stroke="midnightblue" points="358.33,-140.52 352.12,-131.94 351.63,-142.52 358.33,-140.52"/>
</g>
<!-- Node43 -->
<g id="node43" class="node">
<title>Node43</title>
<g id="a_node43"><a xlink:href="Exceptions_8h_source.html" target="_top" xlink:title=" ">
<polygon fill="white" stroke="black" points="619,-174 619,-193 755,-193 755,-174 619,-174"/>
<text text-anchor="middle" x="687" y="-181" font-family="FreeSans" font-size="10.00">DGtal/base/Exceptions.h</text>
</a>
</g>
</g>
<!-- Node3&#45;&gt;Node43 -->
<g id="edge71" class="edge">
<title>Node3&#45;&gt;Node43</title>
<path fill="none" stroke="midnightblue" d="M909.75,-235.48C863.51,-224.89 784.6,-206.84 734.18,-195.3"/>
<polygon fill="midnightblue" stroke="midnightblue" points="734.71,-191.83 724.18,-193.01 733.15,-198.65 734.71,-191.83"/>
</g>
<!-- Node14&#45;&gt;Node2 -->
<g id="edge15" class="edge">
<title>Node14&#45;&gt;Node2</title>
<path fill="none" stroke="midnightblue" d="M2121.27,-60.01C2103.87,-58.58 2084.66,-57.11 2067,-56 1696.13,-32.59 1246.83,-16.8 1111.47,-12.31"/>
<polygon fill="midnightblue" stroke="midnightblue" points="1111.28,-8.8 1101.17,-11.97 1111.05,-15.8 1111.28,-8.8"/>
</g>
<!-- Node15 -->
<g id="node15" class="node">
<title>Node15</title>
<g id="a_node15"><a xlink:title=" ">
<polygon fill="white" stroke="#bfbfbf" points="2156,-0.5 2156,-19.5 2200,-19.5 2200,-0.5 2156,-0.5"/>
<text text-anchor="middle" x="2178" y="-7.5" font-family="FreeSans" font-size="10.00">string</text>
</a>
</g>
</g>
<!-- Node14&#45;&gt;Node15 -->
<g id="edge16" class="edge">
<title>Node14&#45;&gt;Node15</title>
<path fill="none" stroke="midnightblue" d="M2178,-56.08C2178,-49.01 2178,-38.86 2178,-29.99"/>
<polygon fill="midnightblue" stroke="midnightblue" points="2181.5,-29.75 2178,-19.75 2174.5,-29.75 2181.5,-29.75"/>
</g>
<!-- Node16&#45;&gt;Node2 -->
<g id="edge18" class="edge">
<title>Node16&#45;&gt;Node2</title>
<path fill="none" stroke="midnightblue" d="M2004.11,-173.98C1988.9,-171.79 1972.33,-169.6 1957,-168 1836.06,-155.35 1523.24,-178.77 1411,-132 1363.92,-112.38 1370.94,-78.17 1325,-56 1255,-22.23 1163.18,-13.56 1111.29,-11.49"/>
<polygon fill="midnightblue" stroke="midnightblue" points="1111.27,-7.98 1101.16,-11.15 1111.03,-14.98 1111.27,-7.98"/>
</g>
<!-- Node16&#45;&gt;Node14 -->
<g id="edge22" class="edge">
<title>Node16&#45;&gt;Node14</title>
<path fill="none" stroke="midnightblue" d="M2099.97,-173.96C2123.96,-166.84 2152.48,-154.15 2169,-132 2178.89,-118.74 2180.45,-99.61 2179.96,-85.54"/>
<polygon fill="midnightblue" stroke="midnightblue" points="2183.45,-85.27 2179.24,-75.54 2176.47,-85.77 2183.45,-85.27"/>
</g>
<!-- Node16&#45;&gt;Node15 -->
<g id="edge20" class="edge">
<title>Node16&#45;&gt;Node15</title>
<path fill="none" stroke="midnightblue" d="M2099.84,-173.94C2146.84,-161.66 2219.75,-133.82 2244,-76 2247.44,-67.8 2248.15,-63.86 2244,-56 2236.52,-41.85 2222.38,-31.32 2209.1,-24.01"/>
<polygon fill="midnightblue" stroke="midnightblue" points="2210.64,-20.87 2200.13,-19.47 2207.47,-27.11 2210.64,-20.87"/>
</g>
<!-- Node17 -->
<g id="node17" class="node">
<title>Node17</title>
<g id="a_node17"><a xlink:title=" ">
<polygon fill="white" stroke="#bfbfbf" points="1826.5,-0.5 1826.5,-19.5 1883.5,-19.5 1883.5,-0.5 1826.5,-0.5"/>
<text text-anchor="middle" x="1855" y="-7.5" font-family="FreeSans" font-size="10.00">ostream</text>
</a>
</g>
</g>
<!-- Node16&#45;&gt;Node17 -->
<g id="edge19" class="edge">
<title>Node16&#45;&gt;Node17</title>
<path fill="none" stroke="midnightblue" d="M2045.5,-173.93C2031.45,-164.17 2008.11,-147.55 1989,-132 1944.88,-96.09 1895.97,-50.28 1871.24,-26.66"/>
<polygon fill="midnightblue" stroke="midnightblue" points="1873.46,-23.94 1863.82,-19.55 1868.61,-28.99 1873.46,-23.94"/>
</g>
<!-- Node18 -->
<g id="node18" class="node">
<title>Node18</title>
<g id="a_node18"><a xlink:title=" ">
<polygon fill="white" stroke="#bfbfbf" points="1769.5,-112.5 1769.5,-131.5 1812.5,-131.5 1812.5,-112.5 1769.5,-112.5"/>
<text text-anchor="middle" x="1791" y="-119.5" font-family="FreeSans" font-size="10.00">stack</text>
</a>
</g>
</g>
<!-- Node16&#45;&gt;Node18 -->
<g id="edge21" class="edge">
<title>Node16&#45;&gt;Node18</title>
<path fill="none" stroke="midnightblue" d="M2017.93,-173.94C1959.82,-161.53 1856.09,-139.37 1822.54,-131.81"/>
<polygon fill="midnightblue" stroke="midnightblue" points="1823.16,-128.36 1812.63,-129.49 1821.57,-135.18 1823.16,-128.36"/>
</g>
<!-- Node19 -->
<g id="node19" class="node">
<title>Node19</title>
<g id="a_node19"><a xlink:href="Clock_8h_source.html" target="_top" xlink:title=" ">
<polygon fill="white" stroke="black" points="1420,-112.5 1420,-131.5 1530,-131.5 1530,-112.5 1420,-112.5"/>
<text text-anchor="middle" x="1475" y="-119.5" font-family="FreeSans" font-size="10.00">DGtal/base/Clock.h</text>
</a>
</g>
</g>
<!-- Node16&#45;&gt;Node19 -->
<g id="edge23" class="edge">
<title>Node16&#45;&gt;Node19</title>
<path fill="none" stroke="midnightblue" d="M2003.82,-174.17C1988.69,-171.99 1972.22,-169.76 1957,-168 1776.17,-147.06 1730.04,-150.99 1549,-132 1546.16,-131.7 1543.27,-131.39 1540.34,-131.07"/>
<polygon fill="midnightblue" stroke="midnightblue" points="1540.67,-127.58 1530.34,-129.93 1539.88,-134.54 1540.67,-127.58"/>
</g>
<!-- Node22 -->
<g id="node22" class="node">
<title>Node22</title>
<g id="a_node22"><a xlink:href="TraceWriter_8h_source.html" target="_top" xlink:title=" ">
<polygon fill="white" stroke="black" points="1672.5,-56.5 1672.5,-75.5 1809.5,-75.5 1809.5,-56.5 1672.5,-56.5"/>
<text text-anchor="middle" x="1741" y="-63.5" font-family="FreeSans" font-size="10.00">DGtal/base/TraceWriter.h</text>
</a>
</g>
</g>
<!-- Node16&#45;&gt;Node22 -->
<g id="edge27" class="edge">
<title>Node16&#45;&gt;Node22</title>
<path fill="none" stroke="midnightblue" d="M2019.59,-173.93C2009.95,-171.88 1999.61,-169.78 1990,-168 1939.35,-158.63 1799.93,-165.74 1761,-132 1747.78,-120.54 1743.16,-100.56 1741.62,-85.77"/>
<polygon fill="midnightblue" stroke="midnightblue" points="1745.1,-85.44 1740.95,-75.7 1738.12,-85.91 1745.1,-85.44"/>
</g>
<!-- Node16&#45;&gt;Node23 -->
<g id="edge30" class="edge">
<title>Node16&#45;&gt;Node23</title>
<path fill="none" stroke="midnightblue" d="M2061.01,-173.98C2064.03,-165.4 2068.79,-151.93 2072.65,-140.98"/>
<polygon fill="midnightblue" stroke="midnightblue" points="2075.97,-142.1 2076,-131.51 2069.37,-139.77 2075.97,-142.1"/>
</g>
<!-- Node16&#45;&gt;Node24 -->
<g id="edge35" class="edge">
<title>Node16&#45;&gt;Node24</title>
<path fill="none" stroke="midnightblue" d="M2085.53,-173.95C2094.01,-171.94 2103.33,-169.85 2112,-168 2170.94,-155.4 2238.72,-142.19 2286.75,-133.36"/>
<polygon fill="midnightblue" stroke="midnightblue" points="2287.48,-136.79 2296.69,-131.55 2286.22,-129.9 2287.48,-136.79"/>
</g>
<!-- Node26 -->
<g id="node26" class="node">
<title>Node26</title>
<g id="a_node26"><a xlink:href="Trace_8ih_source.html" target="_top" xlink:title=" ">
<polygon fill="white" stroke="black" points="1830.5,-112.5 1830.5,-131.5 1941.5,-131.5 1941.5,-112.5 1830.5,-112.5"/>
<text text-anchor="middle" x="1886" y="-119.5" font-family="FreeSans" font-size="10.00">DGtal/base/Trace.ih</text>
</a>
</g>
</g>
<!-- Node16&#45;&gt;Node26 -->
<g id="edge39" class="edge">
<title>Node16&#45;&gt;Node26</title>
<path fill="none" stroke="midnightblue" d="M2033.36,-173.98C2003.72,-163.72 1953.82,-146.46 1920.4,-134.9"/>
<polygon fill="midnightblue" stroke="midnightblue" points="1921.19,-131.47 1910.6,-131.51 1918.9,-138.09 1921.19,-131.47"/>
</g>
<!-- Node19&#45;&gt;Node2 -->
<g id="edge24" class="edge">
<title>Node19&#45;&gt;Node2</title>
<path fill="none" stroke="midnightblue" d="M1471.78,-112.05C1466.04,-97.56 1452.61,-69.25 1431,-56 1378.14,-23.59 1193.68,-14.42 1111.29,-11.91"/>
<polygon fill="midnightblue" stroke="midnightblue" points="1111.16,-8.4 1101.06,-11.61 1110.95,-15.4 1111.16,-8.4"/>
</g>
<!-- Node20 -->
<g id="node20" class="node">
<title>Node20</title>
<g id="a_node20"><a xlink:title=" ">
<polygon fill="white" stroke="#bfbfbf" points="1372.5,-56.5 1372.5,-75.5 1421.5,-75.5 1421.5,-56.5 1372.5,-56.5"/>
<text text-anchor="middle" x="1397" y="-63.5" font-family="FreeSans" font-size="10.00">cstdlib</text>
</a>
</g>
</g>
<!-- Node19&#45;&gt;Node20 -->
<g id="edge25" class="edge">
<title>Node19&#45;&gt;Node20</title>
<path fill="none" stroke="midnightblue" d="M1462.47,-112.32C1450.41,-103.98 1431.97,-91.21 1417.73,-81.35"/>
<polygon fill="midnightblue" stroke="midnightblue" points="1419.72,-78.47 1409.5,-75.65 1415.73,-84.22 1419.72,-78.47"/>
</g>
<!-- Node21 -->
<g id="node21" class="node">
<title>Node21</title>
<g id="a_node21"><a xlink:href="Clock_8ih_source.html" target="_top" xlink:title=" ">
<polygon fill="white" stroke="black" points="1478.5,-56.5 1478.5,-75.5 1591.5,-75.5 1591.5,-56.5 1478.5,-56.5"/>
<text text-anchor="middle" x="1535" y="-63.5" font-family="FreeSans" font-size="10.00">DGtal/base/Clock.ih</text>
</a>
</g>
</g>
<!-- Node19&#45;&gt;Node21 -->
<g id="edge26" class="edge">
<title>Node19&#45;&gt;Node21</title>
<path fill="none" stroke="midnightblue" d="M1484.64,-112.32C1493.51,-104.34 1506.87,-92.31 1517.61,-82.65"/>
<polygon fill="midnightblue" stroke="midnightblue" points="1520.09,-85.13 1525.18,-75.83 1515.41,-79.92 1520.09,-85.13"/>
</g>
<!-- Node22&#45;&gt;Node2 -->
<g id="edge28" class="edge">
<title>Node22&#45;&gt;Node2</title>
<path fill="none" stroke="midnightblue" d="M1672.39,-58.51C1662.85,-57.65 1653.18,-56.79 1644,-56 1444.16,-38.88 1204.89,-20.9 1111.3,-13.97"/>
<polygon fill="midnightblue" stroke="midnightblue" points="1111.37,-10.46 1101.14,-13.22 1110.86,-17.44 1111.37,-10.46"/>
</g>
<!-- Node22&#45;&gt;Node17 -->
<g id="edge29" class="edge">
<title>Node22&#45;&gt;Node17</title>
<path fill="none" stroke="midnightblue" d="M1759.06,-56.44C1777.57,-47.68 1806.58,-33.94 1827.86,-23.86"/>
<polygon fill="midnightblue" stroke="midnightblue" points="1829.48,-26.96 1837.02,-19.52 1826.49,-20.63 1829.48,-26.96"/>
</g>
<!-- Node23&#45;&gt;Node2 -->
<g id="edge31" class="edge">
<title>Node23&#45;&gt;Node2</title>
<path fill="none" stroke="midnightblue" d="M2052.01,-112.49C2005.15,-98.12 1905.46,-69.29 1819,-56 1551.18,-14.83 1224.02,-10.86 1111.36,-10.82"/>
<polygon fill="midnightblue" stroke="midnightblue" points="1111.14,-7.32 1101.14,-10.82 1111.14,-14.32 1111.14,-7.32"/>
</g>
<!-- Node23&#45;&gt;Node14 -->
<g id="edge34" class="edge">
<title>Node23&#45;&gt;Node14</title>
<path fill="none" stroke="midnightblue" d="M2094.91,-112.32C2110.64,-103.74 2134.94,-90.49 2153.21,-80.52"/>
<polygon fill="midnightblue" stroke="midnightblue" points="2155.03,-83.52 2162.13,-75.65 2151.68,-77.37 2155.03,-83.52"/>
</g>
<!-- Node23&#45;&gt;Node15 -->
<g id="edge32" class="edge">
<title>Node23&#45;&gt;Node15</title>
<path fill="none" stroke="midnightblue" d="M2082.03,-112.2C2086.94,-98.9 2097.65,-73.37 2113,-56 2124.11,-43.42 2139.45,-32.59 2152.43,-24.71"/>
<polygon fill="midnightblue" stroke="midnightblue" points="2154.49,-27.56 2161.37,-19.5 2150.97,-21.51 2154.49,-27.56"/>
</g>
<!-- Node23&#45;&gt;Node22 -->
<g id="edge33" class="edge">
<title>Node23&#45;&gt;Node22</title>
<path fill="none" stroke="midnightblue" d="M2025.44,-112.44C1965.37,-102.85 1868.01,-87.29 1804.24,-77.1"/>
<polygon fill="midnightblue" stroke="midnightblue" points="1804.73,-73.64 1794.31,-75.52 1803.63,-80.55 1804.73,-73.64"/>
</g>
<!-- Node24&#45;&gt;Node15 -->
<g id="edge38" class="edge">
<title>Node24&#45;&gt;Node15</title>
<path fill="none" stroke="midnightblue" d="M2341.41,-112.48C2329.13,-99.09 2303.69,-72.91 2278,-56 2256.54,-41.88 2229.93,-30.14 2209.55,-22.2"/>
<polygon fill="midnightblue" stroke="midnightblue" points="2210.69,-18.89 2200.1,-18.61 2208.2,-25.43 2210.69,-18.89"/>
</g>
<!-- Node24&#45;&gt;Node16 -->
<g id="edge36" class="edge">
<title>Node24&#45;&gt;Node16</title>
<path fill="none" stroke="midnightblue" d="M2310.29,-131.55C2266.41,-140.3 2193.13,-154.51 2130,-168 2124.45,-169.19 2118.62,-170.47 2112.79,-171.77"/>
<polygon fill="midnightblue" stroke="midnightblue" points="2112,-168.36 2103,-173.95 2113.53,-175.19 2112,-168.36"/>
</g>
<!-- Node25 -->
<g id="node25" class="node">
<title>Node25</title>
<g id="a_node25"><a xlink:title=" ">
<polygon fill="white" stroke="#bfbfbf" points="2330.5,-56.5 2330.5,-75.5 2477.5,-75.5 2477.5,-56.5 2330.5,-56.5"/>
<text text-anchor="middle" x="2404" y="-63.5" font-family="FreeSans" font-size="10.00">boost/current_function.hpp</text>
</a>
</g>
</g>
<!-- Node24&#45;&gt;Node25 -->
<g id="edge37" class="edge">
<title>Node24&#45;&gt;Node25</title>
<path fill="none" stroke="midnightblue" d="M2358.08,-112.08C2366.17,-104.14 2378.2,-92.34 2387.91,-82.8"/>
<polygon fill="midnightblue" stroke="midnightblue" points="2390.4,-85.25 2395.09,-75.75 2385.5,-80.26 2390.4,-85.25"/>
</g>
<!-- Node27&#45;&gt;Node2 -->
<g id="edge42" class="edge">
<title>Node27&#45;&gt;Node2</title>
<path fill="none" stroke="midnightblue" d="M1633.3,-112.48C1629.93,-98.1 1620.94,-69.26 1601,-56 1560.55,-29.1 1228.49,-16.02 1111.56,-12.21"/>
<polygon fill="midnightblue" stroke="midnightblue" points="1111.36,-8.7 1101.25,-11.88 1111.13,-15.7 1111.36,-8.7"/>
</g>
<!-- Node27&#45;&gt;Node15 -->
<g id="edge43" class="edge">
<title>Node27&#45;&gt;Node15</title>
<path fill="none" stroke="midnightblue" d="M1677.16,-112.46C1782.01,-91.22 2052.8,-36.36 2145.96,-17.49"/>
<polygon fill="midnightblue" stroke="midnightblue" points="2146.81,-20.89 2155.92,-15.47 2145.42,-14.03 2146.81,-20.89"/>
</g>
<!-- Node27&#45;&gt;Node22 -->
<g id="edge44" class="edge">
<title>Node27&#45;&gt;Node22</title>
<path fill="none" stroke="midnightblue" d="M1652.03,-112.32C1669.03,-103.66 1695.38,-90.24 1714.99,-80.25"/>
<polygon fill="midnightblue" stroke="midnightblue" points="1716.69,-83.31 1724.01,-75.65 1713.51,-77.08 1716.69,-83.31"/>
</g>
<!-- Node28&#45;&gt;Node2 -->
<g id="edge47" class="edge">
<title>Node28&#45;&gt;Node2</title>
<path fill="none" stroke="midnightblue" d="M186.32,-112.48C203.03,-97.8 239.81,-68.18 277,-56 419.11,-9.46 889.18,-9.46 1030.48,-10.56"/>
<polygon fill="midnightblue" stroke="midnightblue" points="1030.81,-14.07 1040.84,-10.65 1030.87,-7.07 1030.81,-14.07"/>
</g>
<!-- Node29&#45;&gt;Node2 -->
<g id="edge50" class="edge">
<title>Node29&#45;&gt;Node2</title>
<path fill="none" stroke="midnightblue" d="M1175.25,-112.34C1162.91,-103.73 1143.94,-89.83 1129,-76 1112.61,-60.83 1095.83,-41.53 1084.57,-27.92"/>
<polygon fill="midnightblue" stroke="midnightblue" points="1087.05,-25.43 1078.02,-19.89 1081.63,-29.86 1087.05,-25.43"/>
</g>
<!-- Node29&#45;&gt;Node20 -->
<g id="edge49" class="edge">
<title>Node29&#45;&gt;Node20</title>
<path fill="none" stroke="midnightblue" d="M1221.12,-112.44C1259.68,-102.48 1323.1,-86.09 1362.32,-75.96"/>
<polygon fill="midnightblue" stroke="midnightblue" points="1363.41,-79.29 1372.22,-73.4 1361.66,-72.52 1363.41,-79.29"/>
</g>
<!-- Node30 -->
<g id="node30" class="node">
<title>Node30</title>
<g id="a_node30"><a xlink:title=" ">
<polygon fill="white" stroke="#bfbfbf" points="1137.5,-56.5 1137.5,-75.5 1238.5,-75.5 1238.5,-56.5 1137.5,-56.5"/>
<text text-anchor="middle" x="1188" y="-63.5" font-family="FreeSans" font-size="10.00">boost/cstdint.hpp</text>
</a>
</g>
</g>
<!-- Node29&#45;&gt;Node30 -->
<g id="edge51" class="edge">
<title>Node29&#45;&gt;Node30</title>
<path fill="none" stroke="midnightblue" d="M1188,-112.08C1188,-105.01 1188,-94.86 1188,-85.99"/>
<polygon fill="midnightblue" stroke="midnightblue" points="1191.5,-85.75 1188,-75.75 1184.5,-85.75 1191.5,-85.75"/>
</g>
<!-- Node31 -->
<g id="node31" class="node">
<title>Node31</title>
<g id="a_node31"><a xlink:title=" ">
<polygon fill="white" stroke="#bfbfbf" points="1256.5,-56.5 1256.5,-75.5 1315.5,-75.5 1315.5,-56.5 1256.5,-56.5"/>
<text text-anchor="middle" x="1286" y="-63.5" font-family="FreeSans" font-size="10.00">gmpxx.h</text>
</a>
</g>
</g>
<!-- Node29&#45;&gt;Node31 -->
<g id="edge52" class="edge">
<title>Node29&#45;&gt;Node31</title>
<path fill="none" stroke="midnightblue" d="M1203.75,-112.32C1219.32,-103.74 1243.38,-90.49 1261.46,-80.52"/>
<polygon fill="midnightblue" stroke="midnightblue" points="1263.22,-83.55 1270.29,-75.65 1259.85,-77.42 1263.22,-83.55"/>
</g>
<!-- Node32&#45;&gt;Node3 -->
<g id="edge64" class="edge">
<title>Node32&#45;&gt;Node3</title>
<path fill="none" stroke="midnightblue" d="M547.02,-193.06C559.93,-195.11 573.45,-197.21 586,-199 685.43,-213.14 800.29,-226.67 873.32,-235.14"/>
<polygon fill="midnightblue" stroke="midnightblue" points="873.01,-238.63 883.34,-236.3 873.81,-231.67 873.01,-238.63"/>
</g>
<!-- Node32&#45;&gt;Node12 -->
<g id="edge56" class="edge">
<title>Node32&#45;&gt;Node12</title>
<path fill="none" stroke="midnightblue" d="M538.31,-173.97C550.93,-171.92 564.45,-169.81 577,-168 701.44,-150.09 736.68,-156.67 864.15,-131.9"/>
<polygon fill="midnightblue" stroke="midnightblue" points="865.17,-135.26 874.3,-129.9 863.81,-128.4 865.17,-135.26"/>
</g>
<!-- Node33 -->
<g id="node33" class="node">
<title>Node33</title>
<g id="a_node33"><a xlink:title=" ">
<polygon fill="white" stroke="#bfbfbf" points="622,-56.5 622,-75.5 686,-75.5 686,-56.5 622,-56.5"/>
<text text-anchor="middle" x="654" y="-63.5" font-family="FreeSans" font-size="10.00">algorithm</text>
</a>
</g>
</g>
<!-- Node32&#45;&gt;Node33 -->
<g id="edge54" class="edge">
<title>Node32&#45;&gt;Node33</title>
<path fill="none" stroke="midnightblue" d="M500.48,-173.82C528.72,-154.17 597.79,-106.11 632.85,-81.72"/>
<polygon fill="midnightblue" stroke="midnightblue" points="635.17,-84.37 641.38,-75.78 631.17,-78.62 635.17,-84.37"/>
</g>
<!-- Node34 -->
<g id="node34" class="node">
<title>Node34</title>
<g id="a_node34"><a xlink:title=" ">
<polygon fill="white" stroke="#bfbfbf" points="600.5,-112.5 600.5,-131.5 665.5,-131.5 665.5,-112.5 600.5,-112.5"/>
<text text-anchor="middle" x="633" y="-119.5" font-family="FreeSans" font-size="10.00">functional</text>
</a>
</g>
</g>
<!-- Node32&#45;&gt;Node34 -->
<g id="edge55" class="edge">
<title>Node32&#45;&gt;Node34</title>
<path fill="none" stroke="midnightblue" d="M508.77,-173.98C533.43,-163.86 574.75,-146.9 602.9,-135.35"/>
<polygon fill="midnightblue" stroke="midnightblue" points="604.34,-138.54 612.26,-131.51 601.68,-132.07 604.34,-138.54"/>
</g>
<!-- Node35 -->
<g id="node35" class="node">
<title>Node35</title>
<g id="a_node35"><a xlink:href="Color_8h_source.html" target="_top" xlink:title=" ">
<polygon fill="white" stroke="black" points="450.5,-112.5 450.5,-131.5 543.5,-131.5 543.5,-112.5 450.5,-112.5"/>
<text text-anchor="middle" x="497" y="-119.5" font-family="FreeSans" font-size="10.00">DGtal/io/Color.h</text>
</a>
</g>
</g>
<!-- Node32&#45;&gt;Node35 -->
<g id="edge57" class="edge">
<title>Node32&#45;&gt;Node35</title>
<path fill="none" stroke="midnightblue" d="M489.29,-173.98C490.56,-165.58 492.54,-152.48 494.18,-141.66"/>
<polygon fill="midnightblue" stroke="midnightblue" points="497.68,-141.92 495.71,-131.51 490.76,-140.87 497.68,-141.92"/>
</g>
<!-- Node39 -->
<g id="node39" class="node">
<title>Node39</title>
<g id="a_node39"><a xlink:href="BasicBoolFunctors_8h_source.html" target="_top" xlink:title=" ">
<polygon fill="white" stroke="black" points="684,-112.5 684,-131.5 856,-131.5 856,-112.5 684,-112.5"/>
<text text-anchor="middle" x="770" y="-119.5" font-family="FreeSans" font-size="10.00">DGtal/base/BasicBoolFunctors.h</text>
</a>
</g>
</g>
<!-- Node32&#45;&gt;Node39 -->
<g id="edge65" class="edge">
<title>Node32&#45;&gt;Node39</title>
<path fill="none" stroke="midnightblue" d="M528.4,-173.98C578.87,-163.33 665.21,-145.11 719.85,-133.58"/>
<polygon fill="midnightblue" stroke="midnightblue" points="720.61,-137 729.67,-131.51 719.16,-130.15 720.61,-137"/>
</g>
<!-- Node35&#45;&gt;Node2 -->
<g id="edge58" class="edge">
<title>Node35&#45;&gt;Node2</title>
<path fill="none" stroke="midnightblue" d="M452.31,-112.46C394.61,-101.22 300.93,-82.16 296,-76 290.44,-69.06 289.9,-62.46 296,-56 321.43,-29.05 875.24,-15.19 1030.73,-11.82"/>
<polygon fill="midnightblue" stroke="midnightblue" points="1030.88,-15.32 1040.8,-11.61 1030.73,-8.32 1030.88,-15.32"/>
</g>
<!-- Node35&#45;&gt;Node3 -->
<g id="edge59" class="edge">
<title>Node35&#45;&gt;Node3</title>
<path fill="none" stroke="midnightblue" d="M457.75,-131.52C438,-138.01 415.82,-149.16 404,-168 396.68,-179.67 394.67,-188.86 404,-199 435.13,-232.82 732.06,-241.23 873.19,-243.31"/>
<polygon fill="midnightblue" stroke="midnightblue" points="873.43,-246.82 883.48,-243.46 873.53,-239.82 873.43,-246.82"/>
</g>
<!-- Node35&#45;&gt;Node33 -->
<g id="edge61" class="edge">
<title>Node35&#45;&gt;Node33</title>
<path fill="none" stroke="midnightblue" d="M521.88,-112.44C548.29,-103.36 590.22,-88.94 619.74,-78.78"/>
<polygon fill="midnightblue" stroke="midnightblue" points="620.92,-82.08 629.24,-75.52 618.64,-75.46 620.92,-82.08"/>
</g>
<!-- Node36 -->
<g id="node36" class="node">
<title>Node36</title>
<g id="a_node36"><a xlink:title=" ">
<polygon fill="white" stroke="#bfbfbf" points="304.5,-56.5 304.5,-75.5 429.5,-75.5 429.5,-56.5 304.5,-56.5"/>
<text text-anchor="middle" x="367" y="-63.5" font-family="FreeSans" font-size="10.00">boost/lexical_cast.hpp</text>
</a>
</g>
</g>
<!-- Node35&#45;&gt;Node36 -->
<g id="edge60" class="edge">
<title>Node35&#45;&gt;Node36</title>
<path fill="none" stroke="midnightblue" d="M476.4,-112.44C455.01,-103.56 421.32,-89.56 396.98,-79.45"/>
<polygon fill="midnightblue" stroke="midnightblue" points="398.08,-76.12 387.5,-75.52 395.39,-82.58 398.08,-76.12"/>
</g>
<!-- Node37 -->
<g id="node37" class="node">
<title>Node37</title>
<g id="a_node37"><a xlink:title=" ">
<polygon fill="white" stroke="#bfbfbf" points="448,-56.5 448,-75.5 490,-75.5 490,-56.5 448,-56.5"/>
<text text-anchor="middle" x="469" y="-63.5" font-family="FreeSans" font-size="10.00">array</text>
</a>
</g>
</g>
<!-- Node35&#45;&gt;Node37 -->
<g id="edge62" class="edge">
<title>Node35&#45;&gt;Node37</title>
<path fill="none" stroke="midnightblue" d="M492.38,-112.08C488.54,-104.69 482.98,-93.95 478.24,-84.81"/>
<polygon fill="midnightblue" stroke="midnightblue" points="481.25,-83.02 473.54,-75.75 475.03,-86.24 481.25,-83.02"/>
</g>
<!-- Node38 -->
<g id="node38" class="node">
<title>Node38</title>
<g id="a_node38"><a xlink:href="Color_8ih_source.html" target="_top" xlink:title=" ">
<polygon fill="white" stroke="black" points="508,-56.5 508,-75.5 604,-75.5 604,-56.5 508,-56.5"/>
<text text-anchor="middle" x="556" y="-63.5" font-family="FreeSans" font-size="10.00">DGtal/io/Color.ih</text>
</a>
</g>
</g>
<!-- Node35&#45;&gt;Node38 -->
<g id="edge63" class="edge">
<title>Node35&#45;&gt;Node38</title>
<path fill="none" stroke="midnightblue" d="M506.48,-112.32C515.2,-104.34 528.34,-92.31 538.9,-82.65"/>
<polygon fill="midnightblue" stroke="midnightblue" points="541.33,-85.17 546.35,-75.83 536.61,-80 541.33,-85.17"/>
</g>
<!-- Node39&#45;&gt;Node2 -->
<g id="edge66" class="edge">
<title>Node39&#45;&gt;Node2</title>
<path fill="none" stroke="midnightblue" d="M759.09,-112.49C743.53,-99.35 718.45,-73.76 734,-56 753.31,-33.94 945.69,-19.01 1030.83,-13.44"/>
<polygon fill="midnightblue" stroke="midnightblue" points="1031.14,-16.92 1040.9,-12.79 1030.69,-9.94 1031.14,-16.92"/>
</g>
<!-- Node40 -->
<g id="node40" class="node">
<title>Node40</title>
<g id="a_node40"><a xlink:title=" ">
<polygon fill="white" stroke="#bfbfbf" points="935.5,-56.5 935.5,-75.5 1042.5,-75.5 1042.5,-56.5 935.5,-56.5"/>
<text text-anchor="middle" x="989" y="-63.5" font-family="FreeSans" font-size="10.00">boost/function.hpp</text>
</a>
</g>
</g>
<!-- Node39&#45;&gt;Node40 -->
<g id="edge67" class="edge">
<title>Node39&#45;&gt;Node40</title>
<path fill="none" stroke="midnightblue" d="M804.7,-112.44C842.58,-103.1 903.35,-88.12 944.66,-77.93"/>
<polygon fill="midnightblue" stroke="midnightblue" points="945.59,-81.31 954.46,-75.52 943.91,-74.51 945.59,-81.31"/>
</g>
<!-- Node41 -->
<g id="node41" class="node">
<title>Node41</title>
<g id="a_node41"><a xlink:href="BasicBoolFunctors_8ih_source.html" target="_top" xlink:title=" ">
<polygon fill="white" stroke="black" points="742.5,-56.5 742.5,-75.5 917.5,-75.5 917.5,-56.5 742.5,-56.5"/>
<text text-anchor="middle" x="830" y="-63.5" font-family="FreeSans" font-size="10.00">DGtal/base/BasicBoolFunctors.ih</text>
</a>
</g>
</g>
<!-- Node39&#45;&gt;Node41 -->
<g id="edge68" class="edge">
<title>Node39&#45;&gt;Node41</title>
<path fill="none" stroke="midnightblue" d="M779.64,-112.32C788.51,-104.34 801.87,-92.31 812.61,-82.65"/>
<polygon fill="midnightblue" stroke="midnightblue" points="815.09,-85.13 820.18,-75.83 810.41,-79.92 815.09,-85.13"/>
</g>
<!-- Node42&#45;&gt;Node2 -->
<g id="edge70" class="edge">
<title>Node42&#45;&gt;Node2</title>
<path fill="none" stroke="midnightblue" d="M331.09,-112.45C306.18,-100.08 267.69,-76.45 287,-56 312.76,-28.72 874.22,-15.08 1030.78,-11.79"/>
<polygon fill="midnightblue" stroke="midnightblue" points="1031,-15.29 1040.92,-11.58 1030.85,-8.29 1031,-15.29"/>
</g>
<!-- Node43&#45;&gt;Node2 -->
<g id="edge72" class="edge">
<title>Node43&#45;&gt;Node2</title>
<path fill="none" stroke="midnightblue" d="M741.64,-173.96C833.17,-158.51 1011.46,-123.08 1052,-76 1063.14,-63.06 1067.75,-43.89 1069.66,-29.72"/>
<polygon fill="midnightblue" stroke="midnightblue" points="1073.16,-29.94 1070.69,-19.64 1066.19,-29.24 1073.16,-29.94"/>
</g>
<!-- Node44&#45;&gt;Node2 -->
<g id="edge74" class="edge">
<title>Node44&#45;&gt;Node2</title>
<path fill="none" stroke="midnightblue" d="M231.85,-298.32C154.22,-292.35 38,-269.26 38,-184.5 38,-184.5 38,-184.5 38,-121 38,-70.57 83.28,-72.29 131,-56 216.91,-26.68 862.05,-14.35 1030.74,-11.61"/>
<polygon fill="midnightblue" stroke="midnightblue" points="1030.98,-15.11 1040.92,-11.45 1030.87,-8.11 1030.98,-15.11"/>
</g>
<!-- Node44&#45;&gt;Node3 -->
<g id="edge75" class="edge">
<title>Node44&#45;&gt;Node3</title>
<path fill="none" stroke="midnightblue" d="M368.02,-294.32C490.42,-284.11 746.82,-262.71 873.26,-252.15"/>
<polygon fill="midnightblue" stroke="midnightblue" points="873.57,-255.64 883.25,-251.32 872.99,-248.66 873.57,-255.64"/>
</g>
<!-- Node45 -->
<g id="node45" class="node">
<title>Node45</title>
<g id="a_node45"><a xlink:href="CountedPtr_8ih_source.html" target="_top" xlink:title=" ">
<polygon fill="white" stroke="black" points="230.5,-235.5 230.5,-254.5 369.5,-254.5 369.5,-235.5 230.5,-235.5"/>
<text text-anchor="middle" x="300" y="-242.5" font-family="FreeSans" font-size="10.00">DGtal/base/CountedPtr.ih</text>
</a>
</g>
</g>
<!-- Node44&#45;&gt;Node45 -->
<g id="edge76" class="edge">
<title>Node44&#45;&gt;Node45</title>
<path fill="none" stroke="midnightblue" d="M300,-291.08C300,-284.01 300,-273.86 300,-264.99"/>
<polygon fill="midnightblue" stroke="midnightblue" points="303.5,-264.75 300,-254.75 296.5,-264.75 303.5,-264.75"/>
</g>
</g>
</svg>
