<?xml version="1.0" encoding="UTF-8" standalone="no"?>
<!DOCTYPE svg PUBLIC "-//W3C//DTD SVG 1.1//EN"
 "http://www.w3.org/Graphics/SVG/1.1/DTD/svg11.dtd">
<!-- Generated by graphviz version 2.43.0 (0)
 -->
<!-- Title: testClock.cpp Pages: 1 -->
<!--zoomable 319 -->
<svg id="main" version="1.1" xmlns="http://www.w3.org/2000/svg" xmlns:xlink="http://www.w3.org/1999/xlink" xml:space="preserve" onload="init(evt)">
<style type="text/css"><![CDATA[
.edge:hover path { stroke: red; }
.edge:hover polygon { stroke: red; fill: red; }
]]></style>
<script type="text/javascript"><![CDATA[
var edges = document.getElementsByTagName('g');
if (edges && edges.length) {
  for (var i=0;i<edges.length;i++) {
    if (edges[i].id.substr(0,4)=='edge') {
      edges[i].setAttribute('class','edge');
    }
  }
}
]]></script>
        <defs>
                <circle id="rim" cx="0" cy="0" r="7"/>
                <circle id="rim2" cx="0" cy="0" r="3.5"/>
                <g id="zoomPlus">
                        <use xlink:href="#rim" fill="#404040">
                                <set attributeName="fill" to="#808080" begin="zoomplus.mouseover" end="zoomplus.mouseout"/>
                        </use>
                        <path d="M-4,0h8M0,-4v8" fill="none" stroke="white" stroke-width="1.5" pointer-events="none"/>
                </g>
                <g id="zoomMin">
                        <use xlink:href="#rim" fill="#404040">
                                <set attributeName="fill" to="#808080" begin="zoomminus.mouseover" end="zoomminus.mouseout"/>
                        </use>
                        <path d="M-4,0h8" fill="none" stroke="white" stroke-width="1.5" pointer-events="none"/>
                </g>
                <g id="dirArrow">
                        <path fill="none" stroke="white" stroke-width="1.5" d="M0,-3.0v7 M-2.5,-0.5L0,-3.0L2.5,-0.5"/>
                </g>
               <g id="resetDef">
                       <use xlink:href="#rim2" fill="#404040">
                               <set attributeName="fill" to="#808080" begin="reset.mouseover" end="reset.mouseout"/>
                       </use>
               </g>
        </defs>

<script type="text/javascript">
var viewWidth = 2536;
var viewHeight = 319;
var sectionId = 'dynsection-0';
</script>
<script xlink:href="svgpan.js"/>
<svg id="graph" class="graph">
<g id="viewport">
<title>testClock.cpp</title>
<polygon fill="white" stroke="transparent" points="-4,4 -4,-315 2531.5,-315 2531.5,4 -4,4"/>
<!-- Node1 -->
<g id="node1" class="node">
<title>Node1</title>
<g id="a_node1"><a xlink:title=" ">
<polygon fill="#bfbfbf" stroke="black" points="1796,-291.5 1796,-310.5 1879,-310.5 1879,-291.5 1796,-291.5"/>
<text text-anchor="middle" x="1837.5" y="-298.5" font-family="FreeSans" font-size="10.00">testClock.cpp</text>
</a>
</g>
</g>
<!-- Node2 -->
<g id="node2" class="node">
<title>Node2</title>
<g id="a_node2"><a xlink:title=" ">
<polygon fill="white" stroke="#bfbfbf" points="1160.5,-235.5 1160.5,-254.5 1206.5,-254.5 1206.5,-235.5 1160.5,-235.5"/>
<text text-anchor="middle" x="1183.5" y="-242.5" font-family="FreeSans" font-size="10.00">cstdio</text>
</a>
</g>
</g>
<!-- Node1&#45;&gt;Node2 -->
<g id="edge1" class="edge">
<title>Node1&#45;&gt;Node2</title>
<path fill="none" stroke="midnightblue" d="M1795.65,-299.88C1696.43,-298.96 1439.15,-292.96 1216.69,-254.86"/>
<polygon fill="midnightblue" stroke="midnightblue" points="1217.24,-251.4 1206.79,-253.14 1216.05,-258.3 1217.24,-251.4"/>
</g>
<!-- Node3 -->
<g id="node3" class="node">
<title>Node3</title>
<g id="a_node3"><a xlink:title=" ">
<polygon fill="white" stroke="#bfbfbf" points="2236,-112.5 2236,-131.5 2283,-131.5 2283,-112.5 2236,-112.5"/>
<text text-anchor="middle" x="2259.5" y="-119.5" font-family="FreeSans" font-size="10.00">cmath</text>
</a>
</g>
</g>
<!-- Node1&#45;&gt;Node3 -->
<g id="edge2" class="edge">
<title>Node1&#45;&gt;Node3</title>
<path fill="none" stroke="midnightblue" d="M1879.24,-295.53C1973.33,-284.58 2197.66,-253.26 2247.5,-199 2261.52,-183.73 2262.95,-159.05 2261.91,-141.97"/>
<polygon fill="midnightblue" stroke="midnightblue" points="2265.35,-141.2 2260.91,-131.58 2258.38,-141.86 2265.35,-141.2"/>
</g>
<!-- Node4 -->
<g id="node4" class="node">
<title>Node4</title>
<g id="a_node4"><a xlink:title=" ">
<polygon fill="white" stroke="#bfbfbf" points="1273.5,-0.5 1273.5,-19.5 1333.5,-19.5 1333.5,-0.5 1273.5,-0.5"/>
<text text-anchor="middle" x="1303.5" y="-7.5" font-family="FreeSans" font-size="10.00">iostream</text>
</a>
</g>
</g>
<!-- Node1&#45;&gt;Node4 -->
<g id="edge3" class="edge">
<title>Node1&#45;&gt;Node4</title>
<path fill="none" stroke="midnightblue" d="M1879.11,-297.46C2028.29,-287.82 2527.5,-250.62 2527.5,-184.5 2527.5,-184.5 2527.5,-184.5 2527.5,-121 2527.5,-67.24 2476.8,-72.08 2425.5,-56 2320.75,-23.17 1531.75,-13.27 1343.66,-11.37"/>
<polygon fill="midnightblue" stroke="midnightblue" points="1343.68,-7.87 1333.65,-11.27 1343.61,-14.87 1343.68,-7.87"/>
</g>
<!-- Node5 -->
<g id="node5" class="node">
<title>Node5</title>
<g id="a_node5"><a xlink:href="Common_8h_source.html" target="_top" xlink:title=" ">
<polygon fill="white" stroke="black" points="1225,-235.5 1225,-254.5 1352,-254.5 1352,-235.5 1225,-235.5"/>
<text text-anchor="middle" x="1288.5" y="-242.5" font-family="FreeSans" font-size="10.00">DGtal/base/Common.h</text>
</a>
</g>
</g>
<!-- Node1&#45;&gt;Node5 -->
<g id="edge4" class="edge">
<title>Node1&#45;&gt;Node5</title>
<path fill="none" stroke="midnightblue" d="M1795.79,-295.9C1703.24,-286.79 1479.7,-264.81 1362.71,-253.3"/>
<polygon fill="midnightblue" stroke="midnightblue" points="1362.7,-249.78 1352.41,-252.29 1362.02,-256.75 1362.7,-249.78"/>
</g>
<!-- Node20 -->
<g id="node20" class="node">
<title>Node20</title>
<g id="a_node20"><a xlink:href="Clock_8h_source.html" target="_top" xlink:title=" ">
<polygon fill="white" stroke="black" points="1477.5,-112.5 1477.5,-131.5 1587.5,-131.5 1587.5,-112.5 1477.5,-112.5"/>
<text text-anchor="middle" x="1532.5" y="-119.5" font-family="FreeSans" font-size="10.00">DGtal/base/Clock.h</text>
</a>
</g>
</g>
<!-- Node1&#45;&gt;Node20 -->
<g id="edge75" class="edge">
<title>Node1&#45;&gt;Node20</title>
<path fill="none" stroke="midnightblue" d="M1839.31,-291.43C1843.73,-267.99 1852.33,-202.28 1818.5,-168 1803.21,-152.51 1677.66,-137.38 1598.07,-129.21"/>
<polygon fill="midnightblue" stroke="midnightblue" points="1597.95,-125.68 1587.65,-128.16 1597.24,-132.65 1597.95,-125.68"/>
</g>
<!-- Node5&#45;&gt;Node3 -->
<g id="edge14" class="edge">
<title>Node5&#45;&gt;Node3</title>
<path fill="none" stroke="midnightblue" d="M1352.07,-244.57C1550.24,-245.85 2147.95,-245.76 2220.5,-199 2240.41,-186.17 2250.66,-159.75 2255.55,-141.71"/>
<polygon fill="midnightblue" stroke="midnightblue" points="2258.96,-142.52 2257.89,-131.98 2252.15,-140.89 2258.96,-142.52"/>
</g>
<!-- Node5&#45;&gt;Node4 -->
<g id="edge5" class="edge">
<title>Node5&#45;&gt;Node4</title>
<path fill="none" stroke="midnightblue" d="M1352.17,-243.99C1592.3,-243.65 2431.47,-239.55 2470.5,-199 2518.96,-148.66 2500.1,-114.5 2396.5,-56 2349.84,-29.65 1535.64,-14.78 1343.77,-11.63"/>
<polygon fill="midnightblue" stroke="midnightblue" points="1343.62,-8.13 1333.56,-11.47 1343.5,-15.13 1343.62,-8.13"/>
</g>
<!-- Node6 -->
<g id="node6" class="node">
<title>Node6</title>
<g id="a_node6"><a xlink:title=" ">
<polygon fill="white" stroke="#bfbfbf" points="850,-174 850,-193 915,-193 915,-174 850,-174"/>
<text text-anchor="middle" x="882.5" y="-181" font-family="FreeSans" font-size="10.00">exception</text>
</a>
</g>
</g>
<!-- Node5&#45;&gt;Node6 -->
<g id="edge6" class="edge">
<title>Node5&#45;&gt;Node6</title>
<path fill="none" stroke="midnightblue" d="M1224.87,-236.16C1120.77,-223.32 925.41,-199.21 924.5,-199 921.09,-198.21 917.57,-197.24 914.08,-196.19"/>
<polygon fill="midnightblue" stroke="midnightblue" points="915.07,-192.83 904.48,-193.06 912.9,-199.49 915.07,-192.83"/>
</g>
<!-- Node7 -->
<g id="node7" class="node">
<title>Node7</title>
<g id="a_node7"><a xlink:title=" ">
<polygon fill="white" stroke="#bfbfbf" points="933.5,-174 933.5,-193 1037.5,-193 1037.5,-174 933.5,-174"/>
<text text-anchor="middle" x="985.5" y="-181" font-family="FreeSans" font-size="10.00">boost/version.hpp</text>
</a>
</g>
</g>
<!-- Node5&#45;&gt;Node7 -->
<g id="edge7" class="edge">
<title>Node5&#45;&gt;Node7</title>
<path fill="none" stroke="midnightblue" d="M1238.77,-235.49C1189.74,-226.94 1112.77,-213.03 1046.5,-199 1041.11,-197.86 1035.46,-196.6 1029.88,-195.32"/>
<polygon fill="midnightblue" stroke="midnightblue" points="1030.48,-191.87 1019.95,-193 1028.89,-198.68 1030.48,-191.87"/>
</g>
<!-- Node8 -->
<g id="node8" class="node">
<title>Node8</title>
<g id="a_node8"><a xlink:title=" ">
<polygon fill="white" stroke="#bfbfbf" points="1055.5,-174 1055.5,-193 1195.5,-193 1195.5,-174 1055.5,-174"/>
<text text-anchor="middle" x="1125.5" y="-181" font-family="FreeSans" font-size="10.00">boost/concept_check.hpp</text>
</a>
</g>
</g>
<!-- Node5&#45;&gt;Node8 -->
<g id="edge8" class="edge">
<title>Node5&#45;&gt;Node8</title>
<path fill="none" stroke="midnightblue" d="M1265.15,-235.48C1237.19,-225.27 1190.17,-208.11 1158.51,-196.55"/>
<polygon fill="midnightblue" stroke="midnightblue" points="1159.4,-193.15 1148.81,-193.01 1157,-199.73 1159.4,-193.15"/>
</g>
<!-- Node9 -->
<g id="node9" class="node">
<title>Node9</title>
<g id="a_node9"><a xlink:title=" ">
<polygon fill="white" stroke="#bfbfbf" points="1381.5,-174 1381.5,-193 1511.5,-193 1511.5,-174 1381.5,-174"/>
<text text-anchor="middle" x="1446.5" y="-181" font-family="FreeSans" font-size="10.00">boost/static_assert.hpp</text>
</a>
</g>
</g>
<!-- Node5&#45;&gt;Node9 -->
<g id="edge9" class="edge">
<title>Node5&#45;&gt;Node9</title>
<path fill="none" stroke="midnightblue" d="M1311.14,-235.48C1338.24,-225.27 1383.81,-208.11 1414.5,-196.55"/>
<polygon fill="midnightblue" stroke="midnightblue" points="1415.78,-199.81 1423.9,-193.01 1413.31,-193.26 1415.78,-199.81"/>
</g>
<!-- Node10 -->
<g id="node10" class="node">
<title>Node10</title>
<g id="a_node10"><a xlink:title=" ">
<polygon fill="white" stroke="#bfbfbf" points="1530,-174 1530,-193 1669,-193 1669,-174 1530,-174"/>
<text text-anchor="middle" x="1599.5" y="-181" font-family="FreeSans" font-size="10.00">boost/concept/assert.hpp</text>
</a>
</g>
</g>
<!-- Node5&#45;&gt;Node10 -->
<g id="edge10" class="edge">
<title>Node5&#45;&gt;Node10</title>
<path fill="none" stroke="midnightblue" d="M1333.06,-235.48C1388.95,-224.78 1484.73,-206.46 1544.94,-194.94"/>
<polygon fill="midnightblue" stroke="midnightblue" points="1545.86,-198.33 1555.02,-193.01 1544.54,-191.45 1545.86,-198.33"/>
</g>
<!-- Node11 -->
<g id="node11" class="node">
<title>Node11</title>
<g id="a_node11"><a xlink:title=" ">
<polygon fill="white" stroke="#bfbfbf" points="1214,-174 1214,-193 1363,-193 1363,-174 1214,-174"/>
<text text-anchor="middle" x="1288.5" y="-181" font-family="FreeSans" font-size="10.00">boost/concept/requires.hpp</text>
</a>
</g>
</g>
<!-- Node5&#45;&gt;Node11 -->
<g id="edge11" class="edge">
<title>Node5&#45;&gt;Node11</title>
<path fill="none" stroke="midnightblue" d="M1288.5,-235.48C1288.5,-227.08 1288.5,-213.98 1288.5,-203.16"/>
<polygon fill="midnightblue" stroke="midnightblue" points="1292,-203.01 1288.5,-193.01 1285,-203.01 1292,-203.01"/>
</g>
<!-- Node12 -->
<g id="node12" class="node">
<title>Node12</title>
<g id="a_node12"><a xlink:title=" ">
<polygon fill="white" stroke="#bfbfbf" points="1687.5,-168.5 1687.5,-198.5 1809.5,-198.5 1809.5,-168.5 1687.5,-168.5"/>
<text text-anchor="start" x="1695.5" y="-186.5" font-family="FreeSans" font-size="10.00">boost/iterator/iterator</text>
<text text-anchor="middle" x="1748.5" y="-175.5" font-family="FreeSans" font-size="10.00">_concepts.hpp</text>
</a>
</g>
</g>
<!-- Node5&#45;&gt;Node12 -->
<g id="edge12" class="edge">
<title>Node5&#45;&gt;Node12</title>
<path fill="none" stroke="midnightblue" d="M1352.07,-238.35C1429.28,-231.09 1563.37,-217.22 1677.5,-199 1677.6,-198.98 1677.7,-198.97 1677.8,-198.95"/>
<polygon fill="midnightblue" stroke="midnightblue" points="1678.09,-202.45 1687.37,-197.33 1676.93,-195.55 1678.09,-202.45"/>
</g>
<!-- Node13 -->
<g id="node13" class="node">
<title>Node13</title>
<g id="a_node13"><a xlink:title=" ">
<polygon fill="white" stroke="#bfbfbf" points="2033.5,-174 2033.5,-193 2193.5,-193 2193.5,-174 2033.5,-174"/>
<text text-anchor="middle" x="2113.5" y="-181" font-family="FreeSans" font-size="10.00">boost/concept_archetype.hpp</text>
</a>
</g>
</g>
<!-- Node5&#45;&gt;Node13 -->
<g id="edge13" class="edge">
<title>Node5&#45;&gt;Node13</title>
<path fill="none" stroke="midnightblue" d="M1352.18,-242.26C1479.99,-238.29 1776.73,-226.69 2024.5,-199 2034.88,-197.84 2045.88,-196.3 2056.49,-194.66"/>
<polygon fill="midnightblue" stroke="midnightblue" points="2057.18,-198.09 2066.51,-193.06 2056.08,-191.18 2057.18,-198.09"/>
</g>
<!-- Node14 -->
<g id="node14" class="node">
<title>Node14</title>
<g id="a_node14"><a xlink:title=" ">
<polygon fill="white" stroke="#bfbfbf" points="320.5,-174 320.5,-193 370.5,-193 370.5,-174 320.5,-174"/>
<text text-anchor="middle" x="345.5" y="-181" font-family="FreeSans" font-size="10.00">stdio.h</text>
</a>
</g>
</g>
<!-- Node5&#45;&gt;Node14 -->
<g id="edge15" class="edge">
<title>Node5&#45;&gt;Node14</title>
<path fill="none" stroke="midnightblue" d="M1224.83,-235.85C1221.68,-235.54 1218.55,-235.25 1215.5,-235 847.09,-204.36 746.84,-272.31 384.5,-199 381.24,-198.34 377.9,-197.45 374.6,-196.43"/>
<polygon fill="midnightblue" stroke="midnightblue" points="375.58,-193.07 364.99,-193.11 373.29,-199.69 375.58,-193.07"/>
</g>
<!-- Node15 -->
<g id="node15" class="node">
<title>Node15</title>
<g id="a_node15"><a xlink:href="Config_8h_source.html" target="_top" xlink:title=" ">
<polygon fill="white" stroke="black" points="791,-56.5 791,-75.5 904,-75.5 904,-56.5 791,-56.5"/>
<text text-anchor="middle" x="847.5" y="-63.5" font-family="FreeSans" font-size="10.00">DGtal/base/Config.h</text>
</a>
</g>
</g>
<!-- Node5&#45;&gt;Node15 -->
<g id="edge16" class="edge">
<title>Node5&#45;&gt;Node15</title>
<path fill="none" stroke="midnightblue" d="M1224.82,-235.98C1221.67,-235.63 1218.55,-235.31 1215.5,-235 1164.16,-229.84 787.54,-236.87 752.5,-199 743.14,-188.89 744.29,-179.06 752.5,-168 785.43,-123.63 838.57,-176.37 871.5,-132 882.2,-117.58 872.26,-97.87 862.11,-83.95"/>
<polygon fill="midnightblue" stroke="midnightblue" points="864.58,-81.42 855.63,-75.75 859.08,-85.76 864.58,-81.42"/>
</g>
<!-- Node17 -->
<g id="node17" class="node">
<title>Node17</title>
<g id="a_node17"><a xlink:href="Trace_8h_source.html" target="_top" xlink:title=" ">
<polygon fill="white" stroke="black" points="426.5,-174 426.5,-193 534.5,-193 534.5,-174 426.5,-174"/>
<text text-anchor="middle" x="480.5" y="-181" font-family="FreeSans" font-size="10.00">DGtal/base/Trace.h</text>
</a>
</g>
</g>
<!-- Node5&#45;&gt;Node17 -->
<g id="edge19" class="edge">
<title>Node5&#45;&gt;Node17</title>
<path fill="none" stroke="midnightblue" d="M1224.82,-235.9C1221.67,-235.58 1218.55,-235.28 1215.5,-235 940.16,-210.07 869.79,-224.46 594.5,-199 578.29,-197.5 560.84,-195.49 544.58,-193.43"/>
<polygon fill="midnightblue" stroke="midnightblue" points="545,-189.96 534.64,-192.16 544.11,-196.9 545,-189.96"/>
</g>
<!-- Node24 -->
<g id="node24" class="node">
<title>Node24</title>
<g id="a_node24"><a xlink:href="TraceWriterTerm_8h_source.html" target="_top" xlink:title=" ">
<polygon fill="white" stroke="black" points="682.5,-112.5 682.5,-131.5 844.5,-131.5 844.5,-112.5 682.5,-112.5"/>
<text text-anchor="middle" x="763.5" y="-119.5" font-family="FreeSans" font-size="10.00">DGtal/base/TraceWriterTerm.h</text>
</a>
</g>
</g>
<!-- Node5&#45;&gt;Node24 -->
<g id="edge42" class="edge">
<title>Node5&#45;&gt;Node24</title>
<path fill="none" stroke="midnightblue" d="M1224.82,-235.94C1221.67,-235.61 1218.55,-235.29 1215.5,-235 1157.63,-229.44 733.17,-241.5 693.5,-199 684.1,-188.93 686.9,-180.09 693.5,-168 701.32,-153.68 715.86,-143.24 729.68,-136.04"/>
<polygon fill="midnightblue" stroke="midnightblue" points="731.52,-139.03 739.03,-131.56 728.5,-132.72 731.52,-139.03"/>
</g>
<!-- Node25 -->
<g id="node25" class="node">
<title>Node25</title>
<g id="a_node25"><a xlink:href="Assert_8h_source.html" target="_top" xlink:title=" ">
<polygon fill="white" stroke="black" points="72,-112.5 72,-131.5 185,-131.5 185,-112.5 72,-112.5"/>
<text text-anchor="middle" x="128.5" y="-119.5" font-family="FreeSans" font-size="10.00">DGtal/base/Assert.h</text>
</a>
</g>
</g>
<!-- Node5&#45;&gt;Node25 -->
<g id="edge47" class="edge">
<title>Node5&#45;&gt;Node25</title>
<path fill="none" stroke="midnightblue" d="M1224.83,-235.86C1221.68,-235.54 1218.55,-235.26 1215.5,-235 1127.06,-227.56 500.42,-230.66 417.5,-199 397.14,-191.23 399.3,-177.1 379.5,-168 362.87,-160.36 262.99,-143.81 194.35,-133.05"/>
<polygon fill="midnightblue" stroke="midnightblue" points="194.89,-129.59 184.47,-131.51 193.81,-136.51 194.89,-129.59"/>
</g>
<!-- Node28 -->
<g id="node28" class="node">
<title>Node28</title>
<g id="a_node28"><a xlink:href="TraceWriterFile_8h_source.html" target="_top" xlink:title=" ">
<polygon fill="white" stroke="black" points="509,-112.5 509,-131.5 664,-131.5 664,-112.5 509,-112.5"/>
<text text-anchor="middle" x="586.5" y="-119.5" font-family="FreeSans" font-size="10.00">DGtal/base/TraceWriterFile.h</text>
</a>
</g>
</g>
<!-- Node5&#45;&gt;Node28 -->
<g id="edge43" class="edge">
<title>Node5&#45;&gt;Node28</title>
<path fill="none" stroke="midnightblue" d="M1224.82,-235.94C1221.67,-235.61 1218.55,-235.29 1215.5,-235 1097.54,-223.75 794.14,-241.42 683.5,-199 649.89,-186.12 618.57,-157.34 601.04,-139.13"/>
<polygon fill="midnightblue" stroke="midnightblue" points="603.38,-136.51 593.99,-131.6 598.27,-141.29 603.38,-136.51"/>
</g>
<!-- Node29 -->
<g id="node29" class="node">
<title>Node29</title>
<g id="a_node29"><a xlink:href="ConceptUtils_8h_source.html" target="_top" xlink:title=" ">
<polygon fill="white" stroke="black" points="977,-112.5 977,-131.5 1122,-131.5 1122,-112.5 977,-112.5"/>
<text text-anchor="middle" x="1049.5" y="-119.5" font-family="FreeSans" font-size="10.00">DGtal/base/ConceptUtils.h</text>
</a>
</g>
</g>
<!-- Node5&#45;&gt;Node29 -->
<g id="edge48" class="edge">
<title>Node5&#45;&gt;Node29</title>
<path fill="none" stroke="midnightblue" d="M1224.82,-235.98C1221.67,-235.64 1218.55,-235.31 1215.5,-235 1165.27,-229.91 796.76,-236.09 762.5,-199 753.15,-188.88 753.54,-178.47 762.5,-168 769.31,-160.04 888.06,-143.47 970.66,-132.81"/>
<polygon fill="midnightblue" stroke="midnightblue" points="971.32,-136.26 980.79,-131.51 970.43,-129.31 971.32,-136.26"/>
</g>
<!-- Node30 -->
<g id="node30" class="node">
<title>Node30</title>
<g id="a_node30"><a xlink:href="BasicTypes_8h_source.html" target="_top" xlink:title=" ">
<polygon fill="white" stroke="black" points="1140,-112.5 1140,-131.5 1277,-131.5 1277,-112.5 1140,-112.5"/>
<text text-anchor="middle" x="1208.5" y="-119.5" font-family="FreeSans" font-size="10.00">DGtal/base/BasicTypes.h</text>
</a>
</g>
</g>
<!-- Node5&#45;&gt;Node30 -->
<g id="edge50" class="edge">
<title>Node5&#45;&gt;Node30</title>
<path fill="none" stroke="midnightblue" d="M1224.81,-236.02C1221.67,-235.66 1218.55,-235.32 1215.5,-235 1170.24,-230.21 838.23,-232.56 807.5,-199 730.85,-115.29 546.6,-197.53 1129.65,-132.09"/>
<polygon fill="midnightblue" stroke="midnightblue" points="1130.05,-135.56 1139.6,-130.96 1129.27,-128.61 1130.05,-135.56"/>
</g>
<!-- Node33 -->
<g id="node33" class="node">
<title>Node33</title>
<g id="a_node33"><a xlink:href="BasicFunctors_8h_source.html" target="_top" xlink:title=" ">
<polygon fill="white" stroke="black" points="1865.5,-174 1865.5,-193 2015.5,-193 2015.5,-174 1865.5,-174"/>
<text text-anchor="middle" x="1940.5" y="-181" font-family="FreeSans" font-size="10.00">DGtal/base/BasicFunctors.h</text>
</a>
</g>
</g>
<!-- Node5&#45;&gt;Node33 -->
<g id="edge55" class="edge">
<title>Node5&#45;&gt;Node33</title>
<path fill="none" stroke="midnightblue" d="M1352.12,-238.85C1450.37,-231.16 1644.59,-215.8 1809.5,-199 1824.3,-197.49 1840.08,-195.73 1855.4,-193.97"/>
<polygon fill="midnightblue" stroke="midnightblue" points="1855.86,-197.44 1865.39,-192.81 1855.05,-190.48 1855.86,-197.44"/>
</g>
<!-- Node43 -->
<g id="node43" class="node">
<title>Node43</title>
<g id="a_node43"><a xlink:href="BasicArchetypes_8h_source.html" target="_top" xlink:title=" ">
<polygon fill="white" stroke="black" points="1295.5,-112.5 1295.5,-131.5 1459.5,-131.5 1459.5,-112.5 1295.5,-112.5"/>
<text text-anchor="middle" x="1377.5" y="-119.5" font-family="FreeSans" font-size="10.00">DGtal/base/BasicArchetypes.h</text>
</a>
</g>
</g>
<!-- Node5&#45;&gt;Node43 -->
<g id="edge71" class="edge">
<title>Node5&#45;&gt;Node43</title>
<path fill="none" stroke="midnightblue" d="M1224.81,-236.05C1221.66,-235.68 1218.55,-235.33 1215.5,-235 1173.89,-230.44 868.65,-229.98 840.5,-199 831.23,-188.8 831.16,-178.13 840.5,-168 872.56,-133.25 1202.88,-136.05 1285,-131.8"/>
<polygon fill="midnightblue" stroke="midnightblue" points="1285.5,-135.27 1295.25,-131.12 1285.04,-128.29 1285.5,-135.27"/>
</g>
<!-- Node44 -->
<g id="node44" class="node">
<title>Node44</title>
<g id="a_node44"><a xlink:href="Exceptions_8h_source.html" target="_top" xlink:title=" ">
<polygon fill="white" stroke="black" points="2325.5,-174 2325.5,-193 2461.5,-193 2461.5,-174 2325.5,-174"/>
<text text-anchor="middle" x="2393.5" y="-181" font-family="FreeSans" font-size="10.00">DGtal/base/Exceptions.h</text>
</a>
</g>
</g>
<!-- Node5&#45;&gt;Node44 -->
<g id="edge73" class="edge">
<title>Node5&#45;&gt;Node44</title>
<path fill="none" stroke="midnightblue" d="M1352.27,-242.73C1509.2,-239.26 1926.55,-227.85 2273.5,-199 2288.68,-197.74 2304.9,-196.03 2320.35,-194.22"/>
<polygon fill="midnightblue" stroke="midnightblue" points="2320.86,-197.68 2330.38,-193.02 2320.03,-190.73 2320.86,-197.68"/>
</g>
<!-- Node15&#45;&gt;Node4 -->
<g id="edge17" class="edge">
<title>Node15&#45;&gt;Node4</title>
<path fill="none" stroke="midnightblue" d="M904.08,-57.78C908.95,-57.17 913.81,-56.57 918.5,-56 1043.99,-40.71 1192.62,-23.63 1262.86,-15.62"/>
<polygon fill="midnightblue" stroke="midnightblue" points="1263.5,-19.07 1273.04,-14.46 1262.71,-12.11 1263.5,-19.07"/>
</g>
<!-- Node16 -->
<g id="node16" class="node">
<title>Node16</title>
<g id="a_node16"><a xlink:title=" ">
<polygon fill="white" stroke="#bfbfbf" points="615.5,-0.5 615.5,-19.5 659.5,-19.5 659.5,-0.5 615.5,-0.5"/>
<text text-anchor="middle" x="637.5" y="-7.5" font-family="FreeSans" font-size="10.00">string</text>
</a>
</g>
</g>
<!-- Node15&#45;&gt;Node16 -->
<g id="edge18" class="edge">
<title>Node15&#45;&gt;Node16</title>
<path fill="none" stroke="midnightblue" d="M814.22,-56.44C774.52,-46.23 708.6,-29.28 669.48,-19.22"/>
<polygon fill="midnightblue" stroke="midnightblue" points="670.22,-15.8 659.67,-16.7 668.48,-22.58 670.22,-15.8"/>
</g>
<!-- Node17&#45;&gt;Node4 -->
<g id="edge20" class="edge">
<title>Node17&#45;&gt;Node4</title>
<path fill="none" stroke="midnightblue" d="M534.51,-180.11C610.78,-175.72 753.86,-163.67 871.5,-132 955.75,-109.32 968.83,-80.74 1052.5,-56 1125.23,-34.5 1213.02,-21.62 1263.15,-15.46"/>
<polygon fill="midnightblue" stroke="midnightblue" points="1263.74,-18.91 1273.25,-14.24 1262.91,-11.96 1263.74,-18.91"/>
</g>
<!-- Node17&#45;&gt;Node15 -->
<g id="edge24" class="edge">
<title>Node17&#45;&gt;Node15</title>
<path fill="none" stroke="midnightblue" d="M534.53,-179.06C632.85,-172.26 832.83,-155.65 853.5,-132 864.54,-119.36 860.8,-99.6 855.69,-85.18"/>
<polygon fill="midnightblue" stroke="midnightblue" points="858.89,-83.78 851.91,-75.81 852.4,-86.39 858.89,-83.78"/>
</g>
<!-- Node17&#45;&gt;Node16 -->
<g id="edge22" class="edge">
<title>Node17&#45;&gt;Node16</title>
<path fill="none" stroke="midnightblue" d="M475.32,-173.72C462.94,-151.44 434.63,-91.94 462.5,-56 479.84,-33.63 559.68,-20.44 605.3,-14.6"/>
<polygon fill="midnightblue" stroke="midnightblue" points="605.79,-18.07 615.29,-13.37 604.94,-11.12 605.79,-18.07"/>
</g>
<!-- Node18 -->
<g id="node18" class="node">
<title>Node18</title>
<g id="a_node18"><a xlink:title=" ">
<polygon fill="white" stroke="#bfbfbf" points="349,-0.5 349,-19.5 406,-19.5 406,-0.5 349,-0.5"/>
<text text-anchor="middle" x="377.5" y="-7.5" font-family="FreeSans" font-size="10.00">ostream</text>
</a>
</g>
</g>
<!-- Node17&#45;&gt;Node18 -->
<g id="edge21" class="edge">
<title>Node17&#45;&gt;Node18</title>
<path fill="none" stroke="midnightblue" d="M440.96,-173.98C431.64,-172 421.72,-169.91 412.5,-168 332.6,-151.49 284.22,-195.09 232.5,-132 194.15,-85.21 286.41,-43.01 340.92,-23.09"/>
<polygon fill="midnightblue" stroke="midnightblue" points="342.38,-26.29 350.62,-19.63 340.03,-19.69 342.38,-26.29"/>
</g>
<!-- Node19 -->
<g id="node19" class="node">
<title>Node19</title>
<g id="a_node19"><a xlink:title=" ">
<polygon fill="white" stroke="#bfbfbf" points="242,-112.5 242,-131.5 285,-131.5 285,-112.5 242,-112.5"/>
<text text-anchor="middle" x="263.5" y="-119.5" font-family="FreeSans" font-size="10.00">stack</text>
</a>
</g>
</g>
<!-- Node17&#45;&gt;Node19 -->
<g id="edge23" class="edge">
<title>Node17&#45;&gt;Node19</title>
<path fill="none" stroke="midnightblue" d="M447.66,-173.93C412.23,-164.61 353.91,-149.09 294.96,-132.36"/>
<polygon fill="midnightblue" stroke="midnightblue" points="295.69,-128.93 285.11,-129.56 293.77,-135.67 295.69,-128.93"/>
</g>
<!-- Node17&#45;&gt;Node20 -->
<g id="edge25" class="edge">
<title>Node17&#45;&gt;Node20</title>
<path fill="none" stroke="midnightblue" d="M534.58,-180.37C710.36,-173.35 1265.4,-150.38 1467.18,-132.02"/>
<polygon fill="midnightblue" stroke="midnightblue" points="1467.75,-135.48 1477.38,-131.07 1467.1,-128.51 1467.75,-135.48"/>
</g>
<!-- Node23 -->
<g id="node23" class="node">
<title>Node23</title>
<g id="a_node23"><a xlink:href="TraceWriter_8h_source.html" target="_top" xlink:title=" ">
<polygon fill="white" stroke="black" points="472,-56.5 472,-75.5 609,-75.5 609,-56.5 472,-56.5"/>
<text text-anchor="middle" x="540.5" y="-63.5" font-family="FreeSans" font-size="10.00">DGtal/base/TraceWriter.h</text>
</a>
</g>
</g>
<!-- Node17&#45;&gt;Node23 -->
<g id="edge29" class="edge">
<title>Node17&#45;&gt;Node23</title>
<path fill="none" stroke="midnightblue" d="M481.5,-173.76C483.38,-159.93 488.3,-132.46 499.5,-112 505.5,-101.04 514.7,-90.61 522.87,-82.55"/>
<polygon fill="midnightblue" stroke="midnightblue" points="525.36,-85.02 530.24,-75.62 520.56,-79.92 525.36,-85.02"/>
</g>
<!-- Node17&#45;&gt;Node24 -->
<g id="edge32" class="edge">
<title>Node17&#45;&gt;Node24</title>
<path fill="none" stroke="midnightblue" d="M521.05,-173.98C571.69,-163.33 658.34,-145.11 713.18,-133.58"/>
<polygon fill="midnightblue" stroke="midnightblue" points="713.96,-136.99 723.03,-131.51 712.52,-130.14 713.96,-136.99"/>
</g>
<!-- Node17&#45;&gt;Node25 -->
<g id="edge37" class="edge">
<title>Node17&#45;&gt;Node25</title>
<path fill="none" stroke="midnightblue" d="M433.38,-173.94C423.45,-171.89 413.11,-169.79 403.5,-168 330.84,-154.51 247.25,-141.57 191.4,-133.06"/>
<polygon fill="midnightblue" stroke="midnightblue" points="191.72,-129.57 181.31,-131.52 190.67,-136.49 191.72,-129.57"/>
</g>
<!-- Node27 -->
<g id="node27" class="node">
<title>Node27</title>
<g id="a_node27"><a xlink:href="Trace_8ih_source.html" target="_top" xlink:title=" ">
<polygon fill="white" stroke="black" points="303,-112.5 303,-131.5 414,-131.5 414,-112.5 303,-112.5"/>
<text text-anchor="middle" x="358.5" y="-119.5" font-family="FreeSans" font-size="10.00">DGtal/base/Trace.ih</text>
</a>
</g>
</g>
<!-- Node17&#45;&gt;Node27 -->
<g id="edge41" class="edge">
<title>Node17&#45;&gt;Node27</title>
<path fill="none" stroke="midnightblue" d="M463.02,-173.98C442.64,-164.03 408.72,-147.49 385.08,-135.96"/>
<polygon fill="midnightblue" stroke="midnightblue" points="386.47,-132.75 375.95,-131.51 383.4,-139.04 386.47,-132.75"/>
</g>
<!-- Node20&#45;&gt;Node4 -->
<g id="edge26" class="edge">
<title>Node20&#45;&gt;Node4</title>
<path fill="none" stroke="midnightblue" d="M1516.08,-112.3C1484.87,-95.78 1419.15,-61.06 1408.5,-56 1383.92,-44.31 1355.51,-32.22 1334.44,-23.52"/>
<polygon fill="midnightblue" stroke="midnightblue" points="1335.61,-20.21 1325.03,-19.65 1332.96,-26.69 1335.61,-20.21"/>
</g>
<!-- Node21 -->
<g id="node21" class="node">
<title>Node21</title>
<g id="a_node21"><a xlink:title=" ">
<polygon fill="white" stroke="#bfbfbf" points="1351,-56.5 1351,-75.5 1400,-75.5 1400,-56.5 1351,-56.5"/>
<text text-anchor="middle" x="1375.5" y="-63.5" font-family="FreeSans" font-size="10.00">cstdlib</text>
</a>
</g>
</g>
<!-- Node20&#45;&gt;Node21 -->
<g id="edge27" class="edge">
<title>Node20&#45;&gt;Node21</title>
<path fill="none" stroke="midnightblue" d="M1507.62,-112.44C1481.13,-103.33 1439.04,-88.85 1409.5,-78.69"/>
<polygon fill="midnightblue" stroke="midnightblue" points="1410.6,-75.37 1400,-75.43 1408.32,-81.99 1410.6,-75.37"/>
</g>
<!-- Node22 -->
<g id="node22" class="node">
<title>Node22</title>
<g id="a_node22"><a xlink:href="Clock_8ih_source.html" target="_top" xlink:title=" ">
<polygon fill="white" stroke="black" points="1457,-56.5 1457,-75.5 1570,-75.5 1570,-56.5 1457,-56.5"/>
<text text-anchor="middle" x="1513.5" y="-63.5" font-family="FreeSans" font-size="10.00">DGtal/base/Clock.ih</text>
</a>
</g>
</g>
<!-- Node20&#45;&gt;Node22 -->
<g id="edge28" class="edge">
<title>Node20&#45;&gt;Node22</title>
<path fill="none" stroke="midnightblue" d="M1529.36,-112.08C1526.82,-104.85 1523.14,-94.41 1519.97,-85.4"/>
<polygon fill="midnightblue" stroke="midnightblue" points="1523.2,-84.02 1516.58,-75.75 1516.6,-86.35 1523.2,-84.02"/>
</g>
<!-- Node23&#45;&gt;Node4 -->
<g id="edge30" class="edge">
<title>Node23&#45;&gt;Node4</title>
<path fill="none" stroke="midnightblue" d="M609.22,-60.14C764.76,-49.13 1139.84,-22.58 1263.33,-13.84"/>
<polygon fill="midnightblue" stroke="midnightblue" points="1263.75,-17.32 1273.48,-13.12 1263.25,-10.34 1263.75,-17.32"/>
</g>
<!-- Node23&#45;&gt;Node18 -->
<g id="edge31" class="edge">
<title>Node23&#45;&gt;Node18</title>
<path fill="none" stroke="midnightblue" d="M514.67,-56.44C487.25,-47.36 443.72,-32.94 413.07,-22.78"/>
<polygon fill="midnightblue" stroke="midnightblue" points="413.8,-19.34 403.21,-19.52 411.6,-25.98 413.8,-19.34"/>
</g>
<!-- Node24&#45;&gt;Node4 -->
<g id="edge33" class="edge">
<title>Node24&#45;&gt;Node4</title>
<path fill="none" stroke="midnightblue" d="M763.04,-112.2C762.84,-97.93 764.75,-69.92 781.5,-56 818.3,-25.42 1147.31,-14.71 1263.27,-11.86"/>
<polygon fill="midnightblue" stroke="midnightblue" points="1263.58,-15.36 1273.49,-11.62 1263.41,-8.36 1263.58,-15.36"/>
</g>
<!-- Node24&#45;&gt;Node15 -->
<g id="edge36" class="edge">
<title>Node24&#45;&gt;Node15</title>
<path fill="none" stroke="midnightblue" d="M777,-112.32C790.1,-103.9 810.21,-90.97 825.61,-81.07"/>
<polygon fill="midnightblue" stroke="midnightblue" points="827.52,-84.01 834.04,-75.65 823.73,-78.12 827.52,-84.01"/>
</g>
<!-- Node24&#45;&gt;Node16 -->
<g id="edge34" class="edge">
<title>Node24&#45;&gt;Node16</title>
<path fill="none" stroke="midnightblue" d="M753.61,-112.37C732.36,-93.81 682.07,-49.91 655.18,-26.44"/>
<polygon fill="midnightblue" stroke="midnightblue" points="657.18,-23.53 647.34,-19.59 652.57,-28.8 657.18,-23.53"/>
</g>
<!-- Node24&#45;&gt;Node23 -->
<g id="edge35" class="edge">
<title>Node24&#45;&gt;Node23</title>
<path fill="none" stroke="midnightblue" d="M728.16,-112.44C689.59,-103.1 627.72,-88.12 585.65,-77.93"/>
<polygon fill="midnightblue" stroke="midnightblue" points="586.21,-74.47 575.67,-75.52 584.57,-81.27 586.21,-74.47"/>
</g>
<!-- Node25&#45;&gt;Node16 -->
<g id="edge40" class="edge">
<title>Node25&#45;&gt;Node16</title>
<path fill="none" stroke="midnightblue" d="M167.81,-112.47C225.12,-100.03 335,-76.2 428.5,-56 491.08,-42.48 564.21,-26.75 605.26,-17.93"/>
<polygon fill="midnightblue" stroke="midnightblue" points="606.19,-21.31 615.23,-15.79 604.72,-14.47 606.19,-21.31"/>
</g>
<!-- Node25&#45;&gt;Node17 -->
<g id="edge38" class="edge">
<title>Node25&#45;&gt;Node17</title>
<path fill="none" stroke="midnightblue" d="M185.19,-130.13C244.51,-138.4 339.9,-152.85 421.5,-168 427.81,-169.17 434.43,-170.48 440.88,-171.82"/>
<polygon fill="midnightblue" stroke="midnightblue" points="440.3,-175.28 450.81,-173.94 441.76,-168.43 440.3,-175.28"/>
</g>
<!-- Node26 -->
<g id="node26" class="node">
<title>Node26</title>
<g id="a_node26"><a xlink:title=" ">
<polygon fill="white" stroke="#bfbfbf" points="0,-56.5 0,-75.5 147,-75.5 147,-56.5 0,-56.5"/>
<text text-anchor="middle" x="73.5" y="-63.5" font-family="FreeSans" font-size="10.00">boost/current_function.hpp</text>
</a>
</g>
</g>
<!-- Node25&#45;&gt;Node26 -->
<g id="edge39" class="edge">
<title>Node25&#45;&gt;Node26</title>
<path fill="none" stroke="midnightblue" d="M119.42,-112.08C111.33,-104.14 99.3,-92.34 89.59,-82.8"/>
<polygon fill="midnightblue" stroke="midnightblue" points="92,-80.26 82.41,-75.75 87.1,-85.25 92,-80.26"/>
</g>
<!-- Node28&#45;&gt;Node4 -->
<g id="edge44" class="edge">
<title>Node28&#45;&gt;Node4</title>
<path fill="none" stroke="midnightblue" d="M604.83,-112.5C636.71,-98.13 704.79,-69.31 765.5,-56 948.24,-15.93 1173.07,-10.99 1263.27,-10.75"/>
<polygon fill="midnightblue" stroke="midnightblue" points="1263.34,-14.25 1273.34,-10.75 1263.34,-7.25 1263.34,-14.25"/>
</g>
<!-- Node28&#45;&gt;Node16 -->
<g id="edge45" class="edge">
<title>Node28&#45;&gt;Node16</title>
<path fill="none" stroke="midnightblue" d="M593.78,-112.2C600.69,-103.47 610.97,-89.49 617.5,-76 624.73,-61.06 630.06,-42.92 633.38,-29.6"/>
<polygon fill="midnightblue" stroke="midnightblue" points="636.82,-30.26 635.71,-19.73 630.01,-28.66 636.82,-30.26"/>
</g>
<!-- Node28&#45;&gt;Node23 -->
<g id="edge46" class="edge">
<title>Node28&#45;&gt;Node23</title>
<path fill="none" stroke="midnightblue" d="M578.9,-112.08C572.27,-104.3 562.48,-92.8 554.44,-83.37"/>
<polygon fill="midnightblue" stroke="midnightblue" points="557.1,-81.09 547.95,-75.75 551.77,-85.63 557.1,-81.09"/>
</g>
<!-- Node29&#45;&gt;Node4 -->
<g id="edge49" class="edge">
<title>Node29&#45;&gt;Node4</title>
<path fill="none" stroke="midnightblue" d="M1049.36,-112.38C1049.62,-98.36 1052.32,-70.71 1068.5,-56 1096.48,-30.56 1203.53,-18.55 1263.02,-13.73"/>
<polygon fill="midnightblue" stroke="midnightblue" points="1263.5,-17.2 1273.2,-12.94 1262.96,-10.22 1263.5,-17.2"/>
</g>
<!-- Node30&#45;&gt;Node4 -->
<g id="edge52" class="edge">
<title>Node30&#45;&gt;Node4</title>
<path fill="none" stroke="midnightblue" d="M1221.61,-112.48C1233.71,-104.17 1251.71,-90.66 1264.5,-76 1277.04,-61.62 1287.89,-42.67 1294.94,-28.94"/>
<polygon fill="midnightblue" stroke="midnightblue" points="1298.25,-30.14 1299.55,-19.63 1291.98,-27.04 1298.25,-30.14"/>
</g>
<!-- Node30&#45;&gt;Node21 -->
<g id="edge51" class="edge">
<title>Node30&#45;&gt;Node21</title>
<path fill="none" stroke="midnightblue" d="M1234.96,-112.44C1263.68,-103.16 1309.63,-88.3 1341.12,-78.12"/>
<polygon fill="midnightblue" stroke="midnightblue" points="1342.36,-81.4 1350.8,-74.99 1340.2,-74.73 1342.36,-81.4"/>
</g>
<!-- Node31 -->
<g id="node31" class="node">
<title>Node31</title>
<g id="a_node31"><a xlink:title=" ">
<polygon fill="white" stroke="#bfbfbf" points="1078,-56.5 1078,-75.5 1179,-75.5 1179,-56.5 1078,-56.5"/>
<text text-anchor="middle" x="1128.5" y="-63.5" font-family="FreeSans" font-size="10.00">boost/cstdint.hpp</text>
</a>
</g>
</g>
<!-- Node30&#45;&gt;Node31 -->
<g id="edge53" class="edge">
<title>Node30&#45;&gt;Node31</title>
<path fill="none" stroke="midnightblue" d="M1195.65,-112.32C1183.28,-103.98 1164.37,-91.21 1149.76,-81.35"/>
<polygon fill="midnightblue" stroke="midnightblue" points="1151.57,-78.35 1141.32,-75.65 1147.65,-84.15 1151.57,-78.35"/>
</g>
<!-- Node32 -->
<g id="node32" class="node">
<title>Node32</title>
<g id="a_node32"><a xlink:title=" ">
<polygon fill="white" stroke="#bfbfbf" points="1197,-56.5 1197,-75.5 1256,-75.5 1256,-56.5 1197,-56.5"/>
<text text-anchor="middle" x="1226.5" y="-63.5" font-family="FreeSans" font-size="10.00">gmpxx.h</text>
</a>
</g>
</g>
<!-- Node30&#45;&gt;Node32 -->
<g id="edge54" class="edge">
<title>Node30&#45;&gt;Node32</title>
<path fill="none" stroke="midnightblue" d="M1211.47,-112.08C1213.88,-104.85 1217.36,-94.41 1220.37,-85.4"/>
<polygon fill="midnightblue" stroke="midnightblue" points="1223.74,-86.34 1223.58,-75.75 1217.1,-84.13 1223.74,-86.34"/>
</g>
<!-- Node33&#45;&gt;Node3 -->
<g id="edge58" class="edge">
<title>Node33&#45;&gt;Node3</title>
<path fill="none" stroke="midnightblue" d="M1986.2,-173.98C2051.08,-161.87 2168.36,-140 2225.86,-129.27"/>
<polygon fill="midnightblue" stroke="midnightblue" points="2226.69,-132.68 2235.88,-127.41 2225.41,-125.8 2226.69,-132.68"/>
</g>
<!-- Node33&#45;&gt;Node5 -->
<g id="edge66" class="edge">
<title>Node33&#45;&gt;Node5</title>
<path fill="none" stroke="midnightblue" d="M1880.85,-193.03C1863.67,-195.1 1844.9,-197.23 1827.5,-199 1661.68,-215.89 1466.23,-231.33 1362.2,-238.97"/>
<polygon fill="midnightblue" stroke="midnightblue" points="1361.83,-235.49 1352.11,-239.71 1362.34,-242.47 1361.83,-235.49"/>
</g>
<!-- Node34 -->
<g id="node34" class="node">
<title>Node34</title>
<g id="a_node34"><a xlink:title=" ">
<polygon fill="white" stroke="#bfbfbf" points="1945.5,-56.5 1945.5,-75.5 2009.5,-75.5 2009.5,-56.5 1945.5,-56.5"/>
<text text-anchor="middle" x="1977.5" y="-63.5" font-family="FreeSans" font-size="10.00">algorithm</text>
</a>
</g>
</g>
<!-- Node33&#45;&gt;Node34 -->
<g id="edge56" class="edge">
<title>Node33&#45;&gt;Node34</title>
<path fill="none" stroke="midnightblue" d="M1943.28,-173.82C1949.25,-155.17 1963.42,-110.94 1971.53,-85.63"/>
<polygon fill="midnightblue" stroke="midnightblue" points="1974.97,-86.37 1974.69,-75.78 1968.3,-84.24 1974.97,-86.37"/>
</g>
<!-- Node35 -->
<g id="node35" class="node">
<title>Node35</title>
<g id="a_node35"><a xlink:title=" ">
<polygon fill="white" stroke="#bfbfbf" points="1670,-112.5 1670,-131.5 1735,-131.5 1735,-112.5 1670,-112.5"/>
<text text-anchor="middle" x="1702.5" y="-119.5" font-family="FreeSans" font-size="10.00">functional</text>
</a>
</g>
</g>
<!-- Node33&#45;&gt;Node35 -->
<g id="edge57" class="edge">
<title>Node33&#45;&gt;Node35</title>
<path fill="none" stroke="midnightblue" d="M1906.4,-173.98C1863.86,-163.34 1791.12,-145.15 1744.99,-133.62"/>
<polygon fill="midnightblue" stroke="midnightblue" points="1745.56,-130.16 1735.01,-131.13 1743.86,-136.95 1745.56,-130.16"/>
</g>
<!-- Node36 -->
<g id="node36" class="node">
<title>Node36</title>
<g id="a_node36"><a xlink:href="Color_8h_source.html" target="_top" xlink:title=" ">
<polygon fill="white" stroke="black" points="2082,-112.5 2082,-131.5 2175,-131.5 2175,-112.5 2082,-112.5"/>
<text text-anchor="middle" x="2128.5" y="-119.5" font-family="FreeSans" font-size="10.00">DGtal/io/Color.h</text>
</a>
</g>
</g>
<!-- Node33&#45;&gt;Node36 -->
<g id="edge59" class="edge">
<title>Node33&#45;&gt;Node36</title>
<path fill="none" stroke="midnightblue" d="M1967.44,-173.98C2000.1,-163.64 2055.32,-146.16 2091.84,-134.6"/>
<polygon fill="midnightblue" stroke="midnightblue" points="2093.14,-137.86 2101.61,-131.51 2091.02,-131.19 2093.14,-137.86"/>
</g>
<!-- Node40 -->
<g id="node40" class="node">
<title>Node40</title>
<g id="a_node40"><a xlink:href="BasicBoolFunctors_8h_source.html" target="_top" xlink:title=" ">
<polygon fill="white" stroke="black" points="1753.5,-112.5 1753.5,-131.5 1925.5,-131.5 1925.5,-112.5 1753.5,-112.5"/>
<text text-anchor="middle" x="1839.5" y="-119.5" font-family="FreeSans" font-size="10.00">DGtal/base/BasicBoolFunctors.h</text>
</a>
</g>
</g>
<!-- Node33&#45;&gt;Node40 -->
<g id="edge67" class="edge">
<title>Node33&#45;&gt;Node40</title>
<path fill="none" stroke="midnightblue" d="M1926.03,-173.98C1909.53,-164.25 1882.32,-148.23 1862.82,-136.74"/>
<polygon fill="midnightblue" stroke="midnightblue" points="1864.34,-133.57 1853.94,-131.51 1860.78,-139.6 1864.34,-133.57"/>
</g>
<!-- Node36&#45;&gt;Node4 -->
<g id="edge60" class="edge">
<title>Node36&#45;&gt;Node4</title>
<path fill="none" stroke="midnightblue" d="M2114.92,-112.49C2087.85,-95.6 2028.89,-59.19 2018.5,-56 1891.03,-16.81 1475.41,-11.7 1343.83,-11.07"/>
<polygon fill="midnightblue" stroke="midnightblue" points="1343.79,-7.57 1333.78,-11.03 1343.76,-14.57 1343.79,-7.57"/>
</g>
<!-- Node36&#45;&gt;Node5 -->
<g id="edge61" class="edge">
<title>Node36&#45;&gt;Node5</title>
<path fill="none" stroke="midnightblue" d="M2155.43,-131.64C2172.22,-138.59 2192.48,-150.18 2202.5,-168 2209.25,-180.01 2212,-189.02 2202.5,-199 2173.69,-229.27 1574.69,-240.18 1362.34,-243.11"/>
<polygon fill="midnightblue" stroke="midnightblue" points="1362.17,-239.61 1352.22,-243.24 1362.27,-246.61 1362.17,-239.61"/>
</g>
<!-- Node36&#45;&gt;Node34 -->
<g id="edge63" class="edge">
<title>Node36&#45;&gt;Node34</title>
<path fill="none" stroke="midnightblue" d="M2104.57,-112.44C2079.28,-103.4 2039.2,-89.06 2010.82,-78.92"/>
<polygon fill="midnightblue" stroke="midnightblue" points="2011.91,-75.59 2001.31,-75.52 2009.55,-82.18 2011.91,-75.59"/>
</g>
<!-- Node37 -->
<g id="node37" class="node">
<title>Node37</title>
<g id="a_node37"><a xlink:title=" ">
<polygon fill="white" stroke="#bfbfbf" points="2066,-56.5 2066,-75.5 2191,-75.5 2191,-56.5 2066,-56.5"/>
<text text-anchor="middle" x="2128.5" y="-63.5" font-family="FreeSans" font-size="10.00">boost/lexical_cast.hpp</text>
</a>
</g>
</g>
<!-- Node36&#45;&gt;Node37 -->
<g id="edge62" class="edge">
<title>Node36&#45;&gt;Node37</title>
<path fill="none" stroke="midnightblue" d="M2128.5,-112.08C2128.5,-105.01 2128.5,-94.86 2128.5,-85.99"/>
<polygon fill="midnightblue" stroke="midnightblue" points="2132,-85.75 2128.5,-75.75 2125,-85.75 2132,-85.75"/>
</g>
<!-- Node38 -->
<g id="node38" class="node">
<title>Node38</title>
<g id="a_node38"><a xlink:title=" ">
<polygon fill="white" stroke="#bfbfbf" points="2209.5,-56.5 2209.5,-75.5 2251.5,-75.5 2251.5,-56.5 2209.5,-56.5"/>
<text text-anchor="middle" x="2230.5" y="-63.5" font-family="FreeSans" font-size="10.00">array</text>
</a>
</g>
</g>
<!-- Node36&#45;&gt;Node38 -->
<g id="edge64" class="edge">
<title>Node36&#45;&gt;Node38</title>
<path fill="none" stroke="midnightblue" d="M2144.89,-112.32C2161.17,-103.7 2186.37,-90.36 2205.22,-80.39"/>
<polygon fill="midnightblue" stroke="midnightblue" points="2206.95,-83.43 2214.15,-75.65 2203.68,-77.24 2206.95,-83.43"/>
</g>
<!-- Node39 -->
<g id="node39" class="node">
<title>Node39</title>
<g id="a_node39"><a xlink:href="Color_8ih_source.html" target="_top" xlink:title=" ">
<polygon fill="white" stroke="black" points="2269.5,-56.5 2269.5,-75.5 2365.5,-75.5 2365.5,-56.5 2269.5,-56.5"/>
<text text-anchor="middle" x="2317.5" y="-63.5" font-family="FreeSans" font-size="10.00">DGtal/io/Color.ih</text>
</a>
</g>
</g>
<!-- Node36&#45;&gt;Node39 -->
<g id="edge65" class="edge">
<title>Node36&#45;&gt;Node39</title>
<path fill="none" stroke="midnightblue" d="M2158.45,-112.44C2190.66,-103.24 2242.03,-88.56 2277.64,-78.39"/>
<polygon fill="midnightblue" stroke="midnightblue" points="2279.04,-81.63 2287.69,-75.52 2277.12,-74.9 2279.04,-81.63"/>
</g>
<!-- Node40&#45;&gt;Node4 -->
<g id="edge68" class="edge">
<title>Node40&#45;&gt;Node4</title>
<path fill="none" stroke="midnightblue" d="M1773.64,-112.49C1728.79,-105.53 1668.53,-93.88 1617.5,-76 1599.12,-69.56 1597,-62.09 1578.5,-56 1497.72,-29.41 1398.22,-18.12 1343.79,-13.65"/>
<polygon fill="midnightblue" stroke="midnightblue" points="1343.77,-10.14 1333.52,-12.85 1343.22,-17.12 1343.77,-10.14"/>
</g>
<!-- Node41 -->
<g id="node41" class="node">
<title>Node41</title>
<g id="a_node41"><a xlink:title=" ">
<polygon fill="white" stroke="#bfbfbf" points="1627,-56.5 1627,-75.5 1734,-75.5 1734,-56.5 1627,-56.5"/>
<text text-anchor="middle" x="1680.5" y="-63.5" font-family="FreeSans" font-size="10.00">boost/function.hpp</text>
</a>
</g>
</g>
<!-- Node40&#45;&gt;Node41 -->
<g id="edge69" class="edge">
<title>Node40&#45;&gt;Node41</title>
<path fill="none" stroke="midnightblue" d="M1814.31,-112.44C1787.56,-103.36 1745.1,-88.94 1715.19,-78.78"/>
<polygon fill="midnightblue" stroke="midnightblue" points="1716.17,-75.42 1705.58,-75.52 1713.92,-82.05 1716.17,-75.42"/>
</g>
<!-- Node42 -->
<g id="node42" class="node">
<title>Node42</title>
<g id="a_node42"><a xlink:href="BasicBoolFunctors_8ih_source.html" target="_top" xlink:title=" ">
<polygon fill="white" stroke="black" points="1752,-56.5 1752,-75.5 1927,-75.5 1927,-56.5 1752,-56.5"/>
<text text-anchor="middle" x="1839.5" y="-63.5" font-family="FreeSans" font-size="10.00">DGtal/base/BasicBoolFunctors.ih</text>
</a>
</g>
</g>
<!-- Node40&#45;&gt;Node42 -->
<g id="edge70" class="edge">
<title>Node40&#45;&gt;Node42</title>
<path fill="none" stroke="midnightblue" d="M1839.5,-112.08C1839.5,-105.01 1839.5,-94.86 1839.5,-85.99"/>
<polygon fill="midnightblue" stroke="midnightblue" points="1843,-85.75 1839.5,-75.75 1836,-85.75 1843,-85.75"/>
</g>
<!-- Node43&#45;&gt;Node4 -->
<g id="edge72" class="edge">
<title>Node43&#45;&gt;Node4</title>
<path fill="none" stroke="midnightblue" d="M1369.93,-112.33C1362.36,-103.47 1350.56,-89.19 1341.5,-76 1330.88,-60.55 1320.23,-42 1312.92,-28.69"/>
<polygon fill="midnightblue" stroke="midnightblue" points="1315.87,-26.79 1308.04,-19.66 1309.72,-30.12 1315.87,-26.79"/>
</g>
<!-- Node44&#45;&gt;Node4 -->
<g id="edge74" class="edge">
<title>Node44&#45;&gt;Node4</title>
<path fill="none" stroke="midnightblue" d="M2395.44,-173.75C2400.01,-150.47 2408.7,-86.72 2374.5,-56 2335.48,-20.95 1534.29,-12.73 1343.86,-11.27"/>
<polygon fill="midnightblue" stroke="midnightblue" points="1343.74,-7.77 1333.72,-11.2 1343.69,-14.77 1343.74,-7.77"/>
</g>
</g>
</svg>
        <g id="navigator" transform="translate(0 0)" fill="#404254">
                <rect fill="#f2f5e9" fill-opacity="0.5" stroke="#606060" stroke-width=".5" x="0" y="0" width="60" height="60"/>
                <use id="zoomplus" xlink:href="#zoomPlus" x="17" y="9" onmousedown="handleZoom(evt,'in')"/>
                <use id="zoomminus" xlink:href="#zoomMin" x="42" y="9" onmousedown="handleZoom(evt,'out')"/>
                <use id="reset" xlink:href="#resetDef" x="30" y="36" onmousedown="handleReset()"/>
                <g id="arrowUp" xlink:href="#dirArrow" transform="translate(30 24)" onmousedown="handlePan(0,-1)">
                  <use xlink:href="#rim" fill="#404040">
                        <set attributeName="fill" to="#808080" begin="arrowUp.mouseover" end="arrowUp.mouseout"/>
                  </use>
                  <path fill="none" stroke="white" stroke-width="1.5" d="M0,-3.0v7 M-2.5,-0.5L0,-3.0L2.5,-0.5"/>
                </g>
                <g id="arrowRight" xlink:href="#dirArrow" transform="rotate(90) translate(36 -43)" onmousedown="handlePan(1,0)">
                  <use xlink:href="#rim" fill="#404040">
                        <set attributeName="fill" to="#808080" begin="arrowRight.mouseover" end="arrowRight.mouseout"/>
                  </use>
                  <path fill="none" stroke="white" stroke-width="1.5" d="M0,-3.0v7 M-2.5,-0.5L0,-3.0L2.5,-0.5"/>
                </g>
                <g id="arrowDown" xlink:href="#dirArrow" transform="rotate(180) translate(-30 -48)" onmousedown="handlePan(0,1)">
                  <use xlink:href="#rim" fill="#404040">
                        <set attributeName="fill" to="#808080" begin="arrowDown.mouseover" end="arrowDown.mouseout"/>
                  </use>
                  <path fill="none" stroke="white" stroke-width="1.5" d="M0,-3.0v7 M-2.5,-0.5L0,-3.0L2.5,-0.5"/>
                </g>
                <g id="arrowLeft" xlink:href="#dirArrow" transform="rotate(270) translate(-36 17)" onmousedown="handlePan(-1,0)">
                  <use xlink:href="#rim" fill="#404040">
                        <set attributeName="fill" to="#808080" begin="arrowLeft.mouseover" end="arrowLeft.mouseout"/>
                  </use>
                  <path fill="none" stroke="white" stroke-width="1.5" d="M0,-3.0v7 M-2.5,-0.5L0,-3.0L2.5,-0.5"/>
                </g>
        </g>
        <svg viewBox="0 0 15 15" width="100%" height="30px" preserveAspectRatio="xMaxYMin meet">
         <g id="arrow_out" transform="scale(0.3 0.3)">
          <a xlink:href="testClock_8cpp__incl_org.svg" target="_base">
           <rect id="button" ry="5" rx="5" y="6" x="6" height="38" width="38"
                fill="#f2f5e9" fill-opacity="0.5" stroke="#606060" stroke-width="1.0"/>
           <path id="arrow"
             d="M 11.500037,31.436501 C 11.940474,20.09759 22.043105,11.32322 32.158766,21.979434 L 37.068811,17.246167 C 37.068811,17.246167 37.088388,32 37.088388,32 L 22.160133,31.978069 C 22.160133,31.978069 26.997745,27.140456 26.997745,27.140456 C 18.528582,18.264221 13.291696,25.230495 11.500037,31.436501 z"
             style="fill:#404040;"/>
          </a>
         </g>
        </svg>
</svg>
