<?xml version="1.0" encoding="UTF-8" standalone="no"?>
<!DOCTYPE svg PUBLIC "-//W3C//DTD SVG 1.1//EN"
 "http://www.w3.org/Graphics/SVG/1.1/DTD/svg11.dtd">
<!-- Generated by graphviz version 2.43.0 (0)
 -->
<!-- Title: DGtal::functors::ForwardRigidTransformation2D&lt; TSpace, TInputValue, TOutputValue, TFunctor &gt; Pages: 1 -->
<svg width="506pt" height="132pt"
 viewBox="0.00 0.00 506.00 132.00" xmlns="http://www.w3.org/2000/svg" xmlns:xlink="http://www.w3.org/1999/xlink">
<g id="graph0" class="graph" transform="scale(1 1) rotate(0) translate(4 128)">
<title>DGtal::functors::ForwardRigidTransformation2D&lt; TSpace, TInputValue, TOutputValue, TFunctor &gt;</title>
<polygon fill="white" stroke="transparent" points="-4,4 -4,-128 502,-128 502,4 -4,4"/>
<!-- Node1 -->
<g id="node1" class="node">
<title>Node1</title>
<g id="a_node1"><a xlink:title="Aim: implements forward rigid transformation of point in the 2D integer space. Warring: This version ...">
<polygon fill="#bfbfbf" stroke="black" points="0,-41 0,-93 145,-93 145,-41 0,-41"/>
<text text-anchor="start" x="8" y="-81" font-family="FreeSans" font-size="10.00">DGtal::functors::Forward</text>
<text text-anchor="start" x="8" y="-70" font-family="FreeSans" font-size="10.00">RigidTransformation2D</text>
<text text-anchor="start" x="8" y="-59" font-family="FreeSans" font-size="10.00">&lt; TSpace, TInputValue,</text>
<text text-anchor="middle" x="72.5" y="-48" font-family="FreeSans" font-size="10.00"> TOutputValue, TFunctor &gt;</text>
</a>
</g>
</g>
<!-- Node2 -->
<g id="node2" class="node">
<title>Node2</title>
<g id="a_node2"><a xlink:href="classDGtal_1_1functors_1_1ForwardRigidTransformation2D.html" target="_top" xlink:title=" ">
<polygon fill="white" stroke="black" points="345.5,-82.5 345.5,-123.5 480.5,-123.5 480.5,-82.5 345.5,-82.5"/>
<text text-anchor="start" x="353.5" y="-111.5" font-family="FreeSans" font-size="10.00">DGtal::functors::Forward</text>
<text text-anchor="start" x="353.5" y="-100.5" font-family="FreeSans" font-size="10.00">RigidTransformation2D</text>
<text text-anchor="middle" x="413" y="-89.5" font-family="FreeSans" font-size="10.00">&lt; Space &gt;</text>
</a>
</g>
</g>
<!-- Node1&#45;&gt;Node2 -->
<g id="edge1" class="edge">
<title>Node1&#45;&gt;Node2</title>
<path fill="none" stroke="orange" stroke-dasharray="5,2" d="M155.32,-80.03C157.91,-80.37 160.47,-80.69 163,-81 224.6,-88.53 295.08,-94.51 345.29,-98.33"/>
<polygon fill="orange" stroke="orange" points="155.63,-76.54 145.25,-78.66 154.69,-83.47 155.63,-76.54"/>
<text text-anchor="middle" x="236.5" y="-98" font-family="FreeSans" font-size="10.00"> &lt; Space &gt;</text>
</g>
<!-- Node3 -->
<g id="node3" class="node">
<title>Node3</title>
<g id="a_node3"><a xlink:href="classDGtal_1_1functors_1_1ForwardRigidTransformation2D.html" target="_top" xlink:title=" ">
<polygon fill="white" stroke="black" points="328,-0.5 328,-63.5 498,-63.5 498,-0.5 328,-0.5"/>
<text text-anchor="start" x="336" y="-51.5" font-family="FreeSans" font-size="10.00">DGtal::functors::Forward</text>
<text text-anchor="start" x="336" y="-40.5" font-family="FreeSans" font-size="10.00">RigidTransformation2D</text>
<text text-anchor="start" x="336" y="-29.5" font-family="FreeSans" font-size="10.00">&lt; TSpace, typename TSpace</text>
<text text-anchor="start" x="336" y="-18.5" font-family="FreeSans" font-size="10.00">::RealPoint, typename TSpace</text>
<text text-anchor="middle" x="413" y="-7.5" font-family="FreeSans" font-size="10.00">::RealPoint, functors::Identity &gt;</text>
</a>
</g>
</g>
<!-- Node1&#45;&gt;Node3 -->
<g id="edge2" class="edge">
<title>Node1&#45;&gt;Node3</title>
<path fill="none" stroke="orange" stroke-dasharray="5,2" d="M154.81,-38.6C157.56,-38.01 160.29,-37.47 163,-37 217.32,-27.58 279.29,-26.3 327.83,-27.39"/>
<polygon fill="orange" stroke="orange" points="153.73,-35.26 144.82,-40.97 155.35,-42.07 153.73,-35.26"/>
<text text-anchor="start" x="163" y="-73" font-family="FreeSans" font-size="10.00"> &lt; TSpace, typename</text>
<text text-anchor="start" x="163" y="-62" font-family="FreeSans" font-size="10.00"> TSpace::RealPoint,</text>
<text text-anchor="start" x="163" y="-51" font-family="FreeSans" font-size="10.00"> typename TSpace::RealPoint,</text>
<text text-anchor="middle" x="236.5" y="-40" font-family="FreeSans" font-size="10.00"> functors::Identity &gt;</text>
</g>
</g>
</svg>
