<?xml version="1.0" encoding="UTF-8" standalone="no"?>
<!DOCTYPE svg PUBLIC "-//W3C//DTD SVG 1.1//EN"
 "http://www.w3.org/Graphics/SVG/1.1/DTD/svg11.dtd">
<!-- Generated by graphviz version 2.43.0 (0)
 -->
<!-- Title: DGtal::LambdaMST3DBy2D&lt; Iterator3D, LambdaFunctor, CONNECTIVITY &gt; Pages: 1 -->
<svg width="832pt" height="62pt"
 viewBox="0.00 0.00 832.00 62.00" xmlns="http://www.w3.org/2000/svg" xmlns:xlink="http://www.w3.org/1999/xlink">
<g id="graph0" class="graph" transform="scale(1 1) rotate(0) translate(4 58)">
<title>DGtal::LambdaMST3DBy2D&lt; Iterator3D, LambdaFunctor, CONNECTIVITY &gt;</title>
<polygon fill="white" stroke="transparent" points="-4,4 -4,-58 828,-58 828,4 -4,4"/>
<!-- Node1 -->
<g id="node1" class="node">
<title>Node1</title>
<g id="a_node1"><a xlink:title="Aim: Simplify creation of Lambda MST tangent estimator.">
<polygon fill="#bfbfbf" stroke="black" points="663,-0.5 663,-41.5 824,-41.5 824,-0.5 663,-0.5"/>
<text text-anchor="start" x="671" y="-29.5" font-family="FreeSans" font-size="10.00">DGtal::LambdaMST3DBy2D</text>
<text text-anchor="start" x="671" y="-18.5" font-family="FreeSans" font-size="10.00">&lt; Iterator3D, LambdaFunctor,</text>
<text text-anchor="middle" x="743.5" y="-7.5" font-family="FreeSans" font-size="10.00"> CONNECTIVITY &gt;</text>
</a>
</g>
</g>
<!-- Node2 -->
<g id="node2" class="node">
<title>Node2</title>
<g id="a_node2"><a xlink:href="classDGtal_1_1LambdaMST3DBy2DEstimator.html" target="_top" xlink:title=" ">
<polygon fill="white" stroke="black" points="381,-0.5 381,-41.5 626,-41.5 626,-0.5 381,-0.5"/>
<text text-anchor="start" x="389" y="-29.5" font-family="FreeSans" font-size="10.00">DGtal::LambdaMST3DBy2DEstimator</text>
<text text-anchor="start" x="389" y="-18.5" font-family="FreeSans" font-size="10.00">&lt; Iterator3D, TangentFromDSS3DBy2DFunctor,</text>
<text text-anchor="middle" x="503.5" y="-7.5" font-family="FreeSans" font-size="10.00"> functors::Lambda64Function, 8 &gt;</text>
</a>
</g>
</g>
<!-- Node2&#45;&gt;Node1 -->
<g id="edge1" class="edge">
<title>Node2&#45;&gt;Node1</title>
<path fill="none" stroke="midnightblue" d="M636.4,-21C645.33,-21 654.16,-21 662.69,-21"/>
<polygon fill="midnightblue" stroke="midnightblue" points="636.29,-17.5 626.29,-21 636.29,-24.5 636.29,-17.5"/>
</g>
<!-- Node3 -->
<g id="node3" class="node">
<title>Node3</title>
<g id="a_node3"><a xlink:href="classDGtal_1_1LambdaMST3DBy2DEstimator.html" target="_top" xlink:title=" ">
<polygon fill="white" stroke="black" points="0,-0.5 0,-41.5 203,-41.5 203,-0.5 0,-0.5"/>
<text text-anchor="start" x="8" y="-29.5" font-family="FreeSans" font-size="10.00">DGtal::LambdaMST3DBy2DEstimator</text>
<text text-anchor="start" x="8" y="-18.5" font-family="FreeSans" font-size="10.00">&lt; Iterator3D, Functor, LambdaFunctor,</text>
<text text-anchor="middle" x="101.5" y="-7.5" font-family="FreeSans" font-size="10.00"> CONNECTIVITY &gt;</text>
</a>
</g>
</g>
<!-- Node3&#45;&gt;Node2 -->
<g id="edge2" class="edge">
<title>Node3&#45;&gt;Node2</title>
<path fill="none" stroke="orange" stroke-dasharray="5,2" d="M213.43,-21C265.42,-21 327.49,-21 380.76,-21"/>
<polygon fill="orange" stroke="orange" points="213.18,-17.5 203.18,-21 213.18,-24.5 213.18,-17.5"/>
<text text-anchor="start" x="221" y="-46" font-family="FreeSans" font-size="10.00"> &lt; Iterator3D, TangentFrom</text>
<text text-anchor="start" x="221" y="-35" font-family="FreeSans" font-size="10.00">DSS3DBy2DFunctor, functors</text>
<text text-anchor="middle" x="292" y="-24" font-family="FreeSans" font-size="10.00">::Lambda64Function, 8 &gt;</text>
</g>
</g>
</svg>
