<?xml version="1.0" encoding="UTF-8" standalone="no"?>
<!DOCTYPE svg PUBLIC "-//W3C//DTD SVG 1.1//EN"
 "http://www.w3.org/Graphics/SVG/1.1/DTD/svg11.dtd">
<!-- Generated by graphviz version 2.43.0 (0)
 -->
<!-- Title: Graphical Class Hierarchy Pages: 1 -->
<svg width="303pt" height="50pt"
 viewBox="0.00 0.00 303.00 50.00" xmlns="http://www.w3.org/2000/svg" xmlns:xlink="http://www.w3.org/1999/xlink">
<g id="graph0" class="graph" transform="scale(1 1) rotate(0) translate(4 46)">
<title>Graphical Class Hierarchy</title>
<polygon fill="white" stroke="transparent" points="-4,4 -4,-46 299,-46 299,4 -4,4"/>
<!-- Node485 -->
<g id="node1" class="node">
<title>Node485</title>
<g id="a_node1"><a xlink:title=" ">
<polygon fill="white" stroke="#bfbfbf" points="0,-11.5 0,-30.5 96,-30.5 96,-11.5 0,-11.5"/>
<text text-anchor="middle" x="48" y="-18.5" font-family="FreeSans" font-size="10.00">std::deque&lt; T &gt;</text>
</a>
</g>
</g>
<!-- Node0 -->
<g id="node2" class="node">
<title>Node0</title>
<g id="a_node2"><a xlink:href="structDGtal_1_1KhalimskyPreSpaceND_1_1AnyCellCollection.html" target="_top" xlink:title=" ">
<polygon fill="white" stroke="black" points="132,-0.5 132,-41.5 295,-41.5 295,-0.5 132,-0.5"/>
<text text-anchor="start" x="140" y="-29.5" font-family="FreeSans" font-size="10.00">DGtal::KhalimskyPreSpace</text>
<text text-anchor="start" x="140" y="-18.5" font-family="FreeSans" font-size="10.00">ND&lt; dim, TInteger &gt;::AnyCell</text>
<text text-anchor="middle" x="213.5" y="-7.5" font-family="FreeSans" font-size="10.00">Collection&lt; CellType &gt;</text>
</a>
</g>
</g>
<!-- Node485&#45;&gt;Node0 -->
<g id="edge1" class="edge">
<title>Node485&#45;&gt;Node0</title>
<path fill="none" stroke="midnightblue" d="M106.45,-21C114.64,-21 123.2,-21 131.73,-21"/>
<polygon fill="midnightblue" stroke="midnightblue" points="106.29,-17.5 96.29,-21 106.29,-24.5 106.29,-17.5"/>
</g>
</g>
</svg>
