<?xml version="1.0" encoding="UTF-8" standalone="no"?>
<!DOCTYPE svg PUBLIC "-//W3C//DTD SVG 1.1//EN"
 "http://www.w3.org/Graphics/SVG/1.1/DTD/svg11.dtd">
<!-- Generated by graphviz version 2.43.0 (0)
 -->
<!-- Title: Graphical Class Hierarchy Pages: 1 -->
<svg width="436pt" height="209pt"
 viewBox="0.00 0.00 436.00 208.50" xmlns="http://www.w3.org/2000/svg" xmlns:xlink="http://www.w3.org/1999/xlink">
<g id="graph0" class="graph" transform="scale(1 1) rotate(0) translate(4 204.5)">
<title>Graphical Class Hierarchy</title>
<polygon fill="white" stroke="transparent" points="-4,4 -4,-204.5 432,-204.5 432,4 -4,4"/>
<!-- Node0 -->
<g id="node1" class="node">
<title>Node0</title>
<g id="a_node1"><a xlink:href="structDGtal_1_1Policy.html" target="_top" xlink:title=" ">
<polygon fill="white" stroke="black" points="0,-93 0,-123 171,-123 171,-93 0,-93"/>
<text text-anchor="start" x="8" y="-111" font-family="FreeSans" font-size="10.00">DGtal::Policy&lt; TSpace,</text>
<text text-anchor="middle" x="85.5" y="-100" font-family="FreeSans" font-size="10.00"> TDomain, TBijectiveRotation &gt;</text>
</a>
</g>
</g>
<!-- Node1 -->
<g id="node2" class="node">
<title>Node1</title>
<g id="a_node2"><a xlink:href="structDGtal_1_1L2.html" target="_top" xlink:title=" ">
<polygon fill="white" stroke="black" points="232,-170 232,-200 403,-200 403,-170 232,-170"/>
<text text-anchor="start" x="240" y="-188" font-family="FreeSans" font-size="10.00">DGtal::L2&lt; TSpace,</text>
<text text-anchor="middle" x="317.5" y="-177" font-family="FreeSans" font-size="10.00"> TDomain, TBijectiveRotation &gt;</text>
</a>
</g>
</g>
<!-- Node0&#45;&gt;Node1 -->
<g id="edge1" class="edge">
<title>Node0&#45;&gt;Node1</title>
<path fill="none" stroke="midnightblue" d="M125.72,-127.62C148.91,-138.62 179.12,-151.91 207,-161 217.18,-164.32 228.04,-167.32 238.81,-169.98"/>
<polygon fill="midnightblue" stroke="midnightblue" points="127.08,-124.39 116.55,-123.22 124.05,-130.7 127.08,-124.39"/>
</g>
<!-- Node2 -->
<g id="node3" class="node">
<title>Node2</title>
<g id="a_node3"><a xlink:href="structDGtal_1_1LcontinuityPolicy.html" target="_top" xlink:title=" ">
<polygon fill="white" stroke="black" points="207,-121 207,-151 428,-151 428,-121 207,-121"/>
<text text-anchor="start" x="215" y="-139" font-family="FreeSans" font-size="10.00">DGtal::LcontinuityPolicy</text>
<text text-anchor="middle" x="317.5" y="-128" font-family="FreeSans" font-size="10.00">&lt; TSpace, TDomain, TBijectiveRotation &gt;</text>
</a>
</g>
</g>
<!-- Node0&#45;&gt;Node2 -->
<g id="edge2" class="edge">
<title>Node0&#45;&gt;Node2</title>
<path fill="none" stroke="midnightblue" d="M181.09,-119.52C189.62,-120.55 198.31,-121.61 206.95,-122.66"/>
<polygon fill="midnightblue" stroke="midnightblue" points="181.51,-116.04 171.16,-118.31 180.67,-122.99 181.51,-116.04"/>
</g>
<!-- Node3 -->
<g id="node4" class="node">
<title>Node3</title>
<g id="a_node4"><a xlink:href="structDGtal_1_1LinfPolicy.html" target="_top" xlink:title=" ">
<polygon fill="white" stroke="black" points="237.5,-60.5 237.5,-101.5 397.5,-101.5 397.5,-60.5 237.5,-60.5"/>
<text text-anchor="start" x="245.5" y="-89.5" font-family="FreeSans" font-size="10.00">DGtal::LinfPolicy&lt;</text>
<text text-anchor="start" x="245.5" y="-78.5" font-family="FreeSans" font-size="10.00"> TSpace, TDomain, TBijective</text>
<text text-anchor="middle" x="317.5" y="-67.5" font-family="FreeSans" font-size="10.00">Rotation &gt;</text>
</a>
</g>
</g>
<!-- Node0&#45;&gt;Node3 -->
<g id="edge3" class="edge">
<title>Node0&#45;&gt;Node3</title>
<path fill="none" stroke="midnightblue" d="M181.15,-96.89C199.83,-94.7 219.26,-92.42 237.36,-90.29"/>
<polygon fill="midnightblue" stroke="midnightblue" points="180.69,-93.42 171.16,-98.06 181.5,-100.37 180.69,-93.42"/>
</g>
<!-- Node4 -->
<g id="node5" class="node">
<title>Node4</title>
<g id="a_node5"><a xlink:href="structDGtal_1_1MixedPolicy.html" target="_top" xlink:title=" ">
<polygon fill="white" stroke="black" points="233.5,-0.5 233.5,-41.5 401.5,-41.5 401.5,-0.5 233.5,-0.5"/>
<text text-anchor="start" x="241.5" y="-29.5" font-family="FreeSans" font-size="10.00">DGtal::MixedPolicy</text>
<text text-anchor="start" x="241.5" y="-18.5" font-family="FreeSans" font-size="10.00">&lt; TSpace, TDomain, TBijective</text>
<text text-anchor="middle" x="317.5" y="-7.5" font-family="FreeSans" font-size="10.00">Rotation &gt;</text>
</a>
</g>
</g>
<!-- Node0&#45;&gt;Node4 -->
<g id="edge4" class="edge">
<title>Node0&#45;&gt;Node4</title>
<path fill="none" stroke="midnightblue" d="M123.54,-88.42C147.01,-76.53 178.26,-61.64 207,-51 216.06,-47.65 225.66,-44.48 235.27,-41.55"/>
<polygon fill="midnightblue" stroke="midnightblue" points="121.93,-85.3 114.63,-92.98 125.12,-91.54 121.93,-85.3"/>
</g>
</g>
</svg>
