<?xml version="1.0" encoding="UTF-8" standalone="no"?>
<!DOCTYPE svg PUBLIC "-//W3C//DTD SVG 1.1//EN"
 "http://www.w3.org/Graphics/SVG/1.1/DTD/svg11.dtd">
<!-- Generated by graphviz version 2.43.0 (0)
 -->
<!-- Title: Graphical Class Hierarchy Pages: 1 -->
<svg width="300pt" height="39pt"
 viewBox="0.00 0.00 300.00 39.00" xmlns="http://www.w3.org/2000/svg" xmlns:xlink="http://www.w3.org/1999/xlink">
<g id="graph0" class="graph" transform="scale(1 1) rotate(0) translate(4 35)">
<title>Graphical Class Hierarchy</title>
<polygon fill="white" stroke="transparent" points="-4,4 -4,-35 296,-35 296,4 -4,4"/>
<!-- Node723 -->
<g id="node1" class="node">
<title>Node723</title>
<g id="a_node1"><a xlink:title=" ">
<polygon fill="white" stroke="#bfbfbf" points="0,-0.5 0,-30.5 95,-30.5 95,-0.5 0,-0.5"/>
<text text-anchor="start" x="8" y="-18.5" font-family="FreeSans" font-size="10.00">boost::spirit::qi::</text>
<text text-anchor="middle" x="47.5" y="-7.5" font-family="FreeSans" font-size="10.00">grammar</text>
</a>
</g>
</g>
<!-- Node0 -->
<g id="node2" class="node">
<title>Node0</title>
<g id="a_node2"><a xlink:href="structDGtal_1_1MPolynomialGrammar.html" target="_top" xlink:title=" ">
<polygon fill="white" stroke="black" points="131,-0.5 131,-30.5 292,-30.5 292,-0.5 131,-0.5"/>
<text text-anchor="start" x="139" y="-18.5" font-family="FreeSans" font-size="10.00">DGtal::MPolynomialGrammar</text>
<text text-anchor="middle" x="211.5" y="-7.5" font-family="FreeSans" font-size="10.00">&lt; Iterator &gt;</text>
</a>
</g>
</g>
<!-- Node723&#45;&gt;Node0 -->
<g id="edge1" class="edge">
<title>Node723&#45;&gt;Node0</title>
<path fill="none" stroke="midnightblue" d="M105.51,-15.5C113.7,-15.5 122.25,-15.5 130.78,-15.5"/>
<polygon fill="midnightblue" stroke="midnightblue" points="105.36,-12 95.36,-15.5 105.36,-19 105.36,-12"/>
</g>
</g>
</svg>
