<?xml version="1.0" encoding="UTF-8" standalone="no"?>
<!DOCTYPE svg PUBLIC "-//W3C//DTD SVG 1.1//EN"
 "http://www.w3.org/Graphics/SVG/1.1/DTD/svg11.dtd">
<!-- Generated by graphviz version 2.43.0 (0)
 -->
<!-- Title: Graphical Class Hierarchy Pages: 1 -->
<svg width="308pt" height="50pt"
 viewBox="0.00 0.00 308.00 50.00" xmlns="http://www.w3.org/2000/svg" xmlns:xlink="http://www.w3.org/1999/xlink">
<g id="graph0" class="graph" transform="scale(1 1) rotate(0) translate(4 46)">
<title>Graphical Class Hierarchy</title>
<polygon fill="white" stroke="transparent" points="-4,4 -4,-46 304,-46 304,4 -4,4"/>
<!-- Node1459 -->
<g id="node1" class="node">
<title>Node1459</title>
<g id="a_node1"><a xlink:title=" ">
<polygon fill="white" stroke="#bfbfbf" points="0,-11.5 0,-30.5 139,-30.5 139,-11.5 0,-11.5"/>
<text text-anchor="middle" x="69.5" y="-18.5" font-family="FreeSans" font-size="10.00">boost::transform_iterator</text>
</a>
</g>
</g>
<!-- Node0 -->
<g id="node2" class="node">
<title>Node0</title>
<g id="a_node2"><a xlink:href="classDGtal_1_1IteratorAdapter.html" target="_top" xlink:title="This class adapts any lvalue iterator so that operator* returns a member on the element pointed to by...">
<polygon fill="white" stroke="black" points="175,-0.5 175,-41.5 300,-41.5 300,-0.5 175,-0.5"/>
<text text-anchor="start" x="183" y="-29.5" font-family="FreeSans" font-size="10.00">DGtal::IteratorAdapter</text>
<text text-anchor="start" x="183" y="-18.5" font-family="FreeSans" font-size="10.00">&lt; TIterator, TFunctor,</text>
<text text-anchor="middle" x="237.5" y="-7.5" font-family="FreeSans" font-size="10.00"> TReturnType &gt;</text>
</a>
</g>
</g>
<!-- Node1459&#45;&gt;Node0 -->
<g id="edge1" class="edge">
<title>Node1459&#45;&gt;Node0</title>
<path fill="none" stroke="midnightblue" d="M149.73,-21C158.19,-21 166.7,-21 174.91,-21"/>
<polygon fill="midnightblue" stroke="midnightblue" points="149.46,-17.5 139.46,-21 149.46,-24.5 149.46,-17.5"/>
</g>
</g>
</svg>
