<?xml version="1.0" encoding="UTF-8" standalone="no"?>
<!DOCTYPE svg PUBLIC "-//W3C//DTD SVG 1.1//EN"
 "http://www.w3.org/Graphics/SVG/1.1/DTD/svg11.dtd">
<!-- Generated by graphviz version 2.43.0 (0)
 -->
<!-- Title: Graphical Class Hierarchy Pages: 1 -->
<svg width="297pt" height="78pt"
 viewBox="0.00 0.00 297.00 77.50" xmlns="http://www.w3.org/2000/svg" xmlns:xlink="http://www.w3.org/1999/xlink">
<g id="graph0" class="graph" transform="scale(1 1) rotate(0) translate(4 73.5)">
<title>Graphical Class Hierarchy</title>
<polygon fill="white" stroke="transparent" points="-4,4 -4,-73.5 293,-73.5 293,4 -4,4"/>
<!-- Node653 -->
<g id="node1" class="node">
<title>Node653</title>
<g id="a_node1"><a xlink:title=" ">
<polygon fill="white" stroke="#bfbfbf" points="0,-28 0,-47 89,-47 89,-28 0,-28"/>
<text text-anchor="middle" x="44.5" y="-35" font-family="FreeSans" font-size="10.00">std::false_type</text>
</a>
</g>
</g>
<!-- Node0 -->
<g id="node2" class="node">
<title>Node0</title>
<g id="a_node2"><a xlink:href="structDGtal_1_1IsAPointVector.html" target="_top" xlink:title="Type trait to check if a given type is a PointVector.">
<polygon fill="white" stroke="black" points="132.5,-50 132.5,-69 281.5,-69 281.5,-50 132.5,-50"/>
<text text-anchor="middle" x="207" y="-57" font-family="FreeSans" font-size="10.00">DGtal::IsAPointVector&lt; T &gt;</text>
</a>
</g>
</g>
<!-- Node653&#45;&gt;Node0 -->
<g id="edge1" class="edge">
<title>Node653&#45;&gt;Node0</title>
<path fill="none" stroke="midnightblue" d="M99.54,-44.91C111.42,-46.54 124.16,-48.28 136.55,-49.98"/>
<polygon fill="midnightblue" stroke="midnightblue" points="99.74,-41.4 89.36,-43.51 98.79,-48.34 99.74,-41.4"/>
</g>
<!-- Node655 -->
<g id="node3" class="node">
<title>Node655</title>
<g id="a_node3"><a xlink:href="structDGtal_1_1IsArithmeticConversionValid.html" target="_top" xlink:title="Helper to determine if an arithmetic operation between two given types has a valid result type (ie is...">
<polygon fill="white" stroke="black" points="125,-0.5 125,-30.5 289,-30.5 289,-0.5 125,-0.5"/>
<text text-anchor="start" x="133" y="-18.5" font-family="FreeSans" font-size="10.00">DGtal::IsArithmeticConversion</text>
<text text-anchor="middle" x="207" y="-7.5" font-family="FreeSans" font-size="10.00">Valid&lt; T, U, Enable &gt;</text>
</a>
</g>
</g>
<!-- Node653&#45;&gt;Node655 -->
<g id="edge2" class="edge">
<title>Node653&#45;&gt;Node655</title>
<path fill="none" stroke="midnightblue" d="M99.47,-30.1C107.66,-28.98 116.25,-27.8 124.85,-26.62"/>
<polygon fill="midnightblue" stroke="midnightblue" points="98.79,-26.66 89.36,-31.49 99.74,-33.6 98.79,-26.66"/>
</g>
</g>
</svg>
