<?xml version="1.0" encoding="UTF-8" standalone="no"?>
<!DOCTYPE svg PUBLIC "-//W3C//DTD SVG 1.1//EN"
 "http://www.w3.org/Graphics/SVG/1.1/DTD/svg11.dtd">
<!-- Generated by graphviz version 2.43.0 (0)
 -->
<!-- Title: Graphical Class Hierarchy Pages: 1 -->
<svg width="382pt" height="78pt"
 viewBox="0.00 0.00 382.00 77.50" xmlns="http://www.w3.org/2000/svg" xmlns:xlink="http://www.w3.org/1999/xlink">
<g id="graph0" class="graph" transform="scale(1 1) rotate(0) translate(4 73.5)">
<title>Graphical Class Hierarchy</title>
<polygon fill="white" stroke="transparent" points="-4,4 -4,-73.5 378,-73.5 378,4 -4,4"/>
<!-- Node668 -->
<g id="node1" class="node">
<title>Node668</title>
<g id="a_node1"><a xlink:title=" ">
<polygon fill="white" stroke="#bfbfbf" points="0,-17 0,-47 128,-47 128,-17 0,-17"/>
<text text-anchor="start" x="8" y="-35" font-family="FreeSans" font-size="10.00">boost::forward_iterator</text>
<text text-anchor="middle" x="64" y="-24" font-family="FreeSans" font-size="10.00">_archetype</text>
</a>
</g>
</g>
<!-- Node0 -->
<g id="node2" class="node">
<title>Node0</title>
<g id="a_node2"><a xlink:href="structDGtal_1_1CForwardIteratorArchetype.html" target="_top" xlink:title=" ">
<polygon fill="white" stroke="black" points="178,-39 178,-69 360,-69 360,-39 178,-39"/>
<text text-anchor="start" x="186" y="-57" font-family="FreeSans" font-size="10.00">DGtal::CForwardIteratorArchetype</text>
<text text-anchor="middle" x="269" y="-46" font-family="FreeSans" font-size="10.00">&lt; Point &gt;</text>
</a>
</g>
</g>
<!-- Node668&#45;&gt;Node0 -->
<g id="edge1" class="edge">
<title>Node668&#45;&gt;Node0</title>
<path fill="none" stroke="midnightblue" d="M138.24,-39.94C151.05,-41.33 164.51,-42.78 177.72,-44.22"/>
<polygon fill="midnightblue" stroke="midnightblue" points="138.44,-36.44 128.12,-38.84 137.68,-43.4 138.44,-36.44"/>
</g>
<!-- Node670 -->
<g id="node3" class="node">
<title>Node670</title>
<g id="a_node3"><a xlink:href="structDGtal_1_1CForwardIteratorArchetype.html" target="_top" xlink:title="An archetype of ForwardIterator.">
<polygon fill="white" stroke="black" points="164,-0.5 164,-19.5 374,-19.5 374,-0.5 164,-0.5"/>
<text text-anchor="middle" x="269" y="-7.5" font-family="FreeSans" font-size="10.00">DGtal::CForwardIteratorArchetype&lt; T &gt;</text>
</a>
</g>
</g>
<!-- Node668&#45;&gt;Node670 -->
<g id="edge2" class="edge">
<title>Node668&#45;&gt;Node670</title>
<path fill="none" stroke="midnightblue" d="M138.37,-24.05C151.98,-22.57 166.33,-21.02 180.32,-19.5"/>
<polygon fill="midnightblue" stroke="midnightblue" points="137.68,-20.6 128.12,-25.16 138.44,-27.56 137.68,-20.6"/>
</g>
</g>
</svg>
