<?xml version="1.0" encoding="UTF-8" standalone="no"?>
<!DOCTYPE svg PUBLIC "-//W3C//DTD SVG 1.1//EN"
 "http://www.w3.org/Graphics/SVG/1.1/DTD/svg11.dtd">
<!-- Generated by graphviz version 2.43.0 (0)
 -->
<!-- Title: DGtal::CBDR_naiverotation&lt; TSpace, TInputValue, TOutputValue &gt; Pages: 1 -->
<svg width="193pt" height="150pt"
 viewBox="0.00 0.00 192.50 150.00" xmlns="http://www.w3.org/2000/svg" xmlns:xlink="http://www.w3.org/1999/xlink">
<g id="graph0" class="graph" transform="scale(1 1) rotate(0) translate(4 146)">
<title>DGtal::CBDR_naiverotation&lt; TSpace, TInputValue, TOutputValue &gt;</title>
<polygon fill="white" stroke="transparent" points="-4,4 -4,-146 188.5,-146 188.5,4 -4,4"/>
<!-- Node1 -->
<g id="node1" class="node">
<title>Node1</title>
<g id="a_node1"><a xlink:title="vec since the parameters are the vectors of digitized reflections">
<polygon fill="#bfbfbf" stroke="black" points="4,-100.5 4,-141.5 153,-141.5 153,-100.5 4,-100.5"/>
<text text-anchor="start" x="12" y="-129.5" font-family="FreeSans" font-size="10.00">DGtal::CBDR_naiverotation</text>
<text text-anchor="start" x="12" y="-118.5" font-family="FreeSans" font-size="10.00">&lt; TSpace, TInputValue,</text>
<text text-anchor="middle" x="78.5" y="-107.5" font-family="FreeSans" font-size="10.00"> TOutputValue &gt;</text>
</a>
</g>
</g>
<!-- Node2 -->
<g id="node2" class="node">
<title>Node2</title>
<g id="a_node2"><a xlink:href="structDGtal_1_1CBDR__naiverotation.html" target="_top" xlink:title=" ">
<polygon fill="white" stroke="black" points="0,-0.5 0,-41.5 157,-41.5 157,-0.5 0,-0.5"/>
<text text-anchor="start" x="8" y="-29.5" font-family="FreeSans" font-size="10.00">DGtal::CBDR_naiverotation</text>
<text text-anchor="start" x="8" y="-18.5" font-family="FreeSans" font-size="10.00">&lt; TSpace, typename TSpace</text>
<text text-anchor="middle" x="78.5" y="-7.5" font-family="FreeSans" font-size="10.00">::RealPoint &gt;</text>
</a>
</g>
</g>
<!-- Node1&#45;&gt;Node2 -->
<g id="edge1" class="edge">
<title>Node1&#45;&gt;Node2</title>
<path fill="none" stroke="orange" stroke-dasharray="5,2" d="M78.5,-89.92C78.5,-74.29 78.5,-55.61 78.5,-41.8"/>
<polygon fill="orange" stroke="orange" points="75,-90.17 78.5,-100.17 82,-90.17 75,-90.17"/>
<text text-anchor="start" x="78.5" y="-74" font-family="FreeSans" font-size="10.00"> &lt; TSpace, typename</text>
<text text-anchor="middle" x="131.5" y="-63" font-family="FreeSans" font-size="10.00"> TSpace::RealPoint &gt;</text>
</g>
</g>
</svg>
