<?xml version="1.0" encoding="UTF-8" standalone="no"?>
<!DOCTYPE svg PUBLIC "-//W3C//DTD SVG 1.1//EN"
 "http://www.w3.org/Graphics/SVG/1.1/DTD/svg11.dtd">
<!-- Generated by graphviz version 2.43.0 (0)
 -->
<!-- Title: DGtal::MultipleAssociativeCategory Pages: 1 -->
<svg width="708pt" height="186pt"
 viewBox="0.00 0.00 708.00 186.00" xmlns="http://www.w3.org/2000/svg" xmlns:xlink="http://www.w3.org/1999/xlink">
<g id="graph0" class="graph" transform="scale(1 1) rotate(0) translate(4 182)">
<title>DGtal::MultipleAssociativeCategory</title>
<polygon fill="white" stroke="transparent" points="-4,4 -4,-182 704,-182 704,4 -4,4"/>
<!-- Node1 -->
<g id="node1" class="node">
<title>Node1</title>
<g id="a_node1"><a xlink:title=" ">
<polygon fill="#bfbfbf" stroke="black" points="365,-73.5 365,-103.5 511,-103.5 511,-73.5 365,-73.5"/>
<text text-anchor="start" x="373" y="-91.5" font-family="FreeSans" font-size="10.00">DGtal::MultipleAssociative</text>
<text text-anchor="middle" x="438" y="-80.5" font-family="FreeSans" font-size="10.00">Category</text>
</a>
</g>
</g>
<!-- Node4 -->
<g id="node4" class="node">
<title>Node4</title>
<g id="a_node4"><a xlink:href="structDGtal_1_1MultimapAssociativeCategory.html" target="_top" xlink:title=" ">
<polygon fill="white" stroke="black" points="547,-147.5 547,-177.5 700,-177.5 700,-147.5 547,-147.5"/>
<text text-anchor="start" x="555" y="-165.5" font-family="FreeSans" font-size="10.00">DGtal::MultimapAssociative</text>
<text text-anchor="middle" x="623.5" y="-154.5" font-family="FreeSans" font-size="10.00">Category</text>
</a>
</g>
</g>
<!-- Node1&#45;&gt;Node4 -->
<g id="edge3" class="edge">
<title>Node1&#45;&gt;Node4</title>
<path fill="none" stroke="midnightblue" d="M478.06,-108.03C498.35,-117.81 523.72,-129.45 547,-138.5 555.08,-141.64 563.75,-144.69 572.24,-147.5"/>
<polygon fill="midnightblue" stroke="midnightblue" points="479.34,-104.76 468.82,-103.54 476.29,-111.06 479.34,-104.76"/>
</g>
<!-- Node5 -->
<g id="node5" class="node">
<title>Node5</title>
<g id="a_node5"><a xlink:href="structDGtal_1_1MultisetAssociativeCategory.html" target="_top" xlink:title=" ">
<polygon fill="white" stroke="black" points="550.5,-98.5 550.5,-128.5 696.5,-128.5 696.5,-98.5 550.5,-98.5"/>
<text text-anchor="start" x="558.5" y="-116.5" font-family="FreeSans" font-size="10.00">DGtal::MultisetAssociative</text>
<text text-anchor="middle" x="623.5" y="-105.5" font-family="FreeSans" font-size="10.00">Category</text>
</a>
</g>
</g>
<!-- Node1&#45;&gt;Node5 -->
<g id="edge4" class="edge">
<title>Node1&#45;&gt;Node5</title>
<path fill="none" stroke="midnightblue" d="M521.28,-99.71C530.96,-101.03 540.78,-102.37 550.31,-103.66"/>
<polygon fill="midnightblue" stroke="midnightblue" points="521.64,-96.23 511.26,-98.34 520.7,-103.16 521.64,-96.23"/>
</g>
<!-- Node6 -->
<g id="node6" class="node">
<title>Node6</title>
<g id="a_node6"><a xlink:href="structDGtal_1_1UnorderedMultimapAssociativeCategory.html" target="_top" xlink:title=" ">
<polygon fill="white" stroke="black" points="549.5,-49.5 549.5,-79.5 697.5,-79.5 697.5,-49.5 549.5,-49.5"/>
<text text-anchor="start" x="557.5" y="-67.5" font-family="FreeSans" font-size="10.00">DGtal::UnorderedMultimap</text>
<text text-anchor="middle" x="623.5" y="-56.5" font-family="FreeSans" font-size="10.00">AssociativeCategory</text>
</a>
</g>
</g>
<!-- Node1&#45;&gt;Node6 -->
<g id="edge5" class="edge">
<title>Node1&#45;&gt;Node6</title>
<path fill="none" stroke="midnightblue" d="M521.34,-77.73C530.69,-76.51 540.18,-75.27 549.4,-74.06"/>
<polygon fill="midnightblue" stroke="midnightblue" points="520.72,-74.28 511.26,-79.05 521.63,-81.22 520.72,-74.28"/>
</g>
<!-- Node7 -->
<g id="node7" class="node">
<title>Node7</title>
<g id="a_node7"><a xlink:href="structDGtal_1_1UnorderedMultisetAssociativeCategory.html" target="_top" xlink:title=" ">
<polygon fill="white" stroke="black" points="553,-0.5 553,-30.5 694,-30.5 694,-0.5 553,-0.5"/>
<text text-anchor="start" x="561" y="-18.5" font-family="FreeSans" font-size="10.00">DGtal::UnorderedMultiset</text>
<text text-anchor="middle" x="623.5" y="-7.5" font-family="FreeSans" font-size="10.00">AssociativeCategory</text>
</a>
</g>
</g>
<!-- Node1&#45;&gt;Node7 -->
<g id="edge6" class="edge">
<title>Node1&#45;&gt;Node7</title>
<path fill="none" stroke="midnightblue" d="M478.97,-69C499.13,-59.52 524.1,-48.3 547,-39.5 555.09,-36.39 563.77,-33.36 572.26,-30.56"/>
<polygon fill="midnightblue" stroke="midnightblue" points="477.31,-65.91 469.78,-73.36 480.31,-72.24 477.31,-65.91"/>
</g>
<!-- Node2 -->
<g id="node2" class="node">
<title>Node2</title>
<g id="a_node2"><a xlink:href="structDGtal_1_1AssociativeCategory.html" target="_top" xlink:title=" ">
<polygon fill="white" stroke="black" points="178,-79 178,-98 329,-98 329,-79 178,-79"/>
<text text-anchor="middle" x="253.5" y="-86" font-family="FreeSans" font-size="10.00">DGtal::AssociativeCategory</text>
</a>
</g>
</g>
<!-- Node2&#45;&gt;Node1 -->
<g id="edge1" class="edge">
<title>Node2&#45;&gt;Node1</title>
<path fill="none" stroke="midnightblue" d="M339.49,-88.5C347.92,-88.5 356.43,-88.5 364.72,-88.5"/>
<polygon fill="midnightblue" stroke="midnightblue" points="339.26,-85 329.26,-88.5 339.26,-92 339.26,-85"/>
</g>
<!-- Node3 -->
<g id="node3" class="node">
<title>Node3</title>
<g id="a_node3"><a xlink:href="structDGtal_1_1ContainerCategory.html" target="_top" xlink:title=" ">
<polygon fill="white" stroke="black" points="0,-79 0,-98 142,-98 142,-79 0,-79"/>
<text text-anchor="middle" x="71" y="-86" font-family="FreeSans" font-size="10.00">DGtal::ContainerCategory</text>
</a>
</g>
</g>
<!-- Node3&#45;&gt;Node2 -->
<g id="edge2" class="edge">
<title>Node3&#45;&gt;Node2</title>
<path fill="none" stroke="midnightblue" d="M152.28,-88.5C160.74,-88.5 169.32,-88.5 177.71,-88.5"/>
<polygon fill="midnightblue" stroke="midnightblue" points="152.04,-85 142.04,-88.5 152.04,-92 152.04,-85"/>
</g>
</g>
</svg>
