<?xml version="1.0" encoding="UTF-8" standalone="no"?>
<!DOCTYPE svg PUBLIC "-//W3C//DTD SVG 1.1//EN"
 "http://www.w3.org/Graphics/SVG/1.1/DTD/svg11.dtd">
<!-- Generated by graphviz version 2.43.0 (0)
 -->
<!-- Title: DGtal::detail::RecursivePConvexity&lt; dim, TInteger &gt; Pages: 1 -->
<svg width="206pt" height="128pt"
 viewBox="0.00 0.00 206.00 128.00" xmlns="http://www.w3.org/2000/svg" xmlns:xlink="http://www.w3.org/1999/xlink">
<g id="graph0" class="graph" transform="scale(1 1) rotate(0) translate(4 124)">
<title>DGtal::detail::RecursivePConvexity&lt; dim, TInteger &gt;</title>
<polygon fill="white" stroke="transparent" points="-4,4 -4,-124 202,-124 202,4 -4,4"/>
<!-- Node1 -->
<g id="node1" class="node">
<title>Node1</title>
<g id="a_node1"><a xlink:title=" ">
<polygon fill="#bfbfbf" stroke="black" points="0,-89.5 0,-119.5 160,-119.5 160,-89.5 0,-89.5"/>
<text text-anchor="start" x="8" y="-107.5" font-family="FreeSans" font-size="10.00">DGtal::detail::Recursive</text>
<text text-anchor="middle" x="80" y="-96.5" font-family="FreeSans" font-size="10.00">PConvexity&lt; dim, TInteger &gt;</text>
</a>
</g>
</g>
<!-- Node2 -->
<g id="node2" class="node">
<title>Node2</title>
<g id="a_node2"><a xlink:href="structDGtal_1_1detail_1_1RecursivePConvexity.html" target="_top" xlink:title=" ">
<polygon fill="white" stroke="black" points="11.5,-0.5 11.5,-41.5 148.5,-41.5 148.5,-0.5 11.5,-0.5"/>
<text text-anchor="start" x="19.5" y="-29.5" font-family="FreeSans" font-size="10.00">DGtal::detail::Recursive</text>
<text text-anchor="start" x="19.5" y="-18.5" font-family="FreeSans" font-size="10.00">PConvexity&lt; dimension,</text>
<text text-anchor="middle" x="80" y="-7.5" font-family="FreeSans" font-size="10.00"> Integer &gt;</text>
</a>
</g>
</g>
<!-- Node1&#45;&gt;Node2 -->
<g id="edge1" class="edge">
<title>Node1&#45;&gt;Node2</title>
<path fill="none" stroke="orange" stroke-dasharray="5,2" d="M80,-79.07C80,-67.06 80,-52.79 80,-41.53"/>
<polygon fill="orange" stroke="orange" points="76.5,-79.3 80,-89.3 83.5,-79.3 76.5,-79.3"/>
<text text-anchor="middle" x="139" y="-63" font-family="FreeSans" font-size="10.00"> &lt; dimension, Integer &gt;</text>
</g>
</g>
</svg>
