<?xml version="1.0" encoding="UTF-8" standalone="no"?>
<!DOCTYPE svg PUBLIC "-//W3C//DTD SVG 1.1//EN"
 "http://www.w3.org/Graphics/SVG/1.1/DTD/svg11.dtd">
<!-- Generated by graphviz version 2.43.0 (0)
 -->
<!-- Title: DGtal::CDLR_naiverotation&lt; TSpace, TInputValue, TOutputValue &gt; Pages: 1 -->
<svg width="473pt" height="68pt"
 viewBox="0.00 0.00 473.00 67.50" xmlns="http://www.w3.org/2000/svg" xmlns:xlink="http://www.w3.org/1999/xlink">
<g id="graph0" class="graph" transform="scale(1 1) rotate(0) translate(4 63.5)">
<title>DGtal::CDLR_naiverotation&lt; TSpace, TInputValue, TOutputValue &gt;</title>
<polygon fill="white" stroke="transparent" points="-4,4 -4,-63.5 469,-63.5 469,4 -4,4"/>
<!-- Node1 -->
<g id="node1" class="node">
<title>Node1</title>
<g id="a_node1"><a xlink:title=" ">
<polygon fill="#bfbfbf" stroke="black" points="0,-6 0,-47 147,-47 147,-6 0,-6"/>
<text text-anchor="start" x="8" y="-35" font-family="FreeSans" font-size="10.00">DGtal::CDLR_naiverotation</text>
<text text-anchor="start" x="8" y="-24" font-family="FreeSans" font-size="10.00">&lt; TSpace, TInputValue,</text>
<text text-anchor="middle" x="73.5" y="-13" font-family="FreeSans" font-size="10.00"> TOutputValue &gt;</text>
</a>
</g>
</g>
<!-- Node2 -->
<g id="node2" class="node">
<title>Node2</title>
<g id="a_node2"><a xlink:href="structDGtal_1_1CDLR__naiverotation.html" target="_top" xlink:title=" ">
<polygon fill="white" stroke="black" points="308,-0.5 308,-52.5 465,-52.5 465,-0.5 308,-0.5"/>
<text text-anchor="start" x="316" y="-40.5" font-family="FreeSans" font-size="10.00">DGtal::CDLR_naiverotation</text>
<text text-anchor="start" x="316" y="-29.5" font-family="FreeSans" font-size="10.00">&lt; TSpace, typename TSpace</text>
<text text-anchor="start" x="316" y="-18.5" font-family="FreeSans" font-size="10.00">::Point, typename TSpace</text>
<text text-anchor="middle" x="386.5" y="-7.5" font-family="FreeSans" font-size="10.00">::Point &gt;</text>
</a>
</g>
</g>
<!-- Node1&#45;&gt;Node2 -->
<g id="edge1" class="edge">
<title>Node1&#45;&gt;Node2</title>
<path fill="none" stroke="orange" stroke-dasharray="5,2" d="M157.13,-26.5C203.9,-26.5 262.05,-26.5 307.96,-26.5"/>
<polygon fill="orange" stroke="orange" points="157.02,-23 147.02,-26.5 157.02,-30 157.02,-23"/>
<text text-anchor="start" x="165" y="-51.5" font-family="FreeSans" font-size="10.00"> &lt; TSpace, typename</text>
<text text-anchor="start" x="165" y="-40.5" font-family="FreeSans" font-size="10.00"> TSpace::Point, typename</text>
<text text-anchor="middle" x="227.5" y="-29.5" font-family="FreeSans" font-size="10.00"> TSpace::Point &gt;</text>
</g>
</g>
</svg>
