<?xml version="1.0" encoding="UTF-8" standalone="no"?>
<!DOCTYPE svg PUBLIC "-//W3C//DTD SVG 1.1//EN"
 "http://www.w3.org/Graphics/SVG/1.1/DTD/svg11.dtd">
<!-- Generated by graphviz version 2.43.0 (0)
 -->
<!-- Title: DGtal::RBC_vec&lt; TSpace, TInputValue, TOutputValue &gt; Pages: 1 -->
<svg width="223pt" height="150pt"
 viewBox="0.00 0.00 222.50 150.00" xmlns="http://www.w3.org/2000/svg" xmlns:xlink="http://www.w3.org/1999/xlink">
<g id="graph0" class="graph" transform="scale(1 1) rotate(0) translate(4 146)">
<title>DGtal::RBC_vec&lt; TSpace, TInputValue, TOutputValue &gt;</title>
<polygon fill="white" stroke="transparent" points="-4,4 -4,-146 218.5,-146 218.5,4 -4,4"/>
<!-- Node1 -->
<g id="node1" class="node">
<title>Node1</title>
<g id="a_node1"><a xlink:title="RBC : Bijective Rotation through Circles.">
<polygon fill="#bfbfbf" stroke="black" points="1,-111.5 1,-141.5 162,-141.5 162,-111.5 1,-111.5"/>
<text text-anchor="start" x="9" y="-129.5" font-family="FreeSans" font-size="10.00">DGtal::RBC_vec&lt; TSpace,</text>
<text text-anchor="middle" x="81.5" y="-118.5" font-family="FreeSans" font-size="10.00"> TInputValue, TOutputValue &gt;</text>
</a>
</g>
</g>
<!-- Node2 -->
<g id="node2" class="node">
<title>Node2</title>
<g id="a_node2"><a xlink:href="structDGtal_1_1RBC__vec.html" target="_top" xlink:title=" ">
<polygon fill="white" stroke="black" points="0,-0.5 0,-41.5 163,-41.5 163,-0.5 0,-0.5"/>
<text text-anchor="start" x="8" y="-29.5" font-family="FreeSans" font-size="10.00">DGtal::RBC_vec&lt; TSpace,</text>
<text text-anchor="start" x="8" y="-18.5" font-family="FreeSans" font-size="10.00"> typename TSpace::RealPoint,</text>
<text text-anchor="middle" x="81.5" y="-7.5" font-family="FreeSans" font-size="10.00"> typename TSpace::Point &gt;</text>
</a>
</g>
</g>
<!-- Node1&#45;&gt;Node2 -->
<g id="edge1" class="edge">
<title>Node1&#45;&gt;Node2</title>
<path fill="none" stroke="orange" stroke-dasharray="5,2" d="M81.5,-100.99C81.5,-82.84 81.5,-58.42 81.5,-41.57"/>
<polygon fill="orange" stroke="orange" points="78,-101.11 81.5,-111.11 85,-101.11 78,-101.11"/>
<text text-anchor="start" x="81.5" y="-85" font-family="FreeSans" font-size="10.00"> &lt; TSpace, typename</text>
<text text-anchor="start" x="81.5" y="-74" font-family="FreeSans" font-size="10.00"> TSpace::RealPoint,</text>
<text text-anchor="middle" x="148" y="-63" font-family="FreeSans" font-size="10.00"> typename TSpace::Point &gt;</text>
</g>
</g>
</svg>
