<?xml version="1.0" encoding="UTF-8" standalone="no"?>
<!DOCTYPE svg PUBLIC "-//W3C//DTD SVG 1.1//EN"
 "http://www.w3.org/Graphics/SVG/1.1/DTD/svg11.dtd">
<!-- Generated by graphviz version 2.43.0 (0)
 -->
<!-- Title: DGtal::concepts::CAdjacency&lt; Adj &gt; Pages: 1 -->
<svg width="193pt" height="320pt"
 viewBox="0.00 0.00 193.00 320.00" xmlns="http://www.w3.org/2000/svg" xmlns:xlink="http://www.w3.org/1999/xlink">
<g id="graph0" class="graph" transform="scale(1 1) rotate(0) translate(4 316)">
<title>DGtal::concepts::CAdjacency&lt; Adj &gt;</title>
<polygon fill="white" stroke="transparent" points="-4,4 -4,-316 189,-316 189,4 -4,4"/>
<!-- Node1 -->
<g id="node1" class="node">
<title>Node1</title>
<g id="a_node1"><a xlink:title="Aim: The concept CAdjacency defines an elementary adjacency relation between points of a digital spac...">
<polygon fill="#bfbfbf" stroke="black" points="14,-135.5 14,-165.5 171,-165.5 171,-135.5 14,-135.5"/>
<text text-anchor="start" x="22" y="-153.5" font-family="FreeSans" font-size="10.00">DGtal::concepts::CAdjacency</text>
<text text-anchor="middle" x="92.5" y="-142.5" font-family="FreeSans" font-size="10.00">&lt; Adj &gt;</text>
</a>
</g>
</g>
<!-- Node4 -->
<g id="node4" class="node">
<title>Node4</title>
<g id="a_node4"><a xlink:href="structDGtal_1_1concepts_1_1CAdjacency.html" target="_top" xlink:title=" ">
<polygon fill="white" stroke="black" points="0,-68.5 0,-87.5 185,-87.5 185,-68.5 0,-68.5"/>
<text text-anchor="middle" x="92.5" y="-75.5" font-family="FreeSans" font-size="10.00">DGtal::concepts::CAdjacency&lt; T &gt;</text>
</a>
</g>
</g>
<!-- Node1&#45;&gt;Node4 -->
<g id="edge3" class="edge">
<title>Node1&#45;&gt;Node4</title>
<path fill="none" stroke="orange" stroke-dasharray="5,2" d="M92.5,-125.09C92.5,-112.21 92.5,-97.2 92.5,-87.89"/>
<polygon fill="orange" stroke="orange" points="89,-125.23 92.5,-135.23 96,-125.23 89,-125.23"/>
<text text-anchor="middle" x="108.5" y="-109" font-family="FreeSans" font-size="10.00"> &lt; T &gt;</text>
</g>
<!-- Node2 -->
<g id="node2" class="node">
<title>Node2</title>
<g id="a_node2"><a xlink:href="structDGtal_1_1concepts_1_1CUndirectedSimpleLocalGraph.html" target="_top" xlink:title=" ">
<polygon fill="white" stroke="black" points="12.5,-203.5 12.5,-233.5 172.5,-233.5 172.5,-203.5 12.5,-203.5"/>
<text text-anchor="start" x="20.5" y="-221.5" font-family="FreeSans" font-size="10.00">DGtal::concepts::CUndirected</text>
<text text-anchor="middle" x="92.5" y="-210.5" font-family="FreeSans" font-size="10.00">SimpleLocalGraph&lt; Adj &gt;</text>
</a>
</g>
</g>
<!-- Node2&#45;&gt;Node1 -->
<g id="edge1" class="edge">
<title>Node2&#45;&gt;Node1</title>
<path fill="none" stroke="midnightblue" d="M92.5,-193.03C92.5,-183.86 92.5,-173.74 92.5,-165.79"/>
<polygon fill="midnightblue" stroke="midnightblue" points="89,-193.18 92.5,-203.18 96,-193.18 89,-193.18"/>
</g>
<!-- Node3 -->
<g id="node3" class="node">
<title>Node3</title>
<g id="a_node3"><a xlink:href="structDGtal_1_1concepts_1_1CUndirectedSimpleLocalGraph.html" target="_top" xlink:title="Aim: Represents the concept of local graph: each vertex has neighboring vertices, but we do not neces...">
<polygon fill="white" stroke="black" points="12.5,-281.5 12.5,-311.5 172.5,-311.5 172.5,-281.5 12.5,-281.5"/>
<text text-anchor="start" x="20.5" y="-299.5" font-family="FreeSans" font-size="10.00">DGtal::concepts::CUndirected</text>
<text text-anchor="middle" x="92.5" y="-288.5" font-family="FreeSans" font-size="10.00">SimpleLocalGraph&lt; T &gt;</text>
</a>
</g>
</g>
<!-- Node3&#45;&gt;Node2 -->
<g id="edge2" class="edge">
<title>Node3&#45;&gt;Node2</title>
<path fill="none" stroke="orange" stroke-dasharray="5,2" d="M92.5,-271.09C92.5,-258.76 92.5,-244.22 92.5,-233.73"/>
<polygon fill="orange" stroke="orange" points="89,-271.2 92.5,-281.2 96,-271.21 89,-271.2"/>
<text text-anchor="middle" x="113.5" y="-255" font-family="FreeSans" font-size="10.00"> &lt; Adj &gt;</text>
</g>
<!-- Node5 -->
<g id="node5" class="node">
<title>Node5</title>
<g id="a_node5"><a xlink:href="structDGtal_1_1concepts_1_1CDomainAdjacency.html" target="_top" xlink:title="Aim: Refines the concept CAdjacency by telling that the adjacency is specific to a given domain of th...">
<polygon fill="white" stroke="black" points="20,-0.5 20,-30.5 165,-30.5 165,-0.5 20,-0.5"/>
<text text-anchor="start" x="28" y="-18.5" font-family="FreeSans" font-size="10.00">DGtal::concepts::CDomain</text>
<text text-anchor="middle" x="92.5" y="-7.5" font-family="FreeSans" font-size="10.00">Adjacency&lt; T &gt;</text>
</a>
</g>
</g>
<!-- Node4&#45;&gt;Node5 -->
<g id="edge4" class="edge">
<title>Node4&#45;&gt;Node5</title>
<path fill="none" stroke="midnightblue" d="M92.5,-58.22C92.5,-49.36 92.5,-38.96 92.5,-30.76"/>
<polygon fill="midnightblue" stroke="midnightblue" points="89,-58.33 92.5,-68.33 96,-58.33 89,-58.33"/>
</g>
</g>
</svg>
