<?xml version="1.0" encoding="UTF-8" standalone="no"?>
<!DOCTYPE svg PUBLIC "-//W3C//DTD SVG 1.1//EN"
 "http://www.w3.org/Graphics/SVG/1.1/DTD/svg11.dtd">
<!-- Generated by graphviz version 2.43.0 (0)
 -->
<!-- Title: DGtal::concepts::CPowerMetric&lt; T &gt; Pages: 1 -->
<svg width="324pt" height="151pt"
 viewBox="0.00 0.00 324.00 151.00" xmlns="http://www.w3.org/2000/svg" xmlns:xlink="http://www.w3.org/1999/xlink">
<g id="graph0" class="graph" transform="scale(1 1) rotate(0) translate(4 147)">
<title>DGtal::concepts::CPowerMetric&lt; T &gt;</title>
<polygon fill="white" stroke="transparent" points="-4,4 -4,-147 320,-147 320,4 -4,4"/>
<!-- Node1 -->
<g id="node1" class="node">
<title>Node1</title>
<g id="a_node1"><a xlink:title="Aim: defines the concept of special weighted metrics, so called power metrics.">
<polygon fill="#bfbfbf" stroke="black" points="68.5,-67.5 68.5,-86.5 264.5,-86.5 264.5,-67.5 68.5,-67.5"/>
<text text-anchor="middle" x="166.5" y="-74.5" font-family="FreeSans" font-size="10.00">DGtal::concepts::CPowerMetric&lt; T &gt;</text>
</a>
</g>
</g>
<!-- Node4 -->
<g id="node4" class="node">
<title>Node4</title>
<g id="a_node4"><a xlink:href="structDGtal_1_1concepts_1_1CPowerSeparableMetric.html" target="_top" xlink:title="Aim: defines the concept of separable metrics.">
<polygon fill="white" stroke="black" points="74,-0.5 74,-30.5 259,-30.5 259,-0.5 74,-0.5"/>
<text text-anchor="start" x="82" y="-18.5" font-family="FreeSans" font-size="10.00">DGtal::concepts::CPowerSeparable</text>
<text text-anchor="middle" x="166.5" y="-7.5" font-family="FreeSans" font-size="10.00">Metric&lt; T &gt;</text>
</a>
</g>
</g>
<!-- Node1&#45;&gt;Node4 -->
<g id="edge3" class="edge">
<title>Node1&#45;&gt;Node4</title>
<path fill="none" stroke="midnightblue" d="M166.5,-57.23C166.5,-48.59 166.5,-38.5 166.5,-30.52"/>
<polygon fill="midnightblue" stroke="midnightblue" points="163,-57.48 166.5,-67.48 170,-57.48 163,-57.48"/>
</g>
<!-- Node2 -->
<g id="node2" class="node">
<title>Node2</title>
<g id="a_node2"><a xlink:href="structboost_1_1CopyConstructible.html" target="_top" xlink:title="Go to http://www.sgi.com/tech/stl/CopyConstructible.html.">
<polygon fill="white" stroke="black" points="0,-123.5 0,-142.5 167,-142.5 167,-123.5 0,-123.5"/>
<text text-anchor="middle" x="83.5" y="-130.5" font-family="FreeSans" font-size="10.00">boost::CopyConstructible&lt; T &gt;</text>
</a>
</g>
</g>
<!-- Node2&#45;&gt;Node1 -->
<g id="edge1" class="edge">
<title>Node2&#45;&gt;Node1</title>
<path fill="none" stroke="midnightblue" d="M105.6,-117.62C120.76,-107.76 140.38,-94.99 153.2,-86.65"/>
<polygon fill="midnightblue" stroke="midnightblue" points="103.31,-114.94 96.84,-123.32 107.13,-120.8 103.31,-114.94"/>
</g>
<!-- Node3 -->
<g id="node3" class="node">
<title>Node3</title>
<g id="a_node3"><a xlink:href="structboost_1_1Assignable.html" target="_top" xlink:title="Go to http://www.sgi.com/tech/stl/Assignable.html.">
<polygon fill="white" stroke="black" points="185,-123.5 185,-142.5 316,-142.5 316,-123.5 185,-123.5"/>
<text text-anchor="middle" x="250.5" y="-130.5" font-family="FreeSans" font-size="10.00">boost::Assignable&lt; T &gt;</text>
</a>
</g>
</g>
<!-- Node3&#45;&gt;Node1 -->
<g id="edge2" class="edge">
<title>Node3&#45;&gt;Node1</title>
<path fill="none" stroke="midnightblue" d="M228.57,-117.9C213.16,-108 193.05,-95.07 179.96,-86.65"/>
<polygon fill="midnightblue" stroke="midnightblue" points="226.7,-120.86 237,-123.32 230.48,-114.97 226.7,-120.86"/>
</g>
</g>
</svg>
