<?xml version="1.0" encoding="UTF-8" standalone="no"?>
<!DOCTYPE svg PUBLIC "-//W3C//DTD SVG 1.1//EN"
 "http://www.w3.org/Graphics/SVG/1.1/DTD/svg11.dtd">
<!-- Generated by graphviz version 2.43.0 (0)
 -->
<!-- Title: DGtal::MixedPolicy&lt; TSpace, TDomain, TBijectiveRotation &gt; Pages: 1 -->
<svg width="199pt" height="207pt"
 viewBox="0.00 0.00 198.50 207.00" xmlns="http://www.w3.org/2000/svg" xmlns:xlink="http://www.w3.org/1999/xlink">
<g id="graph0" class="graph" transform="scale(1 1) rotate(0) translate(4 203)">
<title>DGtal::MixedPolicy&lt; TSpace, TDomain, TBijectiveRotation &gt;</title>
<polygon fill="white" stroke="transparent" points="-4,4 -4,-203 194.5,-203 194.5,4 -4,4"/>
<!-- Node1 -->
<g id="node1" class="node">
<title>Node1</title>
<g id="a_node1"><a xlink:title=" ">
<polygon fill="#bfbfbf" stroke="black" points="1.5,-0.5 1.5,-41.5 169.5,-41.5 169.5,-0.5 1.5,-0.5"/>
<text text-anchor="start" x="9.5" y="-29.5" font-family="FreeSans" font-size="10.00">DGtal::MixedPolicy</text>
<text text-anchor="start" x="9.5" y="-18.5" font-family="FreeSans" font-size="10.00">&lt; TSpace, TDomain, TBijective</text>
<text text-anchor="middle" x="85.5" y="-7.5" font-family="FreeSans" font-size="10.00">Rotation &gt;</text>
</a>
</g>
</g>
<!-- Node2 -->
<g id="node2" class="node">
<title>Node2</title>
<g id="a_node2"><a xlink:href="structDGtal_1_1Policy.html" target="_top" xlink:title=" ">
<polygon fill="white" stroke="black" points="0,-79.5 0,-109.5 171,-109.5 171,-79.5 0,-79.5"/>
<text text-anchor="start" x="8" y="-97.5" font-family="FreeSans" font-size="10.00">DGtal::Policy&lt; TSpace,</text>
<text text-anchor="middle" x="85.5" y="-86.5" font-family="FreeSans" font-size="10.00"> TDomain, TBijectiveRotation &gt;</text>
</a>
</g>
</g>
<!-- Node2&#45;&gt;Node1 -->
<g id="edge1" class="edge">
<title>Node2&#45;&gt;Node1</title>
<path fill="none" stroke="midnightblue" d="M85.5,-69.1C85.5,-60.1 85.5,-50.02 85.5,-41.51"/>
<polygon fill="midnightblue" stroke="midnightblue" points="82,-69.37 85.5,-79.37 89,-69.37 82,-69.37"/>
</g>
<!-- Node3 -->
<g id="node3" class="node">
<title>Node3</title>
<g id="a_node3"><a xlink:href="structDGtal_1_1Policy.html" target="_top" xlink:title="Policy : ,.">
<polygon fill="white" stroke="black" points="3,-168.5 3,-198.5 168,-198.5 168,-168.5 3,-168.5"/>
<text text-anchor="start" x="11" y="-186.5" font-family="FreeSans" font-size="10.00">DGtal::Policy&lt; TSpace,</text>
<text text-anchor="middle" x="85.5" y="-175.5" font-family="FreeSans" font-size="10.00"> TDomain, BijectiveRotation &gt;</text>
</a>
</g>
</g>
<!-- Node3&#45;&gt;Node2 -->
<g id="edge2" class="edge">
<title>Node3&#45;&gt;Node2</title>
<path fill="none" stroke="orange" stroke-dasharray="5,2" d="M85.5,-158.09C85.5,-142.44 85.5,-122.68 85.5,-109.6"/>
<polygon fill="orange" stroke="orange" points="82,-158.13 85.5,-168.13 89,-158.13 82,-158.13"/>
<text text-anchor="start" x="85.5" y="-142" font-family="FreeSans" font-size="10.00"> &lt; TSpace, TDomain,</text>
<text text-anchor="middle" x="138" y="-131" font-family="FreeSans" font-size="10.00"> TBijectiveRotation &gt;</text>
</g>
</g>
</svg>
