<?xml version="1.0" encoding="UTF-8" standalone="no"?>
<!DOCTYPE svg PUBLIC "-//W3C//DTD SVG 1.1//EN"
 "http://www.w3.org/Graphics/SVG/1.1/DTD/svg11.dtd">
<!-- Generated by graphviz version 2.43.0 (0)
 -->
<!-- Title: DGtal::concepts::CCommutativeRing&lt; T &gt; Pages: 1 -->
<svg width="1400pt" height="104pt"
 viewBox="0.00 0.00 1400.00 104.00" xmlns="http://www.w3.org/2000/svg" xmlns:xlink="http://www.w3.org/1999/xlink">
<g id="graph0" class="graph" transform="scale(1 1) rotate(0) translate(4 100)">
<title>DGtal::concepts::CCommutativeRing&lt; T &gt;</title>
<polygon fill="white" stroke="transparent" points="-4,4 -4,-100 1396,-100 1396,4 -4,4"/>
<!-- Node1 -->
<g id="node1" class="node">
<title>Node1</title>
<g id="a_node1"><a xlink:title="Aim: Defines the mathematical concept equivalent to a unitary commutative ring.">
<polygon fill="#bfbfbf" stroke="black" points="823,-14 823,-44 996,-44 996,-14 823,-14"/>
<text text-anchor="start" x="831" y="-32" font-family="FreeSans" font-size="10.00">DGtal::concepts::CCommutative</text>
<text text-anchor="middle" x="909.5" y="-21" font-family="FreeSans" font-size="10.00">Ring&lt; T &gt;</text>
</a>
</g>
</g>
<!-- Node9 -->
<g id="node9" class="node">
<title>Node9</title>
<g id="a_node9"><a xlink:href="structDGtal_1_1concepts_1_1CEuclideanRing.html" target="_top" xlink:title="Aim: Defines the mathematical concept equivalent to a unitary commutative ring with a division operat...">
<polygon fill="white" stroke="black" points="1032,-14 1032,-44 1186,-44 1186,-14 1032,-14"/>
<text text-anchor="start" x="1040" y="-32" font-family="FreeSans" font-size="10.00">DGtal::concepts::CEuclidean</text>
<text text-anchor="middle" x="1109" y="-21" font-family="FreeSans" font-size="10.00">Ring&lt; T &gt;</text>
</a>
</g>
</g>
<!-- Node1&#45;&gt;Node9 -->
<g id="edge8" class="edge">
<title>Node1&#45;&gt;Node9</title>
<path fill="none" stroke="midnightblue" d="M1006.32,-29C1014.92,-29 1023.54,-29 1031.93,-29"/>
<polygon fill="midnightblue" stroke="midnightblue" points="1006.26,-25.5 996.26,-29 1006.26,-32.5 1006.26,-25.5"/>
</g>
<!-- Node2 -->
<g id="node2" class="node">
<title>Node2</title>
<g id="a_node2"><a xlink:href="structDGtal_1_1concepts_1_1CSignedNumber.html" target="_top" xlink:title="Aim: Concept checking for Signed Numbers. Models of this concept should be listed in NumberTraits cla...">
<polygon fill="white" stroke="black" points="647,-14 647,-44 787,-44 787,-14 647,-14"/>
<text text-anchor="start" x="655" y="-32" font-family="FreeSans" font-size="10.00">DGtal::concepts::CSigned</text>
<text text-anchor="middle" x="717" y="-21" font-family="FreeSans" font-size="10.00">Number&lt; T &gt;</text>
</a>
</g>
</g>
<!-- Node2&#45;&gt;Node1 -->
<g id="edge1" class="edge">
<title>Node2&#45;&gt;Node1</title>
<path fill="none" stroke="midnightblue" d="M797.23,-29C805.67,-29 814.28,-29 822.79,-29"/>
<polygon fill="midnightblue" stroke="midnightblue" points="797.04,-25.5 787.04,-29 797.04,-32.5 797.04,-25.5"/>
</g>
<!-- Node3 -->
<g id="node3" class="node">
<title>Node3</title>
<g id="a_node3"><a xlink:href="structDGtal_1_1concepts_1_1CQuantity.html" target="_top" xlink:title="Aim: defines the concept of quantity in DGtal.">
<polygon fill="white" stroke="black" points="434,-19.5 434,-38.5 611,-38.5 611,-19.5 434,-19.5"/>
<text text-anchor="middle" x="522.5" y="-26.5" font-family="FreeSans" font-size="10.00">DGtal::concepts::CQuantity&lt; T &gt;</text>
</a>
</g>
</g>
<!-- Node3&#45;&gt;Node2 -->
<g id="edge2" class="edge">
<title>Node3&#45;&gt;Node2</title>
<path fill="none" stroke="midnightblue" d="M621.19,-29C629.85,-29 638.51,-29 646.86,-29"/>
<polygon fill="midnightblue" stroke="midnightblue" points="621.02,-25.5 611.02,-29 621.02,-32.5 621.02,-25.5"/>
</g>
<!-- Node4 -->
<g id="node4" class="node">
<title>Node4</title>
<g id="a_node4"><a xlink:href="structDGtal_1_1concepts_1_1CLabel.html" target="_top" xlink:title="Aim: Define the concept of DGtal labels. Models of CLabel can be default&#45;constructible,...">
<polygon fill="white" stroke="black" points="226,-38.5 226,-57.5 387,-57.5 387,-38.5 226,-38.5"/>
<text text-anchor="middle" x="306.5" y="-45.5" font-family="FreeSans" font-size="10.00">DGtal::concepts::CLabel&lt; T &gt;</text>
</a>
</g>
</g>
<!-- Node4&#45;&gt;Node3 -->
<g id="edge3" class="edge">
<title>Node4&#45;&gt;Node3</title>
<path fill="none" stroke="midnightblue" d="M397.27,-40.03C409.37,-38.96 421.77,-37.85 433.84,-36.78"/>
<polygon fill="midnightblue" stroke="midnightblue" points="396.84,-36.55 387.19,-40.93 397.46,-43.53 396.84,-36.55"/>
</g>
<!-- Node5 -->
<g id="node5" class="node">
<title>Node5</title>
<g id="a_node5"><a xlink:href="structboost_1_1DefaultConstructible.html" target="_top" xlink:title="Go to http://www.sgi.com/tech/stl/DefaultConstructible.html.">
<polygon fill="white" stroke="black" points="0,-76.5 0,-95.5 179,-95.5 179,-76.5 0,-76.5"/>
<text text-anchor="middle" x="89.5" y="-83.5" font-family="FreeSans" font-size="10.00">boost::DefaultConstructible&lt; T &gt;</text>
</a>
</g>
</g>
<!-- Node5&#45;&gt;Node4 -->
<g id="edge4" class="edge">
<title>Node5&#45;&gt;Node4</title>
<path fill="none" stroke="midnightblue" d="M154.7,-74.65C185.55,-69.2 222.11,-62.74 251.5,-57.54"/>
<polygon fill="midnightblue" stroke="midnightblue" points="153.71,-71.27 144.48,-76.46 154.93,-78.17 153.71,-71.27"/>
</g>
<!-- Node6 -->
<g id="node6" class="node">
<title>Node6</title>
<g id="a_node6"><a xlink:href="structboost_1_1Assignable.html" target="_top" xlink:title="Go to http://www.sgi.com/tech/stl/Assignable.html.">
<polygon fill="white" stroke="black" points="24,-38.5 24,-57.5 155,-57.5 155,-38.5 24,-38.5"/>
<text text-anchor="middle" x="89.5" y="-45.5" font-family="FreeSans" font-size="10.00">boost::Assignable&lt; T &gt;</text>
</a>
</g>
</g>
<!-- Node6&#45;&gt;Node4 -->
<g id="edge5" class="edge">
<title>Node6&#45;&gt;Node4</title>
<path fill="none" stroke="midnightblue" d="M165.1,-48C184.71,-48 205.94,-48 225.81,-48"/>
<polygon fill="midnightblue" stroke="midnightblue" points="165.01,-44.5 155.01,-48 165.01,-51.5 165.01,-44.5"/>
</g>
<!-- Node7 -->
<g id="node7" class="node">
<title>Node7</title>
<g id="a_node7"><a xlink:href="structboost_1_1EqualityComparable.html" target="_top" xlink:title="Go to http://www.sgi.com/tech/stl/EqualityComparable.html.">
<polygon fill="white" stroke="black" points="1,-0.5 1,-19.5 178,-19.5 178,-0.5 1,-0.5"/>
<text text-anchor="middle" x="89.5" y="-7.5" font-family="FreeSans" font-size="10.00">boost::EqualityComparable&lt; T &gt;</text>
</a>
</g>
</g>
<!-- Node7&#45;&gt;Node4 -->
<g id="edge6" class="edge">
<title>Node7&#45;&gt;Node4</title>
<path fill="none" stroke="midnightblue" d="M154.7,-21.35C185.55,-26.8 222.11,-33.26 251.5,-38.46"/>
<polygon fill="midnightblue" stroke="midnightblue" points="154.93,-17.83 144.48,-19.54 153.71,-24.73 154.93,-17.83"/>
</g>
<!-- Node8 -->
<g id="node8" class="node">
<title>Node8</title>
<g id="a_node8"><a xlink:href="structboost_1_1LessThanComparable.html" target="_top" xlink:title="Go to http://www.sgi.com/tech/stl/LessThanComparable.html.">
<polygon fill="white" stroke="black" points="215,-0.5 215,-19.5 398,-19.5 398,-0.5 215,-0.5"/>
<text text-anchor="middle" x="306.5" y="-7.5" font-family="FreeSans" font-size="10.00">boost::LessThanComparable&lt; T &gt;</text>
</a>
</g>
</g>
<!-- Node8&#45;&gt;Node3 -->
<g id="edge7" class="edge">
<title>Node8&#45;&gt;Node3</title>
<path fill="none" stroke="midnightblue" d="M408.48,-18.97C416.9,-19.71 425.37,-20.46 433.67,-21.2"/>
<polygon fill="midnightblue" stroke="midnightblue" points="408.53,-15.46 398.26,-18.06 407.91,-22.43 408.53,-15.46"/>
</g>
<!-- Node10 -->
<g id="node10" class="node">
<title>Node10</title>
<g id="a_node10"><a xlink:href="structDGtal_1_1concepts_1_1CInteger.html" target="_top" xlink:title="Aim: Concept checking for Integer Numbers. More precisely, this concept is a refinement of both CEucl...">
<polygon fill="white" stroke="black" points="1222,-19.5 1222,-38.5 1392,-38.5 1392,-19.5 1222,-19.5"/>
<text text-anchor="middle" x="1307" y="-26.5" font-family="FreeSans" font-size="10.00">DGtal::concepts::CInteger&lt; T &gt;</text>
</a>
</g>
</g>
<!-- Node9&#45;&gt;Node10 -->
<g id="edge9" class="edge">
<title>Node9&#45;&gt;Node10</title>
<path fill="none" stroke="midnightblue" d="M1196.32,-29C1204.8,-29 1213.4,-29 1221.85,-29"/>
<polygon fill="midnightblue" stroke="midnightblue" points="1196.06,-25.5 1186.06,-29 1196.06,-32.5 1196.06,-25.5"/>
</g>
</g>
</svg>
