<?xml version="1.0" encoding="UTF-8" standalone="no"?>
<!DOCTYPE svg PUBLIC "-//W3C//DTD SVG 1.1//EN"
 "http://www.w3.org/Graphics/SVG/1.1/DTD/svg11.dtd">
<!-- Generated by graphviz version 2.43.0 (0)
 -->
<!-- Title: DGtal::LcontinuityPolicy&lt; TSpace, TDomain, TBijectiveRotation &gt; Pages: 1 -->
<svg width="229pt" height="196pt"
 viewBox="0.00 0.00 229.00 196.00" xmlns="http://www.w3.org/2000/svg" xmlns:xlink="http://www.w3.org/1999/xlink">
<g id="graph0" class="graph" transform="scale(1 1) rotate(0) translate(4 192)">
<title>DGtal::LcontinuityPolicy&lt; TSpace, TDomain, TBijectiveRotation &gt;</title>
<polygon fill="white" stroke="transparent" points="-4,4 -4,-192 225,-192 225,4 -4,4"/>
<!-- Node1 -->
<g id="node1" class="node">
<title>Node1</title>
<g id="a_node1"><a xlink:title=" ">
<polygon fill="#bfbfbf" stroke="black" points="0,-0.5 0,-30.5 221,-30.5 221,-0.5 0,-0.5"/>
<text text-anchor="start" x="8" y="-18.5" font-family="FreeSans" font-size="10.00">DGtal::LcontinuityPolicy</text>
<text text-anchor="middle" x="110.5" y="-7.5" font-family="FreeSans" font-size="10.00">&lt; TSpace, TDomain, TBijectiveRotation &gt;</text>
</a>
</g>
</g>
<!-- Node2 -->
<g id="node2" class="node">
<title>Node2</title>
<g id="a_node2"><a xlink:href="structDGtal_1_1Policy.html" target="_top" xlink:title=" ">
<polygon fill="white" stroke="black" points="25,-68.5 25,-98.5 196,-98.5 196,-68.5 25,-68.5"/>
<text text-anchor="start" x="33" y="-86.5" font-family="FreeSans" font-size="10.00">DGtal::Policy&lt; TSpace,</text>
<text text-anchor="middle" x="110.5" y="-75.5" font-family="FreeSans" font-size="10.00"> TDomain, TBijectiveRotation &gt;</text>
</a>
</g>
</g>
<!-- Node2&#45;&gt;Node1 -->
<g id="edge1" class="edge">
<title>Node2&#45;&gt;Node1</title>
<path fill="none" stroke="midnightblue" d="M110.5,-58.03C110.5,-48.86 110.5,-38.74 110.5,-30.79"/>
<polygon fill="midnightblue" stroke="midnightblue" points="107,-58.18 110.5,-68.18 114,-58.18 107,-58.18"/>
</g>
<!-- Node3 -->
<g id="node3" class="node">
<title>Node3</title>
<g id="a_node3"><a xlink:href="structDGtal_1_1Policy.html" target="_top" xlink:title="Policy : ,.">
<polygon fill="white" stroke="black" points="28,-157.5 28,-187.5 193,-187.5 193,-157.5 28,-157.5"/>
<text text-anchor="start" x="36" y="-175.5" font-family="FreeSans" font-size="10.00">DGtal::Policy&lt; TSpace,</text>
<text text-anchor="middle" x="110.5" y="-164.5" font-family="FreeSans" font-size="10.00"> TDomain, BijectiveRotation &gt;</text>
</a>
</g>
</g>
<!-- Node3&#45;&gt;Node2 -->
<g id="edge2" class="edge">
<title>Node3&#45;&gt;Node2</title>
<path fill="none" stroke="orange" stroke-dasharray="5,2" d="M110.5,-147.09C110.5,-131.44 110.5,-111.68 110.5,-98.6"/>
<polygon fill="orange" stroke="orange" points="107,-147.13 110.5,-157.13 114,-147.13 107,-147.13"/>
<text text-anchor="start" x="110.5" y="-131" font-family="FreeSans" font-size="10.00"> &lt; TSpace, TDomain,</text>
<text text-anchor="middle" x="163" y="-120" font-family="FreeSans" font-size="10.00"> TBijectiveRotation &gt;</text>
</g>
</g>
</svg>
