<?xml version="1.0" encoding="UTF-8" standalone="no"?>
<!DOCTYPE svg PUBLIC "-//W3C//DTD SVG 1.1//EN"
 "http://www.w3.org/Graphics/SVG/1.1/DTD/svg11.dtd">
<!-- Generated by graphviz version 2.43.0 (0)
 -->
<!-- Title: DGtal::UnorderedMultisetAssociativeCategory Pages: 1 -->
<svg width="708pt" height="137pt"
 viewBox="0.00 0.00 708.00 137.00" xmlns="http://www.w3.org/2000/svg" xmlns:xlink="http://www.w3.org/1999/xlink">
<g id="graph0" class="graph" transform="scale(1 1) rotate(0) translate(4 133)">
<title>DGtal::UnorderedMultisetAssociativeCategory</title>
<polygon fill="white" stroke="transparent" points="-4,4 -4,-133 704,-133 704,4 -4,4"/>
<!-- Node1 -->
<g id="node1" class="node">
<title>Node1</title>
<g id="a_node1"><a xlink:title=" ">
<polygon fill="#bfbfbf" stroke="black" points="559,-49.5 559,-79.5 700,-79.5 700,-49.5 559,-49.5"/>
<text text-anchor="start" x="567" y="-67.5" font-family="FreeSans" font-size="10.00">DGtal::UnorderedMultiset</text>
<text text-anchor="middle" x="629.5" y="-56.5" font-family="FreeSans" font-size="10.00">AssociativeCategory</text>
</a>
</g>
</g>
<!-- Node2 -->
<g id="node2" class="node">
<title>Node2</title>
<g id="a_node2"><a xlink:href="structDGtal_1_1UnorderedAssociativeCategory.html" target="_top" xlink:title=" ">
<polygon fill="white" stroke="black" points="365,-98.5 365,-128.5 523,-128.5 523,-98.5 365,-98.5"/>
<text text-anchor="start" x="373" y="-116.5" font-family="FreeSans" font-size="10.00">DGtal::UnorderedAssociative</text>
<text text-anchor="middle" x="444" y="-105.5" font-family="FreeSans" font-size="10.00">Category</text>
</a>
</g>
</g>
<!-- Node2&#45;&gt;Node1 -->
<g id="edge1" class="edge">
<title>Node2&#45;&gt;Node1</title>
<path fill="none" stroke="midnightblue" d="M511,-95.88C531.07,-90.52 552.94,-84.68 572.3,-79.51"/>
<polygon fill="midnightblue" stroke="midnightblue" points="510.06,-92.5 501.3,-98.47 511.87,-99.27 510.06,-92.5"/>
</g>
<!-- Node3 -->
<g id="node3" class="node">
<title>Node3</title>
<g id="a_node3"><a xlink:href="structDGtal_1_1AssociativeCategory.html" target="_top" xlink:title=" ">
<polygon fill="white" stroke="black" points="178,-55 178,-74 329,-74 329,-55 178,-55"/>
<text text-anchor="middle" x="253.5" y="-62" font-family="FreeSans" font-size="10.00">DGtal::AssociativeCategory</text>
</a>
</g>
</g>
<!-- Node3&#45;&gt;Node2 -->
<g id="edge2" class="edge">
<title>Node3&#45;&gt;Node2</title>
<path fill="none" stroke="midnightblue" d="M301.05,-76.6C326.47,-83.21 358.16,-91.45 385.15,-98.46"/>
<polygon fill="midnightblue" stroke="midnightblue" points="301.85,-73.19 291.29,-74.06 300.09,-79.97 301.85,-73.19"/>
</g>
<!-- Node5 -->
<g id="node5" class="node">
<title>Node5</title>
<g id="a_node5"><a xlink:href="structDGtal_1_1SimpleAssociativeCategory.html" target="_top" xlink:title=" ">
<polygon fill="white" stroke="black" points="374,-49.5 374,-79.5 514,-79.5 514,-49.5 374,-49.5"/>
<text text-anchor="start" x="382" y="-67.5" font-family="FreeSans" font-size="10.00">DGtal::SimpleAssociative</text>
<text text-anchor="middle" x="444" y="-56.5" font-family="FreeSans" font-size="10.00">Category</text>
</a>
</g>
</g>
<!-- Node3&#45;&gt;Node5 -->
<g id="edge5" class="edge">
<title>Node3&#45;&gt;Node5</title>
<path fill="none" stroke="midnightblue" d="M339.16,-64.5C350.8,-64.5 362.63,-64.5 373.95,-64.5"/>
<polygon fill="midnightblue" stroke="midnightblue" points="339,-61 329,-64.5 339,-68 339,-61"/>
</g>
<!-- Node6 -->
<g id="node6" class="node">
<title>Node6</title>
<g id="a_node6"><a xlink:href="structDGtal_1_1MultipleAssociativeCategory.html" target="_top" xlink:title=" ">
<polygon fill="white" stroke="black" points="371,-0.5 371,-30.5 517,-30.5 517,-0.5 371,-0.5"/>
<text text-anchor="start" x="379" y="-18.5" font-family="FreeSans" font-size="10.00">DGtal::MultipleAssociative</text>
<text text-anchor="middle" x="444" y="-7.5" font-family="FreeSans" font-size="10.00">Category</text>
</a>
</g>
</g>
<!-- Node3&#45;&gt;Node6 -->
<g id="edge7" class="edge">
<title>Node3&#45;&gt;Node6</title>
<path fill="none" stroke="midnightblue" d="M301.05,-52.4C326.47,-45.79 358.16,-37.55 385.15,-30.54"/>
<polygon fill="midnightblue" stroke="midnightblue" points="300.09,-49.03 291.29,-54.94 301.85,-55.81 300.09,-49.03"/>
</g>
<!-- Node4 -->
<g id="node4" class="node">
<title>Node4</title>
<g id="a_node4"><a xlink:href="structDGtal_1_1ContainerCategory.html" target="_top" xlink:title=" ">
<polygon fill="white" stroke="black" points="0,-55 0,-74 142,-74 142,-55 0,-55"/>
<text text-anchor="middle" x="71" y="-62" font-family="FreeSans" font-size="10.00">DGtal::ContainerCategory</text>
</a>
</g>
</g>
<!-- Node4&#45;&gt;Node3 -->
<g id="edge3" class="edge">
<title>Node4&#45;&gt;Node3</title>
<path fill="none" stroke="midnightblue" d="M152.28,-64.5C160.74,-64.5 169.32,-64.5 177.71,-64.5"/>
<polygon fill="midnightblue" stroke="midnightblue" points="152.04,-61 142.04,-64.5 152.04,-68 152.04,-61"/>
</g>
<!-- Node5&#45;&gt;Node1 -->
<g id="edge4" class="edge">
<title>Node5&#45;&gt;Node1</title>
<path fill="none" stroke="midnightblue" d="M524.16,-64.5C535.7,-64.5 547.51,-64.5 558.84,-64.5"/>
<polygon fill="midnightblue" stroke="midnightblue" points="524.11,-61 514.11,-64.5 524.11,-68 524.11,-61"/>
</g>
<!-- Node6&#45;&gt;Node1 -->
<g id="edge6" class="edge">
<title>Node6&#45;&gt;Node1</title>
<path fill="none" stroke="midnightblue" d="M511,-33.12C531.07,-38.48 552.94,-44.32 572.3,-49.49"/>
<polygon fill="midnightblue" stroke="midnightblue" points="511.87,-29.73 501.3,-30.53 510.06,-36.5 511.87,-29.73"/>
</g>
</g>
</svg>
