<?xml version="1.0" encoding="UTF-8" standalone="no"?>
<!DOCTYPE svg PUBLIC "-//W3C//DTD SVG 1.1//EN"
 "http://www.w3.org/Graphics/SVG/1.1/DTD/svg11.dtd">
<!-- Generated by graphviz version 2.43.0 (0)
 -->
<!-- Title: DGtal::concepts::CUndirectedSimpleLocalGraph&lt; T &gt; Pages: 1 -->
<svg width="1035pt" height="110pt"
 viewBox="0.00 0.00 1035.00 110.00" xmlns="http://www.w3.org/2000/svg" xmlns:xlink="http://www.w3.org/1999/xlink">
<g id="graph0" class="graph" transform="scale(1 1) rotate(0) translate(4 106)">
<title>DGtal::concepts::CUndirectedSimpleLocalGraph&lt; T &gt;</title>
<polygon fill="white" stroke="transparent" points="-4,4 -4,-106 1031,-106 1031,4 -4,4"/>
<!-- Node1 -->
<g id="node1" class="node">
<title>Node1</title>
<g id="a_node1"><a xlink:title="Aim: Represents the concept of local graph: each vertex has neighboring vertices, but we do not neces...">
<polygon fill="#bfbfbf" stroke="black" points="0,-49.5 0,-79.5 160,-79.5 160,-49.5 0,-49.5"/>
<text text-anchor="start" x="8" y="-67.5" font-family="FreeSans" font-size="10.00">DGtal::concepts::CUndirected</text>
<text text-anchor="middle" x="80" y="-56.5" font-family="FreeSans" font-size="10.00">SimpleLocalGraph&lt; T &gt;</text>
</a>
</g>
</g>
<!-- Node2 -->
<g id="node2" class="node">
<title>Node2</title>
<g id="a_node2"><a xlink:href="structDGtal_1_1concepts_1_1CAdjacency.html" target="_top" xlink:title=" ">
<polygon fill="white" stroke="black" points="660,-77 660,-96 845,-96 845,-77 660,-77"/>
<text text-anchor="middle" x="752.5" y="-84" font-family="FreeSans" font-size="10.00">DGtal::concepts::CAdjacency&lt; T &gt;</text>
</a>
</g>
</g>
<!-- Node1&#45;&gt;Node2 -->
<g id="edge1" class="edge">
<title>Node1&#45;&gt;Node2</title>
<path fill="none" stroke="midnightblue" d="M169.84,-81.15C192.02,-84.61 215.81,-87.74 238,-89.5 385.31,-101.15 557.13,-96.46 659.96,-91.7"/>
<polygon fill="midnightblue" stroke="midnightblue" points="170.2,-77.66 159.77,-79.54 169.09,-84.57 170.2,-77.66"/>
</g>
<!-- Node4 -->
<g id="node4" class="node">
<title>Node4</title>
<g id="a_node4"><a xlink:href="structDGtal_1_1concepts_1_1CUndirectedSimpleGraph.html" target="_top" xlink:title="Aim: Represents the concept of local graph: each vertex has neighboring vertices, but we do not neces...">
<polygon fill="white" stroke="black" points="238,-49.5 238,-79.5 398,-79.5 398,-49.5 238,-49.5"/>
<text text-anchor="start" x="246" y="-67.5" font-family="FreeSans" font-size="10.00">DGtal::concepts::CUndirected</text>
<text text-anchor="middle" x="318" y="-56.5" font-family="FreeSans" font-size="10.00">SimpleGraph&lt; T &gt;</text>
</a>
</g>
</g>
<!-- Node1&#45;&gt;Node4 -->
<g id="edge3" class="edge">
<title>Node1&#45;&gt;Node4</title>
<path fill="none" stroke="midnightblue" d="M170.34,-64.5C192.58,-64.5 216.27,-64.5 237.97,-64.5"/>
<polygon fill="midnightblue" stroke="midnightblue" points="170.24,-61 160.24,-64.5 170.24,-68 170.24,-61"/>
</g>
<!-- Node5 -->
<g id="node5" class="node">
<title>Node5</title>
<g id="a_node5"><a xlink:href="structDGtal_1_1concepts_1_1CUndirectedSimpleLocalGraph.html" target="_top" xlink:title=" ">
<polygon fill="white" stroke="black" points="238,-0.5 238,-30.5 398,-30.5 398,-0.5 238,-0.5"/>
<text text-anchor="start" x="246" y="-18.5" font-family="FreeSans" font-size="10.00">DGtal::concepts::CUndirected</text>
<text text-anchor="middle" x="318" y="-7.5" font-family="FreeSans" font-size="10.00">SimpleLocalGraph&lt; Adj &gt;</text>
</a>
</g>
</g>
<!-- Node1&#45;&gt;Node5 -->
<g id="edge4" class="edge">
<title>Node1&#45;&gt;Node5</title>
<path fill="none" stroke="orange" stroke-dasharray="5,2" d="M163.42,-47.39C189.9,-41.89 219.03,-35.84 244.73,-30.51"/>
<polygon fill="orange" stroke="orange" points="162.49,-44.01 153.41,-49.47 163.91,-50.86 162.49,-44.01"/>
<text text-anchor="middle" x="199" y="-45.5" font-family="FreeSans" font-size="10.00"> &lt; Adj &gt;</text>
</g>
<!-- Node3 -->
<g id="node3" class="node">
<title>Node3</title>
<g id="a_node3"><a xlink:href="structDGtal_1_1concepts_1_1CDomainAdjacency.html" target="_top" xlink:title="Aim: Refines the concept CAdjacency by telling that the adjacency is specific to a given domain of th...">
<polygon fill="white" stroke="black" points="882,-71.5 882,-101.5 1027,-101.5 1027,-71.5 882,-71.5"/>
<text text-anchor="start" x="890" y="-89.5" font-family="FreeSans" font-size="10.00">DGtal::concepts::CDomain</text>
<text text-anchor="middle" x="954.5" y="-78.5" font-family="FreeSans" font-size="10.00">Adjacency&lt; T &gt;</text>
</a>
</g>
</g>
<!-- Node2&#45;&gt;Node3 -->
<g id="edge2" class="edge">
<title>Node2&#45;&gt;Node3</title>
<path fill="none" stroke="midnightblue" d="M855.16,-86.5C864.16,-86.5 873.13,-86.5 881.8,-86.5"/>
<polygon fill="midnightblue" stroke="midnightblue" points="855.01,-83 845.01,-86.5 855.01,-90 855.01,-83"/>
</g>
<!-- Node6 -->
<g id="node6" class="node">
<title>Node6</title>
<g id="a_node6"><a xlink:href="structDGtal_1_1concepts_1_1CAdjacency.html" target="_top" xlink:title="Aim: The concept CAdjacency defines an elementary adjacency relation between points of a digital spac...">
<polygon fill="white" stroke="black" points="435,-37.5 435,-67.5 592,-67.5 592,-37.5 435,-37.5"/>
<text text-anchor="start" x="443" y="-55.5" font-family="FreeSans" font-size="10.00">DGtal::concepts::CAdjacency</text>
<text text-anchor="middle" x="513.5" y="-44.5" font-family="FreeSans" font-size="10.00">&lt; Adj &gt;</text>
</a>
</g>
</g>
<!-- Node5&#45;&gt;Node6 -->
<g id="edge5" class="edge">
<title>Node5&#45;&gt;Node6</title>
<path fill="none" stroke="midnightblue" d="M407.53,-32.43C416.63,-34.17 425.83,-35.93 434.81,-37.64"/>
<polygon fill="midnightblue" stroke="midnightblue" points="408.18,-28.99 397.7,-30.55 406.87,-35.87 408.18,-28.99"/>
</g>
<!-- Node6&#45;&gt;Node2 -->
<g id="edge6" class="edge">
<title>Node6&#45;&gt;Node2</title>
<path fill="none" stroke="orange" stroke-dasharray="5,2" d="M602.11,-65.07C629.61,-69.01 659.49,-73.3 685.25,-77"/>
<polygon fill="orange" stroke="orange" points="602.5,-61.59 592.1,-63.63 601.5,-68.52 602.5,-61.59"/>
<text text-anchor="middle" x="626" y="-73.5" font-family="FreeSans" font-size="10.00"> &lt; T &gt;</text>
</g>
</g>
</svg>
