<?xml version="1.0" encoding="UTF-8" standalone="no"?>
<!DOCTYPE svg PUBLIC "-//W3C//DTD SVG 1.1//EN"
 "http://www.w3.org/Graphics/SVG/1.1/DTD/svg11.dtd">
<!-- Generated by graphviz version 2.43.0 (0)
 -->
<!-- Title: DGtal::Policy&lt; TSpace, TDomain, BijectiveRotation &gt; Pages: 1 -->
<svg width="743pt" height="209pt"
 viewBox="0.00 0.00 743.00 208.50" xmlns="http://www.w3.org/2000/svg" xmlns:xlink="http://www.w3.org/1999/xlink">
<g id="graph0" class="graph" transform="scale(1 1) rotate(0) translate(4 204.5)">
<title>DGtal::Policy&lt; TSpace, TDomain, BijectiveRotation &gt;</title>
<polygon fill="white" stroke="transparent" points="-4,4 -4,-204.5 739,-204.5 739,4 -4,4"/>
<!-- Node1 -->
<g id="node1" class="node">
<title>Node1</title>
<g id="a_node1"><a xlink:title="Policy : ,.">
<polygon fill="#bfbfbf" stroke="black" points="0,-93 0,-123 165,-123 165,-93 0,-93"/>
<text text-anchor="start" x="8" y="-111" font-family="FreeSans" font-size="10.00">DGtal::Policy&lt; TSpace,</text>
<text text-anchor="middle" x="82.5" y="-100" font-family="FreeSans" font-size="10.00"> TDomain, BijectiveRotation &gt;</text>
</a>
</g>
</g>
<!-- Node2 -->
<g id="node2" class="node">
<title>Node2</title>
<g id="a_node2"><a xlink:href="structDGtal_1_1Policy.html" target="_top" xlink:title=" ">
<polygon fill="white" stroke="black" points="306,-93 306,-123 477,-123 477,-93 306,-93"/>
<text text-anchor="start" x="314" y="-111" font-family="FreeSans" font-size="10.00">DGtal::Policy&lt; TSpace,</text>
<text text-anchor="middle" x="391.5" y="-100" font-family="FreeSans" font-size="10.00"> TDomain, TBijectiveRotation &gt;</text>
</a>
</g>
</g>
<!-- Node1&#45;&gt;Node2 -->
<g id="edge1" class="edge">
<title>Node1&#45;&gt;Node2</title>
<path fill="none" stroke="orange" stroke-dasharray="5,2" d="M175.45,-108C216.86,-108 265.43,-108 305.92,-108"/>
<polygon fill="orange" stroke="orange" points="175.37,-104.5 165.37,-108 175.37,-111.5 175.37,-104.5"/>
<text text-anchor="start" x="183" y="-122" font-family="FreeSans" font-size="10.00"> &lt; TSpace, TDomain,</text>
<text text-anchor="middle" x="235.5" y="-111" font-family="FreeSans" font-size="10.00"> TBijectiveRotation &gt;</text>
</g>
<!-- Node3 -->
<g id="node3" class="node">
<title>Node3</title>
<g id="a_node3"><a xlink:href="structDGtal_1_1L2.html" target="_top" xlink:title=" ">
<polygon fill="white" stroke="black" points="539,-170 539,-200 710,-200 710,-170 539,-170"/>
<text text-anchor="start" x="547" y="-188" font-family="FreeSans" font-size="10.00">DGtal::L2&lt; TSpace,</text>
<text text-anchor="middle" x="624.5" y="-177" font-family="FreeSans" font-size="10.00"> TDomain, TBijectiveRotation &gt;</text>
</a>
</g>
</g>
<!-- Node2&#45;&gt;Node3 -->
<g id="edge2" class="edge">
<title>Node2&#45;&gt;Node3</title>
<path fill="none" stroke="midnightblue" d="M432.06,-127.6C455.45,-138.6 485.91,-151.89 514,-161 524.18,-164.3 535.04,-167.29 545.82,-169.95"/>
<polygon fill="midnightblue" stroke="midnightblue" points="433.35,-124.34 422.82,-123.21 430.34,-130.66 433.35,-124.34"/>
</g>
<!-- Node4 -->
<g id="node4" class="node">
<title>Node4</title>
<g id="a_node4"><a xlink:href="structDGtal_1_1LcontinuityPolicy.html" target="_top" xlink:title=" ">
<polygon fill="white" stroke="black" points="514,-121 514,-151 735,-151 735,-121 514,-121"/>
<text text-anchor="start" x="522" y="-139" font-family="FreeSans" font-size="10.00">DGtal::LcontinuityPolicy</text>
<text text-anchor="middle" x="624.5" y="-128" font-family="FreeSans" font-size="10.00">&lt; TSpace, TDomain, TBijectiveRotation &gt;</text>
</a>
</g>
</g>
<!-- Node2&#45;&gt;Node4 -->
<g id="edge3" class="edge">
<title>Node2&#45;&gt;Node4</title>
<path fill="none" stroke="midnightblue" d="M487.41,-119.5C496.18,-120.57 505.11,-121.65 513.99,-122.73"/>
<polygon fill="midnightblue" stroke="midnightblue" points="487.55,-116 477.2,-118.27 486.71,-122.95 487.55,-116"/>
</g>
<!-- Node5 -->
<g id="node5" class="node">
<title>Node5</title>
<g id="a_node5"><a xlink:href="structDGtal_1_1LinfPolicy.html" target="_top" xlink:title=" ">
<polygon fill="white" stroke="black" points="544.5,-60.5 544.5,-101.5 704.5,-101.5 704.5,-60.5 544.5,-60.5"/>
<text text-anchor="start" x="552.5" y="-89.5" font-family="FreeSans" font-size="10.00">DGtal::LinfPolicy&lt;</text>
<text text-anchor="start" x="552.5" y="-78.5" font-family="FreeSans" font-size="10.00"> TSpace, TDomain, TBijective</text>
<text text-anchor="middle" x="624.5" y="-67.5" font-family="FreeSans" font-size="10.00">Rotation &gt;</text>
</a>
</g>
</g>
<!-- Node2&#45;&gt;Node5 -->
<g id="edge4" class="edge">
<title>Node2&#45;&gt;Node5</title>
<path fill="none" stroke="midnightblue" d="M487.31,-96.92C506.21,-94.71 525.87,-92.41 544.18,-90.27"/>
<polygon fill="midnightblue" stroke="midnightblue" points="486.73,-93.46 477.2,-98.1 487.54,-100.41 486.73,-93.46"/>
</g>
<!-- Node6 -->
<g id="node6" class="node">
<title>Node6</title>
<g id="a_node6"><a xlink:href="structDGtal_1_1MixedPolicy.html" target="_top" xlink:title=" ">
<polygon fill="white" stroke="black" points="540.5,-0.5 540.5,-41.5 708.5,-41.5 708.5,-0.5 540.5,-0.5"/>
<text text-anchor="start" x="548.5" y="-29.5" font-family="FreeSans" font-size="10.00">DGtal::MixedPolicy</text>
<text text-anchor="start" x="548.5" y="-18.5" font-family="FreeSans" font-size="10.00">&lt; TSpace, TDomain, TBijective</text>
<text text-anchor="middle" x="624.5" y="-7.5" font-family="FreeSans" font-size="10.00">Rotation &gt;</text>
</a>
</g>
</g>
<!-- Node2&#45;&gt;Node6 -->
<g id="edge5" class="edge">
<title>Node2&#45;&gt;Node6</title>
<path fill="none" stroke="midnightblue" d="M429.86,-88.43C453.54,-76.55 485.05,-61.67 514,-51 523.06,-47.66 532.67,-44.5 542.28,-41.57"/>
<polygon fill="midnightblue" stroke="midnightblue" points="428.21,-85.35 420.87,-92.99 431.38,-91.59 428.21,-85.35"/>
</g>
</g>
</svg>
