<?xml version="1.0" encoding="UTF-8" standalone="no"?>
<!DOCTYPE svg PUBLIC "-//W3C//DTD SVG 1.1//EN"
 "http://www.w3.org/Graphics/SVG/1.1/DTD/svg11.dtd">
<!-- Generated by graphviz version 2.43.0 (0)
 -->
<!-- Title: DGtal::NormalFromDCAEstimator&lt; DCAComputer &gt; Pages: 1 -->
<svg width="792pt" height="51pt"
 viewBox="0.00 0.00 792.00 51.00" xmlns="http://www.w3.org/2000/svg" xmlns:xlink="http://www.w3.org/1999/xlink">
<g id="graph0" class="graph" transform="scale(1 1) rotate(0) translate(4 47)">
<title>DGtal::NormalFromDCAEstimator&lt; DCAComputer &gt;</title>
<polygon fill="white" stroke="transparent" points="-4,4 -4,-47 788,-47 788,4 -4,4"/>
<!-- Node1 -->
<g id="node1" class="node">
<title>Node1</title>
<g id="a_node1"><a xlink:title=" ">
<polygon fill="#bfbfbf" stroke="black" points="605,-6 605,-36 784,-36 784,-6 605,-6"/>
<text text-anchor="start" x="613" y="-24" font-family="FreeSans" font-size="10.00">DGtal::NormalFromDCAEstimator</text>
<text text-anchor="middle" x="694.5" y="-13" font-family="FreeSans" font-size="10.00">&lt; DCAComputer &gt;</text>
</a>
</g>
</g>
<!-- Node2 -->
<g id="node2" class="node">
<title>Node2</title>
<g id="a_node2"><a xlink:href="classDGtal_1_1detail_1_1PosDepScaleIndepSCEstimator.html" target="_top" xlink:title=" ">
<polygon fill="white" stroke="black" points="381,-0.5 381,-41.5 568,-41.5 568,-0.5 381,-0.5"/>
<text text-anchor="start" x="389" y="-29.5" font-family="FreeSans" font-size="10.00">DGtal::detail::PosDepScale</text>
<text text-anchor="start" x="389" y="-18.5" font-family="FreeSans" font-size="10.00">IndepSCEstimator&lt; DCAComputer,</text>
<text text-anchor="middle" x="474.5" y="-7.5" font-family="FreeSans" font-size="10.00"> detail::NormalVectorFromDCA &gt;</text>
</a>
</g>
</g>
<!-- Node2&#45;&gt;Node1 -->
<g id="edge1" class="edge">
<title>Node2&#45;&gt;Node1</title>
<path fill="none" stroke="midnightblue" d="M578.3,-21C587.22,-21 596.19,-21 604.98,-21"/>
<polygon fill="midnightblue" stroke="midnightblue" points="578.27,-17.5 568.27,-21 578.27,-24.5 578.27,-17.5"/>
</g>
<!-- Node3 -->
<g id="node3" class="node">
<title>Node3</title>
<g id="a_node3"><a xlink:href="classDGtal_1_1detail_1_1PosDepScaleIndepSCEstimator.html" target="_top" xlink:title=" ">
<polygon fill="white" stroke="black" points="0,-0.5 0,-41.5 215,-41.5 215,-0.5 0,-0.5"/>
<text text-anchor="start" x="8" y="-29.5" font-family="FreeSans" font-size="10.00">DGtal::detail::PosDepScale</text>
<text text-anchor="start" x="8" y="-18.5" font-family="FreeSans" font-size="10.00">IndepSCEstimator&lt; TSegmentComputer,</text>
<text text-anchor="middle" x="107.5" y="-7.5" font-family="FreeSans" font-size="10.00"> Functor, ReturnType &gt;</text>
</a>
</g>
</g>
<!-- Node3&#45;&gt;Node2 -->
<g id="edge2" class="edge">
<title>Node3&#45;&gt;Node2</title>
<path fill="none" stroke="orange" stroke-dasharray="5,2" d="M225.33,-21C275.59,-21 333.51,-21 380.76,-21"/>
<polygon fill="orange" stroke="orange" points="225.05,-17.5 215.05,-21 225.05,-24.5 225.05,-17.5"/>
<text text-anchor="start" x="233" y="-35" font-family="FreeSans" font-size="10.00"> &lt; DCAComputer, detail</text>
<text text-anchor="middle" x="298" y="-24" font-family="FreeSans" font-size="10.00">::NormalVectorFromDCA &gt;</text>
</g>
</g>
</svg>
