<?xml version="1.0" encoding="UTF-8" standalone="no"?>
<!DOCTYPE svg PUBLIC "-//W3C//DTD SVG 1.1//EN"
 "http://www.w3.org/Graphics/SVG/1.1/DTD/svg11.dtd">
<!-- Generated by graphviz version 2.43.0 (0)
 -->
<!-- Title: DGtal::DiscreteExteriorCalculus&lt; dimEmbedded, dimAmbient, TLinearAlgebraBackend, TInteger &gt; Pages: 1 -->
<svg width="222pt" height="128pt"
 viewBox="0.00 0.00 222.00 128.00" xmlns="http://www.w3.org/2000/svg" xmlns:xlink="http://www.w3.org/1999/xlink">
<g id="graph0" class="graph" transform="scale(1 1) rotate(0) translate(4 124)">
<title>DGtal::DiscreteExteriorCalculus&lt; dimEmbedded, dimAmbient, TLinearAlgebraBackend, TInteger &gt;</title>
<polygon fill="white" stroke="transparent" points="-4,4 -4,-124 218,-124 218,4 -4,4"/>
<!-- Node1 -->
<g id="node1" class="node">
<title>Node1</title>
<g id="a_node1"><a xlink:title="Aim: DiscreteExteriorCalculus represents a calculus in the dec package. This is the main structure in...">
<polygon fill="#bfbfbf" stroke="black" points="0,-78.5 0,-119.5 192,-119.5 192,-78.5 0,-78.5"/>
<text text-anchor="start" x="8" y="-107.5" font-family="FreeSans" font-size="10.00">DGtal::DiscreteExteriorCalculus</text>
<text text-anchor="start" x="8" y="-96.5" font-family="FreeSans" font-size="10.00">&lt; dimEmbedded, dimAmbient,</text>
<text text-anchor="middle" x="96" y="-85.5" font-family="FreeSans" font-size="10.00"> TLinearAlgebraBackend, TInteger &gt;</text>
</a>
</g>
</g>
<!-- Node2 -->
<g id="node2" class="node">
<title>Node2</title>
<g id="a_node2"><a xlink:href="classDGtal_1_1DiscreteExteriorCalculus.html" target="_top" xlink:title=" ">
<polygon fill="white" stroke="black" points="11,-0.5 11,-30.5 181,-30.5 181,-0.5 11,-0.5"/>
<text text-anchor="start" x="19" y="-18.5" font-family="FreeSans" font-size="10.00">DGtal::DiscreteExteriorCalculus</text>
<text text-anchor="middle" x="96" y="-7.5" font-family="FreeSans" font-size="10.00">&lt; 2, 2, LinearAlgebra &gt;</text>
</a>
</g>
</g>
<!-- Node1&#45;&gt;Node2 -->
<g id="edge1" class="edge">
<title>Node1&#45;&gt;Node2</title>
<path fill="none" stroke="orange" stroke-dasharray="5,2" d="M96,-68.03C96,-55.26 96,-40.97 96,-30.68"/>
<polygon fill="orange" stroke="orange" points="92.5,-68.27 96,-78.27 99.5,-68.27 92.5,-68.27"/>
<text text-anchor="middle" x="155" y="-52" font-family="FreeSans" font-size="10.00"> &lt; 2, 2, LinearAlgebra &gt;</text>
</g>
</g>
</svg>
