<?xml version="1.0" encoding="UTF-8" standalone="no"?>
<!DOCTYPE svg PUBLIC "-//W3C//DTD SVG 1.1//EN"
 "http://www.w3.org/Graphics/SVG/1.1/DTD/svg11.dtd">
<!-- Generated by graphviz version 2.43.0 (0)
 -->
<!-- Title: DGtal::LambdaMST3D&lt; DSSSegmentationComputer, LambdaFunction, DSSFilter &gt; Pages: 1 -->
<svg width="1041pt" height="101pt"
 viewBox="0.00 0.00 1041.00 100.50" xmlns="http://www.w3.org/2000/svg" xmlns:xlink="http://www.w3.org/1999/xlink">
<g id="graph0" class="graph" transform="scale(1 1) rotate(0) translate(4 96.5)">
<title>DGtal::LambdaMST3D&lt; DSSSegmentationComputer, LambdaFunction, DSSFilter &gt;</title>
<polygon fill="white" stroke="transparent" points="-4,4 -4,-96.5 1037,-96.5 1037,4 -4,4"/>
<!-- Node1 -->
<g id="node1" class="node">
<title>Node1</title>
<g id="a_node1"><a xlink:title="Aim: Simplify creation of Lambda MST tangent estimator.">
<polygon fill="#bfbfbf" stroke="black" points="866,-17 866,-58 1033,-58 1033,-17 866,-17"/>
<text text-anchor="start" x="874" y="-46" font-family="FreeSans" font-size="10.00">DGtal::LambdaMST3D</text>
<text text-anchor="start" x="874" y="-35" font-family="FreeSans" font-size="10.00">&lt; DSSSegmentationComputer,</text>
<text text-anchor="middle" x="949.5" y="-24" font-family="FreeSans" font-size="10.00"> LambdaFunction, DSSFilter &gt;</text>
</a>
</g>
</g>
<!-- Node2 -->
<g id="node2" class="node">
<title>Node2</title>
<g id="a_node2"><a xlink:href="classDGtal_1_1LambdaMST3DEstimator.html" target="_top" xlink:title=" ">
<polygon fill="white" stroke="black" points="527,-0.5 527,-74.5 829,-74.5 829,-0.5 527,-0.5"/>
<text text-anchor="start" x="535" y="-62.5" font-family="FreeSans" font-size="10.00">DGtal::LambdaMST3DEstimator</text>
<text text-anchor="start" x="535" y="-51.5" font-family="FreeSans" font-size="10.00">&lt; Z3i::Space, DSSSegmentationComputer,</text>
<text text-anchor="start" x="535" y="-40.5" font-family="FreeSans" font-size="10.00"> TangentFromDSS3DFunctor&lt; DSSSegmentationComputer</text>
<text text-anchor="start" x="535" y="-29.5" font-family="FreeSans" font-size="10.00">::SegmentComputer, functors::Lambda64Function</text>
<text text-anchor="start" x="535" y="-18.5" font-family="FreeSans" font-size="10.00"> &gt;, DSSMuteFilter&lt; typename DSSSegmentationComputer</text>
<text text-anchor="middle" x="678" y="-7.5" font-family="FreeSans" font-size="10.00">::SegmentComputer &gt; &gt;</text>
</a>
</g>
</g>
<!-- Node2&#45;&gt;Node1 -->
<g id="edge1" class="edge">
<title>Node2&#45;&gt;Node1</title>
<path fill="none" stroke="midnightblue" d="M839.38,-37.5C848.41,-37.5 857.29,-37.5 865.84,-37.5"/>
<polygon fill="midnightblue" stroke="midnightblue" points="839.12,-34 829.12,-37.5 839.12,-41 839.12,-34"/>
</g>
<!-- Node3 -->
<g id="node3" class="node">
<title>Node3</title>
<g id="a_node3"><a xlink:href="classDGtal_1_1LambdaMST3DEstimator.html" target="_top" xlink:title=" ">
<polygon fill="white" stroke="black" points="0,-17 0,-58 171,-58 171,-17 0,-17"/>
<text text-anchor="start" x="8" y="-46" font-family="FreeSans" font-size="10.00">DGtal::LambdaMST3DEstimator</text>
<text text-anchor="start" x="8" y="-35" font-family="FreeSans" font-size="10.00">&lt; TSpace, TSegmentation,</text>
<text text-anchor="middle" x="85.5" y="-24" font-family="FreeSans" font-size="10.00"> Functor, DSSFilter &gt;</text>
</a>
</g>
</g>
<!-- Node3&#45;&gt;Node2 -->
<g id="edge2" class="edge">
<title>Node3&#45;&gt;Node2</title>
<path fill="none" stroke="orange" stroke-dasharray="5,2" d="M181.37,-37.5C274.56,-37.5 418.2,-37.5 526.89,-37.5"/>
<polygon fill="orange" stroke="orange" points="181.1,-34 171.1,-37.5 181.1,-41 181.1,-34"/>
<text text-anchor="start" x="189" y="-84.5" font-family="FreeSans" font-size="10.00"> &lt; Z3i::Space, DSSSegmentation</text>
<text text-anchor="start" x="189" y="-73.5" font-family="FreeSans" font-size="10.00">Computer, TangentFromDSS3DFunctor</text>
<text text-anchor="start" x="189" y="-62.5" font-family="FreeSans" font-size="10.00">&lt; DSSSegmentationComputer::SegmentComputer,</text>
<text text-anchor="start" x="189" y="-51.5" font-family="FreeSans" font-size="10.00"> functors::Lambda64Function &gt;, DSSMuteFilter</text>
<text text-anchor="middle" x="349" y="-40.5" font-family="FreeSans" font-size="10.00">&lt; typename DSSSegmentationComputer::SegmentComputer &gt; &gt;</text>
</g>
</g>
</svg>
