<?xml version="1.0" encoding="UTF-8" standalone="no"?>
<!DOCTYPE svg PUBLIC "-//W3C//DTD SVG 1.1//EN"
 "http://www.w3.org/Graphics/SVG/1.1/DTD/svg11.dtd">
<!-- Generated by graphviz version 2.43.0 (0)
 -->
<!-- Title: DGtal::VoxelComplex&lt; TKSpace, TCellContainer &gt; Pages: 1 -->
<svg width="1032pt" height="88pt"
 viewBox="0.00 0.00 1032.00 88.00" xmlns="http://www.w3.org/2000/svg" xmlns:xlink="http://www.w3.org/1999/xlink">
<g id="graph0" class="graph" transform="scale(1 1) rotate(0) translate(4 84)">
<title>DGtal::VoxelComplex&lt; TKSpace, TCellContainer &gt;</title>
<polygon fill="white" stroke="transparent" points="-4,4 -4,-84 1028,-84 1028,4 -4,4"/>
<!-- Node1 -->
<g id="node1" class="node">
<title>Node1</title>
<g id="a_node1"><a xlink:title="This class represents a voxel complex living in some Khalimsky space. Voxel complexes are derived fro...">
<polygon fill="#bfbfbf" stroke="black" points="571,-24.5 571,-54.5 729,-54.5 729,-24.5 571,-24.5"/>
<text text-anchor="start" x="579" y="-42.5" font-family="FreeSans" font-size="10.00">DGtal::VoxelComplex</text>
<text text-anchor="middle" x="650" y="-31.5" font-family="FreeSans" font-size="10.00">&lt; TKSpace, TCellContainer &gt;</text>
</a>
</g>
</g>
<!-- Node4 -->
<g id="node4" class="node">
<title>Node4</title>
<g id="a_node4"><a xlink:href="classDGtal_1_1VoxelComplex.html" target="_top" xlink:title=" ">
<polygon fill="white" stroke="black" points="888,-49.5 888,-79.5 1024,-79.5 1024,-49.5 888,-49.5"/>
<text text-anchor="start" x="896" y="-67.5" font-family="FreeSans" font-size="10.00">DGtal::VoxelComplex</text>
<text text-anchor="middle" x="956" y="-56.5" font-family="FreeSans" font-size="10.00">&lt; KSpace, FixtureMap &gt;</text>
</a>
</g>
</g>
<!-- Node1&#45;&gt;Node4 -->
<g id="edge3" class="edge">
<title>Node1&#45;&gt;Node4</title>
<path fill="none" stroke="orange" stroke-dasharray="5,2" d="M739.53,-46.78C786.86,-50.67 844.18,-55.39 887.81,-58.97"/>
<polygon fill="orange" stroke="orange" points="739.54,-43.27 729.29,-45.94 738.97,-50.25 739.54,-43.27"/>
<text text-anchor="middle" x="808.5" y="-59.5" font-family="FreeSans" font-size="10.00"> &lt; KSpace, FixtureMap &gt;</text>
</g>
<!-- Node5 -->
<g id="node5" class="node">
<title>Node5</title>
<g id="a_node5"><a xlink:href="classDGtal_1_1VoxelComplex.html" target="_top" xlink:title=" ">
<polygon fill="white" stroke="black" points="896,-0.5 896,-30.5 1016,-30.5 1016,-0.5 896,-0.5"/>
<text text-anchor="start" x="904" y="-18.5" font-family="FreeSans" font-size="10.00">DGtal::VoxelComplex</text>
<text text-anchor="middle" x="956" y="-7.5" font-family="FreeSans" font-size="10.00">&lt; KSpace &gt;</text>
</a>
</g>
</g>
<!-- Node1&#45;&gt;Node5 -->
<g id="edge4" class="edge">
<title>Node1&#45;&gt;Node5</title>
<path fill="none" stroke="orange" stroke-dasharray="5,2" d="M739.24,-32.12C741.86,-31.91 744.45,-31.7 747,-31.5 797.18,-27.48 854.19,-23.11 895.82,-19.95"/>
<polygon fill="orange" stroke="orange" points="738.75,-28.65 729.06,-32.95 739.31,-35.63 738.75,-28.65"/>
<text text-anchor="middle" x="808.5" y="-34.5" font-family="FreeSans" font-size="10.00"> &lt; KSpace &gt;</text>
</g>
<!-- Node2 -->
<g id="node2" class="node">
<title>Node2</title>
<g id="a_node2"><a xlink:href="classDGtal_1_1CubicalComplex.html" target="_top" xlink:title=" ">
<polygon fill="white" stroke="black" points="335,-13.5 335,-65.5 534,-65.5 534,-13.5 335,-13.5"/>
<text text-anchor="start" x="343" y="-53.5" font-family="FreeSans" font-size="10.00">DGtal::CubicalComplex</text>
<text text-anchor="start" x="343" y="-42.5" font-family="FreeSans" font-size="10.00">&lt; TKSpace, typename TKSpace</text>
<text text-anchor="start" x="343" y="-31.5" font-family="FreeSans" font-size="10.00">::template CellMap&lt; CubicalCellData</text>
<text text-anchor="middle" x="434.5" y="-20.5" font-family="FreeSans" font-size="10.00"> &gt;::Type &gt;</text>
</a>
</g>
</g>
<!-- Node2&#45;&gt;Node1 -->
<g id="edge1" class="edge">
<title>Node2&#45;&gt;Node1</title>
<path fill="none" stroke="midnightblue" d="M544.27,-39.5C553.26,-39.5 562.24,-39.5 570.94,-39.5"/>
<polygon fill="midnightblue" stroke="midnightblue" points="544.13,-36 534.13,-39.5 544.13,-43 544.13,-36"/>
</g>
<!-- Node3 -->
<g id="node3" class="node">
<title>Node3</title>
<g id="a_node3"><a xlink:href="classDGtal_1_1CubicalComplex.html" target="_top" xlink:title="Aim: This class represents an arbitrary cubical complex living in some Khalimsky space....">
<polygon fill="white" stroke="black" points="0,-24.5 0,-54.5 158,-54.5 158,-24.5 0,-24.5"/>
<text text-anchor="start" x="8" y="-42.5" font-family="FreeSans" font-size="10.00">DGtal::CubicalComplex</text>
<text text-anchor="middle" x="79" y="-31.5" font-family="FreeSans" font-size="10.00">&lt; TKSpace, TCellContainer &gt;</text>
</a>
</g>
</g>
<!-- Node3&#45;&gt;Node2 -->
<g id="edge2" class="edge">
<title>Node3&#45;&gt;Node2</title>
<path fill="none" stroke="orange" stroke-dasharray="5,2" d="M168.28,-39.5C218.89,-39.5 282.54,-39.5 334.8,-39.5"/>
<polygon fill="orange" stroke="orange" points="168.01,-36 158.01,-39.5 168.01,-43 168.01,-36"/>
<text text-anchor="start" x="176" y="-64.5" font-family="FreeSans" font-size="10.00"> &lt; TKSpace, typename</text>
<text text-anchor="start" x="176" y="-53.5" font-family="FreeSans" font-size="10.00"> TKSpace::template CellMap</text>
<text text-anchor="middle" x="246.5" y="-42.5" font-family="FreeSans" font-size="10.00">&lt; CubicalCellData &gt;::Type &gt;</text>
</g>
</g>
</svg>
