<?xml version="1.0" encoding="UTF-8" standalone="no"?>
<!DOCTYPE svg PUBLIC "-//W3C//DTD SVG 1.1//EN"
 "http://www.w3.org/Graphics/SVG/1.1/DTD/svg11.dtd">
<!-- Generated by graphviz version 2.43.0 (0)
 -->
<!-- Title: DGtal::Board3D&lt; Space, KSpace &gt; Pages: 1 -->
<svg width="174pt" height="196pt"
 viewBox="0.00 0.00 174.00 196.00" xmlns="http://www.w3.org/2000/svg" xmlns:xlink="http://www.w3.org/1999/xlink">
<g id="graph0" class="graph" transform="scale(1 1) rotate(0) translate(4 192)">
<title>DGtal::Board3D&lt; Space, KSpace &gt;</title>
<polygon fill="white" stroke="transparent" points="-4,4 -4,-192 170,-192 170,4 -4,4"/>
<!-- Node1 -->
<g id="node1" class="node">
<title>Node1</title>
<g id="a_node1"><a xlink:title="The class Board3D is a type of Display3D which export the figures in the format OBJ/MTL when calling ...">
<polygon fill="#bfbfbf" stroke="black" points="4,-0.5 4,-30.5 140,-30.5 140,-0.5 4,-0.5"/>
<text text-anchor="start" x="12" y="-18.5" font-family="FreeSans" font-size="10.00">DGtal::Board3D&lt; Space,</text>
<text text-anchor="middle" x="72" y="-7.5" font-family="FreeSans" font-size="10.00"> KSpace &gt;</text>
</a>
</g>
</g>
<!-- Node2 -->
<g id="node2" class="node">
<title>Node2</title>
<g id="a_node2"><a xlink:href="classDGtal_1_1Display3D.html" target="_top" xlink:title=" ">
<polygon fill="white" stroke="black" points="8,-68.5 8,-98.5 136,-98.5 136,-68.5 8,-68.5"/>
<text text-anchor="start" x="16" y="-86.5" font-family="FreeSans" font-size="10.00">DGtal::Display3D&lt; Z3i</text>
<text text-anchor="middle" x="72" y="-75.5" font-family="FreeSans" font-size="10.00">::Space, Z3i::KSpace &gt;</text>
</a>
</g>
</g>
<!-- Node2&#45;&gt;Node1 -->
<g id="edge1" class="edge">
<title>Node2&#45;&gt;Node1</title>
<path fill="none" stroke="midnightblue" d="M72,-58.03C72,-48.86 72,-38.74 72,-30.79"/>
<polygon fill="midnightblue" stroke="midnightblue" points="68.5,-58.18 72,-68.18 75.5,-58.18 68.5,-58.18"/>
</g>
<!-- Node3 -->
<g id="node3" class="node">
<title>Node3</title>
<g id="a_node3"><a xlink:href="classDGtal_1_1Display3D.html" target="_top" xlink:title="Aim: This semi abstract class defines the stream mechanism to display 3d primitive (like BallVector,...">
<polygon fill="white" stroke="black" points="0,-157.5 0,-187.5 144,-187.5 144,-157.5 0,-157.5"/>
<text text-anchor="start" x="8" y="-175.5" font-family="FreeSans" font-size="10.00">DGtal::Display3D&lt; Space,</text>
<text text-anchor="middle" x="72" y="-164.5" font-family="FreeSans" font-size="10.00"> KSpace &gt;</text>
</a>
</g>
</g>
<!-- Node3&#45;&gt;Node2 -->
<g id="edge2" class="edge">
<title>Node3&#45;&gt;Node2</title>
<path fill="none" stroke="orange" stroke-dasharray="5,2" d="M72,-147.09C72,-131.44 72,-111.68 72,-98.6"/>
<polygon fill="orange" stroke="orange" points="68.5,-147.13 72,-157.13 75.5,-147.13 68.5,-147.13"/>
<text text-anchor="start" x="72" y="-131" font-family="FreeSans" font-size="10.00"> &lt; Z3i::Space, Z3i::</text>
<text text-anchor="middle" x="119" y="-120" font-family="FreeSans" font-size="10.00">KSpace &gt;</text>
</g>
</g>
</svg>
