<?xml version="1.0" encoding="UTF-8" standalone="no"?>
<!DOCTYPE svg PUBLIC "-//W3C//DTD SVG 1.1//EN"
 "http://www.w3.org/Graphics/SVG/1.1/DTD/svg11.dtd">
<!-- Generated by graphviz version 2.43.0 (0)
 -->
<!-- Title: DGtal::GradientColorMap&lt; PValue, PDefaultPreset, PDefaultFirstColor, PDefaultLastColor &gt; Pages: 1 -->
<svg width="476pt" height="160pt"
 viewBox="0.00 0.00 476.00 159.50" xmlns="http://www.w3.org/2000/svg" xmlns:xlink="http://www.w3.org/1999/xlink">
<g id="graph0" class="graph" transform="scale(1 1) rotate(0) translate(4 155.5)">
<title>DGtal::GradientColorMap&lt; PValue, PDefaultPreset, PDefaultFirstColor, PDefaultLastColor &gt;</title>
<polygon fill="white" stroke="transparent" points="-4,4 -4,-155.5 472,-155.5 472,4 -4,4"/>
<!-- Node1 -->
<g id="node1" class="node">
<title>Node1</title>
<g id="a_node1"><a xlink:title="Aim: This class template may be used to (linearly) convert scalar values in a given range into a colo...">
<polygon fill="#bfbfbf" stroke="black" points="0,-44.5 0,-96.5 176,-96.5 176,-44.5 0,-44.5"/>
<text text-anchor="start" x="8" y="-84.5" font-family="FreeSans" font-size="10.00">DGtal::GradientColorMap</text>
<text text-anchor="start" x="8" y="-73.5" font-family="FreeSans" font-size="10.00">&lt; PValue, PDefaultPreset,</text>
<text text-anchor="start" x="8" y="-62.5" font-family="FreeSans" font-size="10.00"> PDefaultFirstColor, PDefaultLast</text>
<text text-anchor="middle" x="88" y="-51.5" font-family="FreeSans" font-size="10.00">Color &gt;</text>
</a>
</g>
</g>
<!-- Node2 -->
<g id="node2" class="node">
<title>Node2</title>
<g id="a_node2"><a xlink:href="classDGtal_1_1GradientColorMap.html" target="_top" xlink:title=" ">
<polygon fill="white" stroke="black" points="329,-110 329,-151 468,-151 468,-110 329,-110"/>
<text text-anchor="start" x="337" y="-139" font-family="FreeSans" font-size="10.00">DGtal::GradientColorMap</text>
<text text-anchor="start" x="337" y="-128" font-family="FreeSans" font-size="10.00">&lt; unsigned char, DGtal</text>
<text text-anchor="middle" x="398.5" y="-117" font-family="FreeSans" font-size="10.00">::CMAP_COOL &gt;</text>
</a>
</g>
</g>
<!-- Node1&#45;&gt;Node2 -->
<g id="edge1" class="edge">
<title>Node1&#45;&gt;Node2</title>
<path fill="none" stroke="orange" stroke-dasharray="5,2" d="M186.04,-94.81C188.72,-95.39 191.38,-95.96 194,-96.5 238.72,-105.76 289.37,-114.23 328.96,-120.4"/>
<polygon fill="orange" stroke="orange" points="186.78,-91.39 176.26,-92.65 185.26,-98.23 186.78,-91.39"/>
<text text-anchor="start" x="194" y="-130.5" font-family="FreeSans" font-size="10.00"> &lt; unsigned char, DGtal</text>
<text text-anchor="middle" x="252.5" y="-119.5" font-family="FreeSans" font-size="10.00">::CMAP_COOL &gt;</text>
</g>
<!-- Node3 -->
<g id="node3" class="node">
<title>Node3</title>
<g id="a_node3"><a xlink:href="classDGtal_1_1GradientColorMap.html" target="_top" xlink:title=" ">
<polygon fill="white" stroke="black" points="329,-50 329,-91 468,-91 468,-50 329,-50"/>
<text text-anchor="start" x="337" y="-79" font-family="FreeSans" font-size="10.00">DGtal::GradientColorMap</text>
<text text-anchor="start" x="337" y="-68" font-family="FreeSans" font-size="10.00">&lt; unsigned char, DGtal</text>
<text text-anchor="middle" x="398.5" y="-57" font-family="FreeSans" font-size="10.00">::CMAP_HOT &gt;</text>
</a>
</g>
</g>
<!-- Node1&#45;&gt;Node3 -->
<g id="edge2" class="edge">
<title>Node1&#45;&gt;Node3</title>
<path fill="none" stroke="orange" stroke-dasharray="5,2" d="M186.21,-70.5C232.48,-70.5 286.71,-70.5 328.64,-70.5"/>
<polygon fill="orange" stroke="orange" points="186.17,-67 176.17,-70.5 186.17,-74 186.17,-67"/>
<text text-anchor="start" x="194" y="-84.5" font-family="FreeSans" font-size="10.00"> &lt; unsigned char, DGtal</text>
<text text-anchor="middle" x="252.5" y="-73.5" font-family="FreeSans" font-size="10.00">::CMAP_HOT &gt;</text>
</g>
<!-- Node4 -->
<g id="node4" class="node">
<title>Node4</title>
<g id="a_node4"><a xlink:href="classDGtal_1_1GradientColorMap.html" target="_top" xlink:title=" ">
<polygon fill="white" stroke="black" points="329,-0.5 329,-30.5 468,-30.5 468,-0.5 329,-0.5"/>
<text text-anchor="start" x="337" y="-18.5" font-family="FreeSans" font-size="10.00">DGtal::GradientColorMap</text>
<text text-anchor="middle" x="398.5" y="-7.5" font-family="FreeSans" font-size="10.00">&lt; unsigned int &gt;</text>
</a>
</g>
</g>
<!-- Node1&#45;&gt;Node4 -->
<g id="edge3" class="edge">
<title>Node1&#45;&gt;Node4</title>
<path fill="none" stroke="orange" stroke-dasharray="5,2" d="M186.21,-53.17C232.48,-44.92 286.71,-35.25 328.64,-27.78"/>
<polygon fill="orange" stroke="orange" points="185.4,-49.76 176.17,-54.96 186.63,-56.65 185.4,-49.76"/>
<text text-anchor="middle" x="252.5" y="-53.5" font-family="FreeSans" font-size="10.00"> &lt; unsigned int &gt;</text>
</g>
</g>
</svg>
