<?xml version="1.0" encoding="UTF-8" standalone="no"?>
<!DOCTYPE svg PUBLIC "-//W3C//DTD SVG 1.1//EN"
 "http://www.w3.org/Graphics/SVG/1.1/DTD/svg11.dtd">
<!-- Generated by graphviz version 2.43.0 (0)
 -->
<!-- Title: DGtal::ImageContainerBySTLVector&lt; TDomain, TValue &gt; Pages: 1 -->
<svg width="670pt" height="88pt"
 viewBox="0.00 0.00 670.00 88.00" xmlns="http://www.w3.org/2000/svg" xmlns:xlink="http://www.w3.org/1999/xlink">
<g id="graph0" class="graph" transform="scale(1 1) rotate(0) translate(4 84)">
<title>DGtal::ImageContainerBySTLVector&lt; TDomain, TValue &gt;</title>
<polygon fill="white" stroke="transparent" points="-4,4 -4,-84 666,-84 666,4 -4,4"/>
<!-- Node1 -->
<g id="node1" class="node">
<title>Node1</title>
<g id="a_node1"><a xlink:title=" ">
<polygon fill="#bfbfbf" stroke="black" points="134,-24.5 134,-54.5 322,-54.5 322,-24.5 134,-24.5"/>
<text text-anchor="start" x="142" y="-42.5" font-family="FreeSans" font-size="10.00">DGtal::ImageContainerBySTLVector</text>
<text text-anchor="middle" x="228" y="-31.5" font-family="FreeSans" font-size="10.00">&lt; TDomain, TValue &gt;</text>
</a>
</g>
</g>
<!-- Node3 -->
<g id="node3" class="node">
<title>Node3</title>
<g id="a_node3"><a xlink:href="classDGtal_1_1ImageContainerBySTLVector.html" target="_top" xlink:title=" ">
<polygon fill="white" stroke="black" points="474,-49.5 474,-79.5 662,-79.5 662,-49.5 474,-49.5"/>
<text text-anchor="start" x="482" y="-67.5" font-family="FreeSans" font-size="10.00">DGtal::ImageContainerBySTLVector</text>
<text text-anchor="middle" x="568" y="-56.5" font-family="FreeSans" font-size="10.00">&lt; Domain, Storage * &gt;</text>
</a>
</g>
</g>
<!-- Node1&#45;&gt;Node3 -->
<g id="edge2" class="edge">
<title>Node1&#45;&gt;Node3</title>
<path fill="none" stroke="orange" stroke-dasharray="5,2" d="M332.35,-47.14C377.43,-50.48 429.89,-54.36 473.76,-57.6"/>
<polygon fill="orange" stroke="orange" points="332.49,-43.64 322.25,-46.4 331.97,-50.63 332.49,-43.64"/>
<text text-anchor="middle" x="398" y="-58.5" font-family="FreeSans" font-size="10.00"> &lt; Domain, Storage * &gt;</text>
</g>
<!-- Node4 -->
<g id="node4" class="node">
<title>Node4</title>
<g id="a_node4"><a xlink:href="classDGtal_1_1ImageContainerBySTLVector.html" target="_top" xlink:title=" ">
<polygon fill="white" stroke="black" points="474,-0.5 474,-30.5 662,-30.5 662,-0.5 474,-0.5"/>
<text text-anchor="start" x="482" y="-18.5" font-family="FreeSans" font-size="10.00">DGtal::ImageContainerBySTLVector</text>
<text text-anchor="middle" x="568" y="-7.5" font-family="FreeSans" font-size="10.00">&lt; Domain, Value &gt;</text>
</a>
</g>
</g>
<!-- Node1&#45;&gt;Node4 -->
<g id="edge3" class="edge">
<title>Node1&#45;&gt;Node4</title>
<path fill="none" stroke="orange" stroke-dasharray="5,2" d="M332.32,-32.05C334.91,-31.86 337.47,-31.68 340,-31.5 384.04,-28.36 432.88,-24.91 473.95,-22.03"/>
<polygon fill="orange" stroke="orange" points="331.99,-28.56 322.27,-32.77 332.49,-35.54 331.99,-28.56"/>
<text text-anchor="middle" x="398" y="-34.5" font-family="FreeSans" font-size="10.00"> &lt; Domain, Value &gt;</text>
</g>
<!-- Node2 -->
<g id="node2" class="node">
<title>Node2</title>
<g id="a_node2"><a xlink:title=" ">
<polygon fill="white" stroke="#bfbfbf" points="0,-30 0,-49 97,-49 97,-30 0,-30"/>
<text text-anchor="middle" x="48.5" y="-37" font-family="FreeSans" font-size="10.00">std::vector&lt; T &gt;</text>
</a>
</g>
</g>
<!-- Node2&#45;&gt;Node1 -->
<g id="edge1" class="edge">
<title>Node2&#45;&gt;Node1</title>
<path fill="none" stroke="midnightblue" d="M107.22,-39.5C115.74,-39.5 124.7,-39.5 133.72,-39.5"/>
<polygon fill="midnightblue" stroke="midnightblue" points="107.07,-36 97.07,-39.5 107.07,-43 107.07,-36"/>
</g>
</g>
</svg>
