<?xml version="1.0" encoding="UTF-8" standalone="no"?>
<!DOCTYPE svg PUBLIC "-//W3C//DTD SVG 1.1//EN"
 "http://www.w3.org/Graphics/SVG/1.1/DTD/svg11.dtd">
<!-- Generated by graphviz version 2.43.0 (0)
 -->
<!-- Title: DGtal::DistanceTransformation&lt; TSpace, TPointPredicate, TSeparableMetric, TImageContainer &gt; Pages: 1 -->
<svg width="931pt" height="84pt"
 viewBox="0.00 0.00 931.00 84.00" xmlns="http://www.w3.org/2000/svg" xmlns:xlink="http://www.w3.org/1999/xlink">
<g id="graph0" class="graph" transform="scale(1 1) rotate(0) translate(4 80)">
<title>DGtal::DistanceTransformation&lt; TSpace, TPointPredicate, TSeparableMetric, TImageContainer &gt;</title>
<polygon fill="white" stroke="transparent" points="-4,4 -4,-80 927,-80 927,4 -4,4"/>
<!-- Node1 -->
<g id="node1" class="node">
<title>Node1</title>
<g id="a_node1"><a xlink:title="Aim: Implementation of the linear in time distance transformation for separable metrics.">
<polygon fill="#bfbfbf" stroke="black" points="717,-11.5 717,-52.5 923,-52.5 923,-11.5 717,-11.5"/>
<text text-anchor="start" x="725" y="-40.5" font-family="FreeSans" font-size="10.00">DGtal::DistanceTransformation</text>
<text text-anchor="start" x="725" y="-29.5" font-family="FreeSans" font-size="10.00">&lt; TSpace, TPointPredicate,</text>
<text text-anchor="middle" x="820" y="-18.5" font-family="FreeSans" font-size="10.00"> TSeparableMetric, TImageContainer &gt;</text>
</a>
</g>
</g>
<!-- Node2 -->
<g id="node2" class="node">
<title>Node2</title>
<g id="a_node2"><a xlink:href="classDGtal_1_1VoronoiMap.html" target="_top" xlink:title=" ">
<polygon fill="white" stroke="black" points="453,-0.5 453,-63.5 680,-63.5 680,-0.5 453,-0.5"/>
<text text-anchor="start" x="461" y="-51.5" font-family="FreeSans" font-size="10.00">DGtal::VoronoiMap&lt;</text>
<text text-anchor="start" x="461" y="-40.5" font-family="FreeSans" font-size="10.00"> TSpace, TPointPredicate,</text>
<text text-anchor="start" x="461" y="-29.5" font-family="FreeSans" font-size="10.00"> TSeparableMetric, ImageContainer</text>
<text text-anchor="start" x="461" y="-18.5" font-family="FreeSans" font-size="10.00">BySTLVector&lt; HyperRectDomain</text>
<text text-anchor="middle" x="566.5" y="-7.5" font-family="FreeSans" font-size="10.00">&lt; TSpace &gt;, typename TSpace::Vector &gt; &gt;</text>
</a>
</g>
</g>
<!-- Node2&#45;&gt;Node1 -->
<g id="edge1" class="edge">
<title>Node2&#45;&gt;Node1</title>
<path fill="none" stroke="midnightblue" d="M690.12,-32C699.1,-32 708.09,-32 716.93,-32"/>
<polygon fill="midnightblue" stroke="midnightblue" points="690.01,-28.5 680.01,-32 690.01,-35.5 690.01,-28.5"/>
</g>
<!-- Node3 -->
<g id="node3" class="node">
<title>Node3</title>
<g id="a_node3"><a xlink:href="classDGtal_1_1VoronoiMap.html" target="_top" xlink:title="Aim: Implementation of the linear in time Voronoi map construction.">
<polygon fill="white" stroke="black" points="0,-11.5 0,-52.5 206,-52.5 206,-11.5 0,-11.5"/>
<text text-anchor="start" x="8" y="-40.5" font-family="FreeSans" font-size="10.00">DGtal::VoronoiMap&lt;</text>
<text text-anchor="start" x="8" y="-29.5" font-family="FreeSans" font-size="10.00"> TSpace, TPointPredicate,</text>
<text text-anchor="middle" x="103" y="-18.5" font-family="FreeSans" font-size="10.00"> TSeparableMetric, TImageContainer &gt;</text>
</a>
</g>
</g>
<!-- Node3&#45;&gt;Node2 -->
<g id="edge2" class="edge">
<title>Node3&#45;&gt;Node2</title>
<path fill="none" stroke="orange" stroke-dasharray="5,2" d="M216.56,-32C288.31,-32 380.93,-32 452.72,-32"/>
<polygon fill="orange" stroke="orange" points="216.14,-28.5 206.14,-32 216.14,-35.5 216.14,-28.5"/>
<text text-anchor="start" x="224" y="-68" font-family="FreeSans" font-size="10.00"> &lt; TSpace, TPointPredicate,</text>
<text text-anchor="start" x="224" y="-57" font-family="FreeSans" font-size="10.00"> TSeparableMetric, ImageContainer</text>
<text text-anchor="start" x="224" y="-46" font-family="FreeSans" font-size="10.00">BySTLVector&lt; HyperRectDomain</text>
<text text-anchor="middle" x="329.5" y="-35" font-family="FreeSans" font-size="10.00">&lt; TSpace &gt;, typename TSpace::Vector &gt; &gt;</text>
</g>
</g>
</svg>
