<?xml version="1.0" encoding="UTF-8" standalone="no"?>
<!DOCTYPE svg PUBLIC "-//W3C//DTD SVG 1.1//EN"
 "http://www.w3.org/Graphics/SVG/1.1/DTD/svg11.dtd">
<!-- Generated by graphviz version 2.43.0 (0)
 -->
<!-- Title: DGtal::DigitalSetByAssociativeContainer&lt; TDomain, TContainer &gt; Pages: 1 -->
<svg width="517pt" height="79pt"
 viewBox="0.00 0.00 517.00 78.50" xmlns="http://www.w3.org/2000/svg" xmlns:xlink="http://www.w3.org/1999/xlink">
<g id="graph0" class="graph" transform="scale(1 1) rotate(0) translate(4 74.5)">
<title>DGtal::DigitalSetByAssociativeContainer&lt; TDomain, TContainer &gt;</title>
<polygon fill="white" stroke="transparent" points="-4,4 -4,-74.5 513,-74.5 513,4 -4,4"/>
<!-- Node1 -->
<g id="node1" class="node">
<title>Node1</title>
<g id="a_node1"><a xlink:title="Aim: A wrapper class around a STL associative container for storing sets of digital points within som...">
<polygon fill="#bfbfbf" stroke="black" points="0,-11.5 0,-41.5 189,-41.5 189,-11.5 0,-11.5"/>
<text text-anchor="start" x="8" y="-29.5" font-family="FreeSans" font-size="10.00">DGtal::DigitalSetByAssociative</text>
<text text-anchor="middle" x="94.5" y="-18.5" font-family="FreeSans" font-size="10.00">Container&lt; TDomain, TContainer &gt;</text>
</a>
</g>
</g>
<!-- Node2 -->
<g id="node2" class="node">
<title>Node2</title>
<g id="a_node2"><a xlink:href="classDGtal_1_1DigitalSetByAssociativeContainer.html" target="_top" xlink:title=" ">
<polygon fill="white" stroke="black" points="337,-0.5 337,-52.5 509,-52.5 509,-0.5 337,-0.5"/>
<text text-anchor="start" x="345" y="-40.5" font-family="FreeSans" font-size="10.00">DGtal::DigitalSetByAssociative</text>
<text text-anchor="start" x="345" y="-29.5" font-family="FreeSans" font-size="10.00">Container&lt; DGtal::Z3i::Domain,</text>
<text text-anchor="start" x="345" y="-18.5" font-family="FreeSans" font-size="10.00"> std::unordered_set&lt; typename</text>
<text text-anchor="middle" x="423" y="-7.5" font-family="FreeSans" font-size="10.00"> DGtal::Z3i::Domain::Point &gt; &gt;</text>
</a>
</g>
</g>
<!-- Node1&#45;&gt;Node2 -->
<g id="edge1" class="edge">
<title>Node1&#45;&gt;Node2</title>
<path fill="none" stroke="orange" stroke-dasharray="5,2" d="M199.29,-26.5C243.62,-26.5 294.73,-26.5 336.8,-26.5"/>
<polygon fill="orange" stroke="orange" points="199.06,-23 189.06,-26.5 199.06,-30 199.06,-23"/>
<text text-anchor="start" x="207" y="-62.5" font-family="FreeSans" font-size="10.00"> &lt; DGtal::Z3i::Domain,</text>
<text text-anchor="start" x="207" y="-51.5" font-family="FreeSans" font-size="10.00"> std::unordered_set&lt;</text>
<text text-anchor="start" x="207" y="-40.5" font-family="FreeSans" font-size="10.00"> typename DGtal::Z3i::</text>
<text text-anchor="middle" x="263" y="-29.5" font-family="FreeSans" font-size="10.00">Domain::Point &gt; &gt;</text>
</g>
</g>
</svg>
