<?xml version="1.0" encoding="UTF-8" standalone="no"?>
<!DOCTYPE svg PUBLIC "-//W3C//DTD SVG 1.1//EN"
 "http://www.w3.org/Graphics/SVG/1.1/DTD/svg11.dtd">
<!-- Generated by graphviz version 2.43.0 (0)
 -->
<!-- Title: DGtal::CubicalComplex&lt; TKSpace, TCellContainer &gt; Pages: 1 -->
<svg width="1032pt" height="108pt"
 viewBox="0.00 0.00 1032.00 107.74" xmlns="http://www.w3.org/2000/svg" xmlns:xlink="http://www.w3.org/1999/xlink">
<g id="graph0" class="graph" transform="scale(1 1) rotate(0) translate(4 103.74)">
<title>DGtal::CubicalComplex&lt; TKSpace, TCellContainer &gt;</title>
<polygon fill="white" stroke="transparent" points="-4,4 -4,-103.74 1028,-103.74 1028,4 -4,4"/>
<!-- Node1 -->
<g id="node1" class="node">
<title>Node1</title>
<g id="a_node1"><a xlink:title="Aim: This class represents an arbitrary cubical complex living in some Khalimsky space....">
<polygon fill="#bfbfbf" stroke="black" points="0,-26.58 0,-56.58 158,-56.58 158,-26.58 0,-26.58"/>
<text text-anchor="start" x="8" y="-44.58" font-family="FreeSans" font-size="10.00">DGtal::CubicalComplex</text>
<text text-anchor="middle" x="79" y="-33.58" font-family="FreeSans" font-size="10.00">&lt; TKSpace, TCellContainer &gt;</text>
</a>
</g>
</g>
<!-- Node2 -->
<g id="node2" class="node">
<title>Node2</title>
<g id="a_node2"><a xlink:href="classDGtal_1_1VoxelComplex.html" target="_top" xlink:title=" ">
<polygon fill="white" stroke="black" points="888,-60.58 888,-90.58 1024,-90.58 1024,-60.58 888,-60.58"/>
<text text-anchor="start" x="896" y="-78.58" font-family="FreeSans" font-size="10.00">DGtal::VoxelComplex</text>
<text text-anchor="middle" x="956" y="-67.58" font-family="FreeSans" font-size="10.00">&lt; KSpace, FixtureMap &gt;</text>
</a>
</g>
</g>
<!-- Node1&#45;&gt;Node2 -->
<g id="edge1" class="edge">
<title>Node1&#45;&gt;Node2</title>
<path fill="none" stroke="midnightblue" d="M120.22,-60.86C137.05,-67.92 157.07,-75.04 176,-78.58 425.46,-125.22 493.22,-79.36 747,-79.58 801.67,-79.63 815.35,-80.87 870,-79.58 875.76,-79.45 881.74,-79.26 887.73,-79.04"/>
<polygon fill="midnightblue" stroke="midnightblue" points="121.28,-57.51 110.71,-56.74 118.5,-63.93 121.28,-57.51"/>
</g>
<!-- Node3 -->
<g id="node3" class="node">
<title>Node3</title>
<g id="a_node3"><a xlink:href="classDGtal_1_1VoxelComplex.html" target="_top" xlink:title=" ">
<polygon fill="white" stroke="black" points="896,-2.58 896,-32.58 1016,-32.58 1016,-2.58 896,-2.58"/>
<text text-anchor="start" x="904" y="-20.58" font-family="FreeSans" font-size="10.00">DGtal::VoxelComplex</text>
<text text-anchor="middle" x="956" y="-9.58" font-family="FreeSans" font-size="10.00">&lt; KSpace &gt;</text>
</a>
</g>
</g>
<!-- Node1&#45;&gt;Node3 -->
<g id="edge2" class="edge">
<title>Node1&#45;&gt;Node3</title>
<path fill="none" stroke="midnightblue" d="M168.05,-26.48C217.04,-18.84 279.21,-10.39 335,-6.58 540.68,7.47 785.58,-5.66 895.93,-13.16"/>
<polygon fill="midnightblue" stroke="midnightblue" points="167.45,-23.03 158.12,-28.05 168.54,-29.95 167.45,-23.03"/>
</g>
<!-- Node4 -->
<g id="node4" class="node">
<title>Node4</title>
<g id="a_node4"><a xlink:href="classDGtal_1_1CubicalComplex.html" target="_top" xlink:title=" ">
<polygon fill="white" stroke="black" points="335,-15.58 335,-67.58 534,-67.58 534,-15.58 335,-15.58"/>
<text text-anchor="start" x="343" y="-55.58" font-family="FreeSans" font-size="10.00">DGtal::CubicalComplex</text>
<text text-anchor="start" x="343" y="-44.58" font-family="FreeSans" font-size="10.00">&lt; TKSpace, typename TKSpace</text>
<text text-anchor="start" x="343" y="-33.58" font-family="FreeSans" font-size="10.00">::template CellMap&lt; CubicalCellData</text>
<text text-anchor="middle" x="434.5" y="-22.58" font-family="FreeSans" font-size="10.00"> &gt;::Type &gt;</text>
</a>
</g>
</g>
<!-- Node1&#45;&gt;Node4 -->
<g id="edge3" class="edge">
<title>Node1&#45;&gt;Node4</title>
<path fill="none" stroke="orange" stroke-dasharray="5,2" d="M168.28,-41.58C218.89,-41.58 282.54,-41.58 334.8,-41.58"/>
<polygon fill="orange" stroke="orange" points="168.01,-38.08 158.01,-41.58 168.01,-45.08 168.01,-38.08"/>
<text text-anchor="start" x="176" y="-66.58" font-family="FreeSans" font-size="10.00"> &lt; TKSpace, typename</text>
<text text-anchor="start" x="176" y="-55.58" font-family="FreeSans" font-size="10.00"> TKSpace::template CellMap</text>
<text text-anchor="middle" x="246.5" y="-44.58" font-family="FreeSans" font-size="10.00">&lt; CubicalCellData &gt;::Type &gt;</text>
</g>
<!-- Node5 -->
<g id="node5" class="node">
<title>Node5</title>
<g id="a_node5"><a xlink:href="classDGtal_1_1VoxelComplex.html" target="_top" xlink:title="This class represents a voxel complex living in some Khalimsky space. Voxel complexes are derived fro...">
<polygon fill="white" stroke="black" points="571,-26.58 571,-56.58 729,-56.58 729,-26.58 571,-26.58"/>
<text text-anchor="start" x="579" y="-44.58" font-family="FreeSans" font-size="10.00">DGtal::VoxelComplex</text>
<text text-anchor="middle" x="650" y="-33.58" font-family="FreeSans" font-size="10.00">&lt; TKSpace, TCellContainer &gt;</text>
</a>
</g>
</g>
<!-- Node4&#45;&gt;Node5 -->
<g id="edge4" class="edge">
<title>Node4&#45;&gt;Node5</title>
<path fill="none" stroke="midnightblue" d="M544.27,-41.58C553.26,-41.58 562.24,-41.58 570.94,-41.58"/>
<polygon fill="midnightblue" stroke="midnightblue" points="544.13,-38.08 534.13,-41.58 544.13,-45.08 544.13,-38.08"/>
</g>
<!-- Node5&#45;&gt;Node2 -->
<g id="edge5" class="edge">
<title>Node5&#45;&gt;Node2</title>
<path fill="none" stroke="orange" stroke-dasharray="5,2" d="M739.24,-51.45C786.62,-56.75 844.09,-63.18 887.81,-68.07"/>
<polygon fill="orange" stroke="orange" points="739.61,-47.97 729.29,-50.34 738.84,-54.93 739.61,-47.97"/>
<text text-anchor="middle" x="808.5" y="-67.58" font-family="FreeSans" font-size="10.00"> &lt; KSpace, FixtureMap &gt;</text>
</g>
<!-- Node5&#45;&gt;Node3 -->
<g id="edge6" class="edge">
<title>Node5&#45;&gt;Node3</title>
<path fill="none" stroke="orange" stroke-dasharray="5,2" d="M739.24,-33.24C741.85,-33.01 744.45,-32.79 747,-32.58 797.15,-28.42 854.16,-24.36 895.8,-21.51"/>
<polygon fill="orange" stroke="orange" points="738.71,-29.77 729.05,-34.12 739.32,-36.74 738.71,-29.77"/>
<text text-anchor="middle" x="808.5" y="-35.58" font-family="FreeSans" font-size="10.00"> &lt; KSpace &gt;</text>
</g>
</g>
</svg>
