<?xml version="1.0" encoding="UTF-8" standalone="no"?>
<!DOCTYPE svg PUBLIC "-//W3C//DTD SVG 1.1//EN"
 "http://www.w3.org/Graphics/SVG/1.1/DTD/svg11.dtd">
<!-- Generated by graphviz version 2.43.0 (0)
 -->
<!-- Title: DGtal::detail::PosDepScaleDepSCEstimator&lt; TSegmentComputer, Functor, ReturnType &gt; Pages: 1 -->
<svg width="230pt" height="218pt"
 viewBox="0.00 0.00 230.00 218.00" xmlns="http://www.w3.org/2000/svg" xmlns:xlink="http://www.w3.org/1999/xlink">
<g id="graph0" class="graph" transform="scale(1 1) rotate(0) translate(4 214)">
<title>DGtal::detail::PosDepScaleDepSCEstimator&lt; TSegmentComputer, Functor, ReturnType &gt;</title>
<polygon fill="white" stroke="transparent" points="-4,4 -4,-214 226,-214 226,4 -4,4"/>
<!-- Node1 -->
<g id="node1" class="node">
<title>Node1</title>
<g id="a_node1"><a xlink:title=" ">
<polygon fill="#bfbfbf" stroke="black" points="0,-168.5 0,-209.5 208,-209.5 208,-168.5 0,-168.5"/>
<text text-anchor="start" x="8" y="-197.5" font-family="FreeSans" font-size="10.00">DGtal::detail::PosDepScale</text>
<text text-anchor="start" x="8" y="-186.5" font-family="FreeSans" font-size="10.00">DepSCEstimator&lt; TSegmentComputer,</text>
<text text-anchor="middle" x="104" y="-175.5" font-family="FreeSans" font-size="10.00"> Functor, ReturnType &gt;</text>
</a>
</g>
</g>
<!-- Node2 -->
<g id="node2" class="node">
<title>Node2</title>
<g id="a_node2"><a xlink:href="classDGtal_1_1detail_1_1PosDepScaleDepSCEstimator.html" target="_top" xlink:title=" ">
<polygon fill="white" stroke="black" points="14.5,-68.5 14.5,-109.5 193.5,-109.5 193.5,-68.5 14.5,-68.5"/>
<text text-anchor="start" x="22.5" y="-97.5" font-family="FreeSans" font-size="10.00">DGtal::detail::PosDepScale</text>
<text text-anchor="start" x="22.5" y="-86.5" font-family="FreeSans" font-size="10.00">DepSCEstimator&lt; DCAComputer,</text>
<text text-anchor="middle" x="104" y="-75.5" font-family="FreeSans" font-size="10.00"> detail::DistanceFromDCA &gt;</text>
</a>
</g>
</g>
<!-- Node1&#45;&gt;Node2 -->
<g id="edge1" class="edge">
<title>Node1&#45;&gt;Node2</title>
<path fill="none" stroke="orange" stroke-dasharray="5,2" d="M104,-157.92C104,-142.29 104,-123.61 104,-109.8"/>
<polygon fill="orange" stroke="orange" points="100.5,-158.17 104,-168.17 107.5,-158.17 100.5,-158.17"/>
<text text-anchor="start" x="104" y="-142" font-family="FreeSans" font-size="10.00"> &lt; DCAComputer, detail</text>
<text text-anchor="middle" x="163" y="-131" font-family="FreeSans" font-size="10.00">::DistanceFromDCA &gt;</text>
</g>
<!-- Node3 -->
<g id="node3" class="node">
<title>Node3</title>
<g id="a_node3"><a xlink:href="classDGtal_1_1DistanceFromDCAEstimator.html" target="_top" xlink:title=" ">
<polygon fill="white" stroke="black" points="11,-0.5 11,-30.5 197,-30.5 197,-0.5 11,-0.5"/>
<text text-anchor="start" x="19" y="-18.5" font-family="FreeSans" font-size="10.00">DGtal::DistanceFromDCAEstimator</text>
<text text-anchor="middle" x="104" y="-7.5" font-family="FreeSans" font-size="10.00">&lt; DCAComputer &gt;</text>
</a>
</g>
</g>
<!-- Node2&#45;&gt;Node3 -->
<g id="edge2" class="edge">
<title>Node2&#45;&gt;Node3</title>
<path fill="none" stroke="midnightblue" d="M104,-58.16C104,-48.69 104,-38.65 104,-30.8"/>
<polygon fill="midnightblue" stroke="midnightblue" points="100.5,-58.46 104,-68.46 107.5,-58.46 100.5,-58.46"/>
</g>
</g>
</svg>
