<?xml version="1.0" encoding="UTF-8" standalone="no"?>
<!DOCTYPE svg PUBLIC "-//W3C//DTD SVG 1.1//EN"
 "http://www.w3.org/Graphics/SVG/1.1/DTD/svg11.dtd">
<!-- Generated by graphviz version 2.43.0 (0)
 -->
<!-- Title: DGtal::CountedPtrOrPtr&lt; T &gt; Pages: 1 -->
<!--zoomable 247 -->
<svg id="main" version="1.1" xmlns="http://www.w3.org/2000/svg" xmlns:xlink="http://www.w3.org/1999/xlink" xml:space="preserve" onload="init(evt)">
<style type="text/css"><![CDATA[
.edge:hover path { stroke: red; }
.edge:hover polygon { stroke: red; fill: red; }
]]></style>
<script type="text/javascript"><![CDATA[
var edges = document.getElementsByTagName('g');
if (edges && edges.length) {
  for (var i=0;i<edges.length;i++) {
    if (edges[i].id.substr(0,4)=='edge') {
      edges[i].setAttribute('class','edge');
    }
  }
}
]]></script>
        <defs>
                <circle id="rim" cx="0" cy="0" r="7"/>
                <circle id="rim2" cx="0" cy="0" r="3.5"/>
                <g id="zoomPlus">
                        <use xlink:href="#rim" fill="#404040">
                                <set attributeName="fill" to="#808080" begin="zoomplus.mouseover" end="zoomplus.mouseout"/>
                        </use>
                        <path d="M-4,0h8M0,-4v8" fill="none" stroke="white" stroke-width="1.5" pointer-events="none"/>
                </g>
                <g id="zoomMin">
                        <use xlink:href="#rim" fill="#404040">
                                <set attributeName="fill" to="#808080" begin="zoomminus.mouseover" end="zoomminus.mouseout"/>
                        </use>
                        <path d="M-4,0h8" fill="none" stroke="white" stroke-width="1.5" pointer-events="none"/>
                </g>
                <g id="dirArrow">
                        <path fill="none" stroke="white" stroke-width="1.5" d="M0,-3.0v7 M-2.5,-0.5L0,-3.0L2.5,-0.5"/>
                </g>
               <g id="resetDef">
                       <use xlink:href="#rim2" fill="#404040">
                               <set attributeName="fill" to="#808080" begin="reset.mouseover" end="reset.mouseout"/>
                       </use>
               </g>
        </defs>

<script type="text/javascript">
var viewWidth = 517;
var viewHeight = 247;
var sectionId = 'dynsection-0';
</script>
<script xlink:href="svgpan.js"/>
<svg id="graph" class="graph">
<g id="viewport">
<title>DGtal::CountedPtrOrPtr&lt; T &gt;</title>
<polygon fill="white" stroke="transparent" points="-4,4 -4,-243 513,-243 513,4 -4,4"/>
<!-- Node1 -->
<g id="node1" class="node">
<title>Node1</title>
<g id="a_node1"><a xlink:title="Aim: Smart or simple pointer on T. It can be a smart pointer based on reference counts or a simple po...">
<polygon fill="#bfbfbf" stroke="black" points="0,-104 0,-123 158,-123 158,-104 0,-104"/>
<text text-anchor="middle" x="79" y="-111" font-family="FreeSans" font-size="10.00">DGtal::CountedPtrOrPtr&lt; T &gt;</text>
</a>
</g>
</g>
<!-- Node2 -->
<g id="node2" class="node">
<title>Node2</title>
<g id="a_node2"><a xlink:href="classDGtal_1_1CountedPtrOrPtr.html" target="_top" xlink:title=" ">
<polygon fill="white" stroke="black" points="362.5,-208.5 362.5,-238.5 491.5,-238.5 491.5,-208.5 362.5,-208.5"/>
<text text-anchor="start" x="370.5" y="-226.5" font-family="FreeSans" font-size="10.00">DGtal::CountedPtrOrPtr</text>
<text text-anchor="middle" x="427" y="-215.5" font-family="FreeSans" font-size="10.00">&lt; ConfigMap &gt;</text>
</a>
</g>
</g>
<!-- Node1&#45;&gt;Node2 -->
<g id="edge1" class="edge">
<title>Node1&#45;&gt;Node2</title>
<path fill="none" stroke="orange" stroke-dasharray="5,2" d="M98.85,-129.48C117.31,-144.26 146.83,-165.68 176,-177.5 236.53,-202.03 310.63,-213.57 362.38,-218.94"/>
<polygon fill="orange" stroke="orange" points="100.91,-126.65 90.96,-123.02 96.48,-132.06 100.91,-126.65"/>
<text text-anchor="middle" x="251.5" y="-216.5" font-family="FreeSans" font-size="10.00"> &lt; ConfigMap &gt;</text>
</g>
<!-- Node3 -->
<g id="node3" class="node">
<title>Node3</title>
<g id="a_node3"><a xlink:href="classDGtal_1_1CountedPtrOrPtr.html" target="_top" xlink:title=" ">
<polygon fill="white" stroke="black" points="360,-148 360,-189 494,-189 494,-148 360,-148"/>
<text text-anchor="start" x="368" y="-177" font-family="FreeSans" font-size="10.00">DGtal::CountedPtrOrPtr</text>
<text text-anchor="start" x="368" y="-166" font-family="FreeSans" font-size="10.00">&lt; std::unordered_map&lt;</text>
<text text-anchor="middle" x="427" y="-155" font-family="FreeSans" font-size="10.00"> Point, unsigned int &gt; &gt;</text>
</a>
</g>
</g>
<!-- Node1&#45;&gt;Node3 -->
<g id="edge2" class="edge">
<title>Node1&#45;&gt;Node3</title>
<path fill="none" stroke="orange" stroke-dasharray="5,2" d="M149.85,-124.6C211.13,-134.34 299.61,-148.41 359.78,-157.97"/>
<polygon fill="orange" stroke="orange" points="150.3,-121.13 139.87,-123.02 149.2,-128.04 150.3,-121.13"/>
<text text-anchor="start" x="189" y="-165.5" font-family="FreeSans" font-size="10.00"> &lt; std::unordered_map</text>
<text text-anchor="middle" x="251.5" y="-154.5" font-family="FreeSans" font-size="10.00">&lt; Point, unsigned int &gt; &gt;</text>
</g>
<!-- Node4 -->
<g id="node4" class="node">
<title>Node4</title>
<g id="a_node4"><a xlink:href="classDGtal_1_1CountedPtrOrPtr.html" target="_top" xlink:title=" ">
<polygon fill="white" stroke="black" points="362.5,-98.5 362.5,-128.5 491.5,-128.5 491.5,-98.5 362.5,-98.5"/>
<text text-anchor="start" x="370.5" y="-116.5" font-family="FreeSans" font-size="10.00">DGtal::CountedPtrOrPtr</text>
<text text-anchor="middle" x="427" y="-105.5" font-family="FreeSans" font-size="10.00">&lt; PointToMaskMap &gt;</text>
</a>
</g>
</g>
<!-- Node1&#45;&gt;Node4 -->
<g id="edge3" class="edge">
<title>Node1&#45;&gt;Node4</title>
<path fill="none" stroke="orange" stroke-dasharray="5,2" d="M168.4,-113.5C228.98,-113.5 307.93,-113.5 362.37,-113.5"/>
<polygon fill="orange" stroke="orange" points="168.08,-110 158.08,-113.5 168.08,-117 168.08,-110"/>
<text text-anchor="middle" x="251.5" y="-116.5" font-family="FreeSans" font-size="10.00"> &lt; PointToMaskMap &gt;</text>
</g>
<!-- Node5 -->
<g id="node5" class="node">
<title>Node5</title>
<g id="a_node5"><a xlink:href="classDGtal_1_1CountedPtrOrPtr.html" target="_top" xlink:title=" ">
<polygon fill="white" stroke="black" points="345,-49.5 345,-79.5 509,-79.5 509,-49.5 345,-49.5"/>
<text text-anchor="start" x="353" y="-67.5" font-family="FreeSans" font-size="10.00">DGtal::CountedPtrOrPtr</text>
<text text-anchor="middle" x="427" y="-56.5" font-family="FreeSans" font-size="10.00">&lt; boost::dynamic_bitset&lt;&gt; &gt;</text>
</a>
</g>
</g>
<!-- Node1&#45;&gt;Node5 -->
<g id="edge4" class="edge">
<title>Node1&#45;&gt;Node5</title>
<path fill="none" stroke="orange" stroke-dasharray="5,2" d="M149.6,-102.46C158.48,-101.1 167.45,-99.75 176,-98.5 232.34,-90.27 295.93,-81.63 344.88,-75.12"/>
<polygon fill="orange" stroke="orange" points="148.98,-99.01 139.63,-103.99 150.05,-105.93 148.98,-99.01"/>
<text text-anchor="middle" x="251.5" y="-101.5" font-family="FreeSans" font-size="10.00"> &lt; boost::dynamic_bitset&lt;&gt; &gt;</text>
</g>
<!-- Node6 -->
<g id="node6" class="node">
<title>Node6</title>
<g id="a_node6"><a xlink:href="classDGtal_1_1CountedPtrOrPtr.html" target="_top" xlink:title=" ">
<polygon fill="white" stroke="black" points="362.5,-0.5 362.5,-30.5 491.5,-30.5 491.5,-0.5 362.5,-0.5"/>
<text text-anchor="start" x="370.5" y="-18.5" font-family="FreeSans" font-size="10.00">DGtal::CountedPtrOrPtr</text>
<text text-anchor="middle" x="427" y="-7.5" font-family="FreeSans" font-size="10.00">&lt; DummyTbl &gt;</text>
</a>
</g>
</g>
<!-- Node1&#45;&gt;Node6 -->
<g id="edge5" class="edge">
<title>Node1&#45;&gt;Node6</title>
<path fill="none" stroke="orange" stroke-dasharray="5,2" d="M103.17,-98.62C122.07,-87.12 149.83,-71.67 176,-62.5 237.47,-40.96 311.1,-28.64 362.47,-22.06"/>
<polygon fill="orange" stroke="orange" points="101.31,-95.65 94.65,-103.9 104.99,-101.6 101.31,-95.65"/>
<text text-anchor="middle" x="251.5" y="-65.5" font-family="FreeSans" font-size="10.00"> &lt; DummyTbl &gt;</text>
</g>
</g>
</svg>
        <g id="navigator" transform="translate(0 0)" fill="#404254">
                <rect fill="#f2f5e9" fill-opacity="0.5" stroke="#606060" stroke-width=".5" x="0" y="0" width="60" height="60"/>
                <use id="zoomplus" xlink:href="#zoomPlus" x="17" y="9" onmousedown="handleZoom(evt,'in')"/>
                <use id="zoomminus" xlink:href="#zoomMin" x="42" y="9" onmousedown="handleZoom(evt,'out')"/>
                <use id="reset" xlink:href="#resetDef" x="30" y="36" onmousedown="handleReset()"/>
                <g id="arrowUp" xlink:href="#dirArrow" transform="translate(30 24)" onmousedown="handlePan(0,-1)">
                  <use xlink:href="#rim" fill="#404040">
                        <set attributeName="fill" to="#808080" begin="arrowUp.mouseover" end="arrowUp.mouseout"/>
                  </use>
                  <path fill="none" stroke="white" stroke-width="1.5" d="M0,-3.0v7 M-2.5,-0.5L0,-3.0L2.5,-0.5"/>
                </g>
                <g id="arrowRight" xlink:href="#dirArrow" transform="rotate(90) translate(36 -43)" onmousedown="handlePan(1,0)">
                  <use xlink:href="#rim" fill="#404040">
                        <set attributeName="fill" to="#808080" begin="arrowRight.mouseover" end="arrowRight.mouseout"/>
                  </use>
                  <path fill="none" stroke="white" stroke-width="1.5" d="M0,-3.0v7 M-2.5,-0.5L0,-3.0L2.5,-0.5"/>
                </g>
                <g id="arrowDown" xlink:href="#dirArrow" transform="rotate(180) translate(-30 -48)" onmousedown="handlePan(0,1)">
                  <use xlink:href="#rim" fill="#404040">
                        <set attributeName="fill" to="#808080" begin="arrowDown.mouseover" end="arrowDown.mouseout"/>
                  </use>
                  <path fill="none" stroke="white" stroke-width="1.5" d="M0,-3.0v7 M-2.5,-0.5L0,-3.0L2.5,-0.5"/>
                </g>
                <g id="arrowLeft" xlink:href="#dirArrow" transform="rotate(270) translate(-36 17)" onmousedown="handlePan(-1,0)">
                  <use xlink:href="#rim" fill="#404040">
                        <set attributeName="fill" to="#808080" begin="arrowLeft.mouseover" end="arrowLeft.mouseout"/>
                  </use>
                  <path fill="none" stroke="white" stroke-width="1.5" d="M0,-3.0v7 M-2.5,-0.5L0,-3.0L2.5,-0.5"/>
                </g>
        </g>
        <svg viewBox="0 0 15 15" width="100%" height="30px" preserveAspectRatio="xMaxYMin meet">
         <g id="arrow_out" transform="scale(0.3 0.3)">
          <a xlink:href="classDGtal_1_1CountedPtrOrPtr__inherit__graph_org.svg" target="_base">
           <rect id="button" ry="5" rx="5" y="6" x="6" height="38" width="38"
                fill="#f2f5e9" fill-opacity="0.5" stroke="#606060" stroke-width="1.0"/>
           <path id="arrow"
             d="M 11.500037,31.436501 C 11.940474,20.09759 22.043105,11.32322 32.158766,21.979434 L 37.068811,17.246167 C 37.068811,17.246167 37.088388,32 37.088388,32 L 22.160133,31.978069 C 22.160133,31.978069 26.997745,27.140456 26.997745,27.140456 C 18.528582,18.264221 13.291696,25.230495 11.500037,31.436501 z"
             style="fill:#404040;"/>
          </a>
         </g>
        </svg>
</svg>
