<?xml version="1.0" encoding="UTF-8" standalone="no"?>
<!DOCTYPE svg PUBLIC "-//W3C//DTD SVG 1.1//EN"
 "http://www.w3.org/Graphics/SVG/1.1/DTD/svg11.dtd">
<!-- Generated by graphviz version 2.43.0 (0)
 -->
<!-- Title: Graphical Class Hierarchy Pages: 1 -->
<svg width="301pt" height="180pt"
 viewBox="0.00 0.00 301.00 180.00" xmlns="http://www.w3.org/2000/svg" xmlns:xlink="http://www.w3.org/1999/xlink">
<g id="graph0" class="graph" transform="scale(1 1) rotate(0) translate(4 176)">
<title>Graphical Class Hierarchy</title>
<polygon fill="white" stroke="transparent" points="-4,4 -4,-176 297,-176 297,4 -4,4"/>
<!-- Node632 -->
<g id="node1" class="node">
<title>Node632</title>
<g id="a_node1"><a xlink:title=" ">
<polygon fill="white" stroke="#bfbfbf" points="0,-76.5 0,-95.5 86,-95.5 86,-76.5 0,-76.5"/>
<text text-anchor="middle" x="43" y="-83.5" font-family="FreeSans" font-size="10.00">std::exception</text>
</a>
</g>
</g>
<!-- Node0 -->
<g id="node2" class="node">
<title>Node0</title>
<g id="a_node2"><a xlink:href="classDGtal_1_1ConnectivityException.html" target="_top" xlink:title=" ">
<polygon fill="white" stroke="black" points="127.5,-152.5 127.5,-171.5 287.5,-171.5 287.5,-152.5 127.5,-152.5"/>
<text text-anchor="middle" x="207.5" y="-159.5" font-family="FreeSans" font-size="10.00">DGtal::ConnectivityException</text>
</a>
</g>
</g>
<!-- Node632&#45;&gt;Node0 -->
<g id="edge1" class="edge">
<title>Node632&#45;&gt;Node0</title>
<path fill="none" stroke="midnightblue" d="M61.71,-102.27C76.71,-115.17 99.32,-132.7 122,-143 130.49,-146.85 139.82,-149.95 149.09,-152.44"/>
<polygon fill="midnightblue" stroke="midnightblue" points="64.03,-99.64 54.22,-95.65 59.4,-104.89 64.03,-99.64"/>
</g>
<!-- Node634 -->
<g id="node3" class="node">
<title>Node634</title>
<g id="a_node3"><a xlink:href="classDGtal_1_1IOException.html" target="_top" xlink:title=" ">
<polygon fill="white" stroke="black" points="153,-114.5 153,-133.5 262,-133.5 262,-114.5 153,-114.5"/>
<text text-anchor="middle" x="207.5" y="-121.5" font-family="FreeSans" font-size="10.00">DGtal::IOException</text>
</a>
</g>
</g>
<!-- Node632&#45;&gt;Node634 -->
<g id="edge2" class="edge">
<title>Node632&#45;&gt;Node634</title>
<path fill="none" stroke="midnightblue" d="M92.44,-97.94C102.22,-100.31 112.43,-102.76 122,-105 135.47,-108.15 150.17,-111.5 163.48,-114.48"/>
<polygon fill="midnightblue" stroke="midnightblue" points="92.99,-94.47 82.45,-95.51 91.34,-101.28 92.99,-94.47"/>
</g>
<!-- Node635 -->
<g id="node4" class="node">
<title>Node635</title>
<g id="a_node4"><a xlink:href="classDGtal_1_1InfiniteNumberException.html" target="_top" xlink:title=" ">
<polygon fill="white" stroke="black" points="122,-76.5 122,-95.5 293,-95.5 293,-76.5 122,-76.5"/>
<text text-anchor="middle" x="207.5" y="-83.5" font-family="FreeSans" font-size="10.00">DGtal::InfiniteNumberException</text>
</a>
</g>
</g>
<!-- Node632&#45;&gt;Node635 -->
<g id="edge3" class="edge">
<title>Node632&#45;&gt;Node635</title>
<path fill="none" stroke="midnightblue" d="M96.37,-86C104.56,-86 113.19,-86 121.88,-86"/>
<polygon fill="midnightblue" stroke="midnightblue" points="96.27,-82.5 86.27,-86 96.27,-89.5 96.27,-82.5"/>
</g>
<!-- Node636 -->
<g id="node5" class="node">
<title>Node636</title>
<g id="a_node5"><a xlink:href="classDGtal_1_1InputException.html" target="_top" xlink:title=" ">
<polygon fill="white" stroke="black" points="146,-38.5 146,-57.5 269,-57.5 269,-38.5 146,-38.5"/>
<text text-anchor="middle" x="207.5" y="-45.5" font-family="FreeSans" font-size="10.00">DGtal::InputException</text>
</a>
</g>
</g>
<!-- Node632&#45;&gt;Node636 -->
<g id="edge4" class="edge">
<title>Node632&#45;&gt;Node636</title>
<path fill="none" stroke="midnightblue" d="M92.44,-74.06C102.22,-71.69 112.43,-69.24 122,-67 135.47,-63.85 150.17,-60.5 163.48,-57.52"/>
<polygon fill="midnightblue" stroke="midnightblue" points="91.34,-70.72 82.45,-76.49 92.99,-77.53 91.34,-70.72"/>
</g>
<!-- Node637 -->
<g id="node6" class="node">
<title>Node637</title>
<g id="a_node6"><a xlink:href="classDGtal_1_1MemoryException.html" target="_top" xlink:title=" ">
<polygon fill="white" stroke="black" points="138,-0.5 138,-19.5 277,-19.5 277,-0.5 138,-0.5"/>
<text text-anchor="middle" x="207.5" y="-7.5" font-family="FreeSans" font-size="10.00">DGtal::MemoryException</text>
</a>
</g>
</g>
<!-- Node632&#45;&gt;Node637 -->
<g id="edge5" class="edge">
<title>Node632&#45;&gt;Node637</title>
<path fill="none" stroke="midnightblue" d="M61.71,-69.73C76.71,-56.83 99.32,-39.3 122,-29 130.49,-25.15 139.82,-22.05 149.09,-19.56"/>
<polygon fill="midnightblue" stroke="midnightblue" points="59.4,-67.11 54.22,-76.35 64.03,-72.36 59.4,-67.11"/>
</g>
</g>
</svg>
