<?xml version="1.0" encoding="UTF-8" standalone="no"?>
<!DOCTYPE svg PUBLIC "-//W3C//DTD SVG 1.1//EN"
 "http://www.w3.org/Graphics/SVG/1.1/DTD/svg11.dtd">
<!-- Generated by graphviz version 2.43.0 (0)
 -->
<!-- Title: Graphical Class Hierarchy Pages: 1 -->
<svg width="308pt" height="88pt"
 viewBox="0.00 0.00 308.00 88.00" xmlns="http://www.w3.org/2000/svg" xmlns:xlink="http://www.w3.org/1999/xlink">
<g id="graph0" class="graph" transform="scale(1 1) rotate(0) translate(4 84)">
<title>Graphical Class Hierarchy</title>
<polygon fill="white" stroke="transparent" points="-4,4 -4,-84 304,-84 304,4 -4,4"/>
<!-- Node0 -->
<g id="node1" class="node">
<title>Node0</title>
<g id="a_node1"><a xlink:href="classDGtal_1_1Display3D.html" target="_top" xlink:title=" ">
<polygon fill="white" stroke="black" points="0,-24.5 0,-54.5 128,-54.5 128,-24.5 0,-24.5"/>
<text text-anchor="start" x="8" y="-42.5" font-family="FreeSans" font-size="10.00">DGtal::Display3D&lt; Z3i</text>
<text text-anchor="middle" x="64" y="-31.5" font-family="FreeSans" font-size="10.00">::Space, Z3i::KSpace &gt;</text>
</a>
</g>
</g>
<!-- Node1 -->
<g id="node2" class="node">
<title>Node1</title>
<g id="a_node2"><a xlink:href="classDGtal_1_1Board3D.html" target="_top" xlink:title="The class Board3D is a type of Display3D which export the figures in the format OBJ/MTL when calling ...">
<polygon fill="white" stroke="black" points="164,-49.5 164,-79.5 300,-79.5 300,-49.5 164,-49.5"/>
<text text-anchor="start" x="172" y="-67.5" font-family="FreeSans" font-size="10.00">DGtal::Board3D&lt; Space,</text>
<text text-anchor="middle" x="232" y="-56.5" font-family="FreeSans" font-size="10.00"> KSpace &gt;</text>
</a>
</g>
</g>
<!-- Node0&#45;&gt;Node1 -->
<g id="edge1" class="edge">
<title>Node0&#45;&gt;Node1</title>
<path fill="none" stroke="midnightblue" d="M138.16,-50.52C146.69,-51.8 155.36,-53.11 163.8,-54.38"/>
<polygon fill="midnightblue" stroke="midnightblue" points="138.64,-47.05 128.23,-49.02 137.6,-53.97 138.64,-47.05"/>
</g>
<!-- Node2 -->
<g id="node3" class="node">
<title>Node2</title>
<g id="a_node3"><a xlink:href="classDGtal_1_1Board3DTo2D.html" target="_top" xlink:title="Class for PDF, PNG, PS, EPS, SVG export drawings with Cairo with 3D&#45;&gt;2D projection.">
<polygon fill="white" stroke="black" points="174,-0.5 174,-30.5 290,-30.5 290,-0.5 174,-0.5"/>
<text text-anchor="start" x="182" y="-18.5" font-family="FreeSans" font-size="10.00">DGtal::Board3DTo2D</text>
<text text-anchor="middle" x="232" y="-7.5" font-family="FreeSans" font-size="10.00">&lt; Space, KSpace &gt;</text>
</a>
</g>
</g>
<!-- Node0&#45;&gt;Node2 -->
<g id="edge2" class="edge">
<title>Node0&#45;&gt;Node2</title>
<path fill="none" stroke="midnightblue" d="M138.2,-28.92C150.17,-27.19 162.42,-25.41 173.93,-23.75"/>
<polygon fill="midnightblue" stroke="midnightblue" points="137.63,-25.46 128.23,-30.36 138.63,-32.39 137.63,-25.46"/>
</g>
</g>
</svg>
