<?xml version="1.0" encoding="UTF-8" standalone="no"?>
<!DOCTYPE svg PUBLIC "-//W3C//DTD SVG 1.1//EN"
 "http://www.w3.org/Graphics/SVG/1.1/DTD/svg11.dtd">
<!-- Generated by graphviz version 2.43.0 (0)
 -->
<!-- Title: Graphical Class Hierarchy Pages: 1 -->
<svg width="331pt" height="39pt"
 viewBox="0.00 0.00 331.00 39.00" xmlns="http://www.w3.org/2000/svg" xmlns:xlink="http://www.w3.org/1999/xlink">
<g id="graph0" class="graph" transform="scale(1 1) rotate(0) translate(4 35)">
<title>Graphical Class Hierarchy</title>
<polygon fill="white" stroke="transparent" points="-4,4 -4,-35 327,-35 327,4 -4,4"/>
<!-- Node0 -->
<g id="node1" class="node">
<title>Node0</title>
<g id="a_node1"><a xlink:href="structDGtal_1_1Display3DFactory.html" target="_top" xlink:title=" ">
<polygon fill="white" stroke="black" points="0,-0.5 0,-30.5 154,-30.5 154,-0.5 0,-0.5"/>
<text text-anchor="start" x="8" y="-18.5" font-family="FreeSans" font-size="10.00">DGtal::Display3DFactory</text>
<text text-anchor="middle" x="77" y="-7.5" font-family="FreeSans" font-size="10.00">&lt; Z3i::Space, Z3i::KSpace &gt;</text>
</a>
</g>
</g>
<!-- Node1 -->
<g id="node2" class="node">
<title>Node1</title>
<g id="a_node2"><a xlink:href="structDGtal_1_1Viewer3DFactory.html" target="_top" xlink:title="Factory for GPL Viewer3D:">
<polygon fill="white" stroke="black" points="190,-0.5 190,-30.5 323,-30.5 323,-0.5 190,-0.5"/>
<text text-anchor="start" x="198" y="-18.5" font-family="FreeSans" font-size="10.00">DGtal::Viewer3DFactory</text>
<text text-anchor="middle" x="256.5" y="-7.5" font-family="FreeSans" font-size="10.00">&lt; TSpace, TKSpace &gt;</text>
</a>
</g>
</g>
<!-- Node0&#45;&gt;Node1 -->
<g id="edge1" class="edge">
<title>Node0&#45;&gt;Node1</title>
<path fill="none" stroke="midnightblue" d="M164.19,-15.5C172.85,-15.5 181.55,-15.5 189.95,-15.5"/>
<polygon fill="midnightblue" stroke="midnightblue" points="164.05,-12 154.05,-15.5 164.05,-19 164.05,-12"/>
</g>
</g>
</svg>
