<?xml version="1.0" encoding="UTF-8" standalone="no"?>
<!DOCTYPE svg PUBLIC "-//W3C//DTD SVG 1.1//EN"
 "http://www.w3.org/Graphics/SVG/1.1/DTD/svg11.dtd">
<!-- Generated by graphviz version 2.43.0 (0)
 -->
<!-- Title: LibBoard::ShapeList Pages: 1 -->
<svg width="216pt" height="196pt"
 viewBox="0.00 0.00 215.50 196.00" xmlns="http://www.w3.org/2000/svg" xmlns:xlink="http://www.w3.org/1999/xlink">
<g id="graph0" class="graph" transform="scale(1 1) rotate(0) translate(4 192)">
<title>LibBoard::ShapeList</title>
<polygon fill="white" stroke="transparent" points="-4,4 -4,-192 211.5,-192 211.5,4 -4,4"/>
<!-- Node1 -->
<g id="node1" class="node">
<title>Node1</title>
<g id="a_node1"><a xlink:title="A group of shapes.">
<polygon fill="#bfbfbf" stroke="black" points="46.5,-112.5 46.5,-131.5 159.5,-131.5 159.5,-112.5 46.5,-112.5"/>
<text text-anchor="middle" x="103" y="-119.5" font-family="FreeSans" font-size="10.00">LibBoard::ShapeList</text>
</a>
</g>
</g>
<!-- Node3 -->
<g id="node3" class="node">
<title>Node3</title>
<g id="a_node3"><a xlink:href="classLibBoard_1_1Board.html" target="_top" xlink:title="Class for EPS, FIG or SVG drawings.">
<polygon fill="white" stroke="black" points="0,-56.5 0,-75.5 94,-75.5 94,-56.5 0,-56.5"/>
<text text-anchor="middle" x="47" y="-63.5" font-family="FreeSans" font-size="10.00">LibBoard::Board</text>
</a>
</g>
</g>
<!-- Node1&#45;&gt;Node3 -->
<g id="edge2" class="edge">
<title>Node1&#45;&gt;Node3</title>
<path fill="none" stroke="midnightblue" d="M86.67,-105.25C76.74,-95.67 64.41,-83.79 56.16,-75.83"/>
<polygon fill="midnightblue" stroke="midnightblue" points="84.37,-107.9 94,-112.32 89.23,-102.86 84.37,-107.9"/>
</g>
<!-- Node5 -->
<g id="node5" class="node">
<title>Node5</title>
<g id="a_node5"><a xlink:href="structLibBoard_1_1Group.html" target="_top" xlink:title="A group of shapes. A group is basically a ShapeList except that when rendered in either an SVG of a F...">
<polygon fill="white" stroke="black" points="112.5,-56.5 112.5,-75.5 207.5,-75.5 207.5,-56.5 112.5,-56.5"/>
<text text-anchor="middle" x="160" y="-63.5" font-family="FreeSans" font-size="10.00">LibBoard::Group</text>
</a>
</g>
</g>
<!-- Node1&#45;&gt;Node5 -->
<g id="edge4" class="edge">
<title>Node1&#45;&gt;Node5</title>
<path fill="none" stroke="midnightblue" d="M119.62,-105.25C129.73,-95.67 142.28,-83.79 150.68,-75.83"/>
<polygon fill="midnightblue" stroke="midnightblue" points="117.01,-102.91 112.16,-112.32 121.82,-107.99 117.01,-102.91"/>
</g>
<!-- Node2 -->
<g id="node2" class="node">
<title>Node2</title>
<g id="a_node2"><a xlink:href="structLibBoard_1_1Shape.html" target="_top" xlink:title="Abstract structure for a 2D shape.">
<polygon fill="white" stroke="black" points="55.5,-168.5 55.5,-187.5 150.5,-187.5 150.5,-168.5 55.5,-168.5"/>
<text text-anchor="middle" x="103" y="-175.5" font-family="FreeSans" font-size="10.00">LibBoard::Shape</text>
</a>
</g>
</g>
<!-- Node2&#45;&gt;Node1 -->
<g id="edge1" class="edge">
<title>Node2&#45;&gt;Node1</title>
<path fill="none" stroke="midnightblue" d="M103,-157.8C103,-148.91 103,-138.78 103,-131.75"/>
<polygon fill="midnightblue" stroke="midnightblue" points="99.5,-158.08 103,-168.08 106.5,-158.08 99.5,-158.08"/>
</g>
<!-- Node4 -->
<g id="node4" class="node">
<title>Node4</title>
<g id="a_node4"><a xlink:href="classDGtal_1_1Board2D.html" target="_top" xlink:title="Aim: This class specializes a &#39;Board&#39; class so as to display DGtal objects more naturally (with &lt;&lt;)....">
<polygon fill="white" stroke="black" points="1,-0.5 1,-19.5 93,-19.5 93,-0.5 1,-0.5"/>
<text text-anchor="middle" x="47" y="-7.5" font-family="FreeSans" font-size="10.00">DGtal::Board2D</text>
</a>
</g>
</g>
<!-- Node3&#45;&gt;Node4 -->
<g id="edge3" class="edge">
<title>Node3&#45;&gt;Node4</title>
<path fill="none" stroke="midnightblue" d="M47,-45.8C47,-36.91 47,-26.78 47,-19.75"/>
<polygon fill="midnightblue" stroke="midnightblue" points="43.5,-46.08 47,-56.08 50.5,-46.08 43.5,-46.08"/>
</g>
</g>
</svg>
