<?xml version="1.0" encoding="UTF-8" standalone="no"?>
<!DOCTYPE svg PUBLIC "-//W3C//DTD SVG 1.1//EN"
 "http://www.w3.org/Graphics/SVG/1.1/DTD/svg11.dtd">
<!-- Generated by graphviz version 2.43.0 (0)
 -->
<!-- Title: DGtal::concepts::CTrivialConstImage&lt; I &gt; Pages: 1 -->
<!--zoomable 558 -->
<svg id="main" version="1.1" xmlns="http://www.w3.org/2000/svg" xmlns:xlink="http://www.w3.org/1999/xlink" xml:space="preserve" onload="init(evt)">
<style type="text/css"><![CDATA[
.edge:hover path { stroke: red; }
.edge:hover polygon { stroke: red; fill: red; }
]]></style>
<script type="text/javascript"><![CDATA[
var edges = document.getElementsByTagName('g');
if (edges && edges.length) {
  for (var i=0;i<edges.length;i++) {
    if (edges[i].id.substr(0,4)=='edge') {
      edges[i].setAttribute('class','edge');
    }
  }
}
]]></script>
        <defs>
                <circle id="rim" cx="0" cy="0" r="7"/>
                <circle id="rim2" cx="0" cy="0" r="3.5"/>
                <g id="zoomPlus">
                        <use xlink:href="#rim" fill="#404040">
                                <set attributeName="fill" to="#808080" begin="zoomplus.mouseover" end="zoomplus.mouseout"/>
                        </use>
                        <path d="M-4,0h8M0,-4v8" fill="none" stroke="white" stroke-width="1.5" pointer-events="none"/>
                </g>
                <g id="zoomMin">
                        <use xlink:href="#rim" fill="#404040">
                                <set attributeName="fill" to="#808080" begin="zoomminus.mouseover" end="zoomminus.mouseout"/>
                        </use>
                        <path d="M-4,0h8" fill="none" stroke="white" stroke-width="1.5" pointer-events="none"/>
                </g>
                <g id="dirArrow">
                        <path fill="none" stroke="white" stroke-width="1.5" d="M0,-3.0v7 M-2.5,-0.5L0,-3.0L2.5,-0.5"/>
                </g>
               <g id="resetDef">
                       <use xlink:href="#rim2" fill="#404040">
                               <set attributeName="fill" to="#808080" begin="reset.mouseover" end="reset.mouseout"/>
                       </use>
               </g>
        </defs>

<script type="text/javascript">
var viewWidth = 402;
var viewHeight = 558;
var sectionId = 'dynsection-0';
</script>
<script xlink:href="svgpan.js"/>
<svg id="graph" class="graph">
<g id="viewport">
<title>DGtal::concepts::CTrivialConstImage&lt; I &gt;</title>
<polygon fill="white" stroke="transparent" points="-4,4 -4,-554 397.5,-554 397.5,4 -4,4"/>
<!-- Node1 -->
<g id="node1" class="node">
<title>Node1</title>
<g id="a_node1"><a xlink:title="Aim: Defines the concept describing a read&#45;only image, which is a refinement of CPointFunctor.">
<polygon fill="#bfbfbf" stroke="black" points="117.5,-125.5 117.5,-155.5 253.5,-155.5 253.5,-125.5 117.5,-125.5"/>
<text text-anchor="start" x="125.5" y="-143.5" font-family="FreeSans" font-size="10.00">DGtal::concepts::CTrivial</text>
<text text-anchor="middle" x="185.5" y="-132.5" font-family="FreeSans" font-size="10.00">ConstImage&lt; I &gt;</text>
</a>
</g>
</g>
<!-- Node8 -->
<g id="node8" class="node">
<title>Node8</title>
<g id="a_node8"><a xlink:href="structDGtal_1_1concepts_1_1CConstImage.html" target="_top" xlink:title="Aim: Defines the concept describing a read&#45;only image, which is a refinement of CPointFunctor.">
<polygon fill="white" stroke="black" points="0,-63 0,-82 191,-82 191,-63 0,-63"/>
<text text-anchor="middle" x="95.5" y="-70" font-family="FreeSans" font-size="10.00">DGtal::concepts::CConstImage&lt; I &gt;</text>
</a>
</g>
</g>
<!-- Node1&#45;&gt;Node8 -->
<g id="edge9" class="edge">
<title>Node1&#45;&gt;Node8</title>
<path fill="none" stroke="midnightblue" d="M157.54,-118.99C140.64,-106.6 119.98,-91.45 107.28,-82.14"/>
<polygon fill="midnightblue" stroke="midnightblue" points="155.84,-122.09 165.97,-125.18 159.98,-116.44 155.84,-122.09"/>
</g>
<!-- Node10 -->
<g id="node10" class="node">
<title>Node10</title>
<g id="a_node10"><a xlink:href="structDGtal_1_1concepts_1_1CTrivialImage.html" target="_top" xlink:title="Aim: Defines the concept describing an image without extra ranges, which is a refinement of CTrivialC...">
<polygon fill="white" stroke="black" points="209.5,-57.5 209.5,-87.5 345.5,-87.5 345.5,-57.5 209.5,-57.5"/>
<text text-anchor="start" x="217.5" y="-75.5" font-family="FreeSans" font-size="10.00">DGtal::concepts::CTrivial</text>
<text text-anchor="middle" x="277.5" y="-64.5" font-family="FreeSans" font-size="10.00">Image&lt; I &gt;</text>
</a>
</g>
</g>
<!-- Node1&#45;&gt;Node10 -->
<g id="edge11" class="edge">
<title>Node1&#45;&gt;Node10</title>
<path fill="none" stroke="midnightblue" d="M213.94,-119.1C228.19,-108.87 245.1,-96.74 257.89,-87.57"/>
<polygon fill="midnightblue" stroke="midnightblue" points="211.55,-116.51 205.46,-125.18 215.63,-122.19 211.55,-116.51"/>
</g>
<!-- Node2 -->
<g id="node2" class="node">
<title>Node2</title>
<g id="a_node2"><a xlink:href="structDGtal_1_1concepts_1_1CPointFunctor.html" target="_top" xlink:title=" ">
<polygon fill="white" stroke="black" points="89,-193.5 89,-212.5 282,-212.5 282,-193.5 89,-193.5"/>
<text text-anchor="middle" x="185.5" y="-200.5" font-family="FreeSans" font-size="10.00">DGtal::concepts::CPointFunctor&lt; I &gt;</text>
</a>
</g>
</g>
<!-- Node2&#45;&gt;Node1 -->
<g id="edge1" class="edge">
<title>Node2&#45;&gt;Node1</title>
<path fill="none" stroke="midnightblue" d="M185.5,-183.22C185.5,-174.36 185.5,-163.96 185.5,-155.76"/>
<polygon fill="midnightblue" stroke="midnightblue" points="182,-183.33 185.5,-193.33 189,-183.33 182,-183.33"/>
</g>
<!-- Node3 -->
<g id="node3" class="node">
<title>Node3</title>
<g id="a_node3"><a xlink:href="structDGtal_1_1concepts_1_1CUnaryFunctor.html" target="_top" xlink:title="Aim: Defines a unary functor, which associates arguments to results.">
<polygon fill="white" stroke="black" points="116.5,-395.5 116.5,-425.5 288.5,-425.5 288.5,-395.5 116.5,-395.5"/>
<text text-anchor="start" x="124.5" y="-413.5" font-family="FreeSans" font-size="10.00">DGtal::concepts::CUnaryFunctor</text>
<text text-anchor="middle" x="202.5" y="-402.5" font-family="FreeSans" font-size="10.00">&lt; X, A, R &gt;</text>
</a>
</g>
</g>
<!-- Node3&#45;&gt;Node2 -->
<g id="edge2" class="edge">
<title>Node3&#45;&gt;Node2</title>
<path fill="none" stroke="midnightblue" d="M196.92,-385.44C196.38,-382.6 195.89,-379.74 195.5,-377 186.55,-314.46 185.56,-238.11 185.49,-212.69"/>
<polygon fill="midnightblue" stroke="midnightblue" points="193.52,-386.27 199,-395.34 200.37,-384.83 193.52,-386.27"/>
</g>
<!-- Node7 -->
<g id="node7" class="node">
<title>Node7</title>
<g id="a_node7"><a xlink:href="structDGtal_1_1concepts_1_1CUnaryFunctor.html" target="_top" xlink:title=" ">
<polygon fill="white" stroke="black" points="209.5,-317.5 209.5,-347.5 381.5,-347.5 381.5,-317.5 209.5,-317.5"/>
<text text-anchor="start" x="217.5" y="-335.5" font-family="FreeSans" font-size="10.00">DGtal::concepts::CUnaryFunctor</text>
<text text-anchor="middle" x="295.5" y="-324.5" font-family="FreeSans" font-size="10.00">&lt; T, T::Point, T::Value &gt;</text>
</a>
</g>
</g>
<!-- Node3&#45;&gt;Node7 -->
<g id="edge8" class="edge">
<title>Node3&#45;&gt;Node7</title>
<path fill="none" stroke="orange" stroke-dasharray="5,2" d="M198.18,-385.12C198.22,-378.4 199.54,-371.46 203.5,-366 209.17,-358.18 216.87,-352.23 225.42,-347.71"/>
<polygon fill="orange" stroke="orange" points="194.71,-385.57 198.98,-395.27 201.69,-385.03 194.71,-385.57"/>
<text text-anchor="middle" x="262.5" y="-369" font-family="FreeSans" font-size="10.00"> &lt; T, T::Point, T::Value &gt;</text>
</g>
<!-- Node4 -->
<g id="node4" class="node">
<title>Node4</title>
<g id="a_node4"><a xlink:href="structboost_1_1Assignable.html" target="_top" xlink:title=" ">
<polygon fill="white" stroke="black" points="165.5,-463.5 165.5,-482.5 297.5,-482.5 297.5,-463.5 165.5,-463.5"/>
<text text-anchor="middle" x="231.5" y="-470.5" font-family="FreeSans" font-size="10.00">boost::Assignable&lt; X &gt;</text>
</a>
</g>
</g>
<!-- Node4&#45;&gt;Node3 -->
<g id="edge3" class="edge">
<title>Node4&#45;&gt;Node3</title>
<path fill="none" stroke="midnightblue" d="M222.92,-454.1C218.58,-445.05 213.4,-434.23 209.33,-425.76"/>
<polygon fill="midnightblue" stroke="midnightblue" points="219.87,-455.83 227.35,-463.33 226.18,-452.8 219.87,-455.83"/>
</g>
<!-- Node5 -->
<g id="node5" class="node">
<title>Node5</title>
<g id="a_node5"><a xlink:href="structboost_1_1Assignable.html" target="_top" xlink:title="Go to http://www.sgi.com/tech/stl/Assignable.html.">
<polygon fill="white" stroke="black" points="223,-530.5 223,-549.5 354,-549.5 354,-530.5 223,-530.5"/>
<text text-anchor="middle" x="288.5" y="-537.5" font-family="FreeSans" font-size="10.00">boost::Assignable&lt; T &gt;</text>
</a>
</g>
</g>
<!-- Node5&#45;&gt;Node4 -->
<g id="edge4" class="edge">
<title>Node5&#45;&gt;Node4</title>
<path fill="none" stroke="orange" stroke-dasharray="5,2" d="M274.15,-522.63C263,-509.92 247.98,-492.8 239.07,-482.63"/>
<polygon fill="orange" stroke="orange" points="271.59,-525.02 280.81,-530.23 276.85,-520.41 271.59,-525.02"/>
<text text-anchor="middle" x="279" y="-504" font-family="FreeSans" font-size="10.00"> &lt; X &gt;</text>
</g>
<!-- Node5&#45;&gt;Node7 -->
<g id="edge7" class="edge">
<title>Node5&#45;&gt;Node7</title>
<path fill="none" stroke="midnightblue" d="M296.33,-520.84C297.47,-517.91 298.57,-514.89 299.5,-512 318.15,-454.14 317.23,-437.64 321.5,-377 321.84,-372.12 323.12,-370.61 321.5,-366 319.16,-359.32 314.8,-352.99 310.31,-347.72"/>
<polygon fill="midnightblue" stroke="midnightblue" points="293.08,-519.55 292.51,-530.12 299.55,-522.21 293.08,-519.55"/>
</g>
<!-- Node6 -->
<g id="node6" class="node">
<title>Node6</title>
<g id="a_node6"><a xlink:href="structDGtal_1_1concepts_1_1CPointFunctor.html" target="_top" xlink:title="Aim: Defines a functor on points.">
<polygon fill="white" stroke="black" points="197.5,-260.5 197.5,-279.5 393.5,-279.5 393.5,-260.5 197.5,-260.5"/>
<text text-anchor="middle" x="295.5" y="-267.5" font-family="FreeSans" font-size="10.00">DGtal::concepts::CPointFunctor&lt; T &gt;</text>
</a>
</g>
</g>
<!-- Node6&#45;&gt;Node2 -->
<g id="edge5" class="edge">
<title>Node6&#45;&gt;Node2</title>
<path fill="none" stroke="orange" stroke-dasharray="5,2" d="M272,-255.12C250.21,-242.24 218.46,-223.48 200.1,-212.63"/>
<polygon fill="orange" stroke="orange" points="270.28,-258.16 280.66,-260.23 273.84,-252.13 270.28,-258.16"/>
<text text-anchor="middle" x="262" y="-234" font-family="FreeSans" font-size="10.00"> &lt; I &gt;</text>
</g>
<!-- Node7&#45;&gt;Node6 -->
<g id="edge6" class="edge">
<title>Node7&#45;&gt;Node6</title>
<path fill="none" stroke="midnightblue" d="M295.5,-307.35C295.5,-297.51 295.5,-286.78 295.5,-279.54"/>
<polygon fill="midnightblue" stroke="midnightblue" points="292,-307.47 295.5,-317.47 299,-307.47 292,-307.47"/>
</g>
<!-- Node9 -->
<g id="node9" class="node">
<title>Node9</title>
<g id="a_node9"><a xlink:href="structDGtal_1_1concepts_1_1CImage.html" target="_top" xlink:title="Aim: Defines the concept describing a read/write image, having an output iterator.">
<polygon fill="white" stroke="black" points="104,-0.5 104,-19.5 267,-19.5 267,-0.5 104,-0.5"/>
<text text-anchor="middle" x="185.5" y="-7.5" font-family="FreeSans" font-size="10.00">DGtal::concepts::CImage&lt; I &gt;</text>
</a>
</g>
</g>
<!-- Node8&#45;&gt;Node9 -->
<g id="edge10" class="edge">
<title>Node8&#45;&gt;Node9</title>
<path fill="none" stroke="midnightblue" d="M116.78,-57.19C134.13,-45.53 158.07,-29.44 172.63,-19.65"/>
<polygon fill="midnightblue" stroke="midnightblue" points="114.74,-54.35 108.39,-62.83 118.65,-60.16 114.74,-54.35"/>
</g>
<!-- Node10&#45;&gt;Node9 -->
<g id="edge12" class="edge">
<title>Node10&#45;&gt;Node9</title>
<path fill="none" stroke="midnightblue" d="M247.35,-51.67C230.8,-40.79 211.13,-27.85 198.49,-19.54"/>
<polygon fill="midnightblue" stroke="midnightblue" points="245.88,-54.9 256.16,-57.47 249.73,-49.05 245.88,-54.9"/>
</g>
</g>
</svg>
        <g id="navigator" transform="translate(0 0)" fill="#404254">
                <rect fill="#f2f5e9" fill-opacity="0.5" stroke="#606060" stroke-width=".5" x="0" y="0" width="60" height="60"/>
                <use id="zoomplus" xlink:href="#zoomPlus" x="17" y="9" onmousedown="handleZoom(evt,'in')"/>
                <use id="zoomminus" xlink:href="#zoomMin" x="42" y="9" onmousedown="handleZoom(evt,'out')"/>
                <use id="reset" xlink:href="#resetDef" x="30" y="36" onmousedown="handleReset()"/>
                <g id="arrowUp" xlink:href="#dirArrow" transform="translate(30 24)" onmousedown="handlePan(0,-1)">
                  <use xlink:href="#rim" fill="#404040">
                        <set attributeName="fill" to="#808080" begin="arrowUp.mouseover" end="arrowUp.mouseout"/>
                  </use>
                  <path fill="none" stroke="white" stroke-width="1.5" d="M0,-3.0v7 M-2.5,-0.5L0,-3.0L2.5,-0.5"/>
                </g>
                <g id="arrowRight" xlink:href="#dirArrow" transform="rotate(90) translate(36 -43)" onmousedown="handlePan(1,0)">
                  <use xlink:href="#rim" fill="#404040">
                        <set attributeName="fill" to="#808080" begin="arrowRight.mouseover" end="arrowRight.mouseout"/>
                  </use>
                  <path fill="none" stroke="white" stroke-width="1.5" d="M0,-3.0v7 M-2.5,-0.5L0,-3.0L2.5,-0.5"/>
                </g>
                <g id="arrowDown" xlink:href="#dirArrow" transform="rotate(180) translate(-30 -48)" onmousedown="handlePan(0,1)">
                  <use xlink:href="#rim" fill="#404040">
                        <set attributeName="fill" to="#808080" begin="arrowDown.mouseover" end="arrowDown.mouseout"/>
                  </use>
                  <path fill="none" stroke="white" stroke-width="1.5" d="M0,-3.0v7 M-2.5,-0.5L0,-3.0L2.5,-0.5"/>
                </g>
                <g id="arrowLeft" xlink:href="#dirArrow" transform="rotate(270) translate(-36 17)" onmousedown="handlePan(-1,0)">
                  <use xlink:href="#rim" fill="#404040">
                        <set attributeName="fill" to="#808080" begin="arrowLeft.mouseover" end="arrowLeft.mouseout"/>
                  </use>
                  <path fill="none" stroke="white" stroke-width="1.5" d="M0,-3.0v7 M-2.5,-0.5L0,-3.0L2.5,-0.5"/>
                </g>
        </g>
        <svg viewBox="0 0 15 15" width="100%" height="30px" preserveAspectRatio="xMaxYMin meet">
         <g id="arrow_out" transform="scale(0.3 0.3)">
          <a xlink:href="structDGtal_1_1concepts_1_1CTrivialConstImage__inherit__graph_org.svg" target="_base">
           <rect id="button" ry="5" rx="5" y="6" x="6" height="38" width="38"
                fill="#f2f5e9" fill-opacity="0.5" stroke="#606060" stroke-width="1.0"/>
           <path id="arrow"
             d="M 11.500037,31.436501 C 11.940474,20.09759 22.043105,11.32322 32.158766,21.979434 L 37.068811,17.246167 C 37.068811,17.246167 37.088388,32 37.088388,32 L 22.160133,31.978069 C 22.160133,31.978069 26.997745,27.140456 26.997745,27.140456 C 18.528582,18.264221 13.291696,25.230495 11.500037,31.436501 z"
             style="fill:#404040;"/>
          </a>
         </g>
        </svg>
</svg>
