<?xml version="1.0" encoding="UTF-8" standalone="no"?>
<!DOCTYPE svg PUBLIC "-//W3C//DTD SVG 1.1//EN"
 "http://www.w3.org/Graphics/SVG/1.1/DTD/svg11.dtd">
<!-- Generated by graphviz version 2.43.0 (0)
 -->
<!-- Title: DGtal::NumberTraits&lt; T &gt; Pages: 1 -->
<svg width="181pt" height="263pt"
 viewBox="0.00 0.00 181.00 263.00" xmlns="http://www.w3.org/2000/svg" xmlns:xlink="http://www.w3.org/1999/xlink">
<g id="graph0" class="graph" transform="scale(1 1) rotate(0) translate(4 259)">
<title>DGtal::NumberTraits&lt; T &gt;</title>
<polygon fill="white" stroke="transparent" points="-4,4 -4,-259 177,-259 177,4 -4,4"/>
<!-- Node1 -->
<g id="node1" class="node">
<title>Node1</title>
<g id="a_node1"><a xlink:title="Aim: The traits class for all models of Cinteger.">
<polygon fill="#bfbfbf" stroke="black" points="1,-78.5 1,-97.5 145,-97.5 145,-78.5 1,-78.5"/>
<text text-anchor="middle" x="73" y="-85.5" font-family="FreeSans" font-size="10.00">DGtal::NumberTraits&lt; T &gt;</text>
</a>
</g>
</g>
<!-- Node4 -->
<g id="node4" class="node">
<title>Node4</title>
<g id="a_node4"><a xlink:href="structDGtal_1_1NumberTraits.html" target="_top" xlink:title=" ">
<polygon fill="white" stroke="black" points="15,-0.5 15,-30.5 131,-30.5 131,-0.5 15,-0.5"/>
<text text-anchor="start" x="23" y="-18.5" font-family="FreeSans" font-size="10.00">DGtal::NumberTraits</text>
<text text-anchor="middle" x="73" y="-7.5" font-family="FreeSans" font-size="10.00">&lt; TInteger &gt;</text>
</a>
</g>
</g>
<!-- Node1&#45;&gt;Node4 -->
<g id="edge3" class="edge">
<title>Node1&#45;&gt;Node4</title>
<path fill="none" stroke="orange" stroke-dasharray="5,2" d="M73,-68.24C73,-56.41 73,-41.38 73,-30.58"/>
<polygon fill="orange" stroke="orange" points="69.5,-68.36 73,-78.36 76.5,-68.36 69.5,-68.36"/>
<text text-anchor="middle" x="106.5" y="-52" font-family="FreeSans" font-size="10.00"> &lt; TInteger &gt;</text>
</g>
<!-- Node2 -->
<g id="node2" class="node">
<title>Node2</title>
<g id="a_node2"><a xlink:href="structDGtal_1_1NumberTraitsImpl.html" target="_top" xlink:title=" ">
<polygon fill="white" stroke="black" points="0,-135.5 0,-165.5 146,-165.5 146,-135.5 0,-135.5"/>
<text text-anchor="start" x="8" y="-153.5" font-family="FreeSans" font-size="10.00">DGtal::NumberTraitsImpl</text>
<text text-anchor="middle" x="73" y="-142.5" font-family="FreeSans" font-size="10.00">&lt; std::decay&lt; T &gt;::type &gt;</text>
</a>
</g>
</g>
<!-- Node2&#45;&gt;Node1 -->
<g id="edge1" class="edge">
<title>Node2&#45;&gt;Node1</title>
<path fill="none" stroke="midnightblue" d="M73,-125.35C73,-115.51 73,-104.78 73,-97.54"/>
<polygon fill="midnightblue" stroke="midnightblue" points="69.5,-125.47 73,-135.47 76.5,-125.47 69.5,-125.47"/>
</g>
<!-- Node3 -->
<g id="node3" class="node">
<title>Node3</title>
<g id="a_node3"><a xlink:href="structDGtal_1_1NumberTraitsImpl.html" target="_top" xlink:title="Aim: The traits class for all models of Cinteger (implementation)">
<polygon fill="white" stroke="black" points="4.5,-224.5 4.5,-254.5 141.5,-254.5 141.5,-224.5 4.5,-224.5"/>
<text text-anchor="start" x="12.5" y="-242.5" font-family="FreeSans" font-size="10.00">DGtal::NumberTraitsImpl</text>
<text text-anchor="middle" x="73" y="-231.5" font-family="FreeSans" font-size="10.00">&lt; T, Enable &gt;</text>
</a>
</g>
</g>
<!-- Node3&#45;&gt;Node2 -->
<g id="edge2" class="edge">
<title>Node3&#45;&gt;Node2</title>
<path fill="none" stroke="orange" stroke-dasharray="5,2" d="M73,-214.09C73,-198.44 73,-178.68 73,-165.6"/>
<polygon fill="orange" stroke="orange" points="69.5,-214.13 73,-224.13 76.5,-214.13 69.5,-214.13"/>
<text text-anchor="start" x="73" y="-198" font-family="FreeSans" font-size="10.00"> &lt; std::decay&lt; T &gt;::</text>
<text text-anchor="middle" x="123" y="-187" font-family="FreeSans" font-size="10.00">type &gt;</text>
</g>
</g>
</svg>
