<?xml version="1.0" encoding="UTF-8" standalone="no"?>
<!DOCTYPE svg PUBLIC "-//W3C//DTD SVG 1.1//EN"
 "http://www.w3.org/Graphics/SVG/1.1/DTD/svg11.dtd">
<!-- Generated by graphviz version 2.43.0 (0)
 -->
<!-- Title: DGtal::concepts::CDigitalSet&lt; T &gt; Pages: 1 -->
<svg width="1739pt" height="94pt"
 viewBox="0.00 0.00 1739.00 93.50" xmlns="http://www.w3.org/2000/svg" xmlns:xlink="http://www.w3.org/1999/xlink">
<g id="graph0" class="graph" transform="scale(1 1) rotate(0) translate(4 89.5)">
<title>DGtal::concepts::CDigitalSet&lt; T &gt;</title>
<polygon fill="white" stroke="transparent" points="-4,4 -4,-89.5 1735,-89.5 1735,4 -4,4"/>
<!-- Node1 -->
<g id="node1" class="node">
<title>Node1</title>
<g id="a_node1"><a xlink:title="Aim: Represents a set of points within the given domain. This set of points is modifiable by the user...">
<polygon fill="#bfbfbf" stroke="black" points="1592,-41.5 1592,-71.5 1731,-71.5 1731,-41.5 1592,-41.5"/>
<text text-anchor="start" x="1600" y="-59.5" font-family="FreeSans" font-size="10.00">DGtal::concepts::CDigital</text>
<text text-anchor="middle" x="1661.5" y="-48.5" font-family="FreeSans" font-size="10.00">Set&lt; T &gt;</text>
</a>
</g>
</g>
<!-- Node2 -->
<g id="node2" class="node">
<title>Node2</title>
<g id="a_node2"><a xlink:href="structboost_1_1CopyConstructible.html" target="_top" xlink:title="Go to http://www.sgi.com/tech/stl/CopyConstructible.html.">
<polygon fill="white" stroke="black" points="1368.5,-66 1368.5,-85 1535.5,-85 1535.5,-66 1368.5,-66"/>
<text text-anchor="middle" x="1452" y="-73" font-family="FreeSans" font-size="10.00">boost::CopyConstructible&lt; T &gt;</text>
</a>
</g>
</g>
<!-- Node2&#45;&gt;Node1 -->
<g id="edge1" class="edge">
<title>Node2&#45;&gt;Node1</title>
<path fill="none" stroke="midnightblue" d="M1545.74,-67.01C1561.25,-65.59 1577.09,-64.14 1591.85,-62.79"/>
<polygon fill="midnightblue" stroke="midnightblue" points="1545.24,-63.54 1535.61,-67.94 1545.88,-70.51 1545.24,-63.54"/>
</g>
<!-- Node3 -->
<g id="node3" class="node">
<title>Node3</title>
<g id="a_node3"><a xlink:href="structDGtal_1_1concepts_1_1CPointPredicate.html" target="_top" xlink:title="Aim: Defines a predicate on a point.">
<polygon fill="white" stroke="black" points="1349,-28 1349,-47 1555,-47 1555,-28 1349,-28"/>
<text text-anchor="middle" x="1452" y="-35" font-family="FreeSans" font-size="10.00">DGtal::concepts::CPointPredicate&lt; T &gt;</text>
</a>
</g>
</g>
<!-- Node3&#45;&gt;Node1 -->
<g id="edge2" class="edge">
<title>Node3&#45;&gt;Node1</title>
<path fill="none" stroke="midnightblue" d="M1565.38,-47.79C1574.34,-48.61 1583.22,-49.42 1591.75,-50.2"/>
<polygon fill="midnightblue" stroke="midnightblue" points="1565.51,-44.29 1555.23,-46.86 1564.87,-51.26 1565.51,-44.29"/>
</g>
<!-- Node4 -->
<g id="node4" class="node">
<title>Node4</title>
<g id="a_node4"><a xlink:href="structDGtal_1_1concepts_1_1CPredicate.html" target="_top" xlink:title=" ">
<polygon fill="white" stroke="black" points="1160,-22.5 1160,-52.5 1312,-52.5 1312,-22.5 1160,-22.5"/>
<text text-anchor="start" x="1168" y="-40.5" font-family="FreeSans" font-size="10.00">DGtal::concepts::CPredicate</text>
<text text-anchor="middle" x="1236" y="-29.5" font-family="FreeSans" font-size="10.00">&lt; T, T::Point &gt;</text>
</a>
</g>
</g>
<!-- Node4&#45;&gt;Node3 -->
<g id="edge3" class="edge">
<title>Node4&#45;&gt;Node3</title>
<path fill="none" stroke="midnightblue" d="M1322.33,-37.5C1331.1,-37.5 1340.07,-37.5 1348.99,-37.5"/>
<polygon fill="midnightblue" stroke="midnightblue" points="1322.15,-34 1312.15,-37.5 1322.15,-41 1322.15,-34"/>
</g>
<!-- Node5 -->
<g id="node5" class="node">
<title>Node5</title>
<g id="a_node5"><a xlink:href="structDGtal_1_1concepts_1_1CUnaryFunctor.html" target="_top" xlink:title="Aim: Defines a unary functor, which associates arguments to results.">
<polygon fill="white" stroke="black" points="369,-29.5 369,-59.5 541,-59.5 541,-29.5 369,-29.5"/>
<text text-anchor="start" x="377" y="-47.5" font-family="FreeSans" font-size="10.00">DGtal::concepts::CUnaryFunctor</text>
<text text-anchor="middle" x="455" y="-36.5" font-family="FreeSans" font-size="10.00">&lt; X, A, R &gt;</text>
</a>
</g>
</g>
<!-- Node5&#45;&gt;Node4 -->
<g id="edge4" class="edge">
<title>Node5&#45;&gt;Node4</title>
<path fill="none" stroke="midnightblue" d="M551.28,-45.46C553.88,-45.47 556.46,-45.49 559,-45.5 608.78,-45.74 621.22,-45.55 671,-45.5 880.33,-45.28 932.82,-52.58 1142,-44.5 1147.82,-44.27 1153.85,-43.97 1159.9,-43.62"/>
<polygon fill="midnightblue" stroke="midnightblue" points="551.17,-41.96 541.15,-45.39 551.13,-48.96 551.17,-41.96"/>
</g>
<!-- Node9 -->
<g id="node9" class="node">
<title>Node9</title>
<g id="a_node9"><a xlink:href="structDGtal_1_1concepts_1_1CUnaryFunctor.html" target="_top" xlink:title=" ">
<polygon fill="white" stroke="black" points="689,-0.5 689,-30.5 861,-30.5 861,-0.5 689,-0.5"/>
<text text-anchor="start" x="697" y="-18.5" font-family="FreeSans" font-size="10.00">DGtal::concepts::CUnaryFunctor</text>
<text text-anchor="middle" x="775" y="-7.5" font-family="FreeSans" font-size="10.00">&lt; T, TElement, bool &gt;</text>
</a>
</g>
</g>
<!-- Node5&#45;&gt;Node9 -->
<g id="edge10" class="edge">
<title>Node5&#45;&gt;Node9</title>
<path fill="none" stroke="orange" stroke-dasharray="5,2" d="M551.28,-35.22C553.88,-34.98 556.46,-34.74 559,-34.5 601.82,-30.53 649.45,-26.3 688.97,-22.84"/>
<polygon fill="orange" stroke="orange" points="550.77,-31.75 541.15,-36.18 551.43,-38.72 550.77,-31.75"/>
<text text-anchor="middle" x="615" y="-37.5" font-family="FreeSans" font-size="10.00"> &lt; T, TElement, bool &gt;</text>
</g>
<!-- Node6 -->
<g id="node6" class="node">
<title>Node6</title>
<g id="a_node6"><a xlink:href="structboost_1_1Assignable.html" target="_top" xlink:title=" ">
<polygon fill="white" stroke="black" points="200,-32 200,-51 332,-51 332,-32 200,-32"/>
<text text-anchor="middle" x="266" y="-39" font-family="FreeSans" font-size="10.00">boost::Assignable&lt; X &gt;</text>
</a>
</g>
</g>
<!-- Node6&#45;&gt;Node5 -->
<g id="edge5" class="edge">
<title>Node6&#45;&gt;Node5</title>
<path fill="none" stroke="midnightblue" d="M342.24,-42.71C350.95,-42.85 359.87,-42.99 368.7,-43.13"/>
<polygon fill="midnightblue" stroke="midnightblue" points="342.2,-39.21 332.14,-42.55 342.08,-46.21 342.2,-39.21"/>
</g>
<!-- Node7 -->
<g id="node7" class="node">
<title>Node7</title>
<g id="a_node7"><a xlink:href="structboost_1_1Assignable.html" target="_top" xlink:title="Go to http://www.sgi.com/tech/stl/Assignable.html.">
<polygon fill="white" stroke="black" points="0,-7 0,-26 131,-26 131,-7 0,-7"/>
<text text-anchor="middle" x="65.5" y="-14" font-family="FreeSans" font-size="10.00">boost::Assignable&lt; T &gt;</text>
</a>
</g>
</g>
<!-- Node7&#45;&gt;Node6 -->
<g id="edge6" class="edge">
<title>Node7&#45;&gt;Node6</title>
<path fill="none" stroke="orange" stroke-dasharray="5,2" d="M141.15,-25.9C160.39,-28.33 180.96,-30.92 199.69,-33.27"/>
<polygon fill="orange" stroke="orange" points="141.58,-22.43 131.22,-24.65 140.71,-29.37 141.58,-22.43"/>
<text text-anchor="middle" x="165.5" y="-33.5" font-family="FreeSans" font-size="10.00"> &lt; X &gt;</text>
</g>
<!-- Node7&#45;&gt;Node9 -->
<g id="edge9" class="edge">
<title>Node7&#45;&gt;Node9</title>
<path fill="none" stroke="midnightblue" d="M141.23,-16.39C273.78,-16.21 549.24,-15.82 688.89,-15.62"/>
<polygon fill="midnightblue" stroke="midnightblue" points="141.16,-12.89 131.16,-16.41 141.17,-19.89 141.16,-12.89"/>
</g>
<!-- Node8 -->
<g id="node8" class="node">
<title>Node8</title>
<g id="a_node8"><a xlink:href="structDGtal_1_1concepts_1_1CPredicate.html" target="_top" xlink:title="Aim: Defines a predicate function, ie. a functor mapping a domain into the set of booleans.">
<polygon fill="white" stroke="black" points="898,-0.5 898,-30.5 1050,-30.5 1050,-0.5 898,-0.5"/>
<text text-anchor="start" x="906" y="-18.5" font-family="FreeSans" font-size="10.00">DGtal::concepts::CPredicate</text>
<text text-anchor="middle" x="974" y="-7.5" font-family="FreeSans" font-size="10.00">&lt; T, TElement &gt;</text>
</a>
</g>
</g>
<!-- Node8&#45;&gt;Node4 -->
<g id="edge7" class="edge">
<title>Node8&#45;&gt;Node4</title>
<path fill="none" stroke="orange" stroke-dasharray="5,2" d="M1060.48,-22.73C1092.6,-25.45 1128.86,-28.52 1159.97,-31.15"/>
<polygon fill="orange" stroke="orange" points="1060.46,-19.22 1050.2,-21.86 1059.87,-26.19 1060.46,-19.22"/>
<text text-anchor="middle" x="1105" y="-32.5" font-family="FreeSans" font-size="10.00"> &lt; T, T::Point &gt;</text>
</g>
<!-- Node9&#45;&gt;Node8 -->
<g id="edge8" class="edge">
<title>Node9&#45;&gt;Node8</title>
<path fill="none" stroke="midnightblue" d="M871.29,-15.5C880.2,-15.5 889.14,-15.5 897.82,-15.5"/>
<polygon fill="midnightblue" stroke="midnightblue" points="871.26,-12 861.26,-15.5 871.26,-19 871.26,-12"/>
</g>
</g>
</svg>
