<?xml version="1.0" encoding="UTF-8" standalone="no"?>
<!DOCTYPE svg PUBLIC "-//W3C//DTD SVG 1.1//EN"
 "http://www.w3.org/Graphics/SVG/1.1/DTD/svg11.dtd">
<!-- Generated by graphviz version 2.43.0 (0)
 -->
<!-- Title: DGtal::AssociativeCategory Pages: 1 -->
<!--zoomable 361 -->
<svg id="main" version="1.1" xmlns="http://www.w3.org/2000/svg" xmlns:xlink="http://www.w3.org/1999/xlink" xml:space="preserve" onload="init(evt)">
<style type="text/css"><![CDATA[
.edge:hover path { stroke: red; }
.edge:hover polygon { stroke: red; fill: red; }
]]></style>
<script type="text/javascript"><![CDATA[
var edges = document.getElementsByTagName('g');
if (edges && edges.length) {
  for (var i=0;i<edges.length;i++) {
    if (edges[i].id.substr(0,4)=='edge') {
      edges[i].setAttribute('class','edge');
    }
  }
}
]]></script>
        <defs>
                <circle id="rim" cx="0" cy="0" r="7"/>
                <circle id="rim2" cx="0" cy="0" r="3.5"/>
                <g id="zoomPlus">
                        <use xlink:href="#rim" fill="#404040">
                                <set attributeName="fill" to="#808080" begin="zoomplus.mouseover" end="zoomplus.mouseout"/>
                        </use>
                        <path d="M-4,0h8M0,-4v8" fill="none" stroke="white" stroke-width="1.5" pointer-events="none"/>
                </g>
                <g id="zoomMin">
                        <use xlink:href="#rim" fill="#404040">
                                <set attributeName="fill" to="#808080" begin="zoomminus.mouseover" end="zoomminus.mouseout"/>
                        </use>
                        <path d="M-4,0h8" fill="none" stroke="white" stroke-width="1.5" pointer-events="none"/>
                </g>
                <g id="dirArrow">
                        <path fill="none" stroke="white" stroke-width="1.5" d="M0,-3.0v7 M-2.5,-0.5L0,-3.0L2.5,-0.5"/>
                </g>
               <g id="resetDef">
                       <use xlink:href="#rim2" fill="#404040">
                               <set attributeName="fill" to="#808080" begin="reset.mouseover" end="reset.mouseout"/>
                       </use>
               </g>
        </defs>

<script type="text/javascript">
var viewWidth = 757;
var viewHeight = 361;
var sectionId = 'dynsection-0';
</script>
<script xlink:href="svgpan.js"/>
<svg id="graph" class="graph">
<g id="viewport">
<title>DGtal::AssociativeCategory</title>
<polygon fill="white" stroke="transparent" points="-4,4 -4,-357 753,-357 753,4 -4,4"/>
<!-- Node1 -->
<g id="node1" class="node">
<title>Node1</title>
<g id="a_node1"><a xlink:title=" ">
<polygon fill="#bfbfbf" stroke="black" points="178,-169 178,-188 329,-188 329,-169 178,-169"/>
<text text-anchor="middle" x="253.5" y="-176" font-family="FreeSans" font-size="10.00">DGtal::AssociativeCategory</text>
</a>
</g>
</g>
<!-- Node3 -->
<g id="node3" class="node">
<title>Node3</title>
<g id="a_node3"><a xlink:href="structDGtal_1_1MultipleAssociativeCategory.html" target="_top" xlink:title=" ">
<polygon fill="white" stroke="black" points="376.5,-278.5 376.5,-308.5 522.5,-308.5 522.5,-278.5 376.5,-278.5"/>
<text text-anchor="start" x="384.5" y="-296.5" font-family="FreeSans" font-size="10.00">DGtal::MultipleAssociative</text>
<text text-anchor="middle" x="449.5" y="-285.5" font-family="FreeSans" font-size="10.00">Category</text>
</a>
</g>
</g>
<!-- Node1&#45;&gt;Node3 -->
<g id="edge2" class="edge">
<title>Node1&#45;&gt;Node3</title>
<path fill="none" stroke="midnightblue" d="M270.74,-195.61C290.99,-216 327.53,-249.78 365,-269.5 371.41,-272.87 378.35,-275.82 385.39,-278.39"/>
<polygon fill="midnightblue" stroke="midnightblue" points="273.06,-192.98 263.57,-188.26 268.05,-197.87 273.06,-192.98"/>
</g>
<!-- Node8 -->
<g id="node8" class="node">
<title>Node8</title>
<g id="a_node8"><a xlink:href="structDGtal_1_1OrderedAssociativeCategory.html" target="_top" xlink:title=" ">
<polygon fill="white" stroke="black" points="376.5,-229.5 376.5,-259.5 522.5,-259.5 522.5,-229.5 376.5,-229.5"/>
<text text-anchor="start" x="384.5" y="-247.5" font-family="FreeSans" font-size="10.00">DGtal::OrderedAssociative</text>
<text text-anchor="middle" x="449.5" y="-236.5" font-family="FreeSans" font-size="10.00">Category</text>
</a>
</g>
</g>
<!-- Node1&#45;&gt;Node8 -->
<g id="edge7" class="edge">
<title>Node1&#45;&gt;Node8</title>
<path fill="none" stroke="midnightblue" d="M288.37,-191.71C310.14,-200.04 339.09,-210.82 365,-219.5 375.04,-222.86 385.84,-226.26 396.22,-229.41"/>
<polygon fill="midnightblue" stroke="midnightblue" points="289.51,-188.4 278.92,-188.07 286.99,-194.93 289.51,-188.4"/>
</g>
<!-- Node11 -->
<g id="node11" class="node">
<title>Node11</title>
<g id="a_node11"><a xlink:href="structDGtal_1_1PairAssociativeCategory.html" target="_top" xlink:title=" ">
<polygon fill="white" stroke="black" points="365,-191 365,-210 534,-210 534,-191 365,-191"/>
<text text-anchor="middle" x="449.5" y="-198" font-family="FreeSans" font-size="10.00">DGtal::PairAssociativeCategory</text>
</a>
</g>
</g>
<!-- Node1&#45;&gt;Node11 -->
<g id="edge12" class="edge">
<title>Node1&#45;&gt;Node11</title>
<path fill="none" stroke="midnightblue" d="M339.41,-188.13C347.83,-189.08 356.37,-190.05 364.77,-191"/>
<polygon fill="midnightblue" stroke="midnightblue" points="339.56,-184.62 329.23,-186.97 338.77,-191.58 339.56,-184.62"/>
</g>
<!-- Node13 -->
<g id="node13" class="node">
<title>Node13</title>
<g id="a_node13"><a xlink:href="structDGtal_1_1SimpleAssociativeCategory.html" target="_top" xlink:title=" ">
<polygon fill="white" stroke="black" points="379.5,-141.5 379.5,-171.5 519.5,-171.5 519.5,-141.5 379.5,-141.5"/>
<text text-anchor="start" x="387.5" y="-159.5" font-family="FreeSans" font-size="10.00">DGtal::SimpleAssociative</text>
<text text-anchor="middle" x="449.5" y="-148.5" font-family="FreeSans" font-size="10.00">Category</text>
</a>
</g>
</g>
<!-- Node1&#45;&gt;Node13 -->
<g id="edge17" class="edge">
<title>Node1&#45;&gt;Node13</title>
<path fill="none" stroke="midnightblue" d="M339.34,-168.88C352.66,-167.37 366.3,-165.82 379.22,-164.36"/>
<polygon fill="midnightblue" stroke="midnightblue" points="338.77,-165.42 329.23,-170.03 339.56,-172.38 338.77,-165.42"/>
</g>
<!-- Node15 -->
<g id="node15" class="node">
<title>Node15</title>
<g id="a_node15"><a xlink:href="structDGtal_1_1UniqueAssociativeCategory.html" target="_top" xlink:title=" ">
<polygon fill="white" stroke="black" points="379,-43.5 379,-73.5 520,-73.5 520,-43.5 379,-43.5"/>
<text text-anchor="start" x="387" y="-61.5" font-family="FreeSans" font-size="10.00">DGtal::UniqueAssociative</text>
<text text-anchor="middle" x="449.5" y="-50.5" font-family="FreeSans" font-size="10.00">Category</text>
</a>
</g>
</g>
<!-- Node1&#45;&gt;Node15 -->
<g id="edge22" class="edge">
<title>Node1&#45;&gt;Node15</title>
<path fill="none" stroke="midnightblue" d="M269.66,-161.35C289.52,-139.91 326.39,-103.47 365,-82.5 371.23,-79.12 377.99,-76.17 384.87,-73.6"/>
<polygon fill="midnightblue" stroke="midnightblue" points="267.05,-159.02 262.91,-168.77 272.23,-163.73 267.05,-159.02"/>
</g>
<!-- Node16 -->
<g id="node16" class="node">
<title>Node16</title>
<g id="a_node16"><a xlink:href="structDGtal_1_1UnorderedAssociativeCategory.html" target="_top" xlink:title=" ">
<polygon fill="white" stroke="black" points="370.5,-92.5 370.5,-122.5 528.5,-122.5 528.5,-92.5 370.5,-92.5"/>
<text text-anchor="start" x="378.5" y="-110.5" font-family="FreeSans" font-size="10.00">DGtal::UnorderedAssociative</text>
<text text-anchor="middle" x="449.5" y="-99.5" font-family="FreeSans" font-size="10.00">Category</text>
</a>
</g>
</g>
<!-- Node1&#45;&gt;Node16 -->
<g id="edge27" class="edge">
<title>Node1&#45;&gt;Node16</title>
<path fill="none" stroke="midnightblue" d="M284.13,-164.73C306.16,-154.78 337.1,-141.4 365,-131.5 373.81,-128.37 383.26,-125.35 392.5,-122.57"/>
<polygon fill="midnightblue" stroke="midnightblue" points="282.62,-161.57 274.97,-168.9 285.53,-167.94 282.62,-161.57"/>
</g>
<!-- Node2 -->
<g id="node2" class="node">
<title>Node2</title>
<g id="a_node2"><a xlink:href="structDGtal_1_1ContainerCategory.html" target="_top" xlink:title=" ">
<polygon fill="white" stroke="black" points="0,-169 0,-188 142,-188 142,-169 0,-169"/>
<text text-anchor="middle" x="71" y="-176" font-family="FreeSans" font-size="10.00">DGtal::ContainerCategory</text>
</a>
</g>
</g>
<!-- Node2&#45;&gt;Node1 -->
<g id="edge1" class="edge">
<title>Node2&#45;&gt;Node1</title>
<path fill="none" stroke="midnightblue" d="M152.28,-178.5C160.74,-178.5 169.32,-178.5 177.71,-178.5"/>
<polygon fill="midnightblue" stroke="midnightblue" points="152.04,-175 142.04,-178.5 152.04,-182 152.04,-175"/>
</g>
<!-- Node4 -->
<g id="node4" class="node">
<title>Node4</title>
<g id="a_node4"><a xlink:href="structDGtal_1_1MultimapAssociativeCategory.html" target="_top" xlink:title=" ">
<polygon fill="white" stroke="black" points="583,-322.5 583,-352.5 736,-352.5 736,-322.5 583,-322.5"/>
<text text-anchor="start" x="591" y="-340.5" font-family="FreeSans" font-size="10.00">DGtal::MultimapAssociative</text>
<text text-anchor="middle" x="659.5" y="-329.5" font-family="FreeSans" font-size="10.00">Category</text>
</a>
</g>
</g>
<!-- Node3&#45;&gt;Node4 -->
<g id="edge3" class="edge">
<title>Node3&#45;&gt;Node4</title>
<path fill="none" stroke="midnightblue" d="M531.36,-310.61C549.87,-314.52 569.41,-318.65 587.47,-322.47"/>
<polygon fill="midnightblue" stroke="midnightblue" points="532.01,-307.16 521.5,-308.52 530.56,-314.01 532.01,-307.16"/>
</g>
<!-- Node5 -->
<g id="node5" class="node">
<title>Node5</title>
<g id="a_node5"><a xlink:href="structDGtal_1_1MultisetAssociativeCategory.html" target="_top" xlink:title=" ">
<polygon fill="white" stroke="black" points="586.5,-273.5 586.5,-303.5 732.5,-303.5 732.5,-273.5 586.5,-273.5"/>
<text text-anchor="start" x="594.5" y="-291.5" font-family="FreeSans" font-size="10.00">DGtal::MultisetAssociative</text>
<text text-anchor="middle" x="659.5" y="-280.5" font-family="FreeSans" font-size="10.00">Category</text>
</a>
</g>
</g>
<!-- Node3&#45;&gt;Node5 -->
<g id="edge4" class="edge">
<title>Node3&#45;&gt;Node5</title>
<path fill="none" stroke="midnightblue" d="M532.96,-291.52C550.65,-291.09 569.21,-290.65 586.46,-290.23"/>
<polygon fill="midnightblue" stroke="midnightblue" points="532.58,-288.03 522.66,-291.77 532.75,-295.02 532.58,-288.03"/>
</g>
<!-- Node6 -->
<g id="node6" class="node">
<title>Node6</title>
<g id="a_node6"><a xlink:href="structDGtal_1_1UnorderedMultimapAssociativeCategory.html" target="_top" xlink:title=" ">
<polygon fill="white" stroke="black" points="585.5,-224.5 585.5,-254.5 733.5,-254.5 733.5,-224.5 585.5,-224.5"/>
<text text-anchor="start" x="593.5" y="-242.5" font-family="FreeSans" font-size="10.00">DGtal::UnorderedMultimap</text>
<text text-anchor="middle" x="659.5" y="-231.5" font-family="FreeSans" font-size="10.00">AssociativeCategory</text>
</a>
</g>
</g>
<!-- Node3&#45;&gt;Node6 -->
<g id="edge5" class="edge">
<title>Node3&#45;&gt;Node6</title>
<path fill="none" stroke="midnightblue" d="M518.41,-275.87C544.93,-268.98 575.03,-261.17 600.51,-254.55"/>
<polygon fill="midnightblue" stroke="midnightblue" points="517.24,-272.56 508.44,-278.46 519,-279.33 517.24,-272.56"/>
</g>
<!-- Node7 -->
<g id="node7" class="node">
<title>Node7</title>
<g id="a_node7"><a xlink:href="structDGtal_1_1UnorderedMultisetAssociativeCategory.html" target="_top" xlink:title=" ">
<polygon fill="white" stroke="black" points="589,-175.5 589,-205.5 730,-205.5 730,-175.5 589,-175.5"/>
<text text-anchor="start" x="597" y="-193.5" font-family="FreeSans" font-size="10.00">DGtal::UnorderedMultiset</text>
<text text-anchor="middle" x="659.5" y="-182.5" font-family="FreeSans" font-size="10.00">AssociativeCategory</text>
</a>
</g>
</g>
<!-- Node3&#45;&gt;Node7 -->
<g id="edge6" class="edge">
<title>Node3&#45;&gt;Node7</title>
<path fill="none" stroke="midnightblue" d="M527.51,-273.78C529.75,-272.44 531.92,-271.02 534,-269.5 557.28,-252.48 546.68,-232.47 570,-215.5 575.68,-211.37 582.02,-207.92 588.63,-205.03"/>
<polygon fill="midnightblue" stroke="midnightblue" points="525.77,-270.74 518.54,-278.49 529.02,-276.93 525.77,-270.74"/>
</g>
<!-- Node8&#45;&gt;Node4 -->
<g id="edge9" class="edge">
<title>Node8&#45;&gt;Node4</title>
<path fill="none" stroke="midnightblue" d="M524.31,-263.83C527.67,-265.56 530.92,-267.45 534,-269.5 555.02,-283.52 548.8,-299.76 570,-313.5 575.34,-316.96 581.18,-319.93 587.22,-322.47"/>
<polygon fill="midnightblue" stroke="midnightblue" points="525.73,-260.63 515.19,-259.57 522.77,-266.97 525.73,-260.63"/>
</g>
<!-- Node8&#45;&gt;Node5 -->
<g id="edge10" class="edge">
<title>Node8&#45;&gt;Node5</title>
<path fill="none" stroke="midnightblue" d="M531.36,-261.61C549.87,-265.52 569.41,-269.65 587.47,-273.47"/>
<polygon fill="midnightblue" stroke="midnightblue" points="532.01,-258.16 521.5,-259.52 530.56,-265.01 532.01,-258.16"/>
</g>
<!-- Node9 -->
<g id="node9" class="node">
<title>Node9</title>
<g id="a_node9"><a xlink:href="structDGtal_1_1MapAssociativeCategory.html" target="_top" xlink:title=" ">
<polygon fill="white" stroke="black" points="573.5,-137 573.5,-156 745.5,-156 745.5,-137 573.5,-137"/>
<text text-anchor="middle" x="659.5" y="-144" font-family="FreeSans" font-size="10.00">DGtal::MapAssociativeCategory</text>
</a>
</g>
</g>
<!-- Node8&#45;&gt;Node9 -->
<g id="edge8" class="edge">
<title>Node8&#45;&gt;Node9</title>
<path fill="none" stroke="midnightblue" d="M526.02,-224.71C528.79,-223.11 531.47,-221.37 534,-219.5 557.19,-202.35 546.15,-181.72 570,-165.5 575.72,-161.61 582.08,-158.5 588.71,-156.01"/>
<polygon fill="midnightblue" stroke="midnightblue" points="524.16,-221.73 516.86,-229.42 527.35,-227.96 524.16,-221.73"/>
</g>
<!-- Node10 -->
<g id="node10" class="node">
<title>Node10</title>
<g id="a_node10"><a xlink:href="structDGtal_1_1SetAssociativeCategory.html" target="_top" xlink:title=" ">
<polygon fill="white" stroke="black" points="576,-99 576,-118 743,-118 743,-99 576,-99"/>
<text text-anchor="middle" x="659.5" y="-106" font-family="FreeSans" font-size="10.00">DGtal::SetAssociativeCategory</text>
</a>
</g>
</g>
<!-- Node8&#45;&gt;Node10 -->
<g id="edge11" class="edge">
<title>Node8&#45;&gt;Node10</title>
<path fill="none" stroke="midnightblue" d="M528.57,-223.95C530.47,-222.57 532.28,-221.08 534,-219.5 566.3,-189.75 536.55,-155.94 570,-127.5 574.43,-123.73 579.43,-120.66 584.74,-118.16"/>
<polygon fill="midnightblue" stroke="midnightblue" points="526.42,-221.17 519.83,-229.46 530.15,-227.1 526.42,-221.17"/>
</g>
<!-- Node11&#45;&gt;Node4 -->
<g id="edge14" class="edge">
<title>Node11&#45;&gt;Node4</title>
<path fill="none" stroke="midnightblue" d="M526.33,-214.84C529.04,-216.53 531.61,-218.41 534,-220.5 567.37,-249.67 537.07,-283.84 570,-313.5 573.9,-317.02 578.27,-320.02 582.92,-322.6"/>
<polygon fill="midnightblue" stroke="midnightblue" points="527.76,-211.64 517.29,-210.05 524.49,-217.82 527.76,-211.64"/>
</g>
<!-- Node11&#45;&gt;Node6 -->
<g id="edge16" class="edge">
<title>Node11&#45;&gt;Node6</title>
<path fill="none" stroke="midnightblue" d="M511.42,-211.92C534.57,-216.26 561.19,-221.25 585.36,-225.79"/>
<polygon fill="midnightblue" stroke="midnightblue" points="511.86,-208.44 501.38,-210.04 510.57,-215.32 511.86,-208.44"/>
</g>
<!-- Node11&#45;&gt;Node9 -->
<g id="edge13" class="edge">
<title>Node11&#45;&gt;Node9</title>
<path fill="none" stroke="midnightblue" d="M506.35,-188.43C515.66,-186.05 525.15,-183.38 534,-180.5 550.48,-175.13 553.46,-170.67 570,-165.5 581.55,-161.89 594.16,-158.73 606.14,-156.08"/>
<polygon fill="midnightblue" stroke="midnightblue" points="505.24,-185.1 496.37,-190.9 506.92,-191.9 505.24,-185.1"/>
</g>
<!-- Node12 -->
<g id="node12" class="node">
<title>Node12</title>
<g id="a_node12"><a xlink:href="structDGtal_1_1UnorderedMapAssociativeCategory.html" target="_top" xlink:title=" ">
<polygon fill="white" stroke="black" points="570,-49.5 570,-79.5 749,-79.5 749,-49.5 570,-49.5"/>
<text text-anchor="start" x="578" y="-67.5" font-family="FreeSans" font-size="10.00">DGtal::UnorderedMapAssociative</text>
<text text-anchor="middle" x="659.5" y="-56.5" font-family="FreeSans" font-size="10.00">Category</text>
</a>
</g>
</g>
<!-- Node11&#45;&gt;Node12 -->
<g id="edge15" class="edge">
<title>Node11&#45;&gt;Node12</title>
<path fill="none" stroke="midnightblue" d="M526.31,-186.14C529.02,-184.46 531.6,-182.58 534,-180.5 566.85,-152 537.73,-118.66 570,-89.5 574.26,-85.65 579.08,-82.38 584.21,-79.62"/>
<polygon fill="midnightblue" stroke="midnightblue" points="524.47,-183.15 517.25,-190.91 527.73,-189.35 524.47,-183.15"/>
</g>
<!-- Node13&#45;&gt;Node5 -->
<g id="edge18" class="edge">
<title>Node13&#45;&gt;Node5</title>
<path fill="none" stroke="midnightblue" d="M528.5,-177.13C530.41,-178.49 532.25,-179.95 534,-181.5 564.06,-208.2 539.59,-238.19 570,-264.5 574.82,-268.67 580.29,-272.12 586.09,-274.97"/>
<polygon fill="midnightblue" stroke="midnightblue" points="530.03,-173.96 519.67,-171.7 526.36,-179.92 530.03,-173.96"/>
</g>
<!-- Node13&#45;&gt;Node7 -->
<g id="edge20" class="edge">
<title>Node13&#45;&gt;Node7</title>
<path fill="none" stroke="midnightblue" d="M529.8,-169.46C549.23,-172.64 569.89,-176.02 588.83,-179.11"/>
<polygon fill="midnightblue" stroke="midnightblue" points="530.19,-165.98 519.76,-167.82 529.07,-172.89 530.19,-165.98"/>
</g>
<!-- Node13&#45;&gt;Node10 -->
<g id="edge19" class="edge">
<title>Node13&#45;&gt;Node10</title>
<path fill="none" stroke="midnightblue" d="M521.08,-139.04C537.14,-135.16 554.14,-131.13 570,-127.5 583.94,-124.31 599.15,-120.99 612.97,-118.03"/>
<polygon fill="midnightblue" stroke="midnightblue" points="520.11,-135.68 511.22,-141.43 521.76,-142.48 520.11,-135.68"/>
</g>
<!-- Node14 -->
<g id="node14" class="node">
<title>Node14</title>
<g id="a_node14"><a xlink:href="structDGtal_1_1UnorderedSetAssociativeCategory.html" target="_top" xlink:title=" ">
<polygon fill="white" stroke="black" points="573,-0.5 573,-30.5 746,-30.5 746,-0.5 573,-0.5"/>
<text text-anchor="start" x="581" y="-18.5" font-family="FreeSans" font-size="10.00">DGtal::UnorderedSetAssociative</text>
<text text-anchor="middle" x="659.5" y="-7.5" font-family="FreeSans" font-size="10.00">Category</text>
</a>
</g>
</g>
<!-- Node13&#45;&gt;Node14 -->
<g id="edge21" class="edge">
<title>Node13&#45;&gt;Node14</title>
<path fill="none" stroke="midnightblue" d="M528.57,-135.95C530.47,-134.57 532.28,-133.08 534,-131.5 566.3,-101.75 537.32,-68.82 570,-39.5 573.79,-36.1 578.02,-33.17 582.51,-30.65"/>
<polygon fill="midnightblue" stroke="midnightblue" points="526.42,-133.17 519.83,-141.46 530.15,-139.1 526.42,-133.17"/>
</g>
<!-- Node15&#45;&gt;Node9 -->
<g id="edge23" class="edge">
<title>Node15&#45;&gt;Node9</title>
<path fill="none" stroke="midnightblue" d="M526.47,-77.99C529.07,-79.39 531.59,-80.89 534,-82.5 555.31,-96.71 548.22,-114.03 570,-127.5 576.28,-131.38 583.24,-134.48 590.42,-136.95"/>
<polygon fill="midnightblue" stroke="midnightblue" points="527.9,-74.79 517.37,-73.59 524.85,-81.09 527.9,-74.79"/>
</g>
<!-- Node15&#45;&gt;Node10 -->
<g id="edge24" class="edge">
<title>Node15&#45;&gt;Node10</title>
<path fill="none" stroke="midnightblue" d="M518.79,-75.94C535.52,-80.13 553.39,-84.54 570,-88.5 584.71,-92.01 600.83,-95.7 615.24,-98.94"/>
<polygon fill="midnightblue" stroke="midnightblue" points="519.64,-72.54 509.09,-73.5 517.93,-79.33 519.64,-72.54"/>
</g>
<!-- Node15&#45;&gt;Node12 -->
<g id="edge25" class="edge">
<title>Node15&#45;&gt;Node12</title>
<path fill="none" stroke="midnightblue" d="M530.29,-60.8C543.21,-61.17 556.66,-61.56 569.78,-61.94"/>
<polygon fill="midnightblue" stroke="midnightblue" points="530.15,-57.3 520.05,-60.51 529.95,-64.29 530.15,-57.3"/>
</g>
<!-- Node15&#45;&gt;Node14 -->
<g id="edge26" class="edge">
<title>Node15&#45;&gt;Node14</title>
<path fill="none" stroke="midnightblue" d="M529.85,-42.1C548.24,-38.29 567.72,-34.27 585.81,-30.53"/>
<polygon fill="midnightblue" stroke="midnightblue" points="529.13,-38.67 520.05,-44.12 530.55,-45.52 529.13,-38.67"/>
</g>
<!-- Node16&#45;&gt;Node6 -->
<g id="edge29" class="edge">
<title>Node16&#45;&gt;Node6</title>
<path fill="none" stroke="midnightblue" d="M529.87,-128.18C531.3,-129.23 532.68,-130.34 534,-131.5 564.21,-158.04 539.73,-188.03 570,-214.5 574.57,-218.49 579.73,-221.85 585.21,-224.68"/>
<polygon fill="midnightblue" stroke="midnightblue" points="531.6,-125.12 521.28,-122.71 527.84,-131.03 531.6,-125.12"/>
</g>
<!-- Node16&#45;&gt;Node7 -->
<g id="edge30" class="edge">
<title>Node16&#45;&gt;Node7</title>
<path fill="none" stroke="midnightblue" d="M524,-126.4C527.45,-127.98 530.8,-129.67 534,-131.5 553.12,-142.4 550.86,-154.64 570,-165.5 576.8,-169.36 584.25,-172.66 591.83,-175.47"/>
<polygon fill="midnightblue" stroke="midnightblue" points="525.29,-123.15 514.71,-122.51 522.59,-129.6 525.29,-123.15"/>
</g>
<!-- Node16&#45;&gt;Node12 -->
<g id="edge28" class="edge">
<title>Node16&#45;&gt;Node12</title>
<path fill="none" stroke="midnightblue" d="M533.35,-90.37C550.69,-86.79 568.85,-83.03 585.79,-79.53"/>
<polygon fill="midnightblue" stroke="midnightblue" points="532.33,-87.01 523.25,-92.46 533.75,-93.86 532.33,-87.01"/>
</g>
<!-- Node16&#45;&gt;Node14 -->
<g id="edge31" class="edge">
<title>Node16&#45;&gt;Node14</title>
<path fill="none" stroke="midnightblue" d="M524.28,-88.13C527.65,-86.41 530.91,-84.53 534,-82.5 554.82,-68.79 549.01,-52.94 570,-39.5 575.36,-36.07 581.21,-33.12 587.26,-30.59"/>
<polygon fill="midnightblue" stroke="midnightblue" points="522.75,-84.98 515.14,-92.36 525.69,-91.34 522.75,-84.98"/>
</g>
</g>
</svg>
        <g id="navigator" transform="translate(0 0)" fill="#404254">
                <rect fill="#f2f5e9" fill-opacity="0.5" stroke="#606060" stroke-width=".5" x="0" y="0" width="60" height="60"/>
                <use id="zoomplus" xlink:href="#zoomPlus" x="17" y="9" onmousedown="handleZoom(evt,'in')"/>
                <use id="zoomminus" xlink:href="#zoomMin" x="42" y="9" onmousedown="handleZoom(evt,'out')"/>
                <use id="reset" xlink:href="#resetDef" x="30" y="36" onmousedown="handleReset()"/>
                <g id="arrowUp" xlink:href="#dirArrow" transform="translate(30 24)" onmousedown="handlePan(0,-1)">
                  <use xlink:href="#rim" fill="#404040">
                        <set attributeName="fill" to="#808080" begin="arrowUp.mouseover" end="arrowUp.mouseout"/>
                  </use>
                  <path fill="none" stroke="white" stroke-width="1.5" d="M0,-3.0v7 M-2.5,-0.5L0,-3.0L2.5,-0.5"/>
                </g>
                <g id="arrowRight" xlink:href="#dirArrow" transform="rotate(90) translate(36 -43)" onmousedown="handlePan(1,0)">
                  <use xlink:href="#rim" fill="#404040">
                        <set attributeName="fill" to="#808080" begin="arrowRight.mouseover" end="arrowRight.mouseout"/>
                  </use>
                  <path fill="none" stroke="white" stroke-width="1.5" d="M0,-3.0v7 M-2.5,-0.5L0,-3.0L2.5,-0.5"/>
                </g>
                <g id="arrowDown" xlink:href="#dirArrow" transform="rotate(180) translate(-30 -48)" onmousedown="handlePan(0,1)">
                  <use xlink:href="#rim" fill="#404040">
                        <set attributeName="fill" to="#808080" begin="arrowDown.mouseover" end="arrowDown.mouseout"/>
                  </use>
                  <path fill="none" stroke="white" stroke-width="1.5" d="M0,-3.0v7 M-2.5,-0.5L0,-3.0L2.5,-0.5"/>
                </g>
                <g id="arrowLeft" xlink:href="#dirArrow" transform="rotate(270) translate(-36 17)" onmousedown="handlePan(-1,0)">
                  <use xlink:href="#rim" fill="#404040">
                        <set attributeName="fill" to="#808080" begin="arrowLeft.mouseover" end="arrowLeft.mouseout"/>
                  </use>
                  <path fill="none" stroke="white" stroke-width="1.5" d="M0,-3.0v7 M-2.5,-0.5L0,-3.0L2.5,-0.5"/>
                </g>
        </g>
        <svg viewBox="0 0 15 15" width="100%" height="30px" preserveAspectRatio="xMaxYMin meet">
         <g id="arrow_out" transform="scale(0.3 0.3)">
          <a xlink:href="structDGtal_1_1AssociativeCategory__inherit__graph_org.svg" target="_base">
           <rect id="button" ry="5" rx="5" y="6" x="6" height="38" width="38"
                fill="#f2f5e9" fill-opacity="0.5" stroke="#606060" stroke-width="1.0"/>
           <path id="arrow"
             d="M 11.500037,31.436501 C 11.940474,20.09759 22.043105,11.32322 32.158766,21.979434 L 37.068811,17.246167 C 37.068811,17.246167 37.088388,32 37.088388,32 L 22.160133,31.978069 C 22.160133,31.978069 26.997745,27.140456 26.997745,27.140456 C 18.528582,18.264221 13.291696,25.230495 11.500037,31.436501 z"
             style="fill:#404040;"/>
          </a>
         </g>
        </svg>
</svg>
