<?xml version="1.0" encoding="UTF-8" standalone="no"?>
<!DOCTYPE svg PUBLIC "-//W3C//DTD SVG 1.1//EN"
 "http://www.w3.org/Graphics/SVG/1.1/DTD/svg11.dtd">
<!-- Generated by graphviz version 2.43.0 (0)
 -->
<!-- Title: DGtal::AddTextureImage2DWithFunctor&lt; TImageType, TFunctor, Space, KSpace &gt; Pages: 1 -->
<svg width="196pt" height="162pt"
 viewBox="0.00 0.00 196.00 162.00" xmlns="http://www.w3.org/2000/svg" xmlns:xlink="http://www.w3.org/1999/xlink">
<g id="graph0" class="graph" transform="scale(1 1) rotate(0) translate(4 158)">
<title>DGtal::AddTextureImage2DWithFunctor&lt; TImageType, TFunctor, Space, KSpace &gt;</title>
<polygon fill="white" stroke="transparent" points="-4,4 -4,-158 192,-158 192,4 -4,4"/>
<!-- Node1 -->
<g id="node1" class="node">
<title>Node1</title>
<g id="a_node1"><a xlink:title="class to insert a custom 2D textured image by using a conversion functor and allows to change the def...">
<polygon fill="#bfbfbf" stroke="black" points="7,-0.5 7,-41.5 181,-41.5 181,-0.5 7,-0.5"/>
<text text-anchor="start" x="15" y="-29.5" font-family="FreeSans" font-size="10.00">DGtal::AddTextureImage2DWith</text>
<text text-anchor="start" x="15" y="-18.5" font-family="FreeSans" font-size="10.00">Functor&lt; TImageType, TFunctor,</text>
<text text-anchor="middle" x="94" y="-7.5" font-family="FreeSans" font-size="10.00"> Space, KSpace &gt;</text>
</a>
</g>
</g>
<!-- Node2 -->
<g id="node2" class="node">
<title>Node2</title>
<g id="a_node2"><a xlink:href="structDGtal_1_1DrawWithViewer3DModifier.html" target="_top" xlink:title="Base class specifying the methods for classes which intend to modify a Viewer3D stream.">
<polygon fill="white" stroke="black" points="1.5,-78.5 1.5,-97.5 186.5,-97.5 186.5,-78.5 1.5,-78.5"/>
<text text-anchor="middle" x="94" y="-85.5" font-family="FreeSans" font-size="10.00">DGtal::DrawWithViewer3DModifier</text>
</a>
</g>
</g>
<!-- Node2&#45;&gt;Node1 -->
<g id="edge1" class="edge">
<title>Node2&#45;&gt;Node1</title>
<path fill="none" stroke="midnightblue" d="M94,-68.04C94,-59.71 94,-49.94 94,-41.54"/>
<polygon fill="midnightblue" stroke="midnightblue" points="90.5,-68.23 94,-78.23 97.5,-68.23 90.5,-68.23"/>
</g>
<!-- Node3 -->
<g id="node3" class="node">
<title>Node3</title>
<g id="a_node3"><a xlink:href="structDGtal_1_1DrawWithDisplay3DModifier.html" target="_top" xlink:title="Base class specifying the methods for classes which intend to modify a Viewer3D stream.">
<polygon fill="white" stroke="black" points="0,-134.5 0,-153.5 188,-153.5 188,-134.5 0,-134.5"/>
<text text-anchor="middle" x="94" y="-141.5" font-family="FreeSans" font-size="10.00">DGtal::DrawWithDisplay3DModifier</text>
</a>
</g>
</g>
<!-- Node3&#45;&gt;Node2 -->
<g id="edge2" class="edge">
<title>Node3&#45;&gt;Node2</title>
<path fill="none" stroke="midnightblue" d="M94,-123.8C94,-114.91 94,-104.78 94,-97.75"/>
<polygon fill="midnightblue" stroke="midnightblue" points="90.5,-124.08 94,-134.08 97.5,-124.08 90.5,-124.08"/>
</g>
</g>
</svg>
