<?xml version="1.0" encoding="UTF-8" standalone="no"?>
<!DOCTYPE svg PUBLIC "-//W3C//DTD SVG 1.1//EN"
 "http://www.w3.org/Graphics/SVG/1.1/DTD/svg11.dtd">
<!-- Generated by graphviz version 2.43.0 (0)
 -->
<!-- Title: DGtal::UnorderedSetByBlock&lt; Key, TSplitter, Hash, KeyEqual, UnorderedMapAllocator &gt;::const_iterator Pages: 1 -->
<svg width="381pt" height="61pt"
 viewBox="0.00 0.00 381.00 61.00" xmlns="http://www.w3.org/2000/svg" xmlns:xlink="http://www.w3.org/1999/xlink">
<g id="graph0" class="graph" transform="scale(1 1) rotate(0) translate(4 57)">
<title>DGtal::UnorderedSetByBlock&lt; Key, TSplitter, Hash, KeyEqual, UnorderedMapAllocator &gt;::const_iterator</title>
<polygon fill="white" stroke="transparent" points="-4,4 -4,-57 377,-57 377,4 -4,4"/>
<!-- Node1 -->
<g id="node1" class="node">
<title>Node1</title>
<g id="a_node1"><a xlink:title="Read iterator on set elements. Model of ForwardIterator.">
<polygon fill="#bfbfbf" stroke="black" points="187,-0.5 187,-52.5 373,-52.5 373,-0.5 187,-0.5"/>
<text text-anchor="start" x="195" y="-40.5" font-family="FreeSans" font-size="10.00">DGtal::UnorderedSetByBlock</text>
<text text-anchor="start" x="195" y="-29.5" font-family="FreeSans" font-size="10.00">&lt; Key, TSplitter, Hash,</text>
<text text-anchor="start" x="195" y="-18.5" font-family="FreeSans" font-size="10.00"> KeyEqual, UnorderedMapAllocator</text>
<text text-anchor="middle" x="280" y="-7.5" font-family="FreeSans" font-size="10.00"> &gt;::const_iterator</text>
</a>
</g>
</g>
<!-- Node2 -->
<g id="node2" class="node">
<title>Node2</title>
<g id="a_node2"><a xlink:title=" ">
<polygon fill="white" stroke="#bfbfbf" points="0,-0.5 0,-52.5 151,-52.5 151,-0.5 0,-0.5"/>
<text text-anchor="start" x="8" y="-40.5" font-family="FreeSans" font-size="10.00">boost::iterator_facade</text>
<text text-anchor="start" x="8" y="-29.5" font-family="FreeSans" font-size="10.00">&lt; const_iterator, Key</text>
<text text-anchor="start" x="8" y="-18.5" font-family="FreeSans" font-size="10.00"> const, boost::forward</text>
<text text-anchor="middle" x="75.5" y="-7.5" font-family="FreeSans" font-size="10.00">_traversal_tag, Key const &gt;</text>
</a>
</g>
</g>
<!-- Node2&#45;&gt;Node1 -->
<g id="edge1" class="edge">
<title>Node2&#45;&gt;Node1</title>
<path fill="none" stroke="midnightblue" d="M161.22,-26.5C169.65,-26.5 178.23,-26.5 186.73,-26.5"/>
<polygon fill="midnightblue" stroke="midnightblue" points="161.04,-23 151.04,-26.5 161.04,-30 161.04,-23"/>
</g>
</g>
</svg>
