<?xml version="1.0" encoding="UTF-8" standalone="no"?>
<!DOCTYPE svg PUBLIC "-//W3C//DTD SVG 1.1//EN"
 "http://www.w3.org/Graphics/SVG/1.1/DTD/svg11.dtd">
<!-- Generated by graphviz version 2.43.0 (0)
 -->
<!-- Title: DGtal::concepts::CPolarPointComparator2D&lt; T &gt; Pages: 1 -->
<svg width="379pt" height="104pt"
 viewBox="0.00 0.00 379.00 104.00" xmlns="http://www.w3.org/2000/svg" xmlns:xlink="http://www.w3.org/1999/xlink">
<g id="graph0" class="graph" transform="scale(1 1) rotate(0) translate(4 100)">
<title>DGtal::concepts::CPolarPointComparator2D&lt; T &gt;</title>
<polygon fill="white" stroke="transparent" points="-4,4 -4,-100 375,-100 375,4 -4,4"/>
<!-- Node1 -->
<g id="node1" class="node">
<title>Node1</title>
<g id="a_node1"><a xlink:title="Aim: This concept gathers classes that are able to compare the position of two given points &#160;around a...">
<polygon fill="#bfbfbf" stroke="black" points="215,-33 215,-63 371,-63 371,-33 215,-33"/>
<text text-anchor="start" x="223" y="-51" font-family="FreeSans" font-size="10.00">DGtal::concepts::CPolarPoint</text>
<text text-anchor="middle" x="293" y="-40" font-family="FreeSans" font-size="10.00">Comparator2D&lt; T &gt;</text>
</a>
</g>
</g>
<!-- Node2 -->
<g id="node2" class="node">
<title>Node2</title>
<g id="a_node2"><a xlink:href="structboost_1_1DefaultConstructible.html" target="_top" xlink:title="Go to http://www.sgi.com/tech/stl/DefaultConstructible.html.">
<polygon fill="white" stroke="black" points="0,-76.5 0,-95.5 179,-95.5 179,-76.5 0,-76.5"/>
<text text-anchor="middle" x="89.5" y="-83.5" font-family="FreeSans" font-size="10.00">boost::DefaultConstructible&lt; T &gt;</text>
</a>
</g>
</g>
<!-- Node2&#45;&gt;Node1 -->
<g id="edge1" class="edge">
<title>Node2&#45;&gt;Node1</title>
<path fill="none" stroke="midnightblue" d="M151,-74.59C171.02,-70.82 193.57,-66.56 214.68,-62.58"/>
<polygon fill="midnightblue" stroke="midnightblue" points="150.27,-71.17 141.09,-76.46 151.56,-78.05 150.27,-71.17"/>
</g>
<!-- Node3 -->
<g id="node3" class="node">
<title>Node3</title>
<g id="a_node3"><a xlink:href="structboost_1_1CopyConstructible.html" target="_top" xlink:title="Go to http://www.sgi.com/tech/stl/CopyConstructible.html.">
<polygon fill="white" stroke="black" points="6,-38.5 6,-57.5 173,-57.5 173,-38.5 6,-38.5"/>
<text text-anchor="middle" x="89.5" y="-45.5" font-family="FreeSans" font-size="10.00">boost::CopyConstructible&lt; T &gt;</text>
</a>
</g>
</g>
<!-- Node3&#45;&gt;Node1 -->
<g id="edge2" class="edge">
<title>Node3&#45;&gt;Node1</title>
<path fill="none" stroke="midnightblue" d="M183.14,-48C193.72,-48 204.43,-48 214.78,-48"/>
<polygon fill="midnightblue" stroke="midnightblue" points="183.04,-44.5 173.04,-48 183.04,-51.5 183.04,-44.5"/>
</g>
<!-- Node4 -->
<g id="node4" class="node">
<title>Node4</title>
<g id="a_node4"><a xlink:href="structboost_1_1Assignable.html" target="_top" xlink:title="Go to http://www.sgi.com/tech/stl/Assignable.html.">
<polygon fill="white" stroke="black" points="24,-0.5 24,-19.5 155,-19.5 155,-0.5 24,-0.5"/>
<text text-anchor="middle" x="89.5" y="-7.5" font-family="FreeSans" font-size="10.00">boost::Assignable&lt; T &gt;</text>
</a>
</g>
</g>
<!-- Node4&#45;&gt;Node1 -->
<g id="edge3" class="edge">
<title>Node4&#45;&gt;Node1</title>
<path fill="none" stroke="midnightblue" d="M151,-21.41C171.02,-25.18 193.57,-29.44 214.68,-33.42"/>
<polygon fill="midnightblue" stroke="midnightblue" points="151.56,-17.95 141.09,-19.54 150.27,-24.83 151.56,-17.95"/>
</g>
</g>
</svg>
