<?xml version="1.0" encoding="UTF-8" standalone="no"?>
<!DOCTYPE svg PUBLIC "-//W3C//DTD SVG 1.1//EN"
 "http://www.w3.org/Graphics/SVG/1.1/DTD/svg11.dtd">
<!-- Generated by graphviz version 2.43.0 (0)
 -->
<!-- Title: DGtal::concepts::CSinglePassRangeWithWritableIteratorFromPoint&lt; T, Value &gt; Pages: 1 -->
<svg width="964pt" height="104pt"
 viewBox="0.00 0.00 964.00 103.90" xmlns="http://www.w3.org/2000/svg" xmlns:xlink="http://www.w3.org/1999/xlink">
<g id="graph0" class="graph" transform="scale(1 1) rotate(0) translate(4 99.9)">
<title>DGtal::concepts::CSinglePassRangeWithWritableIteratorFromPoint&lt; T, Value &gt;</title>
<polygon fill="white" stroke="transparent" points="-4,4 -4,-99.9 960,-99.9 960,4 -4,4"/>
<!-- Node1 -->
<g id="node1" class="node">
<title>Node1</title>
<g id="a_node1"><a xlink:title="Aim: refined concept of single pass range with a outputIterator() method from a point.">
<polygon fill="#bfbfbf" stroke="black" points="787,-17.5 787,-58.5 956,-58.5 956,-17.5 787,-17.5"/>
<text text-anchor="start" x="795" y="-46.5" font-family="FreeSans" font-size="10.00">DGtal::concepts::CSingle</text>
<text text-anchor="start" x="795" y="-35.5" font-family="FreeSans" font-size="10.00">PassRangeWithWritableIterator</text>
<text text-anchor="middle" x="871.5" y="-24.5" font-family="FreeSans" font-size="10.00">FromPoint&lt; T, Value &gt;</text>
</a>
</g>
</g>
<!-- Node2 -->
<g id="node2" class="node">
<title>Node2</title>
<g id="a_node2"><a xlink:href="structDGtal_1_1concepts_1_1CConstSinglePassRangeFromPoint.html" target="_top" xlink:title=" ">
<polygon fill="white" stroke="black" points="570,-50 570,-80 750,-80 750,-50 570,-50"/>
<text text-anchor="start" x="578" y="-68" font-family="FreeSans" font-size="10.00">DGtal::concepts::CConstSingle</text>
<text text-anchor="middle" x="660" y="-57" font-family="FreeSans" font-size="10.00">PassRangeFromPoint&lt; T, Value &gt;</text>
</a>
</g>
</g>
<!-- Node2&#45;&gt;Node1 -->
<g id="edge1" class="edge">
<title>Node2&#45;&gt;Node1</title>
<path fill="none" stroke="midnightblue" d="M760.16,-52.22C769.06,-51.07 778.01,-49.92 786.75,-48.79"/>
<polygon fill="midnightblue" stroke="midnightblue" points="759.62,-48.76 750.15,-53.51 760.52,-55.7 759.62,-48.76"/>
</g>
<!-- Node3 -->
<g id="node3" class="node">
<title>Node3</title>
<g id="a_node3"><a xlink:href="structDGtal_1_1concepts_1_1CConstSinglePassRange.html" target="_top" xlink:title="Aim: Defines the concept describing a const single pass range.">
<polygon fill="white" stroke="black" points="0,-50 0,-80 164,-80 164,-50 0,-50"/>
<text text-anchor="start" x="8" y="-68" font-family="FreeSans" font-size="10.00">DGtal::concepts::CConstSingle</text>
<text text-anchor="middle" x="82" y="-57" font-family="FreeSans" font-size="10.00">PassRange&lt; T &gt;</text>
</a>
</g>
</g>
<!-- Node3&#45;&gt;Node2 -->
<g id="edge2" class="edge">
<title>Node3&#45;&gt;Node2</title>
<path fill="none" stroke="midnightblue" d="M151.86,-82.11C167.89,-85.39 184.96,-88.32 201,-90 328.71,-103.38 477.25,-89.99 569.71,-78.24"/>
<polygon fill="midnightblue" stroke="midnightblue" points="152.55,-78.68 142.04,-80.03 151.1,-85.52 152.55,-78.68"/>
</g>
<!-- Node4 -->
<g id="node4" class="node">
<title>Node4</title>
<g id="a_node4"><a xlink:href="structDGtal_1_1concepts_1_1CConstSinglePassRangeFromPoint.html" target="_top" xlink:title="Aim: refined concept of const single pass range with a begin() method from a point.">
<polygon fill="white" stroke="black" points="201,-50 201,-80 365,-80 365,-50 201,-50"/>
<text text-anchor="start" x="209" y="-68" font-family="FreeSans" font-size="10.00">DGtal::concepts::CConstSingle</text>
<text text-anchor="middle" x="283" y="-57" font-family="FreeSans" font-size="10.00">PassRangeFromPoint&lt; T &gt;</text>
</a>
</g>
</g>
<!-- Node3&#45;&gt;Node4 -->
<g id="edge4" class="edge">
<title>Node3&#45;&gt;Node4</title>
<path fill="none" stroke="midnightblue" d="M174.46,-65C183.21,-65 192.06,-65 200.71,-65"/>
<polygon fill="midnightblue" stroke="midnightblue" points="174.23,-61.5 164.23,-65 174.23,-68.5 174.23,-61.5"/>
</g>
<!-- Node5 -->
<g id="node5" class="node">
<title>Node5</title>
<g id="a_node5"><a xlink:href="structDGtal_1_1concepts_1_1CSinglePassRangeWithWritableIterator.html" target="_top" xlink:title="Aim: refined concept of const single pass range which require that an output iterator exists.">
<polygon fill="white" stroke="black" points="383,-0.5 383,-41.5 552,-41.5 552,-0.5 383,-0.5"/>
<text text-anchor="start" x="391" y="-29.5" font-family="FreeSans" font-size="10.00">DGtal::concepts::CSingle</text>
<text text-anchor="start" x="391" y="-18.5" font-family="FreeSans" font-size="10.00">PassRangeWithWritableIterator</text>
<text text-anchor="middle" x="467.5" y="-7.5" font-family="FreeSans" font-size="10.00">&lt; T, Value &gt;</text>
</a>
</g>
</g>
<!-- Node3&#45;&gt;Node5 -->
<g id="edge6" class="edge">
<title>Node3&#45;&gt;Node5</title>
<path fill="none" stroke="midnightblue" d="M156.19,-47.86C170.96,-44.87 186.43,-42.06 201,-40 261.52,-31.47 330.36,-26.68 382.78,-24.04"/>
<polygon fill="midnightblue" stroke="midnightblue" points="155.18,-44.5 146.1,-49.96 156.6,-51.35 155.18,-44.5"/>
</g>
<!-- Node4&#45;&gt;Node2 -->
<g id="edge3" class="edge">
<title>Node4&#45;&gt;Node2</title>
<path fill="none" stroke="orange" stroke-dasharray="5,2" d="M375.45,-65C434.61,-65 511.24,-65 569.92,-65"/>
<polygon fill="orange" stroke="orange" points="375.37,-61.5 365.37,-65 375.37,-68.5 375.37,-61.5"/>
<text text-anchor="middle" x="467.5" y="-68" font-family="FreeSans" font-size="10.00"> &lt; T, Value &gt;</text>
</g>
<!-- Node5&#45;&gt;Node1 -->
<g id="edge5" class="edge">
<title>Node5&#45;&gt;Node1</title>
<path fill="none" stroke="midnightblue" d="M562.56,-24.98C630.49,-27.85 721.41,-31.7 786.82,-34.46"/>
<polygon fill="midnightblue" stroke="midnightblue" points="562.42,-21.47 552.28,-24.54 562.13,-28.46 562.42,-21.47"/>
</g>
</g>
</svg>
