<?xml version="1.0" encoding="UTF-8" standalone="no"?>
<!DOCTYPE svg PUBLIC "-//W3C//DTD SVG 1.1//EN"
 "http://www.w3.org/Graphics/SVG/1.1/DTD/svg11.dtd">
<!-- Generated by graphviz version 2.43.0 (0)
 -->
<!-- Title: DGtal::concepts::CVertexPredicateArchetype&lt; TVertex &gt; Pages: 1 -->
<svg width="180pt" height="117pt"
 viewBox="0.00 0.00 180.00 117.00" xmlns="http://www.w3.org/2000/svg" xmlns:xlink="http://www.w3.org/1999/xlink">
<g id="graph0" class="graph" transform="scale(1 1) rotate(0) translate(4 113)">
<title>DGtal::concepts::CVertexPredicateArchetype&lt; TVertex &gt;</title>
<polygon fill="white" stroke="transparent" points="-4,4 -4,-113 176,-113 176,4 -4,4"/>
<!-- Node1 -->
<g id="node1" class="node">
<title>Node1</title>
<g id="a_node1"><a xlink:title="Aim: Defines a an archetype for concept CVertexPredicate.">
<polygon fill="#bfbfbf" stroke="black" points="0,-78.5 0,-108.5 172,-108.5 172,-78.5 0,-78.5"/>
<text text-anchor="start" x="8" y="-96.5" font-family="FreeSans" font-size="10.00">DGtal::concepts::CVertex</text>
<text text-anchor="middle" x="86" y="-85.5" font-family="FreeSans" font-size="10.00">PredicateArchetype&lt; TVertex &gt;</text>
</a>
</g>
</g>
<!-- Node2 -->
<g id="node2" class="node">
<title>Node2</title>
<g id="a_node2"><a xlink:href="structDGtal_1_1concepts_1_1CVertexPredicateArchetype.html" target="_top" xlink:title=" ">
<polygon fill="white" stroke="black" points="3,-0.5 3,-30.5 169,-30.5 169,-0.5 3,-0.5"/>
<text text-anchor="start" x="11" y="-18.5" font-family="FreeSans" font-size="10.00">DGtal::concepts::CVertex</text>
<text text-anchor="middle" x="86" y="-7.5" font-family="FreeSans" font-size="10.00">PredicateArchetype&lt; Vertex &gt;</text>
</a>
</g>
</g>
<!-- Node1&#45;&gt;Node2 -->
<g id="edge1" class="edge">
<title>Node1&#45;&gt;Node2</title>
<path fill="none" stroke="orange" stroke-dasharray="5,2" d="M86,-68.09C86,-55.76 86,-41.22 86,-30.73"/>
<polygon fill="orange" stroke="orange" points="82.5,-68.2 86,-78.2 89.5,-68.21 82.5,-68.2"/>
<text text-anchor="middle" x="115" y="-52" font-family="FreeSans" font-size="10.00"> &lt; Vertex &gt;</text>
</g>
</g>
</svg>
