<?xml version="1.0" encoding="UTF-8" standalone="no"?>
<!DOCTYPE svg PUBLIC "-//W3C//DTD SVG 1.1//EN"
 "http://www.w3.org/Graphics/SVG/1.1/DTD/svg11.dtd">
<!-- Generated by graphviz version 2.43.0 (0)
 -->
<!-- Title: DGtal::UniqueAssociativeCategory Pages: 1 -->
<svg width="729pt" height="165pt"
 viewBox="0.00 0.00 729.00 164.50" xmlns="http://www.w3.org/2000/svg" xmlns:xlink="http://www.w3.org/1999/xlink">
<g id="graph0" class="graph" transform="scale(1 1) rotate(0) translate(4 160.5)">
<title>DGtal::UniqueAssociativeCategory</title>
<polygon fill="white" stroke="transparent" points="-4,4 -4,-160.5 725,-160.5 725,4 -4,4"/>
<!-- Node1 -->
<g id="node1" class="node">
<title>Node1</title>
<g id="a_node1"><a xlink:title=" ">
<polygon fill="#bfbfbf" stroke="black" points="365,-71.5 365,-101.5 506,-101.5 506,-71.5 365,-71.5"/>
<text text-anchor="start" x="373" y="-89.5" font-family="FreeSans" font-size="10.00">DGtal::UniqueAssociative</text>
<text text-anchor="middle" x="435.5" y="-78.5" font-family="FreeSans" font-size="10.00">Category</text>
</a>
</g>
</g>
<!-- Node4 -->
<g id="node4" class="node">
<title>Node4</title>
<g id="a_node4"><a xlink:href="structDGtal_1_1MapAssociativeCategory.html" target="_top" xlink:title=" ">
<polygon fill="white" stroke="black" points="545.5,-137 545.5,-156 717.5,-156 717.5,-137 545.5,-137"/>
<text text-anchor="middle" x="631.5" y="-144" font-family="FreeSans" font-size="10.00">DGtal::MapAssociativeCategory</text>
</a>
</g>
</g>
<!-- Node1&#45;&gt;Node4 -->
<g id="edge3" class="edge">
<title>Node1&#45;&gt;Node4</title>
<path fill="none" stroke="midnightblue" d="M480.61,-105.45C499.31,-113.01 521.48,-121.35 542,-127.5 553.89,-131.06 566.87,-134.24 579.14,-136.92"/>
<polygon fill="midnightblue" stroke="midnightblue" points="481.76,-102.14 471.18,-101.59 479.11,-108.62 481.76,-102.14"/>
</g>
<!-- Node5 -->
<g id="node5" class="node">
<title>Node5</title>
<g id="a_node5"><a xlink:href="structDGtal_1_1SetAssociativeCategory.html" target="_top" xlink:title=" ">
<polygon fill="white" stroke="black" points="548,-99 548,-118 715,-118 715,-99 548,-99"/>
<text text-anchor="middle" x="631.5" y="-106" font-family="FreeSans" font-size="10.00">DGtal::SetAssociativeCategory</text>
</a>
</g>
</g>
<!-- Node1&#45;&gt;Node5 -->
<g id="edge4" class="edge">
<title>Node1&#45;&gt;Node5</title>
<path fill="none" stroke="midnightblue" d="M516.49,-95.57C526.83,-96.74 537.43,-97.95 547.8,-99.12"/>
<polygon fill="midnightblue" stroke="midnightblue" points="516.6,-92.06 506.26,-94.41 515.81,-99.02 516.6,-92.06"/>
</g>
<!-- Node6 -->
<g id="node6" class="node">
<title>Node6</title>
<g id="a_node6"><a xlink:href="structDGtal_1_1UnorderedMapAssociativeCategory.html" target="_top" xlink:title=" ">
<polygon fill="white" stroke="black" points="542,-49.5 542,-79.5 721,-79.5 721,-49.5 542,-49.5"/>
<text text-anchor="start" x="550" y="-67.5" font-family="FreeSans" font-size="10.00">DGtal::UnorderedMapAssociative</text>
<text text-anchor="middle" x="631.5" y="-56.5" font-family="FreeSans" font-size="10.00">Category</text>
</a>
</g>
</g>
<!-- Node1&#45;&gt;Node6 -->
<g id="edge5" class="edge">
<title>Node1&#45;&gt;Node6</title>
<path fill="none" stroke="midnightblue" d="M516.37,-77.44C524.74,-76.49 533.29,-75.52 541.76,-74.56"/>
<polygon fill="midnightblue" stroke="midnightblue" points="515.81,-73.98 506.26,-78.59 516.6,-80.94 515.81,-73.98"/>
</g>
<!-- Node7 -->
<g id="node7" class="node">
<title>Node7</title>
<g id="a_node7"><a xlink:href="structDGtal_1_1UnorderedSetAssociativeCategory.html" target="_top" xlink:title=" ">
<polygon fill="white" stroke="black" points="545,-0.5 545,-30.5 718,-30.5 718,-0.5 545,-0.5"/>
<text text-anchor="start" x="553" y="-18.5" font-family="FreeSans" font-size="10.00">DGtal::UnorderedSetAssociative</text>
<text text-anchor="middle" x="631.5" y="-7.5" font-family="FreeSans" font-size="10.00">Category</text>
</a>
</g>
</g>
<!-- Node1&#45;&gt;Node7 -->
<g id="edge6" class="edge">
<title>Node1&#45;&gt;Node7</title>
<path fill="none" stroke="midnightblue" d="M476.12,-67.11C495.66,-57.99 519.76,-47.42 542,-39.5 551,-36.3 560.64,-33.28 570.13,-30.53"/>
<polygon fill="midnightblue" stroke="midnightblue" points="474.47,-64.01 466.92,-71.45 477.46,-70.35 474.47,-64.01"/>
</g>
<!-- Node2 -->
<g id="node2" class="node">
<title>Node2</title>
<g id="a_node2"><a xlink:href="structDGtal_1_1AssociativeCategory.html" target="_top" xlink:title=" ">
<polygon fill="white" stroke="black" points="178,-77 178,-96 329,-96 329,-77 178,-77"/>
<text text-anchor="middle" x="253.5" y="-84" font-family="FreeSans" font-size="10.00">DGtal::AssociativeCategory</text>
</a>
</g>
</g>
<!-- Node2&#45;&gt;Node1 -->
<g id="edge1" class="edge">
<title>Node2&#45;&gt;Node1</title>
<path fill="none" stroke="midnightblue" d="M339.12,-86.5C347.77,-86.5 356.49,-86.5 364.95,-86.5"/>
<polygon fill="midnightblue" stroke="midnightblue" points="339.01,-83 329.01,-86.5 339.01,-90 339.01,-83"/>
</g>
<!-- Node3 -->
<g id="node3" class="node">
<title>Node3</title>
<g id="a_node3"><a xlink:href="structDGtal_1_1ContainerCategory.html" target="_top" xlink:title=" ">
<polygon fill="white" stroke="black" points="0,-77 0,-96 142,-96 142,-77 0,-77"/>
<text text-anchor="middle" x="71" y="-84" font-family="FreeSans" font-size="10.00">DGtal::ContainerCategory</text>
</a>
</g>
</g>
<!-- Node3&#45;&gt;Node2 -->
<g id="edge2" class="edge">
<title>Node3&#45;&gt;Node2</title>
<path fill="none" stroke="midnightblue" d="M152.28,-86.5C160.74,-86.5 169.32,-86.5 177.71,-86.5"/>
<polygon fill="midnightblue" stroke="midnightblue" points="152.04,-83 142.04,-86.5 152.04,-90 152.04,-83"/>
</g>
</g>
</svg>
