<?xml version="1.0" encoding="UTF-8" standalone="no"?>
<!DOCTYPE svg PUBLIC "-//W3C//DTD SVG 1.1//EN"
 "http://www.w3.org/Graphics/SVG/1.1/DTD/svg11.dtd">
<!-- Generated by graphviz version 2.43.0 (0)
 -->
<!-- Title: testCountedPtrOrPtr.cpp Pages: 1 -->
<svg width="2583pt" height="431pt"
 viewBox="0.00 0.00 2583.03 431.00" xmlns="http://www.w3.org/2000/svg" xmlns:xlink="http://www.w3.org/1999/xlink">
<g id="graph0" class="graph" transform="scale(1 1) rotate(0) translate(4 427)">
<title>testCountedPtrOrPtr.cpp</title>
<polygon fill="white" stroke="transparent" points="-4,4 -4,-427 2579.03,-427 2579.03,4 -4,4"/>
<!-- Node1 -->
<g id="node1" class="node">
<title>Node1</title>
<g id="a_node1"><a xlink:title=" ">
<polygon fill="#bfbfbf" stroke="black" points="2146.03,-403.5 2146.03,-422.5 2280.03,-422.5 2280.03,-403.5 2146.03,-403.5"/>
<text text-anchor="middle" x="2213.03" y="-410.5" font-family="FreeSans" font-size="10.00">testCountedPtrOrPtr.cpp</text>
</a>
</g>
</g>
<!-- Node2 -->
<g id="node2" class="node">
<title>Node2</title>
<g id="a_node2"><a xlink:title=" ">
<polygon fill="white" stroke="#bfbfbf" points="1442.03,-0.5 1442.03,-19.5 1502.03,-19.5 1502.03,-0.5 1442.03,-0.5"/>
<text text-anchor="middle" x="1472.03" y="-7.5" font-family="FreeSans" font-size="10.00">iostream</text>
</a>
</g>
</g>
<!-- Node1&#45;&gt;Node2 -->
<g id="edge1" class="edge">
<title>Node1&#45;&gt;Node2</title>
<path fill="none" stroke="midnightblue" d="M2280.27,-405.43C2384.96,-393.31 2575.03,-362.92 2575.03,-302 2575.03,-302 2575.03,-302 2575.03,-121 2575.03,-82.28 2552.02,-72.58 2517.03,-56 2425.08,-12.41 1692.94,-10.66 1512.24,-10.89"/>
<polygon fill="midnightblue" stroke="midnightblue" points="1512.1,-7.39 1502.11,-10.91 1512.11,-14.39 1512.1,-7.39"/>
</g>
<!-- Node3 -->
<g id="node3" class="node">
<title>Node3</title>
<g id="a_node3"><a xlink:href="Common_8h_source.html" target="_top" xlink:title=" ">
<polygon fill="white" stroke="black" points="1459.53,-235.5 1459.53,-254.5 1586.53,-254.5 1586.53,-235.5 1459.53,-235.5"/>
<text text-anchor="middle" x="1523.03" y="-242.5" font-family="FreeSans" font-size="10.00">DGtal/base/Common.h</text>
</a>
</g>
</g>
<!-- Node1&#45;&gt;Node3 -->
<g id="edge2" class="edge">
<title>Node1&#45;&gt;Node3</title>
<path fill="none" stroke="midnightblue" d="M2177.39,-403.42C2061.72,-375.6 1696.89,-287.83 1568.38,-256.91"/>
<polygon fill="midnightblue" stroke="midnightblue" points="1569.01,-253.46 1558.47,-254.52 1567.37,-260.27 1569.01,-253.46"/>
</g>
<!-- Node44 -->
<g id="node44" class="node">
<title>Node44</title>
<g id="a_node44"><a xlink:href="CountedPtrOrPtr_8h_source.html" target="_top" xlink:title=" ">
<polygon fill="white" stroke="black" points="2132.53,-347.5 2132.53,-366.5 2293.53,-366.5 2293.53,-347.5 2132.53,-347.5"/>
<text text-anchor="middle" x="2213.03" y="-354.5" font-family="FreeSans" font-size="10.00">DGtal/base/CountedPtrOrPtr.h</text>
</a>
</g>
</g>
<!-- Node1&#45;&gt;Node44 -->
<g id="edge73" class="edge">
<title>Node1&#45;&gt;Node44</title>
<path fill="none" stroke="midnightblue" d="M2213.03,-403.08C2213.03,-396.01 2213.03,-385.86 2213.03,-376.99"/>
<polygon fill="midnightblue" stroke="midnightblue" points="2216.53,-376.75 2213.03,-366.75 2209.53,-376.75 2216.53,-376.75"/>
</g>
<!-- Node3&#45;&gt;Node2 -->
<g id="edge3" class="edge">
<title>Node3&#45;&gt;Node2</title>
<path fill="none" stroke="midnightblue" d="M1586.68,-236.45C1609.9,-230.26 1633.91,-219.1 1648.03,-199 1655.96,-187.73 1650.8,-181.5 1648.03,-168 1636.96,-114.05 1636.37,-92.39 1595.03,-56 1571.76,-35.51 1538.37,-24.08 1512.25,-17.87"/>
<polygon fill="midnightblue" stroke="midnightblue" points="1512.79,-14.41 1502.27,-15.67 1511.28,-21.24 1512.79,-14.41"/>
</g>
<!-- Node4 -->
<g id="node4" class="node">
<title>Node4</title>
<g id="a_node4"><a xlink:title=" ">
<polygon fill="white" stroke="#bfbfbf" points="1900.53,-174 1900.53,-193 1965.53,-193 1965.53,-174 1900.53,-174"/>
<text text-anchor="middle" x="1933.03" y="-181" font-family="FreeSans" font-size="10.00">exception</text>
</a>
</g>
</g>
<!-- Node3&#45;&gt;Node4 -->
<g id="edge4" class="edge">
<title>Node3&#45;&gt;Node4</title>
<path fill="none" stroke="midnightblue" d="M1586.78,-240.47C1660.93,-235.39 1786.64,-223.75 1892.03,-199 1895.27,-198.24 1898.6,-197.31 1901.9,-196.3"/>
<polygon fill="midnightblue" stroke="midnightblue" points="1903.21,-199.55 1911.59,-193.08 1901,-192.91 1903.21,-199.55"/>
</g>
<!-- Node5 -->
<g id="node5" class="node">
<title>Node5</title>
<g id="a_node5"><a xlink:title=" ">
<polygon fill="white" stroke="#bfbfbf" points="1984.03,-174 1984.03,-193 2088.03,-193 2088.03,-174 1984.03,-174"/>
<text text-anchor="middle" x="2036.03" y="-181" font-family="FreeSans" font-size="10.00">boost/version.hpp</text>
</a>
</g>
</g>
<!-- Node3&#45;&gt;Node5 -->
<g id="edge5" class="edge">
<title>Node3&#45;&gt;Node5</title>
<path fill="none" stroke="midnightblue" d="M1586.86,-240.26C1674.56,-234.52 1837.03,-221.76 1974.03,-199 1980.26,-197.97 1986.79,-196.67 1993.19,-195.29"/>
<polygon fill="midnightblue" stroke="midnightblue" points="1994.07,-198.67 2003.05,-193.05 1992.53,-191.85 1994.07,-198.67"/>
</g>
<!-- Node6 -->
<g id="node6" class="node">
<title>Node6</title>
<g id="a_node6"><a xlink:title=" ">
<polygon fill="white" stroke="#bfbfbf" points="2144.03,-174 2144.03,-193 2284.03,-193 2284.03,-174 2144.03,-174"/>
<text text-anchor="middle" x="2214.03" y="-181" font-family="FreeSans" font-size="10.00">boost/concept_check.hpp</text>
</a>
</g>
</g>
<!-- Node3&#45;&gt;Node6 -->
<g id="edge6" class="edge">
<title>Node3&#45;&gt;Node6</title>
<path fill="none" stroke="midnightblue" d="M1586.59,-241.32C1697.3,-236.2 1932.6,-223.3 2130.03,-199 2139.52,-197.83 2149.56,-196.33 2159.28,-194.74"/>
<polygon fill="midnightblue" stroke="midnightblue" points="2159.97,-198.17 2169.25,-193.06 2158.81,-191.27 2159.97,-198.17"/>
</g>
<!-- Node7 -->
<g id="node7" class="node">
<title>Node7</title>
<g id="a_node7"><a xlink:title=" ">
<polygon fill="white" stroke="#bfbfbf" points="16.03,-174 16.03,-193 146.03,-193 146.03,-174 16.03,-174"/>
<text text-anchor="middle" x="81.03" y="-181" font-family="FreeSans" font-size="10.00">boost/static_assert.hpp</text>
</a>
</g>
</g>
<!-- Node3&#45;&gt;Node7 -->
<g id="edge7" class="edge">
<title>Node3&#45;&gt;Node7</title>
<path fill="none" stroke="midnightblue" d="M1459.37,-243.26C1225.31,-240.34 412.69,-228.29 155.03,-199 146.43,-198.02 137.34,-196.58 128.58,-194.98"/>
<polygon fill="midnightblue" stroke="midnightblue" points="128.98,-191.5 118.5,-193.05 127.66,-198.37 128.98,-191.5"/>
</g>
<!-- Node8 -->
<g id="node8" class="node">
<title>Node8</title>
<g id="a_node8"><a xlink:title=" ">
<polygon fill="white" stroke="#bfbfbf" points="164.53,-174 164.53,-193 303.53,-193 303.53,-174 164.53,-174"/>
<text text-anchor="middle" x="234.03" y="-181" font-family="FreeSans" font-size="10.00">boost/concept/assert.hpp</text>
</a>
</g>
</g>
<!-- Node3&#45;&gt;Node8 -->
<g id="edge8" class="edge">
<title>Node3&#45;&gt;Node8</title>
<path fill="none" stroke="midnightblue" d="M1459.37,-242.87C1243.1,-238.83 537.61,-224.02 312.03,-199 302.78,-197.97 292.98,-196.48 283.57,-194.84"/>
<polygon fill="midnightblue" stroke="midnightblue" points="284.01,-191.36 273.55,-193.01 282.76,-198.25 284.01,-191.36"/>
</g>
<!-- Node9 -->
<g id="node9" class="node">
<title>Node9</title>
<g id="a_node9"><a xlink:title=" ">
<polygon fill="white" stroke="#bfbfbf" points="321.53,-174 321.53,-193 470.53,-193 470.53,-174 321.53,-174"/>
<text text-anchor="middle" x="396.03" y="-181" font-family="FreeSans" font-size="10.00">boost/concept/requires.hpp</text>
</a>
</g>
</g>
<!-- Node3&#45;&gt;Node9 -->
<g id="edge9" class="edge">
<title>Node3&#45;&gt;Node9</title>
<path fill="none" stroke="midnightblue" d="M1459.33,-244.08C1296.05,-243.67 849.46,-238.69 480.03,-199 469.99,-197.92 459.33,-196.39 449.1,-194.72"/>
<polygon fill="midnightblue" stroke="midnightblue" points="449.49,-191.23 439.05,-193.01 448.32,-198.14 449.49,-191.23"/>
</g>
<!-- Node10 -->
<g id="node10" class="node">
<title>Node10</title>
<g id="a_node10"><a xlink:title=" ">
<polygon fill="white" stroke="#bfbfbf" points="489.03,-168.5 489.03,-198.5 611.03,-198.5 611.03,-168.5 489.03,-168.5"/>
<text text-anchor="start" x="497.03" y="-186.5" font-family="FreeSans" font-size="10.00">boost/iterator/iterator</text>
<text text-anchor="middle" x="550.03" y="-175.5" font-family="FreeSans" font-size="10.00">_concepts.hpp</text>
</a>
</g>
</g>
<!-- Node3&#45;&gt;Node10 -->
<g id="edge10" class="edge">
<title>Node3&#45;&gt;Node10</title>
<path fill="none" stroke="midnightblue" d="M1459.51,-244.2C1313.24,-243.92 941.29,-239.1 621.79,-199.09"/>
<polygon fill="midnightblue" stroke="midnightblue" points="621.76,-195.56 611.4,-197.77 620.88,-202.5 621.76,-195.56"/>
</g>
<!-- Node11 -->
<g id="node11" class="node">
<title>Node11</title>
<g id="a_node11"><a xlink:title=" ">
<polygon fill="white" stroke="#bfbfbf" points="629.03,-174 629.03,-193 789.03,-193 789.03,-174 629.03,-174"/>
<text text-anchor="middle" x="709.03" y="-181" font-family="FreeSans" font-size="10.00">boost/concept_archetype.hpp</text>
</a>
</g>
</g>
<!-- Node3&#45;&gt;Node11 -->
<g id="edge11" class="edge">
<title>Node3&#45;&gt;Node11</title>
<path fill="none" stroke="midnightblue" d="M1459.33,-242.18C1332.9,-238.09 1041.48,-226.32 798.03,-199 787.66,-197.84 776.65,-196.29 766.04,-194.65"/>
<polygon fill="midnightblue" stroke="midnightblue" points="766.45,-191.17 756.03,-193.05 765.35,-198.08 766.45,-191.17"/>
</g>
<!-- Node12 -->
<g id="node12" class="node">
<title>Node12</title>
<g id="a_node12"><a xlink:title=" ">
<polygon fill="white" stroke="#bfbfbf" points="1695.53,-112.5 1695.53,-131.5 1742.53,-131.5 1742.53,-112.5 1695.53,-112.5"/>
<text text-anchor="middle" x="1719.03" y="-119.5" font-family="FreeSans" font-size="10.00">cmath</text>
</a>
</g>
</g>
<!-- Node3&#45;&gt;Node12 -->
<g id="edge12" class="edge">
<title>Node3&#45;&gt;Node12</title>
<path fill="none" stroke="midnightblue" d="M1586.73,-237.96C1618.02,-232.19 1654.58,-220.94 1681.03,-199 1698.83,-184.25 1709.07,-159.08 1714.35,-141.78"/>
<polygon fill="midnightblue" stroke="midnightblue" points="1717.83,-142.3 1717.12,-131.73 1711.09,-140.44 1717.83,-142.3"/>
</g>
<!-- Node13 -->
<g id="node13" class="node">
<title>Node13</title>
<g id="a_node13"><a xlink:title=" ">
<polygon fill="white" stroke="#bfbfbf" points="933.03,-174 933.03,-193 983.03,-193 983.03,-174 933.03,-174"/>
<text text-anchor="middle" x="958.03" y="-181" font-family="FreeSans" font-size="10.00">stdio.h</text>
</a>
</g>
</g>
<!-- Node3&#45;&gt;Node13 -->
<g id="edge13" class="edge">
<title>Node3&#45;&gt;Node13</title>
<path fill="none" stroke="midnightblue" d="M1459.45,-244.07C1359.7,-242.95 1160.92,-235.76 997.03,-199 993.96,-198.31 990.8,-197.44 987.68,-196.46"/>
<polygon fill="midnightblue" stroke="midnightblue" points="988.56,-193.06 977.96,-193.09 986.26,-199.67 988.56,-193.06"/>
</g>
<!-- Node14 -->
<g id="node14" class="node">
<title>Node14</title>
<g id="a_node14"><a xlink:href="Config_8h_source.html" target="_top" xlink:title=" ">
<polygon fill="white" stroke="black" points="782.53,-56.5 782.53,-75.5 895.53,-75.5 895.53,-56.5 782.53,-56.5"/>
<text text-anchor="middle" x="839.03" y="-63.5" font-family="FreeSans" font-size="10.00">DGtal/base/Config.h</text>
</a>
</g>
</g>
<!-- Node3&#45;&gt;Node14 -->
<g id="edge14" class="edge">
<title>Node3&#45;&gt;Node14</title>
<path fill="none" stroke="midnightblue" d="M1479.46,-235.48C1402.51,-219.73 1238.22,-182.98 1106.03,-132 1087.86,-124.99 1085.43,-118.39 1067.03,-112 1014.42,-93.72 952.24,-82.07 906.12,-75.21"/>
<polygon fill="midnightblue" stroke="midnightblue" points="906.34,-71.71 895.94,-73.74 905.34,-78.64 906.34,-71.71"/>
</g>
<!-- Node16 -->
<g id="node16" class="node">
<title>Node16</title>
<g id="a_node16"><a xlink:href="Trace_8h_source.html" target="_top" xlink:title=" ">
<polygon fill="white" stroke="black" points="807.03,-174 807.03,-193 915.03,-193 915.03,-174 807.03,-174"/>
<text text-anchor="middle" x="861.03" y="-181" font-family="FreeSans" font-size="10.00">DGtal/base/Trace.h</text>
</a>
</g>
</g>
<!-- Node3&#45;&gt;Node16 -->
<g id="edge17" class="edge">
<title>Node3&#45;&gt;Node16</title>
<path fill="none" stroke="midnightblue" d="M1459.29,-242.37C1349.44,-238.87 1117.61,-228.38 924.03,-199 917.55,-198.02 910.75,-196.73 904.11,-195.32"/>
<polygon fill="midnightblue" stroke="midnightblue" points="904.4,-191.8 893.88,-193.05 902.88,-198.63 904.4,-191.8"/>
</g>
<!-- Node23 -->
<g id="node23" class="node">
<title>Node23</title>
<g id="a_node23"><a xlink:href="TraceWriterTerm_8h_source.html" target="_top" xlink:title=" ">
<polygon fill="white" stroke="black" points="723.03,-112.5 723.03,-131.5 885.03,-131.5 885.03,-112.5 723.03,-112.5"/>
<text text-anchor="middle" x="804.03" y="-119.5" font-family="FreeSans" font-size="10.00">DGtal/base/TraceWriterTerm.h</text>
</a>
</g>
</g>
<!-- Node3&#45;&gt;Node23 -->
<g id="edge40" class="edge">
<title>Node3&#45;&gt;Node23</title>
<path fill="none" stroke="midnightblue" d="M1459.26,-242.9C1343.83,-240.14 1105.17,-230.66 1029.03,-199 1009.23,-190.76 1011.2,-177.64 992.03,-168 958.06,-150.91 917.33,-140.13 882.48,-133.43"/>
<polygon fill="midnightblue" stroke="midnightblue" points="882.81,-129.93 872.34,-131.56 881.54,-136.81 882.81,-129.93"/>
</g>
<!-- Node24 -->
<g id="node24" class="node">
<title>Node24</title>
<g id="a_node24"><a xlink:href="Assert_8h_source.html" target="_top" xlink:title=" ">
<polygon fill="white" stroke="black" points="286.53,-112.5 286.53,-131.5 399.53,-131.5 399.53,-112.5 286.53,-112.5"/>
<text text-anchor="middle" x="343.03" y="-119.5" font-family="FreeSans" font-size="10.00">DGtal/base/Assert.h</text>
</a>
</g>
</g>
<!-- Node3&#45;&gt;Node24 -->
<g id="edge45" class="edge">
<title>Node3&#45;&gt;Node24</title>
<path fill="none" stroke="midnightblue" d="M1459.1,-243.31C1174.14,-240.07 32.71,-225.45 7.03,-199 -2.56,-189.11 -2.04,-178.37 7.03,-168 41.28,-128.86 188.41,-122.31 276.22,-122.01"/>
<polygon fill="midnightblue" stroke="midnightblue" points="276.36,-125.51 286.36,-122.01 276.36,-118.51 276.36,-125.51"/>
</g>
<!-- Node27 -->
<g id="node27" class="node">
<title>Node27</title>
<g id="a_node27"><a xlink:href="TraceWriterFile_8h_source.html" target="_top" xlink:title=" ">
<polygon fill="white" stroke="black" points="903.53,-112.5 903.53,-131.5 1058.53,-131.5 1058.53,-112.5 903.53,-112.5"/>
<text text-anchor="middle" x="981.03" y="-119.5" font-family="FreeSans" font-size="10.00">DGtal/base/TraceWriterFile.h</text>
</a>
</g>
</g>
<!-- Node3&#45;&gt;Node27 -->
<g id="edge41" class="edge">
<title>Node3&#45;&gt;Node27</title>
<path fill="none" stroke="midnightblue" d="M1459.5,-242.19C1352.47,-238.39 1141.24,-227.44 1073.03,-199 1056.25,-192 1019.21,-158.86 997.6,-138.72"/>
<polygon fill="midnightblue" stroke="midnightblue" points="999.83,-136.01 990.15,-131.72 995.04,-141.12 999.83,-136.01"/>
</g>
<!-- Node28 -->
<g id="node28" class="node">
<title>Node28</title>
<g id="a_node28"><a xlink:href="ConceptUtils_8h_source.html" target="_top" xlink:title=" ">
<polygon fill="white" stroke="black" points="2282.53,-112.5 2282.53,-131.5 2427.53,-131.5 2427.53,-112.5 2282.53,-112.5"/>
<text text-anchor="middle" x="2355.03" y="-119.5" font-family="FreeSans" font-size="10.00">DGtal/base/ConceptUtils.h</text>
</a>
</g>
</g>
<!-- Node3&#45;&gt;Node28 -->
<g id="edge46" class="edge">
<title>Node3&#45;&gt;Node28</title>
<path fill="none" stroke="midnightblue" d="M1586.62,-243.2C1759.77,-240.63 2230.92,-230.74 2293.03,-199 2317.85,-186.32 2336.28,-158.78 2346.34,-140.57"/>
<polygon fill="midnightblue" stroke="midnightblue" points="2349.52,-142.05 2351.06,-131.57 2343.32,-138.8 2349.52,-142.05"/>
</g>
<!-- Node29 -->
<g id="node29" class="node">
<title>Node29</title>
<g id="a_node29"><a xlink:href="BasicTypes_8h_source.html" target="_top" xlink:title=" ">
<polygon fill="white" stroke="black" points="1463.53,-112.5 1463.53,-131.5 1600.53,-131.5 1600.53,-112.5 1463.53,-112.5"/>
<text text-anchor="middle" x="1532.03" y="-119.5" font-family="FreeSans" font-size="10.00">DGtal/base/BasicTypes.h</text>
</a>
</g>
</g>
<!-- Node3&#45;&gt;Node29 -->
<g id="edge48" class="edge">
<title>Node3&#45;&gt;Node29</title>
<path fill="none" stroke="midnightblue" d="M1515.36,-235.46C1508.25,-226.93 1498.18,-213.09 1494.03,-199 1490.14,-185.78 1489.3,-180.94 1494.03,-168 1498.09,-156.91 1506.22,-146.67 1513.93,-138.76"/>
<polygon fill="midnightblue" stroke="midnightblue" points="1516.51,-141.14 1521.32,-131.7 1511.67,-136.07 1516.51,-141.14"/>
</g>
<!-- Node32 -->
<g id="node32" class="node">
<title>Node32</title>
<g id="a_node32"><a xlink:href="BasicFunctors_8h_source.html" target="_top" xlink:title=" ">
<polygon fill="white" stroke="black" points="1733.03,-174 1733.03,-193 1883.03,-193 1883.03,-174 1733.03,-174"/>
<text text-anchor="middle" x="1808.03" y="-181" font-family="FreeSans" font-size="10.00">DGtal/base/BasicFunctors.h</text>
</a>
</g>
</g>
<!-- Node3&#45;&gt;Node32 -->
<g id="edge53" class="edge">
<title>Node3&#45;&gt;Node32</title>
<path fill="none" stroke="midnightblue" d="M1558.97,-235.48C1607.75,-224.8 1695.14,-206.53 1752.4,-195.01"/>
<polygon fill="midnightblue" stroke="midnightblue" points="1753.26,-198.41 1762.38,-193.01 1751.89,-191.54 1753.26,-198.41"/>
</g>
<!-- Node42 -->
<g id="node42" class="node">
<title>Node42</title>
<g id="a_node42"><a xlink:href="BasicArchetypes_8h_source.html" target="_top" xlink:title=" ">
<polygon fill="white" stroke="black" points="1281.03,-112.5 1281.03,-131.5 1445.03,-131.5 1445.03,-112.5 1281.03,-112.5"/>
<text text-anchor="middle" x="1363.03" y="-119.5" font-family="FreeSans" font-size="10.00">DGtal/base/BasicArchetypes.h</text>
</a>
</g>
</g>
<!-- Node3&#45;&gt;Node42 -->
<g id="edge69" class="edge">
<title>Node3&#45;&gt;Node42</title>
<path fill="none" stroke="midnightblue" d="M1511.78,-235.49C1484.88,-215.15 1416.56,-163.48 1382.69,-137.86"/>
<polygon fill="midnightblue" stroke="midnightblue" points="1384.57,-134.9 1374.49,-131.66 1380.35,-140.48 1384.57,-134.9"/>
</g>
<!-- Node43 -->
<g id="node43" class="node">
<title>Node43</title>
<g id="a_node43"><a xlink:href="Exceptions_8h_source.html" target="_top" xlink:title=" ">
<polygon fill="white" stroke="black" points="1503.03,-174 1503.03,-193 1639.03,-193 1639.03,-174 1503.03,-174"/>
<text text-anchor="middle" x="1571.03" y="-181" font-family="FreeSans" font-size="10.00">DGtal/base/Exceptions.h</text>
</a>
</g>
</g>
<!-- Node3&#45;&gt;Node43 -->
<g id="edge71" class="edge">
<title>Node3&#45;&gt;Node43</title>
<path fill="none" stroke="midnightblue" d="M1529.91,-235.48C1537.18,-226.46 1548.83,-212.02 1557.87,-200.81"/>
<polygon fill="midnightblue" stroke="midnightblue" points="1560.61,-202.99 1564.17,-193.01 1555.17,-198.59 1560.61,-202.99"/>
</g>
<!-- Node14&#45;&gt;Node2 -->
<g id="edge15" class="edge">
<title>Node14&#45;&gt;Node2</title>
<path fill="none" stroke="midnightblue" d="M895.59,-57.59C900.47,-57.03 905.34,-56.49 910.03,-56 1105.27,-35.82 1339.46,-19.64 1431.8,-13.58"/>
<polygon fill="midnightblue" stroke="midnightblue" points="1432.08,-17.07 1441.83,-12.93 1431.63,-10.08 1432.08,-17.07"/>
</g>
<!-- Node15 -->
<g id="node15" class="node">
<title>Node15</title>
<g id="a_node15"><a xlink:title=" ">
<polygon fill="white" stroke="#bfbfbf" points="732.03,-0.5 732.03,-19.5 776.03,-19.5 776.03,-0.5 732.03,-0.5"/>
<text text-anchor="middle" x="754.03" y="-7.5" font-family="FreeSans" font-size="10.00">string</text>
</a>
</g>
</g>
<!-- Node14&#45;&gt;Node15 -->
<g id="edge16" class="edge">
<title>Node14&#45;&gt;Node15</title>
<path fill="none" stroke="midnightblue" d="M825.38,-56.32C812.12,-47.9 791.77,-34.97 776.19,-25.07"/>
<polygon fill="midnightblue" stroke="midnightblue" points="777.97,-22.06 767.66,-19.65 774.22,-27.97 777.97,-22.06"/>
</g>
<!-- Node16&#45;&gt;Node2 -->
<g id="edge18" class="edge">
<title>Node16&#45;&gt;Node2</title>
<path fill="none" stroke="midnightblue" d="M894.9,-173.98C904.29,-171.82 914.52,-169.64 924.03,-168 1060.72,-144.41 1103.19,-178.02 1234.03,-132 1263.99,-121.46 1326.64,-70.21 1355.03,-56 1381.26,-42.88 1412.29,-31.1 1435.81,-22.89"/>
<polygon fill="midnightblue" stroke="midnightblue" points="1437.07,-26.16 1445.39,-19.6 1434.79,-19.54 1437.07,-26.16"/>
</g>
<!-- Node16&#45;&gt;Node14 -->
<g id="edge22" class="edge">
<title>Node16&#45;&gt;Node14</title>
<path fill="none" stroke="midnightblue" d="M830.01,-173.92C788.97,-162.25 720.99,-141.75 714.03,-132 694.14,-104.14 733.37,-87.31 773.01,-77.78"/>
<polygon fill="midnightblue" stroke="midnightblue" points="773.81,-81.19 782.79,-75.57 772.26,-74.36 773.81,-81.19"/>
</g>
<!-- Node16&#45;&gt;Node15 -->
<g id="edge20" class="edge">
<title>Node16&#45;&gt;Node15</title>
<path fill="none" stroke="midnightblue" d="M827.18,-173.95C817.78,-171.78 807.55,-169.62 798.03,-168 726.4,-155.83 521.5,-186.14 473.03,-132 398.9,-49.2 633.68,-20.92 721.92,-13.35"/>
<polygon fill="midnightblue" stroke="midnightblue" points="722.24,-16.83 731.92,-12.53 721.67,-9.86 722.24,-16.83"/>
</g>
<!-- Node17 -->
<g id="node17" class="node">
<title>Node17</title>
<g id="a_node17"><a xlink:title=" ">
<polygon fill="white" stroke="#bfbfbf" points="420.53,-0.5 420.53,-19.5 477.53,-19.5 477.53,-0.5 420.53,-0.5"/>
<text text-anchor="middle" x="449.03" y="-7.5" font-family="FreeSans" font-size="10.00">ostream</text>
</a>
</g>
</g>
<!-- Node16&#45;&gt;Node17 -->
<g id="edge19" class="edge">
<title>Node16&#45;&gt;Node17</title>
<path fill="none" stroke="midnightblue" d="M828.52,-173.99C818.78,-171.72 808.03,-169.49 798.03,-168 683.24,-150.93 379.6,-186.3 277.03,-132 242.54,-113.74 208.41,-86.28 233.03,-56 254.94,-29.06 354.17,-17.71 410.2,-13.38"/>
<polygon fill="midnightblue" stroke="midnightblue" points="410.75,-16.85 420.47,-12.62 410.24,-9.86 410.75,-16.85"/>
</g>
<!-- Node18 -->
<g id="node18" class="node">
<title>Node18</title>
<g id="a_node18"><a xlink:title=" ">
<polygon fill="white" stroke="#bfbfbf" points="623.53,-112.5 623.53,-131.5 666.53,-131.5 666.53,-112.5 623.53,-112.5"/>
<text text-anchor="middle" x="645.03" y="-119.5" font-family="FreeSans" font-size="10.00">stack</text>
</a>
</g>
</g>
<!-- Node16&#45;&gt;Node18 -->
<g id="edge21" class="edge">
<title>Node16&#45;&gt;Node18</title>
<path fill="none" stroke="midnightblue" d="M830.09,-173.98C789.22,-162.72 717.65,-143 676.52,-131.67"/>
<polygon fill="midnightblue" stroke="midnightblue" points="677.32,-128.26 666.75,-128.98 675.46,-135.01 677.32,-128.26"/>
</g>
<!-- Node19 -->
<g id="node19" class="node">
<title>Node19</title>
<g id="a_node19"><a xlink:href="Clock_8h_source.html" target="_top" xlink:title=" ">
<polygon fill="white" stroke="black" points="1115.03,-112.5 1115.03,-131.5 1225.03,-131.5 1225.03,-112.5 1115.03,-112.5"/>
<text text-anchor="middle" x="1170.03" y="-119.5" font-family="FreeSans" font-size="10.00">DGtal/base/Clock.h</text>
</a>
</g>
</g>
<!-- Node16&#45;&gt;Node19 -->
<g id="edge23" class="edge">
<title>Node16&#45;&gt;Node19</title>
<path fill="none" stroke="midnightblue" d="M896.95,-173.94C905.79,-171.91 915.24,-169.82 924.03,-168 987.08,-154.98 1059.63,-141.95 1109.52,-133.28"/>
<polygon fill="midnightblue" stroke="midnightblue" points="1110.24,-136.71 1119.49,-131.56 1109.04,-129.81 1110.24,-136.71"/>
</g>
<!-- Node22 -->
<g id="node22" class="node">
<title>Node22</title>
<g id="a_node22"><a xlink:href="TraceWriter_8h_source.html" target="_top" xlink:title=" ">
<polygon fill="white" stroke="black" points="588.53,-56.5 588.53,-75.5 725.53,-75.5 725.53,-56.5 588.53,-56.5"/>
<text text-anchor="middle" x="657.03" y="-63.5" font-family="FreeSans" font-size="10.00">DGtal/base/TraceWriter.h</text>
</a>
</g>
</g>
<!-- Node16&#45;&gt;Node22 -->
<g id="edge27" class="edge">
<title>Node16&#45;&gt;Node22</title>
<path fill="none" stroke="midnightblue" d="M827.17,-173.97C817.78,-171.81 807.55,-169.64 798.03,-168 729.03,-156.13 531.63,-184.26 485.03,-132 452.9,-95.96 518.78,-79.82 578.07,-72.64"/>
<polygon fill="midnightblue" stroke="midnightblue" points="578.73,-76.09 588.27,-71.48 577.94,-69.13 578.73,-76.09"/>
</g>
<!-- Node16&#45;&gt;Node23 -->
<g id="edge30" class="edge">
<title>Node16&#45;&gt;Node23</title>
<path fill="none" stroke="midnightblue" d="M852.87,-173.98C844.15,-164.87 830.13,-150.24 819.35,-138.98"/>
<polygon fill="midnightblue" stroke="midnightblue" points="821.63,-136.31 812.19,-131.51 816.58,-141.15 821.63,-136.31"/>
</g>
<!-- Node16&#45;&gt;Node24 -->
<g id="edge35" class="edge">
<title>Node16&#45;&gt;Node24</title>
<path fill="none" stroke="midnightblue" d="M819.21,-173.99C809.28,-171.78 798.78,-169.57 789.03,-168 623.11,-141.25 577.2,-150.4 409.93,-132.51"/>
<polygon fill="midnightblue" stroke="midnightblue" points="410.11,-129.01 399.79,-131.41 409.35,-135.97 410.11,-129.01"/>
</g>
<!-- Node26 -->
<g id="node26" class="node">
<title>Node26</title>
<g id="a_node26"><a xlink:href="Trace_8ih_source.html" target="_top" xlink:title=" ">
<polygon fill="white" stroke="black" points="494.53,-112.5 494.53,-131.5 605.53,-131.5 605.53,-112.5 494.53,-112.5"/>
<text text-anchor="middle" x="550.03" y="-119.5" font-family="FreeSans" font-size="10.00">DGtal/base/Trace.ih</text>
</a>
</g>
</g>
<!-- Node16&#45;&gt;Node26 -->
<g id="edge39" class="edge">
<title>Node16&#45;&gt;Node26</title>
<path fill="none" stroke="midnightblue" d="M825.12,-173.93C816.28,-171.9 806.83,-169.81 798.03,-168 734.48,-154.93 661.34,-141.9 611.05,-133.25"/>
<polygon fill="midnightblue" stroke="midnightblue" points="611.44,-129.77 600.99,-131.53 610.25,-136.67 611.44,-129.77"/>
</g>
<!-- Node19&#45;&gt;Node2 -->
<g id="edge24" class="edge">
<title>Node19&#45;&gt;Node2</title>
<path fill="none" stroke="midnightblue" d="M1169.84,-112.32C1170.03,-98.22 1172.62,-70.45 1189.03,-56 1224.37,-24.88 1362.17,-15.18 1431.59,-12.24"/>
<polygon fill="midnightblue" stroke="midnightblue" points="1431.86,-15.73 1441.72,-11.83 1431.59,-8.73 1431.86,-15.73"/>
</g>
<!-- Node20 -->
<g id="node20" class="node">
<title>Node20</title>
<g id="a_node20"><a xlink:title=" ">
<polygon fill="white" stroke="#bfbfbf" points="1198.53,-56.5 1198.53,-75.5 1247.53,-75.5 1247.53,-56.5 1198.53,-56.5"/>
<text text-anchor="middle" x="1223.03" y="-63.5" font-family="FreeSans" font-size="10.00">cstdlib</text>
</a>
</g>
</g>
<!-- Node19&#45;&gt;Node20 -->
<g id="edge25" class="edge">
<title>Node19&#45;&gt;Node20</title>
<path fill="none" stroke="midnightblue" d="M1178.79,-112.08C1186.5,-104.22 1197.94,-92.57 1207.25,-83.08"/>
<polygon fill="midnightblue" stroke="midnightblue" points="1209.94,-85.34 1214.44,-75.75 1204.94,-80.44 1209.94,-85.34"/>
</g>
<!-- Node21 -->
<g id="node21" class="node">
<title>Node21</title>
<g id="a_node21"><a xlink:href="Clock_8ih_source.html" target="_top" xlink:title=" ">
<polygon fill="white" stroke="black" points="1028.53,-56.5 1028.53,-75.5 1141.53,-75.5 1141.53,-56.5 1028.53,-56.5"/>
<text text-anchor="middle" x="1085.03" y="-63.5" font-family="FreeSans" font-size="10.00">DGtal/base/Clock.ih</text>
</a>
</g>
</g>
<!-- Node19&#45;&gt;Node21 -->
<g id="edge26" class="edge">
<title>Node19&#45;&gt;Node21</title>
<path fill="none" stroke="midnightblue" d="M1156.38,-112.32C1143.12,-103.9 1122.77,-90.97 1107.19,-81.07"/>
<polygon fill="midnightblue" stroke="midnightblue" points="1108.97,-78.06 1098.66,-75.65 1105.22,-83.97 1108.97,-78.06"/>
</g>
<!-- Node22&#45;&gt;Node2 -->
<g id="edge28" class="edge">
<title>Node22&#45;&gt;Node2</title>
<path fill="none" stroke="midnightblue" d="M725.72,-59.52C741.28,-58.32 757.72,-57.09 773.03,-56 1023.37,-38.23 1324.36,-19.87 1431.64,-13.41"/>
<polygon fill="midnightblue" stroke="midnightblue" points="1431.93,-16.9 1441.71,-12.81 1431.51,-9.92 1431.93,-16.9"/>
</g>
<!-- Node22&#45;&gt;Node17 -->
<g id="edge29" class="edge">
<title>Node22&#45;&gt;Node17</title>
<path fill="none" stroke="midnightblue" d="M624.08,-56.44C586.98,-46.81 526.79,-31.19 487.56,-21"/>
<polygon fill="midnightblue" stroke="midnightblue" points="488.38,-17.6 477.82,-18.47 486.62,-24.37 488.38,-17.6"/>
</g>
<!-- Node23&#45;&gt;Node2 -->
<g id="edge31" class="edge">
<title>Node23&#45;&gt;Node2</title>
<path fill="none" stroke="midnightblue" d="M824.17,-112.49C858.8,-98.25 932.19,-69.8 997.03,-56 1155.57,-22.27 1349.26,-13.81 1431.74,-11.7"/>
<polygon fill="midnightblue" stroke="midnightblue" points="1432.02,-15.19 1441.94,-11.46 1431.86,-8.2 1432.02,-15.19"/>
</g>
<!-- Node23&#45;&gt;Node14 -->
<g id="edge34" class="edge">
<title>Node23&#45;&gt;Node14</title>
<path fill="none" stroke="midnightblue" d="M809.81,-112.08C814.71,-104.53 821.86,-93.49 827.87,-84.23"/>
<polygon fill="midnightblue" stroke="midnightblue" points="830.86,-86.05 833.36,-75.75 824.99,-82.24 830.86,-86.05"/>
</g>
<!-- Node23&#45;&gt;Node15 -->
<g id="edge32" class="edge">
<title>Node23&#45;&gt;Node15</title>
<path fill="none" stroke="midnightblue" d="M796.71,-112.22C789.77,-103.51 779.47,-89.54 773.03,-76 765.93,-61.07 760.9,-42.93 757.81,-29.61"/>
<polygon fill="midnightblue" stroke="midnightblue" points="761.2,-28.76 755.66,-19.73 754.36,-30.25 761.2,-28.76"/>
</g>
<!-- Node23&#45;&gt;Node22 -->
<g id="edge33" class="edge">
<title>Node23&#45;&gt;Node22</title>
<path fill="none" stroke="midnightblue" d="M780.74,-112.44C756.23,-103.44 717.44,-89.19 689.83,-79.05"/>
<polygon fill="midnightblue" stroke="midnightblue" points="690.81,-75.68 680.22,-75.52 688.4,-82.25 690.81,-75.68"/>
</g>
<!-- Node24&#45;&gt;Node15 -->
<g id="edge38" class="edge">
<title>Node24&#45;&gt;Node15</title>
<path fill="none" stroke="midnightblue" d="M352.9,-112.35C369.83,-98.03 406.08,-69.62 442.03,-56 539.12,-19.22 663.63,-12.24 721.62,-11.09"/>
<polygon fill="midnightblue" stroke="midnightblue" points="721.71,-14.59 731.65,-10.94 721.6,-7.59 721.71,-14.59"/>
</g>
<!-- Node24&#45;&gt;Node16 -->
<g id="edge36" class="edge">
<title>Node24&#45;&gt;Node16</title>
<path fill="none" stroke="midnightblue" d="M399.63,-129.27C407.53,-130.22 415.5,-131.17 423.03,-132 593.42,-150.78 637.8,-140.72 807.03,-168 813.43,-169.03 820.15,-170.34 826.61,-171.74"/>
<polygon fill="midnightblue" stroke="midnightblue" points="825.95,-175.18 836.48,-173.99 827.51,-168.35 825.95,-175.18"/>
</g>
<!-- Node25 -->
<g id="node25" class="node">
<title>Node25</title>
<g id="a_node25"><a xlink:title=" ">
<polygon fill="white" stroke="#bfbfbf" points="242.53,-56.5 242.53,-75.5 389.53,-75.5 389.53,-56.5 242.53,-56.5"/>
<text text-anchor="middle" x="316.03" y="-63.5" font-family="FreeSans" font-size="10.00">boost/current_function.hpp</text>
</a>
</g>
</g>
<!-- Node24&#45;&gt;Node25 -->
<g id="edge37" class="edge">
<title>Node24&#45;&gt;Node25</title>
<path fill="none" stroke="midnightblue" d="M338.58,-112.08C334.88,-104.69 329.51,-93.95 324.94,-84.81"/>
<polygon fill="midnightblue" stroke="midnightblue" points="328.01,-83.13 320.41,-75.75 321.75,-86.26 328.01,-83.13"/>
</g>
<!-- Node27&#45;&gt;Node2 -->
<g id="edge42" class="edge">
<title>Node27&#45;&gt;Node2</title>
<path fill="none" stroke="midnightblue" d="M983.27,-112.49C987.55,-98.1 998.35,-69.27 1019.03,-56 1086.83,-12.51 1333.83,-9.75 1431.7,-10.43"/>
<polygon fill="midnightblue" stroke="midnightblue" points="1431.76,-13.93 1441.79,-10.51 1431.82,-6.93 1431.76,-13.93"/>
</g>
<!-- Node27&#45;&gt;Node15 -->
<g id="edge43" class="edge">
<title>Node27&#45;&gt;Node15</title>
<path fill="none" stroke="midnightblue" d="M972.9,-112.1C959.73,-98.2 932.34,-71.33 904.03,-56 866.12,-35.47 817.62,-23.11 786.2,-16.67"/>
<polygon fill="midnightblue" stroke="midnightblue" points="786.73,-13.21 776.24,-14.71 785.37,-20.08 786.73,-13.21"/>
</g>
<!-- Node27&#45;&gt;Node22 -->
<g id="edge44" class="edge">
<title>Node27&#45;&gt;Node22</title>
<path fill="none" stroke="midnightblue" d="M929.7,-112.44C872.23,-102.87 779.17,-87.36 718.03,-77.17"/>
<polygon fill="midnightblue" stroke="midnightblue" points="718.57,-73.71 708.13,-75.52 717.42,-80.61 718.57,-73.71"/>
</g>
<!-- Node28&#45;&gt;Node2 -->
<g id="edge47" class="edge">
<title>Node28&#45;&gt;Node2</title>
<path fill="none" stroke="midnightblue" d="M2383.35,-112.47C2416.63,-101.11 2464.62,-79.66 2442.03,-56 2409.43,-21.85 1690.99,-13.01 1512.1,-11.33"/>
<polygon fill="midnightblue" stroke="midnightblue" points="1512.09,-7.83 1502.06,-11.24 1512.03,-14.83 1512.09,-7.83"/>
</g>
<!-- Node29&#45;&gt;Node2 -->
<g id="edge50" class="edge">
<title>Node29&#45;&gt;Node2</title>
<path fill="none" stroke="midnightblue" d="M1476.95,-112.5C1436.55,-105 1386.62,-92.67 1374.03,-76 1354.41,-50.01 1397.29,-31.17 1432.4,-20.67"/>
<polygon fill="midnightblue" stroke="midnightblue" points="1433.37,-24.03 1442.03,-17.92 1431.46,-17.29 1433.37,-24.03"/>
</g>
<!-- Node29&#45;&gt;Node20 -->
<g id="edge49" class="edge">
<title>Node29&#45;&gt;Node20</title>
<path fill="none" stroke="midnightblue" d="M1483.07,-112.44C1420.24,-101.46 1312.81,-82.69 1257.77,-73.07"/>
<polygon fill="midnightblue" stroke="midnightblue" points="1258.26,-69.6 1247.81,-71.33 1257.06,-76.5 1258.26,-69.6"/>
</g>
<!-- Node30 -->
<g id="node30" class="node">
<title>Node30</title>
<g id="a_node30"><a xlink:title=" ">
<polygon fill="white" stroke="#bfbfbf" points="1383.53,-56.5 1383.53,-75.5 1484.53,-75.5 1484.53,-56.5 1383.53,-56.5"/>
<text text-anchor="middle" x="1434.03" y="-63.5" font-family="FreeSans" font-size="10.00">boost/cstdint.hpp</text>
</a>
</g>
</g>
<!-- Node29&#45;&gt;Node30 -->
<g id="edge51" class="edge">
<title>Node29&#45;&gt;Node30</title>
<path fill="none" stroke="midnightblue" d="M1516.29,-112.32C1500.72,-103.74 1476.66,-90.49 1458.57,-80.52"/>
<polygon fill="midnightblue" stroke="midnightblue" points="1460.19,-77.42 1449.74,-75.65 1456.81,-83.55 1460.19,-77.42"/>
</g>
<!-- Node31 -->
<g id="node31" class="node">
<title>Node31</title>
<g id="a_node31"><a xlink:title=" ">
<polygon fill="white" stroke="#bfbfbf" points="1502.53,-56.5 1502.53,-75.5 1561.53,-75.5 1561.53,-56.5 1502.53,-56.5"/>
<text text-anchor="middle" x="1532.03" y="-63.5" font-family="FreeSans" font-size="10.00">gmpxx.h</text>
</a>
</g>
</g>
<!-- Node29&#45;&gt;Node31 -->
<g id="edge52" class="edge">
<title>Node29&#45;&gt;Node31</title>
<path fill="none" stroke="midnightblue" d="M1532.03,-112.08C1532.03,-105.01 1532.03,-94.86 1532.03,-85.99"/>
<polygon fill="midnightblue" stroke="midnightblue" points="1535.53,-85.75 1532.03,-75.75 1528.53,-85.75 1535.53,-85.75"/>
</g>
<!-- Node32&#45;&gt;Node3 -->
<g id="edge64" class="edge">
<title>Node32&#45;&gt;Node3</title>
<path fill="none" stroke="midnightblue" d="M1772.17,-193.01C1723.43,-203.67 1636.05,-221.94 1578.75,-233.47"/>
<polygon fill="midnightblue" stroke="midnightblue" points="1577.88,-230.08 1568.77,-235.48 1579.26,-236.94 1577.88,-230.08"/>
</g>
<!-- Node32&#45;&gt;Node12 -->
<g id="edge56" class="edge">
<title>Node32&#45;&gt;Node12</title>
<path fill="none" stroke="midnightblue" d="M1795.28,-173.98C1781.01,-164.43 1757.64,-148.81 1740.53,-137.37"/>
<polygon fill="midnightblue" stroke="midnightblue" points="1742.02,-134.16 1731.76,-131.51 1738.13,-139.98 1742.02,-134.16"/>
</g>
<!-- Node33 -->
<g id="node33" class="node">
<title>Node33</title>
<g id="a_node33"><a xlink:title=" ">
<polygon fill="white" stroke="#bfbfbf" points="2013.03,-56.5 2013.03,-75.5 2077.03,-75.5 2077.03,-56.5 2013.03,-56.5"/>
<text text-anchor="middle" x="2045.03" y="-63.5" font-family="FreeSans" font-size="10.00">algorithm</text>
</a>
</g>
</g>
<!-- Node32&#45;&gt;Node33 -->
<g id="edge54" class="edge">
<title>Node32&#45;&gt;Node33</title>
<path fill="none" stroke="midnightblue" d="M1835.41,-174C1862.98,-165.02 1906.42,-149.72 1942.03,-132 1972.08,-117.05 2004.45,-95.66 2024.72,-81.55"/>
<polygon fill="midnightblue" stroke="midnightblue" points="2026.97,-84.25 2033.14,-75.64 2022.94,-78.53 2026.97,-84.25"/>
</g>
<!-- Node34 -->
<g id="node34" class="node">
<title>Node34</title>
<g id="a_node34"><a xlink:title=" ">
<polygon fill="white" stroke="#bfbfbf" points="1989.53,-112.5 1989.53,-131.5 2054.53,-131.5 2054.53,-112.5 1989.53,-112.5"/>
<text text-anchor="middle" x="2022.03" y="-119.5" font-family="FreeSans" font-size="10.00">functional</text>
</a>
</g>
</g>
<!-- Node32&#45;&gt;Node34 -->
<g id="edge55" class="edge">
<title>Node32&#45;&gt;Node34</title>
<path fill="none" stroke="midnightblue" d="M1838.69,-173.98C1876.28,-163.53 1940.08,-145.79 1981.63,-134.23"/>
<polygon fill="midnightblue" stroke="midnightblue" points="1982.73,-137.56 1991.43,-131.51 1980.86,-130.82 1982.73,-137.56"/>
</g>
<!-- Node35 -->
<g id="node35" class="node">
<title>Node35</title>
<g id="a_node35"><a xlink:href="Color_8h_source.html" target="_top" xlink:title=" ">
<polygon fill="white" stroke="black" points="2072.53,-112.5 2072.53,-131.5 2165.53,-131.5 2165.53,-112.5 2072.53,-112.5"/>
<text text-anchor="middle" x="2119.03" y="-119.5" font-family="FreeSans" font-size="10.00">DGtal/io/Color.h</text>
</a>
</g>
</g>
<!-- Node32&#45;&gt;Node35 -->
<g id="edge57" class="edge">
<title>Node32&#45;&gt;Node35</title>
<path fill="none" stroke="midnightblue" d="M1852.59,-173.98C1908.48,-163.28 2004.26,-144.96 2064.48,-133.44"/>
<polygon fill="midnightblue" stroke="midnightblue" points="2065.39,-136.83 2074.56,-131.51 2064.08,-129.95 2065.39,-136.83"/>
</g>
<!-- Node39 -->
<g id="node39" class="node">
<title>Node39</title>
<g id="a_node39"><a xlink:href="BasicBoolFunctors_8h_source.html" target="_top" xlink:title=" ">
<polygon fill="white" stroke="black" points="1761.03,-112.5 1761.03,-131.5 1933.03,-131.5 1933.03,-112.5 1761.03,-112.5"/>
<text text-anchor="middle" x="1847.03" y="-119.5" font-family="FreeSans" font-size="10.00">DGtal/base/BasicBoolFunctors.h</text>
</a>
</g>
</g>
<!-- Node32&#45;&gt;Node39 -->
<g id="edge65" class="edge">
<title>Node32&#45;&gt;Node39</title>
<path fill="none" stroke="midnightblue" d="M1813.62,-173.98C1819.41,-165.14 1828.62,-151.09 1835.91,-139.98"/>
<polygon fill="midnightblue" stroke="midnightblue" points="1838.9,-141.79 1841.46,-131.51 1833.05,-137.95 1838.9,-141.79"/>
</g>
<!-- Node35&#45;&gt;Node2 -->
<g id="edge58" class="edge">
<title>Node35&#45;&gt;Node2</title>
<path fill="none" stroke="midnightblue" d="M2117.48,-112.47C2114.35,-98.06 2105.84,-69.18 2086.03,-56 2038.43,-24.33 1641.41,-14.16 1512.38,-11.68"/>
<polygon fill="midnightblue" stroke="midnightblue" points="1512.21,-8.18 1502.14,-11.49 1512.07,-15.17 1512.21,-8.18"/>
</g>
<!-- Node35&#45;&gt;Node3 -->
<g id="edge59" class="edge">
<title>Node35&#45;&gt;Node3</title>
<path fill="none" stroke="midnightblue" d="M2119.43,-131.75C2119.63,-147.92 2117.48,-182.34 2097.03,-199 2059.1,-229.9 1743.41,-239.86 1597.03,-242.83"/>
<polygon fill="midnightblue" stroke="midnightblue" points="1596.72,-239.34 1586.79,-243.03 1596.86,-246.34 1596.72,-239.34"/>
</g>
<!-- Node35&#45;&gt;Node33 -->
<g id="edge61" class="edge">
<title>Node35&#45;&gt;Node33</title>
<path fill="none" stroke="midnightblue" d="M2107.14,-112.32C2095.88,-104.11 2078.75,-91.6 2065.32,-81.81"/>
<polygon fill="midnightblue" stroke="midnightblue" points="2067.28,-78.9 2057.14,-75.83 2063.15,-84.56 2067.28,-78.9"/>
</g>
<!-- Node36 -->
<g id="node36" class="node">
<title>Node36</title>
<g id="a_node36"><a xlink:title=" ">
<polygon fill="white" stroke="#bfbfbf" points="2133.53,-56.5 2133.53,-75.5 2258.53,-75.5 2258.53,-56.5 2133.53,-56.5"/>
<text text-anchor="middle" x="2196.03" y="-63.5" font-family="FreeSans" font-size="10.00">boost/lexical_cast.hpp</text>
</a>
</g>
</g>
<!-- Node35&#45;&gt;Node36 -->
<g id="edge60" class="edge">
<title>Node35&#45;&gt;Node36</title>
<path fill="none" stroke="midnightblue" d="M2131.41,-112.32C2143.19,-104.06 2161.17,-91.45 2175.17,-81.63"/>
<polygon fill="midnightblue" stroke="midnightblue" points="2177.52,-84.26 2183.69,-75.65 2173.5,-78.53 2177.52,-84.26"/>
</g>
<!-- Node37 -->
<g id="node37" class="node">
<title>Node37</title>
<g id="a_node37"><a xlink:title=" ">
<polygon fill="white" stroke="#bfbfbf" points="2277.03,-56.5 2277.03,-75.5 2319.03,-75.5 2319.03,-56.5 2277.03,-56.5"/>
<text text-anchor="middle" x="2298.03" y="-63.5" font-family="FreeSans" font-size="10.00">array</text>
</a>
</g>
</g>
<!-- Node35&#45;&gt;Node37 -->
<g id="edge62" class="edge">
<title>Node35&#45;&gt;Node37</title>
<path fill="none" stroke="midnightblue" d="M2147.4,-112.44C2180.01,-102.61 2233.35,-86.51 2267.03,-76.35"/>
<polygon fill="midnightblue" stroke="midnightblue" points="2268.25,-79.64 2276.81,-73.4 2266.23,-72.94 2268.25,-79.64"/>
</g>
<!-- Node38 -->
<g id="node38" class="node">
<title>Node38</title>
<g id="a_node38"><a xlink:href="Color_8ih_source.html" target="_top" xlink:title=" ">
<polygon fill="white" stroke="black" points="2337.03,-56.5 2337.03,-75.5 2433.03,-75.5 2433.03,-56.5 2337.03,-56.5"/>
<text text-anchor="middle" x="2385.03" y="-63.5" font-family="FreeSans" font-size="10.00">DGtal/io/Color.ih</text>
</a>
</g>
</g>
<!-- Node35&#45;&gt;Node38 -->
<g id="edge63" class="edge">
<title>Node35&#45;&gt;Node38</title>
<path fill="none" stroke="midnightblue" d="M2161.18,-112.44C2207.78,-102.98 2282.88,-87.74 2333.08,-77.55"/>
<polygon fill="midnightblue" stroke="midnightblue" points="2333.98,-80.94 2343.08,-75.52 2332.59,-74.08 2333.98,-80.94"/>
</g>
<!-- Node39&#45;&gt;Node2 -->
<g id="edge66" class="edge">
<title>Node39&#45;&gt;Node2</title>
<path fill="none" stroke="midnightblue" d="M1809.49,-112.43C1776.29,-104.42 1726.8,-91.4 1685.03,-76 1665.26,-68.71 1661.85,-63.17 1642.03,-56 1598.53,-40.26 1546.96,-27.39 1512.12,-19.5"/>
<polygon fill="midnightblue" stroke="midnightblue" points="1512.83,-16.08 1502.31,-17.31 1511.31,-22.91 1512.83,-16.08"/>
</g>
<!-- Node40 -->
<g id="node40" class="node">
<title>Node40</title>
<g id="a_node40"><a xlink:title=" ">
<polygon fill="white" stroke="#bfbfbf" points="1887.53,-56.5 1887.53,-75.5 1994.53,-75.5 1994.53,-56.5 1887.53,-56.5"/>
<text text-anchor="middle" x="1941.03" y="-63.5" font-family="FreeSans" font-size="10.00">boost/function.hpp</text>
</a>
</g>
</g>
<!-- Node39&#45;&gt;Node40 -->
<g id="edge67" class="edge">
<title>Node39&#45;&gt;Node40</title>
<path fill="none" stroke="midnightblue" d="M1862.14,-112.32C1876.94,-103.82 1899.73,-90.73 1917.02,-80.8"/>
<polygon fill="midnightblue" stroke="midnightblue" points="1919.04,-83.67 1925.97,-75.65 1915.55,-77.6 1919.04,-83.67"/>
</g>
<!-- Node41 -->
<g id="node41" class="node">
<title>Node41</title>
<g id="a_node41"><a xlink:href="BasicBoolFunctors_8ih_source.html" target="_top" xlink:title=" ">
<polygon fill="white" stroke="black" points="1694.53,-56.5 1694.53,-75.5 1869.53,-75.5 1869.53,-56.5 1694.53,-56.5"/>
<text text-anchor="middle" x="1782.03" y="-63.5" font-family="FreeSans" font-size="10.00">DGtal/base/BasicBoolFunctors.ih</text>
</a>
</g>
</g>
<!-- Node39&#45;&gt;Node41 -->
<g id="edge68" class="edge">
<title>Node39&#45;&gt;Node41</title>
<path fill="none" stroke="midnightblue" d="M1836.59,-112.32C1826.89,-104.26 1812.22,-92.08 1800.53,-82.37"/>
<polygon fill="midnightblue" stroke="midnightblue" points="1802.6,-79.53 1792.67,-75.83 1798.12,-84.92 1802.6,-79.53"/>
</g>
<!-- Node42&#45;&gt;Node2 -->
<g id="edge70" class="edge">
<title>Node42&#45;&gt;Node2</title>
<path fill="none" stroke="midnightblue" d="M1360.7,-112.08C1357.73,-98.61 1354.29,-72.88 1366.03,-56 1381.05,-34.41 1408.62,-23.13 1431.88,-17.26"/>
<polygon fill="midnightblue" stroke="midnightblue" points="1432.89,-20.62 1441.86,-14.99 1431.34,-13.79 1432.89,-20.62"/>
</g>
<!-- Node43&#45;&gt;Node2 -->
<g id="edge72" class="edge">
<title>Node43&#45;&gt;Node2</title>
<path fill="none" stroke="midnightblue" d="M1581.07,-173.86C1594.7,-161.03 1616.53,-135.88 1609.03,-112 1599.95,-83.06 1593.3,-75.46 1570.03,-56 1552.46,-41.31 1529.31,-30.38 1509.92,-22.98"/>
<polygon fill="midnightblue" stroke="midnightblue" points="1511.05,-19.66 1500.46,-19.52 1508.65,-26.24 1511.05,-19.66"/>
</g>
<!-- Node44&#45;&gt;Node2 -->
<g id="edge74" class="edge">
<title>Node44&#45;&gt;Node2</title>
<path fill="none" stroke="midnightblue" d="M2277.43,-347.47C2371.92,-333.12 2537.03,-300.28 2537.03,-246 2537.03,-246 2537.03,-246 2537.03,-121 2537.03,-84.28 2518.69,-72.79 2486.03,-56 2398.4,-10.94 1689.78,-10.27 1512.25,-10.82"/>
<polygon fill="midnightblue" stroke="midnightblue" points="1512.03,-7.32 1502.04,-10.85 1512.05,-14.32 1512.03,-7.32"/>
</g>
<!-- Node44&#45;&gt;Node3 -->
<g id="edge75" class="edge">
<title>Node44&#45;&gt;Node3</title>
<path fill="none" stroke="midnightblue" d="M2207.25,-347.31C2196.94,-332.67 2173.84,-303.46 2146.03,-291 2097.06,-269.06 1751.32,-254.14 1597.05,-248.51"/>
<polygon fill="midnightblue" stroke="midnightblue" points="1596.84,-245 1586.72,-248.13 1596.59,-251.99 1596.84,-245"/>
</g>
<!-- Node45 -->
<g id="node45" class="node">
<title>Node45</title>
<g id="a_node45"><a xlink:href="CountedPtr_8h_source.html" target="_top" xlink:title=" ">
<polygon fill="white" stroke="black" points="2193.03,-291.5 2193.03,-310.5 2329.03,-310.5 2329.03,-291.5 2193.03,-291.5"/>
<text text-anchor="middle" x="2261.03" y="-298.5" font-family="FreeSans" font-size="10.00">DGtal/base/CountedPtr.h</text>
</a>
</g>
</g>
<!-- Node44&#45;&gt;Node45 -->
<g id="edge76" class="edge">
<title>Node44&#45;&gt;Node45</title>
<path fill="none" stroke="midnightblue" d="M2220.96,-347.08C2227.88,-339.3 2238.1,-327.8 2246.49,-318.37"/>
<polygon fill="midnightblue" stroke="midnightblue" points="2249.23,-320.55 2253.26,-310.75 2244,-315.9 2249.23,-320.55"/>
</g>
<!-- Node47 -->
<g id="node47" class="node">
<title>Node47</title>
<g id="a_node47"><a xlink:href="CountedPtrOrPtr_8ih_source.html" target="_top" xlink:title=" ">
<polygon fill="white" stroke="black" points="1973.03,-291.5 1973.03,-310.5 2137.03,-310.5 2137.03,-291.5 1973.03,-291.5"/>
<text text-anchor="middle" x="2055.03" y="-298.5" font-family="FreeSans" font-size="10.00">DGtal/base/CountedPtrOrPtr.ih</text>
</a>
</g>
</g>
<!-- Node44&#45;&gt;Node47 -->
<g id="edge80" class="edge">
<title>Node44&#45;&gt;Node47</title>
<path fill="none" stroke="midnightblue" d="M2188,-347.44C2161.42,-338.36 2119.22,-323.94 2089.51,-313.78"/>
<polygon fill="midnightblue" stroke="midnightblue" points="2090.55,-310.44 2079.95,-310.52 2088.28,-317.06 2090.55,-310.44"/>
</g>
<!-- Node45&#45;&gt;Node2 -->
<g id="edge77" class="edge">
<title>Node45&#45;&gt;Node2</title>
<path fill="none" stroke="midnightblue" d="M2329.24,-295.4C2399.56,-286.51 2499.03,-260.51 2499.03,-184.5 2499.03,-184.5 2499.03,-184.5 2499.03,-121 2499.03,-87.08 2488.26,-73.22 2459.03,-56 2376.52,-7.39 1686.92,-9.35 1512.16,-10.64"/>
<polygon fill="midnightblue" stroke="midnightblue" points="1512.08,-7.14 1502.11,-10.71 1512.13,-14.14 1512.08,-7.14"/>
</g>
<!-- Node45&#45;&gt;Node3 -->
<g id="edge78" class="edge">
<title>Node45&#45;&gt;Node3</title>
<path fill="none" stroke="midnightblue" d="M2192.6,-292.28C2188.01,-291.82 2183.46,-291.39 2179.03,-291 1968.28,-272.21 1718.83,-257.04 1597.19,-250.1"/>
<polygon fill="midnightblue" stroke="midnightblue" points="1597.07,-246.59 1586.89,-249.51 1596.67,-253.57 1597.07,-246.59"/>
</g>
<!-- Node46 -->
<g id="node46" class="node">
<title>Node46</title>
<g id="a_node46"><a xlink:href="CountedPtr_8ih_source.html" target="_top" xlink:title=" ">
<polygon fill="white" stroke="black" points="2191.53,-235.5 2191.53,-254.5 2330.53,-254.5 2330.53,-235.5 2191.53,-235.5"/>
<text text-anchor="middle" x="2261.03" y="-242.5" font-family="FreeSans" font-size="10.00">DGtal/base/CountedPtr.ih</text>
</a>
</g>
</g>
<!-- Node45&#45;&gt;Node46 -->
<g id="edge79" class="edge">
<title>Node45&#45;&gt;Node46</title>
<path fill="none" stroke="midnightblue" d="M2261.03,-291.08C2261.03,-284.01 2261.03,-273.86 2261.03,-264.99"/>
<polygon fill="midnightblue" stroke="midnightblue" points="2264.53,-264.75 2261.03,-254.75 2257.53,-264.75 2264.53,-264.75"/>
</g>
</g>
</svg>
