<?xml version="1.0" encoding="UTF-8" standalone="no"?>
<!DOCTYPE svg PUBLIC "-//W3C//DTD SVG 1.1//EN"
 "http://www.w3.org/Graphics/SVG/1.1/DTD/svg11.dtd">
<!-- Generated by graphviz version 2.43.0 (0)
 -->
<!-- Title: DGtal::SimpleMatrix&lt; TComponent, TM, TN &gt; Pages: 1 -->
<!--zoomable 166 -->
<svg id="main" version="1.1" xmlns="http://www.w3.org/2000/svg" xmlns:xlink="http://www.w3.org/1999/xlink" xml:space="preserve" onload="init(evt)">
<style type="text/css"><![CDATA[
.edge:hover path { stroke: red; }
.edge:hover polygon { stroke: red; fill: red; }
]]></style>
<script type="text/javascript"><![CDATA[
var edges = document.getElementsByTagName('g');
if (edges && edges.length) {
  for (var i=0;i<edges.length;i++) {
    if (edges[i].id.substr(0,4)=='edge') {
      edges[i].setAttribute('class','edge');
    }
  }
}
]]></script>
        <defs>
                <circle id="rim" cx="0" cy="0" r="7"/>
                <circle id="rim2" cx="0" cy="0" r="3.5"/>
                <g id="zoomPlus">
                        <use xlink:href="#rim" fill="#404040">
                                <set attributeName="fill" to="#808080" begin="zoomplus.mouseover" end="zoomplus.mouseout"/>
                        </use>
                        <path d="M-4,0h8M0,-4v8" fill="none" stroke="white" stroke-width="1.5" pointer-events="none"/>
                </g>
                <g id="zoomMin">
                        <use xlink:href="#rim" fill="#404040">
                                <set attributeName="fill" to="#808080" begin="zoomminus.mouseover" end="zoomminus.mouseout"/>
                        </use>
                        <path d="M-4,0h8" fill="none" stroke="white" stroke-width="1.5" pointer-events="none"/>
                </g>
                <g id="dirArrow">
                        <path fill="none" stroke="white" stroke-width="1.5" d="M0,-3.0v7 M-2.5,-0.5L0,-3.0L2.5,-0.5"/>
                </g>
               <g id="resetDef">
                       <use xlink:href="#rim2" fill="#404040">
                               <set attributeName="fill" to="#808080" begin="reset.mouseover" end="reset.mouseout"/>
                       </use>
               </g>
        </defs>

<script type="text/javascript">
var viewWidth = 502;
var viewHeight = 166;
var sectionId = 'dynsection-0';
</script>
<script xlink:href="svgpan.js"/>
<svg id="graph" class="graph">
<g id="viewport">
<title>DGtal::SimpleMatrix&lt; TComponent, TM, TN &gt;</title>
<polygon fill="white" stroke="transparent" points="-4,4 -4,-162 498,-162 498,4 -4,4"/>
<!-- Node1 -->
<g id="node1" class="node">
<title>Node1</title>
<g id="a_node1"><a xlink:title="Aim: implements basic MxN Matrix services (M,N&gt;=1).">
<polygon fill="#bfbfbf" stroke="black" points="0,-78.5 0,-108.5 141,-108.5 141,-78.5 0,-78.5"/>
<text text-anchor="start" x="8" y="-96.5" font-family="FreeSans" font-size="10.00">DGtal::SimpleMatrix</text>
<text text-anchor="middle" x="70.5" y="-85.5" font-family="FreeSans" font-size="10.00">&lt; TComponent, TM, TN &gt;</text>
</a>
</g>
</g>
<!-- Node2 -->
<g id="node2" class="node">
<title>Node2</title>
<g id="a_node2"><a xlink:href="classDGtal_1_1SimpleMatrix.html" target="_top" xlink:title=" ">
<polygon fill="white" stroke="black" points="346,-127.5 346,-157.5 462,-157.5 462,-127.5 346,-127.5"/>
<text text-anchor="start" x="354" y="-145.5" font-family="FreeSans" font-size="10.00">DGtal::SimpleMatrix</text>
<text text-anchor="middle" x="404" y="-134.5" font-family="FreeSans" font-size="10.00">&lt; Integer, 3, 3 &gt;</text>
</a>
</g>
</g>
<!-- Node1&#45;&gt;Node2 -->
<g id="edge1" class="edge">
<title>Node1&#45;&gt;Node2</title>
<path fill="none" stroke="orange" stroke-dasharray="5,2" d="M151.3,-107.29C153.9,-107.7 156.47,-108.11 159,-108.5 222.82,-118.41 296.24,-128.46 345.74,-135.04"/>
<polygon fill="orange" stroke="orange" points="151.63,-103.79 141.2,-105.65 150.51,-110.7 151.63,-103.79"/>
<text text-anchor="middle" x="227.5" y="-130.5" font-family="FreeSans" font-size="10.00"> &lt; Integer, 3, 3 &gt;</text>
</g>
<!-- Node3 -->
<g id="node3" class="node">
<title>Node3</title>
<g id="a_node3"><a xlink:href="classDGtal_1_1SimpleMatrix.html" target="_top" xlink:title=" ">
<polygon fill="white" stroke="black" points="346,-78.5 346,-108.5 462,-108.5 462,-78.5 346,-78.5"/>
<text text-anchor="start" x="354" y="-96.5" font-family="FreeSans" font-size="10.00">DGtal::SimpleMatrix</text>
<text text-anchor="middle" x="404" y="-85.5" font-family="FreeSans" font-size="10.00">&lt; double, 3, 3 &gt;</text>
</a>
</g>
</g>
<!-- Node1&#45;&gt;Node3 -->
<g id="edge2" class="edge">
<title>Node1&#45;&gt;Node3</title>
<path fill="none" stroke="orange" stroke-dasharray="5,2" d="M151.6,-93.5C211.61,-93.5 292.28,-93.5 345.87,-93.5"/>
<polygon fill="orange" stroke="orange" points="151.4,-90 141.4,-93.5 151.4,-97 151.4,-90"/>
<text text-anchor="middle" x="227.5" y="-96.5" font-family="FreeSans" font-size="10.00"> &lt; double, 3, 3 &gt;</text>
</g>
<!-- Node4 -->
<g id="node4" class="node">
<title>Node4</title>
<g id="a_node4"><a xlink:href="classDGtal_1_1SimpleMatrix.html" target="_top" xlink:title=" ">
<polygon fill="white" stroke="black" points="314,-0.5 314,-52.5 494,-52.5 494,-0.5 314,-0.5"/>
<text text-anchor="start" x="322" y="-40.5" font-family="FreeSans" font-size="10.00">DGtal::SimpleMatrix</text>
<text text-anchor="start" x="322" y="-29.5" font-family="FreeSans" font-size="10.00">&lt; typename TSpace::RealVector</text>
<text text-anchor="start" x="322" y="-18.5" font-family="FreeSans" font-size="10.00">::Component, TSpace::dimension,</text>
<text text-anchor="middle" x="404" y="-7.5" font-family="FreeSans" font-size="10.00"> TSpace::dimension &gt;</text>
</a>
</g>
</g>
<!-- Node1&#45;&gt;Node4 -->
<g id="edge3" class="edge">
<title>Node1&#45;&gt;Node4</title>
<path fill="none" stroke="orange" stroke-dasharray="5,2" d="M101.54,-72.86C117.8,-62.79 138.69,-51.56 159,-45.5 208.88,-30.63 266.89,-25.64 313.84,-24.48"/>
<polygon fill="orange" stroke="orange" points="99.56,-69.97 93.01,-78.3 103.32,-75.88 99.56,-69.97"/>
<text text-anchor="start" x="159" y="-81.5" font-family="FreeSans" font-size="10.00"> &lt; typename TSpace::</text>
<text text-anchor="start" x="159" y="-70.5" font-family="FreeSans" font-size="10.00">RealVector::Component,</text>
<text text-anchor="start" x="159" y="-59.5" font-family="FreeSans" font-size="10.00"> TSpace::dimension, TSpace</text>
<text text-anchor="middle" x="227.5" y="-48.5" font-family="FreeSans" font-size="10.00">::dimension &gt;</text>
</g>
</g>
</svg>
        <g id="navigator" transform="translate(0 0)" fill="#404254">
                <rect fill="#f2f5e9" fill-opacity="0.5" stroke="#606060" stroke-width=".5" x="0" y="0" width="60" height="60"/>
                <use id="zoomplus" xlink:href="#zoomPlus" x="17" y="9" onmousedown="handleZoom(evt,'in')"/>
                <use id="zoomminus" xlink:href="#zoomMin" x="42" y="9" onmousedown="handleZoom(evt,'out')"/>
                <use id="reset" xlink:href="#resetDef" x="30" y="36" onmousedown="handleReset()"/>
                <g id="arrowUp" xlink:href="#dirArrow" transform="translate(30 24)" onmousedown="handlePan(0,-1)">
                  <use xlink:href="#rim" fill="#404040">
                        <set attributeName="fill" to="#808080" begin="arrowUp.mouseover" end="arrowUp.mouseout"/>
                  </use>
                  <path fill="none" stroke="white" stroke-width="1.5" d="M0,-3.0v7 M-2.5,-0.5L0,-3.0L2.5,-0.5"/>
                </g>
                <g id="arrowRight" xlink:href="#dirArrow" transform="rotate(90) translate(36 -43)" onmousedown="handlePan(1,0)">
                  <use xlink:href="#rim" fill="#404040">
                        <set attributeName="fill" to="#808080" begin="arrowRight.mouseover" end="arrowRight.mouseout"/>
                  </use>
                  <path fill="none" stroke="white" stroke-width="1.5" d="M0,-3.0v7 M-2.5,-0.5L0,-3.0L2.5,-0.5"/>
                </g>
                <g id="arrowDown" xlink:href="#dirArrow" transform="rotate(180) translate(-30 -48)" onmousedown="handlePan(0,1)">
                  <use xlink:href="#rim" fill="#404040">
                        <set attributeName="fill" to="#808080" begin="arrowDown.mouseover" end="arrowDown.mouseout"/>
                  </use>
                  <path fill="none" stroke="white" stroke-width="1.5" d="M0,-3.0v7 M-2.5,-0.5L0,-3.0L2.5,-0.5"/>
                </g>
                <g id="arrowLeft" xlink:href="#dirArrow" transform="rotate(270) translate(-36 17)" onmousedown="handlePan(-1,0)">
                  <use xlink:href="#rim" fill="#404040">
                        <set attributeName="fill" to="#808080" begin="arrowLeft.mouseover" end="arrowLeft.mouseout"/>
                  </use>
                  <path fill="none" stroke="white" stroke-width="1.5" d="M0,-3.0v7 M-2.5,-0.5L0,-3.0L2.5,-0.5"/>
                </g>
        </g>
        <svg viewBox="0 0 15 15" width="100%" height="30px" preserveAspectRatio="xMaxYMin meet">
         <g id="arrow_out" transform="scale(0.3 0.3)">
          <a xlink:href="classDGtal_1_1SimpleMatrix__inherit__graph_org.svg" target="_base">
           <rect id="button" ry="5" rx="5" y="6" x="6" height="38" width="38"
                fill="#f2f5e9" fill-opacity="0.5" stroke="#606060" stroke-width="1.0"/>
           <path id="arrow"
             d="M 11.500037,31.436501 C 11.940474,20.09759 22.043105,11.32322 32.158766,21.979434 L 37.068811,17.246167 C 37.068811,17.246167 37.088388,32 37.088388,32 L 22.160133,31.978069 C 22.160133,31.978069 26.997745,27.140456 26.997745,27.140456 C 18.528582,18.264221 13.291696,25.230495 11.500037,31.436501 z"
             style="fill:#404040;"/>
          </a>
         </g>
        </svg>
</svg>
