<?xml version="1.0" encoding="UTF-8" standalone="no"?>
<!DOCTYPE svg PUBLIC "-//W3C//DTD SVG 1.1//EN"
 "http://www.w3.org/Graphics/SVG/1.1/DTD/svg11.dtd">
<!-- Generated by graphviz version 2.43.0 (0)
 -->
<!-- Title: DGtal::detail::DSSDecorator&lt; TDSS &gt; Pages: 1 -->
<svg width="354pt" height="88pt"
 viewBox="0.00 0.00 354.00 88.00" xmlns="http://www.w3.org/2000/svg" xmlns:xlink="http://www.w3.org/1999/xlink">
<g id="graph0" class="graph" transform="scale(1 1) rotate(0) translate(4 84)">
<title>DGtal::detail::DSSDecorator&lt; TDSS &gt;</title>
<polygon fill="white" stroke="transparent" points="-4,4 -4,-84 350,-84 350,4 -4,4"/>
<!-- Node1 -->
<g id="node1" class="node">
<title>Node1</title>
<g id="a_node1"><a xlink:title="Aim: Abstract DSSDecorator for ArithmeticalDSSComputer. Has 2 virtual methods returning the first and...">
<polygon fill="#bfbfbf" stroke="black" points="0,-24.5 0,-54.5 152,-54.5 152,-24.5 0,-24.5"/>
<text text-anchor="start" x="8" y="-42.5" font-family="FreeSans" font-size="10.00">DGtal::detail::DSSDecorator</text>
<text text-anchor="middle" x="76" y="-31.5" font-family="FreeSans" font-size="10.00">&lt; TDSS &gt;</text>
</a>
</g>
</g>
<!-- Node2 -->
<g id="node2" class="node">
<title>Node2</title>
<g id="a_node2"><a xlink:href="classDGtal_1_1detail_1_1DSSDecorator4ConcavePart.html" target="_top" xlink:title="Aim: adapter for TDSS used by FP in CONCAVE parts. Has 2 methods:">
<polygon fill="white" stroke="black" points="188,-49.5 188,-79.5 346,-79.5 346,-49.5 188,-49.5"/>
<text text-anchor="start" x="196" y="-67.5" font-family="FreeSans" font-size="10.00">DGtal::detail::DSSDecorator4</text>
<text text-anchor="middle" x="267" y="-56.5" font-family="FreeSans" font-size="10.00">ConcavePart&lt; TDSS &gt;</text>
</a>
</g>
</g>
<!-- Node1&#45;&gt;Node2 -->
<g id="edge1" class="edge">
<title>Node1&#45;&gt;Node2</title>
<path fill="none" stroke="midnightblue" d="M162.22,-50.77C170.78,-51.91 179.44,-53.05 187.92,-54.17"/>
<polygon fill="midnightblue" stroke="midnightblue" points="162.61,-47.29 152.24,-49.45 161.7,-54.23 162.61,-47.29"/>
</g>
<!-- Node3 -->
<g id="node3" class="node">
<title>Node3</title>
<g id="a_node3"><a xlink:href="classDGtal_1_1detail_1_1DSSDecorator4ConvexPart.html" target="_top" xlink:title="Aim: adapter for TDSS used by FP in CONVEX parts. Has 2 methods:">
<polygon fill="white" stroke="black" points="188,-0.5 188,-30.5 346,-30.5 346,-0.5 188,-0.5"/>
<text text-anchor="start" x="196" y="-18.5" font-family="FreeSans" font-size="10.00">DGtal::detail::DSSDecorator4</text>
<text text-anchor="middle" x="267" y="-7.5" font-family="FreeSans" font-size="10.00">ConvexPart&lt; TDSS &gt;</text>
</a>
</g>
</g>
<!-- Node1&#45;&gt;Node3 -->
<g id="edge2" class="edge">
<title>Node1&#45;&gt;Node3</title>
<path fill="none" stroke="midnightblue" d="M162.22,-28.68C170.78,-27.59 179.44,-26.49 187.92,-25.41"/>
<polygon fill="midnightblue" stroke="midnightblue" points="161.72,-25.21 152.24,-29.95 162.6,-32.16 161.72,-25.21"/>
</g>
</g>
</svg>
