<?xml version="1.0" encoding="UTF-8" standalone="no"?>
<!DOCTYPE svg PUBLIC "-//W3C//DTD SVG 1.1//EN"
 "http://www.w3.org/Graphics/SVG/1.1/DTD/svg11.dtd">
<!-- Generated by graphviz version 2.43.0 (0)
 -->
<!-- Title: DGtal::DistanceFromDCAEstimator&lt; DCAComputer &gt; Pages: 1 -->
<svg width="772pt" height="51pt"
 viewBox="0.00 0.00 772.00 51.00" xmlns="http://www.w3.org/2000/svg" xmlns:xlink="http://www.w3.org/1999/xlink">
<g id="graph0" class="graph" transform="scale(1 1) rotate(0) translate(4 47)">
<title>DGtal::DistanceFromDCAEstimator&lt; DCAComputer &gt;</title>
<polygon fill="white" stroke="transparent" points="-4,4 -4,-47 768,-47 768,4 -4,4"/>
<!-- Node1 -->
<g id="node1" class="node">
<title>Node1</title>
<g id="a_node1"><a xlink:title=" ">
<polygon fill="#bfbfbf" stroke="black" points="578,-6 578,-36 764,-36 764,-6 578,-6"/>
<text text-anchor="start" x="586" y="-24" font-family="FreeSans" font-size="10.00">DGtal::DistanceFromDCAEstimator</text>
<text text-anchor="middle" x="671" y="-13" font-family="FreeSans" font-size="10.00">&lt; DCAComputer &gt;</text>
</a>
</g>
</g>
<!-- Node2 -->
<g id="node2" class="node">
<title>Node2</title>
<g id="a_node2"><a xlink:href="classDGtal_1_1detail_1_1PosDepScaleDepSCEstimator.html" target="_top" xlink:title=" ">
<polygon fill="white" stroke="black" points="362,-0.5 362,-41.5 541,-41.5 541,-0.5 362,-0.5"/>
<text text-anchor="start" x="370" y="-29.5" font-family="FreeSans" font-size="10.00">DGtal::detail::PosDepScale</text>
<text text-anchor="start" x="370" y="-18.5" font-family="FreeSans" font-size="10.00">DepSCEstimator&lt; DCAComputer,</text>
<text text-anchor="middle" x="451.5" y="-7.5" font-family="FreeSans" font-size="10.00"> detail::DistanceFromDCA &gt;</text>
</a>
</g>
</g>
<!-- Node2&#45;&gt;Node1 -->
<g id="edge1" class="edge">
<title>Node2&#45;&gt;Node1</title>
<path fill="none" stroke="midnightblue" d="M551.55,-21C560.35,-21 569.24,-21 577.97,-21"/>
<polygon fill="midnightblue" stroke="midnightblue" points="551.28,-17.5 541.28,-21 551.28,-24.5 551.28,-17.5"/>
</g>
<!-- Node3 -->
<g id="node3" class="node">
<title>Node3</title>
<g id="a_node3"><a xlink:href="classDGtal_1_1detail_1_1PosDepScaleDepSCEstimator.html" target="_top" xlink:title=" ">
<polygon fill="white" stroke="black" points="0,-0.5 0,-41.5 208,-41.5 208,-0.5 0,-0.5"/>
<text text-anchor="start" x="8" y="-29.5" font-family="FreeSans" font-size="10.00">DGtal::detail::PosDepScale</text>
<text text-anchor="start" x="8" y="-18.5" font-family="FreeSans" font-size="10.00">DepSCEstimator&lt; TSegmentComputer,</text>
<text text-anchor="middle" x="104" y="-7.5" font-family="FreeSans" font-size="10.00"> Functor, ReturnType &gt;</text>
</a>
</g>
</g>
<!-- Node3&#45;&gt;Node2 -->
<g id="edge2" class="edge">
<title>Node3&#45;&gt;Node2</title>
<path fill="none" stroke="orange" stroke-dasharray="5,2" d="M218.34,-21C264.97,-21 318.16,-21 361.86,-21"/>
<polygon fill="orange" stroke="orange" points="218.19,-17.5 208.19,-21 218.19,-24.5 218.19,-17.5"/>
<text text-anchor="start" x="226" y="-35" font-family="FreeSans" font-size="10.00"> &lt; DCAComputer, detail</text>
<text text-anchor="middle" x="285" y="-24" font-family="FreeSans" font-size="10.00">::DistanceFromDCA &gt;</text>
</g>
</g>
</svg>
