<?xml version="1.0" encoding="UTF-8" standalone="no"?>
<!DOCTYPE svg PUBLIC "-//W3C//DTD SVG 1.1//EN"
 "http://www.w3.org/Graphics/SVG/1.1/DTD/svg11.dtd">
<!-- Generated by graphviz version 2.43.0 (0)
 -->
<!-- Title: DGtal::AngleLinearMinimizer Pages: 1 -->
<svg width="377pt" height="137pt"
 viewBox="0.00 0.00 377.00 137.00" xmlns="http://www.w3.org/2000/svg" xmlns:xlink="http://www.w3.org/1999/xlink">
<g id="graph0" class="graph" transform="scale(1 1) rotate(0) translate(4 133)">
<title>DGtal::AngleLinearMinimizer</title>
<polygon fill="white" stroke="transparent" points="-4,4 -4,-133 373,-133 373,4 -4,4"/>
<!-- Node1 -->
<g id="node1" class="node">
<title>Node1</title>
<g id="a_node1"><a xlink:title="Aim: Used to minimize the angle variation between different angles while taking into accounts min and...">
<polygon fill="#bfbfbf" stroke="black" points="0,-55 0,-74 157,-74 157,-55 0,-55"/>
<text text-anchor="middle" x="78.5" y="-62" font-family="FreeSans" font-size="10.00">DGtal::AngleLinearMinimizer</text>
</a>
</g>
</g>
<!-- Node2 -->
<g id="node2" class="node">
<title>Node2</title>
<g id="a_node2"><a xlink:href="classDGtal_1_1AngleLinearMinimizerByAdaptiveStepGradientDescent.html" target="_top" xlink:title=" ">
<polygon fill="white" stroke="black" points="193,-98.5 193,-128.5 369,-128.5 369,-98.5 193,-98.5"/>
<text text-anchor="start" x="201" y="-116.5" font-family="FreeSans" font-size="10.00">DGtal::AngleLinearMinimizer</text>
<text text-anchor="middle" x="281" y="-105.5" font-family="FreeSans" font-size="10.00">ByAdaptiveStepGradientDescent</text>
</a>
</g>
</g>
<!-- Node1&#45;&gt;Node2 -->
<g id="edge1" class="edge">
<title>Node1&#45;&gt;Node2</title>
<path fill="none" stroke="midnightblue" d="M128.66,-76.51C155.75,-83.14 189.64,-91.42 218.47,-98.46"/>
<polygon fill="midnightblue" stroke="midnightblue" points="129.18,-73.04 118.63,-74.06 127.52,-79.84 129.18,-73.04"/>
</g>
<!-- Node3 -->
<g id="node3" class="node">
<title>Node3</title>
<g id="a_node3"><a xlink:href="classDGtal_1_1AngleLinearMinimizerByGradientDescent.html" target="_top" xlink:title=" ">
<polygon fill="white" stroke="black" points="202.5,-49.5 202.5,-79.5 359.5,-79.5 359.5,-49.5 202.5,-49.5"/>
<text text-anchor="start" x="210.5" y="-67.5" font-family="FreeSans" font-size="10.00">DGtal::AngleLinearMinimizer</text>
<text text-anchor="middle" x="281" y="-56.5" font-family="FreeSans" font-size="10.00">ByGradientDescent</text>
</a>
</g>
</g>
<!-- Node1&#45;&gt;Node3 -->
<g id="edge2" class="edge">
<title>Node1&#45;&gt;Node3</title>
<path fill="none" stroke="midnightblue" d="M167.22,-64.5C178.92,-64.5 190.85,-64.5 202.36,-64.5"/>
<polygon fill="midnightblue" stroke="midnightblue" points="167.02,-61 157.02,-64.5 167.02,-68 167.02,-61"/>
</g>
<!-- Node4 -->
<g id="node4" class="node">
<title>Node4</title>
<g id="a_node4"><a xlink:href="classDGtal_1_1AngleLinearMinimizerByRelaxation.html" target="_top" xlink:title=" ">
<polygon fill="white" stroke="black" points="202.5,-0.5 202.5,-30.5 359.5,-30.5 359.5,-0.5 202.5,-0.5"/>
<text text-anchor="start" x="210.5" y="-18.5" font-family="FreeSans" font-size="10.00">DGtal::AngleLinearMinimizer</text>
<text text-anchor="middle" x="281" y="-7.5" font-family="FreeSans" font-size="10.00">ByRelaxation</text>
</a>
</g>
</g>
<!-- Node1&#45;&gt;Node4 -->
<g id="edge3" class="edge">
<title>Node1&#45;&gt;Node4</title>
<path fill="none" stroke="midnightblue" d="M128.66,-52.49C155.75,-45.86 189.64,-37.58 218.47,-30.54"/>
<polygon fill="midnightblue" stroke="midnightblue" points="127.52,-49.16 118.63,-54.94 129.18,-55.96 127.52,-49.16"/>
</g>
</g>
</svg>
