<?xml version="1.0" encoding="UTF-8" standalone="no"?>
<!DOCTYPE svg PUBLIC "-//W3C//DTD SVG 1.1//EN"
 "http://www.w3.org/Graphics/SVG/1.1/DTD/svg11.dtd">
<!-- Generated by graphviz version 2.43.0 (0)
 -->
<!-- Title: DGtal::ArithmeticalDSL&lt; TCoordinate, TInteger, adjacency &gt;::ConstIterator Pages: 1 -->
<svg width="355pt" height="72pt"
 viewBox="0.00 0.00 355.00 72.00" xmlns="http://www.w3.org/2000/svg" xmlns:xlink="http://www.w3.org/1999/xlink">
<g id="graph0" class="graph" transform="scale(1 1) rotate(0) translate(4 68)">
<title>DGtal::ArithmeticalDSL&lt; TCoordinate, TInteger, adjacency &gt;::ConstIterator</title>
<polygon fill="white" stroke="transparent" points="-4,4 -4,-68 351,-68 351,4 -4,4"/>
<!-- Node1 -->
<g id="node1" class="node">
<title>Node1</title>
<g id="a_node1"><a xlink:title="Aim: This class aims at representing an iterator that provides a way to scan the points of a DSL....">
<polygon fill="#bfbfbf" stroke="black" points="197,-11.5 197,-52.5 347,-52.5 347,-11.5 197,-11.5"/>
<text text-anchor="start" x="205" y="-40.5" font-family="FreeSans" font-size="10.00">DGtal::ArithmeticalDSL</text>
<text text-anchor="start" x="205" y="-29.5" font-family="FreeSans" font-size="10.00">&lt; TCoordinate, TInteger,</text>
<text text-anchor="middle" x="272" y="-18.5" font-family="FreeSans" font-size="10.00"> adjacency &gt;::ConstIterator</text>
</a>
</g>
</g>
<!-- Node2 -->
<g id="node2" class="node">
<title>Node2</title>
<g id="a_node2"><a xlink:title=" ">
<polygon fill="white" stroke="#bfbfbf" points="0,-0.5 0,-63.5 161,-63.5 161,-0.5 0,-0.5"/>
<text text-anchor="start" x="8" y="-51.5" font-family="FreeSans" font-size="10.00">boost::iterator_facade</text>
<text text-anchor="start" x="8" y="-40.5" font-family="FreeSans" font-size="10.00">&lt; ConstIterator, Point</text>
<text text-anchor="start" x="8" y="-29.5" font-family="FreeSans" font-size="10.00"> const, boost::random_access</text>
<text text-anchor="start" x="8" y="-18.5" font-family="FreeSans" font-size="10.00">_traversal_tag, Point const,</text>
<text text-anchor="middle" x="80.5" y="-7.5" font-family="FreeSans" font-size="10.00"> Position &gt;</text>
</a>
</g>
</g>
<!-- Node2&#45;&gt;Node1 -->
<g id="edge1" class="edge">
<title>Node2&#45;&gt;Node1</title>
<path fill="none" stroke="midnightblue" d="M171.1,-32C179.71,-32 188.37,-32 196.8,-32"/>
<polygon fill="midnightblue" stroke="midnightblue" points="171.04,-28.5 161.04,-32 171.04,-35.5 171.04,-28.5"/>
</g>
</g>
</svg>
