<?xml version="1.0" encoding="UTF-8" standalone="no"?>
<!DOCTYPE svg PUBLIC "-//W3C//DTD SVG 1.1//EN"
 "http://www.w3.org/Graphics/SVG/1.1/DTD/svg11.dtd">
<!-- Generated by graphviz version 2.43.0 (0)
 -->
<!-- Title: DGtal::detail::PosIndepScaleIndepSCEstimator&lt; TSegmentComputer, Functor, ReturnType &gt; Pages: 1 -->
<svg width="895pt" height="182pt"
 viewBox="0.00 0.00 895.00 181.50" xmlns="http://www.w3.org/2000/svg" xmlns:xlink="http://www.w3.org/1999/xlink">
<g id="graph0" class="graph" transform="scale(1 1) rotate(0) translate(4 177.5)">
<title>DGtal::detail::PosIndepScaleIndepSCEstimator&lt; TSegmentComputer, Functor, ReturnType &gt;</title>
<polygon fill="white" stroke="transparent" points="-4,4 -4,-177.5 891,-177.5 891,4 -4,4"/>
<!-- Node1 -->
<g id="node1" class="node">
<title>Node1</title>
<g id="a_node1"><a xlink:title=" ">
<polygon fill="#bfbfbf" stroke="black" points="0,-60.5 0,-101.5 215,-101.5 215,-60.5 0,-60.5"/>
<text text-anchor="start" x="8" y="-89.5" font-family="FreeSans" font-size="10.00">DGtal::detail::PosIndepScale</text>
<text text-anchor="start" x="8" y="-78.5" font-family="FreeSans" font-size="10.00">IndepSCEstimator&lt; TSegmentComputer,</text>
<text text-anchor="middle" x="107.5" y="-67.5" font-family="FreeSans" font-size="10.00"> Functor, ReturnType &gt;</text>
</a>
</g>
</g>
<!-- Node2 -->
<g id="node2" class="node">
<title>Node2</title>
<g id="a_node2"><a xlink:href="classDGtal_1_1detail_1_1PosIndepScaleIndepSCEstimator.html" target="_top" xlink:title=" ">
<polygon fill="white" stroke="black" points="432.5,-121 432.5,-173 617.5,-173 617.5,-121 432.5,-121"/>
<text text-anchor="start" x="440.5" y="-161" font-family="FreeSans" font-size="10.00">DGtal::detail::PosIndepScale</text>
<text text-anchor="start" x="440.5" y="-150" font-family="FreeSans" font-size="10.00">IndepSCEstimator&lt; DSSComputer,</text>
<text text-anchor="start" x="440.5" y="-139" font-family="FreeSans" font-size="10.00"> detail::TangentVectorFromDSS</text>
<text text-anchor="middle" x="525" y="-128" font-family="FreeSans" font-size="10.00">&lt; DSSComputer &gt; &gt;</text>
</a>
</g>
</g>
<!-- Node1&#45;&gt;Node2 -->
<g id="edge1" class="edge">
<title>Node1&#45;&gt;Node2</title>
<path fill="none" stroke="orange" stroke-dasharray="5,2" d="M179.41,-104.6C196.78,-109.67 215.43,-114.55 233,-118 299.01,-130.98 374.64,-138.29 432.26,-142.32"/>
<polygon fill="orange" stroke="orange" points="179.93,-101.1 169.35,-101.59 177.93,-107.81 179.93,-101.1"/>
<text text-anchor="start" x="251.5" y="-163" font-family="FreeSans" font-size="10.00"> &lt; DSSComputer, detail</text>
<text text-anchor="start" x="251.5" y="-152" font-family="FreeSans" font-size="10.00">::TangentVectorFromDSS</text>
<text text-anchor="middle" x="311.5" y="-141" font-family="FreeSans" font-size="10.00">&lt; DSSComputer &gt; &gt;</text>
</g>
<!-- Node4 -->
<g id="node4" class="node">
<title>Node4</title>
<g id="a_node4"><a xlink:href="classDGtal_1_1detail_1_1PosIndepScaleIndepSCEstimator.html" target="_top" xlink:title=" ">
<polygon fill="white" stroke="black" points="408,-60.5 408,-101.5 642,-101.5 642,-60.5 408,-60.5"/>
<text text-anchor="start" x="416" y="-89.5" font-family="FreeSans" font-size="10.00">DGtal::detail::PosIndepScale</text>
<text text-anchor="start" x="416" y="-78.5" font-family="FreeSans" font-size="10.00">IndepSCEstimator&lt; DSSComputer,</text>
<text text-anchor="middle" x="525" y="-67.5" font-family="FreeSans" font-size="10.00"> detail::NormalizedTangentVectorFromDSS &gt;</text>
</a>
</g>
</g>
<!-- Node1&#45;&gt;Node4 -->
<g id="edge3" class="edge">
<title>Node1&#45;&gt;Node4</title>
<path fill="none" stroke="orange" stroke-dasharray="5,2" d="M225.37,-81C282.4,-81 350.79,-81 407.73,-81"/>
<polygon fill="orange" stroke="orange" points="225.23,-77.5 215.23,-81 225.23,-84.5 225.23,-77.5"/>
<text text-anchor="start" x="233" y="-106" font-family="FreeSans" font-size="10.00"> &lt; DSSComputer, detail</text>
<text text-anchor="start" x="233" y="-95" font-family="FreeSans" font-size="10.00">::NormalizedTangentVectorFrom</text>
<text text-anchor="middle" x="311.5" y="-84" font-family="FreeSans" font-size="10.00">DSS &gt;</text>
</g>
<!-- Node6 -->
<g id="node6" class="node">
<title>Node6</title>
<g id="a_node6"><a xlink:href="classDGtal_1_1detail_1_1PosIndepScaleIndepSCEstimator.html" target="_top" xlink:title=" ">
<polygon fill="white" stroke="black" points="432.5,-0.5 432.5,-41.5 617.5,-41.5 617.5,-0.5 432.5,-0.5"/>
<text text-anchor="start" x="440.5" y="-29.5" font-family="FreeSans" font-size="10.00">DGtal::detail::PosIndepScale</text>
<text text-anchor="start" x="440.5" y="-18.5" font-family="FreeSans" font-size="10.00">IndepSCEstimator&lt; DSSComputer,</text>
<text text-anchor="middle" x="525" y="-7.5" font-family="FreeSans" font-size="10.00"> detail::TangentAngleFromDSS &gt;</text>
</a>
</g>
</g>
<!-- Node1&#45;&gt;Node6 -->
<g id="edge5" class="edge">
<title>Node1&#45;&gt;Node6</title>
<path fill="none" stroke="orange" stroke-dasharray="5,2" d="M212.6,-58.54C219.49,-57.28 226.34,-56.08 233,-55 299.4,-44.21 374.85,-35.49 432.29,-29.59"/>
<polygon fill="orange" stroke="orange" points="211.67,-55.16 202.48,-60.44 212.96,-62.04 211.67,-55.16"/>
<text text-anchor="start" x="247.5" y="-69" font-family="FreeSans" font-size="10.00"> &lt; DSSComputer, detail</text>
<text text-anchor="middle" x="311.5" y="-58" font-family="FreeSans" font-size="10.00">::TangentAngleFromDSS &gt;</text>
</g>
<!-- Node3 -->
<g id="node3" class="node">
<title>Node3</title>
<g id="a_node3"><a xlink:href="classDGtal_1_1TangentVectorFromDSSEstimator.html" target="_top" xlink:title=" ">
<polygon fill="white" stroke="black" points="696.5,-132 696.5,-162 869.5,-162 869.5,-132 696.5,-132"/>
<text text-anchor="start" x="704.5" y="-150" font-family="FreeSans" font-size="10.00">DGtal::TangentVectorFrom</text>
<text text-anchor="middle" x="783" y="-139" font-family="FreeSans" font-size="10.00">DSSEstimator&lt; DSSComputer &gt;</text>
</a>
</g>
</g>
<!-- Node2&#45;&gt;Node3 -->
<g id="edge2" class="edge">
<title>Node2&#45;&gt;Node3</title>
<path fill="none" stroke="midnightblue" d="M627.73,-147C650.51,-147 674.45,-147 696.49,-147"/>
<polygon fill="midnightblue" stroke="midnightblue" points="627.7,-143.5 617.7,-147 627.7,-150.5 627.7,-143.5"/>
</g>
<!-- Node5 -->
<g id="node5" class="node">
<title>Node5</title>
<g id="a_node5"><a xlink:href="classDGtal_1_1TangentFromDSSEstimator.html" target="_top" xlink:title=" ">
<polygon fill="white" stroke="black" points="693,-66 693,-96 873,-96 873,-66 693,-66"/>
<text text-anchor="start" x="701" y="-84" font-family="FreeSans" font-size="10.00">DGtal::TangentFromDSSEstimator</text>
<text text-anchor="middle" x="783" y="-73" font-family="FreeSans" font-size="10.00">&lt; DSSComputer &gt;</text>
</a>
</g>
</g>
<!-- Node4&#45;&gt;Node5 -->
<g id="edge4" class="edge">
<title>Node4&#45;&gt;Node5</title>
<path fill="none" stroke="midnightblue" d="M652.04,-81C665.82,-81 679.64,-81 692.85,-81"/>
<polygon fill="midnightblue" stroke="midnightblue" points="652.02,-77.5 642.02,-81 652.02,-84.5 652.02,-77.5"/>
</g>
<!-- Node7 -->
<g id="node7" class="node">
<title>Node7</title>
<g id="a_node7"><a xlink:href="classDGtal_1_1TangentAngleFromDSSEstimator.html" target="_top" xlink:title=" ">
<polygon fill="white" stroke="black" points="679,-6 679,-36 887,-36 887,-6 679,-6"/>
<text text-anchor="start" x="687" y="-24" font-family="FreeSans" font-size="10.00">DGtal::TangentAngleFromDSSEstimator</text>
<text text-anchor="middle" x="783" y="-13" font-family="FreeSans" font-size="10.00">&lt; DSSComputer &gt;</text>
</a>
</g>
</g>
<!-- Node6&#45;&gt;Node7 -->
<g id="edge6" class="edge">
<title>Node6&#45;&gt;Node7</title>
<path fill="none" stroke="midnightblue" d="M628.01,-21C644.71,-21 662.03,-21 678.77,-21"/>
<polygon fill="midnightblue" stroke="midnightblue" points="627.7,-17.5 617.7,-21 627.7,-24.5 627.7,-17.5"/>
</g>
</g>
</svg>
