<?xml version="1.0" encoding="UTF-8" standalone="no"?>
<!DOCTYPE svg PUBLIC "-//W3C//DTD SVG 1.1//EN"
 "http://www.w3.org/Graphics/SVG/1.1/DTD/svg11.dtd">
<!-- Generated by graphviz version 2.43.0 (0)
 -->
<!-- Title: DGtal::Board3DTo2D&lt; Space, KSpace &gt; Pages: 1 -->
<svg width="174pt" height="274pt"
 viewBox="0.00 0.00 174.00 274.00" xmlns="http://www.w3.org/2000/svg" xmlns:xlink="http://www.w3.org/1999/xlink">
<g id="graph0" class="graph" transform="scale(1 1) rotate(0) translate(4 270)">
<title>DGtal::Board3DTo2D&lt; Space, KSpace &gt;</title>
<polygon fill="white" stroke="transparent" points="-4,4 -4,-270 170,-270 170,4 -4,4"/>
<!-- Node1 -->
<g id="node1" class="node">
<title>Node1</title>
<g id="a_node1"><a xlink:title="Class for PDF, PNG, PS, EPS, SVG export drawings with Cairo with 3D&#45;&gt;2D projection.">
<polygon fill="#bfbfbf" stroke="black" points="14,-78.5 14,-108.5 130,-108.5 130,-78.5 14,-78.5"/>
<text text-anchor="start" x="22" y="-96.5" font-family="FreeSans" font-size="10.00">DGtal::Board3DTo2D</text>
<text text-anchor="middle" x="72" y="-85.5" font-family="FreeSans" font-size="10.00">&lt; Space, KSpace &gt;</text>
</a>
</g>
</g>
<!-- Node4 -->
<g id="node4" class="node">
<title>Node4</title>
<g id="a_node4"><a xlink:href="classDGtal_1_1Board3DTo2D.html" target="_top" xlink:title=" ">
<polygon fill="white" stroke="black" points="14,-0.5 14,-30.5 130,-30.5 130,-0.5 14,-0.5"/>
<text text-anchor="start" x="22" y="-18.5" font-family="FreeSans" font-size="10.00">DGtal::Board3DTo2D</text>
<text text-anchor="middle" x="72" y="-7.5" font-family="FreeSans" font-size="10.00">&lt; S, KS &gt;</text>
</a>
</g>
</g>
<!-- Node1&#45;&gt;Node4 -->
<g id="edge3" class="edge">
<title>Node1&#45;&gt;Node4</title>
<path fill="none" stroke="orange" stroke-dasharray="5,2" d="M72,-68.09C72,-55.76 72,-41.22 72,-30.73"/>
<polygon fill="orange" stroke="orange" points="68.5,-68.2 72,-78.2 75.5,-68.21 68.5,-68.2"/>
<text text-anchor="middle" x="97.5" y="-52" font-family="FreeSans" font-size="10.00"> &lt; S, KS &gt;</text>
</g>
<!-- Node2 -->
<g id="node2" class="node">
<title>Node2</title>
<g id="a_node2"><a xlink:href="classDGtal_1_1Display3D.html" target="_top" xlink:title=" ">
<polygon fill="white" stroke="black" points="8,-146.5 8,-176.5 136,-176.5 136,-146.5 8,-146.5"/>
<text text-anchor="start" x="16" y="-164.5" font-family="FreeSans" font-size="10.00">DGtal::Display3D&lt; Z3i</text>
<text text-anchor="middle" x="72" y="-153.5" font-family="FreeSans" font-size="10.00">::Space, Z3i::KSpace &gt;</text>
</a>
</g>
</g>
<!-- Node2&#45;&gt;Node1 -->
<g id="edge1" class="edge">
<title>Node2&#45;&gt;Node1</title>
<path fill="none" stroke="midnightblue" d="M72,-136.03C72,-126.86 72,-116.74 72,-108.79"/>
<polygon fill="midnightblue" stroke="midnightblue" points="68.5,-136.18 72,-146.18 75.5,-136.18 68.5,-136.18"/>
</g>
<!-- Node3 -->
<g id="node3" class="node">
<title>Node3</title>
<g id="a_node3"><a xlink:href="classDGtal_1_1Display3D.html" target="_top" xlink:title="Aim: This semi abstract class defines the stream mechanism to display 3d primitive (like BallVector,...">
<polygon fill="white" stroke="black" points="0,-235.5 0,-265.5 144,-265.5 144,-235.5 0,-235.5"/>
<text text-anchor="start" x="8" y="-253.5" font-family="FreeSans" font-size="10.00">DGtal::Display3D&lt; Space,</text>
<text text-anchor="middle" x="72" y="-242.5" font-family="FreeSans" font-size="10.00"> KSpace &gt;</text>
</a>
</g>
</g>
<!-- Node3&#45;&gt;Node2 -->
<g id="edge2" class="edge">
<title>Node3&#45;&gt;Node2</title>
<path fill="none" stroke="orange" stroke-dasharray="5,2" d="M72,-225.09C72,-209.44 72,-189.68 72,-176.6"/>
<polygon fill="orange" stroke="orange" points="68.5,-225.13 72,-235.13 75.5,-225.13 68.5,-225.13"/>
<text text-anchor="start" x="72" y="-209" font-family="FreeSans" font-size="10.00"> &lt; Z3i::Space, Z3i::</text>
<text text-anchor="middle" x="119" y="-198" font-family="FreeSans" font-size="10.00">KSpace &gt;</text>
</g>
</g>
</svg>
