<?xml version="1.0" encoding="UTF-8" standalone="no"?>
<!DOCTYPE svg PUBLIC "-//W3C//DTD SVG 1.1//EN"
 "http://www.w3.org/Graphics/SVG/1.1/DTD/svg11.dtd">
<!-- Generated by graphviz version 2.43.0 (0)
 -->
<!-- Title: DGtal::ReverseDistanceTransformation&lt; TWeightImage, TPSeparableMetric, TImageContainer &gt; Pages: 1 -->
<svg width="895pt" height="106pt"
 viewBox="0.00 0.00 895.00 106.00" xmlns="http://www.w3.org/2000/svg" xmlns:xlink="http://www.w3.org/1999/xlink">
<g id="graph0" class="graph" transform="scale(1 1) rotate(0) translate(4 102)">
<title>DGtal::ReverseDistanceTransformation&lt; TWeightImage, TPSeparableMetric, TImageContainer &gt;</title>
<polygon fill="white" stroke="transparent" points="-4,4 -4,-102 891,-102 891,4 -4,4"/>
<!-- Node1 -->
<g id="node1" class="node">
<title>Node1</title>
<g id="a_node1"><a xlink:title="Aim: Implementation of the linear in time reverse distance transformation for separable metrics.">
<polygon fill="#bfbfbf" stroke="black" points="681,-22.5 681,-63.5 887,-63.5 887,-22.5 681,-22.5"/>
<text text-anchor="start" x="689" y="-51.5" font-family="FreeSans" font-size="10.00">DGtal::ReverseDistanceTransformation</text>
<text text-anchor="start" x="689" y="-40.5" font-family="FreeSans" font-size="10.00">&lt; TWeightImage, TPSeparableMetric,</text>
<text text-anchor="middle" x="784" y="-29.5" font-family="FreeSans" font-size="10.00"> TImageContainer &gt;</text>
</a>
</g>
</g>
<!-- Node2 -->
<g id="node2" class="node">
<title>Node2</title>
<g id="a_node2"><a xlink:href="classDGtal_1_1PowerMap.html" target="_top" xlink:title=" ">
<polygon fill="white" stroke="black" points="443,-0.5 443,-85.5 644,-85.5 644,-0.5 443,-0.5"/>
<text text-anchor="start" x="451" y="-73.5" font-family="FreeSans" font-size="10.00">DGtal::PowerMap&lt; TWeight</text>
<text text-anchor="start" x="451" y="-62.5" font-family="FreeSans" font-size="10.00">Image, TPSeparableMetric,</text>
<text text-anchor="start" x="451" y="-51.5" font-family="FreeSans" font-size="10.00"> ImageContainerBySTLVector</text>
<text text-anchor="start" x="451" y="-40.5" font-family="FreeSans" font-size="10.00">&lt; HyperRectDomain&lt; typename</text>
<text text-anchor="start" x="451" y="-29.5" font-family="FreeSans" font-size="10.00"> TWeightImage::Domain::Space</text>
<text text-anchor="start" x="451" y="-18.5" font-family="FreeSans" font-size="10.00"> &gt;, typename TWeightImage::Domain</text>
<text text-anchor="middle" x="543.5" y="-7.5" font-family="FreeSans" font-size="10.00">::Space::Vector &gt; &gt;</text>
</a>
</g>
</g>
<!-- Node2&#45;&gt;Node1 -->
<g id="edge1" class="edge">
<title>Node2&#45;&gt;Node1</title>
<path fill="none" stroke="midnightblue" d="M654.55,-43C663.35,-43 672.21,-43 680.95,-43"/>
<polygon fill="midnightblue" stroke="midnightblue" points="654.26,-39.5 644.26,-43 654.26,-46.5 654.26,-39.5"/>
</g>
<!-- Node3 -->
<g id="node3" class="node">
<title>Node3</title>
<g id="a_node3"><a xlink:href="classDGtal_1_1PowerMap.html" target="_top" xlink:title="Aim: Implementation of the linear in time Power map construction.">
<polygon fill="white" stroke="black" points="0,-22.5 0,-63.5 172,-63.5 172,-22.5 0,-22.5"/>
<text text-anchor="start" x="8" y="-51.5" font-family="FreeSans" font-size="10.00">DGtal::PowerMap&lt; TWeight</text>
<text text-anchor="start" x="8" y="-40.5" font-family="FreeSans" font-size="10.00">Image, TPowerSeparableMetric,</text>
<text text-anchor="middle" x="86" y="-29.5" font-family="FreeSans" font-size="10.00"> TImageContainer &gt;</text>
</a>
</g>
</g>
<!-- Node3&#45;&gt;Node2 -->
<g id="edge2" class="edge">
<title>Node3&#45;&gt;Node2</title>
<path fill="none" stroke="orange" stroke-dasharray="5,2" d="M182.23,-43C258.52,-43 365.23,-43 442.7,-43"/>
<polygon fill="orange" stroke="orange" points="182.14,-39.5 172.14,-43 182.14,-46.5 182.14,-39.5"/>
<text text-anchor="start" x="190" y="-90" font-family="FreeSans" font-size="10.00"> &lt; TWeightImage, TPSeparable</text>
<text text-anchor="start" x="190" y="-79" font-family="FreeSans" font-size="10.00">Metric, ImageContainerBySTLVector</text>
<text text-anchor="start" x="190" y="-68" font-family="FreeSans" font-size="10.00">&lt; HyperRectDomain&lt; typename TWeightImage</text>
<text text-anchor="start" x="190" y="-57" font-family="FreeSans" font-size="10.00">::Domain::Space &gt;, typename TWeightImage</text>
<text text-anchor="middle" x="307.5" y="-46" font-family="FreeSans" font-size="10.00">::Domain::Space::Vector &gt; &gt;</text>
</g>
</g>
</svg>
