<?xml version="1.0" encoding="UTF-8" standalone="no"?>
<!DOCTYPE svg PUBLIC "-//W3C//DTD SVG 1.1//EN"
 "http://www.w3.org/Graphics/SVG/1.1/DTD/svg11.dtd">
<!-- Generated by graphviz version 2.43.0 (0)
 -->
<!-- Title: GMath Pages: 1 -->
<svg width="3295pt" height="491pt"
 viewBox="0.00 0.00 3295.00 491.00" xmlns="http://www.w3.org/2000/svg" xmlns:xlink="http://www.w3.org/1999/xlink">
<g id="graph0" class="graph" transform="scale(1 1) rotate(0) translate(4 487)">
<title>GMath</title>
<polygon fill="white" stroke="transparent" points="-4,4 -4,-487 3291,-487 3291,4 -4,4"/>
<g id="clust1" class="cluster">
<title>cluster_ext</title>
<polygon fill="none" stroke="black" points="1644,-305 1644,-396 3279,-396 3279,-305 1644,-305"/>
</g>
<g id="clust2" class="cluster">
<title>cluster_kernel</title>
<polygon fill="#ddddee" stroke="#ddddee" points="2864,-313 2864,-388 3271,-388 3271,-313 2864,-313"/>
<text text-anchor="middle" x="3067.5" y="-320.8" font-family="Times,serif" font-size="14.00">kernel</text>
</g>
<g id="clust4" class="cluster">
<title>cluster_boost</title>
<polygon fill="white" stroke="white" points="1652,-313 1652,-388 2856,-388 2856,-313 1652,-313"/>
<text text-anchor="middle" x="2254" y="-320.8" font-family="Times,serif" font-size="14.00">boost</text>
</g>
<g id="clust6" class="cluster">
<title>cluster_math_cc</title>
<polygon fill="none" stroke="black" points="8,-116 8,-475 1636,-475 1636,-116 8,-116"/>
</g>
<g id="clust7" class="cluster">
<title>cluster_math_linalg</title>
<polygon fill="#e4e4ff" stroke="#e4e4ff" points="16,-124 16,-467 1448,-467 1448,-124 16,-124"/>
<text text-anchor="middle" x="732" y="-131.8" font-family="Times,serif" font-size="14.00">math/linalg</text>
</g>
<g id="clust8" class="cluster">
<title>cluster_concepts</title>
<polygon fill="lightgrey" stroke="lightgrey" points="1456,-124 1456,-199 1628,-199 1628,-124 1456,-124"/>
<text text-anchor="middle" x="1542" y="-131.8" font-family="Times,serif" font-size="14.00">Math (main concepts)</text>
</g>
<g id="clust9" class="cluster">
<title>cluster_models</title>
<polygon fill="#ccffcc" stroke="#ccffcc" points="2023,-8 2023,-83 2619,-83 2619,-8 2023,-8"/>
<text text-anchor="middle" x="2321" y="-15.8" font-family="Times,serif" font-size="14.00">Math (main models and classes)</text>
</g>
<!-- CCommutativeRing -->
<g id="node1" class="node">
<title>CCommutativeRing</title>
<g id="a_node1"><a xlink:href="structDGtal_1_1concepts_1_1CCommutativeRing.html" target="_top" xlink:title="CCommutativeRing">
<ellipse fill="white" stroke="white" cx="3162" cy="-362" rx="101.28" ry="18"/>
<text text-anchor="middle" x="3162" y="-358.3" font-family="Times,serif" font-size="14.00">CCommutativeRing</text>
</a>
</g>
</g>
<!-- CEuclideanRing -->
<g id="node2" class="node">
<title>CEuclideanRing</title>
<g id="a_node2"><a xlink:href="structDGtal_1_1concepts_1_1CEuclideanRing.html" target="_top" xlink:title="CEuclideanRing">
<ellipse fill="white" stroke="white" cx="2957" cy="-362" rx="85.29" ry="18"/>
<text text-anchor="middle" x="2957" y="-358.3" font-family="Times,serif" font-size="14.00">CEuclideanRing</text>
</a>
</g>
</g>
<!-- boost_CopyConstructible -->
<g id="node3" class="node">
<title>boost_CopyConstructible</title>
<g id="a_node3"><a xlink:href="structboost_1_1CopyConstructible.html" target="_top" xlink:title="boost::CopyConstructible">
<ellipse fill="orange" stroke="orange" cx="2084" cy="-362" rx="128.08" ry="18"/>
<text text-anchor="middle" x="2084" y="-358.3" font-family="Times,serif" font-size="14.00">boost::CopyConstructible</text>
</a>
</g>
</g>
<!-- boost_DefaultConstructible -->
<g id="node4" class="node">
<title>boost_DefaultConstructible</title>
<g id="a_node4"><a xlink:href="structboost_1_1DefaultConstructible.html" target="_top" xlink:title="boost::DefaultConstructible">
<ellipse fill="orange" stroke="orange" cx="1799" cy="-362" rx="139.18" ry="18"/>
<text text-anchor="middle" x="1799" y="-358.3" font-family="Times,serif" font-size="14.00">boost::DefaultConstructible</text>
</a>
</g>
</g>
<!-- boost_InputIterator -->
<g id="node5" class="node">
<title>boost_InputIterator</title>
<g id="a_node5"><a xlink:href="structboost_1_1InputIterator.html" target="_top" xlink:title="boost::InputIterator">
<ellipse fill="orange" stroke="orange" cx="2745" cy="-362" rx="102.88" ry="18"/>
<text text-anchor="middle" x="2745" y="-358.3" font-family="Times,serif" font-size="14.00">boost::InputIterator</text>
</a>
</g>
</g>
<!-- boost_is_integral -->
<g id="node6" class="node">
<title>boost_is_integral</title>
<g id="a_node6"><a xlink:href="structboost_1_1is__integral.html" target="_top" xlink:title="boost::is_integral">
<ellipse fill="orange" stroke="orange" cx="2321" cy="-362" rx="90.98" ry="18"/>
<text text-anchor="middle" x="2321" y="-358.3" font-family="Times,serif" font-size="14.00">boost::is_integral</text>
</a>
</g>
</g>
<!-- boost_is_unsigned -->
<g id="node7" class="node">
<title>boost_is_unsigned</title>
<g id="a_node7"><a xlink:href="structboost_1_1is__unsigned.html" target="_top" xlink:title="boost::is_unsigned">
<ellipse fill="orange" stroke="orange" cx="2527" cy="-362" rx="96.68" ry="18"/>
<text text-anchor="middle" x="2527" y="-358.3" font-family="Times,serif" font-size="14.00">boost::is_unsigned</text>
</a>
</g>
</g>
<!-- CVectorSpace -->
<g id="node8" class="node">
<title>CVectorSpace</title>
<g id="a_node8"><a xlink:href="structDGtal_1_1concepts_1_1CVectorSpace.html" target="_top" xlink:title="CVectorSpace">
<ellipse fill="white" stroke="white" cx="695" cy="-441" rx="75.29" ry="18"/>
<text text-anchor="middle" x="695" y="-437.3" font-family="Times,serif" font-size="14.00">CVectorSpace</text>
</a>
</g>
</g>
<!-- CMatrix -->
<g id="node9" class="node">
<title>CMatrix</title>
<g id="a_node9"><a xlink:href="structDGtal_1_1concepts_1_1CMatrix.html" target="_top" xlink:title="CMatrix">
<ellipse fill="white" stroke="white" cx="860" cy="-362" rx="48.99" ry="18"/>
<text text-anchor="middle" x="860" y="-358.3" font-family="Times,serif" font-size="14.00">CMatrix</text>
</a>
</g>
</g>
<!-- CMatrix&#45;&gt;CVectorSpace -->
<g id="edge6" class="edge">
<title>CMatrix&#45;&gt;CVectorSpace</title>
<path fill="none" stroke="black" d="M830.88,-376.59C804.83,-388.74 766.35,-406.7 736.98,-420.41"/>
<polygon fill="black" stroke="black" points="735.37,-417.3 727.79,-424.7 738.33,-423.64 735.37,-417.3"/>
</g>
<!-- CStaticMatrix -->
<g id="node10" class="node">
<title>CStaticMatrix</title>
<g id="a_node10"><a xlink:href="structDGtal_1_1concepts_1_1CStaticMatrix.html" target="_top" xlink:title="CStaticMatrix">
<ellipse fill="white" stroke="white" cx="1364" cy="-260" rx="76.09" ry="18"/>
<text text-anchor="middle" x="1364" y="-256.3" font-family="Times,serif" font-size="14.00">CStaticMatrix</text>
</a>
</g>
</g>
<!-- CStaticMatrix&#45;&gt;boost_DefaultConstructible -->
<g id="edge8" class="edge">
<title>CStaticMatrix&#45;&gt;boost_DefaultConstructible</title>
<path fill="none" stroke="black" d="M1416.47,-273.06C1493.17,-290.69 1636.29,-323.59 1724.06,-343.77"/>
<polygon fill="black" stroke="black" points="1723.42,-347.22 1733.95,-346.05 1724.99,-340.39 1723.42,-347.22"/>
</g>
<!-- CStaticMatrix&#45;&gt;CMatrix -->
<g id="edge7" class="edge">
<title>CStaticMatrix&#45;&gt;CMatrix</title>
<path fill="none" stroke="black" d="M1307.76,-272.26C1298.17,-274.18 1288.3,-276.15 1279,-278 1146.93,-304.29 991.39,-335.05 912.14,-350.7"/>
<polygon fill="black" stroke="black" points="911.06,-347.35 901.93,-352.72 912.42,-354.22 911.06,-347.35"/>
</g>
<!-- CDynamicMatrix -->
<g id="node11" class="node">
<title>CDynamicMatrix</title>
<g id="a_node11"><a xlink:href="structDGtal_1_1concepts_1_1CDynamicMatrix.html" target="_top" xlink:title="CDynamicMatrix">
<ellipse fill="white" stroke="white" cx="1001" cy="-260" rx="89.08" ry="18"/>
<text text-anchor="middle" x="1001" y="-256.3" font-family="Times,serif" font-size="14.00">CDynamicMatrix</text>
</a>
</g>
</g>
<!-- CDynamicMatrix&#45;&gt;CMatrix -->
<g id="edge9" class="edge">
<title>CDynamicMatrix&#45;&gt;CMatrix</title>
<path fill="none" stroke="black" d="M977.72,-277.51C953.68,-294.56 916.1,-321.21 889.89,-339.8"/>
<polygon fill="black" stroke="black" points="887.6,-337.13 881.47,-345.77 891.65,-342.84 887.6,-337.13"/>
</g>
<!-- CDenseMatrix -->
<g id="node12" class="node">
<title>CDenseMatrix</title>
<g id="a_node12"><a xlink:href="structDGtal_1_1concepts_1_1CDenseMatrix.html" target="_top" xlink:title="CDenseMatrix">
<ellipse fill="white" stroke="white" cx="649" cy="-260" rx="77.19" ry="18"/>
<text text-anchor="middle" x="649" y="-256.3" font-family="Times,serif" font-size="14.00">CDenseMatrix</text>
</a>
</g>
</g>
<!-- CDenseMatrix&#45;&gt;CMatrix -->
<g id="edge10" class="edge">
<title>CDenseMatrix&#45;&gt;CMatrix</title>
<path fill="none" stroke="black" d="M681.51,-276.41C719.39,-294.36 781.91,-323.99 822,-342.99"/>
<polygon fill="black" stroke="black" points="820.65,-346.23 831.19,-347.35 823.65,-339.9 820.65,-346.23"/>
</g>
<!-- CSparseMatrix -->
<g id="node13" class="node">
<title>CSparseMatrix</title>
<g id="a_node13"><a xlink:href="structDGtal_1_1concepts_1_1CSparseMatrix.html" target="_top" xlink:title="CSparseMatrix">
<ellipse fill="white" stroke="white" cx="1189" cy="-260" rx="81.49" ry="18"/>
<text text-anchor="middle" x="1189" y="-256.3" font-family="Times,serif" font-size="14.00">CSparseMatrix</text>
</a>
</g>
</g>
<!-- CSparseMatrix&#45;&gt;CMatrix -->
<g id="edge11" class="edge">
<title>CSparseMatrix&#45;&gt;CMatrix</title>
<path fill="none" stroke="black" d="M1143.25,-274.9C1080.74,-293.91 969.23,-327.8 906.39,-346.9"/>
<polygon fill="black" stroke="black" points="905.28,-343.58 896.73,-349.83 907.32,-350.28 905.28,-343.58"/>
</g>
<!-- CVector -->
<g id="node14" class="node">
<title>CVector</title>
<g id="a_node14"><a xlink:href="structDGtal_1_1concepts_1_1CVector.html" target="_top" xlink:title="CVector">
<ellipse fill="white" stroke="white" cx="478" cy="-362" rx="47.39" ry="18"/>
<text text-anchor="middle" x="478" y="-358.3" font-family="Times,serif" font-size="14.00">CVector</text>
</a>
</g>
</g>
<!-- CVector&#45;&gt;CVectorSpace -->
<g id="edge1" class="edge">
<title>CVector&#45;&gt;CVectorSpace</title>
<path fill="none" stroke="black" d="M511.43,-374.86C547.09,-387.52 603.97,-407.7 644.97,-422.25"/>
<polygon fill="black" stroke="black" points="643.91,-425.59 654.51,-425.63 646.25,-418.99 643.91,-425.59"/>
</g>
<!-- CStaticVector -->
<g id="node15" class="node">
<title>CStaticVector</title>
<g id="a_node15"><a xlink:href="structDGtal_1_1concepts_1_1CStaticVector.html" target="_top" xlink:title="CStaticVector">
<ellipse fill="white" stroke="white" cx="819" cy="-260" rx="74.99" ry="18"/>
<text text-anchor="middle" x="819" y="-256.3" font-family="Times,serif" font-size="14.00">CStaticVector</text>
</a>
</g>
</g>
<!-- CStaticVector&#45;&gt;boost_DefaultConstructible -->
<g id="edge3" class="edge">
<title>CStaticVector&#45;&gt;boost_DefaultConstructible</title>
<path fill="none" stroke="black" d="M871.68,-272.92C882.01,-274.9 892.81,-276.73 903,-278 1145.41,-308.31 1209.04,-279.5 1452,-305 1542.53,-314.5 1645.37,-331.94 1715.44,-344.85"/>
<polygon fill="black" stroke="black" points="1715.06,-348.34 1725.53,-346.71 1716.34,-341.45 1715.06,-348.34"/>
</g>
<!-- CStaticVector&#45;&gt;CVector -->
<g id="edge2" class="edge">
<title>CStaticVector&#45;&gt;CVector</title>
<path fill="none" stroke="black" d="M773.37,-274.38C708.29,-293.47 589.48,-328.31 524.13,-347.47"/>
<polygon fill="black" stroke="black" points="523.12,-344.12 514.5,-350.29 525.09,-350.84 523.12,-344.12"/>
</g>
<!-- CDynamicVector -->
<g id="node16" class="node">
<title>CDynamicVector</title>
<g id="a_node16"><a xlink:href="structDGtal_1_1concepts_1_1CDynamicVector.html" target="_top" xlink:title="CDynamicVector">
<ellipse fill="white" stroke="white" cx="112" cy="-260" rx="87.99" ry="18"/>
<text text-anchor="middle" x="112" y="-256.3" font-family="Times,serif" font-size="14.00">CDynamicVector</text>
</a>
</g>
</g>
<!-- CDynamicVector&#45;&gt;CVector -->
<g id="edge4" class="edge">
<title>CDynamicVector&#45;&gt;CVector</title>
<path fill="none" stroke="black" d="M162.51,-274.8C233.53,-294.21 361.95,-329.29 431.02,-348.16"/>
<polygon fill="black" stroke="black" points="430.19,-351.57 440.76,-350.83 432.04,-344.81 430.19,-351.57"/>
</g>
<!-- CDenseVector -->
<g id="node17" class="node">
<title>CDenseVector</title>
<g id="a_node17"><a xlink:href="structDGtal_1_1concepts_1_1CDenseVector.html" target="_top" xlink:title="CDenseVector">
<ellipse fill="white" stroke="white" cx="478" cy="-260" rx="76.09" ry="18"/>
<text text-anchor="middle" x="478" y="-256.3" font-family="Times,serif" font-size="14.00">CDenseVector</text>
</a>
</g>
</g>
<!-- CDenseVector&#45;&gt;CVector -->
<g id="edge5" class="edge">
<title>CDenseVector&#45;&gt;CVector</title>
<path fill="none" stroke="black" d="M478,-278.42C478,-293.62 478,-315.93 478,-333.54"/>
<polygon fill="black" stroke="black" points="474.5,-333.78 478,-343.78 481.5,-333.78 474.5,-333.78"/>
</g>
<!-- CLinearAlgebra -->
<g id="node18" class="node">
<title>CLinearAlgebra</title>
<g id="a_node18"><a xlink:href="structDGtal_1_1concepts_1_1CLinearAlgebra.html" target="_top" xlink:title="CLinearAlgebra">
<ellipse fill="white" stroke="white" cx="301" cy="-260" rx="83.39" ry="18"/>
<text text-anchor="middle" x="301" y="-256.3" font-family="Times,serif" font-size="14.00">CLinearAlgebra</text>
</a>
</g>
</g>
<!-- CLinearAlgebra&#45;&gt;CMatrix -->
<g id="edge12" class="edge">
<title>CLinearAlgebra&#45;&gt;CMatrix</title>
<path fill="none" stroke="black" d="M361.86,-272.31C372.25,-274.22 382.93,-276.17 393,-278 543.04,-305.19 720.35,-336.47 806.99,-351.7"/>
<polygon fill="black" stroke="black" points="806.39,-355.15 816.85,-353.43 807.6,-348.25 806.39,-355.15"/>
</g>
<!-- CLinearAlgebra&#45;&gt;CVector -->
<g id="edge13" class="edge">
<title>CLinearAlgebra&#45;&gt;CVector</title>
<path fill="none" stroke="black" d="M329.44,-277.07C360.52,-294.63 410.33,-322.77 443.59,-341.56"/>
<polygon fill="black" stroke="black" points="442.08,-344.72 452.5,-346.6 445.52,-338.63 442.08,-344.72"/>
</g>
<!-- CLinearAlgebraSolver -->
<g id="node19" class="node">
<title>CLinearAlgebraSolver</title>
<g id="a_node19"><a xlink:href="structDGtal_1_1concepts_1_1CLinearAlgebraSolver.html" target="_top" xlink:title="CLinearAlgebraSolver">
<ellipse fill="white" stroke="white" cx="1071" cy="-173" rx="113.18" ry="18"/>
<text text-anchor="middle" x="1071" y="-169.3" font-family="Times,serif" font-size="14.00">CLinearAlgebraSolver</text>
</a>
</g>
</g>
<!-- CLinearAlgebraSolver&#45;&gt;boost_DefaultConstructible -->
<g id="edge15" class="edge">
<title>CLinearAlgebraSolver&#45;&gt;boost_DefaultConstructible</title>
<path fill="none" stroke="black" d="M1153.99,-185.27C1231.09,-196.61 1348.77,-216.1 1449,-242 1557.53,-270.04 1680.89,-315.21 1748.32,-341.09"/>
<polygon fill="black" stroke="black" points="1747.27,-344.43 1757.86,-344.76 1749.78,-337.9 1747.27,-344.43"/>
</g>
<!-- CLinearAlgebraSolver&#45;&gt;CLinearAlgebra -->
<g id="edge14" class="edge">
<title>CLinearAlgebraSolver&#45;&gt;CLinearAlgebra</title>
<path fill="none" stroke="black" d="M971.03,-181.42C838.49,-191.86 597.52,-212.9 393,-242 385.62,-243.05 377.93,-244.27 370.28,-245.56"/>
<polygon fill="black" stroke="black" points="369.52,-242.14 360.27,-247.3 370.72,-249.04 369.52,-242.14"/>
</g>
<!-- CBinner -->
<g id="node20" class="node">
<title>CBinner</title>
<g id="a_node20"><a xlink:href="structDGtal_1_1concepts_1_1CBinner.html" target="_top" xlink:title="CBinner">
<ellipse fill="white" stroke="white" cx="1571" cy="-173" rx="48.99" ry="18"/>
<text text-anchor="middle" x="1571" y="-169.3" font-family="Times,serif" font-size="14.00">CBinner</text>
</a>
</g>
</g>
<!-- CBinner&#45;&gt;CEuclideanRing -->
<g id="edge17" class="edge">
<title>CBinner&#45;&gt;CEuclideanRing</title>
<path fill="none" stroke="black" stroke-dasharray="5,2" d="M1619.72,-174.73C1794.38,-177.49 2383.08,-188.25 2465,-209 2550.94,-230.76 2558.04,-275.33 2644,-297 2690.58,-308.74 2813.84,-291.71 2860,-305 2884.25,-311.98 2908.84,-326.27 2927.19,-338.67"/>
<polygon fill="black" stroke="black" points="2925.46,-341.73 2935.67,-344.57 2929.46,-335.98 2925.46,-341.73"/>
<text text-anchor="middle" x="2604.5" y="-256.3" font-family="Times,serif" font-size="14.00">use</text>
</g>
<!-- CBinner&#45;&gt;boost_CopyConstructible -->
<g id="edge16" class="edge">
<title>CBinner&#45;&gt;boost_CopyConstructible</title>
<path fill="none" stroke="black" d="M1618.25,-177.8C1661.46,-182.22 1726.71,-191.3 1781,-209 1883.3,-242.34 1994.02,-305.58 2048.96,-339.01"/>
<polygon fill="black" stroke="black" points="2047.25,-342.07 2057.6,-344.31 2050.9,-336.1 2047.25,-342.07"/>
</g>
<!-- CBinner&#45;&gt;boost_is_integral -->
<g id="edge18" class="edge">
<title>CBinner&#45;&gt;boost_is_integral</title>
<path fill="none" stroke="black" stroke-dasharray="5,2" d="M1618.26,-177.92C1727.64,-188.19 2005.36,-221.1 2221,-305 2244.21,-314.03 2268.63,-327.62 2287.53,-339.15"/>
<polygon fill="black" stroke="black" points="2285.73,-342.15 2296.07,-344.45 2289.42,-336.2 2285.73,-342.15"/>
<text text-anchor="middle" x="2152.5" y="-256.3" font-family="Times,serif" font-size="14.00">use</text>
</g>
<!-- CBinner&#45;&gt;boost_is_unsigned -->
<g id="edge19" class="edge">
<title>CBinner&#45;&gt;boost_is_unsigned</title>
<path fill="none" stroke="black" stroke-dasharray="5,2" d="M1619.81,-174.4C1752.92,-176.98 2131.64,-194.26 2421,-305 2445.44,-314.35 2471.45,-328.03 2491.58,-339.52"/>
<polygon fill="black" stroke="black" points="2489.99,-342.64 2500.39,-344.63 2493.49,-336.59 2489.99,-342.64"/>
<text text-anchor="middle" x="2347.5" y="-256.3" font-family="Times,serif" font-size="14.00">use</text>
</g>
<!-- Statistic -->
<g id="node21" class="node">
<title>Statistic</title>
<g id="a_node21"><a xlink:href="classDGtal_1_1Statistic.html" target="_top" xlink:title="Statistic">
<ellipse fill="white" stroke="white" cx="2561" cy="-57" rx="50.09" ry="18"/>
<text text-anchor="middle" x="2561" y="-53.3" font-family="Times,serif" font-size="14.00">Statistic</text>
</a>
</g>
</g>
<!-- Statistic&#45;&gt;CCommutativeRing -->
<g id="edge20" class="edge">
<title>Statistic&#45;&gt;CCommutativeRing</title>
<path fill="none" stroke="black" stroke-dasharray="5,2" d="M2603.79,-66.51C2629.84,-72.4 2663.47,-81.29 2692,-93 2866.09,-164.49 3055.57,-288.23 3129.71,-338.65"/>
<polygon fill="black" stroke="black" points="3127.94,-341.68 3138.17,-344.43 3131.89,-335.9 3127.94,-341.68"/>
<text text-anchor="middle" x="2972" y="-212.8" font-family="Times,serif" font-size="14.00">tparam</text>
</g>
<!-- Statistic&#45;&gt;boost_InputIterator -->
<g id="edge21" class="edge">
<title>Statistic&#45;&gt;boost_InputIterator</title>
<path fill="none" stroke="black" stroke-dasharray="5,2" d="M2608.27,-63.22C2630.07,-67.85 2654.86,-76.57 2672,-93 2739.89,-158.1 2746.71,-279.59 2746.1,-333.74"/>
<polygon fill="black" stroke="black" points="2742.6,-333.86 2745.89,-343.93 2749.6,-334.01 2742.6,-333.86"/>
<text text-anchor="middle" x="2748.5" y="-212.8" font-family="Times,serif" font-size="14.00">use</text>
</g>
<!-- RegularBinner -->
<g id="node22" class="node">
<title>RegularBinner</title>
<g id="a_node22"><a xlink:href="structDGtal_1_1RegularBinner.html" target="_top" xlink:title="RegularBinner">
<ellipse fill="white" stroke="white" cx="2110" cy="-57" rx="78.79" ry="18"/>
<text text-anchor="middle" x="2110" y="-53.3" font-family="Times,serif" font-size="14.00">RegularBinner</text>
</a>
</g>
</g>
<!-- RegularBinner&#45;&gt;CBinner -->
<g id="edge22" class="edge">
<title>RegularBinner&#45;&gt;CBinner</title>
<path fill="none" stroke="black" d="M2031.32,-58.45C1921.71,-60.06 1729.27,-66.68 1665,-93 1635.83,-104.95 1608.99,-129.45 1591.53,-148.02"/>
<polygon fill="black" stroke="black" points="1588.8,-145.82 1584.64,-155.56 1593.97,-150.54 1588.8,-145.82"/>
</g>
<!-- Histogram -->
<g id="node23" class="node">
<title>Histogram</title>
<g id="a_node23"><a xlink:href="classDGtal_1_1Histogram.html" target="_top" xlink:title="Histogram">
<ellipse fill="white" stroke="white" cx="2433" cy="-57" rx="59.59" ry="18"/>
<text text-anchor="middle" x="2433" y="-53.3" font-family="Times,serif" font-size="14.00">Histogram</text>
</a>
</g>
</g>
<!-- Histogram&#45;&gt;CEuclideanRing -->
<g id="edge24" class="edge">
<title>Histogram&#45;&gt;CEuclideanRing</title>
<path fill="none" stroke="black" stroke-dasharray="5,2" d="M2453.61,-74.03C2494.48,-105.36 2589.35,-175.87 2676,-224 2754.11,-267.39 2780.3,-264.6 2860,-305 2880.83,-315.56 2903.45,-328.53 2921.61,-339.33"/>
<polygon fill="black" stroke="black" points="2920.29,-342.62 2930.67,-344.76 2923.89,-336.61 2920.29,-342.62"/>
<text text-anchor="middle" x="2702" y="-212.8" font-family="Times,serif" font-size="14.00">tparam</text>
</g>
<!-- Histogram&#45;&gt;boost_InputIterator -->
<g id="edge25" class="edge">
<title>Histogram&#45;&gt;boost_InputIterator</title>
<path fill="none" stroke="black" stroke-dasharray="5,2" d="M2435.77,-74.98C2443.42,-116.29 2468.77,-222.69 2534,-278 2568.78,-307.5 2590.4,-288.72 2633,-305 2658.47,-314.73 2685.87,-328.37 2707.2,-339.75"/>
<polygon fill="black" stroke="black" points="2705.78,-342.96 2716.24,-344.64 2709.1,-336.81 2705.78,-342.96"/>
<text text-anchor="middle" x="2500.5" y="-212.8" font-family="Times,serif" font-size="14.00">use</text>
</g>
<!-- Histogram&#45;&gt;CBinner -->
<g id="edge23" class="edge">
<title>Histogram&#45;&gt;CBinner</title>
<path fill="none" stroke="black" stroke-dasharray="5,2" d="M2399.44,-71.96C2388.33,-76.09 2375.79,-80.24 2364,-83 2094.42,-146.03 1762.49,-164.89 1629.83,-170.13"/>
<polygon fill="black" stroke="black" points="1629.35,-166.65 1619.49,-170.53 1629.62,-173.64 1629.35,-166.65"/>
<text text-anchor="middle" x="2326" y="-96.8" font-family="Times,serif" font-size="14.00">tparam</text>
</g>
<!-- SimpleMatrix -->
<g id="node24" class="node">
<title>SimpleMatrix</title>
<g id="a_node24"><a xlink:href="classDGtal_1_1SimpleMatrix.html" target="_top" xlink:title="SimpleMatrix">
<ellipse fill="white" stroke="white" cx="2281" cy="-57" rx="74.19" ry="18"/>
<text text-anchor="middle" x="2281" y="-53.3" font-family="Times,serif" font-size="14.00">SimpleMatrix</text>
</a>
</g>
</g>
<!-- SimpleMatrix&#45;&gt;CStaticMatrix -->
<g id="edge26" class="edge">
<title>SimpleMatrix&#45;&gt;CStaticMatrix</title>
<path fill="none" stroke="black" d="M2240.24,-72.14C2145.46,-104.44 1902.41,-183.92 1693,-224 1610.09,-239.87 1513.96,-249.05 1447.1,-254"/>
<polygon fill="black" stroke="black" points="1446.76,-250.51 1437.04,-254.73 1447.27,-257.49 1446.76,-250.51"/>
</g>
<!-- SimpleMatrix&#45;&gt;CDenseMatrix -->
<g id="edge27" class="edge">
<title>SimpleMatrix&#45;&gt;CDenseMatrix</title>
<path fill="none" stroke="black" d="M2240.05,-72.18C2226.78,-76.28 2211.9,-80.35 2198,-83 2026.25,-115.72 1974.76,-70.29 1806,-116 1723.3,-138.4 1715.09,-178.09 1632,-199 1438.47,-247.69 933.09,-217.81 735,-242 727.83,-242.88 720.37,-244.01 712.97,-245.28"/>
<polygon fill="black" stroke="black" points="712.16,-241.87 702.94,-247.08 713.4,-248.76 712.16,-241.87"/>
</g>
</g>
</svg>
