<?xml version="1.0" encoding="UTF-8" standalone="no"?>
<!DOCTYPE svg PUBLIC "-//W3C//DTD SVG 1.1//EN"
 "http://www.w3.org/Graphics/SVG/1.1/DTD/svg11.dtd">
<!-- Generated by graphviz version 2.43.0 (0)
 -->
<!-- Title: Graphical Class Hierarchy Pages: 1 -->
<svg width="470pt" height="176pt"
 viewBox="0.00 0.00 470.00 176.00" xmlns="http://www.w3.org/2000/svg" xmlns:xlink="http://www.w3.org/1999/xlink">
<g id="graph0" class="graph" transform="scale(1 1) rotate(0) translate(4 172)">
<title>Graphical Class Hierarchy</title>
<polygon fill="white" stroke="transparent" points="-4,4 -4,-172 466,-172 466,4 -4,4"/>
<!-- Node0 -->
<g id="node1" class="node">
<title>Node0</title>
<g id="a_node1"><a xlink:href="classDGtal_1_1Display3D.html" target="_top" xlink:title=" ">
<polygon fill="white" stroke="black" points="0,-137.5 0,-167.5 213,-167.5 213,-137.5 0,-137.5"/>
<text text-anchor="start" x="8" y="-155.5" font-family="FreeSans" font-size="10.00">DGtal::Display3D&lt; DGtal</text>
<text text-anchor="middle" x="106.5" y="-144.5" font-family="FreeSans" font-size="10.00">::SpaceND, DGtal::KhalimskySpaceND &gt;</text>
</a>
</g>
</g>
<!-- Node1 -->
<g id="node2" class="node">
<title>Node1</title>
<g id="a_node2"><a xlink:href="classDGtal_1_1Viewer3D.html" target="_top" xlink:title=" ">
<polygon fill="white" stroke="black" points="249,-132.5 249,-162.5 462,-162.5 462,-132.5 249,-132.5"/>
<text text-anchor="start" x="257" y="-150.5" font-family="FreeSans" font-size="10.00">DGtal::Viewer3D&lt; DGtal</text>
<text text-anchor="middle" x="355.5" y="-139.5" font-family="FreeSans" font-size="10.00">::SpaceND, DGtal::KhalimskySpaceND &gt;</text>
</a>
</g>
</g>
<!-- Node0&#45;&gt;Node1 -->
<g id="edge1" class="edge">
<title>Node0&#45;&gt;Node1</title>
<path fill="none" stroke="midnightblue" d="M223.59,-150.15C232.03,-149.98 240.52,-149.81 248.89,-149.64"/>
<polygon fill="midnightblue" stroke="midnightblue" points="223.25,-146.66 213.33,-150.36 223.39,-153.65 223.25,-146.66"/>
</g>
<!-- Node533 -->
<g id="node3" class="node">
<title>Node533</title>
<g id="a_node3"><a xlink:href="classDGtal_1_1Display3D.html" target="_top" xlink:title=" ">
<polygon fill="white" stroke="black" points="34.5,-49.5 34.5,-79.5 178.5,-79.5 178.5,-49.5 34.5,-49.5"/>
<text text-anchor="start" x="42.5" y="-67.5" font-family="FreeSans" font-size="10.00">DGtal::Display3D&lt; Space,</text>
<text text-anchor="middle" x="106.5" y="-56.5" font-family="FreeSans" font-size="10.00"> KSpace &gt;</text>
</a>
</g>
</g>
<!-- Node534 -->
<g id="node4" class="node">
<title>Node534</title>
<g id="a_node4"><a xlink:href="classDGtal_1_1Viewer3D.html" target="_top" xlink:title=" ">
<polygon fill="white" stroke="black" points="285,-78.5 285,-108.5 426,-108.5 426,-78.5 285,-78.5"/>
<text text-anchor="start" x="293" y="-96.5" font-family="FreeSans" font-size="10.00">DGtal::Viewer3D&lt; Space,</text>
<text text-anchor="middle" x="355.5" y="-85.5" font-family="FreeSans" font-size="10.00"> KSpace &gt;</text>
</a>
</g>
</g>
<!-- Node533&#45;&gt;Node534 -->
<g id="edge2" class="edge">
<title>Node533&#45;&gt;Node534</title>
<path fill="none" stroke="midnightblue" d="M188.55,-74.02C219.63,-77.67 254.81,-81.79 284.74,-85.31"/>
<polygon fill="midnightblue" stroke="midnightblue" points="188.95,-70.54 178.61,-72.85 188.13,-77.49 188.95,-70.54"/>
</g>
<!-- Node535 -->
<g id="node5" class="node">
<title>Node535</title>
<g id="a_node5"><a xlink:href="classDGtal_1_1Display3D.html" target="_top" xlink:title=" ">
<polygon fill="white" stroke="black" points="13.5,-0.5 13.5,-30.5 199.5,-30.5 199.5,-0.5 13.5,-0.5"/>
<text text-anchor="start" x="21.5" y="-18.5" font-family="FreeSans" font-size="10.00">DGtal::Display3D&lt; SpaceND</text>
<text text-anchor="middle" x="106.5" y="-7.5" font-family="FreeSans" font-size="10.00">&lt; 3 &gt;, KhalimskySpaceND&lt; 3 &gt; &gt;</text>
</a>
</g>
</g>
<!-- Node536 -->
<g id="node6" class="node">
<title>Node536</title>
<g id="a_node6"><a xlink:href="classDGtal_1_1Viewer3D.html" target="_top" xlink:title=" ">
<polygon fill="white" stroke="black" points="282,-19.5 282,-49.5 429,-49.5 429,-19.5 282,-19.5"/>
<text text-anchor="start" x="290" y="-37.5" font-family="FreeSans" font-size="10.00">DGtal::Viewer3D&lt; TSpace,</text>
<text text-anchor="middle" x="355.5" y="-26.5" font-family="FreeSans" font-size="10.00"> TKSpace &gt;</text>
</a>
</g>
</g>
<!-- Node535&#45;&gt;Node536 -->
<g id="edge3" class="edge">
<title>Node535&#45;&gt;Node536</title>
<path fill="none" stroke="midnightblue" d="M210.09,-23.39C234.22,-25.25 259.45,-27.19 281.94,-28.92"/>
<polygon fill="midnightblue" stroke="midnightblue" points="210.06,-19.88 199.82,-22.6 209.53,-26.86 210.06,-19.88"/>
</g>
<!-- Node1182 -->
<g id="node7" class="node">
<title>Node1182</title>
<g id="a_node7"><a xlink:title=" ">
<polygon fill="white" stroke="#bfbfbf" points="71.5,-99 71.5,-118 141.5,-118 141.5,-99 71.5,-99"/>
<text text-anchor="middle" x="106.5" y="-106" font-family="FreeSans" font-size="10.00">QGLViewer</text>
</a>
</g>
</g>
<!-- Node1182&#45;&gt;Node1 -->
<g id="edge4" class="edge">
<title>Node1182&#45;&gt;Node1</title>
<path fill="none" stroke="midnightblue" d="M151.69,-115.48C181.59,-120.2 222.25,-126.62 259.31,-132.47"/>
<polygon fill="midnightblue" stroke="midnightblue" points="152.01,-111.98 141.58,-113.88 150.92,-118.9 152.01,-111.98"/>
</g>
<!-- Node1182&#45;&gt;Node534 -->
<g id="edge5" class="edge">
<title>Node1182&#45;&gt;Node534</title>
<path fill="none" stroke="midnightblue" d="M152.03,-105.8C188.98,-103.55 242.19,-100.32 284.79,-97.73"/>
<polygon fill="midnightblue" stroke="midnightblue" points="151.35,-102.33 141.58,-106.43 151.78,-109.32 151.35,-102.33"/>
</g>
<!-- Node1182&#45;&gt;Node536 -->
<g id="edge6" class="edge">
<title>Node1182&#45;&gt;Node536</title>
<path fill="none" stroke="midnightblue" d="M151.95,-103.8C171.11,-100.94 193.54,-96.44 213,-89.5 230.24,-83.35 232.24,-76.86 249,-69.5 266.14,-61.97 285.44,-55.13 302.8,-49.52"/>
<polygon fill="midnightblue" stroke="midnightblue" points="151.39,-100.35 141.97,-105.19 152.36,-107.28 151.39,-100.35"/>
</g>
</g>
</svg>
