<?xml version="1.0" encoding="UTF-8" standalone="no"?>
<!DOCTYPE svg PUBLIC "-//W3C//DTD SVG 1.1//EN"
 "http://www.w3.org/Graphics/SVG/1.1/DTD/svg11.dtd">
<!-- Generated by graphviz version 2.43.0 (0)
 -->
<!-- Title: Graphical Class Hierarchy Pages: 1 -->
<svg width="414pt" height="61pt"
 viewBox="0.00 0.00 414.00 61.00" xmlns="http://www.w3.org/2000/svg" xmlns:xlink="http://www.w3.org/1999/xlink">
<g id="graph0" class="graph" transform="scale(1 1) rotate(0) translate(4 57)">
<title>Graphical Class Hierarchy</title>
<polygon fill="white" stroke="transparent" points="-4,4 -4,-57 410,-57 410,4 -4,4"/>
<!-- Node0 -->
<g id="node1" class="node">
<title>Node0</title>
<g id="a_node1"><a xlink:href="classDGtal_1_1detail_1_1PosIndepScaleDepSCEstimator.html" target="_top" xlink:title=" ">
<polygon fill="white" stroke="black" points="0,-0.5 0,-52.5 179,-52.5 179,-0.5 0,-0.5"/>
<text text-anchor="start" x="8" y="-40.5" font-family="FreeSans" font-size="10.00">DGtal::detail::PosIndepScale</text>
<text text-anchor="start" x="8" y="-29.5" font-family="FreeSans" font-size="10.00">DepSCEstimator&lt; DCAComputer,</text>
<text text-anchor="start" x="8" y="-18.5" font-family="FreeSans" font-size="10.00"> detail::CurvatureFromDCA&lt;</text>
<text text-anchor="middle" x="89.5" y="-7.5" font-family="FreeSans" font-size="10.00"> true &gt; &gt;</text>
</a>
</g>
</g>
<!-- Node1 -->
<g id="node2" class="node">
<title>Node1</title>
<g id="a_node2"><a xlink:href="classDGtal_1_1CurvatureFromDCAEstimator.html" target="_top" xlink:title=" ">
<polygon fill="white" stroke="black" points="215,-11.5 215,-41.5 406,-41.5 406,-11.5 215,-11.5"/>
<text text-anchor="start" x="223" y="-29.5" font-family="FreeSans" font-size="10.00">DGtal::CurvatureFromDCAEstimator</text>
<text text-anchor="middle" x="310.5" y="-18.5" font-family="FreeSans" font-size="10.00">&lt; DCAComputer, isCCW &gt;</text>
</a>
</g>
</g>
<!-- Node0&#45;&gt;Node1 -->
<g id="edge1" class="edge">
<title>Node0&#45;&gt;Node1</title>
<path fill="none" stroke="midnightblue" d="M189.51,-26.5C197.96,-26.5 206.49,-26.5 214.9,-26.5"/>
<polygon fill="midnightblue" stroke="midnightblue" points="189.26,-23 179.26,-26.5 189.26,-30 189.26,-23"/>
</g>
</g>
</svg>
