<?xml version="1.0" encoding="UTF-8" standalone="no"?>
<!DOCTYPE svg PUBLIC "-//W3C//DTD SVG 1.1//EN"
 "http://www.w3.org/Graphics/SVG/1.1/DTD/svg11.dtd">
<!-- Generated by graphviz version 2.43.0 (0)
 -->
<!-- Title: Graphical Class Hierarchy Pages: 1 -->
<svg width="336pt" height="142pt"
 viewBox="0.00 0.00 336.00 142.00" xmlns="http://www.w3.org/2000/svg" xmlns:xlink="http://www.w3.org/1999/xlink">
<g id="graph0" class="graph" transform="scale(1 1) rotate(0) translate(4 138)">
<title>Graphical Class Hierarchy</title>
<polygon fill="white" stroke="transparent" points="-4,4 -4,-138 332,-138 332,4 -4,4"/>
<!-- Node0 -->
<g id="node1" class="node">
<title>Node0</title>
<g id="a_node1"><a xlink:href="structDGtal_1_1DrawableWithBoard2D.html" target="_top" xlink:title=" ">
<polygon fill="white" stroke="black" points="0,-57.5 0,-76.5 161,-76.5 161,-57.5 0,-57.5"/>
<text text-anchor="middle" x="80.5" y="-64.5" font-family="FreeSans" font-size="10.00">DGtal::DrawableWithBoard2D</text>
</a>
</g>
</g>
<!-- Node1 -->
<g id="node2" class="node">
<title>Node1</title>
<g id="a_node2"><a xlink:href="structDGtal_1_1CustomColors.html" target="_top" xlink:title="Custom style class redefining the pen color and the fill color. You may use Board2D::Color::None for ...">
<polygon fill="white" stroke="black" points="203,-114.5 203,-133.5 322,-133.5 322,-114.5 203,-114.5"/>
<text text-anchor="middle" x="262.5" y="-121.5" font-family="FreeSans" font-size="10.00">DGtal::CustomColors</text>
</a>
</g>
</g>
<!-- Node0&#45;&gt;Node1 -->
<g id="edge1" class="edge">
<title>Node0&#45;&gt;Node1</title>
<path fill="none" stroke="midnightblue" d="M119.42,-79.81C141.91,-87.32 171.02,-96.9 197,-105 207.14,-108.16 218.22,-111.48 228.3,-114.44"/>
<polygon fill="midnightblue" stroke="midnightblue" points="120.49,-76.48 109.9,-76.62 118.27,-83.11 120.49,-76.48"/>
</g>
<!-- Node2 -->
<g id="node3" class="node">
<title>Node2</title>
<g id="a_node3"><a xlink:href="structDGtal_1_1CustomFillColor.html" target="_top" xlink:title="Custom style class redefining the fill color. You may use Board2D::Color::None for transparent color.">
<polygon fill="white" stroke="black" points="198.5,-76.5 198.5,-95.5 326.5,-95.5 326.5,-76.5 198.5,-76.5"/>
<text text-anchor="middle" x="262.5" y="-83.5" font-family="FreeSans" font-size="10.00">DGtal::CustomFillColor</text>
</a>
</g>
</g>
<!-- Node0&#45;&gt;Node2 -->
<g id="edge2" class="edge">
<title>Node0&#45;&gt;Node2</title>
<path fill="none" stroke="midnightblue" d="M171.46,-76.5C180.53,-77.45 189.6,-78.41 198.31,-79.33"/>
<polygon fill="midnightblue" stroke="midnightblue" points="171.55,-72.99 161.24,-75.42 170.81,-79.95 171.55,-72.99"/>
</g>
<!-- Node3 -->
<g id="node4" class="node">
<title>Node3</title>
<g id="a_node4"><a xlink:href="structDGtal_1_1CustomPen.html" target="_top" xlink:title="Custom style class redefining the pen attributes. You may use Board2D::Color::None for transparent co...">
<polygon fill="white" stroke="black" points="209.5,-38.5 209.5,-57.5 315.5,-57.5 315.5,-38.5 209.5,-38.5"/>
<text text-anchor="middle" x="262.5" y="-45.5" font-family="FreeSans" font-size="10.00">DGtal::CustomPen</text>
</a>
</g>
</g>
<!-- Node0&#45;&gt;Node3 -->
<g id="edge3" class="edge">
<title>Node0&#45;&gt;Node3</title>
<path fill="none" stroke="midnightblue" d="M171.25,-57.53C184.36,-56.14 197.48,-54.76 209.5,-53.49"/>
<polygon fill="midnightblue" stroke="midnightblue" points="170.81,-54.05 161.24,-58.58 171.55,-61.01 170.81,-54.05"/>
</g>
<!-- Node4 -->
<g id="node5" class="node">
<title>Node4</title>
<g id="a_node5"><a xlink:href="structDGtal_1_1CustomPenColor.html" target="_top" xlink:title="Custom style class redefining the pen color. You may use Board2D::Color::None for transparent color.">
<polygon fill="white" stroke="black" points="197,-0.5 197,-19.5 328,-19.5 328,-0.5 197,-0.5"/>
<text text-anchor="middle" x="262.5" y="-7.5" font-family="FreeSans" font-size="10.00">DGtal::CustomPenColor</text>
</a>
</g>
</g>
<!-- Node0&#45;&gt;Node4 -->
<g id="edge4" class="edge">
<title>Node0&#45;&gt;Node4</title>
<path fill="none" stroke="midnightblue" d="M119.42,-54.19C141.91,-46.68 171.02,-37.1 197,-29 207.14,-25.84 218.22,-22.52 228.3,-19.56"/>
<polygon fill="midnightblue" stroke="midnightblue" points="118.27,-50.89 109.9,-57.38 120.49,-57.52 118.27,-50.89"/>
</g>
</g>
</svg>
