<?xml version="1.0" encoding="UTF-8" standalone="no"?>
<!DOCTYPE svg PUBLIC "-//W3C//DTD SVG 1.1//EN"
 "http://www.w3.org/Graphics/SVG/1.1/DTD/svg11.dtd">
<!-- Generated by graphviz version 2.43.0 (0)
 -->
<!-- Title: Graphical Class Hierarchy Pages: 1 -->
<svg width="352pt" height="122pt"
 viewBox="0.00 0.00 352.00 121.50" xmlns="http://www.w3.org/2000/svg" xmlns:xlink="http://www.w3.org/1999/xlink">
<g id="graph0" class="graph" transform="scale(1 1) rotate(0) translate(4 117.5)">
<title>Graphical Class Hierarchy</title>
<polygon fill="white" stroke="transparent" points="-4,4 -4,-117.5 348,-117.5 348,4 -4,4"/>
<!-- Node1437 -->
<g id="node1" class="node">
<title>Node1437</title>
<g id="a_node1"><a xlink:title=" ">
<polygon fill="white" stroke="#bfbfbf" points="0,-50 0,-69 84,-69 84,-50 0,-50"/>
<text text-anchor="middle" x="42" y="-57" font-family="FreeSans" font-size="10.00">std::true_type</text>
</a>
</g>
</g>
<!-- Node0 -->
<g id="node2" class="node">
<title>Node0</title>
<g id="a_node2"><a xlink:href="structDGtal_1_1IsAPointVector_3_01PointVector_3_01dim_00_01TEuclideanRing_00_01TContainer_01_4_01_4.html" target="_top" xlink:title="Specialization of IsAPointVector for a PointVector.">
<polygon fill="white" stroke="black" points="145.5,-72 145.5,-113 318.5,-113 318.5,-72 145.5,-72"/>
<text text-anchor="start" x="153.5" y="-101" font-family="FreeSans" font-size="10.00">DGtal::IsAPointVector</text>
<text text-anchor="start" x="153.5" y="-90" font-family="FreeSans" font-size="10.00">&lt; PointVector&lt; dim, TEuclidean</text>
<text text-anchor="middle" x="232" y="-79" font-family="FreeSans" font-size="10.00">Ring, TContainer &gt; &gt;</text>
</a>
</g>
</g>
<!-- Node1437&#45;&gt;Node0 -->
<g id="edge1" class="edge">
<title>Node1437&#45;&gt;Node0</title>
<path fill="none" stroke="midnightblue" d="M94.33,-68.51C110.15,-71.29 128.02,-74.42 145.5,-77.49"/>
<polygon fill="midnightblue" stroke="midnightblue" points="94.71,-65.02 84.26,-66.74 93.5,-71.92 94.71,-65.02"/>
</g>
<!-- Node1439 -->
<g id="node3" class="node">
<title>Node1439</title>
<g id="a_node3"><a xlink:href="structDGtal_1_1IsArithmeticConversionValid_3_01T_00_01U_00_01typename_01std_1_1conditional_3_01f3d12afaad57391e67b8a4fff74de6483.html" target="_top" xlink:title="Specialization when arithmetic operation between the two given type is valid.">
<polygon fill="white" stroke="black" points="120,-0.5 120,-52.5 344,-52.5 344,-0.5 120,-0.5"/>
<text text-anchor="start" x="128" y="-40.5" font-family="FreeSans" font-size="10.00">DGtal::IsArithmeticConversion</text>
<text text-anchor="start" x="128" y="-29.5" font-family="FreeSans" font-size="10.00">Valid&lt; T, U, typename std</text>
<text text-anchor="start" x="128" y="-18.5" font-family="FreeSans" font-size="10.00">::conditional&lt; false, ArithmeticConversion</text>
<text text-anchor="middle" x="232" y="-7.5" font-family="FreeSans" font-size="10.00">Type&lt; T, U &gt;, void &gt;::type &gt;</text>
</a>
</g>
</g>
<!-- Node1437&#45;&gt;Node1439 -->
<g id="edge2" class="edge">
<title>Node1437&#45;&gt;Node1439</title>
<path fill="none" stroke="midnightblue" d="M94.22,-50.51C102.34,-49.08 110.99,-47.56 119.86,-46.01"/>
<polygon fill="midnightblue" stroke="midnightblue" points="93.5,-47.08 84.26,-52.26 94.71,-53.98 93.5,-47.08"/>
</g>
</g>
</svg>
