<?xml version="1.0" encoding="UTF-8" standalone="no"?>
<!DOCTYPE svg PUBLIC "-//W3C//DTD SVG 1.1//EN"
 "http://www.w3.org/Graphics/SVG/1.1/DTD/svg11.dtd">
<!-- Generated by graphviz version 2.43.0 (0)
 -->
<!-- Title: Graphical Class Hierarchy Pages: 1 -->
<svg width="357pt" height="913pt"
 viewBox="0.00 0.00 357.00 913.00" xmlns="http://www.w3.org/2000/svg" xmlns:xlink="http://www.w3.org/1999/xlink">
<g id="graph0" class="graph" transform="scale(1 1) rotate(0) translate(4 909)">
<title>Graphical Class Hierarchy</title>
<polygon fill="white" stroke="transparent" points="-4,4 -4,-909 353,-909 353,4 -4,4"/>
<!-- Node862 -->
<g id="node1" class="node">
<title>Node862</title>
<g id="a_node1"><a xlink:title=" ">
<polygon fill="white" stroke="#bfbfbf" points="0,-492.5 0,-511.5 124,-511.5 124,-492.5 0,-492.5"/>
<text text-anchor="middle" x="62" y="-499.5" font-family="FreeSans" font-size="10.00">boost::iterator_facade</text>
</a>
</g>
</g>
<!-- Node0 -->
<g id="node2" class="node">
<title>Node0</title>
<g id="a_node2"><a xlink:href="classDGtal_1_1ArithmeticalDSL_1_1ConstIterator.html" target="_top" xlink:title="Aim: This class aims at representing an iterator that provides a way to scan the points of a DSL....">
<polygon fill="white" stroke="black" points="179.5,-863.5 179.5,-904.5 329.5,-904.5 329.5,-863.5 179.5,-863.5"/>
<text text-anchor="start" x="187.5" y="-892.5" font-family="FreeSans" font-size="10.00">DGtal::ArithmeticalDSL</text>
<text text-anchor="start" x="187.5" y="-881.5" font-family="FreeSans" font-size="10.00">&lt; TCoordinate, TInteger,</text>
<text text-anchor="middle" x="254.5" y="-870.5" font-family="FreeSans" font-size="10.00"> adjacency &gt;::ConstIterator</text>
</a>
</g>
</g>
<!-- Node862&#45;&gt;Node0 -->
<g id="edge1" class="edge">
<title>Node862&#45;&gt;Node0</title>
<path fill="none" stroke="midnightblue" d="M62.35,-521.91C61.56,-581.04 67.44,-757.51 160,-854 165.55,-859.78 172.21,-864.45 179.39,-868.22"/>
<polygon fill="midnightblue" stroke="midnightblue" points="65.86,-521.78 62.58,-511.71 58.86,-521.63 65.86,-521.78"/>
</g>
<!-- Node864 -->
<g id="node3" class="node">
<title>Node864</title>
<g id="a_node3"><a xlink:href="structDGtal_1_1CubicalComplex_1_1ConstIterator.html" target="_top" xlink:title=" ">
<polygon fill="white" stroke="black" points="181,-803.5 181,-844.5 328,-844.5 328,-803.5 181,-803.5"/>
<text text-anchor="start" x="189" y="-832.5" font-family="FreeSans" font-size="10.00">DGtal::CubicalComplex</text>
<text text-anchor="start" x="189" y="-821.5" font-family="FreeSans" font-size="10.00">&lt; TKSpace, TCellContainer</text>
<text text-anchor="middle" x="254.5" y="-810.5" font-family="FreeSans" font-size="10.00"> &gt;::ConstIterator</text>
</a>
</g>
</g>
<!-- Node862&#45;&gt;Node864 -->
<g id="edge2" class="edge">
<title>Node862&#45;&gt;Node864</title>
<path fill="none" stroke="midnightblue" d="M63.69,-521.91C66.58,-574.15 81.64,-716.44 160,-794 165.94,-799.88 173.03,-804.6 180.61,-808.4"/>
<polygon fill="midnightblue" stroke="midnightblue" points="67.17,-521.5 63.22,-511.67 60.18,-521.82 67.17,-521.5"/>
</g>
<!-- Node865 -->
<g id="node4" class="node">
<title>Node865</title>
<g id="a_node4"><a xlink:href="structDGtal_1_1CubicalComplex_1_1Iterator.html" target="_top" xlink:title=" ">
<polygon fill="white" stroke="black" points="181,-743.5 181,-784.5 328,-784.5 328,-743.5 181,-743.5"/>
<text text-anchor="start" x="189" y="-772.5" font-family="FreeSans" font-size="10.00">DGtal::CubicalComplex</text>
<text text-anchor="start" x="189" y="-761.5" font-family="FreeSans" font-size="10.00">&lt; TKSpace, TCellContainer</text>
<text text-anchor="middle" x="254.5" y="-750.5" font-family="FreeSans" font-size="10.00"> &gt;::Iterator</text>
</a>
</g>
</g>
<!-- Node862&#45;&gt;Node865 -->
<g id="edge3" class="edge">
<title>Node862&#45;&gt;Node865</title>
<path fill="none" stroke="midnightblue" d="M65.6,-521.61C72.53,-565.98 95.5,-674.8 160,-734 166.03,-739.53 173.08,-744.05 180.57,-747.73"/>
<polygon fill="midnightblue" stroke="midnightblue" points="69.05,-520.96 64.14,-511.56 62.12,-521.96 69.05,-520.96"/>
</g>
<!-- Node866 -->
<g id="node5" class="node">
<title>Node866</title>
<g id="a_node5"><a xlink:href="classDGtal_1_1HyperRectDomain__Iterator.html" target="_top" xlink:title="Iterator for HyperRectDomain.">
<polygon fill="white" stroke="black" points="184.5,-694 184.5,-724 324.5,-724 324.5,-694 184.5,-694"/>
<text text-anchor="start" x="192.5" y="-712" font-family="FreeSans" font-size="10.00">DGtal::HyperRectDomain</text>
<text text-anchor="middle" x="254.5" y="-701" font-family="FreeSans" font-size="10.00">_Iterator&lt; TPoint &gt;</text>
</a>
</g>
</g>
<!-- Node862&#45;&gt;Node866 -->
<g id="edge4" class="edge">
<title>Node862&#45;&gt;Node866</title>
<path fill="none" stroke="midnightblue" d="M67.69,-521.48C77.79,-559.11 105.24,-641.86 160,-685 167.24,-690.7 175.68,-695.07 184.48,-698.4"/>
<polygon fill="midnightblue" stroke="midnightblue" points="71.07,-520.56 65.2,-511.74 64.29,-522.3 71.07,-520.56"/>
</g>
<!-- Node867 -->
<g id="node6" class="node">
<title>Node867</title>
<g id="a_node6"><a xlink:href="classDGtal_1_1HyperRectDomain__ReverseIterator.html" target="_top" xlink:title="Reverse iterator for HyperRectDomain.">
<polygon fill="white" stroke="black" points="173.5,-645 173.5,-675 335.5,-675 335.5,-645 173.5,-645"/>
<text text-anchor="start" x="181.5" y="-663" font-family="FreeSans" font-size="10.00">DGtal::HyperRectDomain</text>
<text text-anchor="middle" x="254.5" y="-652" font-family="FreeSans" font-size="10.00">_ReverseIterator&lt; TIterator &gt;</text>
</a>
</g>
</g>
<!-- Node862&#45;&gt;Node867 -->
<g id="edge5" class="edge">
<title>Node862&#45;&gt;Node867</title>
<path fill="none" stroke="midnightblue" d="M71.27,-520.65C85.23,-549.88 116.25,-606.22 160,-636 164.99,-639.4 170.42,-642.31 176.08,-644.81"/>
<polygon fill="midnightblue" stroke="midnightblue" points="74.43,-519.14 67.06,-511.53 68.08,-522.07 74.43,-519.14"/>
</g>
<!-- Node868 -->
<g id="node7" class="node">
<title>Node868</title>
<g id="a_node7"><a xlink:href="classDGtal_1_1HyperRectDomain__subIterator.html" target="_top" xlink:title=" ">
<polygon fill="white" stroke="black" points="184.5,-596 184.5,-626 324.5,-626 324.5,-596 184.5,-596"/>
<text text-anchor="start" x="192.5" y="-614" font-family="FreeSans" font-size="10.00">DGtal::HyperRectDomain</text>
<text text-anchor="middle" x="254.5" y="-603" font-family="FreeSans" font-size="10.00">_subIterator&lt; TPoint &gt;</text>
</a>
</g>
</g>
<!-- Node862&#45;&gt;Node868 -->
<g id="edge6" class="edge">
<title>Node862&#45;&gt;Node868</title>
<path fill="none" stroke="midnightblue" d="M77.71,-519C95.35,-538.33 126.73,-569.45 160,-587 167.56,-590.99 175.82,-594.34 184.2,-597.15"/>
<polygon fill="midnightblue" stroke="midnightblue" points="80.3,-516.65 71.03,-511.52 75.08,-521.31 80.3,-516.65"/>
</g>
<!-- Node869 -->
<g id="node8" class="node">
<title>Node869</title>
<g id="a_node8"><a xlink:href="classDGtal_1_1IntegerSequenceIterator.html" target="_top" xlink:title="Aim: It is a simple class that mimics a (non mutable) iterator over integers. You can increment it,...">
<polygon fill="white" stroke="black" points="170.5,-547 170.5,-577 338.5,-577 338.5,-547 170.5,-547"/>
<text text-anchor="start" x="178.5" y="-565" font-family="FreeSans" font-size="10.00">DGtal::IntegerSequenceIterator</text>
<text text-anchor="middle" x="254.5" y="-554" font-family="FreeSans" font-size="10.00">&lt; TInteger &gt;</text>
</a>
</g>
</g>
<!-- Node862&#45;&gt;Node869 -->
<g id="edge7" class="edge">
<title>Node862&#45;&gt;Node869</title>
<path fill="none" stroke="midnightblue" d="M96.17,-515.29C114.77,-522.49 138.49,-531.27 160,-538 170,-541.13 180.68,-544.16 191.13,-546.96"/>
<polygon fill="midnightblue" stroke="midnightblue" points="97.27,-511.96 86.68,-511.58 94.72,-518.48 97.27,-511.96"/>
</g>
<!-- Node870 -->
<g id="node9" class="node">
<title>Node870</title>
<g id="a_node9"><a xlink:href="structDGtal_1_1UnorderedSetByBlock_1_1const__iterator.html" target="_top" xlink:title="Read iterator on set elements. Model of ForwardIterator.">
<polygon fill="white" stroke="black" points="161.5,-476 161.5,-528 347.5,-528 347.5,-476 161.5,-476"/>
<text text-anchor="start" x="169.5" y="-516" font-family="FreeSans" font-size="10.00">DGtal::UnorderedSetByBlock</text>
<text text-anchor="start" x="169.5" y="-505" font-family="FreeSans" font-size="10.00">&lt; Key, TSplitter, Hash,</text>
<text text-anchor="start" x="169.5" y="-494" font-family="FreeSans" font-size="10.00"> KeyEqual, UnorderedMapAllocator</text>
<text text-anchor="middle" x="254.5" y="-483" font-family="FreeSans" font-size="10.00"> &gt;::const_iterator</text>
</a>
</g>
</g>
<!-- Node862&#45;&gt;Node870 -->
<g id="edge8" class="edge">
<title>Node862&#45;&gt;Node870</title>
<path fill="none" stroke="midnightblue" d="M134.24,-502C143.05,-502 152.15,-502 161.21,-502"/>
<polygon fill="midnightblue" stroke="midnightblue" points="134.06,-498.5 124.06,-502 134.06,-505.5 134.06,-498.5"/>
</g>
<!-- Node871 -->
<g id="node10" class="node">
<title>Node871</title>
<g id="a_node10"><a xlink:href="structDGtal_1_1UnorderedSetByBlock_1_1iterator.html" target="_top" xlink:title="Read&#45;write iterator on set elements. Model of ForwardIterator.">
<polygon fill="white" stroke="black" points="161.5,-405 161.5,-457 347.5,-457 347.5,-405 161.5,-405"/>
<text text-anchor="start" x="169.5" y="-445" font-family="FreeSans" font-size="10.00">DGtal::UnorderedSetByBlock</text>
<text text-anchor="start" x="169.5" y="-434" font-family="FreeSans" font-size="10.00">&lt; Key, TSplitter, Hash,</text>
<text text-anchor="start" x="169.5" y="-423" font-family="FreeSans" font-size="10.00"> KeyEqual, UnorderedMapAllocator</text>
<text text-anchor="middle" x="254.5" y="-412" font-family="FreeSans" font-size="10.00"> &gt;::iterator</text>
</a>
</g>
</g>
<!-- Node862&#45;&gt;Node871 -->
<g id="edge9" class="edge">
<title>Node862&#45;&gt;Node871</title>
<path fill="none" stroke="midnightblue" d="M98.38,-488.81C122.28,-479.91 154.63,-467.85 183.6,-457.05"/>
<polygon fill="midnightblue" stroke="midnightblue" points="96.84,-485.65 88.69,-492.42 99.28,-492.21 96.84,-485.65"/>
</g>
<!-- Node872 -->
<g id="node11" class="node">
<title>Node872</title>
<g id="a_node11"><a xlink:href="classboost_1_1graph__traits_3_01DGtal_1_1DigitalSurface_3_01TDigitalSurfaceContainer_01_4_01_4_1_1adjacency__iterator.html" target="_top" xlink:title=" ">
<polygon fill="white" stroke="black" points="179.5,-334 179.5,-386 329.5,-386 329.5,-334 179.5,-334"/>
<text text-anchor="start" x="187.5" y="-374" font-family="FreeSans" font-size="10.00">boost::graph_traits</text>
<text text-anchor="start" x="187.5" y="-363" font-family="FreeSans" font-size="10.00">&lt; DGtal::DigitalSurface</text>
<text text-anchor="start" x="187.5" y="-352" font-family="FreeSans" font-size="10.00">&lt; TDigitalSurfaceContainer</text>
<text text-anchor="middle" x="254.5" y="-341" font-family="FreeSans" font-size="10.00"> &gt; &gt;::adjacency_iterator</text>
</a>
</g>
</g>
<!-- Node862&#45;&gt;Node872 -->
<g id="edge10" class="edge">
<title>Node862&#45;&gt;Node872</title>
<path fill="none" stroke="midnightblue" d="M75.21,-484.19C91.93,-461.01 123.98,-420.57 160,-396 166.04,-391.88 172.61,-388.15 179.38,-384.78"/>
<polygon fill="midnightblue" stroke="midnightblue" points="72.3,-482.24 69.4,-492.43 78.02,-486.28 72.3,-482.24"/>
</g>
<!-- Node873 -->
<g id="node12" class="node">
<title>Node873</title>
<g id="a_node12"><a xlink:href="classboost_1_1graph__traits_3_01DGtal_1_1DigitalSurface_3_01TDigitalSurfaceContainer_01_4_01_4_1_1edge__iterator.html" target="_top" xlink:title=" ">
<polygon fill="white" stroke="black" points="179.5,-263 179.5,-315 329.5,-315 329.5,-263 179.5,-263"/>
<text text-anchor="start" x="187.5" y="-303" font-family="FreeSans" font-size="10.00">boost::graph_traits</text>
<text text-anchor="start" x="187.5" y="-292" font-family="FreeSans" font-size="10.00">&lt; DGtal::DigitalSurface</text>
<text text-anchor="start" x="187.5" y="-281" font-family="FreeSans" font-size="10.00">&lt; TDigitalSurfaceContainer</text>
<text text-anchor="middle" x="254.5" y="-270" font-family="FreeSans" font-size="10.00"> &gt; &gt;::edge_iterator</text>
</a>
</g>
</g>
<!-- Node862&#45;&gt;Node873 -->
<g id="edge11" class="edge">
<title>Node862&#45;&gt;Node873</title>
<path fill="none" stroke="midnightblue" d="M68.64,-482.72C80.08,-446.81 109.32,-369.32 160,-325 165.76,-319.96 172.3,-315.59 179.19,-311.81"/>
<polygon fill="midnightblue" stroke="midnightblue" points="65.24,-481.86 65.66,-492.44 71.93,-483.91 65.24,-481.86"/>
</g>
<!-- Node874 -->
<g id="node13" class="node">
<title>Node874</title>
<g id="a_node13"><a xlink:href="classboost_1_1graph__traits_3_01DGtal_1_1DigitalSurface_3_01TDigitalSurfaceContainer_01_4_01_4_1_1out__edge__iterator.html" target="_top" xlink:title=" ">
<polygon fill="white" stroke="black" points="179.5,-192 179.5,-244 329.5,-244 329.5,-192 179.5,-192"/>
<text text-anchor="start" x="187.5" y="-232" font-family="FreeSans" font-size="10.00">boost::graph_traits</text>
<text text-anchor="start" x="187.5" y="-221" font-family="FreeSans" font-size="10.00">&lt; DGtal::DigitalSurface</text>
<text text-anchor="start" x="187.5" y="-210" font-family="FreeSans" font-size="10.00">&lt; TDigitalSurfaceContainer</text>
<text text-anchor="middle" x="254.5" y="-199" font-family="FreeSans" font-size="10.00"> &gt; &gt;::out_edge_iterator</text>
</a>
</g>
</g>
<!-- Node862&#45;&gt;Node874 -->
<g id="edge12" class="edge">
<title>Node862&#45;&gt;Node874</title>
<path fill="none" stroke="midnightblue" d="M65.3,-482.27C71.7,-436.07 93.83,-319.82 160,-254 165.67,-248.36 172.33,-243.58 179.42,-239.54"/>
<polygon fill="midnightblue" stroke="midnightblue" points="61.8,-482.07 63.99,-492.43 68.74,-482.96 61.8,-482.07"/>
</g>
<!-- Node875 -->
<g id="node14" class="node">
<title>Node875</title>
<g id="a_node14"><a xlink:href="classboost_1_1graph__traits_3_01DGtal_1_1Object_3_01TDigitalTopology_00_01TDigitalSet_01_4_01_4_1_1adjacency__iterator.html" target="_top" xlink:title=" ">
<polygon fill="white" stroke="black" points="160,-121 160,-173 349,-173 349,-121 160,-121"/>
<text text-anchor="start" x="168" y="-161" font-family="FreeSans" font-size="10.00">boost::graph_traits</text>
<text text-anchor="start" x="168" y="-150" font-family="FreeSans" font-size="10.00">&lt; DGtal::Object&lt; TDigitalTopology,</text>
<text text-anchor="start" x="168" y="-139" font-family="FreeSans" font-size="10.00"> TDigitalSet &gt; &gt;::adjacency</text>
<text text-anchor="middle" x="254.5" y="-128" font-family="FreeSans" font-size="10.00">_iterator</text>
</a>
</g>
</g>
<!-- Node862&#45;&gt;Node875 -->
<g id="edge13" class="edge">
<title>Node862&#45;&gt;Node875</title>
<path fill="none" stroke="midnightblue" d="M63.29,-482.38C65.13,-427.63 77.74,-271.44 160,-183 163.44,-179.31 167.29,-175.99 171.43,-173.01"/>
<polygon fill="midnightblue" stroke="midnightblue" points="59.78,-482.38 63.03,-492.46 66.78,-482.55 59.78,-482.38"/>
</g>
<!-- Node876 -->
<g id="node15" class="node">
<title>Node876</title>
<g id="a_node15"><a xlink:href="classboost_1_1graph__traits_3_01DGtal_1_1Object_3_01TDigitalTopology_00_01TDigitalSet_01_4_01_4_1_1edge__iterator.html" target="_top" xlink:title=" ">
<polygon fill="white" stroke="black" points="160,-60.5 160,-101.5 349,-101.5 349,-60.5 160,-60.5"/>
<text text-anchor="start" x="168" y="-89.5" font-family="FreeSans" font-size="10.00">boost::graph_traits</text>
<text text-anchor="start" x="168" y="-78.5" font-family="FreeSans" font-size="10.00">&lt; DGtal::Object&lt; TDigitalTopology,</text>
<text text-anchor="middle" x="254.5" y="-67.5" font-family="FreeSans" font-size="10.00"> TDigitalSet &gt; &gt;::edge_iterator</text>
</a>
</g>
</g>
<!-- Node862&#45;&gt;Node876 -->
<g id="edge14" class="edge">
<title>Node862&#45;&gt;Node876</title>
<path fill="none" stroke="midnightblue" d="M65.44,-481.87C74.5,-410.03 108.46,-167.64 160,-112 163.6,-108.11 167.7,-104.71 172.13,-101.73"/>
<polygon fill="midnightblue" stroke="midnightblue" points="61.91,-481.86 64.15,-492.22 68.86,-482.72 61.91,-481.86"/>
</g>
<!-- Node877 -->
<g id="node16" class="node">
<title>Node877</title>
<g id="a_node16"><a xlink:href="classboost_1_1graph__traits_3_01DGtal_1_1Object_3_01TDigitalTopology_00_01TDigitalSet_01_4_01_4_1_1out__edge__iterator.html" target="_top" xlink:title=" ">
<polygon fill="white" stroke="black" points="160,-0.5 160,-41.5 349,-41.5 349,-0.5 160,-0.5"/>
<text text-anchor="start" x="168" y="-29.5" font-family="FreeSans" font-size="10.00">boost::graph_traits</text>
<text text-anchor="start" x="168" y="-18.5" font-family="FreeSans" font-size="10.00">&lt; DGtal::Object&lt; TDigitalTopology,</text>
<text text-anchor="middle" x="254.5" y="-7.5" font-family="FreeSans" font-size="10.00"> TDigitalSet &gt; &gt;::out_edge_iterator</text>
</a>
</g>
</g>
<!-- Node862&#45;&gt;Node877 -->
<g id="edge15" class="edge">
<title>Node862&#45;&gt;Node877</title>
<path fill="none" stroke="midnightblue" d="M64.64,-482.32C71.56,-404.13 100.68,-116.48 160,-51 163.2,-47.46 166.83,-44.34 170.74,-41.58"/>
<polygon fill="midnightblue" stroke="midnightblue" points="61.16,-482.02 63.79,-492.29 68.13,-482.62 61.16,-482.02"/>
</g>
</g>
</svg>
