<?xml version="1.0" encoding="UTF-8" standalone="no"?>
<!DOCTYPE svg PUBLIC "-//W3C//DTD SVG 1.1//EN"
 "http://www.w3.org/Graphics/SVG/1.1/DTD/svg11.dtd">
<!-- Generated by graphviz version 2.43.0 (0)
 -->
<!-- Title: Graphical Class Hierarchy Pages: 1 -->
<svg width="405pt" height="110pt"
 viewBox="0.00 0.00 405.00 110.00" xmlns="http://www.w3.org/2000/svg" xmlns:xlink="http://www.w3.org/1999/xlink">
<g id="graph0" class="graph" transform="scale(1 1) rotate(0) translate(4 106)">
<title>Graphical Class Hierarchy</title>
<polygon fill="white" stroke="transparent" points="-4,4 -4,-106 401,-106 401,4 -4,4"/>
<!-- Node0 -->
<g id="node1" class="node">
<title>Node0</title>
<g id="a_node1"><a xlink:href="structDGtal_1_1ConvexHullCommonKernel.html" target="_top" xlink:title=" ">
<polygon fill="white" stroke="black" points="0,-30.5 0,-71.5 182,-71.5 182,-30.5 0,-30.5"/>
<text text-anchor="start" x="8" y="-59.5" font-family="FreeSans" font-size="10.00">DGtal::ConvexHullCommonKernel</text>
<text text-anchor="start" x="8" y="-48.5" font-family="FreeSans" font-size="10.00">&lt; dim, DGtal::int64_t, DGtal</text>
<text text-anchor="middle" x="91" y="-37.5" font-family="FreeSans" font-size="10.00">::int64_t &gt;</text>
</a>
</g>
</g>
<!-- Node1 -->
<g id="node2" class="node">
<title>Node1</title>
<g id="a_node2"><a xlink:href="structDGtal_1_1ConvexHullIntegralKernel.html" target="_top" xlink:title="Aim: a geometric kernel to compute the convex hull of digital points with integer&#45;only arithmetic.">
<polygon fill="white" stroke="black" points="218,-60.5 218,-101.5 397,-101.5 397,-60.5 218,-60.5"/>
<text text-anchor="start" x="226" y="-89.5" font-family="FreeSans" font-size="10.00">DGtal::ConvexHullIntegral</text>
<text text-anchor="start" x="226" y="-78.5" font-family="FreeSans" font-size="10.00">Kernel&lt; dim, TCoordinateInteger,</text>
<text text-anchor="middle" x="307.5" y="-67.5" font-family="FreeSans" font-size="10.00"> TInternalInteger &gt;</text>
</a>
</g>
</g>
<!-- Node0&#45;&gt;Node1 -->
<g id="edge1" class="edge">
<title>Node0&#45;&gt;Node1</title>
<path fill="none" stroke="midnightblue" d="M192.05,-64.99C200.62,-66.19 209.25,-67.4 217.73,-68.58"/>
<polygon fill="midnightblue" stroke="midnightblue" points="192.42,-61.51 182.03,-63.59 191.45,-68.44 192.42,-61.51"/>
</g>
<!-- Node2 -->
<g id="node3" class="node">
<title>Node2</title>
<g id="a_node3"><a xlink:href="structDGtal_1_1ConvexHullRationalKernel.html" target="_top" xlink:title="Aim: a geometric kernel to compute the convex hull of floating points with integer&#45;only arithmetic....">
<polygon fill="white" stroke="black" points="218,-0.5 218,-41.5 397,-41.5 397,-0.5 218,-0.5"/>
<text text-anchor="start" x="226" y="-29.5" font-family="FreeSans" font-size="10.00">DGtal::ConvexHullRational</text>
<text text-anchor="start" x="226" y="-18.5" font-family="FreeSans" font-size="10.00">Kernel&lt; dim, TCoordinateInteger,</text>
<text text-anchor="middle" x="307.5" y="-7.5" font-family="FreeSans" font-size="10.00"> TInternalInteger &gt;</text>
</a>
</g>
</g>
<!-- Node0&#45;&gt;Node2 -->
<g id="edge2" class="edge">
<title>Node0&#45;&gt;Node2</title>
<path fill="none" stroke="midnightblue" d="M192.05,-37.01C200.62,-35.81 209.25,-34.6 217.73,-33.42"/>
<polygon fill="midnightblue" stroke="midnightblue" points="191.45,-33.56 182.03,-38.41 192.42,-40.49 191.45,-33.56"/>
</g>
</g>
</svg>
