<?xml version="1.0" encoding="UTF-8" standalone="no"?>
<!DOCTYPE svg PUBLIC "-//W3C//DTD SVG 1.1//EN"
 "http://www.w3.org/Graphics/SVG/1.1/DTD/svg11.dtd">
<!-- Generated by graphviz version 2.43.0 (0)
 -->
<!-- Title: Graphical Class Hierarchy Pages: 1 -->
<svg width="409pt" height="61pt"
 viewBox="0.00 0.00 409.00 61.00" xmlns="http://www.w3.org/2000/svg" xmlns:xlink="http://www.w3.org/1999/xlink">
<g id="graph0" class="graph" transform="scale(1 1) rotate(0) translate(4 57)">
<title>Graphical Class Hierarchy</title>
<polygon fill="white" stroke="transparent" points="-4,4 -4,-57 405,-57 405,4 -4,4"/>
<!-- Node0 -->
<g id="node1" class="node">
<title>Node0</title>
<g id="a_node1"><a xlink:href="classDGtal_1_1detail_1_1CurvatureFromDSSBaseEstimator.html" target="_top" xlink:title=" ">
<polygon fill="white" stroke="black" points="0,-0.5 0,-52.5 175,-52.5 175,-0.5 0,-0.5"/>
<text text-anchor="start" x="8" y="-40.5" font-family="FreeSans" font-size="10.00">DGtal::detail::Curvature</text>
<text text-anchor="start" x="8" y="-29.5" font-family="FreeSans" font-size="10.00">FromDSSBaseEstimator&lt;</text>
<text text-anchor="start" x="8" y="-18.5" font-family="FreeSans" font-size="10.00"> DSSComputer, detail::Curvature</text>
<text text-anchor="middle" x="87.5" y="-7.5" font-family="FreeSans" font-size="10.00">FromDSSLengthAndWidth &gt;</text>
</a>
</g>
</g>
<!-- Node1 -->
<g id="node2" class="node">
<title>Node1</title>
<g id="a_node2"><a xlink:href="classDGtal_1_1CurvatureFromDSSEstimator.html" target="_top" xlink:title=" ">
<polygon fill="white" stroke="black" points="211,-11.5 211,-41.5 401,-41.5 401,-11.5 211,-11.5"/>
<text text-anchor="start" x="219" y="-29.5" font-family="FreeSans" font-size="10.00">DGtal::CurvatureFromDSSEstimator</text>
<text text-anchor="middle" x="306" y="-18.5" font-family="FreeSans" font-size="10.00">&lt; DSSComputer &gt;</text>
</a>
</g>
</g>
<!-- Node0&#45;&gt;Node1 -->
<g id="edge1" class="edge">
<title>Node0&#45;&gt;Node1</title>
<path fill="none" stroke="midnightblue" d="M185.48,-26.5C193.87,-26.5 202.35,-26.5 210.72,-26.5"/>
<polygon fill="midnightblue" stroke="midnightblue" points="185.31,-23 175.31,-26.5 185.31,-30 185.31,-23"/>
</g>
</g>
</svg>
