<?xml version="1.0" encoding="UTF-8" standalone="no"?>
<!DOCTYPE svg PUBLIC "-//W3C//DTD SVG 1.1//EN"
 "http://www.w3.org/Graphics/SVG/1.1/DTD/svg11.dtd">
<!-- Generated by graphviz version 2.43.0 (0)
 -->
<!-- Title: Graphical Class Hierarchy Pages: 1 -->
<svg width="312pt" height="142pt"
 viewBox="0.00 0.00 312.00 142.00" xmlns="http://www.w3.org/2000/svg" xmlns:xlink="http://www.w3.org/1999/xlink">
<g id="graph0" class="graph" transform="scale(1 1) rotate(0) translate(4 138)">
<title>Graphical Class Hierarchy</title>
<polygon fill="white" stroke="transparent" points="-4,4 -4,-138 308,-138 308,4 -4,4"/>
<!-- Node9 -->
<g id="node1" class="node">
<title>Node9</title>
<g id="a_node1"><a xlink:title=" ">
<polygon fill="white" stroke="#bfbfbf" points="1,-38.5 1,-57.5 121,-57.5 121,-38.5 1,-38.5"/>
<text text-anchor="middle" x="61" y="-45.5" font-family="FreeSans" font-size="10.00">adjacency_graph_tag</text>
</a>
</g>
</g>
<!-- Node0 -->
<g id="node2" class="node">
<title>Node0</title>
<g id="a_node2"><a xlink:href="structboost_1_1DigitalSurface__graph__traversal__category.html" target="_top" xlink:title=" ">
<polygon fill="white" stroke="black" points="158,-76 158,-106 304,-106 304,-76 158,-76"/>
<text text-anchor="start" x="166" y="-94" font-family="FreeSans" font-size="10.00">boost::DigitalSurface</text>
<text text-anchor="middle" x="231" y="-83" font-family="FreeSans" font-size="10.00">_graph_traversal_category</text>
</a>
</g>
</g>
<!-- Node9&#45;&gt;Node0 -->
<g id="edge1" class="edge">
<title>Node9&#45;&gt;Node0</title>
<path fill="none" stroke="midnightblue" d="M109.07,-60.05C128.4,-64.99 150.98,-70.78 171.37,-75.99"/>
<polygon fill="midnightblue" stroke="midnightblue" points="109.84,-56.63 99.28,-57.54 108.1,-63.41 109.84,-56.63"/>
</g>
<!-- Node11 -->
<g id="node3" class="node">
<title>Node11</title>
<g id="a_node3"><a xlink:href="structboost_1_1Object__graph__traversal__category.html" target="_top" xlink:title=" ">
<polygon fill="white" stroke="black" points="174,-27 174,-57 288,-57 288,-27 174,-27"/>
<text text-anchor="start" x="182" y="-45" font-family="FreeSans" font-size="10.00">boost::Object_graph</text>
<text text-anchor="middle" x="231" y="-34" font-family="FreeSans" font-size="10.00">_traversal_category</text>
</a>
</g>
</g>
<!-- Node9&#45;&gt;Node11 -->
<g id="edge2" class="edge">
<title>Node9&#45;&gt;Node11</title>
<path fill="none" stroke="midnightblue" d="M131.4,-45.52C145.53,-45.02 160.23,-44.49 173.84,-44.01"/>
<polygon fill="midnightblue" stroke="midnightblue" points="131.1,-42.03 121.23,-45.88 131.35,-49.03 131.1,-42.03"/>
</g>
<!-- Node604 -->
<g id="node4" class="node">
<title>Node604</title>
<g id="a_node4"><a xlink:title=" ">
<polygon fill="white" stroke="#bfbfbf" points="3.5,-0.5 3.5,-19.5 118.5,-19.5 118.5,-0.5 3.5,-0.5"/>
<text text-anchor="middle" x="61" y="-7.5" font-family="FreeSans" font-size="10.00">edge_list_graph_tag</text>
</a>
</g>
</g>
<!-- Node604&#45;&gt;Node0 -->
<g id="edge3" class="edge">
<title>Node604&#45;&gt;Node0</title>
<path fill="none" stroke="midnightblue" d="M111.36,-23.34C115.07,-25.03 118.66,-26.91 122,-29 141.72,-41.35 138.38,-54.5 158,-67 163.33,-70.4 169.2,-73.36 175.21,-75.94"/>
<polygon fill="midnightblue" stroke="midnightblue" points="112.57,-20.06 101.99,-19.54 109.94,-26.54 112.57,-20.06"/>
</g>
<!-- Node604&#45;&gt;Node11 -->
<g id="edge4" class="edge">
<title>Node604&#45;&gt;Node11</title>
<path fill="none" stroke="midnightblue" d="M122.21,-21.47C139.01,-24.67 157.2,-28.13 173.77,-31.29"/>
<polygon fill="midnightblue" stroke="midnightblue" points="122.43,-17.95 111.95,-19.51 121.12,-24.82 122.43,-17.95"/>
</g>
<!-- Node792 -->
<g id="node5" class="node">
<title>Node792</title>
<g id="a_node5"><a xlink:title=" ">
<polygon fill="white" stroke="#bfbfbf" points="2.5,-114.5 2.5,-133.5 119.5,-133.5 119.5,-114.5 2.5,-114.5"/>
<text text-anchor="middle" x="61" y="-121.5" font-family="FreeSans" font-size="10.00">incidence_graph_tag</text>
</a>
</g>
</g>
<!-- Node792&#45;&gt;Node0 -->
<g id="edge5" class="edge">
<title>Node792&#45;&gt;Node0</title>
<path fill="none" stroke="midnightblue" d="M120.49,-112.51C132.52,-110.15 145.32,-107.63 157.76,-105.19"/>
<polygon fill="midnightblue" stroke="midnightblue" points="119.73,-109.09 110.59,-114.46 121.08,-115.96 119.73,-109.09"/>
</g>
<!-- Node792&#45;&gt;Node11 -->
<g id="edge6" class="edge">
<title>Node792&#45;&gt;Node11</title>
<path fill="none" stroke="midnightblue" d="M111.36,-110.66C115.07,-108.97 118.66,-107.09 122,-105 141.72,-92.65 138.46,-79.62 158,-67 163.89,-63.2 170.43,-59.9 177.09,-57.05"/>
<polygon fill="midnightblue" stroke="midnightblue" points="109.94,-107.46 101.99,-114.46 112.57,-113.94 109.94,-107.46"/>
</g>
<!-- Node1490 -->
<g id="node6" class="node">
<title>Node1490</title>
<g id="a_node6"><a xlink:title=" ">
<polygon fill="white" stroke="#bfbfbf" points="0,-76.5 0,-95.5 122,-95.5 122,-76.5 0,-76.5"/>
<text text-anchor="middle" x="61" y="-83.5" font-family="FreeSans" font-size="10.00">vertex_list_graph_tag</text>
</a>
</g>
</g>
<!-- Node1490&#45;&gt;Node0 -->
<g id="edge7" class="edge">
<title>Node1490&#45;&gt;Node0</title>
<path fill="none" stroke="midnightblue" d="M132.36,-88.09C140.81,-88.35 149.44,-88.6 157.91,-88.85"/>
<polygon fill="midnightblue" stroke="midnightblue" points="132.28,-84.59 122.18,-87.79 132.07,-91.59 132.28,-84.59"/>
</g>
<!-- Node1490&#45;&gt;Node11 -->
<g id="edge8" class="edge">
<title>Node1490&#45;&gt;Node11</title>
<path fill="none" stroke="midnightblue" d="M108.37,-73.86C128.62,-68.55 152.54,-62.29 173.79,-56.72"/>
<polygon fill="midnightblue" stroke="midnightblue" points="107.24,-70.53 98.45,-76.45 109.01,-77.3 107.24,-70.53"/>
</g>
</g>
</svg>
