<?xml version="1.0" encoding="UTF-8" standalone="no"?>
<!DOCTYPE svg PUBLIC "-//W3C//DTD SVG 1.1//EN"
 "http://www.w3.org/Graphics/SVG/1.1/DTD/svg11.dtd">
<!-- Generated by graphviz version 2.43.0 (0)
 -->
<!-- Title: DGtal::concepts::CPreCellularGridSpaceND&lt; T &gt; Pages: 1 -->
<svg width="372pt" height="162pt"
 viewBox="0.00 0.00 372.00 162.00" xmlns="http://www.w3.org/2000/svg" xmlns:xlink="http://www.w3.org/1999/xlink">
<g id="graph0" class="graph" transform="scale(1 1) rotate(0) translate(4 158)">
<title>DGtal::concepts::CPreCellularGridSpaceND&lt; T &gt;</title>
<polygon fill="white" stroke="transparent" points="-4,4 -4,-158 368,-158 368,4 -4,4"/>
<!-- Node1 -->
<g id="node1" class="node">
<title>Node1</title>
<g id="a_node1"><a xlink:title="Aim: This concept describes an unbounded cellular grid space in nD. In these spaces obtained by carte...">
<polygon fill="#bfbfbf" stroke="black" points="104.5,-67.5 104.5,-97.5 264.5,-97.5 264.5,-67.5 104.5,-67.5"/>
<text text-anchor="start" x="112.5" y="-85.5" font-family="FreeSans" font-size="10.00">DGtal::concepts::CPreCellular</text>
<text text-anchor="middle" x="184.5" y="-74.5" font-family="FreeSans" font-size="10.00">GridSpaceND&lt; T &gt;</text>
</a>
</g>
</g>
<!-- Node4 -->
<g id="node4" class="node">
<title>Node4</title>
<g id="a_node4"><a xlink:href="structDGtal_1_1concepts_1_1CCellularGridSpaceND.html" target="_top" xlink:title="Aim: This concept describes a cellular grid space in nD. In these spaces obtained by cartesian produc...">
<polygon fill="white" stroke="black" points="112.5,-0.5 112.5,-30.5 256.5,-30.5 256.5,-0.5 112.5,-0.5"/>
<text text-anchor="start" x="120.5" y="-18.5" font-family="FreeSans" font-size="10.00">DGtal::concepts::CCellular</text>
<text text-anchor="middle" x="184.5" y="-7.5" font-family="FreeSans" font-size="10.00">GridSpaceND&lt; T &gt;</text>
</a>
</g>
</g>
<!-- Node1&#45;&gt;Node4 -->
<g id="edge3" class="edge">
<title>Node1&#45;&gt;Node4</title>
<path fill="none" stroke="midnightblue" d="M184.5,-57.11C184.5,-48.15 184.5,-38.32 184.5,-30.58"/>
<polygon fill="midnightblue" stroke="midnightblue" points="181,-57.4 184.5,-67.4 188,-57.4 181,-57.4"/>
</g>
<!-- Node2 -->
<g id="node2" class="node">
<title>Node2</title>
<g id="a_node2"><a xlink:href="structboost_1_1DefaultConstructible.html" target="_top" xlink:title="Go to http://www.sgi.com/tech/stl/DefaultConstructible.html.">
<polygon fill="white" stroke="black" points="0,-134.5 0,-153.5 179,-153.5 179,-134.5 0,-134.5"/>
<text text-anchor="middle" x="89.5" y="-141.5" font-family="FreeSans" font-size="10.00">boost::DefaultConstructible&lt; T &gt;</text>
</a>
</g>
</g>
<!-- Node2&#45;&gt;Node1 -->
<g id="edge1" class="edge">
<title>Node2&#45;&gt;Node1</title>
<path fill="none" stroke="midnightblue" d="M111.84,-129.01C126.99,-119.52 146.95,-107.02 162.11,-97.52"/>
<polygon fill="midnightblue" stroke="midnightblue" points="109.73,-126.2 103.11,-134.48 113.44,-132.13 109.73,-126.2"/>
</g>
<!-- Node3 -->
<g id="node3" class="node">
<title>Node3</title>
<g id="a_node3"><a xlink:href="structboost_1_1CopyConstructible.html" target="_top" xlink:title="Go to http://www.sgi.com/tech/stl/CopyConstructible.html.">
<polygon fill="white" stroke="black" points="197,-134.5 197,-153.5 364,-153.5 364,-134.5 197,-134.5"/>
<text text-anchor="middle" x="280.5" y="-141.5" font-family="FreeSans" font-size="10.00">boost::CopyConstructible&lt; T &gt;</text>
</a>
</g>
</g>
<!-- Node3&#45;&gt;Node1 -->
<g id="edge2" class="edge">
<title>Node3&#45;&gt;Node1</title>
<path fill="none" stroke="midnightblue" d="M257.93,-129.01C242.61,-119.52 222.45,-107.02 207.13,-97.52"/>
<polygon fill="midnightblue" stroke="midnightblue" points="256.4,-132.18 266.75,-134.48 260.09,-126.23 256.4,-132.18"/>
</g>
</g>
</svg>
