<?xml version="1.0" encoding="UTF-8" standalone="no"?>
<!DOCTYPE svg PUBLIC "-//W3C//DTD SVG 1.1//EN"
 "http://www.w3.org/Graphics/SVG/1.1/DTD/svg11.dtd">
<!-- Generated by graphviz version 2.43.0 (0)
 -->
<!-- Title: DGtal::concepts::CPositiveIrreducibleFraction&lt; T &gt; Pages: 1 -->
<svg width="398pt" height="192pt"
 viewBox="0.00 0.00 398.00 191.50" xmlns="http://www.w3.org/2000/svg" xmlns:xlink="http://www.w3.org/1999/xlink">
<g id="graph0" class="graph" transform="scale(1 1) rotate(0) translate(4 187.5)">
<title>DGtal::concepts::CPositiveIrreducibleFraction&lt; T &gt;</title>
<polygon fill="white" stroke="transparent" points="-4,4 -4,-187.5 394,-187.5 394,4 -4,4"/>
<!-- Node1 -->
<g id="node1" class="node">
<title>Node1</title>
<g id="a_node1"><a xlink:title="Aim: Defines positive irreducible fractions, i.e. fraction p/q, p and q non&#45;negative integers,...">
<polygon fill="#bfbfbf" stroke="black" points="244,-82.5 244,-112.5 390,-112.5 390,-82.5 244,-82.5"/>
<text text-anchor="start" x="252" y="-100.5" font-family="FreeSans" font-size="10.00">DGtal::concepts::CPositive</text>
<text text-anchor="middle" x="317" y="-89.5" font-family="FreeSans" font-size="10.00">IrreducibleFraction&lt; T &gt;</text>
</a>
</g>
</g>
<!-- Node2 -->
<g id="node2" class="node">
<title>Node2</title>
<g id="a_node2"><a xlink:href="structboost_1_1CopyConstructible.html" target="_top" xlink:title="Go to http://www.sgi.com/tech/stl/CopyConstructible.html.">
<polygon fill="white" stroke="black" points="20.5,-164 20.5,-183 187.5,-183 187.5,-164 20.5,-164"/>
<text text-anchor="middle" x="104" y="-171" font-family="FreeSans" font-size="10.00">boost::CopyConstructible&lt; T &gt;</text>
</a>
</g>
</g>
<!-- Node2&#45;&gt;Node1 -->
<g id="edge1" class="edge">
<title>Node2&#45;&gt;Node1</title>
<path fill="none" stroke="midnightblue" d="M183.07,-161.7C191.58,-159.65 200.04,-157.26 208,-154.5 238.65,-143.87 271.24,-125.58 292.5,-112.59"/>
<polygon fill="midnightblue" stroke="midnightblue" points="182.06,-158.34 173.08,-163.97 183.6,-165.17 182.06,-158.34"/>
</g>
<!-- Node3 -->
<g id="node3" class="node">
<title>Node3</title>
<g id="a_node3"><a xlink:href="structboost_1_1DefaultConstructible.html" target="_top" xlink:title="Go to http://www.sgi.com/tech/stl/DefaultConstructible.html.">
<polygon fill="white" stroke="black" points="14.5,-126 14.5,-145 193.5,-145 193.5,-126 14.5,-126"/>
<text text-anchor="middle" x="104" y="-133" font-family="FreeSans" font-size="10.00">boost::DefaultConstructible&lt; T &gt;</text>
</a>
</g>
</g>
<!-- Node3&#45;&gt;Node1 -->
<g id="edge2" class="edge">
<title>Node3&#45;&gt;Node1</title>
<path fill="none" stroke="midnightblue" d="M167.97,-124.16C191.85,-119.86 219.21,-114.93 243.87,-110.49"/>
<polygon fill="midnightblue" stroke="midnightblue" points="167.19,-120.74 157.97,-125.96 168.43,-127.63 167.19,-120.74"/>
</g>
<!-- Node4 -->
<g id="node4" class="node">
<title>Node4</title>
<g id="a_node4"><a xlink:href="structboost_1_1Assignable.html" target="_top" xlink:title="Go to http://www.sgi.com/tech/stl/Assignable.html.">
<polygon fill="white" stroke="black" points="38.5,-88 38.5,-107 169.5,-107 169.5,-88 38.5,-88"/>
<text text-anchor="middle" x="104" y="-95" font-family="FreeSans" font-size="10.00">boost::Assignable&lt; T &gt;</text>
</a>
</g>
</g>
<!-- Node4&#45;&gt;Node1 -->
<g id="edge3" class="edge">
<title>Node4&#45;&gt;Node1</title>
<path fill="none" stroke="midnightblue" d="M179.78,-97.5C200.53,-97.5 223.03,-97.5 243.65,-97.5"/>
<polygon fill="midnightblue" stroke="midnightblue" points="179.74,-94 169.74,-97.5 179.74,-101 179.74,-94"/>
</g>
<!-- Node5 -->
<g id="node5" class="node">
<title>Node5</title>
<g id="a_node5"><a xlink:href="structDGtal_1_1concepts_1_1CBackInsertable.html" target="_top" xlink:title="Aim: Represents types for which a std::back_insert_iterator can be constructed with std::back_inserte...">
<polygon fill="white" stroke="black" points="0,-50 0,-69 208,-69 208,-50 0,-50"/>
<text text-anchor="middle" x="104" y="-57" font-family="FreeSans" font-size="10.00">DGtal::concepts::CBackInsertable&lt; T &gt;</text>
</a>
</g>
</g>
<!-- Node5&#45;&gt;Node1 -->
<g id="edge4" class="edge">
<title>Node5&#45;&gt;Node1</title>
<path fill="none" stroke="midnightblue" d="M167.97,-70.84C191.85,-75.14 219.21,-80.07 243.87,-84.51"/>
<polygon fill="midnightblue" stroke="midnightblue" points="168.43,-67.37 157.97,-69.04 167.19,-74.26 168.43,-67.37"/>
</g>
<!-- Node6 -->
<g id="node6" class="node">
<title>Node6</title>
<g id="a_node6"><a xlink:href="structDGtal_1_1concepts_1_1CConstSinglePassRange.html" target="_top" xlink:title="Aim: Defines the concept describing a const single pass range.">
<polygon fill="white" stroke="black" points="22,-0.5 22,-30.5 186,-30.5 186,-0.5 22,-0.5"/>
<text text-anchor="start" x="30" y="-18.5" font-family="FreeSans" font-size="10.00">DGtal::concepts::CConstSingle</text>
<text text-anchor="middle" x="104" y="-7.5" font-family="FreeSans" font-size="10.00">PassRange&lt; T &gt;</text>
</a>
</g>
</g>
<!-- Node6&#45;&gt;Node1 -->
<g id="edge5" class="edge">
<title>Node6&#45;&gt;Node1</title>
<path fill="none" stroke="midnightblue" d="M186.8,-33.37C194.04,-35.55 201.2,-37.92 208,-40.5 237.94,-51.83 270.14,-69.63 291.51,-82.32"/>
<polygon fill="midnightblue" stroke="midnightblue" points="187.47,-29.92 176.9,-30.53 185.54,-36.65 187.47,-29.92"/>
</g>
</g>
</svg>
