<?xml version="1.0" encoding="UTF-8" standalone="no"?>
<!DOCTYPE svg PUBLIC "-//W3C//DTD SVG 1.1//EN"
 "http://www.w3.org/Graphics/SVG/1.1/DTD/svg11.dtd">
<!-- Generated by graphviz version 2.43.0 (0)
 -->
<!-- Title: boost::ForwardContainer&lt; C &gt; Pages: 1 -->
<svg width="189pt" height="163pt"
 viewBox="0.00 0.00 189.00 163.00" xmlns="http://www.w3.org/2000/svg" xmlns:xlink="http://www.w3.org/1999/xlink">
<g id="graph0" class="graph" transform="scale(1 1) rotate(0) translate(4 159)">
<title>boost::ForwardContainer&lt; C &gt;</title>
<polygon fill="white" stroke="transparent" points="-4,4 -4,-159 185,-159 185,4 -4,4"/>
<!-- Node1 -->
<g id="node1" class="node">
<title>Node1</title>
<g id="a_node1"><a xlink:title="Go to http://www.sgi.com/tech/stl/ForwardContainer.html.">
<polygon fill="#bfbfbf" stroke="black" points="8,-135.5 8,-154.5 173,-154.5 173,-135.5 8,-135.5"/>
<text text-anchor="middle" x="90.5" y="-142.5" font-family="FreeSans" font-size="10.00">boost::ForwardContainer&lt; C &gt;</text>
</a>
</g>
</g>
<!-- Node2 -->
<g id="node2" class="node">
<title>Node2</title>
<g id="a_node2"><a xlink:href="structboost_1_1ForwardContainer.html" target="_top" xlink:title=" ">
<polygon fill="white" stroke="black" points="8.5,-68.5 8.5,-87.5 172.5,-87.5 172.5,-68.5 8.5,-68.5"/>
<text text-anchor="middle" x="90.5" y="-75.5" font-family="FreeSans" font-size="10.00">boost::ForwardContainer&lt; T &gt;</text>
</a>
</g>
</g>
<!-- Node1&#45;&gt;Node2 -->
<g id="edge1" class="edge">
<title>Node1&#45;&gt;Node2</title>
<path fill="none" stroke="orange" stroke-dasharray="5,2" d="M90.5,-125.04C90.5,-112.67 90.5,-97.12 90.5,-87.63"/>
<polygon fill="orange" stroke="orange" points="87,-125.23 90.5,-135.23 94,-125.23 87,-125.23"/>
<text text-anchor="middle" x="106.5" y="-109" font-family="FreeSans" font-size="10.00"> &lt; T &gt;</text>
</g>
<!-- Node3 -->
<g id="node3" class="node">
<title>Node3</title>
<g id="a_node3"><a xlink:href="structDGtal_1_1concepts_1_1CSTLAssociativeContainer.html" target="_top" xlink:title="Aim: Defines the concept describing an Associative Container of the STL (https://www....">
<polygon fill="white" stroke="black" points="0,-0.5 0,-30.5 181,-30.5 181,-0.5 0,-0.5"/>
<text text-anchor="start" x="8" y="-18.5" font-family="FreeSans" font-size="10.00">DGtal::concepts::CSTLAssociative</text>
<text text-anchor="middle" x="90.5" y="-7.5" font-family="FreeSans" font-size="10.00">Container&lt; T &gt;</text>
</a>
</g>
</g>
<!-- Node2&#45;&gt;Node3 -->
<g id="edge2" class="edge">
<title>Node2&#45;&gt;Node3</title>
<path fill="none" stroke="midnightblue" d="M90.5,-58.22C90.5,-49.36 90.5,-38.96 90.5,-30.76"/>
<polygon fill="midnightblue" stroke="midnightblue" points="87,-58.33 90.5,-68.33 94,-58.33 87,-58.33"/>
</g>
</g>
</svg>
