<?xml version="1.0" encoding="UTF-8" standalone="no"?>
<!DOCTYPE svg PUBLIC "-//W3C//DTD SVG 1.1//EN"
 "http://www.w3.org/Graphics/SVG/1.1/DTD/svg11.dtd">
<!-- Generated by graphviz version 2.43.0 (0)
 -->
<!-- Title: DGtal::concepts::CPointEmbedder&lt; T &gt; Pages: 1 -->
<svg width="305pt" height="298pt"
 viewBox="0.00 0.00 304.50 298.00" xmlns="http://www.w3.org/2000/svg" xmlns:xlink="http://www.w3.org/1999/xlink">
<g id="graph0" class="graph" transform="scale(1 1) rotate(0) translate(4 294)">
<title>DGtal::concepts::CPointEmbedder&lt; T &gt;</title>
<polygon fill="white" stroke="transparent" points="-4,4 -4,-294 300.5,-294 300.5,4 -4,4"/>
<!-- Node1 -->
<g id="node1" class="node">
<title>Node1</title>
<g id="a_node1"><a xlink:title="Aim: A point embedder is a mapping from digital points to Euclidean points. It adds inner types to fu...">
<polygon fill="#bfbfbf" stroke="black" points="0,-0.5 0,-19.5 209,-19.5 209,-0.5 0,-0.5"/>
<text text-anchor="middle" x="104.5" y="-7.5" font-family="FreeSans" font-size="10.00">DGtal::concepts::CPointEmbedder&lt; T &gt;</text>
</a>
</g>
</g>
<!-- Node2 -->
<g id="node2" class="node">
<title>Node2</title>
<g id="a_node2"><a xlink:href="structDGtal_1_1concepts_1_1CUnaryFunctor.html" target="_top" xlink:title=" ">
<polygon fill="white" stroke="black" points="18.5,-57.5 18.5,-87.5 190.5,-87.5 190.5,-57.5 18.5,-57.5"/>
<text text-anchor="start" x="26.5" y="-75.5" font-family="FreeSans" font-size="10.00">DGtal::concepts::CUnaryFunctor</text>
<text text-anchor="middle" x="104.5" y="-64.5" font-family="FreeSans" font-size="10.00">&lt; T, T::Point, T::RealPoint &gt;</text>
</a>
</g>
</g>
<!-- Node2&#45;&gt;Node1 -->
<g id="edge1" class="edge">
<title>Node2&#45;&gt;Node1</title>
<path fill="none" stroke="midnightblue" d="M104.5,-47.35C104.5,-37.51 104.5,-26.78 104.5,-19.54"/>
<polygon fill="midnightblue" stroke="midnightblue" points="101,-47.47 104.5,-57.47 108,-47.47 101,-47.47"/>
</g>
<!-- Node3 -->
<g id="node3" class="node">
<title>Node3</title>
<g id="a_node3"><a xlink:href="structboost_1_1Assignable.html" target="_top" xlink:title="Go to http://www.sgi.com/tech/stl/Assignable.html.">
<polygon fill="white" stroke="black" points="39,-270.5 39,-289.5 170,-289.5 170,-270.5 39,-270.5"/>
<text text-anchor="middle" x="104.5" y="-277.5" font-family="FreeSans" font-size="10.00">boost::Assignable&lt; T &gt;</text>
</a>
</g>
</g>
<!-- Node3&#45;&gt;Node2 -->
<g id="edge2" class="edge">
<title>Node3&#45;&gt;Node2</title>
<path fill="none" stroke="midnightblue" d="M104.5,-260.32C104.5,-219.69 104.5,-124.02 104.5,-87.77"/>
<polygon fill="midnightblue" stroke="midnightblue" points="101,-260.43 104.5,-270.43 108,-260.43 101,-260.43"/>
</g>
<!-- Node5 -->
<g id="node5" class="node">
<title>Node5</title>
<g id="a_node5"><a xlink:href="structboost_1_1Assignable.html" target="_top" xlink:title=" ">
<polygon fill="white" stroke="black" points="126.5,-203.5 126.5,-222.5 258.5,-222.5 258.5,-203.5 126.5,-203.5"/>
<text text-anchor="middle" x="192.5" y="-210.5" font-family="FreeSans" font-size="10.00">boost::Assignable&lt; X &gt;</text>
</a>
</g>
</g>
<!-- Node3&#45;&gt;Node5 -->
<g id="edge5" class="edge">
<title>Node3&#45;&gt;Node5</title>
<path fill="none" stroke="orange" stroke-dasharray="5,2" d="M124.72,-264.07C142.09,-251.24 166.53,-233.19 180.82,-222.63"/>
<polygon fill="orange" stroke="orange" points="122.33,-261.48 116.37,-270.23 126.49,-267.11 122.33,-261.48"/>
<text text-anchor="middle" x="170" y="-244" font-family="FreeSans" font-size="10.00"> &lt; X &gt;</text>
</g>
<!-- Node4 -->
<g id="node4" class="node">
<title>Node4</title>
<g id="a_node4"><a xlink:href="structDGtal_1_1concepts_1_1CUnaryFunctor.html" target="_top" xlink:title="Aim: Defines a unary functor, which associates arguments to results.">
<polygon fill="white" stroke="black" points="116.5,-135.5 116.5,-165.5 288.5,-165.5 288.5,-135.5 116.5,-135.5"/>
<text text-anchor="start" x="124.5" y="-153.5" font-family="FreeSans" font-size="10.00">DGtal::concepts::CUnaryFunctor</text>
<text text-anchor="middle" x="202.5" y="-142.5" font-family="FreeSans" font-size="10.00">&lt; X, A, R &gt;</text>
</a>
</g>
</g>
<!-- Node4&#45;&gt;Node2 -->
<g id="edge3" class="edge">
<title>Node4&#45;&gt;Node2</title>
<path fill="none" stroke="orange" stroke-dasharray="5,2" d="M175.75,-128.75C158.96,-115.73 137.75,-99.28 122.85,-87.73"/>
<polygon fill="orange" stroke="orange" points="174.02,-131.84 184.07,-135.2 178.31,-126.31 174.02,-131.84"/>
<text text-anchor="middle" x="227.5" y="-109" font-family="FreeSans" font-size="10.00"> &lt; T, T::Point, T::RealPoint &gt;</text>
</g>
<!-- Node5&#45;&gt;Node4 -->
<g id="edge4" class="edge">
<title>Node5&#45;&gt;Node4</title>
<path fill="none" stroke="midnightblue" d="M195.6,-193.22C197.07,-184.36 198.79,-173.96 200.14,-165.76"/>
<polygon fill="midnightblue" stroke="midnightblue" points="192.11,-192.89 193.93,-203.33 199.02,-194.04 192.11,-192.89"/>
</g>
</g>
</svg>
