<?xml version="1.0" encoding="UTF-8" standalone="no"?>
<!DOCTYPE svg PUBLIC "-//W3C//DTD SVG 1.1//EN"
 "http://www.w3.org/Graphics/SVG/1.1/DTD/svg11.dtd">
<!-- Generated by graphviz version 2.43.0 (0)
 -->
<!-- Title: DGtal::concepts::CUnaryFunctor&lt; X, A, R &gt; Pages: 1 -->
<!--zoomable 467 -->
<svg id="main" version="1.1" xmlns="http://www.w3.org/2000/svg" xmlns:xlink="http://www.w3.org/1999/xlink" xml:space="preserve" onload="init(evt)">
<style type="text/css"><![CDATA[
.edge:hover path { stroke: red; }
.edge:hover polygon { stroke: red; fill: red; }
]]></style>
<script type="text/javascript"><![CDATA[
var edges = document.getElementsByTagName('g');
if (edges && edges.length) {
  for (var i=0;i<edges.length;i++) {
    if (edges[i].id.substr(0,4)=='edge') {
      edges[i].setAttribute('class','edge');
    }
  }
}
]]></script>
        <defs>
                <circle id="rim" cx="0" cy="0" r="7"/>
                <circle id="rim2" cx="0" cy="0" r="3.5"/>
                <g id="zoomPlus">
                        <use xlink:href="#rim" fill="#404040">
                                <set attributeName="fill" to="#808080" begin="zoomplus.mouseover" end="zoomplus.mouseout"/>
                        </use>
                        <path d="M-4,0h8M0,-4v8" fill="none" stroke="white" stroke-width="1.5" pointer-events="none"/>
                </g>
                <g id="zoomMin">
                        <use xlink:href="#rim" fill="#404040">
                                <set attributeName="fill" to="#808080" begin="zoomminus.mouseover" end="zoomminus.mouseout"/>
                        </use>
                        <path d="M-4,0h8" fill="none" stroke="white" stroke-width="1.5" pointer-events="none"/>
                </g>
                <g id="dirArrow">
                        <path fill="none" stroke="white" stroke-width="1.5" d="M0,-3.0v7 M-2.5,-0.5L0,-3.0L2.5,-0.5"/>
                </g>
               <g id="resetDef">
                       <use xlink:href="#rim2" fill="#404040">
                               <set attributeName="fill" to="#808080" begin="reset.mouseover" end="reset.mouseout"/>
                       </use>
               </g>
        </defs>

<script type="text/javascript">
var viewWidth = 2122;
var viewHeight = 467;
var sectionId = 'dynsection-0';
</script>
<script xlink:href="svgpan.js"/>
<svg id="graph" class="graph">
<g id="viewport">
<title>DGtal::concepts::CUnaryFunctor&lt; X, A, R &gt;</title>
<polygon fill="white" stroke="transparent" points="-4,4 -4,-462.71 2118,-462.71 2118,4 -4,4"/>
<!-- Node1 -->
<g id="node1" class="node">
<title>Node1</title>
<g id="a_node1"><a xlink:title="Aim: Defines a unary functor, which associates arguments to results.">
<polygon fill="#bfbfbf" stroke="black" points="369,-180.5 369,-210.5 541,-210.5 541,-180.5 369,-180.5"/>
<text text-anchor="start" x="377" y="-198.5" font-family="FreeSans" font-size="10.00">DGtal::concepts::CUnaryFunctor</text>
<text text-anchor="middle" x="455" y="-187.5" font-family="FreeSans" font-size="10.00">&lt; X, A, R &gt;</text>
</a>
</g>
</g>
<!-- Node4 -->
<g id="node4" class="node">
<title>Node4</title>
<g id="a_node4"><a xlink:href="structDGtal_1_1concepts_1_1CPointFunctor.html" target="_top" xlink:title=" ">
<polygon fill="white" stroke="black" points="1250,-383 1250,-402 1443,-402 1443,-383 1250,-383"/>
<text text-anchor="middle" x="1346.5" y="-390" font-family="FreeSans" font-size="10.00">DGtal::concepts::CPointFunctor&lt; I &gt;</text>
</a>
</g>
</g>
<!-- Node1&#45;&gt;Node4 -->
<g id="edge3" class="edge">
<title>Node1&#45;&gt;Node4</title>
<path fill="none" stroke="midnightblue" d="M462.2,-220.4C473.66,-260.53 502.35,-338.46 559,-372.5 812.47,-524.82 1199.73,-433.81 1313.21,-402.1"/>
<polygon fill="midnightblue" stroke="midnightblue" points="465.54,-219.33 459.53,-210.6 458.78,-221.17 465.54,-219.33"/>
</g>
<!-- Node9 -->
<g id="node9" class="node">
<title>Node9</title>
<g id="a_node9"><a xlink:href="structDGtal_1_1concepts_1_1CPredicate.html" target="_top" xlink:title=" ">
<polygon fill="white" stroke="black" points="1270.5,-271.5 1270.5,-301.5 1422.5,-301.5 1422.5,-271.5 1270.5,-271.5"/>
<text text-anchor="start" x="1278.5" y="-289.5" font-family="FreeSans" font-size="10.00">DGtal::concepts::CPredicate</text>
<text text-anchor="middle" x="1346.5" y="-278.5" font-family="FreeSans" font-size="10.00">&lt; T, T::Surfel &gt;</text>
</a>
</g>
</g>
<!-- Node1&#45;&gt;Node9 -->
<g id="edge9" class="edge">
<title>Node1&#45;&gt;Node9</title>
<path fill="none" stroke="midnightblue" d="M492.18,-215.12C511.5,-224.78 535.98,-235.78 559,-242.5 716.36,-288.45 1129.99,-282.88 1151,-283.5 1190.33,-284.66 1234.14,-285.39 1270.21,-285.83"/>
<polygon fill="midnightblue" stroke="midnightblue" points="493.64,-211.93 483.15,-210.51 490.46,-218.17 493.64,-211.93"/>
</g>
<!-- Node11 -->
<g id="node11" class="node">
<title>Node11</title>
<g id="a_node11"><a xlink:href="structDGtal_1_1concepts_1_1CPredicate.html" target="_top" xlink:title=" ">
<polygon fill="white" stroke="black" points="1270.5,-152.5 1270.5,-182.5 1422.5,-182.5 1422.5,-152.5 1270.5,-152.5"/>
<text text-anchor="start" x="1278.5" y="-170.5" font-family="FreeSans" font-size="10.00">DGtal::concepts::CPredicate</text>
<text text-anchor="middle" x="1346.5" y="-159.5" font-family="FreeSans" font-size="10.00">&lt; T, T::Point &gt;</text>
</a>
</g>
</g>
<!-- Node1&#45;&gt;Node11 -->
<g id="edge11" class="edge">
<title>Node1&#45;&gt;Node11</title>
<path fill="none" stroke="midnightblue" d="M551.24,-182.15C553.85,-181.91 556.44,-181.7 559,-181.5 819.59,-161.54 1130.1,-163.6 1270.26,-165.91"/>
<polygon fill="midnightblue" stroke="midnightblue" points="550.68,-178.69 541.07,-183.14 551.36,-185.65 550.68,-178.69"/>
</g>
<!-- Node14 -->
<g id="node14" class="node">
<title>Node14</title>
<g id="a_node14"><a xlink:href="structDGtal_1_1concepts_1_1CPredicate.html" target="_top" xlink:title=" ">
<polygon fill="white" stroke="black" points="1270.5,-215.5 1270.5,-245.5 1422.5,-245.5 1422.5,-215.5 1270.5,-215.5"/>
<text text-anchor="start" x="1278.5" y="-233.5" font-family="FreeSans" font-size="10.00">DGtal::concepts::CPredicate</text>
<text text-anchor="middle" x="1346.5" y="-222.5" font-family="FreeSans" font-size="10.00">&lt; T, T::Vertex &gt;</text>
</a>
</g>
</g>
<!-- Node1&#45;&gt;Node14 -->
<g id="edge14" class="edge">
<title>Node1&#45;&gt;Node14</title>
<path fill="none" stroke="midnightblue" d="M551.16,-192.19C728.58,-186.59 1103.54,-177.59 1232,-196.5 1257.03,-200.19 1284.21,-208.18 1305.7,-215.49"/>
<polygon fill="midnightblue" stroke="midnightblue" points="550.93,-188.7 541.05,-192.51 551.16,-195.69 550.93,-188.7"/>
</g>
<!-- Node16 -->
<g id="node16" class="node">
<title>Node16</title>
<g id="a_node16"><a xlink:href="structDGtal_1_1concepts_1_1CUnaryFunctor.html" target="_top" xlink:title=" ">
<polygon fill="white" stroke="black" points="715,-98.5 715,-128.5 887,-128.5 887,-98.5 715,-98.5"/>
<text text-anchor="start" x="723" y="-116.5" font-family="FreeSans" font-size="10.00">DGtal::concepts::CUnaryFunctor</text>
<text text-anchor="middle" x="801" y="-105.5" font-family="FreeSans" font-size="10.00">&lt; T, T::Point, T::RealPoint &gt;</text>
</a>
</g>
</g>
<!-- Node1&#45;&gt;Node16 -->
<g id="edge16" class="edge">
<title>Node1&#45;&gt;Node16</title>
<path fill="none" stroke="orange" stroke-dasharray="5,2" d="M482.61,-174.34C502.45,-159.84 530.86,-141.63 559,-132.5 609,-116.27 667.76,-111.38 714.75,-110.61"/>
<polygon fill="orange" stroke="orange" points="480.3,-171.7 474.4,-180.5 484.5,-177.3 480.3,-171.7"/>
<text text-anchor="middle" x="628" y="-135.5" font-family="FreeSans" font-size="10.00"> &lt; T, T::Point, T::RealPoint &gt;</text>
</g>
<!-- Node18 -->
<g id="node18" class="node">
<title>Node18</title>
<g id="a_node18"><a xlink:href="structDGtal_1_1concepts_1_1CUnaryFunctor.html" target="_top" xlink:title=" ">
<polygon fill="white" stroke="black" points="715,-224.5 715,-254.5 887,-254.5 887,-224.5 715,-224.5"/>
<text text-anchor="start" x="723" y="-242.5" font-family="FreeSans" font-size="10.00">DGtal::concepts::CUnaryFunctor</text>
<text text-anchor="middle" x="801" y="-231.5" font-family="FreeSans" font-size="10.00">&lt; T, TElement, bool &gt;</text>
</a>
</g>
</g>
<!-- Node1&#45;&gt;Node18 -->
<g id="edge18" class="edge">
<title>Node1&#45;&gt;Node18</title>
<path fill="none" stroke="orange" stroke-dasharray="5,2" d="M551.27,-208.49C553.88,-208.83 556.46,-209.17 559,-209.5 610.74,-216.24 668.77,-223.47 714.93,-229.15"/>
<polygon fill="orange" stroke="orange" points="551.51,-204.99 541.14,-207.15 550.6,-211.93 551.51,-204.99"/>
<text text-anchor="middle" x="628" y="-230.5" font-family="FreeSans" font-size="10.00"> &lt; T, TElement, bool &gt;</text>
</g>
<!-- Node20 -->
<g id="node20" class="node">
<title>Node20</title>
<g id="a_node20"><a xlink:href="structDGtal_1_1concepts_1_1CUnaryFunctor.html" target="_top" xlink:title=" ">
<polygon fill="white" stroke="black" points="715,-338.5 715,-368.5 887,-368.5 887,-338.5 715,-338.5"/>
<text text-anchor="start" x="723" y="-356.5" font-family="FreeSans" font-size="10.00">DGtal::concepts::CUnaryFunctor</text>
<text text-anchor="middle" x="801" y="-345.5" font-family="FreeSans" font-size="10.00">&lt; T, T::Point, T::Value &gt;</text>
</a>
</g>
</g>
<!-- Node1&#45;&gt;Node20 -->
<g id="edge23" class="edge">
<title>Node1&#45;&gt;Node20</title>
<path fill="none" stroke="orange" stroke-dasharray="5,2" d="M467.8,-219.43C483.92,-249.32 515.84,-299.44 559,-323.5 606.14,-349.78 666.39,-357.28 714.85,-358.21"/>
<polygon fill="orange" stroke="orange" points="470.86,-217.74 463.12,-210.5 464.66,-220.98 470.86,-217.74"/>
<text text-anchor="middle" x="628" y="-360.5" font-family="FreeSans" font-size="10.00"> &lt; T, T::Point, T::Value &gt;</text>
</g>
<!-- Node24 -->
<g id="node24" class="node">
<title>Node24</title>
<g id="a_node24"><a xlink:href="structDGtal_1_1concepts_1_1CUnaryFunctor.html" target="_top" xlink:title=" ">
<polygon fill="white" stroke="black" points="715,-49.5 715,-79.5 887,-79.5 887,-49.5 715,-49.5"/>
<text text-anchor="start" x="723" y="-67.5" font-family="FreeSans" font-size="10.00">DGtal::concepts::CUnaryFunctor</text>
<text text-anchor="middle" x="801" y="-56.5" font-family="FreeSans" font-size="10.00">&lt; T, T::SCell, T::RealPoint &gt;</text>
</a>
</g>
</g>
<!-- Node1&#45;&gt;Node24 -->
<g id="edge28" class="edge">
<title>Node1&#45;&gt;Node24</title>
<path fill="none" stroke="orange" stroke-dasharray="5,2" d="M472.79,-172.35C491.13,-148.99 522.78,-113.94 559,-96.5 607.3,-73.24 666.98,-65.18 714.88,-62.97"/>
<polygon fill="orange" stroke="orange" points="469.95,-170.31 466.65,-180.38 475.51,-174.56 469.95,-170.31"/>
<text text-anchor="middle" x="628" y="-99.5" font-family="FreeSans" font-size="10.00"> &lt; T, T::SCell, T::RealPoint &gt;</text>
</g>
<!-- Node27 -->
<g id="node27" class="node">
<title>Node27</title>
<g id="a_node27"><a xlink:href="structDGtal_1_1concepts_1_1CUnaryFunctor.html" target="_top" xlink:title=" ">
<polygon fill="white" stroke="black" points="715,-0.5 715,-30.5 887,-30.5 887,-0.5 715,-0.5"/>
<text text-anchor="start" x="723" y="-18.5" font-family="FreeSans" font-size="10.00">DGtal::concepts::CUnaryFunctor</text>
<text text-anchor="middle" x="801" y="-7.5" font-family="FreeSans" font-size="10.00">&lt; T, T::Cell, T::RealPoint &gt;</text>
</a>
</g>
</g>
<!-- Node1&#45;&gt;Node27 -->
<g id="edge31" class="edge">
<title>Node1&#45;&gt;Node27</title>
<path fill="none" stroke="orange" stroke-dasharray="5,2" d="M465.83,-170.9C480.62,-137.37 511.98,-78.22 559,-49.5 605.43,-21.14 666.11,-12.71 714.97,-11.33"/>
<polygon fill="orange" stroke="orange" points="462.47,-169.85 461.77,-180.42 468.91,-172.59 462.47,-169.85"/>
<text text-anchor="middle" x="628" y="-52.5" font-family="FreeSans" font-size="10.00"> &lt; T, T::Cell, T::RealPoint &gt;</text>
</g>
<!-- Node2 -->
<g id="node2" class="node">
<title>Node2</title>
<g id="a_node2"><a xlink:href="structboost_1_1Assignable.html" target="_top" xlink:title=" ">
<polygon fill="white" stroke="black" points="200,-186 200,-205 332,-205 332,-186 200,-186"/>
<text text-anchor="middle" x="266" y="-193" font-family="FreeSans" font-size="10.00">boost::Assignable&lt; X &gt;</text>
</a>
</g>
</g>
<!-- Node2&#45;&gt;Node1 -->
<g id="edge1" class="edge">
<title>Node2&#45;&gt;Node1</title>
<path fill="none" stroke="midnightblue" d="M342.24,-195.5C350.95,-195.5 359.87,-195.5 368.7,-195.5"/>
<polygon fill="midnightblue" stroke="midnightblue" points="342.14,-192 332.14,-195.5 342.14,-199 342.14,-192"/>
</g>
<!-- Node3 -->
<g id="node3" class="node">
<title>Node3</title>
<g id="a_node3"><a xlink:href="structboost_1_1Assignable.html" target="_top" xlink:title="Go to http://www.sgi.com/tech/stl/Assignable.html.">
<polygon fill="white" stroke="black" points="0,-186 0,-205 131,-205 131,-186 0,-186"/>
<text text-anchor="middle" x="65.5" y="-193" font-family="FreeSans" font-size="10.00">boost::Assignable&lt; T &gt;</text>
</a>
</g>
</g>
<!-- Node3&#45;&gt;Node2 -->
<g id="edge2" class="edge">
<title>Node3&#45;&gt;Node2</title>
<path fill="none" stroke="orange" stroke-dasharray="5,2" d="M141.41,-195.5C160.58,-195.5 181.04,-195.5 199.69,-195.5"/>
<polygon fill="orange" stroke="orange" points="141.22,-192 131.22,-195.5 141.22,-199 141.22,-192"/>
<text text-anchor="middle" x="165.5" y="-198.5" font-family="FreeSans" font-size="10.00"> &lt; X &gt;</text>
</g>
<!-- Node5 -->
<g id="node5" class="node">
<title>Node5</title>
<g id="a_node5"><a xlink:href="structDGtal_1_1concepts_1_1CTrivialConstImage.html" target="_top" xlink:title="Aim: Defines the concept describing a read&#45;only image, which is a refinement of CPointFunctor.">
<polygon fill="white" stroke="black" points="1515,-377.5 1515,-407.5 1651,-407.5 1651,-377.5 1515,-377.5"/>
<text text-anchor="start" x="1523" y="-395.5" font-family="FreeSans" font-size="10.00">DGtal::concepts::CTrivial</text>
<text text-anchor="middle" x="1583" y="-384.5" font-family="FreeSans" font-size="10.00">ConstImage&lt; I &gt;</text>
</a>
</g>
</g>
<!-- Node4&#45;&gt;Node5 -->
<g id="edge4" class="edge">
<title>Node4&#45;&gt;Node5</title>
<path fill="none" stroke="midnightblue" d="M1453.43,-392.5C1474.34,-392.5 1495.74,-392.5 1514.92,-392.5"/>
<polygon fill="midnightblue" stroke="midnightblue" points="1453.22,-389 1443.22,-392.5 1453.22,-396 1453.22,-389"/>
</g>
<!-- Node6 -->
<g id="node6" class="node">
<title>Node6</title>
<g id="a_node6"><a xlink:href="structDGtal_1_1concepts_1_1CConstImage.html" target="_top" xlink:title="Aim: Defines the concept describing a read&#45;only image, which is a refinement of CPointFunctor.">
<polygon fill="white" stroke="black" points="1723,-365 1723,-384 1914,-384 1914,-365 1723,-365"/>
<text text-anchor="middle" x="1818.5" y="-372" font-family="FreeSans" font-size="10.00">DGtal::concepts::CConstImage&lt; I &gt;</text>
</a>
</g>
</g>
<!-- Node5&#45;&gt;Node6 -->
<g id="edge5" class="edge">
<title>Node5&#45;&gt;Node6</title>
<path fill="none" stroke="midnightblue" d="M1661.37,-386.54C1681.08,-385.02 1702.5,-383.37 1722.97,-381.79"/>
<polygon fill="midnightblue" stroke="midnightblue" points="1660.93,-383.06 1651.22,-387.32 1661.46,-390.04 1660.93,-383.06"/>
</g>
<!-- Node8 -->
<g id="node8" class="node">
<title>Node8</title>
<g id="a_node8"><a xlink:href="structDGtal_1_1concepts_1_1CTrivialImage.html" target="_top" xlink:title="Aim: Defines the concept describing an image without extra ranges, which is a refinement of CTrivialC...">
<polygon fill="white" stroke="black" points="1750.5,-403.5 1750.5,-433.5 1886.5,-433.5 1886.5,-403.5 1750.5,-403.5"/>
<text text-anchor="start" x="1758.5" y="-421.5" font-family="FreeSans" font-size="10.00">DGtal::concepts::CTrivial</text>
<text text-anchor="middle" x="1818.5" y="-410.5" font-family="FreeSans" font-size="10.00">Image&lt; I &gt;</text>
</a>
</g>
</g>
<!-- Node5&#45;&gt;Node8 -->
<g id="edge7" class="edge">
<title>Node5&#45;&gt;Node8</title>
<path fill="none" stroke="midnightblue" d="M1661.25,-401.1C1690.06,-404.31 1722.51,-407.92 1750.35,-411.02"/>
<polygon fill="midnightblue" stroke="midnightblue" points="1661.55,-397.61 1651.22,-399.99 1660.78,-404.57 1661.55,-397.61"/>
</g>
<!-- Node7 -->
<g id="node7" class="node">
<title>Node7</title>
<g id="a_node7"><a xlink:href="structDGtal_1_1concepts_1_1CImage.html" target="_top" xlink:title="Aim: Defines the concept describing a read/write image, having an output iterator.">
<polygon fill="white" stroke="black" points="1951,-386 1951,-405 2114,-405 2114,-386 1951,-386"/>
<text text-anchor="middle" x="2032.5" y="-393" font-family="FreeSans" font-size="10.00">DGtal::concepts::CImage&lt; I &gt;</text>
</a>
</g>
</g>
<!-- Node6&#45;&gt;Node7 -->
<g id="edge6" class="edge">
<title>Node6&#45;&gt;Node7</title>
<path fill="none" stroke="midnightblue" d="M1924.12,-384.86C1933.07,-385.75 1942.03,-386.64 1950.75,-387.5"/>
<polygon fill="midnightblue" stroke="midnightblue" points="1924.33,-381.37 1914.03,-383.86 1923.64,-388.33 1924.33,-381.37"/>
</g>
<!-- Node8&#45;&gt;Node7 -->
<g id="edge8" class="edge">
<title>Node8&#45;&gt;Node7</title>
<path fill="none" stroke="midnightblue" d="M1896.77,-410.12C1914.34,-408.21 1933.04,-406.18 1950.75,-404.26"/>
<polygon fill="midnightblue" stroke="midnightblue" points="1896.14,-406.66 1886.58,-411.22 1896.9,-413.62 1896.14,-406.66"/>
</g>
<!-- Node10 -->
<g id="node10" class="node">
<title>Node10</title>
<g id="a_node10"><a xlink:href="structDGtal_1_1concepts_1_1CSurfelPredicate.html" target="_top" xlink:title="Aim: Defines a predicate on a surfel.">
<polygon fill="white" stroke="black" points="1515.5,-271.5 1515.5,-301.5 1650.5,-301.5 1650.5,-271.5 1515.5,-271.5"/>
<text text-anchor="start" x="1523.5" y="-289.5" font-family="FreeSans" font-size="10.00">DGtal::concepts::CSurfel</text>
<text text-anchor="middle" x="1583" y="-278.5" font-family="FreeSans" font-size="10.00">Predicate&lt; T &gt;</text>
</a>
</g>
</g>
<!-- Node9&#45;&gt;Node10 -->
<g id="edge10" class="edge">
<title>Node9&#45;&gt;Node10</title>
<path fill="none" stroke="midnightblue" d="M1432.92,-286.5C1460.02,-286.5 1489.58,-286.5 1515.18,-286.5"/>
<polygon fill="midnightblue" stroke="midnightblue" points="1432.66,-283 1422.66,-286.5 1432.66,-290 1432.66,-283"/>
</g>
<!-- Node12 -->
<g id="node12" class="node">
<title>Node12</title>
<g id="a_node12"><a xlink:href="structDGtal_1_1concepts_1_1CPointPredicate.html" target="_top" xlink:title="Aim: Defines a predicate on a point.">
<polygon fill="white" stroke="black" points="1480,-158 1480,-177 1686,-177 1686,-158 1480,-158"/>
<text text-anchor="middle" x="1583" y="-165" font-family="FreeSans" font-size="10.00">DGtal::concepts::CPointPredicate&lt; T &gt;</text>
</a>
</g>
</g>
<!-- Node11&#45;&gt;Node12 -->
<g id="edge12" class="edge">
<title>Node11&#45;&gt;Node12</title>
<path fill="none" stroke="midnightblue" d="M1433.06,-167.5C1448.28,-167.5 1464.27,-167.5 1479.9,-167.5"/>
<polygon fill="midnightblue" stroke="midnightblue" points="1432.66,-164 1422.66,-167.5 1432.66,-171 1432.66,-164"/>
</g>
<!-- Node13 -->
<g id="node13" class="node">
<title>Node13</title>
<g id="a_node13"><a xlink:href="structDGtal_1_1concepts_1_1CDigitalSet.html" target="_top" xlink:title="Aim: Represents a set of points within the given domain. This set of points is modifiable by the user...">
<polygon fill="white" stroke="black" points="1749,-152.5 1749,-182.5 1888,-182.5 1888,-152.5 1749,-152.5"/>
<text text-anchor="start" x="1757" y="-170.5" font-family="FreeSans" font-size="10.00">DGtal::concepts::CDigital</text>
<text text-anchor="middle" x="1818.5" y="-159.5" font-family="FreeSans" font-size="10.00">Set&lt; T &gt;</text>
</a>
</g>
</g>
<!-- Node12&#45;&gt;Node13 -->
<g id="edge13" class="edge">
<title>Node12&#45;&gt;Node13</title>
<path fill="none" stroke="midnightblue" d="M1696.32,-167.5C1714.26,-167.5 1732.35,-167.5 1748.87,-167.5"/>
<polygon fill="midnightblue" stroke="midnightblue" points="1696.08,-164 1686.08,-167.5 1696.08,-171 1696.08,-164"/>
</g>
<!-- Node15 -->
<g id="node15" class="node">
<title>Node15</title>
<g id="a_node15"><a xlink:href="structDGtal_1_1concepts_1_1CVertexPredicate.html" target="_top" xlink:title="Aim: Defines a predicate on a vertex.">
<polygon fill="white" stroke="black" points="1514,-215.5 1514,-245.5 1652,-245.5 1652,-215.5 1514,-215.5"/>
<text text-anchor="start" x="1522" y="-233.5" font-family="FreeSans" font-size="10.00">DGtal::concepts::CVertex</text>
<text text-anchor="middle" x="1583" y="-222.5" font-family="FreeSans" font-size="10.00">Predicate&lt; T &gt;</text>
</a>
</g>
</g>
<!-- Node14&#45;&gt;Node15 -->
<g id="edge15" class="edge">
<title>Node14&#45;&gt;Node15</title>
<path fill="none" stroke="midnightblue" d="M1432.73,-230.5C1459.34,-230.5 1488.32,-230.5 1513.61,-230.5"/>
<polygon fill="midnightblue" stroke="midnightblue" points="1432.66,-227 1422.66,-230.5 1432.66,-234 1432.66,-227"/>
</g>
<!-- Node17 -->
<g id="node17" class="node">
<title>Node17</title>
<g id="a_node17"><a xlink:href="structDGtal_1_1concepts_1_1CPointEmbedder.html" target="_top" xlink:title="Aim: A point embedder is a mapping from digital points to Euclidean points. It adds inner types to fu...">
<polygon fill="white" stroke="black" points="924,-104 924,-123 1133,-123 1133,-104 924,-104"/>
<text text-anchor="middle" x="1028.5" y="-111" font-family="FreeSans" font-size="10.00">DGtal::concepts::CPointEmbedder&lt; T &gt;</text>
</a>
</g>
</g>
<!-- Node16&#45;&gt;Node17 -->
<g id="edge17" class="edge">
<title>Node16&#45;&gt;Node17</title>
<path fill="none" stroke="midnightblue" d="M897.45,-113.5C906.2,-113.5 915.09,-113.5 923.91,-113.5"/>
<polygon fill="midnightblue" stroke="midnightblue" points="897.25,-110 887.25,-113.5 897.25,-117 897.25,-110"/>
</g>
<!-- Node19 -->
<g id="node19" class="node">
<title>Node19</title>
<g id="a_node19"><a xlink:href="structDGtal_1_1concepts_1_1CPredicate.html" target="_top" xlink:title="Aim: Defines a predicate function, ie. a functor mapping a domain into the set of booleans.">
<polygon fill="white" stroke="black" points="952.5,-224.5 952.5,-254.5 1104.5,-254.5 1104.5,-224.5 952.5,-224.5"/>
<text text-anchor="start" x="960.5" y="-242.5" font-family="FreeSans" font-size="10.00">DGtal::concepts::CPredicate</text>
<text text-anchor="middle" x="1028.5" y="-231.5" font-family="FreeSans" font-size="10.00">&lt; T, TElement &gt;</text>
</a>
</g>
</g>
<!-- Node18&#45;&gt;Node19 -->
<g id="edge19" class="edge">
<title>Node18&#45;&gt;Node19</title>
<path fill="none" stroke="midnightblue" d="M897.4,-239.5C915.8,-239.5 934.84,-239.5 952.48,-239.5"/>
<polygon fill="midnightblue" stroke="midnightblue" points="897.25,-236 887.25,-239.5 897.25,-243 897.25,-236"/>
</g>
<!-- Node19&#45;&gt;Node9 -->
<g id="edge20" class="edge">
<title>Node19&#45;&gt;Node9</title>
<path fill="none" stroke="orange" stroke-dasharray="5,2" d="M1114.95,-252.21C1163.43,-259.42 1223.55,-268.36 1270.24,-275.31"/>
<polygon fill="orange" stroke="orange" points="1115.19,-248.71 1104.79,-250.7 1114.16,-255.63 1115.19,-248.71"/>
<text text-anchor="middle" x="1191.5" y="-271.5" font-family="FreeSans" font-size="10.00"> &lt; T, T::Surfel &gt;</text>
</g>
<!-- Node19&#45;&gt;Node11 -->
<g id="edge21" class="edge">
<title>Node19&#45;&gt;Node11</title>
<path fill="none" stroke="orange" stroke-dasharray="5,2" d="M1105.4,-222.21C1158.48,-210.11 1228.68,-194.12 1279.45,-182.55"/>
<polygon fill="orange" stroke="orange" points="1104.33,-218.86 1095.36,-224.49 1105.89,-225.69 1104.33,-218.86"/>
<text text-anchor="middle" x="1191.5" y="-213.5" font-family="FreeSans" font-size="10.00"> &lt; T, T::Point &gt;</text>
</g>
<!-- Node19&#45;&gt;Node14 -->
<g id="edge22" class="edge">
<title>Node19&#45;&gt;Node14</title>
<path fill="none" stroke="orange" stroke-dasharray="5,2" d="M1114.95,-237.07C1163.43,-235.69 1223.55,-233.97 1270.24,-232.64"/>
<polygon fill="orange" stroke="orange" points="1114.68,-233.57 1104.79,-237.36 1114.88,-240.57 1114.68,-233.57"/>
<text text-anchor="middle" x="1191.5" y="-238.5" font-family="FreeSans" font-size="10.00"> &lt; T, T::Vertex &gt;</text>
</g>
<!-- Node21 -->
<g id="node21" class="node">
<title>Node21</title>
<g id="a_node21"><a xlink:href="structDGtal_1_1concepts_1_1CPointFunctor.html" target="_top" xlink:title="Aim: Defines a functor on points.">
<polygon fill="white" stroke="black" points="930.5,-344 930.5,-363 1126.5,-363 1126.5,-344 930.5,-344"/>
<text text-anchor="middle" x="1028.5" y="-351" font-family="FreeSans" font-size="10.00">DGtal::concepts::CPointFunctor&lt; T &gt;</text>
</a>
</g>
</g>
<!-- Node20&#45;&gt;Node21 -->
<g id="edge24" class="edge">
<title>Node20&#45;&gt;Node21</title>
<path fill="none" stroke="midnightblue" d="M897.59,-353.5C908.45,-353.5 919.53,-353.5 930.41,-353.5"/>
<polygon fill="midnightblue" stroke="midnightblue" points="897.25,-350 887.25,-353.5 897.25,-357 897.25,-350"/>
</g>
<!-- Node21&#45;&gt;Node4 -->
<g id="edge27" class="edge">
<title>Node21&#45;&gt;Node4</title>
<path fill="none" stroke="orange" stroke-dasharray="5,2" d="M1136.83,-361.94C1167.62,-364.8 1201.19,-368.35 1232,-372.5 1253.22,-375.36 1276.53,-379.32 1296.47,-382.97"/>
<polygon fill="orange" stroke="orange" points="1136.78,-358.42 1126.5,-361 1136.14,-365.39 1136.78,-358.42"/>
<text text-anchor="middle" x="1191.5" y="-375.5" font-family="FreeSans" font-size="10.00"> &lt; I &gt;</text>
</g>
<!-- Node22 -->
<g id="node22" class="node">
<title>Node22</title>
<g id="a_node22"><a xlink:href="structDGtal_1_1concepts_1_1COrientationFunctor.html" target="_top" xlink:title="Aim: This concept gathers models implementing an orientation test of &#160;points in a space of dimension ...">
<polygon fill="white" stroke="black" points="1266,-323.5 1266,-353.5 1427,-353.5 1427,-323.5 1266,-323.5"/>
<text text-anchor="start" x="1274" y="-341.5" font-family="FreeSans" font-size="10.00">DGtal::concepts::COrientation</text>
<text text-anchor="middle" x="1346.5" y="-330.5" font-family="FreeSans" font-size="10.00">Functor&lt; T &gt;</text>
</a>
</g>
</g>
<!-- Node21&#45;&gt;Node22 -->
<g id="edge25" class="edge">
<title>Node21&#45;&gt;Node22</title>
<path fill="none" stroke="midnightblue" d="M1136.94,-348.4C1179.19,-346.39 1226.84,-344.13 1265.92,-342.28"/>
<polygon fill="midnightblue" stroke="midnightblue" points="1136.71,-344.91 1126.89,-348.88 1137.04,-351.9 1136.71,-344.91"/>
</g>
<!-- Node23 -->
<g id="node23" class="node">
<title>Node23</title>
<g id="a_node23"><a xlink:href="structDGtal_1_1concepts_1_1COrientationFunctor2.html" target="_top" xlink:title="Aim: This concept is a refinement of COrientationFunctor, useful for simple algebraic curves that can...">
<polygon fill="white" stroke="black" points="1502.5,-323.5 1502.5,-353.5 1663.5,-353.5 1663.5,-323.5 1502.5,-323.5"/>
<text text-anchor="start" x="1510.5" y="-341.5" font-family="FreeSans" font-size="10.00">DGtal::concepts::COrientation</text>
<text text-anchor="middle" x="1583" y="-330.5" font-family="FreeSans" font-size="10.00">Functor2&lt; T &gt;</text>
</a>
</g>
</g>
<!-- Node22&#45;&gt;Node23 -->
<g id="edge26" class="edge">
<title>Node22&#45;&gt;Node23</title>
<path fill="none" stroke="midnightblue" d="M1437.25,-338.5C1458.6,-338.5 1481.23,-338.5 1502.1,-338.5"/>
<polygon fill="midnightblue" stroke="midnightblue" points="1437.22,-335 1427.22,-338.5 1437.22,-342 1437.22,-335"/>
</g>
<!-- Node25 -->
<g id="node25" class="node">
<title>Node25</title>
<g id="a_node25"><a xlink:href="structDGtal_1_1concepts_1_1CSCellEmbedder.html" target="_top" xlink:title="Aim: A cell embedder is a mapping from signed cells to Euclidean points. It adds inner types to funct...">
<polygon fill="white" stroke="black" points="924,-55 924,-74 1133,-74 1133,-55 924,-55"/>
<text text-anchor="middle" x="1028.5" y="-62" font-family="FreeSans" font-size="10.00">DGtal::concepts::CSCellEmbedder&lt; T &gt;</text>
</a>
</g>
</g>
<!-- Node24&#45;&gt;Node25 -->
<g id="edge29" class="edge">
<title>Node24&#45;&gt;Node25</title>
<path fill="none" stroke="midnightblue" d="M897.45,-64.5C906.2,-64.5 915.09,-64.5 923.91,-64.5"/>
<polygon fill="midnightblue" stroke="midnightblue" points="897.25,-61 887.25,-64.5 897.25,-68 897.25,-61"/>
</g>
<!-- Node26 -->
<g id="node26" class="node">
<title>Node26</title>
<g id="a_node26"><a xlink:href="structDGtal_1_1concepts_1_1CDigitalSurfaceEmbedder.html" target="_top" xlink:title="Aim: A digital surface embedder is a specialized mapping from signed cells to Euclidean points....">
<polygon fill="white" stroke="black" points="1277,-49.5 1277,-79.5 1416,-79.5 1416,-49.5 1277,-49.5"/>
<text text-anchor="start" x="1285" y="-67.5" font-family="FreeSans" font-size="10.00">DGtal::concepts::CDigital</text>
<text text-anchor="middle" x="1346.5" y="-56.5" font-family="FreeSans" font-size="10.00">SurfaceEmbedder&lt; T &gt;</text>
</a>
</g>
</g>
<!-- Node25&#45;&gt;Node26 -->
<g id="edge30" class="edge">
<title>Node25&#45;&gt;Node26</title>
<path fill="none" stroke="midnightblue" d="M1143.45,-64.5C1188.13,-64.5 1237.92,-64.5 1276.89,-64.5"/>
<polygon fill="midnightblue" stroke="midnightblue" points="1143.41,-61 1133.41,-64.5 1143.41,-68 1143.41,-61"/>
</g>
<!-- Node28 -->
<g id="node28" class="node">
<title>Node28</title>
<g id="a_node28"><a xlink:href="structDGtal_1_1concepts_1_1CCellEmbedder.html" target="_top" xlink:title="Aim: A cell embedder is a mapping from unsigned cells to Euclidean points. It adds inner types to fun...">
<polygon fill="white" stroke="black" points="927,-6 927,-25 1130,-25 1130,-6 927,-6"/>
<text text-anchor="middle" x="1028.5" y="-13" font-family="FreeSans" font-size="10.00">DGtal::concepts::CCellEmbedder&lt; T &gt;</text>
</a>
</g>
</g>
<!-- Node27&#45;&gt;Node28 -->
<g id="edge32" class="edge">
<title>Node27&#45;&gt;Node28</title>
<path fill="none" stroke="midnightblue" d="M897.37,-15.5C907.16,-15.5 917.13,-15.5 926.97,-15.5"/>
<polygon fill="midnightblue" stroke="midnightblue" points="897.25,-12 887.25,-15.5 897.25,-19 897.25,-12"/>
</g>
</g>
</svg>
        <g id="navigator" transform="translate(0 0)" fill="#404254">
                <rect fill="#f2f5e9" fill-opacity="0.5" stroke="#606060" stroke-width=".5" x="0" y="0" width="60" height="60"/>
                <use id="zoomplus" xlink:href="#zoomPlus" x="17" y="9" onmousedown="handleZoom(evt,'in')"/>
                <use id="zoomminus" xlink:href="#zoomMin" x="42" y="9" onmousedown="handleZoom(evt,'out')"/>
                <use id="reset" xlink:href="#resetDef" x="30" y="36" onmousedown="handleReset()"/>
                <g id="arrowUp" xlink:href="#dirArrow" transform="translate(30 24)" onmousedown="handlePan(0,-1)">
                  <use xlink:href="#rim" fill="#404040">
                        <set attributeName="fill" to="#808080" begin="arrowUp.mouseover" end="arrowUp.mouseout"/>
                  </use>
                  <path fill="none" stroke="white" stroke-width="1.5" d="M0,-3.0v7 M-2.5,-0.5L0,-3.0L2.5,-0.5"/>
                </g>
                <g id="arrowRight" xlink:href="#dirArrow" transform="rotate(90) translate(36 -43)" onmousedown="handlePan(1,0)">
                  <use xlink:href="#rim" fill="#404040">
                        <set attributeName="fill" to="#808080" begin="arrowRight.mouseover" end="arrowRight.mouseout"/>
                  </use>
                  <path fill="none" stroke="white" stroke-width="1.5" d="M0,-3.0v7 M-2.5,-0.5L0,-3.0L2.5,-0.5"/>
                </g>
                <g id="arrowDown" xlink:href="#dirArrow" transform="rotate(180) translate(-30 -48)" onmousedown="handlePan(0,1)">
                  <use xlink:href="#rim" fill="#404040">
                        <set attributeName="fill" to="#808080" begin="arrowDown.mouseover" end="arrowDown.mouseout"/>
                  </use>
                  <path fill="none" stroke="white" stroke-width="1.5" d="M0,-3.0v7 M-2.5,-0.5L0,-3.0L2.5,-0.5"/>
                </g>
                <g id="arrowLeft" xlink:href="#dirArrow" transform="rotate(270) translate(-36 17)" onmousedown="handlePan(-1,0)">
                  <use xlink:href="#rim" fill="#404040">
                        <set attributeName="fill" to="#808080" begin="arrowLeft.mouseover" end="arrowLeft.mouseout"/>
                  </use>
                  <path fill="none" stroke="white" stroke-width="1.5" d="M0,-3.0v7 M-2.5,-0.5L0,-3.0L2.5,-0.5"/>
                </g>
        </g>
        <svg viewBox="0 0 15 15" width="100%" height="30px" preserveAspectRatio="xMaxYMin meet">
         <g id="arrow_out" transform="scale(0.3 0.3)">
          <a xlink:href="structDGtal_1_1concepts_1_1CUnaryFunctor__inherit__graph_org.svg" target="_base">
           <rect id="button" ry="5" rx="5" y="6" x="6" height="38" width="38"
                fill="#f2f5e9" fill-opacity="0.5" stroke="#606060" stroke-width="1.0"/>
           <path id="arrow"
             d="M 11.500037,31.436501 C 11.940474,20.09759 22.043105,11.32322 32.158766,21.979434 L 37.068811,17.246167 C 37.068811,17.246167 37.088388,32 37.088388,32 L 22.160133,31.978069 C 22.160133,31.978069 26.997745,27.140456 26.997745,27.140456 C 18.528582,18.264221 13.291696,25.230495 11.500037,31.436501 z"
             style="fill:#404040;"/>
          </a>
         </g>
        </svg>
</svg>
