<?xml version="1.0" encoding="UTF-8" standalone="no"?>
<!DOCTYPE svg PUBLIC "-//W3C//DTD SVG 1.1//EN"
 "http://www.w3.org/Graphics/SVG/1.1/DTD/svg11.dtd">
<!-- Generated by graphviz version 2.43.0 (0)
 -->
<!-- Title: DGtal::concepts::CMetricSpace&lt; T &gt; Pages: 1 -->
<svg width="335pt" height="162pt"
 viewBox="0.00 0.00 335.00 162.00" xmlns="http://www.w3.org/2000/svg" xmlns:xlink="http://www.w3.org/1999/xlink">
<g id="graph0" class="graph" transform="scale(1 1) rotate(0) translate(4 158)">
<title>DGtal::concepts::CMetricSpace&lt; T &gt;</title>
<polygon fill="white" stroke="transparent" points="-4,4 -4,-158 331,-158 331,4 -4,4"/>
<!-- Node1 -->
<g id="node1" class="node">
<title>Node1</title>
<g id="a_node1"><a xlink:title="Aim: defines the concept of metric spaces.">
<polygon fill="#bfbfbf" stroke="black" points="98,-67.5 98,-97.5 235,-97.5 235,-67.5 98,-67.5"/>
<text text-anchor="start" x="106" y="-85.5" font-family="FreeSans" font-size="10.00">DGtal::concepts::CMetric</text>
<text text-anchor="middle" x="166.5" y="-74.5" font-family="FreeSans" font-size="10.00">Space&lt; T &gt;</text>
</a>
</g>
</g>
<!-- Node4 -->
<g id="node4" class="node">
<title>Node4</title>
<g id="a_node4"><a xlink:href="structDGtal_1_1concepts_1_1CDigitalMetricSpace.html" target="_top" xlink:title="Aim: defines the concept of digital metric spaces.">
<polygon fill="white" stroke="black" points="15,-0.5 15,-30.5 154,-30.5 154,-0.5 15,-0.5"/>
<text text-anchor="start" x="23" y="-18.5" font-family="FreeSans" font-size="10.00">DGtal::concepts::CDigital</text>
<text text-anchor="middle" x="84.5" y="-7.5" font-family="FreeSans" font-size="10.00">MetricSpace&lt; T &gt;</text>
</a>
</g>
</g>
<!-- Node1&#45;&gt;Node4 -->
<g id="edge3" class="edge">
<title>Node1&#45;&gt;Node4</title>
<path fill="none" stroke="midnightblue" d="M140.85,-61.17C128.31,-51.23 113.53,-39.51 102.26,-30.58"/>
<polygon fill="midnightblue" stroke="midnightblue" points="138.7,-63.93 148.71,-67.4 143.04,-58.44 138.7,-63.93"/>
</g>
<!-- Node5 -->
<g id="node5" class="node">
<title>Node5</title>
<g id="a_node5"><a xlink:href="structDGtal_1_1concepts_1_1CSeparableMetric.html" target="_top" xlink:title="Aim: defines the concept of separable metrics.">
<polygon fill="white" stroke="black" points="172,-0.5 172,-30.5 327,-30.5 327,-0.5 172,-0.5"/>
<text text-anchor="start" x="180" y="-18.5" font-family="FreeSans" font-size="10.00">DGtal::concepts::CSeparable</text>
<text text-anchor="middle" x="249.5" y="-7.5" font-family="FreeSans" font-size="10.00">Metric&lt; T &gt;</text>
</a>
</g>
</g>
<!-- Node1&#45;&gt;Node5 -->
<g id="edge4" class="edge">
<title>Node1&#45;&gt;Node5</title>
<path fill="none" stroke="midnightblue" d="M192.46,-61.17C205.15,-51.23 220.11,-39.51 231.53,-30.58"/>
<polygon fill="midnightblue" stroke="midnightblue" points="190.22,-58.47 184.51,-67.4 194.54,-63.99 190.22,-58.47"/>
</g>
<!-- Node2 -->
<g id="node2" class="node">
<title>Node2</title>
<g id="a_node2"><a xlink:href="structboost_1_1CopyConstructible.html" target="_top" xlink:title="Go to http://www.sgi.com/tech/stl/CopyConstructible.html.">
<polygon fill="white" stroke="black" points="0,-134.5 0,-153.5 167,-153.5 167,-134.5 0,-134.5"/>
<text text-anchor="middle" x="83.5" y="-141.5" font-family="FreeSans" font-size="10.00">boost::CopyConstructible&lt; T &gt;</text>
</a>
</g>
</g>
<!-- Node2&#45;&gt;Node1 -->
<g id="edge1" class="edge">
<title>Node2&#45;&gt;Node1</title>
<path fill="none" stroke="midnightblue" d="M103.77,-128.47C116.91,-119.05 133.94,-106.84 146.94,-97.52"/>
<polygon fill="midnightblue" stroke="midnightblue" points="101.48,-125.8 95.39,-134.48 105.56,-131.49 101.48,-125.8"/>
</g>
<!-- Node3 -->
<g id="node3" class="node">
<title>Node3</title>
<g id="a_node3"><a xlink:href="structboost_1_1Assignable.html" target="_top" xlink:title="Go to http://www.sgi.com/tech/stl/Assignable.html.">
<polygon fill="white" stroke="black" points="185,-134.5 185,-153.5 316,-153.5 316,-134.5 185,-134.5"/>
<text text-anchor="middle" x="250.5" y="-141.5" font-family="FreeSans" font-size="10.00">boost::Assignable&lt; T &gt;</text>
</a>
</g>
</g>
<!-- Node3&#45;&gt;Node1 -->
<g id="edge2" class="edge">
<title>Node3&#45;&gt;Node1</title>
<path fill="none" stroke="midnightblue" d="M229.98,-128.47C216.68,-119.05 199.45,-106.84 186.3,-97.52"/>
<polygon fill="midnightblue" stroke="midnightblue" points="228.28,-131.55 238.46,-134.48 232.33,-125.84 228.28,-131.55"/>
</g>
</g>
</svg>
