<?xml version="1.0" encoding="UTF-8" standalone="no"?>
<!DOCTYPE svg PUBLIC "-//W3C//DTD SVG 1.1//EN"
 "http://www.w3.org/Graphics/SVG/1.1/DTD/svg11.dtd">
<!-- Generated by graphviz version 2.43.0 (0)
 -->
<!-- Title: DGtal::concepts::CIncrementalPrimitiveComputer&lt; T &gt; Pages: 1 -->
<svg width="758pt" height="104pt"
 viewBox="0.00 0.00 758.00 104.00" xmlns="http://www.w3.org/2000/svg" xmlns:xlink="http://www.w3.org/1999/xlink">
<g id="graph0" class="graph" transform="scale(1 1) rotate(0) translate(4 100)">
<title>DGtal::concepts::CIncrementalPrimitiveComputer&lt; T &gt;</title>
<polygon fill="white" stroke="transparent" points="-4,4 -4,-100 754,-100 754,4 -4,4"/>
<!-- Node1 -->
<g id="node1" class="node">
<title>Node1</title>
<g id="a_node1"><a xlink:title="Aim: Defines the concept describing an object that computes some primitive from input points given on...">
<polygon fill="#bfbfbf" stroke="black" points="402,-33 402,-63 567,-63 567,-33 402,-33"/>
<text text-anchor="start" x="410" y="-51" font-family="FreeSans" font-size="10.00">DGtal::concepts::CIncremental</text>
<text text-anchor="middle" x="484.5" y="-40" font-family="FreeSans" font-size="10.00">PrimitiveComputer&lt; T &gt;</text>
</a>
</g>
</g>
<!-- Node6 -->
<g id="node6" class="node">
<title>Node6</title>
<g id="a_node6"><a xlink:href="structDGtal_1_1concepts_1_1CAdditivePrimitiveComputer.html" target="_top" xlink:title="Aim: Defines the concept describing an object that computes some primitive from input points given gr...">
<polygon fill="white" stroke="black" points="603,-33 603,-63 750,-63 750,-33 603,-33"/>
<text text-anchor="start" x="611" y="-51" font-family="FreeSans" font-size="10.00">DGtal::concepts::CAdditive</text>
<text text-anchor="middle" x="676.5" y="-40" font-family="FreeSans" font-size="10.00">PrimitiveComputer&lt; T &gt;</text>
</a>
</g>
</g>
<!-- Node1&#45;&gt;Node6 -->
<g id="edge5" class="edge">
<title>Node1&#45;&gt;Node6</title>
<path fill="none" stroke="midnightblue" d="M577.24,-48C585.85,-48 594.48,-48 602.87,-48"/>
<polygon fill="midnightblue" stroke="midnightblue" points="577.18,-44.5 567.18,-48 577.18,-51.5 577.18,-44.5"/>
</g>
<!-- Node2 -->
<g id="node2" class="node">
<title>Node2</title>
<g id="a_node2"><a xlink:href="structDGtal_1_1concepts_1_1CPrimitiveComputer.html" target="_top" xlink:title="Aim: Defines the concept describing an object that computes some primitive from input points,...">
<polygon fill="white" stroke="black" points="215,-33 215,-63 366,-63 366,-33 215,-33"/>
<text text-anchor="start" x="223" y="-51" font-family="FreeSans" font-size="10.00">DGtal::concepts::CPrimitive</text>
<text text-anchor="middle" x="290.5" y="-40" font-family="FreeSans" font-size="10.00">Computer&lt; T &gt;</text>
</a>
</g>
</g>
<!-- Node2&#45;&gt;Node1 -->
<g id="edge1" class="edge">
<title>Node2&#45;&gt;Node1</title>
<path fill="none" stroke="midnightblue" d="M376.25,-48C384.71,-48 393.28,-48 401.71,-48"/>
<polygon fill="midnightblue" stroke="midnightblue" points="376.01,-44.5 366.01,-48 376.01,-51.5 376.01,-44.5"/>
</g>
<!-- Node3 -->
<g id="node3" class="node">
<title>Node3</title>
<g id="a_node3"><a xlink:href="structboost_1_1DefaultConstructible.html" target="_top" xlink:title="Go to http://www.sgi.com/tech/stl/DefaultConstructible.html.">
<polygon fill="white" stroke="black" points="0,-76.5 0,-95.5 179,-95.5 179,-76.5 0,-76.5"/>
<text text-anchor="middle" x="89.5" y="-83.5" font-family="FreeSans" font-size="10.00">boost::DefaultConstructible&lt; T &gt;</text>
</a>
</g>
</g>
<!-- Node3&#45;&gt;Node2 -->
<g id="edge2" class="edge">
<title>Node3&#45;&gt;Node2</title>
<path fill="none" stroke="midnightblue" d="M150.46,-74.55C170.66,-70.69 193.46,-66.34 214.67,-62.29"/>
<polygon fill="midnightblue" stroke="midnightblue" points="149.63,-71.15 140.46,-76.46 150.94,-78.02 149.63,-71.15"/>
</g>
<!-- Node4 -->
<g id="node4" class="node">
<title>Node4</title>
<g id="a_node4"><a xlink:href="structboost_1_1CopyConstructible.html" target="_top" xlink:title="Go to http://www.sgi.com/tech/stl/CopyConstructible.html.">
<polygon fill="white" stroke="black" points="6,-38.5 6,-57.5 173,-57.5 173,-38.5 6,-38.5"/>
<text text-anchor="middle" x="89.5" y="-45.5" font-family="FreeSans" font-size="10.00">boost::CopyConstructible&lt; T &gt;</text>
</a>
</g>
</g>
<!-- Node4&#45;&gt;Node2 -->
<g id="edge3" class="edge">
<title>Node4&#45;&gt;Node2</title>
<path fill="none" stroke="midnightblue" d="M183.24,-48C193.79,-48 204.44,-48 214.72,-48"/>
<polygon fill="midnightblue" stroke="midnightblue" points="183.17,-44.5 173.17,-48 183.17,-51.5 183.17,-44.5"/>
</g>
<!-- Node5 -->
<g id="node5" class="node">
<title>Node5</title>
<g id="a_node5"><a xlink:href="structboost_1_1Assignable.html" target="_top" xlink:title="Go to http://www.sgi.com/tech/stl/Assignable.html.">
<polygon fill="white" stroke="black" points="24,-0.5 24,-19.5 155,-19.5 155,-0.5 24,-0.5"/>
<text text-anchor="middle" x="89.5" y="-7.5" font-family="FreeSans" font-size="10.00">boost::Assignable&lt; T &gt;</text>
</a>
</g>
</g>
<!-- Node5&#45;&gt;Node2 -->
<g id="edge4" class="edge">
<title>Node5&#45;&gt;Node2</title>
<path fill="none" stroke="midnightblue" d="M150.46,-21.45C170.66,-25.31 193.46,-29.66 214.67,-33.71"/>
<polygon fill="midnightblue" stroke="midnightblue" points="150.94,-17.98 140.46,-19.54 149.63,-24.85 150.94,-17.98"/>
</g>
</g>
</svg>
