<?xml version="1.0" encoding="UTF-8" standalone="no"?>
<!DOCTYPE svg PUBLIC "-//W3C//DTD SVG 1.1//EN"
 "http://www.w3.org/Graphics/SVG/1.1/DTD/svg11.dtd">
<!-- Generated by graphviz version 2.43.0 (0)
 -->
<!-- Title: DGtal::MultisetAssociativeCategory Pages: 1 -->
<svg width="701pt" height="137pt"
 viewBox="0.00 0.00 701.00 137.00" xmlns="http://www.w3.org/2000/svg" xmlns:xlink="http://www.w3.org/1999/xlink">
<g id="graph0" class="graph" transform="scale(1 1) rotate(0) translate(4 133)">
<title>DGtal::MultisetAssociativeCategory</title>
<polygon fill="white" stroke="transparent" points="-4,4 -4,-133 697,-133 697,4 -4,4"/>
<!-- Node1 -->
<g id="node1" class="node">
<title>Node1</title>
<g id="a_node1"><a xlink:title=" ">
<polygon fill="#bfbfbf" stroke="black" points="547,-49.5 547,-79.5 693,-79.5 693,-49.5 547,-49.5"/>
<text text-anchor="start" x="555" y="-67.5" font-family="FreeSans" font-size="10.00">DGtal::MultisetAssociative</text>
<text text-anchor="middle" x="620" y="-56.5" font-family="FreeSans" font-size="10.00">Category</text>
</a>
</g>
</g>
<!-- Node2 -->
<g id="node2" class="node">
<title>Node2</title>
<g id="a_node2"><a xlink:href="structDGtal_1_1OrderedAssociativeCategory.html" target="_top" xlink:title=" ">
<polygon fill="white" stroke="black" points="365,-98.5 365,-128.5 511,-128.5 511,-98.5 365,-98.5"/>
<text text-anchor="start" x="373" y="-116.5" font-family="FreeSans" font-size="10.00">DGtal::OrderedAssociative</text>
<text text-anchor="middle" x="438" y="-105.5" font-family="FreeSans" font-size="10.00">Category</text>
</a>
</g>
</g>
<!-- Node2&#45;&gt;Node1 -->
<g id="edge1" class="edge">
<title>Node2&#45;&gt;Node1</title>
<path fill="none" stroke="midnightblue" d="M504.2,-95.75C523.71,-90.44 544.9,-84.67 563.71,-79.55"/>
<polygon fill="midnightblue" stroke="midnightblue" points="503.2,-92.39 494.47,-98.4 505.04,-99.15 503.2,-92.39"/>
</g>
<!-- Node3 -->
<g id="node3" class="node">
<title>Node3</title>
<g id="a_node3"><a xlink:href="structDGtal_1_1AssociativeCategory.html" target="_top" xlink:title=" ">
<polygon fill="white" stroke="black" points="178,-55 178,-74 329,-74 329,-55 178,-55"/>
<text text-anchor="middle" x="253.5" y="-62" font-family="FreeSans" font-size="10.00">DGtal::AssociativeCategory</text>
</a>
</g>
</g>
<!-- Node3&#45;&gt;Node2 -->
<g id="edge2" class="edge">
<title>Node3&#45;&gt;Node2</title>
<path fill="none" stroke="midnightblue" d="M299.9,-76.69C324.45,-83.28 354.98,-91.48 380.99,-98.46"/>
<polygon fill="midnightblue" stroke="midnightblue" points="300.69,-73.28 290.12,-74.06 298.87,-80.04 300.69,-73.28"/>
</g>
<!-- Node5 -->
<g id="node5" class="node">
<title>Node5</title>
<g id="a_node5"><a xlink:href="structDGtal_1_1SimpleAssociativeCategory.html" target="_top" xlink:title=" ">
<polygon fill="white" stroke="black" points="368,-49.5 368,-79.5 508,-79.5 508,-49.5 368,-49.5"/>
<text text-anchor="start" x="376" y="-67.5" font-family="FreeSans" font-size="10.00">DGtal::SimpleAssociative</text>
<text text-anchor="middle" x="438" y="-56.5" font-family="FreeSans" font-size="10.00">Category</text>
</a>
</g>
</g>
<!-- Node3&#45;&gt;Node5 -->
<g id="edge5" class="edge">
<title>Node3&#45;&gt;Node5</title>
<path fill="none" stroke="midnightblue" d="M339.53,-64.5C349.05,-64.5 358.66,-64.5 367.94,-64.5"/>
<polygon fill="midnightblue" stroke="midnightblue" points="339.26,-61 329.26,-64.5 339.26,-68 339.26,-61"/>
</g>
<!-- Node6 -->
<g id="node6" class="node">
<title>Node6</title>
<g id="a_node6"><a xlink:href="structDGtal_1_1MultipleAssociativeCategory.html" target="_top" xlink:title=" ">
<polygon fill="white" stroke="black" points="365,-0.5 365,-30.5 511,-30.5 511,-0.5 365,-0.5"/>
<text text-anchor="start" x="373" y="-18.5" font-family="FreeSans" font-size="10.00">DGtal::MultipleAssociative</text>
<text text-anchor="middle" x="438" y="-7.5" font-family="FreeSans" font-size="10.00">Category</text>
</a>
</g>
</g>
<!-- Node3&#45;&gt;Node6 -->
<g id="edge7" class="edge">
<title>Node3&#45;&gt;Node6</title>
<path fill="none" stroke="midnightblue" d="M299.9,-52.31C324.45,-45.72 354.98,-37.52 380.99,-30.54"/>
<polygon fill="midnightblue" stroke="midnightblue" points="298.87,-48.96 290.12,-54.94 300.69,-55.72 298.87,-48.96"/>
</g>
<!-- Node4 -->
<g id="node4" class="node">
<title>Node4</title>
<g id="a_node4"><a xlink:href="structDGtal_1_1ContainerCategory.html" target="_top" xlink:title=" ">
<polygon fill="white" stroke="black" points="0,-55 0,-74 142,-74 142,-55 0,-55"/>
<text text-anchor="middle" x="71" y="-62" font-family="FreeSans" font-size="10.00">DGtal::ContainerCategory</text>
</a>
</g>
</g>
<!-- Node4&#45;&gt;Node3 -->
<g id="edge3" class="edge">
<title>Node4&#45;&gt;Node3</title>
<path fill="none" stroke="midnightblue" d="M152.28,-64.5C160.74,-64.5 169.32,-64.5 177.71,-64.5"/>
<polygon fill="midnightblue" stroke="midnightblue" points="152.04,-61 142.04,-64.5 152.04,-68 152.04,-61"/>
</g>
<!-- Node5&#45;&gt;Node1 -->
<g id="edge4" class="edge">
<title>Node5&#45;&gt;Node1</title>
<path fill="none" stroke="midnightblue" d="M518.29,-64.5C527.79,-64.5 537.44,-64.5 546.82,-64.5"/>
<polygon fill="midnightblue" stroke="midnightblue" points="518.08,-61 508.08,-64.5 518.08,-68 518.08,-61"/>
</g>
<!-- Node6&#45;&gt;Node1 -->
<g id="edge6" class="edge">
<title>Node6&#45;&gt;Node1</title>
<path fill="none" stroke="midnightblue" d="M504.2,-33.25C523.71,-38.56 544.9,-44.33 563.71,-49.45"/>
<polygon fill="midnightblue" stroke="midnightblue" points="505.04,-29.85 494.47,-30.6 503.2,-36.61 505.04,-29.85"/>
</g>
</g>
</svg>
