<?xml version="1.0" encoding="UTF-8" standalone="no"?>
<!DOCTYPE svg PUBLIC "-//W3C//DTD SVG 1.1//EN"
 "http://www.w3.org/Graphics/SVG/1.1/DTD/svg11.dtd">
<!-- Generated by graphviz version 2.43.0 (0)
 -->
<!-- Title: DGtal::concepts::CUnaryFunctor&lt; X, A &amp;, R &amp; &gt; Pages: 1 -->
<svg width="180pt" height="163pt"
 viewBox="0.00 0.00 180.00 163.00" xmlns="http://www.w3.org/2000/svg" xmlns:xlink="http://www.w3.org/1999/xlink">
<g id="graph0" class="graph" transform="scale(1 1) rotate(0) translate(4 159)">
<title>DGtal::concepts::CUnaryFunctor&lt; X, A &amp;, R &amp; &gt;</title>
<polygon fill="white" stroke="transparent" points="-4,4 -4,-159 176,-159 176,4 -4,4"/>
<!-- Node1 -->
<g id="node1" class="node">
<title>Node1</title>
<g id="a_node1"><a xlink:title=" ">
<polygon fill="#bfbfbf" stroke="black" points="0,-0.5 0,-30.5 172,-30.5 172,-0.5 0,-0.5"/>
<text text-anchor="start" x="8" y="-18.5" font-family="FreeSans" font-size="10.00">DGtal::concepts::CUnaryFunctor</text>
<text text-anchor="middle" x="86" y="-7.5" font-family="FreeSans" font-size="10.00">&lt; X, A &amp;, R &amp; &gt;</text>
</a>
</g>
</g>
<!-- Node2 -->
<g id="node2" class="node">
<title>Node2</title>
<g id="a_node2"><a xlink:href="structboost_1_1Assignable.html" target="_top" xlink:title=" ">
<polygon fill="white" stroke="black" points="20,-68.5 20,-87.5 152,-87.5 152,-68.5 20,-68.5"/>
<text text-anchor="middle" x="86" y="-75.5" font-family="FreeSans" font-size="10.00">boost::Assignable&lt; X &gt;</text>
</a>
</g>
</g>
<!-- Node2&#45;&gt;Node1 -->
<g id="edge1" class="edge">
<title>Node2&#45;&gt;Node1</title>
<path fill="none" stroke="midnightblue" d="M86,-58.22C86,-49.36 86,-38.96 86,-30.76"/>
<polygon fill="midnightblue" stroke="midnightblue" points="82.5,-58.33 86,-68.33 89.5,-58.33 82.5,-58.33"/>
</g>
<!-- Node3 -->
<g id="node3" class="node">
<title>Node3</title>
<g id="a_node3"><a xlink:href="structboost_1_1Assignable.html" target="_top" xlink:title="Go to http://www.sgi.com/tech/stl/Assignable.html.">
<polygon fill="white" stroke="black" points="20.5,-135.5 20.5,-154.5 151.5,-154.5 151.5,-135.5 20.5,-135.5"/>
<text text-anchor="middle" x="86" y="-142.5" font-family="FreeSans" font-size="10.00">boost::Assignable&lt; T &gt;</text>
</a>
</g>
</g>
<!-- Node3&#45;&gt;Node2 -->
<g id="edge2" class="edge">
<title>Node3&#45;&gt;Node2</title>
<path fill="none" stroke="orange" stroke-dasharray="5,2" d="M86,-125.04C86,-112.67 86,-97.12 86,-87.63"/>
<polygon fill="orange" stroke="orange" points="82.5,-125.23 86,-135.23 89.5,-125.23 82.5,-125.23"/>
<text text-anchor="middle" x="102.5" y="-109" font-family="FreeSans" font-size="10.00"> &lt; X &gt;</text>
</g>
</g>
</svg>
