<?xml version="1.0" encoding="UTF-8" standalone="no"?>
<!DOCTYPE svg PUBLIC "-//W3C//DTD SVG 1.1//EN"
 "http://www.w3.org/Graphics/SVG/1.1/DTD/svg11.dtd">
<!-- Generated by graphviz version 2.43.0 (0)
 -->
<!-- Title: DGtal::concepts::CDigitalSurfaceEmbedder&lt; T &gt; Pages: 1 -->
<svg width="305pt" height="366pt"
 viewBox="0.00 0.00 304.50 366.00" xmlns="http://www.w3.org/2000/svg" xmlns:xlink="http://www.w3.org/1999/xlink">
<g id="graph0" class="graph" transform="scale(1 1) rotate(0) translate(4 362)">
<title>DGtal::concepts::CDigitalSurfaceEmbedder&lt; T &gt;</title>
<polygon fill="white" stroke="transparent" points="-4,4 -4,-362 300.5,-362 300.5,4 -4,4"/>
<!-- Node1 -->
<g id="node1" class="node">
<title>Node1</title>
<g id="a_node1"><a xlink:title="Aim: A digital surface embedder is a specialized mapping from signed cells to Euclidean points....">
<polygon fill="#bfbfbf" stroke="black" points="35,-0.5 35,-30.5 174,-30.5 174,-0.5 35,-0.5"/>
<text text-anchor="start" x="43" y="-18.5" font-family="FreeSans" font-size="10.00">DGtal::concepts::CDigital</text>
<text text-anchor="middle" x="104.5" y="-7.5" font-family="FreeSans" font-size="10.00">SurfaceEmbedder&lt; T &gt;</text>
</a>
</g>
</g>
<!-- Node2 -->
<g id="node2" class="node">
<title>Node2</title>
<g id="a_node2"><a xlink:href="structDGtal_1_1concepts_1_1CSCellEmbedder.html" target="_top" xlink:title="Aim: A cell embedder is a mapping from signed cells to Euclidean points. It adds inner types to funct...">
<polygon fill="white" stroke="black" points="0,-68.5 0,-87.5 209,-87.5 209,-68.5 0,-68.5"/>
<text text-anchor="middle" x="104.5" y="-75.5" font-family="FreeSans" font-size="10.00">DGtal::concepts::CSCellEmbedder&lt; T &gt;</text>
</a>
</g>
</g>
<!-- Node2&#45;&gt;Node1 -->
<g id="edge1" class="edge">
<title>Node2&#45;&gt;Node1</title>
<path fill="none" stroke="midnightblue" d="M104.5,-58.22C104.5,-49.36 104.5,-38.96 104.5,-30.76"/>
<polygon fill="midnightblue" stroke="midnightblue" points="101,-58.33 104.5,-68.33 108,-58.33 101,-58.33"/>
</g>
<!-- Node3 -->
<g id="node3" class="node">
<title>Node3</title>
<g id="a_node3"><a xlink:href="structDGtal_1_1concepts_1_1CUnaryFunctor.html" target="_top" xlink:title=" ">
<polygon fill="white" stroke="black" points="18.5,-125.5 18.5,-155.5 190.5,-155.5 190.5,-125.5 18.5,-125.5"/>
<text text-anchor="start" x="26.5" y="-143.5" font-family="FreeSans" font-size="10.00">DGtal::concepts::CUnaryFunctor</text>
<text text-anchor="middle" x="104.5" y="-132.5" font-family="FreeSans" font-size="10.00">&lt; T, T::SCell, T::RealPoint &gt;</text>
</a>
</g>
</g>
<!-- Node3&#45;&gt;Node2 -->
<g id="edge2" class="edge">
<title>Node3&#45;&gt;Node2</title>
<path fill="none" stroke="midnightblue" d="M104.5,-115.35C104.5,-105.51 104.5,-94.78 104.5,-87.54"/>
<polygon fill="midnightblue" stroke="midnightblue" points="101,-115.47 104.5,-125.47 108,-115.47 101,-115.47"/>
</g>
<!-- Node4 -->
<g id="node4" class="node">
<title>Node4</title>
<g id="a_node4"><a xlink:href="structboost_1_1Assignable.html" target="_top" xlink:title="Go to http://www.sgi.com/tech/stl/Assignable.html.">
<polygon fill="white" stroke="black" points="39,-338.5 39,-357.5 170,-357.5 170,-338.5 39,-338.5"/>
<text text-anchor="middle" x="104.5" y="-345.5" font-family="FreeSans" font-size="10.00">boost::Assignable&lt; T &gt;</text>
</a>
</g>
</g>
<!-- Node4&#45;&gt;Node3 -->
<g id="edge3" class="edge">
<title>Node4&#45;&gt;Node3</title>
<path fill="none" stroke="midnightblue" d="M104.5,-328.32C104.5,-287.69 104.5,-192.02 104.5,-155.77"/>
<polygon fill="midnightblue" stroke="midnightblue" points="101,-328.43 104.5,-338.43 108,-328.43 101,-328.43"/>
</g>
<!-- Node6 -->
<g id="node6" class="node">
<title>Node6</title>
<g id="a_node6"><a xlink:href="structboost_1_1Assignable.html" target="_top" xlink:title=" ">
<polygon fill="white" stroke="black" points="126.5,-271.5 126.5,-290.5 258.5,-290.5 258.5,-271.5 126.5,-271.5"/>
<text text-anchor="middle" x="192.5" y="-278.5" font-family="FreeSans" font-size="10.00">boost::Assignable&lt; X &gt;</text>
</a>
</g>
</g>
<!-- Node4&#45;&gt;Node6 -->
<g id="edge6" class="edge">
<title>Node4&#45;&gt;Node6</title>
<path fill="none" stroke="orange" stroke-dasharray="5,2" d="M124.72,-332.07C142.09,-319.24 166.53,-301.19 180.82,-290.63"/>
<polygon fill="orange" stroke="orange" points="122.33,-329.48 116.37,-338.23 126.49,-335.11 122.33,-329.48"/>
<text text-anchor="middle" x="170" y="-312" font-family="FreeSans" font-size="10.00"> &lt; X &gt;</text>
</g>
<!-- Node5 -->
<g id="node5" class="node">
<title>Node5</title>
<g id="a_node5"><a xlink:href="structDGtal_1_1concepts_1_1CUnaryFunctor.html" target="_top" xlink:title="Aim: Defines a unary functor, which associates arguments to results.">
<polygon fill="white" stroke="black" points="116.5,-203.5 116.5,-233.5 288.5,-233.5 288.5,-203.5 116.5,-203.5"/>
<text text-anchor="start" x="124.5" y="-221.5" font-family="FreeSans" font-size="10.00">DGtal::concepts::CUnaryFunctor</text>
<text text-anchor="middle" x="202.5" y="-210.5" font-family="FreeSans" font-size="10.00">&lt; X, A, R &gt;</text>
</a>
</g>
</g>
<!-- Node5&#45;&gt;Node3 -->
<g id="edge4" class="edge">
<title>Node5&#45;&gt;Node3</title>
<path fill="none" stroke="orange" stroke-dasharray="5,2" d="M175.75,-196.75C158.96,-183.73 137.75,-167.28 122.85,-155.73"/>
<polygon fill="orange" stroke="orange" points="174.02,-199.84 184.07,-203.2 178.31,-194.31 174.02,-199.84"/>
<text text-anchor="middle" x="227.5" y="-177" font-family="FreeSans" font-size="10.00"> &lt; T, T::SCell, T::RealPoint &gt;</text>
</g>
<!-- Node6&#45;&gt;Node5 -->
<g id="edge5" class="edge">
<title>Node6&#45;&gt;Node5</title>
<path fill="none" stroke="midnightblue" d="M195.6,-261.22C197.07,-252.36 198.79,-241.96 200.14,-233.76"/>
<polygon fill="midnightblue" stroke="midnightblue" points="192.11,-260.89 193.93,-271.33 199.02,-262.04 192.11,-260.89"/>
</g>
</g>
</svg>
