<?xml version="1.0" encoding="UTF-8" standalone="no"?>
<!DOCTYPE svg PUBLIC "-//W3C//DTD SVG 1.1//EN"
 "http://www.w3.org/Graphics/SVG/1.1/DTD/svg11.dtd">
<!-- Generated by graphviz version 2.43.0 (0)
 -->
<!-- Title: DGtal::details::NumberTraitsImplFundamental&lt; T &gt; Pages: 1 -->
<svg width="345pt" height="132pt"
 viewBox="0.00 0.00 345.00 132.00" xmlns="http://www.w3.org/2000/svg" xmlns:xlink="http://www.w3.org/1999/xlink">
<g id="graph0" class="graph" transform="scale(1 1) rotate(0) translate(4 128)">
<title>DGtal::details::NumberTraitsImplFundamental&lt; T &gt;</title>
<polygon fill="white" stroke="transparent" points="-4,4 -4,-128 341,-128 341,4 -4,4"/>
<!-- Node1 -->
<g id="node1" class="node">
<title>Node1</title>
<g id="a_node1"><a xlink:title="NumberTraits common part for fundamental integer and floating&#45;point types.">
<polygon fill="#bfbfbf" stroke="black" points="0,-46.5 0,-76.5 155,-76.5 155,-46.5 0,-46.5"/>
<text text-anchor="start" x="8" y="-64.5" font-family="FreeSans" font-size="10.00">DGtal::details::NumberTraits</text>
<text text-anchor="middle" x="77.5" y="-53.5" font-family="FreeSans" font-size="10.00">ImplFundamental&lt; T &gt;</text>
</a>
</g>
</g>
<!-- Node2 -->
<g id="node2" class="node">
<title>Node2</title>
<g id="a_node2"><a xlink:href="structDGtal_1_1NumberTraitsImpl_3_01T_00_01typename_01std_1_1enable__if_3_01std_1_1is__floating_29bbe2652e6d58e33f41f614fd754864.html" target="_top" xlink:title="Specialization of NumberTraitsImpl for fundamental floating&#45;point types.">
<polygon fill="white" stroke="black" points="191,-71.5 191,-123.5 337,-123.5 337,-71.5 191,-71.5"/>
<text text-anchor="start" x="199" y="-111.5" font-family="FreeSans" font-size="10.00">DGtal::NumberTraitsImpl</text>
<text text-anchor="start" x="199" y="-100.5" font-family="FreeSans" font-size="10.00">&lt; T, typename std::enable</text>
<text text-anchor="start" x="199" y="-89.5" font-family="FreeSans" font-size="10.00">_if&lt; std::is_floating_point</text>
<text text-anchor="middle" x="264" y="-78.5" font-family="FreeSans" font-size="10.00">&lt; T &gt;::value &gt;::type &gt;</text>
</a>
</g>
</g>
<!-- Node1&#45;&gt;Node2 -->
<g id="edge1" class="edge">
<title>Node1&#45;&gt;Node2</title>
<path fill="none" stroke="midnightblue" d="M165.15,-78.41C173.71,-80.08 182.34,-81.76 190.74,-83.4"/>
<polygon fill="midnightblue" stroke="midnightblue" points="165.63,-74.93 155.14,-76.45 164.29,-81.8 165.63,-74.93"/>
</g>
<!-- Node3 -->
<g id="node3" class="node">
<title>Node3</title>
<g id="a_node3"><a xlink:href="structDGtal_1_1NumberTraitsImpl_3_01T_00_01typename_01std_1_1enable__if_3_01std_1_1is__integral_1ce5c08ef142b54c10962f6a14786276.html" target="_top" xlink:title="Specialization of NumberTraitsImpl for fundamental integer types.">
<polygon fill="white" stroke="black" points="191,-0.5 191,-52.5 337,-52.5 337,-0.5 191,-0.5"/>
<text text-anchor="start" x="199" y="-40.5" font-family="FreeSans" font-size="10.00">DGtal::NumberTraitsImpl</text>
<text text-anchor="start" x="199" y="-29.5" font-family="FreeSans" font-size="10.00">&lt; T, typename std::enable</text>
<text text-anchor="start" x="199" y="-18.5" font-family="FreeSans" font-size="10.00">_if&lt; std::is_integral&lt; T</text>
<text text-anchor="middle" x="264" y="-7.5" font-family="FreeSans" font-size="10.00"> &gt;::value &gt;::type &gt;</text>
</a>
</g>
</g>
<!-- Node1&#45;&gt;Node3 -->
<g id="edge2" class="edge">
<title>Node1&#45;&gt;Node3</title>
<path fill="none" stroke="midnightblue" d="M165.15,-45.06C173.71,-43.44 182.34,-41.8 190.74,-40.21"/>
<polygon fill="midnightblue" stroke="midnightblue" points="164.31,-41.66 155.14,-46.96 165.62,-48.54 164.31,-41.66"/>
</g>
</g>
</svg>
