<?xml version="1.0" encoding="UTF-8" standalone="no"?>
<!DOCTYPE svg PUBLIC "-//W3C//DTD SVG 1.1//EN"
 "http://www.w3.org/Graphics/SVG/1.1/DTD/svg11.dtd">
<!-- Generated by graphviz version 2.43.0 (0)
 -->
<!-- Title: DGtal::concepts::CUndirectedSimpleGraph&lt; T &gt; Pages: 1 -->
<svg width="368pt" height="88pt"
 viewBox="0.00 0.00 368.00 88.00" xmlns="http://www.w3.org/2000/svg" xmlns:xlink="http://www.w3.org/1999/xlink">
<g id="graph0" class="graph" transform="scale(1 1) rotate(0) translate(4 84)">
<title>DGtal::concepts::CUndirectedSimpleGraph&lt; T &gt;</title>
<polygon fill="white" stroke="transparent" points="-4,4 -4,-84 364,-84 364,4 -4,4"/>
<!-- Node1 -->
<g id="node1" class="node">
<title>Node1</title>
<g id="a_node1"><a xlink:title="Aim: Represents the concept of local graph: each vertex has neighboring vertices, but we do not neces...">
<polygon fill="#bfbfbf" stroke="black" points="200,-24.5 200,-54.5 360,-54.5 360,-24.5 200,-24.5"/>
<text text-anchor="start" x="208" y="-42.5" font-family="FreeSans" font-size="10.00">DGtal::concepts::CUndirected</text>
<text text-anchor="middle" x="280" y="-31.5" font-family="FreeSans" font-size="10.00">SimpleGraph&lt; T &gt;</text>
</a>
</g>
</g>
<!-- Node2 -->
<g id="node2" class="node">
<title>Node2</title>
<g id="a_node2"><a xlink:href="structDGtal_1_1concepts_1_1CUndirectedSimpleLocalGraph.html" target="_top" xlink:title="Aim: Represents the concept of local graph: each vertex has neighboring vertices, but we do not neces...">
<polygon fill="white" stroke="black" points="2,-49.5 2,-79.5 162,-79.5 162,-49.5 2,-49.5"/>
<text text-anchor="start" x="10" y="-67.5" font-family="FreeSans" font-size="10.00">DGtal::concepts::CUndirected</text>
<text text-anchor="middle" x="82" y="-56.5" font-family="FreeSans" font-size="10.00">SimpleLocalGraph&lt; T &gt;</text>
</a>
</g>
</g>
<!-- Node2&#45;&gt;Node1 -->
<g id="edge1" class="edge">
<title>Node2&#45;&gt;Node1</title>
<path fill="none" stroke="midnightblue" d="M172.13,-53.13C181.38,-51.95 190.74,-50.76 199.87,-49.59"/>
<polygon fill="midnightblue" stroke="midnightblue" points="171.63,-49.67 162.16,-54.4 172.52,-56.61 171.63,-49.67"/>
</g>
<!-- Node3 -->
<g id="node3" class="node">
<title>Node3</title>
<g id="a_node3"><a xlink:href="structDGtal_1_1concepts_1_1CConstSinglePassRange.html" target="_top" xlink:title="Aim: Defines the concept describing a const single pass range.">
<polygon fill="white" stroke="black" points="0,-0.5 0,-30.5 164,-30.5 164,-0.5 0,-0.5"/>
<text text-anchor="start" x="8" y="-18.5" font-family="FreeSans" font-size="10.00">DGtal::concepts::CConstSingle</text>
<text text-anchor="middle" x="82" y="-7.5" font-family="FreeSans" font-size="10.00">PassRange&lt; T &gt;</text>
</a>
</g>
</g>
<!-- Node3&#45;&gt;Node1 -->
<g id="edge2" class="edge">
<title>Node3&#45;&gt;Node1</title>
<path fill="none" stroke="midnightblue" d="M174.15,-26.66C182.72,-27.71 191.37,-28.77 199.82,-29.8"/>
<polygon fill="midnightblue" stroke="midnightblue" points="174.49,-23.18 164.14,-25.43 173.64,-30.12 174.49,-23.18"/>
</g>
</g>
</svg>
