<?xml version="1.0" encoding="UTF-8" standalone="no"?>
<!DOCTYPE svg PUBLIC "-//W3C//DTD SVG 1.1//EN"
 "http://www.w3.org/Graphics/SVG/1.1/DTD/svg11.dtd">
<!-- Generated by graphviz version 2.43.0 (0)
 -->
<!-- Title: DGtal::Display3D&lt; Space, KSpace &gt;::CommonD3D Pages: 1 -->
<svg width="349pt" height="333pt"
 viewBox="0.00 0.00 349.00 333.00" xmlns="http://www.w3.org/2000/svg" xmlns:xlink="http://www.w3.org/1999/xlink">
<g id="graph0" class="graph" transform="scale(1 1) rotate(0) translate(4 329)">
<title>DGtal::Display3D&lt; Space, KSpace &gt;::CommonD3D</title>
<polygon fill="white" stroke="transparent" points="-4,4 -4,-329 345,-329 345,4 -4,4"/>
<!-- Node1 -->
<g id="node1" class="node">
<title>Node1</title>
<g id="a_node1"><a xlink:title=" ">
<polygon fill="#bfbfbf" stroke="black" points="0,-147.5 0,-177.5 144,-177.5 144,-147.5 0,-147.5"/>
<text text-anchor="start" x="8" y="-165.5" font-family="FreeSans" font-size="10.00">DGtal::Display3D&lt; Space,</text>
<text text-anchor="middle" x="72" y="-154.5" font-family="FreeSans" font-size="10.00"> KSpace &gt;::CommonD3D</text>
</a>
</g>
</g>
<!-- Node2 -->
<g id="node2" class="node">
<title>Node2</title>
<g id="a_node2"><a xlink:href="structDGtal_1_1Display3D_1_1BallD3D.html" target="_top" xlink:title=" ">
<polygon fill="white" stroke="black" points="188.5,-294.5 188.5,-324.5 332.5,-324.5 332.5,-294.5 188.5,-294.5"/>
<text text-anchor="start" x="196.5" y="-312.5" font-family="FreeSans" font-size="10.00">DGtal::Display3D&lt; Space,</text>
<text text-anchor="middle" x="260.5" y="-301.5" font-family="FreeSans" font-size="10.00"> KSpace &gt;::BallD3D</text>
</a>
</g>
</g>
<!-- Node1&#45;&gt;Node2 -->
<g id="edge1" class="edge">
<title>Node1&#45;&gt;Node2</title>
<path fill="none" stroke="midnightblue" d="M87.79,-186.51C106.11,-214.29 139.86,-259.54 180,-285.5 185.33,-288.94 191.17,-291.91 197.2,-294.47"/>
<polygon fill="midnightblue" stroke="midnightblue" points="90.54,-184.32 82.18,-177.81 84.66,-188.11 90.54,-184.32"/>
</g>
<!-- Node3 -->
<g id="node3" class="node">
<title>Node3</title>
<g id="a_node3"><a xlink:href="structDGtal_1_1Display3D_1_1ClippingPlaneD3D.html" target="_top" xlink:title=" ">
<polygon fill="white" stroke="black" points="180,-245.5 180,-275.5 341,-275.5 341,-245.5 180,-245.5"/>
<text text-anchor="start" x="188" y="-263.5" font-family="FreeSans" font-size="10.00">DGtal::Display3D&lt; Space,</text>
<text text-anchor="middle" x="260.5" y="-252.5" font-family="FreeSans" font-size="10.00"> KSpace &gt;::ClippingPlaneD3D</text>
</a>
</g>
</g>
<!-- Node1&#45;&gt;Node3 -->
<g id="edge2" class="edge">
<title>Node1&#45;&gt;Node3</title>
<path fill="none" stroke="midnightblue" d="M99.26,-184.15C120.08,-200.42 150.49,-222.28 180,-236.5 186.88,-239.82 194.32,-242.79 201.8,-245.42"/>
<polygon fill="midnightblue" stroke="midnightblue" points="101.23,-181.25 91.22,-177.77 96.88,-186.73 101.23,-181.25"/>
</g>
<!-- Node4 -->
<g id="node4" class="node">
<title>Node4</title>
<g id="a_node4"><a xlink:href="structDGtal_1_1Display3D_1_1CubeD3D.html" target="_top" xlink:title=" ">
<polygon fill="white" stroke="black" points="188.5,-196.5 188.5,-226.5 332.5,-226.5 332.5,-196.5 188.5,-196.5"/>
<text text-anchor="start" x="196.5" y="-214.5" font-family="FreeSans" font-size="10.00">DGtal::Display3D&lt; Space,</text>
<text text-anchor="middle" x="260.5" y="-203.5" font-family="FreeSans" font-size="10.00"> KSpace &gt;::CubeD3D</text>
</a>
</g>
</g>
<!-- Node1&#45;&gt;Node4 -->
<g id="edge3" class="edge">
<title>Node1&#45;&gt;Node4</title>
<path fill="none" stroke="midnightblue" d="M140.07,-180.12C160.48,-185.48 182.7,-191.32 202.38,-196.49"/>
<polygon fill="midnightblue" stroke="midnightblue" points="140.78,-176.69 130.22,-177.53 139.01,-183.46 140.78,-176.69"/>
</g>
<!-- Node5 -->
<g id="node5" class="node">
<title>Node5</title>
<g id="a_node5"><a xlink:href="structDGtal_1_1Display3D_1_1LineD3D.html" target="_top" xlink:title=" ">
<polygon fill="white" stroke="black" points="188.5,-147.5 188.5,-177.5 332.5,-177.5 332.5,-147.5 188.5,-147.5"/>
<text text-anchor="start" x="196.5" y="-165.5" font-family="FreeSans" font-size="10.00">DGtal::Display3D&lt; Space,</text>
<text text-anchor="middle" x="260.5" y="-154.5" font-family="FreeSans" font-size="10.00"> KSpace &gt;::LineD3D</text>
</a>
</g>
</g>
<!-- Node1&#45;&gt;Node5 -->
<g id="edge4" class="edge">
<title>Node1&#45;&gt;Node5</title>
<path fill="none" stroke="midnightblue" d="M154.35,-162.5C165.67,-162.5 177.23,-162.5 188.35,-162.5"/>
<polygon fill="midnightblue" stroke="midnightblue" points="154.04,-159 144.04,-162.5 154.04,-166 154.04,-159"/>
</g>
<!-- Node6 -->
<g id="node6" class="node">
<title>Node6</title>
<g id="a_node6"><a xlink:href="structDGtal_1_1Display3D_1_1PolygonD3D.html" target="_top" xlink:title=" ">
<polygon fill="white" stroke="black" points="188.5,-98.5 188.5,-128.5 332.5,-128.5 332.5,-98.5 188.5,-98.5"/>
<text text-anchor="start" x="196.5" y="-116.5" font-family="FreeSans" font-size="10.00">DGtal::Display3D&lt; Space,</text>
<text text-anchor="middle" x="260.5" y="-105.5" font-family="FreeSans" font-size="10.00"> KSpace &gt;::PolygonD3D</text>
</a>
</g>
</g>
<!-- Node1&#45;&gt;Node6 -->
<g id="edge5" class="edge">
<title>Node1&#45;&gt;Node6</title>
<path fill="none" stroke="midnightblue" d="M140.07,-144.88C160.48,-139.52 182.7,-133.68 202.38,-128.51"/>
<polygon fill="midnightblue" stroke="midnightblue" points="139.01,-141.54 130.22,-147.47 140.78,-148.31 139.01,-141.54"/>
</g>
<!-- Node7 -->
<g id="node7" class="node">
<title>Node7</title>
<g id="a_node7"><a xlink:href="structDGtal_1_1Display3D_1_1QuadD3D.html" target="_top" xlink:title=" ">
<polygon fill="white" stroke="black" points="188.5,-49.5 188.5,-79.5 332.5,-79.5 332.5,-49.5 188.5,-49.5"/>
<text text-anchor="start" x="196.5" y="-67.5" font-family="FreeSans" font-size="10.00">DGtal::Display3D&lt; Space,</text>
<text text-anchor="middle" x="260.5" y="-56.5" font-family="FreeSans" font-size="10.00"> KSpace &gt;::QuadD3D</text>
</a>
</g>
</g>
<!-- Node1&#45;&gt;Node7 -->
<g id="edge6" class="edge">
<title>Node1&#45;&gt;Node7</title>
<path fill="none" stroke="midnightblue" d="M99.73,-140.97C120.59,-125.01 150.84,-103.65 180,-89.5 187.68,-85.77 196.04,-82.44 204.37,-79.51"/>
<polygon fill="midnightblue" stroke="midnightblue" points="97.42,-138.33 91.67,-147.23 101.71,-143.86 97.42,-138.33"/>
</g>
<!-- Node8 -->
<g id="node8" class="node">
<title>Node8</title>
<g id="a_node8"><a xlink:href="structDGtal_1_1Display3D_1_1TriangleD3D.html" target="_top" xlink:title=" ">
<polygon fill="white" stroke="black" points="188.5,-0.5 188.5,-30.5 332.5,-30.5 332.5,-0.5 188.5,-0.5"/>
<text text-anchor="start" x="196.5" y="-18.5" font-family="FreeSans" font-size="10.00">DGtal::Display3D&lt; Space,</text>
<text text-anchor="middle" x="260.5" y="-7.5" font-family="FreeSans" font-size="10.00"> KSpace &gt;::TriangleD3D</text>
</a>
</g>
</g>
<!-- Node1&#45;&gt;Node8 -->
<g id="edge7" class="edge">
<title>Node1&#45;&gt;Node8</title>
<path fill="none" stroke="midnightblue" d="M87.89,-138.77C106.3,-111.29 140.14,-66.49 180,-40.5 185.94,-36.63 192.52,-33.32 199.27,-30.51"/>
<polygon fill="midnightblue" stroke="midnightblue" points="84.8,-137.09 82.25,-147.37 90.66,-140.93 84.8,-137.09"/>
</g>
</g>
</svg>
