<?xml version="1.0" encoding="UTF-8" standalone="no"?>
<!DOCTYPE svg PUBLIC "-//W3C//DTD SVG 1.1//EN"
 "http://www.w3.org/Graphics/SVG/1.1/DTD/svg11.dtd">
<!-- Generated by graphviz version 2.43.0 (0)
 -->
<!-- Title: DGtal::UnorderedSetByBlock&lt; Key, TSplitter, Hash, KeyEqual, UnorderedMapAllocator &gt;::iterator Pages: 1 -->
<svg width="369pt" height="61pt"
 viewBox="0.00 0.00 369.00 61.00" xmlns="http://www.w3.org/2000/svg" xmlns:xlink="http://www.w3.org/1999/xlink">
<g id="graph0" class="graph" transform="scale(1 1) rotate(0) translate(4 57)">
<title>DGtal::UnorderedSetByBlock&lt; Key, TSplitter, Hash, KeyEqual, UnorderedMapAllocator &gt;::iterator</title>
<polygon fill="white" stroke="transparent" points="-4,4 -4,-57 365,-57 365,4 -4,4"/>
<!-- Node1 -->
<g id="node1" class="node">
<title>Node1</title>
<g id="a_node1"><a xlink:title="Read&#45;write iterator on set elements. Model of ForwardIterator.">
<polygon fill="#bfbfbf" stroke="black" points="175,-0.5 175,-52.5 361,-52.5 361,-0.5 175,-0.5"/>
<text text-anchor="start" x="183" y="-40.5" font-family="FreeSans" font-size="10.00">DGtal::UnorderedSetByBlock</text>
<text text-anchor="start" x="183" y="-29.5" font-family="FreeSans" font-size="10.00">&lt; Key, TSplitter, Hash,</text>
<text text-anchor="start" x="183" y="-18.5" font-family="FreeSans" font-size="10.00"> KeyEqual, UnorderedMapAllocator</text>
<text text-anchor="middle" x="268" y="-7.5" font-family="FreeSans" font-size="10.00"> &gt;::iterator</text>
</a>
</g>
</g>
<!-- Node2 -->
<g id="node2" class="node">
<title>Node2</title>
<g id="a_node2"><a xlink:title=" ">
<polygon fill="white" stroke="#bfbfbf" points="0,-0.5 0,-52.5 139,-52.5 139,-0.5 0,-0.5"/>
<text text-anchor="start" x="8" y="-40.5" font-family="FreeSans" font-size="10.00">boost::iterator_facade</text>
<text text-anchor="start" x="8" y="-29.5" font-family="FreeSans" font-size="10.00">&lt; iterator, Key const,</text>
<text text-anchor="start" x="8" y="-18.5" font-family="FreeSans" font-size="10.00"> boost::forward_traversal</text>
<text text-anchor="middle" x="69.5" y="-7.5" font-family="FreeSans" font-size="10.00">_tag, Key const &gt;</text>
</a>
</g>
</g>
<!-- Node2&#45;&gt;Node1 -->
<g id="edge1" class="edge">
<title>Node2&#45;&gt;Node1</title>
<path fill="none" stroke="midnightblue" d="M149.34,-26.5C157.72,-26.5 166.31,-26.5 174.83,-26.5"/>
<polygon fill="midnightblue" stroke="midnightblue" points="149.23,-23 139.23,-26.5 149.23,-30 149.23,-23"/>
</g>
</g>
</svg>
