<?xml version="1.0" encoding="UTF-8" standalone="no"?>
<!DOCTYPE svg PUBLIC "-//W3C//DTD SVG 1.1//EN"
 "http://www.w3.org/Graphics/SVG/1.1/DTD/svg11.dtd">
<!-- Generated by graphviz version 2.43.0 (0)
 -->
<!-- Title: DGtal::DrawWithViewer3DModifier Pages: 1 -->
<svg width="638pt" height="546pt"
 viewBox="0.00 0.00 638.00 545.50" xmlns="http://www.w3.org/2000/svg" xmlns:xlink="http://www.w3.org/1999/xlink">
<g id="graph0" class="graph" transform="scale(1 1) rotate(0) translate(4 541.5)">
<title>DGtal::DrawWithViewer3DModifier</title>
<polygon fill="white" stroke="transparent" points="-4,4 -4,-541.5 634,-541.5 634,4 -4,4"/>
<!-- Node1 -->
<g id="node1" class="node">
<title>Node1</title>
<g id="a_node1"><a xlink:title="Base class specifying the methods for classes which intend to modify a Viewer3D stream.">
<polygon fill="#bfbfbf" stroke="black" points="224,-265 224,-284 409,-284 409,-265 224,-265"/>
<text text-anchor="middle" x="316.5" y="-272" font-family="FreeSans" font-size="10.00">DGtal::DrawWithViewer3DModifier</text>
</a>
</g>
</g>
<!-- Node3 -->
<g id="node3" class="node">
<title>Node3</title>
<g id="a_node3"><a xlink:href="structDGtal_1_1AddTextureImage2DWithFunctor.html" target="_top" xlink:title="class to insert a custom 2D textured image by using a conversion functor and allows to change the def...">
<polygon fill="white" stroke="black" points="450.5,-496 450.5,-537 624.5,-537 624.5,-496 450.5,-496"/>
<text text-anchor="start" x="458.5" y="-525" font-family="FreeSans" font-size="10.00">DGtal::AddTextureImage2DWith</text>
<text text-anchor="start" x="458.5" y="-514" font-family="FreeSans" font-size="10.00">Functor&lt; TImageType, TFunctor,</text>
<text text-anchor="middle" x="537.5" y="-503" font-family="FreeSans" font-size="10.00"> Space, KSpace &gt;</text>
</a>
</g>
</g>
<!-- Node1&#45;&gt;Node3 -->
<g id="edge2" class="edge">
<title>Node1&#45;&gt;Node3</title>
<path fill="none" stroke="midnightblue" d="M323.87,-293.87C338.49,-335.38 378.41,-433.41 445,-486.5 449.44,-490.04 454.32,-493.17 459.44,-495.94"/>
<polygon fill="midnightblue" stroke="midnightblue" points="327.1,-292.51 320.55,-284.17 320.47,-294.77 327.1,-292.51"/>
</g>
<!-- Node4 -->
<g id="node4" class="node">
<title>Node4</title>
<g id="a_node4"><a xlink:href="structDGtal_1_1AddTextureImage3DWithFunctor.html" target="_top" xlink:title="class to insert a custom 3D textured image by using a conversion functor and allows to change the def...">
<polygon fill="white" stroke="black" points="450.5,-436 450.5,-477 624.5,-477 624.5,-436 450.5,-436"/>
<text text-anchor="start" x="458.5" y="-465" font-family="FreeSans" font-size="10.00">DGtal::AddTextureImage3DWith</text>
<text text-anchor="start" x="458.5" y="-454" font-family="FreeSans" font-size="10.00">Functor&lt; TImageType, TFunctor,</text>
<text text-anchor="middle" x="537.5" y="-443" font-family="FreeSans" font-size="10.00"> Space, KSpace &gt;</text>
</a>
</g>
</g>
<!-- Node1&#45;&gt;Node4 -->
<g id="edge3" class="edge">
<title>Node1&#45;&gt;Node4</title>
<path fill="none" stroke="midnightblue" d="M328.2,-293.04C347.51,-324.9 391.23,-390.12 445,-426.5 450.12,-429.97 455.68,-433.06 461.43,-435.81"/>
<polygon fill="midnightblue" stroke="midnightblue" points="331.12,-291.1 323.01,-284.29 325.1,-294.68 331.12,-291.1"/>
</g>
<!-- Node5 -->
<g id="node5" class="node">
<title>Node5</title>
<g id="a_node5"><a xlink:href="structDGtal_1_1CameraDirection.html" target="_top" xlink:title="CameraDirection class to set camera direction.">
<polygon fill="white" stroke="black" points="471,-398 471,-417 604,-417 604,-398 471,-398"/>
<text text-anchor="middle" x="537.5" y="-405" font-family="FreeSans" font-size="10.00">DGtal::CameraDirection</text>
</a>
</g>
</g>
<!-- Node1&#45;&gt;Node5 -->
<g id="edge4" class="edge">
<title>Node1&#45;&gt;Node5</title>
<path fill="none" stroke="midnightblue" d="M331.71,-292.06C353.35,-317.55 397.12,-364.35 445,-388.5 452.97,-392.52 461.73,-395.69 470.59,-398.19"/>
<polygon fill="midnightblue" stroke="midnightblue" points="334.34,-289.75 325.25,-284.3 328.96,-294.23 334.34,-289.75"/>
</g>
<!-- Node6 -->
<g id="node6" class="node">
<title>Node6</title>
<g id="a_node6"><a xlink:href="structDGtal_1_1CameraPosition.html" target="_top" xlink:title="CameraPosition class to set camera position.">
<polygon fill="white" stroke="black" points="473.5,-360 473.5,-379 601.5,-379 601.5,-360 473.5,-360"/>
<text text-anchor="middle" x="537.5" y="-367" font-family="FreeSans" font-size="10.00">DGtal::CameraPosition</text>
</a>
</g>
</g>
<!-- Node1&#45;&gt;Node6 -->
<g id="edge5" class="edge">
<title>Node1&#45;&gt;Node6</title>
<path fill="none" stroke="midnightblue" d="M338.28,-289.88C362.64,-307.16 404.79,-334.85 445,-350.5 454.83,-354.32 465.56,-357.43 476.11,-359.94"/>
<polygon fill="midnightblue" stroke="midnightblue" points="340.31,-287.02 330.15,-284.02 336.22,-292.7 340.31,-287.02"/>
</g>
<!-- Node7 -->
<g id="node7" class="node">
<title>Node7</title>
<g id="a_node7"><a xlink:href="structDGtal_1_1CameraUpVector.html" target="_top" xlink:title="CameraUpVector class to set camera up&#45;vector.">
<polygon fill="white" stroke="black" points="471,-322 471,-341 604,-341 604,-322 471,-322"/>
<text text-anchor="middle" x="537.5" y="-329" font-family="FreeSans" font-size="10.00">DGtal::CameraUpVector</text>
</a>
</g>
</g>
<!-- Node1&#45;&gt;Node7 -->
<g id="edge6" class="edge">
<title>Node1&#45;&gt;Node7</title>
<path fill="none" stroke="midnightblue" d="M356.8,-287.15C381.89,-295 415.18,-304.97 445,-312.5 458.37,-315.87 472.95,-319.1 486.46,-321.91"/>
<polygon fill="midnightblue" stroke="midnightblue" points="357.52,-283.71 346.93,-284.05 355.42,-290.39 357.52,-283.71"/>
</g>
<!-- Node8 -->
<g id="node8" class="node">
<title>Node8</title>
<g id="a_node8"><a xlink:href="structDGtal_1_1CameraZNearFar.html" target="_top" xlink:title="CameraZNearFar class to set near and far distance.">
<polygon fill="white" stroke="black" points="471,-284 471,-303 604,-303 604,-284 471,-284"/>
<text text-anchor="middle" x="537.5" y="-291" font-family="FreeSans" font-size="10.00">DGtal::CameraZNearFar</text>
</a>
</g>
</g>
<!-- Node1&#45;&gt;Node8 -->
<g id="edge7" class="edge">
<title>Node1&#45;&gt;Node8</title>
<path fill="none" stroke="midnightblue" d="M419.38,-283.34C436.89,-284.86 454.67,-286.4 470.9,-287.81"/>
<polygon fill="midnightblue" stroke="midnightblue" points="419.37,-279.83 409.11,-282.45 418.77,-286.8 419.37,-279.83"/>
</g>
<!-- Node9 -->
<g id="node9" class="node">
<title>Node9</title>
<g id="a_node9"><a xlink:href="structDGtal_1_1Translate2DDomain.html" target="_top" xlink:title="class to modify the data of an given image and also the possibility to translate it (optional).">
<polygon fill="white" stroke="black" points="464.5,-246 464.5,-265 610.5,-265 610.5,-246 464.5,-246"/>
<text text-anchor="middle" x="537.5" y="-253" font-family="FreeSans" font-size="10.00">DGtal::Translate2DDomain</text>
</a>
</g>
</g>
<!-- Node1&#45;&gt;Node9 -->
<g id="edge8" class="edge">
<title>Node1&#45;&gt;Node9</title>
<path fill="none" stroke="midnightblue" d="M419.08,-265.69C434.32,-264.36 449.77,-263.02 464.24,-261.77"/>
<polygon fill="midnightblue" stroke="midnightblue" points="418.77,-262.2 409.11,-266.55 419.37,-269.17 418.77,-262.2"/>
</g>
<!-- Node10 -->
<g id="node10" class="node">
<title>Node10</title>
<g id="a_node10"><a xlink:href="structDGtal_1_1Update2DDomainPosition.html" target="_top" xlink:title="class to modify the position and orientation of an 2D domain.">
<polygon fill="white" stroke="black" points="449.5,-196.5 449.5,-226.5 625.5,-226.5 625.5,-196.5 449.5,-196.5"/>
<text text-anchor="start" x="457.5" y="-214.5" font-family="FreeSans" font-size="10.00">DGtal::Update2DDomainPosition</text>
<text text-anchor="middle" x="537.5" y="-203.5" font-family="FreeSans" font-size="10.00">&lt; Space, KSpace &gt;</text>
</a>
</g>
</g>
<!-- Node1&#45;&gt;Node10 -->
<g id="edge9" class="edge">
<title>Node1&#45;&gt;Node10</title>
<path fill="none" stroke="midnightblue" d="M358.73,-261.95C383.66,-254.43 416.11,-244.75 445,-236.5 456.56,-233.2 468.97,-229.75 480.8,-226.5"/>
<polygon fill="midnightblue" stroke="midnightblue" points="357.44,-258.68 348.88,-264.93 359.46,-265.39 357.44,-258.68"/>
</g>
<!-- Node11 -->
<g id="node11" class="node">
<title>Node11</title>
<g id="a_node11"><a xlink:href="structDGtal_1_1UpdateImage3DEmbedding.html" target="_top" xlink:title="class to modify the 3d embedding of the image (useful to display not only 2D slice images)....">
<polygon fill="white" stroke="black" points="445,-147.5 445,-177.5 630,-177.5 630,-147.5 445,-147.5"/>
<text text-anchor="start" x="453" y="-165.5" font-family="FreeSans" font-size="10.00">DGtal::UpdateImage3DEmbedding</text>
<text text-anchor="middle" x="537.5" y="-154.5" font-family="FreeSans" font-size="10.00">&lt; Space, KSpace &gt;</text>
</a>
</g>
</g>
<!-- Node1&#45;&gt;Node11 -->
<g id="edge10" class="edge">
<title>Node1&#45;&gt;Node11</title>
<path fill="none" stroke="midnightblue" d="M336.51,-258.18C360.35,-238.5 403.2,-205.69 445,-186.5 452.31,-183.14 460.18,-180.19 468.12,-177.61"/>
<polygon fill="midnightblue" stroke="midnightblue" points="334.04,-255.69 328.62,-264.79 338.54,-261.05 334.04,-255.69"/>
</g>
<!-- Node12 -->
<g id="node12" class="node">
<title>Node12</title>
<g id="a_node12"><a xlink:href="structDGtal_1_1UpdateImageData.html" target="_top" xlink:title="class to modify the data of an given image and also the possibility to translate it (optional).">
<polygon fill="white" stroke="black" points="464.5,-98.5 464.5,-128.5 610.5,-128.5 610.5,-98.5 464.5,-98.5"/>
<text text-anchor="start" x="472.5" y="-116.5" font-family="FreeSans" font-size="10.00">DGtal::UpdateImageData</text>
<text text-anchor="middle" x="537.5" y="-105.5" font-family="FreeSans" font-size="10.00">&lt; TImageType, TFunctor &gt;</text>
</a>
</g>
</g>
<!-- Node1&#45;&gt;Node12 -->
<g id="edge11" class="edge">
<title>Node1&#45;&gt;Node12</title>
<path fill="none" stroke="midnightblue" d="M329.29,-256.27C349.38,-226.71 393.16,-168.5 445,-137.5 451.06,-133.88 457.67,-130.79 464.46,-128.17"/>
<polygon fill="midnightblue" stroke="midnightblue" points="326.24,-254.53 323.62,-264.79 332.07,-258.41 326.24,-254.53"/>
</g>
<!-- Node13 -->
<g id="node13" class="node">
<title>Node13</title>
<g id="a_node13"><a xlink:href="structDGtal_1_1UpdateImagePosition.html" target="_top" xlink:title="class to modify the position and orientation of an textured 2D image.">
<polygon fill="white" stroke="black" points="460,-49.5 460,-79.5 615,-79.5 615,-49.5 460,-49.5"/>
<text text-anchor="start" x="468" y="-67.5" font-family="FreeSans" font-size="10.00">DGtal::UpdateImagePosition</text>
<text text-anchor="middle" x="537.5" y="-56.5" font-family="FreeSans" font-size="10.00">&lt; Space, KSpace &gt;</text>
</a>
</g>
</g>
<!-- Node1&#45;&gt;Node13 -->
<g id="edge12" class="edge">
<title>Node1&#45;&gt;Node13</title>
<path fill="none" stroke="midnightblue" d="M325.21,-255.16C341.4,-217.09 382.66,-132.37 445,-88.5 449.84,-85.1 455.12,-82.18 460.63,-79.67"/>
<polygon fill="midnightblue" stroke="midnightblue" points="321.9,-254 321.31,-264.58 328.37,-256.68 321.9,-254"/>
</g>
<!-- Node14 -->
<g id="node14" class="node">
<title>Node14</title>
<g id="a_node14"><a xlink:href="structDGtal_1_1UpdateLastImagePosition.html" target="_top" xlink:title="class to modify the position and orientation of an textured 2D image.">
<polygon fill="white" stroke="black" points="449.5,-0.5 449.5,-30.5 625.5,-30.5 625.5,-0.5 449.5,-0.5"/>
<text text-anchor="start" x="457.5" y="-18.5" font-family="FreeSans" font-size="10.00">DGtal::UpdateLastImagePosition</text>
<text text-anchor="middle" x="537.5" y="-7.5" font-family="FreeSans" font-size="10.00">&lt; Space, KSpace &gt;</text>
</a>
</g>
</g>
<!-- Node1&#45;&gt;Node14 -->
<g id="edge13" class="edge">
<title>Node1&#45;&gt;Node14</title>
<path fill="none" stroke="midnightblue" d="M322.39,-254.86C334.71,-209.55 371.44,-97.19 445,-39.5 449.39,-36.05 454.23,-33.1 459.33,-30.57"/>
<polygon fill="midnightblue" stroke="midnightblue" points="318.98,-254.07 319.83,-264.63 325.75,-255.84 318.98,-254.07"/>
</g>
<!-- Node2 -->
<g id="node2" class="node">
<title>Node2</title>
<g id="a_node2"><a xlink:href="structDGtal_1_1DrawWithDisplay3DModifier.html" target="_top" xlink:title="Base class specifying the methods for classes which intend to modify a Viewer3D stream.">
<polygon fill="white" stroke="black" points="0,-265 0,-284 188,-284 188,-265 0,-265"/>
<text text-anchor="middle" x="94" y="-272" font-family="FreeSans" font-size="10.00">DGtal::DrawWithDisplay3DModifier</text>
</a>
</g>
</g>
<!-- Node2&#45;&gt;Node1 -->
<g id="edge1" class="edge">
<title>Node2&#45;&gt;Node1</title>
<path fill="none" stroke="midnightblue" d="M198.44,-274.5C206.87,-274.5 215.36,-274.5 223.7,-274.5"/>
<polygon fill="midnightblue" stroke="midnightblue" points="198.19,-271 188.19,-274.5 198.19,-278 198.19,-271"/>
</g>
</g>
</svg>
