<?xml version="1.0" encoding="UTF-8" standalone="no"?>
<!DOCTYPE svg PUBLIC "-//W3C//DTD SVG 1.1//EN"
 "http://www.w3.org/Graphics/SVG/1.1/DTD/svg11.dtd">
<!-- Generated by graphviz version 2.43.0 (0)
 -->
<!-- Title: DGtal::functors::PredicateCombiner&lt; TPredicate1, TPredicate2, TBinaryFunctor &gt; Pages: 1 -->
<svg width="247pt" height="128pt"
 viewBox="0.00 0.00 247.00 128.00" xmlns="http://www.w3.org/2000/svg" xmlns:xlink="http://www.w3.org/1999/xlink">
<g id="graph0" class="graph" transform="scale(1 1) rotate(0) translate(4 124)">
<title>DGtal::functors::PredicateCombiner&lt; TPredicate1, TPredicate2, TBinaryFunctor &gt;</title>
<polygon fill="white" stroke="transparent" points="-4,4 -4,-124 243,-124 243,4 -4,4"/>
<!-- Node1 -->
<g id="node1" class="node">
<title>Node1</title>
<g id="a_node1"><a xlink:title="Aim: The predicate returns true when the given binary functor returns true for the two Predicates giv...">
<polygon fill="#bfbfbf" stroke="black" points="16,-78.5 16,-119.5 184,-119.5 184,-78.5 16,-78.5"/>
<text text-anchor="start" x="24" y="-107.5" font-family="FreeSans" font-size="10.00">DGtal::functors::Predicate</text>
<text text-anchor="start" x="24" y="-96.5" font-family="FreeSans" font-size="10.00">Combiner&lt; TPredicate1,</text>
<text text-anchor="middle" x="100" y="-85.5" font-family="FreeSans" font-size="10.00"> TPredicate2, TBinaryFunctor &gt;</text>
</a>
</g>
</g>
<!-- Node2 -->
<g id="node2" class="node">
<title>Node2</title>
<g id="a_node2"><a xlink:href="structDGtal_1_1functors_1_1PredicateCombiner.html" target="_top" xlink:title=" ">
<polygon fill="white" stroke="black" points="0,-0.5 0,-30.5 200,-30.5 200,-0.5 0,-0.5"/>
<text text-anchor="start" x="8" y="-18.5" font-family="FreeSans" font-size="10.00">DGtal::functors::Predicate</text>
<text text-anchor="middle" x="100" y="-7.5" font-family="FreeSans" font-size="10.00">Combiner&lt; Tlow, Tup, AndBoolFct2 &gt;</text>
</a>
</g>
</g>
<!-- Node1&#45;&gt;Node2 -->
<g id="edge1" class="edge">
<title>Node1&#45;&gt;Node2</title>
<path fill="none" stroke="orange" stroke-dasharray="5,2" d="M100,-68.03C100,-55.26 100,-40.97 100,-30.68"/>
<polygon fill="orange" stroke="orange" points="96.5,-68.27 100,-78.27 103.5,-68.27 96.5,-68.27"/>
<text text-anchor="middle" x="169.5" y="-52" font-family="FreeSans" font-size="10.00"> &lt; Tlow, Tup, AndBoolFct2 &gt;</text>
</g>
</g>
</svg>
