<?xml version="1.0" encoding="UTF-8" standalone="no"?>
<!DOCTYPE svg PUBLIC "-//W3C//DTD SVG 1.1//EN"
 "http://www.w3.org/Graphics/SVG/1.1/DTD/svg11.dtd">
<!-- Generated by graphviz version 2.43.0 (0)
 -->
<!-- Title: DGtal::concepts::CDynamicBidirectionalSegmentComputer&lt; T &gt; Pages: 1 -->
<svg width="1409pt" height="142pt"
 viewBox="0.00 0.00 1409.00 142.00" xmlns="http://www.w3.org/2000/svg" xmlns:xlink="http://www.w3.org/1999/xlink">
<g id="graph0" class="graph" transform="scale(1 1) rotate(0) translate(4 138)">
<title>DGtal::concepts::CDynamicBidirectionalSegmentComputer&lt; T &gt;</title>
<polygon fill="white" stroke="transparent" points="-4,4 -4,-138 1405,-138 1405,4 -4,4"/>
<!-- Node1 -->
<g id="node1" class="node">
<title>Node1</title>
<g id="a_node1"><a xlink:title="Aim: Defines the concept describing a dynamic and bidirectional segment computer, ie....">
<polygon fill="#bfbfbf" stroke="black" points="1203,-52 1203,-82 1401,-82 1401,-52 1203,-52"/>
<text text-anchor="start" x="1211" y="-70" font-family="FreeSans" font-size="10.00">DGtal::concepts::CDynamic</text>
<text text-anchor="middle" x="1302" y="-59" font-family="FreeSans" font-size="10.00">BidirectionalSegmentComputer&lt; T &gt;</text>
</a>
</g>
</g>
<!-- Node2 -->
<g id="node2" class="node">
<title>Node2</title>
<g id="a_node2"><a xlink:href="structDGtal_1_1concepts_1_1CBidirectionalSegmentComputer.html" target="_top" xlink:title="Aim: Defines the concept describing a bidirectional segment computer, &#160;&#160;ie. a model of concepts::CSeg...">
<polygon fill="white" stroke="black" points="999,-77 999,-107 1167,-107 1167,-77 999,-77"/>
<text text-anchor="start" x="1007" y="-95" font-family="FreeSans" font-size="10.00">DGtal::concepts::CBidirectional</text>
<text text-anchor="middle" x="1083" y="-84" font-family="FreeSans" font-size="10.00">SegmentComputer&lt; T &gt;</text>
</a>
</g>
</g>
<!-- Node2&#45;&gt;Node1 -->
<g id="edge1" class="edge">
<title>Node2&#45;&gt;Node1</title>
<path fill="none" stroke="midnightblue" d="M1177.42,-81.24C1185.79,-80.27 1194.29,-79.29 1202.71,-78.32"/>
<polygon fill="midnightblue" stroke="midnightblue" points="1176.81,-77.78 1167.28,-82.41 1177.61,-84.74 1176.81,-77.78"/>
</g>
<!-- Node3 -->
<g id="node3" class="node">
<title>Node3</title>
<g id="a_node3"><a xlink:href="structDGtal_1_1concepts_1_1CForwardSegmentComputer.html" target="_top" xlink:title="Aim: Defines the concept describing a forward segment computer. Like any model of CIncrementalSegment...">
<polygon fill="white" stroke="black" points="817,-52 817,-82 963,-82 963,-52 817,-52"/>
<text text-anchor="start" x="825" y="-70" font-family="FreeSans" font-size="10.00">DGtal::concepts::CForward</text>
<text text-anchor="middle" x="890" y="-59" font-family="FreeSans" font-size="10.00">SegmentComputer&lt; T &gt;</text>
</a>
</g>
</g>
<!-- Node3&#45;&gt;Node2 -->
<g id="edge2" class="edge">
<title>Node3&#45;&gt;Node2</title>
<path fill="none" stroke="midnightblue" d="M973.39,-77.78C981.81,-78.89 990.37,-80.01 998.79,-81.11"/>
<polygon fill="midnightblue" stroke="midnightblue" points="973.58,-74.28 963.21,-76.45 972.67,-81.22 973.58,-74.28"/>
</g>
<!-- Node11 -->
<g id="node11" class="node">
<title>Node11</title>
<g id="a_node11"><a xlink:href="structDGtal_1_1concepts_1_1CDynamicSegmentComputer.html" target="_top" xlink:title="Aim: Defines the concept describing a dynamic segment computer, &#160;&#160;ie. a model of CSegment that can ex...">
<polygon fill="white" stroke="black" points="1008,-28 1008,-58 1158,-58 1158,-28 1008,-28"/>
<text text-anchor="start" x="1016" y="-46" font-family="FreeSans" font-size="10.00">DGtal::concepts::CDynamic</text>
<text text-anchor="middle" x="1083" y="-35" font-family="FreeSans" font-size="10.00">SegmentComputer&lt; T &gt;</text>
</a>
</g>
</g>
<!-- Node3&#45;&gt;Node11 -->
<g id="edge11" class="edge">
<title>Node3&#45;&gt;Node11</title>
<path fill="none" stroke="midnightblue" d="M973.22,-56.67C984.71,-55.23 996.46,-53.75 1007.78,-52.33"/>
<polygon fill="midnightblue" stroke="midnightblue" points="972.69,-53.21 963.21,-57.93 973.57,-60.15 972.69,-53.21"/>
</g>
<!-- Node4 -->
<g id="node4" class="node">
<title>Node4</title>
<g id="a_node4"><a xlink:href="structDGtal_1_1concepts_1_1CIncrementalSegmentComputer.html" target="_top" xlink:title="Aim: Defines the concept describing an incremental segment computer, &#160;&#160;ie. a model of CSegmentFactory...">
<polygon fill="white" stroke="black" points="616,-52 616,-82 781,-82 781,-52 616,-52"/>
<text text-anchor="start" x="624" y="-70" font-family="FreeSans" font-size="10.00">DGtal::concepts::CIncremental</text>
<text text-anchor="middle" x="698.5" y="-59" font-family="FreeSans" font-size="10.00">SegmentComputer&lt; T &gt;</text>
</a>
</g>
</g>
<!-- Node4&#45;&gt;Node3 -->
<g id="edge3" class="edge">
<title>Node4&#45;&gt;Node3</title>
<path fill="none" stroke="midnightblue" d="M791.26,-67C799.83,-67 808.42,-67 816.77,-67"/>
<polygon fill="midnightblue" stroke="midnightblue" points="791.24,-63.5 781.24,-67 791.24,-70.5 791.24,-63.5"/>
</g>
<!-- Node5 -->
<g id="node5" class="node">
<title>Node5</title>
<g id="a_node5"><a xlink:href="structDGtal_1_1concepts_1_1CSegmentFactory.html" target="_top" xlink:title="Aim: Defines the concept describing a segment ie. a valid and not empty subrange, which can construct...">
<polygon fill="white" stroke="black" points="430,-52 430,-82 580,-82 580,-52 430,-52"/>
<text text-anchor="start" x="438" y="-70" font-family="FreeSans" font-size="10.00">DGtal::concepts::CSegment</text>
<text text-anchor="middle" x="505" y="-59" font-family="FreeSans" font-size="10.00">Factory&lt; T &gt;</text>
</a>
</g>
</g>
<!-- Node5&#45;&gt;Node4 -->
<g id="edge4" class="edge">
<title>Node5&#45;&gt;Node4</title>
<path fill="none" stroke="midnightblue" d="M590.27,-67C598.71,-67 607.28,-67 615.71,-67"/>
<polygon fill="midnightblue" stroke="midnightblue" points="590.04,-63.5 580.04,-67 590.04,-70.5 590.04,-63.5"/>
</g>
<!-- Node6 -->
<g id="node6" class="node">
<title>Node6</title>
<g id="a_node6"><a xlink:href="structDGtal_1_1concepts_1_1CSegment.html" target="_top" xlink:title="Aim: Defines the concept describing a segment, ie. a valid and not empty range.">
<polygon fill="white" stroke="black" points="215,-57.5 215,-76.5 394,-76.5 394,-57.5 215,-57.5"/>
<text text-anchor="middle" x="304.5" y="-64.5" font-family="FreeSans" font-size="10.00">DGtal::concepts::CSegment&lt; T &gt;</text>
</a>
</g>
</g>
<!-- Node6&#45;&gt;Node5 -->
<g id="edge5" class="edge">
<title>Node6&#45;&gt;Node5</title>
<path fill="none" stroke="midnightblue" d="M404.16,-67C412.83,-67 421.5,-67 429.91,-67"/>
<polygon fill="midnightblue" stroke="midnightblue" points="404.01,-63.5 394.01,-67 404.01,-70.5 404.01,-63.5"/>
</g>
<!-- Node7 -->
<g id="node7" class="node">
<title>Node7</title>
<g id="a_node7"><a xlink:href="structboost_1_1DefaultConstructible.html" target="_top" xlink:title="Go to http://www.sgi.com/tech/stl/DefaultConstructible.html.">
<polygon fill="white" stroke="black" points="0,-114.5 0,-133.5 179,-133.5 179,-114.5 0,-114.5"/>
<text text-anchor="middle" x="89.5" y="-121.5" font-family="FreeSans" font-size="10.00">boost::DefaultConstructible&lt; T &gt;</text>
</a>
</g>
</g>
<!-- Node7&#45;&gt;Node6 -->
<g id="edge6" class="edge">
<title>Node7&#45;&gt;Node6</title>
<path fill="none" stroke="midnightblue" d="M148.51,-112.28C158.7,-110.01 169.19,-107.55 179,-105 212.14,-96.4 249.66,-84.67 274.77,-76.53"/>
<polygon fill="midnightblue" stroke="midnightblue" points="147.46,-108.93 138.44,-114.48 148.96,-115.77 147.46,-108.93"/>
</g>
<!-- Node8 -->
<g id="node8" class="node">
<title>Node8</title>
<g id="a_node8"><a xlink:href="structboost_1_1CopyConstructible.html" target="_top" xlink:title="Go to http://www.sgi.com/tech/stl/CopyConstructible.html.">
<polygon fill="white" stroke="black" points="6,-76.5 6,-95.5 173,-95.5 173,-76.5 6,-76.5"/>
<text text-anchor="middle" x="89.5" y="-83.5" font-family="FreeSans" font-size="10.00">boost::CopyConstructible&lt; T &gt;</text>
</a>
</g>
</g>
<!-- Node8&#45;&gt;Node6 -->
<g id="edge7" class="edge">
<title>Node8&#45;&gt;Node6</title>
<path fill="none" stroke="midnightblue" d="M183.18,-77.73C193.71,-76.79 204.42,-75.84 214.89,-74.9"/>
<polygon fill="midnightblue" stroke="midnightblue" points="182.81,-74.25 173.16,-78.63 183.43,-81.22 182.81,-74.25"/>
</g>
<!-- Node9 -->
<g id="node9" class="node">
<title>Node9</title>
<g id="a_node9"><a xlink:href="structboost_1_1Assignable.html" target="_top" xlink:title="Go to http://www.sgi.com/tech/stl/Assignable.html.">
<polygon fill="white" stroke="black" points="24,-38.5 24,-57.5 155,-57.5 155,-38.5 24,-38.5"/>
<text text-anchor="middle" x="89.5" y="-45.5" font-family="FreeSans" font-size="10.00">boost::Assignable&lt; T &gt;</text>
</a>
</g>
</g>
<!-- Node9&#45;&gt;Node6 -->
<g id="edge8" class="edge">
<title>Node9&#45;&gt;Node6</title>
<path fill="none" stroke="midnightblue" d="M165.55,-54.69C181.44,-56.11 198.35,-57.62 214.69,-59.08"/>
<polygon fill="midnightblue" stroke="midnightblue" points="165.55,-51.18 155.27,-53.78 164.92,-58.15 165.55,-51.18"/>
</g>
<!-- Node10 -->
<g id="node10" class="node">
<title>Node10</title>
<g id="a_node10"><a xlink:href="structboost_1_1EqualityComparable.html" target="_top" xlink:title="Go to http://www.sgi.com/tech/stl/EqualityComparable.html.">
<polygon fill="white" stroke="black" points="1,-0.5 1,-19.5 178,-19.5 178,-0.5 1,-0.5"/>
<text text-anchor="middle" x="89.5" y="-7.5" font-family="FreeSans" font-size="10.00">boost::EqualityComparable&lt; T &gt;</text>
</a>
</g>
</g>
<!-- Node10&#45;&gt;Node6 -->
<g id="edge9" class="edge">
<title>Node10&#45;&gt;Node6</title>
<path fill="none" stroke="midnightblue" d="M148.51,-21.72C158.7,-23.99 169.19,-26.45 179,-29 212.14,-37.6 249.66,-49.33 274.77,-57.47"/>
<polygon fill="midnightblue" stroke="midnightblue" points="148.96,-18.23 138.44,-19.52 147.46,-25.07 148.96,-18.23"/>
</g>
<!-- Node11&#45;&gt;Node1 -->
<g id="edge10" class="edge">
<title>Node11&#45;&gt;Node1</title>
<path fill="none" stroke="midnightblue" d="M1168.31,-52.32C1179.58,-53.57 1191.22,-54.86 1202.7,-56.13"/>
<polygon fill="midnightblue" stroke="midnightblue" points="1168.4,-48.81 1158.07,-51.19 1167.63,-55.77 1168.4,-48.81"/>
</g>
</g>
</svg>
