<?xml version="1.0" encoding="UTF-8" standalone="no"?>
<!DOCTYPE svg PUBLIC "-//W3C//DTD SVG 1.1//EN"
 "http://www.w3.org/Graphics/SVG/1.1/DTD/svg11.dtd">
<!-- Generated by graphviz version 2.43.0 (0)
 -->
<!-- Title: DGtal::UpdateImagePosition&lt; Space, KSpace &gt; Pages: 1 -->
<svg width="196pt" height="151pt"
 viewBox="0.00 0.00 196.00 151.00" xmlns="http://www.w3.org/2000/svg" xmlns:xlink="http://www.w3.org/1999/xlink">
<g id="graph0" class="graph" transform="scale(1 1) rotate(0) translate(4 147)">
<title>DGtal::UpdateImagePosition&lt; Space, KSpace &gt;</title>
<polygon fill="white" stroke="transparent" points="-4,4 -4,-147 192,-147 192,4 -4,4"/>
<!-- Node1 -->
<g id="node1" class="node">
<title>Node1</title>
<g id="a_node1"><a xlink:title="class to modify the position and orientation of an textured 2D image.">
<polygon fill="#bfbfbf" stroke="black" points="16.5,-0.5 16.5,-30.5 171.5,-30.5 171.5,-0.5 16.5,-0.5"/>
<text text-anchor="start" x="24.5" y="-18.5" font-family="FreeSans" font-size="10.00">DGtal::UpdateImagePosition</text>
<text text-anchor="middle" x="94" y="-7.5" font-family="FreeSans" font-size="10.00">&lt; Space, KSpace &gt;</text>
</a>
</g>
</g>
<!-- Node2 -->
<g id="node2" class="node">
<title>Node2</title>
<g id="a_node2"><a xlink:href="structDGtal_1_1DrawWithViewer3DModifier.html" target="_top" xlink:title="Base class specifying the methods for classes which intend to modify a Viewer3D stream.">
<polygon fill="white" stroke="black" points="1.5,-67.5 1.5,-86.5 186.5,-86.5 186.5,-67.5 1.5,-67.5"/>
<text text-anchor="middle" x="94" y="-74.5" font-family="FreeSans" font-size="10.00">DGtal::DrawWithViewer3DModifier</text>
</a>
</g>
</g>
<!-- Node2&#45;&gt;Node1 -->
<g id="edge1" class="edge">
<title>Node2&#45;&gt;Node1</title>
<path fill="none" stroke="midnightblue" d="M94,-57.23C94,-48.59 94,-38.5 94,-30.52"/>
<polygon fill="midnightblue" stroke="midnightblue" points="90.5,-57.48 94,-67.48 97.5,-57.48 90.5,-57.48"/>
</g>
<!-- Node3 -->
<g id="node3" class="node">
<title>Node3</title>
<g id="a_node3"><a xlink:href="structDGtal_1_1DrawWithDisplay3DModifier.html" target="_top" xlink:title="Base class specifying the methods for classes which intend to modify a Viewer3D stream.">
<polygon fill="white" stroke="black" points="0,-123.5 0,-142.5 188,-142.5 188,-123.5 0,-123.5"/>
<text text-anchor="middle" x="94" y="-130.5" font-family="FreeSans" font-size="10.00">DGtal::DrawWithDisplay3DModifier</text>
</a>
</g>
</g>
<!-- Node3&#45;&gt;Node2 -->
<g id="edge2" class="edge">
<title>Node3&#45;&gt;Node2</title>
<path fill="none" stroke="midnightblue" d="M94,-112.8C94,-103.91 94,-93.78 94,-86.75"/>
<polygon fill="midnightblue" stroke="midnightblue" points="90.5,-113.08 94,-123.08 97.5,-113.08 90.5,-113.08"/>
</g>
</g>
</svg>
