<?xml version="1.0" encoding="UTF-8" standalone="no"?>
<!DOCTYPE svg PUBLIC "-//W3C//DTD SVG 1.1//EN"
 "http://www.w3.org/Graphics/SVG/1.1/DTD/svg11.dtd">
<!-- Generated by graphviz version 2.43.0 (0)
 -->
<!-- Title: DGtal::DrawableWithDisplay3D Pages: 1 -->
<!--zoomable 142 -->
<svg id="main" version="1.1" xmlns="http://www.w3.org/2000/svg" xmlns:xlink="http://www.w3.org/1999/xlink" xml:space="preserve" onload="init(evt)">
<style type="text/css"><![CDATA[
.edge:hover path { stroke: red; }
.edge:hover polygon { stroke: red; fill: red; }
]]></style>
<script type="text/javascript"><![CDATA[
var edges = document.getElementsByTagName('g');
if (edges && edges.length) {
  for (var i=0;i<edges.length;i++) {
    if (edges[i].id.substr(0,4)=='edge') {
      edges[i].setAttribute('class','edge');
    }
  }
}
]]></script>
        <defs>
                <circle id="rim" cx="0" cy="0" r="7"/>
                <circle id="rim2" cx="0" cy="0" r="3.5"/>
                <g id="zoomPlus">
                        <use xlink:href="#rim" fill="#404040">
                                <set attributeName="fill" to="#808080" begin="zoomplus.mouseover" end="zoomplus.mouseout"/>
                        </use>
                        <path d="M-4,0h8M0,-4v8" fill="none" stroke="white" stroke-width="1.5" pointer-events="none"/>
                </g>
                <g id="zoomMin">
                        <use xlink:href="#rim" fill="#404040">
                                <set attributeName="fill" to="#808080" begin="zoomminus.mouseover" end="zoomminus.mouseout"/>
                        </use>
                        <path d="M-4,0h8" fill="none" stroke="white" stroke-width="1.5" pointer-events="none"/>
                </g>
                <g id="dirArrow">
                        <path fill="none" stroke="white" stroke-width="1.5" d="M0,-3.0v7 M-2.5,-0.5L0,-3.0L2.5,-0.5"/>
                </g>
               <g id="resetDef">
                       <use xlink:href="#rim2" fill="#404040">
                               <set attributeName="fill" to="#808080" begin="reset.mouseover" end="reset.mouseout"/>
                       </use>
               </g>
        </defs>

<script type="text/javascript">
var viewWidth = 540;
var viewHeight = 142;
var sectionId = 'dynsection-0';
</script>
<script xlink:href="svgpan.js"/>
<svg id="graph" class="graph">
<g id="viewport">
<title>DGtal::DrawableWithDisplay3D</title>
<polygon fill="white" stroke="transparent" points="-4,4 -4,-138 536,-138 536,4 -4,4"/>
<!-- Node1 -->
<g id="node1" class="node">
<title>Node1</title>
<g id="a_node1"><a xlink:title=" ">
<polygon fill="#bfbfbf" stroke="black" points="0,-57.5 0,-76.5 170,-76.5 170,-57.5 0,-57.5"/>
<text text-anchor="middle" x="85" y="-64.5" font-family="FreeSans" font-size="10.00">DGtal::DrawableWithDisplay3D</text>
</a>
</g>
</g>
<!-- Node2 -->
<g id="node2" class="node">
<title>Node2</title>
<g id="a_node2"><a xlink:href="structDGtal_1_1DrawWithBoard3DTo2DModifier.html" target="_top" xlink:title="Base class specifying the methods for classes which intend to modify a Viewer3D stream.">
<polygon fill="white" stroke="black" points="206,-52 206,-82 363,-82 363,-52 206,-52"/>
<text text-anchor="start" x="214" y="-70" font-family="FreeSans" font-size="10.00">DGtal::DrawWithBoard3DTo2</text>
<text text-anchor="middle" x="284.5" y="-59" font-family="FreeSans" font-size="10.00">DModifier</text>
</a>
</g>
</g>
<!-- Node1&#45;&gt;Node2 -->
<g id="edge1" class="edge">
<title>Node1&#45;&gt;Node2</title>
<path fill="none" stroke="midnightblue" d="M180.11,-67C188.71,-67 197.36,-67 205.8,-67"/>
<polygon fill="midnightblue" stroke="midnightblue" points="180.04,-63.5 170.04,-67 180.04,-70.5 180.04,-63.5"/>
</g>
<!-- Node3 -->
<g id="node3" class="node">
<title>Node3</title>
<g id="a_node3"><a xlink:href="structDGtal_1_1CameraDirection.html" target="_top" xlink:title="CameraDirection class to set camera direction.">
<polygon fill="white" stroke="black" points="399,-114.5 399,-133.5 532,-133.5 532,-114.5 399,-114.5"/>
<text text-anchor="middle" x="465.5" y="-121.5" font-family="FreeSans" font-size="10.00">DGtal::CameraDirection</text>
</a>
</g>
</g>
<!-- Node2&#45;&gt;Node3 -->
<g id="edge2" class="edge">
<title>Node2&#45;&gt;Node3</title>
<path fill="none" stroke="midnightblue" d="M338.69,-85.3C357.67,-91.7 379.24,-98.83 399,-105 409.28,-108.21 420.53,-111.54 430.76,-114.5"/>
<polygon fill="midnightblue" stroke="midnightblue" points="339.62,-81.92 329.02,-82.03 337.37,-88.55 339.62,-81.92"/>
</g>
<!-- Node4 -->
<g id="node4" class="node">
<title>Node4</title>
<g id="a_node4"><a xlink:href="structDGtal_1_1CameraPosition.html" target="_top" xlink:title="CameraPosition class to set camera position.">
<polygon fill="white" stroke="black" points="401.5,-76.5 401.5,-95.5 529.5,-95.5 529.5,-76.5 401.5,-76.5"/>
<text text-anchor="middle" x="465.5" y="-83.5" font-family="FreeSans" font-size="10.00">DGtal::CameraPosition</text>
</a>
</g>
</g>
<!-- Node2&#45;&gt;Node4 -->
<g id="edge3" class="edge">
<title>Node2&#45;&gt;Node4</title>
<path fill="none" stroke="midnightblue" d="M373.43,-76.33C382.86,-77.33 392.3,-78.34 401.36,-79.3"/>
<polygon fill="midnightblue" stroke="midnightblue" points="373.54,-72.83 363.23,-75.25 372.81,-79.79 373.54,-72.83"/>
</g>
<!-- Node5 -->
<g id="node5" class="node">
<title>Node5</title>
<g id="a_node5"><a xlink:href="structDGtal_1_1CameraUpVector.html" target="_top" xlink:title="CameraUpVector class to set camera up&#45;vector.">
<polygon fill="white" stroke="black" points="399,-38.5 399,-57.5 532,-57.5 532,-38.5 399,-38.5"/>
<text text-anchor="middle" x="465.5" y="-45.5" font-family="FreeSans" font-size="10.00">DGtal::CameraUpVector</text>
</a>
</g>
</g>
<!-- Node2&#45;&gt;Node5 -->
<g id="edge4" class="edge">
<title>Node2&#45;&gt;Node5</title>
<path fill="none" stroke="midnightblue" d="M373.31,-57.68C381.92,-56.77 390.55,-55.85 398.88,-54.97"/>
<polygon fill="midnightblue" stroke="midnightblue" points="372.81,-54.21 363.23,-58.75 373.54,-61.17 372.81,-54.21"/>
</g>
<!-- Node6 -->
<g id="node6" class="node">
<title>Node6</title>
<g id="a_node6"><a xlink:href="structDGtal_1_1CameraZNearFar.html" target="_top" xlink:title="CameraZNearFar class to set near and far distance.">
<polygon fill="white" stroke="black" points="399,-0.5 399,-19.5 532,-19.5 532,-0.5 399,-0.5"/>
<text text-anchor="middle" x="465.5" y="-7.5" font-family="FreeSans" font-size="10.00">DGtal::CameraZNearFar</text>
</a>
</g>
</g>
<!-- Node2&#45;&gt;Node6 -->
<g id="edge5" class="edge">
<title>Node2&#45;&gt;Node6</title>
<path fill="none" stroke="midnightblue" d="M338.69,-48.7C357.67,-42.3 379.24,-35.17 399,-29 409.28,-25.79 420.53,-22.46 430.76,-19.5"/>
<polygon fill="midnightblue" stroke="midnightblue" points="337.37,-45.45 329.02,-51.97 339.62,-52.08 337.37,-45.45"/>
</g>
</g>
</svg>
        <g id="navigator" transform="translate(0 0)" fill="#404254">
                <rect fill="#f2f5e9" fill-opacity="0.5" stroke="#606060" stroke-width=".5" x="0" y="0" width="60" height="60"/>
                <use id="zoomplus" xlink:href="#zoomPlus" x="17" y="9" onmousedown="handleZoom(evt,'in')"/>
                <use id="zoomminus" xlink:href="#zoomMin" x="42" y="9" onmousedown="handleZoom(evt,'out')"/>
                <use id="reset" xlink:href="#resetDef" x="30" y="36" onmousedown="handleReset()"/>
                <g id="arrowUp" xlink:href="#dirArrow" transform="translate(30 24)" onmousedown="handlePan(0,-1)">
                  <use xlink:href="#rim" fill="#404040">
                        <set attributeName="fill" to="#808080" begin="arrowUp.mouseover" end="arrowUp.mouseout"/>
                  </use>
                  <path fill="none" stroke="white" stroke-width="1.5" d="M0,-3.0v7 M-2.5,-0.5L0,-3.0L2.5,-0.5"/>
                </g>
                <g id="arrowRight" xlink:href="#dirArrow" transform="rotate(90) translate(36 -43)" onmousedown="handlePan(1,0)">
                  <use xlink:href="#rim" fill="#404040">
                        <set attributeName="fill" to="#808080" begin="arrowRight.mouseover" end="arrowRight.mouseout"/>
                  </use>
                  <path fill="none" stroke="white" stroke-width="1.5" d="M0,-3.0v7 M-2.5,-0.5L0,-3.0L2.5,-0.5"/>
                </g>
                <g id="arrowDown" xlink:href="#dirArrow" transform="rotate(180) translate(-30 -48)" onmousedown="handlePan(0,1)">
                  <use xlink:href="#rim" fill="#404040">
                        <set attributeName="fill" to="#808080" begin="arrowDown.mouseover" end="arrowDown.mouseout"/>
                  </use>
                  <path fill="none" stroke="white" stroke-width="1.5" d="M0,-3.0v7 M-2.5,-0.5L0,-3.0L2.5,-0.5"/>
                </g>
                <g id="arrowLeft" xlink:href="#dirArrow" transform="rotate(270) translate(-36 17)" onmousedown="handlePan(-1,0)">
                  <use xlink:href="#rim" fill="#404040">
                        <set attributeName="fill" to="#808080" begin="arrowLeft.mouseover" end="arrowLeft.mouseout"/>
                  </use>
                  <path fill="none" stroke="white" stroke-width="1.5" d="M0,-3.0v7 M-2.5,-0.5L0,-3.0L2.5,-0.5"/>
                </g>
        </g>
        <svg viewBox="0 0 15 15" width="100%" height="30px" preserveAspectRatio="xMaxYMin meet">
         <g id="arrow_out" transform="scale(0.3 0.3)">
          <a xlink:href="structDGtal_1_1DrawableWithDisplay3D__inherit__graph_org.svg" target="_base">
           <rect id="button" ry="5" rx="5" y="6" x="6" height="38" width="38"
                fill="#f2f5e9" fill-opacity="0.5" stroke="#606060" stroke-width="1.0"/>
           <path id="arrow"
             d="M 11.500037,31.436501 C 11.940474,20.09759 22.043105,11.32322 32.158766,21.979434 L 37.068811,17.246167 C 37.068811,17.246167 37.088388,32 37.088388,32 L 22.160133,31.978069 C 22.160133,31.978069 26.997745,27.140456 26.997745,27.140456 C 18.528582,18.264221 13.291696,25.230495 11.500037,31.436501 z"
             style="fill:#404040;"/>
          </a>
         </g>
        </svg>
</svg>
