<?xml version="1.0" encoding="UTF-8" standalone="no"?>
<!DOCTYPE svg PUBLIC "-//W3C//DTD SVG 1.1//EN"
 "http://www.w3.org/Graphics/SVG/1.1/DTD/svg11.dtd">
<!-- Generated by graphviz version 2.43.0 (0)
 -->
<!-- Title: DGtal::DrawWithDisplay3DModifier Pages: 1 -->
<svg width="638pt" height="546pt"
 viewBox="0.00 0.00 638.00 545.50" xmlns="http://www.w3.org/2000/svg" xmlns:xlink="http://www.w3.org/1999/xlink">
<g id="graph0" class="graph" transform="scale(1 1) rotate(0) translate(4 541.5)">
<title>DGtal::DrawWithDisplay3DModifier</title>
<polygon fill="white" stroke="transparent" points="-4,4 -4,-541.5 634,-541.5 634,4 -4,4"/>
<!-- Node1 -->
<g id="node1" class="node">
<title>Node1</title>
<g id="a_node1"><a xlink:title="Base class specifying the methods for classes which intend to modify a Viewer3D stream.">
<polygon fill="#bfbfbf" stroke="black" points="0,-246 0,-265 188,-265 188,-246 0,-246"/>
<text text-anchor="middle" x="94" y="-253" font-family="FreeSans" font-size="10.00">DGtal::DrawWithDisplay3DModifier</text>
</a>
</g>
</g>
<!-- Node2 -->
<g id="node2" class="node">
<title>Node2</title>
<g id="a_node2"><a xlink:href="structDGtal_1_1ClippingPlane.html" target="_top" xlink:title="Class for adding a Clipping plane through the Viewer3D stream. Realizes the concept CDrawableWithView...">
<polygon fill="white" stroke="black" points="258,-379 258,-398 375,-398 375,-379 258,-379"/>
<text text-anchor="middle" x="316.5" y="-386" font-family="FreeSans" font-size="10.00">DGtal::ClippingPlane</text>
</a>
</g>
</g>
<!-- Node1&#45;&gt;Node2 -->
<g id="edge1" class="edge">
<title>Node1&#45;&gt;Node2</title>
<path fill="none" stroke="midnightblue" d="M109.42,-273.06C131.37,-298.53 175.74,-345.33 224,-369.5 234.45,-374.73 246.25,-378.52 257.83,-381.27"/>
<polygon fill="midnightblue" stroke="midnightblue" points="111.99,-270.68 102.87,-265.3 106.65,-275.2 111.99,-270.68"/>
</g>
<!-- Node3 -->
<g id="node3" class="node">
<title>Node3</title>
<g id="a_node3"><a xlink:href="structDGtal_1_1CustomColors3D.html" target="_top" xlink:title=" ">
<polygon fill="white" stroke="black" points="250.5,-341 250.5,-360 382.5,-360 382.5,-341 250.5,-341"/>
<text text-anchor="middle" x="316.5" y="-348" font-family="FreeSans" font-size="10.00">DGtal::CustomColors3D</text>
</a>
</g>
</g>
<!-- Node1&#45;&gt;Node3 -->
<g id="edge2" class="edge">
<title>Node1&#45;&gt;Node3</title>
<path fill="none" stroke="midnightblue" d="M116.06,-270.86C140.72,-288.14 183.4,-315.82 224,-331.5 233.84,-335.3 244.58,-338.39 255.13,-340.9"/>
<polygon fill="midnightblue" stroke="midnightblue" points="118,-267.95 107.82,-265.01 113.95,-273.66 118,-267.95"/>
</g>
<!-- Node4 -->
<g id="node4" class="node">
<title>Node4</title>
<g id="a_node4"><a xlink:href="structDGtal_1_1CustomStyle3D.html" target="_top" xlink:title="Modifier class in a Display3D stream. Useful to choose your own style for a given class....">
<polygon fill="white" stroke="black" points="253.5,-303 253.5,-322 379.5,-322 379.5,-303 253.5,-303"/>
<text text-anchor="middle" x="316.5" y="-310" font-family="FreeSans" font-size="10.00">DGtal::CustomStyle3D</text>
</a>
</g>
</g>
<!-- Node1&#45;&gt;Node4 -->
<g id="edge3" class="edge">
<title>Node1&#45;&gt;Node4</title>
<path fill="none" stroke="midnightblue" d="M134.44,-268.03C159.86,-275.88 193.71,-285.91 224,-293.5 237.53,-296.89 252.3,-300.15 265.95,-302.98"/>
<polygon fill="midnightblue" stroke="midnightblue" points="135.37,-264.65 124.79,-265.03 133.3,-271.34 135.37,-264.65"/>
</g>
<!-- Node5 -->
<g id="node5" class="node">
<title>Node5</title>
<g id="a_node5"><a xlink:href="structDGtal_1_1DrawWithViewer3DModifier.html" target="_top" xlink:title="Base class specifying the methods for classes which intend to modify a Viewer3D stream.">
<polygon fill="white" stroke="black" points="224,-265 224,-284 409,-284 409,-265 224,-265"/>
<text text-anchor="middle" x="316.5" y="-272" font-family="FreeSans" font-size="10.00">DGtal::DrawWithViewer3DModifier</text>
</a>
</g>
</g>
<!-- Node1&#45;&gt;Node5 -->
<g id="edge4" class="edge">
<title>Node1&#45;&gt;Node5</title>
<path fill="none" stroke="midnightblue" d="M198.16,-264.39C206.68,-265.12 215.26,-265.86 223.7,-266.59"/>
<polygon fill="midnightblue" stroke="midnightblue" points="198.46,-260.9 188.19,-263.53 197.85,-267.88 198.46,-260.9"/>
</g>
<!-- Node18 -->
<g id="node18" class="node">
<title>Node18</title>
<g id="a_node18"><a xlink:href="structDGtal_1_1SetMode3D.html" target="_top" xlink:title="Modifier class in a Display3D stream. Useful to choose your own mode for a given class....">
<polygon fill="white" stroke="black" points="263,-227 263,-246 370,-246 370,-227 263,-227"/>
<text text-anchor="middle" x="316.5" y="-234" font-family="FreeSans" font-size="10.00">DGtal::SetMode3D</text>
</a>
</g>
</g>
<!-- Node1&#45;&gt;Node18 -->
<g id="edge17" class="edge">
<title>Node1&#45;&gt;Node18</title>
<path fill="none" stroke="midnightblue" d="M198.41,-246.59C220.73,-244.67 243.42,-242.71 262.81,-241.04"/>
<polygon fill="midnightblue" stroke="midnightblue" points="197.85,-243.12 188.19,-247.47 198.46,-250.1 197.85,-243.12"/>
</g>
<!-- Node19 -->
<g id="node19" class="node">
<title>Node19</title>
<g id="a_node19"><a xlink:href="structDGtal_1_1SetName3D.html" target="_top" xlink:title=" ">
<polygon fill="white" stroke="black" points="262,-189 262,-208 371,-208 371,-189 262,-189"/>
<text text-anchor="middle" x="316.5" y="-196" font-family="FreeSans" font-size="10.00">DGtal::SetName3D</text>
</a>
</g>
</g>
<!-- Node1&#45;&gt;Node19 -->
<g id="edge18" class="edge">
<title>Node1&#45;&gt;Node19</title>
<path fill="none" stroke="midnightblue" d="M134.44,-242.97C159.86,-235.12 193.71,-225.09 224,-217.5 237.53,-214.11 252.3,-210.85 265.95,-208.02"/>
<polygon fill="midnightblue" stroke="midnightblue" points="133.3,-239.66 124.79,-245.97 135.37,-246.35 133.3,-239.66"/>
</g>
<!-- Node20 -->
<g id="node20" class="node">
<title>Node20</title>
<g id="a_node20"><a xlink:href="structDGtal_1_1SetSelectCallback3D.html" target="_top" xlink:title=" ">
<polygon fill="white" stroke="black" points="240.5,-151 240.5,-170 392.5,-170 392.5,-151 240.5,-151"/>
<text text-anchor="middle" x="316.5" y="-158" font-family="FreeSans" font-size="10.00">DGtal::SetSelectCallback3D</text>
</a>
</g>
</g>
<!-- Node1&#45;&gt;Node20 -->
<g id="edge19" class="edge">
<title>Node1&#45;&gt;Node20</title>
<path fill="none" stroke="midnightblue" d="M116.06,-240.14C140.72,-222.86 183.4,-195.18 224,-179.5 233.84,-175.7 244.58,-172.61 255.13,-170.1"/>
<polygon fill="midnightblue" stroke="midnightblue" points="113.95,-237.34 107.82,-245.99 118,-243.05 113.95,-237.34"/>
</g>
<!-- Node21 -->
<g id="node21" class="node">
<title>Node21</title>
<g id="a_node21"><a xlink:href="structDGtal_1_1TransformedPrism.html" target="_top" xlink:title="class to modify the position and scale to construct better illustration mode.">
<polygon fill="white" stroke="black" points="247,-113 247,-132 386,-132 386,-113 247,-113"/>
<text text-anchor="middle" x="316.5" y="-120" font-family="FreeSans" font-size="10.00">DGtal::TransformedPrism</text>
</a>
</g>
</g>
<!-- Node1&#45;&gt;Node21 -->
<g id="edge20" class="edge">
<title>Node1&#45;&gt;Node21</title>
<path fill="none" stroke="midnightblue" d="M109.42,-237.94C131.37,-212.47 175.74,-165.67 224,-141.5 231.69,-137.65 240.12,-134.58 248.65,-132.13"/>
<polygon fill="midnightblue" stroke="midnightblue" points="106.65,-235.8 102.87,-245.7 111.99,-240.32 106.65,-235.8"/>
</g>
<!-- Node6 -->
<g id="node6" class="node">
<title>Node6</title>
<g id="a_node6"><a xlink:href="structDGtal_1_1AddTextureImage2DWithFunctor.html" target="_top" xlink:title="class to insert a custom 2D textured image by using a conversion functor and allows to change the def...">
<polygon fill="white" stroke="black" points="450.5,-496 450.5,-537 624.5,-537 624.5,-496 450.5,-496"/>
<text text-anchor="start" x="458.5" y="-525" font-family="FreeSans" font-size="10.00">DGtal::AddTextureImage2DWith</text>
<text text-anchor="start" x="458.5" y="-514" font-family="FreeSans" font-size="10.00">Functor&lt; TImageType, TFunctor,</text>
<text text-anchor="middle" x="537.5" y="-503" font-family="FreeSans" font-size="10.00"> Space, KSpace &gt;</text>
</a>
</g>
</g>
<!-- Node5&#45;&gt;Node6 -->
<g id="edge5" class="edge">
<title>Node5&#45;&gt;Node6</title>
<path fill="none" stroke="midnightblue" d="M405.08,-289.9C406.44,-291.03 407.75,-292.23 409,-293.5 470.07,-355.82 387.52,-420.85 445,-486.5 448.08,-490.02 451.59,-493.13 455.38,-495.88"/>
<polygon fill="midnightblue" stroke="midnightblue" points="406.95,-286.94 396.72,-284.17 402.99,-292.71 406.95,-286.94"/>
</g>
<!-- Node7 -->
<g id="node7" class="node">
<title>Node7</title>
<g id="a_node7"><a xlink:href="structDGtal_1_1AddTextureImage3DWithFunctor.html" target="_top" xlink:title="class to insert a custom 3D textured image by using a conversion functor and allows to change the def...">
<polygon fill="white" stroke="black" points="450.5,-436 450.5,-477 624.5,-477 624.5,-436 450.5,-436"/>
<text text-anchor="start" x="458.5" y="-465" font-family="FreeSans" font-size="10.00">DGtal::AddTextureImage3DWith</text>
<text text-anchor="start" x="458.5" y="-454" font-family="FreeSans" font-size="10.00">Functor&lt; TImageType, TFunctor,</text>
<text text-anchor="middle" x="537.5" y="-443" font-family="FreeSans" font-size="10.00"> Space, KSpace &gt;</text>
</a>
</g>
</g>
<!-- Node5&#45;&gt;Node7 -->
<g id="edge6" class="edge">
<title>Node5&#45;&gt;Node7</title>
<path fill="none" stroke="midnightblue" d="M404.26,-289.52C405.91,-290.76 407.49,-292.08 409,-293.5 453.57,-335.49 402.85,-382.08 445,-426.5 448.34,-430.02 452.09,-433.12 456.13,-435.86"/>
<polygon fill="midnightblue" stroke="midnightblue" points="405.86,-286.39 395.53,-284.05 402.15,-292.32 405.86,-286.39"/>
</g>
<!-- Node8 -->
<g id="node8" class="node">
<title>Node8</title>
<g id="a_node8"><a xlink:href="structDGtal_1_1CameraDirection.html" target="_top" xlink:title="CameraDirection class to set camera direction.">
<polygon fill="white" stroke="black" points="471,-398 471,-417 604,-417 604,-398 471,-398"/>
<text text-anchor="middle" x="537.5" y="-405" font-family="FreeSans" font-size="10.00">DGtal::CameraDirection</text>
</a>
</g>
</g>
<!-- Node5&#45;&gt;Node8 -->
<g id="edge7" class="edge">
<title>Node5&#45;&gt;Node8</title>
<path fill="none" stroke="midnightblue" d="M403.33,-289.21C405.3,-290.53 407.2,-291.96 409,-293.5 443.34,-322.82 410.66,-359.18 445,-388.5 452.4,-394.82 461.36,-399.22 470.74,-402.26"/>
<polygon fill="midnightblue" stroke="midnightblue" points="404.67,-285.95 394.24,-284.08 401.22,-292.04 404.67,-285.95"/>
</g>
<!-- Node9 -->
<g id="node9" class="node">
<title>Node9</title>
<g id="a_node9"><a xlink:href="structDGtal_1_1CameraPosition.html" target="_top" xlink:title="CameraPosition class to set camera position.">
<polygon fill="white" stroke="black" points="473.5,-360 473.5,-379 601.5,-379 601.5,-360 473.5,-360"/>
<text text-anchor="middle" x="537.5" y="-367" font-family="FreeSans" font-size="10.00">DGtal::CameraPosition</text>
</a>
</g>
</g>
<!-- Node5&#45;&gt;Node9 -->
<g id="edge8" class="edge">
<title>Node5&#45;&gt;Node9</title>
<path fill="none" stroke="midnightblue" d="M400.39,-288.34C403.38,-289.89 406.27,-291.61 409,-293.5 433.63,-310.57 420.37,-333.43 445,-350.5 453.4,-356.32 463.21,-360.43 473.22,-363.31"/>
<polygon fill="midnightblue" stroke="midnightblue" points="401.7,-285.09 391.14,-284.18 398.82,-291.47 401.7,-285.09"/>
</g>
<!-- Node10 -->
<g id="node10" class="node">
<title>Node10</title>
<g id="a_node10"><a xlink:href="structDGtal_1_1CameraUpVector.html" target="_top" xlink:title="CameraUpVector class to set camera up&#45;vector.">
<polygon fill="white" stroke="black" points="471,-322 471,-341 604,-341 604,-322 471,-322"/>
<text text-anchor="middle" x="537.5" y="-329" font-family="FreeSans" font-size="10.00">DGtal::CameraUpVector</text>
</a>
</g>
</g>
<!-- Node5&#45;&gt;Node10 -->
<g id="edge9" class="edge">
<title>Node5&#45;&gt;Node10</title>
<path fill="none" stroke="midnightblue" d="M385.53,-286.4C393.53,-288.45 401.51,-290.81 409,-293.5 426.02,-299.62 427.98,-306.38 445,-312.5 455.53,-316.29 467.04,-319.41 478.22,-321.96"/>
<polygon fill="midnightblue" stroke="midnightblue" points="386.32,-282.99 375.78,-284.04 384.68,-289.79 386.32,-282.99"/>
</g>
<!-- Node11 -->
<g id="node11" class="node">
<title>Node11</title>
<g id="a_node11"><a xlink:href="structDGtal_1_1CameraZNearFar.html" target="_top" xlink:title="CameraZNearFar class to set near and far distance.">
<polygon fill="white" stroke="black" points="471,-284 471,-303 604,-303 604,-284 471,-284"/>
<text text-anchor="middle" x="537.5" y="-291" font-family="FreeSans" font-size="10.00">DGtal::CameraZNearFar</text>
</a>
</g>
</g>
<!-- Node5&#45;&gt;Node11 -->
<g id="edge10" class="edge">
<title>Node5&#45;&gt;Node11</title>
<path fill="none" stroke="midnightblue" d="M419.38,-283.34C436.89,-284.86 454.67,-286.4 470.9,-287.81"/>
<polygon fill="midnightblue" stroke="midnightblue" points="419.37,-279.83 409.11,-282.45 418.77,-286.8 419.37,-279.83"/>
</g>
<!-- Node12 -->
<g id="node12" class="node">
<title>Node12</title>
<g id="a_node12"><a xlink:href="structDGtal_1_1Translate2DDomain.html" target="_top" xlink:title="class to modify the data of an given image and also the possibility to translate it (optional).">
<polygon fill="white" stroke="black" points="464.5,-246 464.5,-265 610.5,-265 610.5,-246 464.5,-246"/>
<text text-anchor="middle" x="537.5" y="-253" font-family="FreeSans" font-size="10.00">DGtal::Translate2DDomain</text>
</a>
</g>
</g>
<!-- Node5&#45;&gt;Node12 -->
<g id="edge11" class="edge">
<title>Node5&#45;&gt;Node12</title>
<path fill="none" stroke="midnightblue" d="M419.08,-265.69C434.32,-264.36 449.77,-263.02 464.24,-261.77"/>
<polygon fill="midnightblue" stroke="midnightblue" points="418.77,-262.2 409.11,-266.55 419.37,-269.17 418.77,-262.2"/>
</g>
<!-- Node13 -->
<g id="node13" class="node">
<title>Node13</title>
<g id="a_node13"><a xlink:href="structDGtal_1_1Update2DDomainPosition.html" target="_top" xlink:title="class to modify the position and orientation of an 2D domain.">
<polygon fill="white" stroke="black" points="449.5,-196.5 449.5,-226.5 625.5,-226.5 625.5,-196.5 449.5,-196.5"/>
<text text-anchor="start" x="457.5" y="-214.5" font-family="FreeSans" font-size="10.00">DGtal::Update2DDomainPosition</text>
<text text-anchor="middle" x="537.5" y="-203.5" font-family="FreeSans" font-size="10.00">&lt; Space, KSpace &gt;</text>
</a>
</g>
</g>
<!-- Node5&#45;&gt;Node13 -->
<g id="edge12" class="edge">
<title>Node5&#45;&gt;Node13</title>
<path fill="none" stroke="midnightblue" d="M385.53,-262.6C393.53,-260.55 401.51,-258.19 409,-255.5 426.02,-249.38 428.17,-243.15 445,-236.5 454.19,-232.87 464.1,-229.57 473.88,-226.64"/>
<polygon fill="midnightblue" stroke="midnightblue" points="384.68,-259.21 375.78,-264.96 386.32,-266.01 384.68,-259.21"/>
</g>
<!-- Node14 -->
<g id="node14" class="node">
<title>Node14</title>
<g id="a_node14"><a xlink:href="structDGtal_1_1UpdateImage3DEmbedding.html" target="_top" xlink:title="class to modify the 3d embedding of the image (useful to display not only 2D slice images)....">
<polygon fill="white" stroke="black" points="445,-147.5 445,-177.5 630,-177.5 630,-147.5 445,-147.5"/>
<text text-anchor="start" x="453" y="-165.5" font-family="FreeSans" font-size="10.00">DGtal::UpdateImage3DEmbedding</text>
<text text-anchor="middle" x="537.5" y="-154.5" font-family="FreeSans" font-size="10.00">&lt; Space, KSpace &gt;</text>
</a>
</g>
</g>
<!-- Node5&#45;&gt;Node14 -->
<g id="edge13" class="edge">
<title>Node5&#45;&gt;Node14</title>
<path fill="none" stroke="midnightblue" d="M401.53,-260.39C404.13,-258.91 406.63,-257.28 409,-255.5 436.34,-234.96 418.31,-208.88 445,-187.5 449.88,-183.59 455.33,-180.29 461.08,-177.5"/>
<polygon fill="midnightblue" stroke="midnightblue" points="399.81,-257.33 392.37,-264.88 402.89,-263.62 399.81,-257.33"/>
</g>
<!-- Node15 -->
<g id="node15" class="node">
<title>Node15</title>
<g id="a_node15"><a xlink:href="structDGtal_1_1UpdateImageData.html" target="_top" xlink:title="class to modify the data of an given image and also the possibility to translate it (optional).">
<polygon fill="white" stroke="black" points="464.5,-98.5 464.5,-128.5 610.5,-128.5 610.5,-98.5 464.5,-98.5"/>
<text text-anchor="start" x="472.5" y="-116.5" font-family="FreeSans" font-size="10.00">DGtal::UpdateImageData</text>
<text text-anchor="middle" x="537.5" y="-105.5" font-family="FreeSans" font-size="10.00">&lt; TImageType, TFunctor &gt;</text>
</a>
</g>
</g>
<!-- Node5&#45;&gt;Node15 -->
<g id="edge14" class="edge">
<title>Node5&#45;&gt;Node15</title>
<path fill="none" stroke="midnightblue" d="M404.2,-259.41C405.87,-258.19 407.47,-256.89 409,-255.5 449.23,-218.87 405.92,-176.35 445,-138.5 450.56,-133.11 457.16,-128.86 464.24,-125.51"/>
<polygon fill="midnightblue" stroke="midnightblue" points="402.09,-256.59 395.38,-264.79 405.74,-262.57 402.09,-256.59"/>
</g>
<!-- Node16 -->
<g id="node16" class="node">
<title>Node16</title>
<g id="a_node16"><a xlink:href="structDGtal_1_1UpdateImagePosition.html" target="_top" xlink:title="class to modify the position and orientation of an textured 2D image.">
<polygon fill="white" stroke="black" points="460,-49.5 460,-79.5 615,-79.5 615,-49.5 460,-49.5"/>
<text text-anchor="start" x="468" y="-67.5" font-family="FreeSans" font-size="10.00">DGtal::UpdateImagePosition</text>
<text text-anchor="middle" x="537.5" y="-56.5" font-family="FreeSans" font-size="10.00">&lt; Space, KSpace &gt;</text>
</a>
</g>
</g>
<!-- Node5&#45;&gt;Node16 -->
<g id="edge15" class="edge">
<title>Node5&#45;&gt;Node16</title>
<path fill="none" stroke="midnightblue" d="M404.9,-259.16C406.32,-258.01 407.69,-256.8 409,-255.5 462.62,-202.35 393.06,-144.28 445,-89.5 449.31,-84.96 454.35,-81.22 459.82,-78.13"/>
<polygon fill="midnightblue" stroke="midnightblue" points="402.57,-256.5 396.17,-264.95 406.44,-262.33 402.57,-256.5"/>
</g>
<!-- Node17 -->
<g id="node17" class="node">
<title>Node17</title>
<g id="a_node17"><a xlink:href="structDGtal_1_1UpdateLastImagePosition.html" target="_top" xlink:title="class to modify the position and orientation of an textured 2D image.">
<polygon fill="white" stroke="black" points="449.5,-0.5 449.5,-30.5 625.5,-30.5 625.5,-0.5 449.5,-0.5"/>
<text text-anchor="start" x="457.5" y="-18.5" font-family="FreeSans" font-size="10.00">DGtal::UpdateLastImagePosition</text>
<text text-anchor="middle" x="537.5" y="-7.5" font-family="FreeSans" font-size="10.00">&lt; Space, KSpace &gt;</text>
</a>
</g>
</g>
<!-- Node5&#45;&gt;Node17 -->
<g id="edge16" class="edge">
<title>Node5&#45;&gt;Node17</title>
<path fill="none" stroke="midnightblue" d="M405.11,-259.14C406.46,-258 407.76,-256.79 409,-255.5 476.44,-185.33 379.4,-111.39 445,-39.5 448.1,-36.1 451.62,-33.16 455.42,-30.62"/>
<polygon fill="midnightblue" stroke="midnightblue" points="403.02,-256.33 396.8,-264.91 407.01,-262.08 403.02,-256.33"/>
</g>
</g>
</svg>
