<?xml version="1.0" encoding="UTF-8" standalone="no"?>
<!DOCTYPE svg PUBLIC "-//W3C//DTD SVG 1.1//EN"
 "http://www.w3.org/Graphics/SVG/1.1/DTD/svg11.dtd">
<!-- Generated by graphviz version 2.43.0 (0)
 -->
<!-- Title: DGtal::ChordNaivePlaneComputer&lt; TSpace, TInputPoint, TInternalScalar &gt; Pages: 1 -->
<svg width="223pt" height="128pt"
 viewBox="0.00 0.00 223.00 128.00" xmlns="http://www.w3.org/2000/svg" xmlns:xlink="http://www.w3.org/1999/xlink">
<g id="graph0" class="graph" transform="scale(1 1) rotate(0) translate(4 124)">
<title>DGtal::ChordNaivePlaneComputer&lt; TSpace, TInputPoint, TInternalScalar &gt;</title>
<polygon fill="white" stroke="transparent" points="-4,4 -4,-124 219,-124 219,4 -4,4"/>
<!-- Node1 -->
<g id="node1" class="node">
<title>Node1</title>
<g id="a_node1"><a xlink:title="Aim: A class that contains the chord&#45;based algorithm for recognizing pieces of digital planes of give...">
<polygon fill="#bfbfbf" stroke="black" points="0,-89.5 0,-119.5 215,-119.5 215,-89.5 0,-89.5"/>
<text text-anchor="start" x="8" y="-107.5" font-family="FreeSans" font-size="10.00">DGtal::ChordNaivePlaneComputer</text>
<text text-anchor="middle" x="107.5" y="-96.5" font-family="FreeSans" font-size="10.00">&lt; TSpace, TInputPoint, TInternalScalar &gt;</text>
</a>
</g>
</g>
<!-- Node2 -->
<g id="node2" class="node">
<title>Node2</title>
<g id="a_node2"><a xlink:href="classDGtal_1_1ChordNaivePlaneComputer.html" target="_top" xlink:title=" ">
<polygon fill="white" stroke="black" points="9,-0.5 9,-30.5 206,-30.5 206,-0.5 9,-0.5"/>
<text text-anchor="start" x="17" y="-18.5" font-family="FreeSans" font-size="10.00">DGtal::ChordNaivePlaneComputer</text>
<text text-anchor="middle" x="107.5" y="-7.5" font-family="FreeSans" font-size="10.00">&lt; Space, InputPoint, InternalScalar &gt;</text>
</a>
</g>
</g>
<!-- Node1&#45;&gt;Node2 -->
<g id="edge1" class="edge">
<title>Node1&#45;&gt;Node2</title>
<path fill="none" stroke="orange" stroke-dasharray="5,2" d="M107.5,-79.09C107.5,-63.44 107.5,-43.68 107.5,-30.6"/>
<polygon fill="orange" stroke="orange" points="104,-79.13 107.5,-89.13 111,-79.13 104,-79.13"/>
<text text-anchor="start" x="107.5" y="-63" font-family="FreeSans" font-size="10.00"> &lt; Space, InputPoint,</text>
<text text-anchor="middle" x="159" y="-52" font-family="FreeSans" font-size="10.00"> InternalScalar &gt;</text>
</g>
</g>
</svg>
