<?xml version="1.0" encoding="UTF-8" standalone="no"?>
<!DOCTYPE svg PUBLIC "-//W3C//DTD SVG 1.1//EN"
 "http://www.w3.org/Graphics/SVG/1.1/DTD/svg11.dtd">
<!-- Generated by graphviz version 2.43.0 (0)
 -->
<!-- Title: DGtal::functors::Thresholder&lt; T, isLower, isEqual &gt; Pages: 1 -->
<svg width="203pt" height="128pt"
 viewBox="0.00 0.00 203.00 128.00" xmlns="http://www.w3.org/2000/svg" xmlns:xlink="http://www.w3.org/1999/xlink">
<g id="graph0" class="graph" transform="scale(1 1) rotate(0) translate(4 124)">
<title>DGtal::functors::Thresholder&lt; T, isLower, isEqual &gt;</title>
<polygon fill="white" stroke="transparent" points="-4,4 -4,-124 199,-124 199,4 -4,4"/>
<!-- Node1 -->
<g id="node1" class="node">
<title>Node1</title>
<g id="a_node1"><a xlink:title="Aim: A small functor with an operator () that compares one value to a threshold value according to tw...">
<polygon fill="#bfbfbf" stroke="black" points="5,-89.5 5,-119.5 159,-119.5 159,-89.5 5,-89.5"/>
<text text-anchor="start" x="13" y="-107.5" font-family="FreeSans" font-size="10.00">DGtal::functors::Thresholder</text>
<text text-anchor="middle" x="82" y="-96.5" font-family="FreeSans" font-size="10.00">&lt; T, isLower, isEqual &gt;</text>
</a>
</g>
</g>
<!-- Node2 -->
<g id="node2" class="node">
<title>Node2</title>
<g id="a_node2"><a xlink:href="classDGtal_1_1functors_1_1Thresholder.html" target="_top" xlink:title=" ">
<polygon fill="white" stroke="black" points="0,-0.5 0,-30.5 164,-30.5 164,-0.5 0,-0.5"/>
<text text-anchor="start" x="8" y="-18.5" font-family="FreeSans" font-size="10.00">DGtal::functors::Thresholder</text>
<text text-anchor="middle" x="82" y="-7.5" font-family="FreeSans" font-size="10.00">&lt; ResultInteger, false, false &gt;</text>
</a>
</g>
</g>
<!-- Node1&#45;&gt;Node2 -->
<g id="edge1" class="edge">
<title>Node1&#45;&gt;Node2</title>
<path fill="none" stroke="orange" stroke-dasharray="5,2" d="M82,-79.09C82,-63.44 82,-43.68 82,-30.6"/>
<polygon fill="orange" stroke="orange" points="78.5,-79.13 82,-89.13 85.5,-79.13 78.5,-79.13"/>
<text text-anchor="start" x="82" y="-63" font-family="FreeSans" font-size="10.00"> &lt; ResultInteger, false,</text>
<text text-anchor="middle" x="138.5" y="-52" font-family="FreeSans" font-size="10.00"> false &gt;</text>
</g>
</g>
</svg>
