<?xml version="1.0" encoding="UTF-8" standalone="no"?>
<!DOCTYPE svg PUBLIC "-//W3C//DTD SVG 1.1//EN"
 "http://www.w3.org/Graphics/SVG/1.1/DTD/svg11.dtd">
<!-- Generated by graphviz version 2.43.0 (0)
 -->
<!-- Title: DGtal::Viewer3D&lt; TSpace, TKSpace &gt; Pages: 1 -->
<!--zoomable 88 -->
<svg id="main" version="1.1" xmlns="http://www.w3.org/2000/svg" xmlns:xlink="http://www.w3.org/1999/xlink" xml:space="preserve" onload="init(evt)">
<style type="text/css"><![CDATA[
.edge:hover path { stroke: red; }
.edge:hover polygon { stroke: red; fill: red; }
]]></style>
<script type="text/javascript"><![CDATA[
var edges = document.getElementsByTagName('g');
if (edges && edges.length) {
  for (var i=0;i<edges.length;i++) {
    if (edges[i].id.substr(0,4)=='edge') {
      edges[i].setAttribute('class','edge');
    }
  }
}
]]></script>
        <defs>
                <circle id="rim" cx="0" cy="0" r="7"/>
                <circle id="rim2" cx="0" cy="0" r="3.5"/>
                <g id="zoomPlus">
                        <use xlink:href="#rim" fill="#404040">
                                <set attributeName="fill" to="#808080" begin="zoomplus.mouseover" end="zoomplus.mouseout"/>
                        </use>
                        <path d="M-4,0h8M0,-4v8" fill="none" stroke="white" stroke-width="1.5" pointer-events="none"/>
                </g>
                <g id="zoomMin">
                        <use xlink:href="#rim" fill="#404040">
                                <set attributeName="fill" to="#808080" begin="zoomminus.mouseover" end="zoomminus.mouseout"/>
                        </use>
                        <path d="M-4,0h8" fill="none" stroke="white" stroke-width="1.5" pointer-events="none"/>
                </g>
                <g id="dirArrow">
                        <path fill="none" stroke="white" stroke-width="1.5" d="M0,-3.0v7 M-2.5,-0.5L0,-3.0L2.5,-0.5"/>
                </g>
               <g id="resetDef">
                       <use xlink:href="#rim2" fill="#404040">
                               <set attributeName="fill" to="#808080" begin="reset.mouseover" end="reset.mouseout"/>
                       </use>
               </g>
        </defs>

<script type="text/javascript">
var viewWidth = 1079;
var viewHeight = 88;
var sectionId = 'dynsection-0';
</script>
<script xlink:href="svgpan.js"/>
<svg id="graph" class="graph">
<g id="viewport">
<title>DGtal::Viewer3D&lt; TSpace, TKSpace &gt;</title>
<polygon fill="white" stroke="transparent" points="-4,4 -4,-84 1075,-84 1075,4 -4,4"/>
<!-- Node1 -->
<g id="node1" class="node">
<title>Node1</title>
<g id="a_node1"><a xlink:title=" ">
<polygon fill="#bfbfbf" stroke="black" points="548,-24.5 548,-54.5 695,-54.5 695,-24.5 548,-24.5"/>
<text text-anchor="start" x="556" y="-42.5" font-family="FreeSans" font-size="10.00">DGtal::Viewer3D&lt; TSpace,</text>
<text text-anchor="middle" x="621.5" y="-31.5" font-family="FreeSans" font-size="10.00"> TKSpace &gt;</text>
</a>
</g>
</g>
<!-- Node5 -->
<g id="node5" class="node">
<title>Node5</title>
<g id="a_node5"><a xlink:href="classDGtal_1_1Viewer3D.html" target="_top" xlink:title=" ">
<polygon fill="white" stroke="black" points="858,-49.5 858,-79.5 1071,-79.5 1071,-49.5 858,-49.5"/>
<text text-anchor="start" x="866" y="-67.5" font-family="FreeSans" font-size="10.00">DGtal::Viewer3D&lt; DGtal</text>
<text text-anchor="middle" x="964.5" y="-56.5" font-family="FreeSans" font-size="10.00">::SpaceND, DGtal::KhalimskySpaceND &gt;</text>
</a>
</g>
</g>
<!-- Node1&#45;&gt;Node5 -->
<g id="edge4" class="edge">
<title>Node1&#45;&gt;Node5</title>
<path fill="none" stroke="orange" stroke-dasharray="5,2" d="M705.44,-45.58C751.31,-48.94 808.8,-53.16 857.87,-56.76"/>
<polygon fill="orange" stroke="orange" points="705.46,-42.07 695.23,-44.83 704.95,-49.05 705.46,-42.07"/>
<text text-anchor="start" x="713" y="-68.5" font-family="FreeSans" font-size="10.00"> &lt; DGtal::SpaceND, DGtal</text>
<text text-anchor="middle" x="776.5" y="-57.5" font-family="FreeSans" font-size="10.00">::KhalimskySpaceND &gt;</text>
</g>
<!-- Node6 -->
<g id="node6" class="node">
<title>Node6</title>
<g id="a_node6"><a xlink:href="classDGtal_1_1Viewer3D.html" target="_top" xlink:title=" ">
<polygon fill="white" stroke="black" points="894,-0.5 894,-30.5 1035,-30.5 1035,-0.5 894,-0.5"/>
<text text-anchor="start" x="902" y="-18.5" font-family="FreeSans" font-size="10.00">DGtal::Viewer3D&lt; Space,</text>
<text text-anchor="middle" x="964.5" y="-7.5" font-family="FreeSans" font-size="10.00"> KSpace &gt;</text>
</a>
</g>
</g>
<!-- Node1&#45;&gt;Node6 -->
<g id="edge5" class="edge">
<title>Node1&#45;&gt;Node6</title>
<path fill="none" stroke="orange" stroke-dasharray="5,2" d="M705.26,-32.1C707.87,-31.9 710.45,-31.69 713,-31.5 774.05,-26.85 843.54,-22.49 893.82,-19.49"/>
<polygon fill="orange" stroke="orange" points="704.78,-28.63 695.1,-32.93 705.35,-35.61 704.78,-28.63"/>
<text text-anchor="middle" x="776.5" y="-34.5" font-family="FreeSans" font-size="10.00"> &lt; Space, KSpace &gt;</text>
</g>
<!-- Node2 -->
<g id="node2" class="node">
<title>Node2</title>
<g id="a_node2"><a xlink:title=" ">
<polygon fill="white" stroke="#bfbfbf" points="383,-52 383,-71 453,-71 453,-52 383,-52"/>
<text text-anchor="middle" x="418" y="-59" font-family="FreeSans" font-size="10.00">QGLViewer</text>
</a>
</g>
</g>
<!-- Node2&#45;&gt;Node1 -->
<g id="edge1" class="edge">
<title>Node2&#45;&gt;Node1</title>
<path fill="none" stroke="midnightblue" d="M463.33,-56.66C488.04,-53.96 519.43,-50.54 547.64,-47.45"/>
<polygon fill="midnightblue" stroke="midnightblue" points="462.74,-53.2 453.18,-57.77 463.5,-60.16 462.74,-53.2"/>
</g>
<!-- Node3 -->
<g id="node3" class="node">
<title>Node3</title>
<g id="a_node3"><a xlink:href="classDGtal_1_1Display3D.html" target="_top" xlink:title=" ">
<polygon fill="white" stroke="black" points="325,-2.5 325,-32.5 511,-32.5 511,-2.5 325,-2.5"/>
<text text-anchor="start" x="333" y="-20.5" font-family="FreeSans" font-size="10.00">DGtal::Display3D&lt; SpaceND</text>
<text text-anchor="middle" x="418" y="-9.5" font-family="FreeSans" font-size="10.00">&lt; 3 &gt;, KhalimskySpaceND&lt; 3 &gt; &gt;</text>
</a>
</g>
</g>
<!-- Node3&#45;&gt;Node1 -->
<g id="edge2" class="edge">
<title>Node3&#45;&gt;Node1</title>
<path fill="none" stroke="midnightblue" d="M521.34,-28.67C530.33,-29.65 539.3,-30.63 547.96,-31.58"/>
<polygon fill="midnightblue" stroke="midnightblue" points="521.52,-25.17 511.2,-27.57 520.76,-32.13 521.52,-25.17"/>
</g>
<!-- Node4 -->
<g id="node4" class="node">
<title>Node4</title>
<g id="a_node4"><a xlink:href="classDGtal_1_1Display3D.html" target="_top" xlink:title="Aim: This semi abstract class defines the stream mechanism to display 3d primitive (like BallVector,...">
<polygon fill="white" stroke="black" points="0,-2.5 0,-32.5 144,-32.5 144,-2.5 0,-2.5"/>
<text text-anchor="start" x="8" y="-20.5" font-family="FreeSans" font-size="10.00">DGtal::Display3D&lt; Space,</text>
<text text-anchor="middle" x="72" y="-9.5" font-family="FreeSans" font-size="10.00"> KSpace &gt;</text>
</a>
</g>
</g>
<!-- Node4&#45;&gt;Node3 -->
<g id="edge3" class="edge">
<title>Node4&#45;&gt;Node3</title>
<path fill="none" stroke="orange" stroke-dasharray="5,2" d="M154.31,-17.5C205.51,-17.5 271.73,-17.5 324.88,-17.5"/>
<polygon fill="orange" stroke="orange" points="154.28,-14 144.28,-17.5 154.28,-21 154.28,-14"/>
<text text-anchor="start" x="162" y="-31.5" font-family="FreeSans" font-size="10.00"> &lt; SpaceND&lt; 3 &gt;, Khalimsky</text>
<text text-anchor="middle" x="234.5" y="-20.5" font-family="FreeSans" font-size="10.00">SpaceND&lt; 3 &gt; &gt;</text>
</g>
</g>
</svg>
        <g id="navigator" transform="translate(0 0)" fill="#404254">
                <rect fill="#f2f5e9" fill-opacity="0.5" stroke="#606060" stroke-width=".5" x="0" y="0" width="60" height="60"/>
                <use id="zoomplus" xlink:href="#zoomPlus" x="17" y="9" onmousedown="handleZoom(evt,'in')"/>
                <use id="zoomminus" xlink:href="#zoomMin" x="42" y="9" onmousedown="handleZoom(evt,'out')"/>
                <use id="reset" xlink:href="#resetDef" x="30" y="36" onmousedown="handleReset()"/>
                <g id="arrowUp" xlink:href="#dirArrow" transform="translate(30 24)" onmousedown="handlePan(0,-1)">
                  <use xlink:href="#rim" fill="#404040">
                        <set attributeName="fill" to="#808080" begin="arrowUp.mouseover" end="arrowUp.mouseout"/>
                  </use>
                  <path fill="none" stroke="white" stroke-width="1.5" d="M0,-3.0v7 M-2.5,-0.5L0,-3.0L2.5,-0.5"/>
                </g>
                <g id="arrowRight" xlink:href="#dirArrow" transform="rotate(90) translate(36 -43)" onmousedown="handlePan(1,0)">
                  <use xlink:href="#rim" fill="#404040">
                        <set attributeName="fill" to="#808080" begin="arrowRight.mouseover" end="arrowRight.mouseout"/>
                  </use>
                  <path fill="none" stroke="white" stroke-width="1.5" d="M0,-3.0v7 M-2.5,-0.5L0,-3.0L2.5,-0.5"/>
                </g>
                <g id="arrowDown" xlink:href="#dirArrow" transform="rotate(180) translate(-30 -48)" onmousedown="handlePan(0,1)">
                  <use xlink:href="#rim" fill="#404040">
                        <set attributeName="fill" to="#808080" begin="arrowDown.mouseover" end="arrowDown.mouseout"/>
                  </use>
                  <path fill="none" stroke="white" stroke-width="1.5" d="M0,-3.0v7 M-2.5,-0.5L0,-3.0L2.5,-0.5"/>
                </g>
                <g id="arrowLeft" xlink:href="#dirArrow" transform="rotate(270) translate(-36 17)" onmousedown="handlePan(-1,0)">
                  <use xlink:href="#rim" fill="#404040">
                        <set attributeName="fill" to="#808080" begin="arrowLeft.mouseover" end="arrowLeft.mouseout"/>
                  </use>
                  <path fill="none" stroke="white" stroke-width="1.5" d="M0,-3.0v7 M-2.5,-0.5L0,-3.0L2.5,-0.5"/>
                </g>
        </g>
        <svg viewBox="0 0 15 15" width="100%" height="30px" preserveAspectRatio="xMaxYMin meet">
         <g id="arrow_out" transform="scale(0.3 0.3)">
          <a xlink:href="classDGtal_1_1Viewer3D__inherit__graph_org.svg" target="_base">
           <rect id="button" ry="5" rx="5" y="6" x="6" height="38" width="38"
                fill="#f2f5e9" fill-opacity="0.5" stroke="#606060" stroke-width="1.0"/>
           <path id="arrow"
             d="M 11.500037,31.436501 C 11.940474,20.09759 22.043105,11.32322 32.158766,21.979434 L 37.068811,17.246167 C 37.068811,17.246167 37.088388,32 37.088388,32 L 22.160133,31.978069 C 22.160133,31.978069 26.997745,27.140456 26.997745,27.140456 C 18.528582,18.264221 13.291696,25.230495 11.500037,31.436501 z"
             style="fill:#404040;"/>
          </a>
         </g>
        </svg>
</svg>
