<?xml version="1.0" encoding="UTF-8" standalone="no"?>
<!DOCTYPE svg PUBLIC "-//W3C//DTD SVG 1.1//EN"
 "http://www.w3.org/Graphics/SVG/1.1/DTD/svg11.dtd">
<!-- Generated by graphviz version 2.43.0 (0)
 -->
<!-- Title: DGtal::TangentVectorFromDSSEstimator&lt; DSSComputer &gt; Pages: 1 -->
<svg width="774pt" height="68pt"
 viewBox="0.00 0.00 774.00 67.50" xmlns="http://www.w3.org/2000/svg" xmlns:xlink="http://www.w3.org/1999/xlink">
<g id="graph0" class="graph" transform="scale(1 1) rotate(0) translate(4 63.5)">
<title>DGtal::TangentVectorFromDSSEstimator&lt; DSSComputer &gt;</title>
<polygon fill="white" stroke="transparent" points="-4,4 -4,-63.5 770,-63.5 770,4 -4,4"/>
<!-- Node1 -->
<g id="node1" class="node">
<title>Node1</title>
<g id="a_node1"><a xlink:title=" ">
<polygon fill="#bfbfbf" stroke="black" points="593,-11.5 593,-41.5 766,-41.5 766,-11.5 593,-11.5"/>
<text text-anchor="start" x="601" y="-29.5" font-family="FreeSans" font-size="10.00">DGtal::TangentVectorFrom</text>
<text text-anchor="middle" x="679.5" y="-18.5" font-family="FreeSans" font-size="10.00">DSSEstimator&lt; DSSComputer &gt;</text>
</a>
</g>
</g>
<!-- Node2 -->
<g id="node2" class="node">
<title>Node2</title>
<g id="a_node2"><a xlink:href="classDGtal_1_1detail_1_1PosIndepScaleIndepSCEstimator.html" target="_top" xlink:title=" ">
<polygon fill="white" stroke="black" points="371,-0.5 371,-52.5 556,-52.5 556,-0.5 371,-0.5"/>
<text text-anchor="start" x="379" y="-40.5" font-family="FreeSans" font-size="10.00">DGtal::detail::PosIndepScale</text>
<text text-anchor="start" x="379" y="-29.5" font-family="FreeSans" font-size="10.00">IndepSCEstimator&lt; DSSComputer,</text>
<text text-anchor="start" x="379" y="-18.5" font-family="FreeSans" font-size="10.00"> detail::TangentVectorFromDSS</text>
<text text-anchor="middle" x="463.5" y="-7.5" font-family="FreeSans" font-size="10.00">&lt; DSSComputer &gt; &gt;</text>
</a>
</g>
</g>
<!-- Node2&#45;&gt;Node1 -->
<g id="edge1" class="edge">
<title>Node2&#45;&gt;Node1</title>
<path fill="none" stroke="midnightblue" d="M566.19,-26.5C575.08,-26.5 584.02,-26.5 592.77,-26.5"/>
<polygon fill="midnightblue" stroke="midnightblue" points="566.19,-23 556.19,-26.5 566.19,-30 566.19,-23"/>
</g>
<!-- Node3 -->
<g id="node3" class="node">
<title>Node3</title>
<g id="a_node3"><a xlink:href="classDGtal_1_1detail_1_1PosIndepScaleIndepSCEstimator.html" target="_top" xlink:title=" ">
<polygon fill="white" stroke="black" points="0,-6 0,-47 215,-47 215,-6 0,-6"/>
<text text-anchor="start" x="8" y="-35" font-family="FreeSans" font-size="10.00">DGtal::detail::PosIndepScale</text>
<text text-anchor="start" x="8" y="-24" font-family="FreeSans" font-size="10.00">IndepSCEstimator&lt; TSegmentComputer,</text>
<text text-anchor="middle" x="107.5" y="-13" font-family="FreeSans" font-size="10.00"> Functor, ReturnType &gt;</text>
</a>
</g>
</g>
<!-- Node3&#45;&gt;Node2 -->
<g id="edge2" class="edge">
<title>Node3&#45;&gt;Node2</title>
<path fill="none" stroke="orange" stroke-dasharray="5,2" d="M225.2,-26.5C272.59,-26.5 326.52,-26.5 370.99,-26.5"/>
<polygon fill="orange" stroke="orange" points="225.19,-23 215.19,-26.5 225.19,-30 225.19,-23"/>
<text text-anchor="start" x="233" y="-51.5" font-family="FreeSans" font-size="10.00"> &lt; DSSComputer, detail</text>
<text text-anchor="start" x="233" y="-40.5" font-family="FreeSans" font-size="10.00">::TangentVectorFromDSS</text>
<text text-anchor="middle" x="293" y="-29.5" font-family="FreeSans" font-size="10.00">&lt; DSSComputer &gt; &gt;</text>
</g>
</g>
</svg>
