<?xml version="1.0" encoding="UTF-8" standalone="no"?>
<!DOCTYPE svg PUBLIC "-//W3C//DTD SVG 1.1//EN"
 "http://www.w3.org/Graphics/SVG/1.1/DTD/svg11.dtd">
<!-- Generated by graphviz version 2.43.0 (0)
 -->
<!-- Title: DGtal::ArithmeticalDSSComputer&lt; TIterator, TInteger, adjacency &gt; Pages: 1 -->
<svg width="526pt" height="160pt"
 viewBox="0.00 0.00 526.00 159.50" xmlns="http://www.w3.org/2000/svg" xmlns:xlink="http://www.w3.org/1999/xlink">
<g id="graph0" class="graph" transform="scale(1 1) rotate(0) translate(4 155.5)">
<title>DGtal::ArithmeticalDSSComputer&lt; TIterator, TInteger, adjacency &gt;</title>
<polygon fill="white" stroke="transparent" points="-4,4 -4,-155.5 522,-155.5 522,4 -4,4"/>
<!-- Node1 -->
<g id="node1" class="node">
<title>Node1</title>
<g id="a_node1"><a xlink:title="Aim: This class is a wrapper around ArithmeticalDSS that is devoted to the dynamic recognition of dig...">
<polygon fill="#bfbfbf" stroke="black" points="0,-55.5 0,-85.5 183,-85.5 183,-55.5 0,-55.5"/>
<text text-anchor="start" x="8" y="-73.5" font-family="FreeSans" font-size="10.00">DGtal::ArithmeticalDSSComputer</text>
<text text-anchor="middle" x="91.5" y="-62.5" font-family="FreeSans" font-size="10.00">&lt; TIterator, TInteger, adjacency &gt;</text>
</a>
</g>
</g>
<!-- Node2 -->
<g id="node2" class="node">
<title>Node2</title>
<g id="a_node2"><a xlink:href="classDGtal_1_1ArithmeticalDSSComputer.html" target="_top" xlink:title=" ">
<polygon fill="white" stroke="black" points="340,-110 340,-151 518,-151 518,-110 340,-110"/>
<text text-anchor="start" x="348" y="-139" font-family="FreeSans" font-size="10.00">DGtal::ArithmeticalDSSComputer</text>
<text text-anchor="start" x="348" y="-128" font-family="FreeSans" font-size="10.00">&lt; IteratorAdapter, TInteger,</text>
<text text-anchor="middle" x="429" y="-117" font-family="FreeSans" font-size="10.00"> connectivity &gt;</text>
</a>
</g>
</g>
<!-- Node1&#45;&gt;Node2 -->
<g id="edge1" class="edge">
<title>Node1&#45;&gt;Node2</title>
<path fill="none" stroke="orange" stroke-dasharray="5,2" d="M139.59,-89.17C158.41,-95.94 180.47,-103.02 201,-107.5 246.28,-117.38 297.59,-123.03 339.95,-126.26"/>
<polygon fill="orange" stroke="orange" points="140.65,-85.83 130.06,-85.67 138.24,-92.4 140.65,-85.83"/>
<text text-anchor="start" x="201" y="-137.5" font-family="FreeSans" font-size="10.00"> &lt; IteratorAdapter,</text>
<text text-anchor="middle" x="261.5" y="-126.5" font-family="FreeSans" font-size="10.00"> TInteger, connectivity &gt;</text>
</g>
<!-- Node3 -->
<g id="node3" class="node">
<title>Node3</title>
<g id="a_node3"><a xlink:href="classDGtal_1_1ArithmeticalDSSComputer.html" target="_top" xlink:title=" ">
<polygon fill="white" stroke="black" points="340,-50 340,-91 518,-91 518,-50 340,-50"/>
<text text-anchor="start" x="348" y="-79" font-family="FreeSans" font-size="10.00">DGtal::ArithmeticalDSSComputer</text>
<text text-anchor="start" x="348" y="-68" font-family="FreeSans" font-size="10.00">&lt; std::vector&lt; Z2i::Point</text>
<text text-anchor="middle" x="429" y="-57" font-family="FreeSans" font-size="10.00"> &gt;::const_iterator, int, 4 &gt;</text>
</a>
</g>
</g>
<!-- Node1&#45;&gt;Node3 -->
<g id="edge2" class="edge">
<title>Node1&#45;&gt;Node3</title>
<path fill="none" stroke="orange" stroke-dasharray="5,2" d="M193.41,-70.5C240,-70.5 294.82,-70.5 339.75,-70.5"/>
<polygon fill="orange" stroke="orange" points="193.29,-67 183.29,-70.5 193.29,-74 193.29,-67"/>
<text text-anchor="start" x="202" y="-95.5" font-family="FreeSans" font-size="10.00"> &lt; std::vector&lt; Z2i</text>
<text text-anchor="start" x="202" y="-84.5" font-family="FreeSans" font-size="10.00">::Point &gt;::const_iterator,</text>
<text text-anchor="middle" x="261.5" y="-73.5" font-family="FreeSans" font-size="10.00"> int, 4 &gt;</text>
</g>
<!-- Node4 -->
<g id="node4" class="node">
<title>Node4</title>
<g id="a_node4"><a xlink:href="classDGtal_1_1ArithmeticalDSSComputer.html" target="_top" xlink:title=" ">
<polygon fill="white" stroke="black" points="340,-0.5 340,-30.5 518,-30.5 518,-0.5 340,-0.5"/>
<text text-anchor="start" x="348" y="-18.5" font-family="FreeSans" font-size="10.00">DGtal::ArithmeticalDSSComputer</text>
<text text-anchor="middle" x="429" y="-7.5" font-family="FreeSans" font-size="10.00">&lt; IteratorAdapter, TInteger, 8 &gt;</text>
</a>
</g>
</g>
<!-- Node1&#45;&gt;Node4 -->
<g id="edge3" class="edge">
<title>Node1&#45;&gt;Node4</title>
<path fill="none" stroke="orange" stroke-dasharray="5,2" d="M160.37,-53.05C173.78,-49.93 187.79,-46.92 201,-44.5 246.53,-36.16 297.63,-29.41 339.8,-24.52"/>
<polygon fill="orange" stroke="orange" points="159.18,-49.73 150.25,-55.44 160.79,-56.54 159.18,-49.73"/>
<text text-anchor="start" x="215.5" y="-58.5" font-family="FreeSans" font-size="10.00"> &lt; IteratorAdapter,</text>
<text text-anchor="middle" x="261.5" y="-47.5" font-family="FreeSans" font-size="10.00"> TInteger, 8 &gt;</text>
</g>
</g>
</svg>
