<?xml version="1.0" encoding="UTF-8" standalone="no"?>
<!DOCTYPE svg PUBLIC "-//W3C//DTD SVG 1.1//EN"
 "http://www.w3.org/Graphics/SVG/1.1/DTD/svg11.dtd">
<!-- Generated by graphviz version 2.43.0 (0)
 -->
<!-- Title: DGtal::CowPtr&lt; T &gt; Pages: 1 -->
<!--zoomable 527 -->
<svg id="main" version="1.1" xmlns="http://www.w3.org/2000/svg" xmlns:xlink="http://www.w3.org/1999/xlink" xml:space="preserve" onload="init(evt)">
<style type="text/css"><![CDATA[
.edge:hover path { stroke: red; }
.edge:hover polygon { stroke: red; fill: red; }
]]></style>
<script type="text/javascript"><![CDATA[
var edges = document.getElementsByTagName('g');
if (edges && edges.length) {
  for (var i=0;i<edges.length;i++) {
    if (edges[i].id.substr(0,4)=='edge') {
      edges[i].setAttribute('class','edge');
    }
  }
}
]]></script>
        <defs>
                <circle id="rim" cx="0" cy="0" r="7"/>
                <circle id="rim2" cx="0" cy="0" r="3.5"/>
                <g id="zoomPlus">
                        <use xlink:href="#rim" fill="#404040">
                                <set attributeName="fill" to="#808080" begin="zoomplus.mouseover" end="zoomplus.mouseout"/>
                        </use>
                        <path d="M-4,0h8M0,-4v8" fill="none" stroke="white" stroke-width="1.5" pointer-events="none"/>
                </g>
                <g id="zoomMin">
                        <use xlink:href="#rim" fill="#404040">
                                <set attributeName="fill" to="#808080" begin="zoomminus.mouseover" end="zoomminus.mouseout"/>
                        </use>
                        <path d="M-4,0h8" fill="none" stroke="white" stroke-width="1.5" pointer-events="none"/>
                </g>
                <g id="dirArrow">
                        <path fill="none" stroke="white" stroke-width="1.5" d="M0,-3.0v7 M-2.5,-0.5L0,-3.0L2.5,-0.5"/>
                </g>
               <g id="resetDef">
                       <use xlink:href="#rim2" fill="#404040">
                               <set attributeName="fill" to="#808080" begin="reset.mouseover" end="reset.mouseout"/>
                       </use>
               </g>
        </defs>

<script type="text/javascript">
var viewWidth = 474;
var viewHeight = 527;
var sectionId = 'dynsection-0';
</script>
<script xlink:href="svgpan.js"/>
<svg id="graph" class="graph">
<g id="viewport">
<title>DGtal::CowPtr&lt; T &gt;</title>
<polygon fill="white" stroke="transparent" points="-4,4 -4,-522.57 470,-522.57 470,4 -4,4"/>
<!-- Node1 -->
<g id="node1" class="node">
<title>Node1</title>
<g id="a_node1"><a xlink:title="Aim: Copy on write shared pointer.">
<polygon fill="#bfbfbf" stroke="black" points="0,-235.07 0,-254.07 113,-254.07 113,-235.07 0,-235.07"/>
<text text-anchor="middle" x="56.5" y="-242.07" font-family="FreeSans" font-size="10.00">DGtal::CowPtr&lt; T &gt;</text>
</a>
</g>
</g>
<!-- Node2 -->
<g id="node2" class="node">
<title>Node2</title>
<g id="a_node2"><a xlink:href="classDGtal_1_1CowPtr.html" target="_top" xlink:title=" ">
<polygon fill="white" stroke="black" points="289.5,-467.57 289.5,-497.57 451.5,-497.57 451.5,-467.57 289.5,-467.57"/>
<text text-anchor="start" x="297.5" y="-485.57" font-family="FreeSans" font-size="10.00">DGtal::CowPtr&lt; StabbingLine</text>
<text text-anchor="middle" x="370.5" y="-474.57" font-family="FreeSans" font-size="10.00">Computer&lt; ConstIterator &gt; &gt;</text>
</a>
</g>
</g>
<!-- Node1&#45;&gt;Node2 -->
<g id="edge1" class="edge">
<title>Node1&#45;&gt;Node2</title>
<path fill="none" stroke="orange" stroke-dasharray="5,2" d="M57.6,-264.54C59,-308.11 69.02,-411.73 131,-460.57 175.01,-495.25 238.77,-499.51 289.29,-495.77"/>
<polygon fill="orange" stroke="orange" points="61.09,-264.3 57.4,-254.37 54.09,-264.44 61.09,-264.3"/>
<text text-anchor="start" x="131" y="-510.57" font-family="FreeSans" font-size="10.00"> &lt; StabbingLineComputer</text>
<text text-anchor="middle" x="194" y="-499.57" font-family="FreeSans" font-size="10.00">&lt; ConstIterator &gt; &gt;</text>
</g>
<!-- Node3 -->
<g id="node3" class="node">
<title>Node3</title>
<g id="a_node3"><a xlink:href="classDGtal_1_1CowPtr.html" target="_top" xlink:title=" ">
<polygon fill="white" stroke="black" points="309.5,-418.57 309.5,-448.57 431.5,-448.57 431.5,-418.57 309.5,-418.57"/>
<text text-anchor="start" x="317.5" y="-436.57" font-family="FreeSans" font-size="10.00">DGtal::CowPtr&lt; const</text>
<text text-anchor="middle" x="370.5" y="-425.57" font-family="FreeSans" font-size="10.00"> Domain &gt;</text>
</a>
</g>
</g>
<!-- Node1&#45;&gt;Node3 -->
<g id="edge2" class="edge">
<title>Node1&#45;&gt;Node3</title>
<path fill="none" stroke="orange" stroke-dasharray="5,2" d="M59.79,-264.39C65.1,-300.42 81.83,-376.16 131,-411.57 182.46,-448.62 257.24,-449.34 309.3,-443.86"/>
<polygon fill="orange" stroke="orange" points="63.22,-263.65 58.44,-254.19 56.28,-264.57 63.22,-263.65"/>
<text text-anchor="middle" x="194" y="-448.57" font-family="FreeSans" font-size="10.00"> &lt; const Domain &gt;</text>
</g>
<!-- Node4 -->
<g id="node4" class="node">
<title>Node4</title>
<g id="a_node4"><a xlink:href="classDGtal_1_1CowPtr.html" target="_top" xlink:title=" ">
<polygon fill="white" stroke="black" points="310.5,-380.07 310.5,-399.07 430.5,-399.07 430.5,-380.07 310.5,-380.07"/>
<text text-anchor="middle" x="370.5" y="-387.07" font-family="FreeSans" font-size="10.00">DGtal::CowPtr&lt; A1 &gt;</text>
</a>
</g>
</g>
<!-- Node1&#45;&gt;Node4 -->
<g id="edge3" class="edge">
<title>Node1&#45;&gt;Node4</title>
<path fill="none" stroke="orange" stroke-dasharray="5,2" d="M63.18,-263.94C72.42,-291.68 93.56,-341.96 131,-365.57 184.68,-399.42 259.04,-401.45 310.39,-397.57"/>
<polygon fill="orange" stroke="orange" points="66.45,-262.69 60.12,-254.2 59.78,-264.79 66.45,-262.69"/>
<text text-anchor="middle" x="194" y="-400.57" font-family="FreeSans" font-size="10.00"> &lt; A1 &gt;</text>
</g>
<!-- Node5 -->
<g id="node5" class="node">
<title>Node5</title>
<g id="a_node5"><a xlink:href="classDGtal_1_1CowPtr.html" target="_top" xlink:title=" ">
<polygon fill="white" stroke="black" points="293,-342.07 293,-361.07 448,-361.07 448,-342.07 293,-342.07"/>
<text text-anchor="middle" x="370.5" y="-349.07" font-family="FreeSans" font-size="10.00">DGtal::CowPtr&lt; DigitalSet &gt;</text>
</a>
</g>
</g>
<!-- Node1&#45;&gt;Node5 -->
<g id="edge4" class="edge">
<title>Node1&#45;&gt;Node5</title>
<path fill="none" stroke="orange" stroke-dasharray="5,2" d="M69.52,-262.47C82.47,-280.16 104.77,-306.42 131,-319.57 181.05,-344.64 244.05,-352.23 292.73,-353.77"/>
<polygon fill="orange" stroke="orange" points="72.26,-260.28 63.64,-254.12 66.54,-264.31 72.26,-260.28"/>
<text text-anchor="middle" x="194" y="-353.57" font-family="FreeSans" font-size="10.00"> &lt; DigitalSet &gt;</text>
</g>
<!-- Node6 -->
<g id="node6" class="node">
<title>Node6</title>
<g id="a_node6"><a xlink:href="classDGtal_1_1CowPtr.html" target="_top" xlink:title=" ">
<polygon fill="white" stroke="black" points="299,-292.57 299,-322.57 442,-322.57 442,-292.57 299,-292.57"/>
<text text-anchor="start" x="307" y="-310.57" font-family="FreeSans" font-size="10.00">DGtal::CowPtr&lt; DGtal</text>
<text text-anchor="middle" x="370.5" y="-299.57" font-family="FreeSans" font-size="10.00">::SignalData&lt; TValue &gt; &gt;</text>
</a>
</g>
</g>
<!-- Node1&#45;&gt;Node6 -->
<g id="edge5" class="edge">
<title>Node1&#45;&gt;Node6</title>
<path fill="none" stroke="orange" stroke-dasharray="5,2" d="M90.55,-257.73C103.06,-262.32 117.54,-267.17 131,-270.57 186.66,-284.6 251.05,-294.21 298.89,-300.11"/>
<polygon fill="orange" stroke="orange" points="91.58,-254.38 80.99,-254.14 89.12,-260.93 91.58,-254.38"/>
<text text-anchor="start" x="143" y="-307.57" font-family="FreeSans" font-size="10.00"> &lt; DGtal::SignalData</text>
<text text-anchor="middle" x="194" y="-296.57" font-family="FreeSans" font-size="10.00">&lt; TValue &gt; &gt;</text>
</g>
<!-- Node7 -->
<g id="node7" class="node">
<title>Node7</title>
<g id="a_node7"><a xlink:href="classDGtal_1_1CowPtr.html" target="_top" xlink:title=" ">
<polygon fill="white" stroke="black" points="290,-254.07 290,-273.07 451,-273.07 451,-254.07 290,-254.07"/>
<text text-anchor="middle" x="370.5" y="-261.07" font-family="FreeSans" font-size="10.00">DGtal::CowPtr&lt; DummyTbl &gt;</text>
</a>
</g>
</g>
<!-- Node1&#45;&gt;Node7 -->
<g id="edge6" class="edge">
<title>Node1&#45;&gt;Node7</title>
<path fill="none" stroke="orange" stroke-dasharray="5,2" d="M123.37,-248.58C171.96,-251.54 238.31,-255.58 289.88,-258.72"/>
<polygon fill="orange" stroke="orange" points="123.47,-245.08 113.28,-247.96 123.05,-252.06 123.47,-245.08"/>
<text text-anchor="middle" x="194" y="-258.57" font-family="FreeSans" font-size="10.00"> &lt; DummyTbl &gt;</text>
</g>
<!-- Node8 -->
<g id="node8" class="node">
<title>Node8</title>
<g id="a_node8"><a xlink:href="classDGtal_1_1CowPtr.html" target="_top" xlink:title=" ">
<polygon fill="white" stroke="black" points="304.5,-216.07 304.5,-235.07 436.5,-235.07 436.5,-216.07 304.5,-216.07"/>
<text text-anchor="middle" x="370.5" y="-223.07" font-family="FreeSans" font-size="10.00">DGtal::CowPtr&lt; Point &gt;</text>
</a>
</g>
</g>
<!-- Node1&#45;&gt;Node8 -->
<g id="edge7" class="edge">
<title>Node1&#45;&gt;Node8</title>
<path fill="none" stroke="orange" stroke-dasharray="5,2" d="M123.3,-234.34C125.9,-234.06 128.47,-233.8 131,-233.57 189.48,-228.23 256.32,-226.35 304.34,-225.73"/>
<polygon fill="orange" stroke="orange" points="122.72,-230.89 113.2,-235.54 123.54,-237.84 122.72,-230.89"/>
<text text-anchor="middle" x="194" y="-236.57" font-family="FreeSans" font-size="10.00"> &lt; Point &gt;</text>
</g>
<!-- Node9 -->
<g id="node9" class="node">
<title>Node9</title>
<g id="a_node9"><a xlink:href="classDGtal_1_1CowPtr.html" target="_top" xlink:title=" ">
<polygon fill="white" stroke="black" points="297,-166.57 297,-196.57 444,-196.57 444,-166.57 297,-166.57"/>
<text text-anchor="start" x="305" y="-184.57" font-family="FreeSans" font-size="10.00">DGtal::CowPtr&lt; Geometric</text>
<text text-anchor="middle" x="370.5" y="-173.57" font-family="FreeSans" font-size="10.00">Functor &gt;</text>
</a>
</g>
</g>
<!-- Node1&#45;&gt;Node9 -->
<g id="edge8" class="edge">
<title>Node1&#45;&gt;Node9</title>
<path fill="none" stroke="orange" stroke-dasharray="5,2" d="M84.04,-230.34C97.71,-223.62 114.85,-216.1 131,-211.57 185.44,-196.29 249.07,-188.78 296.91,-185.09"/>
<polygon fill="orange" stroke="orange" points="82.11,-227.4 74.77,-235.04 85.27,-233.64 82.11,-227.4"/>
<text text-anchor="middle" x="194" y="-214.57" font-family="FreeSans" font-size="10.00"> &lt; GeometricFunctor &gt;</text>
</g>
<!-- Node10 -->
<g id="node10" class="node">
<title>Node10</title>
<g id="a_node10"><a xlink:href="classDGtal_1_1CowPtr.html" target="_top" xlink:title=" ">
<polygon fill="white" stroke="black" points="293.5,-128.07 293.5,-147.07 447.5,-147.07 447.5,-128.07 293.5,-128.07"/>
<text text-anchor="middle" x="370.5" y="-135.07" font-family="FreeSans" font-size="10.00">DGtal::CowPtr&lt; Preimage &gt;</text>
</a>
</g>
</g>
<!-- Node1&#45;&gt;Node10 -->
<g id="edge9" class="edge">
<title>Node1&#45;&gt;Node10</title>
<path fill="none" stroke="orange" stroke-dasharray="5,2" d="M70.79,-226.44C84.06,-209.79 106.04,-185.9 131,-173.57 181.49,-148.61 244.76,-139.94 293.45,-137.33"/>
<polygon fill="orange" stroke="orange" points="67.66,-224.76 64.35,-234.82 73.21,-229.03 67.66,-224.76"/>
<text text-anchor="middle" x="194" y="-176.57" font-family="FreeSans" font-size="10.00"> &lt; Preimage &gt;</text>
</g>
<!-- Node11 -->
<g id="node11" class="node">
<title>Node11</title>
<g id="a_node11"><a xlink:href="classDGtal_1_1CowPtr.html" target="_top" xlink:title=" ">
<polygon fill="white" stroke="black" points="279,-90.07 279,-109.07 462,-109.07 462,-90.07 279,-90.07"/>
<text text-anchor="middle" x="370.5" y="-97.07" font-family="FreeSans" font-size="10.00">DGtal::CowPtr&lt; DigitalTopology &gt;</text>
</a>
</g>
</g>
<!-- Node1&#45;&gt;Node11 -->
<g id="edge10" class="edge">
<title>Node1&#45;&gt;Node11</title>
<path fill="none" stroke="orange" stroke-dasharray="5,2" d="M63.24,-225.36C72.56,-197.88 93.79,-148.04 131,-124.57 174.49,-97.13 231.52,-90.35 278.91,-90.68"/>
<polygon fill="orange" stroke="orange" points="59.87,-224.42 60.15,-235.02 66.53,-226.56 59.87,-224.42"/>
<text text-anchor="middle" x="194" y="-127.57" font-family="FreeSans" font-size="10.00"> &lt; DigitalTopology &gt;</text>
</g>
<!-- Node12 -->
<g id="node12" class="node">
<title>Node12</title>
<g id="a_node12"><a xlink:href="classDGtal_1_1CowPtr.html" target="_top" xlink:title=" ">
<polygon fill="white" stroke="black" points="275,-52.07 275,-71.07 466,-71.07 466,-52.07 275,-52.07"/>
<text text-anchor="middle" x="370.5" y="-59.07" font-family="FreeSans" font-size="10.00">DGtal::CowPtr&lt; TImageContainer &gt;</text>
</a>
</g>
</g>
<!-- Node1&#45;&gt;Node12 -->
<g id="edge11" class="edge">
<title>Node1&#45;&gt;Node12</title>
<path fill="none" stroke="orange" stroke-dasharray="5,2" d="M59.6,-224.35C64.59,-187.65 80.82,-110.61 131,-75.57 189.66,-34.6 277.56,-42.49 328.65,-51.99"/>
<polygon fill="orange" stroke="orange" points="56.06,-224.4 58.34,-234.75 63.01,-225.24 56.06,-224.4"/>
<text text-anchor="middle" x="194" y="-78.57" font-family="FreeSans" font-size="10.00"> &lt; TImageContainer &gt;</text>
</g>
<!-- Node13 -->
<g id="node13" class="node">
<title>Node13</title>
<g id="a_node13"><a xlink:href="classDGtal_1_1CowPtr.html" target="_top" xlink:title=" ">
<polygon fill="white" stroke="black" points="297.5,-14.07 297.5,-33.07 443.5,-33.07 443.5,-14.07 297.5,-14.07"/>
<text text-anchor="middle" x="370.5" y="-21.07" font-family="FreeSans" font-size="10.00">DGtal::CowPtr&lt; Domain &gt;</text>
</a>
</g>
</g>
<!-- Node1&#45;&gt;Node13 -->
<g id="edge12" class="edge">
<title>Node1&#45;&gt;Node13</title>
<path fill="none" stroke="orange" stroke-dasharray="5,2" d="M57.39,-224.38C58.39,-180.38 67.66,-76.07 131,-29.57 192.43,15.54 288.77,-1.1 338.09,-14.02"/>
<polygon fill="orange" stroke="orange" points="53.89,-224.61 57.29,-234.64 60.89,-224.68 53.89,-224.61"/>
<text text-anchor="middle" x="194" y="-32.57" font-family="FreeSans" font-size="10.00"> &lt; Domain &gt;</text>
</g>
</g>
</svg>
        <g id="navigator" transform="translate(0 0)" fill="#404254">
                <rect fill="#f2f5e9" fill-opacity="0.5" stroke="#606060" stroke-width=".5" x="0" y="0" width="60" height="60"/>
                <use id="zoomplus" xlink:href="#zoomPlus" x="17" y="9" onmousedown="handleZoom(evt,'in')"/>
                <use id="zoomminus" xlink:href="#zoomMin" x="42" y="9" onmousedown="handleZoom(evt,'out')"/>
                <use id="reset" xlink:href="#resetDef" x="30" y="36" onmousedown="handleReset()"/>
                <g id="arrowUp" xlink:href="#dirArrow" transform="translate(30 24)" onmousedown="handlePan(0,-1)">
                  <use xlink:href="#rim" fill="#404040">
                        <set attributeName="fill" to="#808080" begin="arrowUp.mouseover" end="arrowUp.mouseout"/>
                  </use>
                  <path fill="none" stroke="white" stroke-width="1.5" d="M0,-3.0v7 M-2.5,-0.5L0,-3.0L2.5,-0.5"/>
                </g>
                <g id="arrowRight" xlink:href="#dirArrow" transform="rotate(90) translate(36 -43)" onmousedown="handlePan(1,0)">
                  <use xlink:href="#rim" fill="#404040">
                        <set attributeName="fill" to="#808080" begin="arrowRight.mouseover" end="arrowRight.mouseout"/>
                  </use>
                  <path fill="none" stroke="white" stroke-width="1.5" d="M0,-3.0v7 M-2.5,-0.5L0,-3.0L2.5,-0.5"/>
                </g>
                <g id="arrowDown" xlink:href="#dirArrow" transform="rotate(180) translate(-30 -48)" onmousedown="handlePan(0,1)">
                  <use xlink:href="#rim" fill="#404040">
                        <set attributeName="fill" to="#808080" begin="arrowDown.mouseover" end="arrowDown.mouseout"/>
                  </use>
                  <path fill="none" stroke="white" stroke-width="1.5" d="M0,-3.0v7 M-2.5,-0.5L0,-3.0L2.5,-0.5"/>
                </g>
                <g id="arrowLeft" xlink:href="#dirArrow" transform="rotate(270) translate(-36 17)" onmousedown="handlePan(-1,0)">
                  <use xlink:href="#rim" fill="#404040">
                        <set attributeName="fill" to="#808080" begin="arrowLeft.mouseover" end="arrowLeft.mouseout"/>
                  </use>
                  <path fill="none" stroke="white" stroke-width="1.5" d="M0,-3.0v7 M-2.5,-0.5L0,-3.0L2.5,-0.5"/>
                </g>
        </g>
        <svg viewBox="0 0 15 15" width="100%" height="30px" preserveAspectRatio="xMaxYMin meet">
         <g id="arrow_out" transform="scale(0.3 0.3)">
          <a xlink:href="classDGtal_1_1CowPtr__inherit__graph_org.svg" target="_base">
           <rect id="button" ry="5" rx="5" y="6" x="6" height="38" width="38"
                fill="#f2f5e9" fill-opacity="0.5" stroke="#606060" stroke-width="1.0"/>
           <path id="arrow"
             d="M 11.500037,31.436501 C 11.940474,20.09759 22.043105,11.32322 32.158766,21.979434 L 37.068811,17.246167 C 37.068811,17.246167 37.088388,32 37.088388,32 L 22.160133,31.978069 C 22.160133,31.978069 26.997745,27.140456 26.997745,27.140456 C 18.528582,18.264221 13.291696,25.230495 11.500037,31.436501 z"
             style="fill:#404040;"/>
          </a>
         </g>
        </svg>
</svg>
