<?xml version="1.0" encoding="UTF-8" standalone="no"?>
<!DOCTYPE svg PUBLIC "-//W3C//DTD SVG 1.1//EN"
 "http://www.w3.org/Graphics/SVG/1.1/DTD/svg11.dtd">
<!-- Generated by graphviz version 2.43.0 (0)
 -->
<!-- Title: DGtal::VoronoiCovarianceMeasure&lt; TSpace, TSeparableMetric &gt; Pages: 1 -->
<svg width="216pt" height="117pt"
 viewBox="0.00 0.00 216.00 117.00" xmlns="http://www.w3.org/2000/svg" xmlns:xlink="http://www.w3.org/1999/xlink">
<g id="graph0" class="graph" transform="scale(1 1) rotate(0) translate(4 113)">
<title>DGtal::VoronoiCovarianceMeasure&lt; TSpace, TSeparableMetric &gt;</title>
<polygon fill="white" stroke="transparent" points="-4,4 -4,-113 212,-113 212,4 -4,4"/>
<!-- Node1 -->
<g id="node1" class="node">
<title>Node1</title>
<g id="a_node1"><a xlink:title="Aim: This class precomputes the Voronoi Covariance Measure of a set of points. It can compute the cov...">
<polygon fill="#bfbfbf" stroke="black" points="0,-78.5 0,-108.5 208,-108.5 208,-78.5 0,-78.5"/>
<text text-anchor="start" x="8" y="-96.5" font-family="FreeSans" font-size="10.00">DGtal::VoronoiCovariance</text>
<text text-anchor="middle" x="104" y="-85.5" font-family="FreeSans" font-size="10.00">Measure&lt; TSpace, TSeparableMetric &gt;</text>
</a>
</g>
</g>
<!-- Node2 -->
<g id="node2" class="node">
<title>Node2</title>
<g id="a_node2"><a xlink:href="classDGtal_1_1VoronoiCovarianceMeasure.html" target="_top" xlink:title=" ">
<polygon fill="white" stroke="black" points="30.5,-0.5 30.5,-30.5 177.5,-30.5 177.5,-0.5 30.5,-0.5"/>
<text text-anchor="start" x="38.5" y="-18.5" font-family="FreeSans" font-size="10.00">DGtal::VoronoiCovariance</text>
<text text-anchor="middle" x="104" y="-7.5" font-family="FreeSans" font-size="10.00">Measure&lt; Space, Metric &gt;</text>
</a>
</g>
</g>
<!-- Node1&#45;&gt;Node2 -->
<g id="edge1" class="edge">
<title>Node1&#45;&gt;Node2</title>
<path fill="none" stroke="orange" stroke-dasharray="5,2" d="M104,-68.09C104,-55.76 104,-41.22 104,-30.73"/>
<polygon fill="orange" stroke="orange" points="100.5,-68.2 104,-78.2 107.5,-68.21 100.5,-68.2"/>
<text text-anchor="middle" x="150" y="-52" font-family="FreeSans" font-size="10.00"> &lt; Space, Metric &gt;</text>
</g>
</g>
</svg>
