<?xml version="1.0" encoding="UTF-8" standalone="no"?>
<!DOCTYPE svg PUBLIC "-//W3C//DTD SVG 1.1//EN"
 "http://www.w3.org/Graphics/SVG/1.1/DTD/svg11.dtd">
<!-- Generated by graphviz version 2.43.0 (0)
 -->
<!-- Title: DGtal::CountedPtr&lt; T &gt; Pages: 1 -->
<svg width="540pt" height="1012pt"
 viewBox="0.00 0.00 540.00 1011.99" xmlns="http://www.w3.org/2000/svg" xmlns:xlink="http://www.w3.org/1999/xlink">
<g id="graph0" class="graph" transform="scale(1 1) rotate(0) translate(4 1007.99)">
<title>DGtal::CountedPtr&lt; T &gt;</title>
<polygon fill="white" stroke="transparent" points="-4,4 -4,-1007.99 536,-1007.99 536,4 -4,4"/>
<!-- Node1 -->
<g id="node1" class="node">
<title>Node1</title>
<g id="a_node1"><a xlink:title="Aim: Smart pointer based on reference counts.">
<polygon fill="#bfbfbf" stroke="black" points="0,-501.49 0,-520.49 133,-520.49 133,-501.49 0,-501.49"/>
<text text-anchor="middle" x="66.5" y="-508.49" font-family="FreeSans" font-size="10.00">DGtal::CountedPtr&lt; T &gt;</text>
</a>
</g>
</g>
<!-- Node2 -->
<g id="node2" class="node">
<title>Node2</title>
<g id="a_node2"><a xlink:href="classDGtal_1_1CountedPtr.html" target="_top" xlink:title=" ">
<polygon fill="white" stroke="black" points="383.5,-961.99 383.5,-991.99 496.5,-991.99 496.5,-961.99 383.5,-961.99"/>
<text text-anchor="start" x="391.5" y="-979.99" font-family="FreeSans" font-size="10.00">DGtal::CountedPtr&lt;</text>
<text text-anchor="middle" x="440" y="-968.99" font-family="FreeSans" font-size="10.00"> Sequence &gt;</text>
</a>
</g>
</g>
<!-- Node1&#45;&gt;Node2 -->
<g id="edge1" class="edge">
<title>Node1&#45;&gt;Node2</title>
<path fill="none" stroke="orange" stroke-dasharray="5,2" d="M68.34,-531.17C72,-608.82 89.3,-886.83 151,-943.99 213.39,-1001.79 318.92,-997.66 383.44,-988.17"/>
<polygon fill="orange" stroke="orange" points="71.82,-530.68 67.88,-520.85 64.83,-531 71.82,-530.68"/>
<text text-anchor="middle" x="240.5" y="-995.99" font-family="FreeSans" font-size="10.00"> &lt; Sequence &gt;</text>
</g>
<!-- Node3 -->
<g id="node3" class="node">
<title>Node3</title>
<g id="a_node3"><a xlink:href="classDGtal_1_1CountedPtr.html" target="_top" xlink:title=" ">
<polygon fill="white" stroke="black" points="364,-912.99 364,-942.99 516,-942.99 516,-912.99 364,-912.99"/>
<text text-anchor="start" x="372" y="-930.99" font-family="FreeSans" font-size="10.00">DGtal::CountedPtr&lt;</text>
<text text-anchor="middle" x="440" y="-919.99" font-family="FreeSans" font-size="10.00"> AdjacentVertexContainer &gt;</text>
</a>
</g>
</g>
<!-- Node1&#45;&gt;Node3 -->
<g id="edge2" class="edge">
<title>Node1&#45;&gt;Node3</title>
<path fill="none" stroke="orange" stroke-dasharray="5,2" d="M68.8,-530.86C73.92,-602.79 95.26,-848 151,-897.99 181.41,-925.26 289.26,-930 363.98,-929.82"/>
<polygon fill="orange" stroke="orange" points="72.26,-530.26 68.09,-520.52 65.28,-530.74 72.26,-530.26"/>
<text text-anchor="middle" x="240.5" y="-931.99" font-family="FreeSans" font-size="10.00"> &lt; AdjacentVertexContainer &gt;</text>
</g>
<!-- Node4 -->
<g id="node4" class="node">
<title>Node4</title>
<g id="a_node4"><a xlink:href="classDGtal_1_1CountedPtr.html" target="_top" xlink:title=" ">
<polygon fill="white" stroke="black" points="348.5,-863.99 348.5,-893.99 531.5,-893.99 531.5,-863.99 348.5,-863.99"/>
<text text-anchor="start" x="356.5" y="-881.99" font-family="FreeSans" font-size="10.00">DGtal::CountedPtr&lt;</text>
<text text-anchor="middle" x="440" y="-870.99" font-family="FreeSans" font-size="10.00"> DGtal::DigitalSurfaceConvolver &gt;</text>
</a>
</g>
</g>
<!-- Node1&#45;&gt;Node4 -->
<g id="edge3" class="edge">
<title>Node1&#45;&gt;Node4</title>
<path fill="none" stroke="orange" stroke-dasharray="5,2" d="M69.26,-530.52C75.67,-597.14 100.18,-813.73 151,-856.99 179.88,-881.57 275.17,-884.78 348.31,-883.3"/>
<polygon fill="orange" stroke="orange" points="72.74,-530.16 68.32,-520.52 65.77,-530.81 72.74,-530.16"/>
<text text-anchor="middle" x="240.5" y="-885.99" font-family="FreeSans" font-size="10.00"> &lt; DGtal::DigitalSurfaceConvolver &gt;</text>
</g>
<!-- Node5 -->
<g id="node5" class="node">
<title>Node5</title>
<g id="a_node5"><a xlink:href="classDGtal_1_1CountedPtr.html" target="_top" xlink:title=" ">
<polygon fill="white" stroke="black" points="383.5,-814.99 383.5,-844.99 496.5,-844.99 496.5,-814.99 383.5,-814.99"/>
<text text-anchor="start" x="391.5" y="-832.99" font-family="FreeSans" font-size="10.00">DGtal::CountedPtr&lt;</text>
<text text-anchor="middle" x="440" y="-821.99" font-family="FreeSans" font-size="10.00"> GraphVisitor &gt;</text>
</a>
</g>
</g>
<!-- Node1&#45;&gt;Node5 -->
<g id="edge4" class="edge">
<title>Node1&#45;&gt;Node5</title>
<path fill="none" stroke="orange" stroke-dasharray="5,2" d="M70.32,-530.57C79.25,-589.54 108.75,-763.55 151,-798.99 215.73,-853.28 319.53,-849.66 383.25,-840.76"/>
<polygon fill="orange" stroke="orange" points="73.79,-530.05 68.86,-520.67 66.86,-531.08 73.79,-530.05"/>
<text text-anchor="middle" x="240.5" y="-847.99" font-family="FreeSans" font-size="10.00"> &lt; GraphVisitor &gt;</text>
</g>
<!-- Node6 -->
<g id="node6" class="node">
<title>Node6</title>
<g id="a_node6"><a xlink:href="classDGtal_1_1CountedPtr.html" target="_top" xlink:title=" ">
<polygon fill="white" stroke="black" points="383.5,-765.99 383.5,-795.99 496.5,-795.99 496.5,-765.99 383.5,-765.99"/>
<text text-anchor="start" x="391.5" y="-783.99" font-family="FreeSans" font-size="10.00">DGtal::CountedPtr&lt;</text>
<text text-anchor="middle" x="440" y="-772.99" font-family="FreeSans" font-size="10.00"> DigSurface &gt;</text>
</a>
</g>
</g>
<!-- Node1&#45;&gt;Node6 -->
<g id="edge5" class="edge">
<title>Node1&#45;&gt;Node6</title>
<path fill="none" stroke="orange" stroke-dasharray="5,2" d="M67.39,-530.72C68.29,-578.79 77.97,-702.17 151,-758.99 185.98,-786.2 309.94,-786.32 383.34,-783.79"/>
<polygon fill="orange" stroke="orange" points="70.89,-530.65 67.31,-520.68 63.89,-530.71 70.89,-530.65"/>
<text text-anchor="middle" x="240.5" y="-786.99" font-family="FreeSans" font-size="10.00"> &lt; DigSurface &gt;</text>
</g>
<!-- Node7 -->
<g id="node7" class="node">
<title>Node7</title>
<g id="a_node7"><a xlink:href="classDGtal_1_1CountedPtr.html" target="_top" xlink:title=" ">
<polygon fill="white" stroke="black" points="366.5,-716.99 366.5,-746.99 513.5,-746.99 513.5,-716.99 366.5,-716.99"/>
<text text-anchor="start" x="374.5" y="-734.99" font-family="FreeSans" font-size="10.00">DGtal::CountedPtr&lt;</text>
<text text-anchor="middle" x="440" y="-723.99" font-family="FreeSans" font-size="10.00"> DigitalSurfaceContainer &gt;</text>
</a>
</g>
</g>
<!-- Node1&#45;&gt;Node7 -->
<g id="edge6" class="edge">
<title>Node1&#45;&gt;Node7</title>
<path fill="none" stroke="orange" stroke-dasharray="5,2" d="M69.52,-530.93C74.79,-571.35 92.85,-662.69 151,-704.99 212.93,-750.04 303.28,-751 366.21,-744.41"/>
<polygon fill="orange" stroke="orange" points="72.97,-530.28 68.33,-520.75 66.02,-531.09 72.97,-530.28"/>
<text text-anchor="middle" x="240.5" y="-749.99" font-family="FreeSans" font-size="10.00"> &lt; DigitalSurfaceContainer &gt;</text>
</g>
<!-- Node8 -->
<g id="node8" class="node">
<title>Node8</title>
<g id="a_node8"><a xlink:href="classDGtal_1_1CountedPtr.html" target="_top" xlink:title=" ">
<polygon fill="white" stroke="black" points="348,-667.99 348,-697.99 532,-697.99 532,-667.99 348,-667.99"/>
<text text-anchor="start" x="356" y="-685.99" font-family="FreeSans" font-size="10.00">DGtal::CountedPtr&lt;</text>
<text text-anchor="middle" x="440" y="-674.99" font-family="FreeSans" font-size="10.00"> DGtal::DrawableWithDisplay3D &gt;</text>
</a>
</g>
</g>
<!-- Node1&#45;&gt;Node8 -->
<g id="edge7" class="edge">
<title>Node1&#45;&gt;Node8</title>
<path fill="none" stroke="orange" stroke-dasharray="5,2" d="M73.42,-530.32C83.79,-560.57 108.29,-618.47 151,-645.99 209.06,-683.39 287.46,-691.36 347.8,-690.68"/>
<polygon fill="orange" stroke="orange" points="76.66,-528.96 70.24,-520.54 70,-531.13 76.66,-528.96"/>
<text text-anchor="middle" x="240.5" y="-692.99" font-family="FreeSans" font-size="10.00"> &lt; DGtal::DrawableWithDisplay3D &gt;</text>
</g>
<!-- Node9 -->
<g id="node9" class="node">
<title>Node9</title>
<g id="a_node9"><a xlink:href="classDGtal_1_1CountedPtr.html" target="_top" xlink:title=" ">
<polygon fill="white" stroke="black" points="369,-618.99 369,-648.99 511,-648.99 511,-618.99 369,-618.99"/>
<text text-anchor="start" x="377" y="-636.99" font-family="FreeSans" font-size="10.00">DGtal::CountedPtr&lt;</text>
<text text-anchor="middle" x="440" y="-625.99" font-family="FreeSans" font-size="10.00"> DrawableWithBoard2D &gt;</text>
</a>
</g>
</g>
<!-- Node1&#45;&gt;Node9 -->
<g id="edge8" class="edge">
<title>Node1&#45;&gt;Node9</title>
<path fill="none" stroke="orange" stroke-dasharray="5,2" d="M80.97,-528.69C95.94,-546.98 121.88,-574.81 151,-588.99 220.04,-622.61 308.43,-632.18 368.97,-634.41"/>
<polygon fill="orange" stroke="orange" points="83.49,-526.24 74.53,-520.58 78,-530.59 83.49,-526.24"/>
<text text-anchor="middle" x="240.5" y="-633.99" font-family="FreeSans" font-size="10.00"> &lt; DrawableWithBoard2D &gt;</text>
</g>
<!-- Node10 -->
<g id="node10" class="node">
<title>Node10</title>
<g id="a_node10"><a xlink:href="classDGtal_1_1CountedPtr.html" target="_top" xlink:title=" ">
<polygon fill="white" stroke="black" points="383.5,-569.99 383.5,-599.99 496.5,-599.99 496.5,-569.99 383.5,-569.99"/>
<text text-anchor="start" x="391.5" y="-587.99" font-family="FreeSans" font-size="10.00">DGtal::CountedPtr&lt;</text>
<text text-anchor="middle" x="440" y="-576.99" font-family="FreeSans" font-size="10.00"> OutputImage &gt;</text>
</a>
</g>
</g>
<!-- Node1&#45;&gt;Node10 -->
<g id="edge9" class="edge">
<title>Node1&#45;&gt;Node10</title>
<path fill="none" stroke="orange" stroke-dasharray="5,2" d="M98.31,-524.67C113.84,-531.09 133.13,-538.32 151,-542.99 230.32,-563.7 324.78,-575.03 383.33,-580.55"/>
<polygon fill="orange" stroke="orange" points="99.27,-521.28 88.7,-520.61 96.55,-527.73 99.27,-521.28"/>
<text text-anchor="middle" x="240.5" y="-576.99" font-family="FreeSans" font-size="10.00"> &lt; OutputImage &gt;</text>
</g>
<!-- Node11 -->
<g id="node11" class="node">
<title>Node11</title>
<g id="a_node11"><a xlink:href="classDGtal_1_1CountedPtr.html" target="_top" xlink:title=" ">
<polygon fill="white" stroke="black" points="379,-520.99 379,-550.99 501,-550.99 501,-520.99 379,-520.99"/>
<text text-anchor="start" x="387" y="-538.99" font-family="FreeSans" font-size="10.00">DGtal::CountedPtr&lt;</text>
<text text-anchor="middle" x="440" y="-527.99" font-family="FreeSans" font-size="10.00"> ShapePointFunctor &gt;</text>
</a>
</g>
</g>
<!-- Node1&#45;&gt;Node11 -->
<g id="edge10" class="edge">
<title>Node1&#45;&gt;Node11</title>
<path fill="none" stroke="orange" stroke-dasharray="5,2" d="M143.08,-516.07C212.64,-520.76 314.46,-527.61 378.7,-531.93"/>
<polygon fill="orange" stroke="orange" points="143.27,-512.58 133.06,-515.4 142.8,-519.56 143.27,-512.58"/>
<text text-anchor="middle" x="240.5" y="-530.99" font-family="FreeSans" font-size="10.00"> &lt; ShapePointFunctor &gt;</text>
</g>
<!-- Node12 -->
<g id="node12" class="node">
<title>Node12</title>
<g id="a_node12"><a xlink:href="classDGtal_1_1CountedPtr.html" target="_top" xlink:title=" ">
<polygon fill="white" stroke="black" points="372,-471.99 372,-501.99 508,-501.99 508,-471.99 372,-471.99"/>
<text text-anchor="start" x="380" y="-489.99" font-family="FreeSans" font-size="10.00">DGtal::CountedPtr&lt;</text>
<text text-anchor="middle" x="440" y="-478.99" font-family="FreeSans" font-size="10.00"> DGtal::GaussDigitizer &gt;</text>
</a>
</g>
</g>
<!-- Node1&#45;&gt;Node12 -->
<g id="edge11" class="edge">
<title>Node1&#45;&gt;Node12</title>
<path fill="none" stroke="orange" stroke-dasharray="5,2" d="M143.27,-503.6C145.87,-503.38 148.46,-503.18 151,-502.99 226.53,-497.27 313.34,-492.73 371.74,-489.96"/>
<polygon fill="orange" stroke="orange" points="142.79,-500.12 133.12,-504.45 143.37,-507.1 142.79,-500.12"/>
<text text-anchor="middle" x="240.5" y="-505.99" font-family="FreeSans" font-size="10.00"> &lt; DGtal::GaussDigitizer &gt;</text>
</g>
<!-- Node13 -->
<g id="node13" class="node">
<title>Node13</title>
<g id="a_node13"><a xlink:href="classDGtal_1_1CountedPtr.html" target="_top" xlink:title=" ">
<polygon fill="white" stroke="black" points="380,-422.99 380,-452.99 500,-452.99 500,-422.99 380,-422.99"/>
<text text-anchor="start" x="388" y="-440.99" font-family="FreeSans" font-size="10.00">DGtal::CountedPtr&lt;</text>
<text text-anchor="middle" x="440" y="-429.99" font-family="FreeSans" font-size="10.00"> DGtal::ImplicitBall &gt;</text>
</a>
</g>
</g>
<!-- Node1&#45;&gt;Node13 -->
<g id="edge12" class="edge">
<title>Node1&#45;&gt;Node13</title>
<path fill="none" stroke="orange" stroke-dasharray="5,2" d="M96.16,-497.22C112,-490.15 132.21,-482 151,-476.99 228.64,-456.28 321.13,-446.25 379.95,-441.62"/>
<polygon fill="orange" stroke="orange" points="94.57,-494.1 86.92,-501.44 97.47,-500.47 94.57,-494.1"/>
<text text-anchor="middle" x="240.5" y="-479.99" font-family="FreeSans" font-size="10.00"> &lt; DGtal::ImplicitBall &gt;</text>
</g>
<!-- Node14 -->
<g id="node14" class="node">
<title>Node14</title>
<g id="a_node14"><a xlink:href="classDGtal_1_1CountedPtr.html" target="_top" xlink:title=" ">
<polygon fill="white" stroke="black" points="380.5,-373.99 380.5,-403.99 499.5,-403.99 499.5,-373.99 380.5,-373.99"/>
<text text-anchor="start" x="388.5" y="-391.99" font-family="FreeSans" font-size="10.00">DGtal::CountedPtr&lt;</text>
<text text-anchor="middle" x="440" y="-380.99" font-family="FreeSans" font-size="10.00"> OutEdgeContainer &gt;</text>
</a>
</g>
</g>
<!-- Node1&#45;&gt;Node14 -->
<g id="edge13" class="edge">
<title>Node1&#45;&gt;Node14</title>
<path fill="none" stroke="orange" stroke-dasharray="5,2" d="M80.4,-493.32C95.19,-474.52 121.26,-445.52 151,-430.99 224.44,-395.11 320.05,-387.81 380.5,-387.29"/>
<polygon fill="orange" stroke="orange" points="77.53,-491.31 74.25,-501.39 83.1,-495.56 77.53,-491.31"/>
<text text-anchor="middle" x="240.5" y="-433.99" font-family="FreeSans" font-size="10.00"> &lt; OutEdgeContainer &gt;</text>
</g>
<!-- Node15 -->
<g id="node15" class="node">
<title>Node15</title>
<g id="a_node15"><a xlink:href="classDGtal_1_1CountedPtr.html" target="_top" xlink:title=" ">
<polygon fill="white" stroke="black" points="354,-324.99 354,-354.99 526,-354.99 526,-324.99 354,-324.99"/>
<text text-anchor="start" x="362" y="-342.99" font-family="FreeSans" font-size="10.00">DGtal::CountedPtr&lt;</text>
<text text-anchor="middle" x="440" y="-331.99" font-family="FreeSans" font-size="10.00"> HyperRectDomain&lt; Space &gt; &gt;</text>
</a>
</g>
</g>
<!-- Node1&#45;&gt;Node15 -->
<g id="edge14" class="edge">
<title>Node1&#45;&gt;Node15</title>
<path fill="none" stroke="orange" stroke-dasharray="5,2" d="M72.18,-491.41C81.19,-458.51 104.31,-392.81 151,-362.99 210.92,-324.72 292.78,-321.78 353.92,-326.77"/>
<polygon fill="orange" stroke="orange" points="68.76,-490.65 69.66,-501.21 75.54,-492.4 68.76,-490.65"/>
<text text-anchor="start" x="184.5" y="-376.99" font-family="FreeSans" font-size="10.00"> &lt; HyperRectDomain&lt;</text>
<text text-anchor="middle" x="240.5" y="-365.99" font-family="FreeSans" font-size="10.00"> Space &gt; &gt;</text>
</g>
<!-- Node16 -->
<g id="node16" class="node">
<title>Node16</title>
<g id="a_node16"><a xlink:href="classDGtal_1_1CountedPtr.html" target="_top" xlink:title=" ">
<polygon fill="white" stroke="black" points="365,-275.99 365,-305.99 515,-305.99 515,-275.99 365,-275.99"/>
<text text-anchor="start" x="373" y="-293.99" font-family="FreeSans" font-size="10.00">DGtal::CountedPtr&lt;</text>
<text text-anchor="middle" x="440" y="-282.99" font-family="FreeSans" font-size="10.00"> DrawableWithDisplay3D &gt;</text>
</a>
</g>
</g>
<!-- Node1&#45;&gt;Node16 -->
<g id="edge15" class="edge">
<title>Node1&#45;&gt;Node16</title>
<path fill="none" stroke="orange" stroke-dasharray="5,2" d="M69.01,-491.22C73.38,-449.49 89.92,-352.65 151,-308.99 213.87,-264.05 305.53,-266.73 368.47,-275.96"/>
<polygon fill="orange" stroke="orange" points="65.52,-490.95 68.09,-501.23 72.49,-491.59 65.52,-490.95"/>
<text text-anchor="middle" x="240.5" y="-311.99" font-family="FreeSans" font-size="10.00"> &lt; DrawableWithDisplay3D &gt;</text>
</g>
<!-- Node17 -->
<g id="node17" class="node">
<title>Node17</title>
<g id="a_node17"><a xlink:href="classDGtal_1_1CountedPtr.html" target="_top" xlink:title=" ">
<polygon fill="white" stroke="black" points="371,-226.99 371,-256.99 509,-256.99 509,-226.99 371,-226.99"/>
<text text-anchor="start" x="379" y="-244.99" font-family="FreeSans" font-size="10.00">DGtal::CountedPtr&lt;</text>
<text text-anchor="middle" x="440" y="-233.99" font-family="FreeSans" font-size="10.00"> DGtal::FunctorOnCells &gt;</text>
</a>
</g>
</g>
<!-- Node1&#45;&gt;Node17 -->
<g id="edge16" class="edge">
<title>Node1&#45;&gt;Node17</title>
<path fill="none" stroke="orange" stroke-dasharray="5,2" d="M67.04,-491.17C67.1,-441.76 74.87,-312.9 151,-254.99 217.03,-204.76 318.29,-214.13 381.47,-226.97"/>
<polygon fill="orange" stroke="orange" points="63.54,-491.49 67.14,-501.45 70.54,-491.41 63.54,-491.49"/>
<text text-anchor="middle" x="240.5" y="-257.99" font-family="FreeSans" font-size="10.00"> &lt; DGtal::FunctorOnCells &gt;</text>
</g>
<!-- Node18 -->
<g id="node18" class="node">
<title>Node18</title>
<g id="a_node18"><a xlink:href="classDGtal_1_1CountedPtr.html" target="_top" xlink:title=" ">
<polygon fill="white" stroke="black" points="383.5,-177.99 383.5,-207.99 496.5,-207.99 496.5,-177.99 383.5,-177.99"/>
<text text-anchor="start" x="391.5" y="-195.99" font-family="FreeSans" font-size="10.00">DGtal::CountedPtr&lt;</text>
<text text-anchor="middle" x="440" y="-184.99" font-family="FreeSans" font-size="10.00"> DummyTbl &gt;</text>
</a>
</g>
</g>
<!-- Node1&#45;&gt;Node18 -->
<g id="edge17" class="edge">
<title>Node1&#45;&gt;Node18</title>
<path fill="none" stroke="orange" stroke-dasharray="5,2" d="M69.76,-491.41C77.36,-429.19 104.24,-237.87 151,-200.99 185.71,-173.62 309.78,-180.23 383.27,-186.94"/>
<polygon fill="orange" stroke="orange" points="66.27,-491.12 68.56,-501.46 73.22,-491.95 66.27,-491.12"/>
<text text-anchor="middle" x="240.5" y="-203.99" font-family="FreeSans" font-size="10.00"> &lt; DummyTbl &gt;</text>
</g>
<!-- Node19 -->
<g id="node19" class="node">
<title>Node19</title>
<g id="a_node19"><a xlink:href="classDGtal_1_1CountedPtr.html" target="_top" xlink:title=" ">
<polygon fill="white" stroke="black" points="350,-117.49 350,-158.49 530,-158.49 530,-117.49 350,-117.49"/>
<text text-anchor="start" x="358" y="-146.49" font-family="FreeSans" font-size="10.00">DGtal::CountedPtr&lt;</text>
<text text-anchor="start" x="358" y="-135.49" font-family="FreeSans" font-size="10.00"> DGtal::functors::PointFunctor</text>
<text text-anchor="middle" x="440" y="-124.49" font-family="FreeSans" font-size="10.00">FromPointPredicateAndDomain &gt;</text>
</a>
</g>
</g>
<!-- Node1&#45;&gt;Node19 -->
<g id="edge18" class="edge">
<title>Node1&#45;&gt;Node19</title>
<path fill="none" stroke="orange" stroke-dasharray="5,2" d="M68.9,-491.08C74.28,-421.17 96.07,-188.77 151,-143.99 211.47,-94.69 305.19,-103.25 369.18,-117.45"/>
<polygon fill="orange" stroke="orange" points="65.4,-490.95 68.16,-501.18 72.38,-491.47 65.4,-490.95"/>
<text text-anchor="start" x="162" y="-168.99" font-family="FreeSans" font-size="10.00"> &lt; DGtal::functors::</text>
<text text-anchor="start" x="162" y="-157.99" font-family="FreeSans" font-size="10.00">PointFunctorFromPointPredicate</text>
<text text-anchor="middle" x="240.5" y="-146.99" font-family="FreeSans" font-size="10.00">AndDomain &gt;</text>
</g>
<!-- Node20 -->
<g id="node20" class="node">
<title>Node20</title>
<g id="a_node20"><a xlink:href="classDGtal_1_1CountedPtr.html" target="_top" xlink:title=" ">
<polygon fill="white" stroke="black" points="354,-67.99 354,-97.99 526,-97.99 526,-67.99 354,-67.99"/>
<text text-anchor="start" x="362" y="-85.99" font-family="FreeSans" font-size="10.00">DGtal::CountedPtr&lt;</text>
<text text-anchor="middle" x="440" y="-74.99" font-family="FreeSans" font-size="10.00"> DGtal::IndexedDigitalSurface &gt;</text>
</a>
</g>
</g>
<!-- Node1&#45;&gt;Node20 -->
<g id="edge19" class="edge">
<title>Node1&#45;&gt;Node20</title>
<path fill="none" stroke="orange" stroke-dasharray="5,2" d="M68.3,-491.25C71.8,-415.32 88.59,-143.68 151,-90.99 217.88,-34.52 327.91,-51.52 390.84,-67.92"/>
<polygon fill="orange" stroke="orange" points="64.79,-491.2 67.86,-501.34 71.79,-491.5 64.79,-491.2"/>
<text text-anchor="middle" x="240.5" y="-93.99" font-family="FreeSans" font-size="10.00"> &lt; DGtal::IndexedDigitalSurface &gt;</text>
</g>
<!-- Node21 -->
<g id="node21" class="node">
<title>Node21</title>
<g id="a_node21"><a xlink:href="classDGtal_1_1CountedPtr.html" target="_top" xlink:title=" ">
<polygon fill="white" stroke="black" points="352,-18.99 352,-48.99 528,-48.99 528,-18.99 352,-18.99"/>
<text text-anchor="start" x="360" y="-36.99" font-family="FreeSans" font-size="10.00">DGtal::CountedPtr&lt;</text>
<text text-anchor="middle" x="440" y="-25.99" font-family="FreeSans" font-size="10.00"> DGtal::DrawableWithBoard2D &gt;</text>
</a>
</g>
</g>
<!-- Node1&#45;&gt;Node21 -->
<g id="edge20" class="edge">
<title>Node1&#45;&gt;Node21</title>
<path fill="none" stroke="orange" stroke-dasharray="5,2" d="M67.81,-490.91C69.52,-408.51 80.63,-97.86 151,-37.99 218.98,19.85 332.18,-1.02 394.49,-18.96"/>
<polygon fill="orange" stroke="orange" points="64.3,-491.29 67.62,-501.35 71.3,-491.42 64.3,-491.29"/>
<text text-anchor="middle" x="240.5" y="-40.99" font-family="FreeSans" font-size="10.00"> &lt; DGtal::DrawableWithBoard2D &gt;</text>
</g>
</g>
</svg>
