<?xml version="1.0" encoding="UTF-8" standalone="no"?>
<!DOCTYPE svg PUBLIC "-//W3C//DTD SVG 1.1//EN"
 "http://www.w3.org/Graphics/SVG/1.1/DTD/svg11.dtd">
<!-- Generated by graphviz version 2.43.0 (0)
 -->
<!-- Title: DGtal::UmbrellaComputer&lt; TDigitalSurfaceTracker &gt; Pages: 1 -->
<svg width="213pt" height="117pt"
 viewBox="0.00 0.00 212.50 117.00" xmlns="http://www.w3.org/2000/svg" xmlns:xlink="http://www.w3.org/1999/xlink">
<g id="graph0" class="graph" transform="scale(1 1) rotate(0) translate(4 113)">
<title>DGtal::UmbrellaComputer&lt; TDigitalSurfaceTracker &gt;</title>
<polygon fill="white" stroke="transparent" points="-4,4 -4,-113 208.5,-113 208.5,4 -4,4"/>
<!-- Node1 -->
<g id="node1" class="node">
<title>Node1</title>
<g id="a_node1"><a xlink:title="Aim: Useful for computing umbrellas on &#39;DigitalSurface&#39;s, ie set of n&#45;1 cells around a n&#45;3 cell.">
<polygon fill="#bfbfbf" stroke="black" points="0,-78.5 0,-108.5 149,-108.5 149,-78.5 0,-78.5"/>
<text text-anchor="start" x="8" y="-96.5" font-family="FreeSans" font-size="10.00">DGtal::UmbrellaComputer</text>
<text text-anchor="middle" x="74.5" y="-85.5" font-family="FreeSans" font-size="10.00">&lt; TDigitalSurfaceTracker &gt;</text>
</a>
</g>
</g>
<!-- Node2 -->
<g id="node2" class="node">
<title>Node2</title>
<g id="a_node2"><a xlink:href="classDGtal_1_1UmbrellaComputer.html" target="_top" xlink:title=" ">
<polygon fill="white" stroke="black" points="3,-0.5 3,-30.5 146,-30.5 146,-0.5 3,-0.5"/>
<text text-anchor="start" x="11" y="-18.5" font-family="FreeSans" font-size="10.00">DGtal::UmbrellaComputer</text>
<text text-anchor="middle" x="74.5" y="-7.5" font-family="FreeSans" font-size="10.00">&lt; DigitalSurfaceTracker &gt;</text>
</a>
</g>
</g>
<!-- Node1&#45;&gt;Node2 -->
<g id="edge1" class="edge">
<title>Node1&#45;&gt;Node2</title>
<path fill="none" stroke="orange" stroke-dasharray="5,2" d="M74.5,-68.09C74.5,-55.76 74.5,-41.22 74.5,-30.73"/>
<polygon fill="orange" stroke="orange" points="71,-68.2 74.5,-78.2 78,-68.21 71,-68.2"/>
<text text-anchor="middle" x="139.5" y="-52" font-family="FreeSans" font-size="10.00"> &lt; DigitalSurfaceTracker &gt;</text>
</g>
</g>
</svg>
