<?xml version="1.0" encoding="UTF-8" standalone="no"?>
<!DOCTYPE svg PUBLIC "-//W3C//DTD SVG 1.1//EN"
 "http://www.w3.org/Graphics/SVG/1.1/DTD/svg11.dtd">
<!-- Generated by graphviz version 2.43.0 (0)
 -->
<!-- Title: DGtal::KhalimskySpaceNDHelper&lt; TKhalimskySpace &gt; Pages: 1 -->
<svg width="1205pt" height="97pt"
 viewBox="0.00 0.00 1205.00 97.00" xmlns="http://www.w3.org/2000/svg" xmlns:xlink="http://www.w3.org/1999/xlink">
<g id="graph0" class="graph" transform="scale(1 1) rotate(0) translate(4 93)">
<title>DGtal::KhalimskySpaceNDHelper&lt; TKhalimskySpace &gt;</title>
<polygon fill="white" stroke="transparent" points="-4,4 -4,-93 1201,-93 1201,4 -4,4"/>
<!-- Node1 -->
<g id="node1" class="node">
<title>Node1</title>
<g id="a_node1"><a xlink:title="Internal class of KhalimskySpaceND that provides some optimizations depending on the space type.">
<polygon fill="#bfbfbf" stroke="black" points="0,-26 0,-56 178,-56 178,-26 0,-26"/>
<text text-anchor="start" x="8" y="-44" font-family="FreeSans" font-size="10.00">DGtal::KhalimskySpaceNDHelper</text>
<text text-anchor="middle" x="89" y="-33" font-family="FreeSans" font-size="10.00">&lt; TKhalimskySpace &gt;</text>
</a>
</g>
</g>
<!-- Node2 -->
<g id="node2" class="node">
<title>Node2</title>
<g id="a_node2"><a xlink:href="classDGtal_1_1KhalimskySpaceNDHelper.html" target="_top" xlink:title=" ">
<polygon fill="white" stroke="black" points="341,-47.5 341,-88.5 519,-88.5 519,-47.5 341,-47.5"/>
<text text-anchor="start" x="349" y="-76.5" font-family="FreeSans" font-size="10.00">DGtal::KhalimskySpaceNDHelper</text>
<text text-anchor="start" x="349" y="-65.5" font-family="FreeSans" font-size="10.00">&lt; KhalimskySpaceND&lt; dim,</text>
<text text-anchor="middle" x="430" y="-54.5" font-family="FreeSans" font-size="10.00"> TInteger &gt; &gt;</text>
</a>
</g>
</g>
<!-- Node1&#45;&gt;Node2 -->
<g id="edge1" class="edge">
<title>Node1&#45;&gt;Node2</title>
<path fill="none" stroke="orange" stroke-dasharray="5,2" d="M188.33,-48.83C236.56,-52.67 294.19,-57.26 340.96,-60.99"/>
<polygon fill="orange" stroke="orange" points="188.43,-45.33 178.18,-48.02 187.87,-52.31 188.43,-45.33"/>
<text text-anchor="start" x="204.5" y="-73" font-family="FreeSans" font-size="10.00"> &lt; KhalimskySpaceND</text>
<text text-anchor="middle" x="259.5" y="-62" font-family="FreeSans" font-size="10.00">&lt; dim, TInteger &gt; &gt;</text>
</g>
<!-- Node5 -->
<g id="node5" class="node">
<title>Node5</title>
<g id="a_node5"><a xlink:href="classDGtal_1_1KhalimskySpaceNDHelper.html" target="_top" xlink:title=" ">
<polygon fill="white" stroke="black" points="537,-0.5 537,-41.5 715,-41.5 715,-0.5 537,-0.5"/>
<text text-anchor="start" x="545" y="-29.5" font-family="FreeSans" font-size="10.00">DGtal::KhalimskySpaceNDHelper</text>
<text text-anchor="start" x="545" y="-18.5" font-family="FreeSans" font-size="10.00">&lt; KhalimskySpaceND&lt; dim,</text>
<text text-anchor="middle" x="626" y="-7.5" font-family="FreeSans" font-size="10.00"> DGtal::int32_t &gt; &gt;</text>
</a>
</g>
</g>
<!-- Node1&#45;&gt;Node5 -->
<g id="edge4" class="edge">
<title>Node1&#45;&gt;Node5</title>
<path fill="none" stroke="orange" stroke-dasharray="5,2" d="M187.14,-24.83C190.13,-24.52 193.08,-24.24 196,-24 313.65,-14.21 450.06,-15.39 536.91,-17.71"/>
<polygon fill="orange" stroke="orange" points="186.48,-21.38 176.93,-25.97 187.26,-28.33 186.48,-21.38"/>
<text text-anchor="start" x="196" y="-38" font-family="FreeSans" font-size="10.00"> &lt; KhalimskySpaceND</text>
<text text-anchor="middle" x="259.5" y="-27" font-family="FreeSans" font-size="10.00">&lt; dim, DGtal::int32_t &gt; &gt;</text>
</g>
<!-- Node3 -->
<g id="node3" class="node">
<title>Node3</title>
<g id="a_node3"><a xlink:href="classDGtal_1_1KhalimskySpaceND.html" target="_top" xlink:title="Aim: This class is a model of CCellularGridSpaceND. It represents the cubical grid as a cell complex,...">
<polygon fill="white" stroke="black" points="733,-52 733,-82 879,-82 879,-52 733,-52"/>
<text text-anchor="start" x="741" y="-70" font-family="FreeSans" font-size="10.00">DGtal::KhalimskySpaceND</text>
<text text-anchor="middle" x="806" y="-59" font-family="FreeSans" font-size="10.00">&lt; dim, TInteger &gt;</text>
</a>
</g>
</g>
<!-- Node2&#45;&gt;Node3 -->
<g id="edge2" class="edge">
<title>Node2&#45;&gt;Node3</title>
<path fill="none" stroke="#8b1a1a" d="M529.25,-67.74C593.09,-67.57 674.91,-67.35 732.8,-67.19"/>
<polygon fill="#8b1a1a" stroke="#8b1a1a" points="529.15,-64.24 519.16,-67.76 529.17,-71.24 529.15,-64.24"/>
</g>
<!-- Node4 -->
<g id="node4" class="node">
<title>Node4</title>
<g id="a_node4"><a xlink:href="classDGtal_1_1KhalimskySpaceND.html" target="_top" xlink:title=" ">
<polygon fill="white" stroke="black" points="1024,-23 1024,-53 1197,-53 1197,-23 1024,-23"/>
<text text-anchor="start" x="1032" y="-41" font-family="FreeSans" font-size="10.00">DGtal::KhalimskySpaceND</text>
<text text-anchor="middle" x="1110.5" y="-30" font-family="FreeSans" font-size="10.00">&lt; dimAmbient, DGtal::int32_t &gt;</text>
</a>
</g>
</g>
<!-- Node3&#45;&gt;Node4 -->
<g id="edge3" class="edge">
<title>Node3&#45;&gt;Node4</title>
<path fill="none" stroke="orange" stroke-dasharray="5,2" d="M889.2,-59.12C930.9,-55.12 981.53,-50.27 1023.73,-46.22"/>
<polygon fill="orange" stroke="orange" points="888.69,-55.65 879.07,-60.09 889.36,-62.62 888.69,-55.65"/>
<text text-anchor="start" x="897" y="-71" font-family="FreeSans" font-size="10.00"> &lt; dimAmbient, DGtal</text>
<text text-anchor="middle" x="951.5" y="-60" font-family="FreeSans" font-size="10.00">::int32_t &gt;</text>
</g>
<!-- Node5&#45;&gt;Node4 -->
<g id="edge5" class="edge">
<title>Node5&#45;&gt;Node4</title>
<path fill="none" stroke="#8b1a1a" d="M725.45,-24.47C813.19,-27.56 940.29,-32.04 1023.89,-34.98"/>
<polygon fill="#8b1a1a" stroke="#8b1a1a" points="725.33,-20.96 715.22,-24.11 725.09,-27.96 725.33,-20.96"/>
</g>
</g>
</svg>
