<?xml version="1.0" encoding="UTF-8" standalone="no"?>
<!DOCTYPE svg PUBLIC "-//W3C//DTD SVG 1.1//EN"
 "http://www.w3.org/Graphics/SVG/1.1/DTD/svg11.dtd">
<!-- Generated by graphviz version 2.43.0 (0)
 -->
<!-- Title: DGtal::SimpleMatrix&lt; TComponent, TM, TN &gt; Pages: 1 -->
<svg width="502pt" height="166pt"
 viewBox="0.00 0.00 502.00 166.00" xmlns="http://www.w3.org/2000/svg" xmlns:xlink="http://www.w3.org/1999/xlink">
<g id="graph0" class="graph" transform="scale(1 1) rotate(0) translate(4 162)">
<title>DGtal::SimpleMatrix&lt; TComponent, TM, TN &gt;</title>
<polygon fill="white" stroke="transparent" points="-4,4 -4,-162 498,-162 498,4 -4,4"/>
<!-- Node1 -->
<g id="node1" class="node">
<title>Node1</title>
<g id="a_node1"><a xlink:title="Aim: implements basic MxN Matrix services (M,N&gt;=1).">
<polygon fill="#bfbfbf" stroke="black" points="0,-78.5 0,-108.5 141,-108.5 141,-78.5 0,-78.5"/>
<text text-anchor="start" x="8" y="-96.5" font-family="FreeSans" font-size="10.00">DGtal::SimpleMatrix</text>
<text text-anchor="middle" x="70.5" y="-85.5" font-family="FreeSans" font-size="10.00">&lt; TComponent, TM, TN &gt;</text>
</a>
</g>
</g>
<!-- Node2 -->
<g id="node2" class="node">
<title>Node2</title>
<g id="a_node2"><a xlink:href="classDGtal_1_1SimpleMatrix.html" target="_top" xlink:title=" ">
<polygon fill="white" stroke="black" points="346,-127.5 346,-157.5 462,-157.5 462,-127.5 346,-127.5"/>
<text text-anchor="start" x="354" y="-145.5" font-family="FreeSans" font-size="10.00">DGtal::SimpleMatrix</text>
<text text-anchor="middle" x="404" y="-134.5" font-family="FreeSans" font-size="10.00">&lt; Integer, 3, 3 &gt;</text>
</a>
</g>
</g>
<!-- Node1&#45;&gt;Node2 -->
<g id="edge1" class="edge">
<title>Node1&#45;&gt;Node2</title>
<path fill="none" stroke="orange" stroke-dasharray="5,2" d="M151.3,-107.29C153.9,-107.7 156.47,-108.11 159,-108.5 222.82,-118.41 296.24,-128.46 345.74,-135.04"/>
<polygon fill="orange" stroke="orange" points="151.63,-103.79 141.2,-105.65 150.51,-110.7 151.63,-103.79"/>
<text text-anchor="middle" x="227.5" y="-130.5" font-family="FreeSans" font-size="10.00"> &lt; Integer, 3, 3 &gt;</text>
</g>
<!-- Node3 -->
<g id="node3" class="node">
<title>Node3</title>
<g id="a_node3"><a xlink:href="classDGtal_1_1SimpleMatrix.html" target="_top" xlink:title=" ">
<polygon fill="white" stroke="black" points="346,-78.5 346,-108.5 462,-108.5 462,-78.5 346,-78.5"/>
<text text-anchor="start" x="354" y="-96.5" font-family="FreeSans" font-size="10.00">DGtal::SimpleMatrix</text>
<text text-anchor="middle" x="404" y="-85.5" font-family="FreeSans" font-size="10.00">&lt; double, 3, 3 &gt;</text>
</a>
</g>
</g>
<!-- Node1&#45;&gt;Node3 -->
<g id="edge2" class="edge">
<title>Node1&#45;&gt;Node3</title>
<path fill="none" stroke="orange" stroke-dasharray="5,2" d="M151.6,-93.5C211.61,-93.5 292.28,-93.5 345.87,-93.5"/>
<polygon fill="orange" stroke="orange" points="151.4,-90 141.4,-93.5 151.4,-97 151.4,-90"/>
<text text-anchor="middle" x="227.5" y="-96.5" font-family="FreeSans" font-size="10.00"> &lt; double, 3, 3 &gt;</text>
</g>
<!-- Node4 -->
<g id="node4" class="node">
<title>Node4</title>
<g id="a_node4"><a xlink:href="classDGtal_1_1SimpleMatrix.html" target="_top" xlink:title=" ">
<polygon fill="white" stroke="black" points="314,-0.5 314,-52.5 494,-52.5 494,-0.5 314,-0.5"/>
<text text-anchor="start" x="322" y="-40.5" font-family="FreeSans" font-size="10.00">DGtal::SimpleMatrix</text>
<text text-anchor="start" x="322" y="-29.5" font-family="FreeSans" font-size="10.00">&lt; typename TSpace::RealVector</text>
<text text-anchor="start" x="322" y="-18.5" font-family="FreeSans" font-size="10.00">::Component, TSpace::dimension,</text>
<text text-anchor="middle" x="404" y="-7.5" font-family="FreeSans" font-size="10.00"> TSpace::dimension &gt;</text>
</a>
</g>
</g>
<!-- Node1&#45;&gt;Node4 -->
<g id="edge3" class="edge">
<title>Node1&#45;&gt;Node4</title>
<path fill="none" stroke="orange" stroke-dasharray="5,2" d="M101.54,-72.86C117.8,-62.79 138.69,-51.56 159,-45.5 208.88,-30.63 266.89,-25.64 313.84,-24.48"/>
<polygon fill="orange" stroke="orange" points="99.56,-69.97 93.01,-78.3 103.32,-75.88 99.56,-69.97"/>
<text text-anchor="start" x="159" y="-81.5" font-family="FreeSans" font-size="10.00"> &lt; typename TSpace::</text>
<text text-anchor="start" x="159" y="-70.5" font-family="FreeSans" font-size="10.00">RealVector::Component,</text>
<text text-anchor="start" x="159" y="-59.5" font-family="FreeSans" font-size="10.00"> TSpace::dimension, TSpace</text>
<text text-anchor="middle" x="227.5" y="-48.5" font-family="FreeSans" font-size="10.00">::dimension &gt;</text>
</g>
</g>
</svg>
