<?xml version="1.0" encoding="UTF-8" standalone="no"?>
<!DOCTYPE svg PUBLIC "-//W3C//DTD SVG 1.1//EN"
 "http://www.w3.org/Graphics/SVG/1.1/DTD/svg11.dtd">
<!-- Generated by graphviz version 2.43.0 (0)
 -->
<!-- Title: DGtal::HueShadeColorMap&lt; PValue, DefaultCycles &gt; Pages: 1 -->
<svg width="175pt" height="117pt"
 viewBox="0.00 0.00 175.00 117.00" xmlns="http://www.w3.org/2000/svg" xmlns:xlink="http://www.w3.org/1999/xlink">
<g id="graph0" class="graph" transform="scale(1 1) rotate(0) translate(4 113)">
<title>DGtal::HueShadeColorMap&lt; PValue, DefaultCycles &gt;</title>
<polygon fill="white" stroke="transparent" points="-4,4 -4,-113 171,-113 171,4 -4,4"/>
<!-- Node1 -->
<g id="node1" class="node">
<title>Node1</title>
<g id="a_node1"><a xlink:title="Aim: This class template may be used to (linearly) convert scalar values in a given range into a colo...">
<polygon fill="#bfbfbf" stroke="black" points="0,-78.5 0,-108.5 146,-108.5 146,-78.5 0,-78.5"/>
<text text-anchor="start" x="8" y="-96.5" font-family="FreeSans" font-size="10.00">DGtal::HueShadeColorMap</text>
<text text-anchor="middle" x="73" y="-85.5" font-family="FreeSans" font-size="10.00">&lt; PValue, DefaultCycles &gt;</text>
</a>
</g>
</g>
<!-- Node2 -->
<g id="node2" class="node">
<title>Node2</title>
<g id="a_node2"><a xlink:href="classDGtal_1_1HueShadeColorMap.html" target="_top" xlink:title=" ">
<polygon fill="white" stroke="black" points="0,-0.5 0,-30.5 146,-30.5 146,-0.5 0,-0.5"/>
<text text-anchor="start" x="8" y="-18.5" font-family="FreeSans" font-size="10.00">DGtal::HueShadeColorMap</text>
<text text-anchor="middle" x="73" y="-7.5" font-family="FreeSans" font-size="10.00">&lt; unsigned char &gt;</text>
</a>
</g>
</g>
<!-- Node1&#45;&gt;Node2 -->
<g id="edge1" class="edge">
<title>Node1&#45;&gt;Node2</title>
<path fill="none" stroke="orange" stroke-dasharray="5,2" d="M73,-68.09C73,-55.76 73,-41.22 73,-30.73"/>
<polygon fill="orange" stroke="orange" points="69.5,-68.2 73,-78.2 76.5,-68.21 69.5,-68.2"/>
<text text-anchor="middle" x="120" y="-52" font-family="FreeSans" font-size="10.00"> &lt; unsigned char &gt;</text>
</g>
</g>
</svg>
