<?xml version="1.0" encoding="UTF-8" standalone="no"?>
<!DOCTYPE svg PUBLIC "-//W3C//DTD SVG 1.1//EN"
 "http://www.w3.org/Graphics/SVG/1.1/DTD/svg11.dtd">
<!-- Generated by graphviz version 2.43.0 (0)
 -->
<!-- Title: DGtal::PlaneProbingRNeighborhood&lt; TPredicate &gt; Pages: 1 -->
<svg width="203pt" height="173pt"
 viewBox="0.00 0.00 203.00 173.00" xmlns="http://www.w3.org/2000/svg" xmlns:xlink="http://www.w3.org/1999/xlink">
<g id="graph0" class="graph" transform="scale(1 1) rotate(0) translate(4 169)">
<title>DGtal::PlaneProbingRNeighborhood&lt; TPredicate &gt;</title>
<polygon fill="white" stroke="transparent" points="-4,4 -4,-169 199,-169 199,4 -4,4"/>
<!-- Node1 -->
<g id="node1" class="node">
<title>Node1</title>
<g id="a_node1"><a xlink:title="Aim: Represent a way to probe the R&#45;neighborhood.">
<polygon fill="#bfbfbf" stroke="black" points="3,-67.5 3,-97.5 192,-97.5 192,-67.5 3,-67.5"/>
<text text-anchor="start" x="11" y="-85.5" font-family="FreeSans" font-size="10.00">DGtal::PlaneProbingRNeighborhood</text>
<text text-anchor="middle" x="97.5" y="-74.5" font-family="FreeSans" font-size="10.00">&lt; TPredicate &gt;</text>
</a>
</g>
</g>
<!-- Node3 -->
<g id="node3" class="node">
<title>Node3</title>
<g id="a_node3"><a xlink:href="classDGtal_1_1PlaneProbingR1Neighborhood.html" target="_top" xlink:title="Aim: Represent a way to probe the R&#45;neighborhood, with the R1 optimization, see &#160;for details.">
<polygon fill="white" stroke="black" points="0,-0.5 0,-30.5 195,-30.5 195,-0.5 0,-0.5"/>
<text text-anchor="start" x="8" y="-18.5" font-family="FreeSans" font-size="10.00">DGtal::PlaneProbingR1Neighborhood</text>
<text text-anchor="middle" x="97.5" y="-7.5" font-family="FreeSans" font-size="10.00">&lt; TPredicate &gt;</text>
</a>
</g>
</g>
<!-- Node1&#45;&gt;Node3 -->
<g id="edge2" class="edge">
<title>Node1&#45;&gt;Node3</title>
<path fill="none" stroke="midnightblue" d="M97.5,-57.11C97.5,-48.15 97.5,-38.32 97.5,-30.58"/>
<polygon fill="midnightblue" stroke="midnightblue" points="94,-57.4 97.5,-67.4 101,-57.4 94,-57.4"/>
</g>
<!-- Node2 -->
<g id="node2" class="node">
<title>Node2</title>
<g id="a_node2"><a xlink:href="classDGtal_1_1PlaneProbingNeighborhood.html" target="_top" xlink:title="Aim: A base virtual class that represents a way to probe a neighborhood, used in the plane probing ba...">
<polygon fill="white" stroke="black" points="6.5,-134.5 6.5,-164.5 188.5,-164.5 188.5,-134.5 6.5,-134.5"/>
<text text-anchor="start" x="14.5" y="-152.5" font-family="FreeSans" font-size="10.00">DGtal::PlaneProbingNeighborhood</text>
<text text-anchor="middle" x="97.5" y="-141.5" font-family="FreeSans" font-size="10.00">&lt; TPredicate &gt;</text>
</a>
</g>
</g>
<!-- Node2&#45;&gt;Node1 -->
<g id="edge1" class="edge">
<title>Node2&#45;&gt;Node1</title>
<path fill="none" stroke="midnightblue" d="M97.5,-124.11C97.5,-115.15 97.5,-105.32 97.5,-97.58"/>
<polygon fill="midnightblue" stroke="midnightblue" points="94,-124.4 97.5,-134.4 101,-124.4 94,-124.4"/>
</g>
</g>
</svg>
