<?xml version="1.0" encoding="UTF-8" standalone="no"?>
<!DOCTYPE svg PUBLIC "-//W3C//DTD SVG 1.1//EN"
 "http://www.w3.org/Graphics/SVG/1.1/DTD/svg11.dtd">
<!-- Generated by graphviz version 2.43.0 (0)
 -->
<!-- Title: GTOPOLOGY Pages: 1 -->
<svg width="2565pt" height="514pt"
 viewBox="0.00 0.00 2565.00 514.00" xmlns="http://www.w3.org/2000/svg" xmlns:xlink="http://www.w3.org/1999/xlink">
<g id="graph0" class="graph" transform="scale(1 1) rotate(0) translate(4 510)">
<title>GTOPOLOGY</title>
<polygon fill="white" stroke="transparent" points="-4,4 -4,-510 2561,-510 2561,4 -4,4"/>
<g id="clust1" class="cluster">
<title>cluster_ext</title>
</g>
<g id="clust2" class="cluster">
<title>cluster_1</title>
<polygon fill="#eeeeff" stroke="#eeeeff" points="844,-342 844,-417 984,-417 984,-342 844,-342"/>
<text text-anchor="middle" x="914" y="-349.8" font-family="Times,serif" font-size="14.00">base</text>
</g>
<g id="clust3" class="cluster">
<title>cluster_2</title>
<polygon fill="#ddddff" stroke="#ddddff" points="992,-342 992,-490 1318,-490 1318,-342 992,-342"/>
<text text-anchor="middle" x="1155" y="-349.8" font-family="Times,serif" font-size="14.00">graph</text>
</g>
<g id="clust4" class="cluster">
<title>cluster_3</title>
<polygon fill="#d4ddff" stroke="#d4ddff" points="1478,-342 1478,-417 1640,-417 1640,-342 1478,-342"/>
<text text-anchor="middle" x="1559" y="-349.8" font-family="Times,serif" font-size="14.00">image</text>
</g>
<g id="clust5" class="cluster">
<title>cluster_4</title>
<polygon fill="#e0eeff" stroke="#e0eeff" points="1326,-342 1326,-417 1470,-417 1470,-342 1326,-342"/>
<text text-anchor="middle" x="1398" y="-349.8" font-family="Times,serif" font-size="14.00">kernel</text>
</g>
<g id="clust6" class="cluster">
<title>cluster_5</title>
<polygon fill="white" stroke="white" points="564,-342 564,-417 836,-417 836,-342 564,-342"/>
<text text-anchor="middle" x="700" y="-349.8" font-family="Times,serif" font-size="14.00">boost</text>
</g>
<g id="clust7" class="cluster">
<title>cluster_0</title>
<polygon fill="lightgrey" stroke="lightgrey" points="335,-153 335,-315 845,-315 845,-153 335,-153"/>
<text text-anchor="middle" x="590" y="-160.8" font-family="Times,serif" font-size="14.00">topology (main concepts)</text>
</g>
<g id="clust8" class="cluster">
<title>cluster_models</title>
<polygon fill="#ccffcc" stroke="#ccffcc" points="8,-8 8,-122 2549,-122 2549,-8 8,-8"/>
<text text-anchor="middle" x="1278.5" y="-15.8" font-family="Times,serif" font-size="14.00">topology (main models)</text>
</g>
<g id="clust9" class="cluster">
<title>cluster_models_0</title>
<polygon fill="#ccf8cc" stroke="#ccf8cc" points="661,-39 661,-114 1078,-114 1078,-39 661,-39"/>
<text text-anchor="middle" x="869.5" y="-46.8" font-family="Times,serif" font-size="14.00">(main graph models)</text>
</g>
<g id="clust10" class="cluster">
<title>cluster_models_1</title>
<polygon fill="#cceecc" stroke="#cceecc" points="1086,-39 1086,-114 2541,-114 2541,-39 1086,-39"/>
<text text-anchor="middle" x="1813.5" y="-46.8" font-family="Times,serif" font-size="14.00">(main digital surface container models)</text>
</g>
<g id="clust11" class="cluster">
<title>cluster_models_2</title>
<polygon fill="#cce8cc" stroke="#cce8cc" points="16,-39 16,-114 653,-114 653,-39 16,-39"/>
<text text-anchor="middle" x="334.5" y="-46.8" font-family="Times,serif" font-size="14.00">(others)</text>
</g>
<!-- CPredicate -->
<g id="node1" class="node">
<title>CPredicate</title>
<g id="a_node1"><a xlink:href="structDGtal_1_1concepts_1_1CPredicate.html" target="_top" xlink:title="CPredicate">
<ellipse fill="white" stroke="white" cx="914" cy="-391" rx="61.99" ry="18"/>
<text text-anchor="middle" x="914" y="-387.3" font-family="Times,serif" font-size="14.00">CPredicate</text>
</a>
</g>
</g>
<!-- CUndirectedSimpleGraph -->
<g id="node2" class="node">
<title>CUndirectedSimpleGraph</title>
<g id="a_node2"><a xlink:href="structDGtal_1_1concepts_1_1CUndirectedSimpleGraph.html" target="_top" xlink:title="CUndirectedSimpleGraph">
<ellipse fill="white" stroke="white" cx="1131" cy="-391" rx="130.78" ry="18"/>
<text text-anchor="middle" x="1131" y="-387.3" font-family="Times,serif" font-size="14.00">CUndirectedSimpleGraph</text>
</a>
</g>
</g>
<!-- CUndirectedSimpleLocalGraph -->
<g id="node3" class="node">
<title>CUndirectedSimpleLocalGraph</title>
<g id="a_node3"><a xlink:href="structDGtal_1_1concepts_1_1CUndirectedSimpleLocalGraph.html" target="_top" xlink:title="CUndirectedSimpleLocalGraph">
<ellipse fill="white" stroke="white" cx="1155" cy="-464" rx="155.17" ry="18"/>
<text text-anchor="middle" x="1155" y="-460.3" font-family="Times,serif" font-size="14.00">CUndirectedSimpleLocalGraph</text>
</a>
</g>
</g>
<!-- CUndirectedSimpleGraph&#45;&gt;CUndirectedSimpleLocalGraph -->
<g id="edge5" class="edge">
<title>CUndirectedSimpleGraph&#45;&gt;CUndirectedSimpleLocalGraph</title>
<path fill="none" stroke="black" d="M1136.81,-409.19C1139.55,-417.3 1142.89,-427.16 1145.95,-436.22"/>
<polygon fill="black" stroke="black" points="1142.73,-437.62 1149.24,-445.97 1149.36,-435.38 1142.73,-437.62"/>
</g>
<!-- CConstImage -->
<g id="node4" class="node">
<title>CConstImage</title>
<g id="a_node4"><a xlink:href="structDGtal_1_1concepts_1_1CConstImage.html" target="_top" xlink:title="CConstImage">
<ellipse fill="white" stroke="white" cx="1559" cy="-391" rx="73.39" ry="18"/>
<text text-anchor="middle" x="1559" y="-387.3" font-family="Times,serif" font-size="14.00">CConstImage</text>
</a>
</g>
</g>
<!-- CDigitalSet -->
<g id="node5" class="node">
<title>CDigitalSet</title>
<g id="a_node5"><a xlink:href="structDGtal_1_1concepts_1_1CDigitalSet.html" target="_top" xlink:title="CDigitalSet">
<ellipse fill="white" stroke="white" cx="1398" cy="-391" rx="64.19" ry="18"/>
<text text-anchor="middle" x="1398" y="-387.3" font-family="Times,serif" font-size="14.00">CDigitalSet</text>
</a>
</g>
</g>
<!-- boost_CopyConstructible -->
<g id="node6" class="node">
<title>boost_CopyConstructible</title>
<g id="a_node6"><a xlink:href="structboost_1_1CopyConstructible.html" target="_top" xlink:title="boost::CopyConstructible">
<ellipse fill="orange" stroke="orange" cx="700" cy="-391" rx="128.08" ry="18"/>
<text text-anchor="middle" x="700" y="-387.3" font-family="Times,serif" font-size="14.00">boost::CopyConstructible</text>
</a>
</g>
</g>
<!-- CDigitalSurfaceContainer -->
<g id="node7" class="node">
<title>CDigitalSurfaceContainer</title>
<g id="a_node7"><a xlink:href="structDGtal_1_1concepts_1_1CDigitalSurfaceContainer.html" target="_top" xlink:title="CDigitalSurfaceContainer">
<ellipse fill="white" stroke="white" cx="707" cy="-202" rx="129.98" ry="18"/>
<text text-anchor="middle" x="707" y="-198.3" font-family="Times,serif" font-size="14.00">CDigitalSurfaceContainer</text>
</a>
</g>
</g>
<!-- CDigitalSurfaceContainer&#45;&gt;boost_CopyConstructible -->
<g id="edge1" class="edge">
<title>CDigitalSurfaceContainer&#45;&gt;boost_CopyConstructible</title>
<path fill="none" stroke="black" d="M810.03,-213.01C841.01,-218.28 869.36,-226.2 879,-238 924.14,-293.26 823.9,-344 755.96,-370.58"/>
<polygon fill="black" stroke="black" points="754.69,-367.32 746.6,-374.17 757.19,-373.85 754.69,-367.32"/>
</g>
<!-- CDigitalSurfaceTracker -->
<g id="node8" class="node">
<title>CDigitalSurfaceTracker</title>
<g id="a_node8"><a xlink:href="structDGtal_1_1concepts_1_1CDigitalSurfaceTracker.html" target="_top" xlink:title="CDigitalSurfaceTracker">
<ellipse fill="white" stroke="white" cx="717" cy="-289" rx="120.48" ry="18"/>
<text text-anchor="middle" x="717" y="-285.3" font-family="Times,serif" font-size="14.00">CDigitalSurfaceTracker</text>
</a>
</g>
</g>
<!-- CDigitalSurfaceContainer&#45;&gt;CDigitalSurfaceTracker -->
<g id="edge3" class="edge">
<title>CDigitalSurfaceContainer&#45;&gt;CDigitalSurfaceTracker</title>
<path fill="none" stroke="black" stroke-dasharray="5,2" d="M709.02,-220.2C710.39,-231.84 712.23,-247.45 713.8,-260.76"/>
<polygon fill="black" stroke="black" points="710.33,-261.3 714.98,-270.82 717.29,-260.48 710.33,-261.3"/>
<text text-anchor="middle" x="724.5" y="-241.8" font-family="Times,serif" font-size="14.00">use</text>
</g>
<!-- CCellularGridSpaceND -->
<g id="node10" class="node">
<title>CCellularGridSpaceND</title>
<g id="a_node10"><a xlink:href="structDGtal_1_1concepts_1_1CCellularGridSpaceND.html" target="_top" xlink:title="CCellularGridSpaceND">
<ellipse fill="white" stroke="white" cx="461" cy="-289" rx="117.78" ry="18"/>
<text text-anchor="middle" x="461" y="-285.3" font-family="Times,serif" font-size="14.00">CCellularGridSpaceND</text>
</a>
</g>
</g>
<!-- CDigitalSurfaceContainer&#45;&gt;CCellularGridSpaceND -->
<g id="edge4" class="edge">
<title>CDigitalSurfaceContainer&#45;&gt;CCellularGridSpaceND</title>
<path fill="none" stroke="black" stroke-dasharray="5,2" d="M661.02,-218.89C619.9,-233.09 559.58,-253.94 515.94,-269.02"/>
<polygon fill="black" stroke="black" points="514.65,-265.76 506.34,-272.33 516.94,-272.38 514.65,-265.76"/>
<text text-anchor="middle" x="611.5" y="-241.8" font-family="Times,serif" font-size="14.00">use</text>
</g>
<!-- CDigitalSurfaceTracker&#45;&gt;boost_CopyConstructible -->
<g id="edge2" class="edge">
<title>CDigitalSurfaceTracker&#45;&gt;boost_CopyConstructible</title>
<path fill="none" stroke="black" d="M714.04,-307.42C711.45,-322.62 707.66,-344.93 704.67,-362.54"/>
<polygon fill="black" stroke="black" points="701.15,-362.34 702.93,-372.78 708.05,-363.51 701.15,-362.34"/>
</g>
<!-- CSurfelPredicate -->
<g id="node9" class="node">
<title>CSurfelPredicate</title>
<g id="a_node9"><a xlink:href="structDGtal_1_1concepts_1_1CSurfelPredicate.html" target="_top" xlink:title="CSurfelPredicate">
<ellipse fill="white" stroke="white" cx="469" cy="-202" rx="90.18" ry="18"/>
<text text-anchor="middle" x="469" y="-198.3" font-family="Times,serif" font-size="14.00">CSurfelPredicate</text>
</a>
</g>
</g>
<!-- CSurfelPredicate&#45;&gt;CPredicate -->
<g id="edge6" class="edge">
<title>CSurfelPredicate&#45;&gt;CPredicate</title>
<path fill="none" stroke="black" d="M533.34,-214.69C544.86,-216.6 556.77,-218.45 568,-220 692.44,-237.14 748.17,-192.2 846,-271 875.91,-295.09 895.13,-336.1 905.26,-363.12"/>
<polygon fill="black" stroke="black" points="902.03,-364.49 908.69,-372.73 908.62,-362.13 902.03,-364.49"/>
</g>
<!-- DigitalSurface -->
<g id="node11" class="node">
<title>DigitalSurface</title>
<g id="a_node11"><a xlink:href="classDGtal_1_1DigitalSurface.html" target="_top" xlink:title="DigitalSurface">
<ellipse fill="white" stroke="white" cx="746" cy="-88" rx="77.19" ry="18"/>
<text text-anchor="middle" x="746" y="-84.3" font-family="Times,serif" font-size="14.00">DigitalSurface</text>
</a>
</g>
</g>
<!-- DigitalSurface&#45;&gt;CUndirectedSimpleGraph -->
<g id="edge16" class="edge">
<title>DigitalSurface&#45;&gt;CUndirectedSimpleGraph</title>
<path fill="none" stroke="black" d="M781.53,-104C797.12,-110.18 815.77,-117.05 833,-122 900.52,-141.41 930.52,-112.6 988,-153 997.94,-159.98 1081.37,-303.77 1116.02,-363.91"/>
<polygon fill="black" stroke="black" points="1113.12,-365.89 1121.14,-372.81 1119.18,-362.4 1113.12,-365.89"/>
</g>
<!-- DigitalSurface&#45;&gt;CDigitalSurfaceContainer -->
<g id="edge17" class="edge">
<title>DigitalSurface&#45;&gt;CDigitalSurfaceContainer</title>
<path fill="none" stroke="black" stroke-dasharray="5,2" d="M740.08,-106.01C733.78,-124.1 723.73,-152.97 716.35,-174.14"/>
<polygon fill="black" stroke="black" points="712.96,-173.23 712.98,-183.83 719.57,-175.54 712.96,-173.23"/>
<text text-anchor="middle" x="743.5" y="-133.8" font-family="Times,serif" font-size="14.00">use</text>
</g>
<!-- IndexedDigitalSurface -->
<g id="node12" class="node">
<title>IndexedDigitalSurface</title>
<g id="a_node12"><a xlink:href="classDGtal_1_1IndexedDigitalSurface.html" target="_top" xlink:title="IndexedDigitalSurface">
<ellipse fill="white" stroke="white" cx="956" cy="-88" rx="114.28" ry="18"/>
<text text-anchor="middle" x="956" y="-84.3" font-family="Times,serif" font-size="14.00">IndexedDigitalSurface</text>
</a>
</g>
</g>
<!-- IndexedDigitalSurface&#45;&gt;CUndirectedSimpleGraph -->
<g id="edge18" class="edge">
<title>IndexedDigitalSurface&#45;&gt;CUndirectedSimpleGraph</title>
<path fill="none" stroke="black" d="M982.02,-105.71C998.43,-117.34 1019.09,-134.1 1033,-153 1082.6,-220.36 1112.18,-316.49 1124.41,-362.89"/>
<polygon fill="black" stroke="black" points="1121.07,-363.97 1126.95,-372.79 1127.85,-362.23 1121.07,-363.97"/>
</g>
<!-- IndexedDigitalSurface&#45;&gt;CDigitalSurfaceContainer -->
<g id="edge19" class="edge">
<title>IndexedDigitalSurface&#45;&gt;CDigitalSurfaceContainer</title>
<path fill="none" stroke="black" stroke-dasharray="5,2" d="M920.06,-105.17C875.87,-125.04 800.81,-158.8 752.6,-180.49"/>
<polygon fill="black" stroke="black" points="751.02,-177.36 743.33,-184.66 753.89,-183.75 751.02,-177.36"/>
<text text-anchor="middle" x="873.5" y="-133.8" font-family="Times,serif" font-size="14.00">use</text>
</g>
<!-- DigitalSetBoundary -->
<g id="node13" class="node">
<title>DigitalSetBoundary</title>
<g id="a_node13"><a xlink:href="classDGtal_1_1DigitalSetBoundary.html" target="_top" xlink:title="DigitalSetBoundary">
<ellipse fill="white" stroke="white" cx="1843" cy="-88" rx="102.88" ry="18"/>
<text text-anchor="middle" x="1843" y="-84.3" font-family="Times,serif" font-size="14.00">DigitalSetBoundary</text>
</a>
</g>
</g>
<!-- DigitalSetBoundary&#45;&gt;CDigitalSet -->
<g id="edge8" class="edge">
<title>DigitalSetBoundary&#45;&gt;CDigitalSet</title>
<path fill="none" stroke="black" stroke-dasharray="5,2" d="M1795.58,-104.04C1775.74,-110.06 1752.37,-116.78 1731,-122 1712.96,-126.41 1706.64,-121.76 1690,-130 1569.34,-189.79 1460.33,-313.06 1417.38,-365.51"/>
<polygon fill="black" stroke="black" points="1414.64,-363.33 1411.06,-373.3 1420.08,-367.74 1414.64,-363.33"/>
<text text-anchor="middle" x="1549.5" y="-241.8" font-family="Times,serif" font-size="14.00">use</text>
</g>
<!-- DigitalSetBoundary&#45;&gt;CDigitalSurfaceContainer -->
<g id="edge7" class="edge">
<title>DigitalSetBoundary&#45;&gt;CDigitalSurfaceContainer</title>
<path fill="none" stroke="black" d="M1799.12,-104.36C1778.66,-110.89 1753.85,-117.92 1731,-122 1678.38,-131.39 1664.31,-126.13 1611,-130 1329.28,-150.45 998.39,-177.11 825.64,-191.23"/>
<polygon fill="black" stroke="black" points="825.19,-187.76 815.51,-192.06 825.76,-194.73 825.19,-187.76"/>
</g>
<!-- ImplicitDigitalSurface -->
<g id="node14" class="node">
<title>ImplicitDigitalSurface</title>
<g id="a_node14"><a xlink:href="classDGtal_1_1ImplicitDigitalSurface.html" target="_top" xlink:title="ImplicitDigitalSurface">
<ellipse fill="white" stroke="white" cx="1207" cy="-88" rx="113.18" ry="18"/>
<text text-anchor="middle" x="1207" y="-84.3" font-family="Times,serif" font-size="14.00">ImplicitDigitalSurface</text>
</a>
</g>
</g>
<!-- ImplicitDigitalSurface&#45;&gt;CDigitalSurfaceContainer -->
<g id="edge9" class="edge">
<title>ImplicitDigitalSurface&#45;&gt;CDigitalSurfaceContainer</title>
<path fill="none" stroke="black" d="M1153.01,-103.89C1131.04,-109.78 1105.37,-116.46 1082,-122 981.63,-145.8 865.29,-169.75 789.14,-184.94"/>
<polygon fill="black" stroke="black" points="788.26,-181.54 779.13,-186.93 789.62,-188.41 788.26,-181.54"/>
</g>
<!-- LightImplicitDigitalSurface -->
<g id="node15" class="node">
<title>LightImplicitDigitalSurface</title>
<g id="a_node15"><a xlink:href="classDGtal_1_1LightImplicitDigitalSurface.html" target="_top" xlink:title="LightImplicitDigitalSurface">
<ellipse fill="white" stroke="white" cx="2101" cy="-88" rx="137.58" ry="18"/>
<text text-anchor="middle" x="2101" y="-84.3" font-family="Times,serif" font-size="14.00">LightImplicitDigitalSurface</text>
</a>
</g>
</g>
<!-- LightImplicitDigitalSurface&#45;&gt;CUndirectedSimpleLocalGraph -->
<g id="edge13" class="edge">
<title>LightImplicitDigitalSurface&#45;&gt;CUndirectedSimpleLocalGraph</title>
<path fill="none" stroke="black" d="M2036.33,-103.89C1923.84,-130.25 1704,-183.95 1704,-201 1704,-201 1704,-201 1704,-392 1704,-431.8 1474.12,-449.82 1311.86,-457.58"/>
<polygon fill="black" stroke="black" points="1311.59,-454.09 1301.76,-458.06 1311.91,-461.09 1311.59,-454.09"/>
</g>
<!-- LightImplicitDigitalSurface&#45;&gt;CDigitalSurfaceContainer -->
<g id="edge12" class="edge">
<title>LightImplicitDigitalSurface&#45;&gt;CDigitalSurfaceContainer</title>
<path fill="none" stroke="black" d="M2044.25,-104.49C2017.4,-111.13 1984.78,-118.22 1955,-122 1838.11,-136.84 1807.62,-122.88 1690,-130 1616.5,-134.45 1598.4,-139.15 1525,-145 1280.45,-164.48 994.44,-183.11 833.63,-193.21"/>
<polygon fill="black" stroke="black" points="832.98,-189.74 823.22,-193.86 833.42,-196.73 832.98,-189.74"/>
</g>
<!-- SetOfSurfels -->
<g id="node16" class="node">
<title>SetOfSurfels</title>
<g id="a_node16"><a xlink:href="classDGtal_1_1SetOfSurfels.html" target="_top" xlink:title="SetOfSurfels">
<ellipse fill="white" stroke="white" cx="1408" cy="-88" rx="70.39" ry="18"/>
<text text-anchor="middle" x="1408" y="-84.3" font-family="Times,serif" font-size="14.00">SetOfSurfels</text>
</a>
</g>
</g>
<!-- SetOfSurfels&#45;&gt;CDigitalSurfaceContainer -->
<g id="edge10" class="edge">
<title>SetOfSurfels&#45;&gt;CDigitalSurfaceContainer</title>
<path fill="none" stroke="black" d="M1376.78,-104.33C1362.52,-110.73 1345.23,-117.67 1329,-122 1162.99,-166.34 965.22,-186.04 837.98,-194.62"/>
<polygon fill="black" stroke="black" points="837.54,-191.14 827.8,-195.29 838,-198.13 837.54,-191.14"/>
</g>
<!-- ExplicitDigitalSurface -->
<g id="node17" class="node">
<title>ExplicitDigitalSurface</title>
<g id="a_node17"><a xlink:href="classDGtal_1_1ExplicitDigitalSurface.html" target="_top" xlink:title="ExplicitDigitalSurface">
<ellipse fill="white" stroke="white" cx="1609" cy="-88" rx="113.18" ry="18"/>
<text text-anchor="middle" x="1609" y="-84.3" font-family="Times,serif" font-size="14.00">ExplicitDigitalSurface</text>
</a>
</g>
</g>
<!-- ExplicitDigitalSurface&#45;&gt;CDigitalSurfaceContainer -->
<g id="edge11" class="edge">
<title>ExplicitDigitalSurface&#45;&gt;CDigitalSurfaceContainer</title>
<path fill="none" stroke="black" d="M1559.53,-104.2C1537.51,-110.5 1511.14,-117.39 1487,-122 1261.17,-165.14 993.77,-185.75 837.97,-194.77"/>
<polygon fill="black" stroke="black" points="837.66,-191.28 827.87,-195.35 838.06,-198.27 837.66,-191.28"/>
</g>
<!-- LightExplicitDigitalSurface -->
<g id="node18" class="node">
<title>LightExplicitDigitalSurface</title>
<g id="a_node18"><a xlink:href="classDGtal_1_1LightExplicitDigitalSurface.html" target="_top" xlink:title="LightExplicitDigitalSurface">
<ellipse fill="white" stroke="white" cx="2395" cy="-88" rx="137.58" ry="18"/>
<text text-anchor="middle" x="2395" y="-84.3" font-family="Times,serif" font-size="14.00">LightExplicitDigitalSurface</text>
</a>
</g>
</g>
<!-- LightExplicitDigitalSurface&#45;&gt;CUndirectedSimpleLocalGraph -->
<g id="edge15" class="edge">
<title>LightExplicitDigitalSurface&#45;&gt;CUndirectedSimpleLocalGraph</title>
<path fill="none" stroke="black" d="M2342.82,-104.7C2300.21,-121.12 2247,-151.54 2247,-201 2247,-201 2247,-201 2247,-392 2247,-437.96 1622.78,-455.01 1318.24,-460.59"/>
<polygon fill="black" stroke="black" points="1317.92,-457.1 1307.99,-460.78 1318.05,-464.1 1317.92,-457.1"/>
</g>
<!-- LightExplicitDigitalSurface&#45;&gt;CDigitalSurfaceContainer -->
<g id="edge14" class="edge">
<title>LightExplicitDigitalSurface&#45;&gt;CDigitalSurfaceContainer</title>
<path fill="none" stroke="black" d="M2337.11,-104.38C2310.21,-110.91 2277.67,-117.94 2248,-122 1735.38,-192.16 1119.11,-201.42 847.38,-201.74"/>
<polygon fill="black" stroke="black" points="847.07,-198.24 837.07,-201.75 847.07,-205.24 847.07,-198.24"/>
</g>
<!-- SurfelSetPredicate -->
<g id="node19" class="node">
<title>SurfelSetPredicate</title>
<g id="a_node19"><a xlink:href="structDGtal_1_1functors_1_1SurfelSetPredicate.html" target="_top" xlink:title="SurfelSetPredicate">
<ellipse fill="white" stroke="white" cx="546" cy="-88" rx="98.58" ry="18"/>
<text text-anchor="middle" x="546" y="-84.3" font-family="Times,serif" font-size="14.00">SurfelSetPredicate</text>
</a>
</g>
</g>
<!-- SurfelSetPredicate&#45;&gt;CSurfelPredicate -->
<g id="edge20" class="edge">
<title>SurfelSetPredicate&#45;&gt;CSurfelPredicate</title>
<path fill="none" stroke="black" d="M534.31,-106.01C521.59,-124.51 501.12,-154.29 486.48,-175.57"/>
<polygon fill="black" stroke="black" points="483.59,-173.61 480.8,-183.83 489.35,-177.57 483.59,-173.61"/>
</g>
<!-- BoundaryPredicate -->
<g id="node20" class="node">
<title>BoundaryPredicate</title>
<g id="a_node20"><a xlink:href="classDGtal_1_1functors_1_1BoundaryPredicate.html" target="_top" xlink:title="BoundaryPredicate">
<ellipse fill="white" stroke="white" cx="124" cy="-88" rx="100.18" ry="18"/>
<text text-anchor="middle" x="124" y="-84.3" font-family="Times,serif" font-size="14.00">BoundaryPredicate</text>
</a>
</g>
</g>
<!-- BoundaryPredicate&#45;&gt;CConstImage -->
<g id="edge25" class="edge">
<title>BoundaryPredicate&#45;&gt;CConstImage</title>
<path fill="none" stroke="black" stroke-dasharray="5,2" d="M167.25,-104.28C187.06,-110.71 210.98,-117.68 233,-122 286.88,-132.56 424.19,-141.85 479,-145 499.53,-146.18 830.22,-144.64 849,-153 886.34,-169.63 881.04,-193.32 912,-220 968.13,-268.37 978.79,-291.31 1049,-315 1138.57,-345.23 1384.07,-304.83 1474,-334 1495.27,-340.9 1516.29,-354.66 1532.1,-366.82"/>
<polygon fill="black" stroke="black" points="1530.31,-369.87 1540.32,-373.35 1534.67,-364.39 1530.31,-369.87"/>
<text text-anchor="middle" x="959.5" y="-241.8" font-family="Times,serif" font-size="14.00">use</text>
</g>
<!-- BoundaryPredicate&#45;&gt;CSurfelPredicate -->
<g id="edge21" class="edge">
<title>BoundaryPredicate&#45;&gt;CSurfelPredicate</title>
<path fill="none" stroke="black" d="M164.28,-104.53C198.95,-117.29 250.58,-134.86 297,-145 326.73,-151.49 335.71,-144.74 365,-153 387.86,-159.44 412.03,-170.33 431.31,-180.1"/>
<polygon fill="black" stroke="black" points="429.87,-183.29 440.36,-184.79 433.09,-177.08 429.87,-183.29"/>
</g>
<!-- BoundaryPredicate&#45;&gt;CCellularGridSpaceND -->
<g id="edge23" class="edge">
<title>BoundaryPredicate&#45;&gt;CCellularGridSpaceND</title>
<path fill="none" stroke="black" stroke-dasharray="5,2" d="M142.41,-105.73C179.92,-138.9 269.11,-213.25 357,-253 370.47,-259.09 385.33,-264.71 399.5,-269.57"/>
<polygon fill="black" stroke="black" points="398.57,-272.95 409.17,-272.82 400.8,-266.32 398.57,-272.95"/>
<text text-anchor="middle" x="305.5" y="-198.3" font-family="Times,serif" font-size="14.00">use</text>
</g>
<!-- FrontierPredicate -->
<g id="node21" class="node">
<title>FrontierPredicate</title>
<g id="a_node21"><a xlink:href="classDGtal_1_1functors_1_1FrontierPredicate.html" target="_top" xlink:title="FrontierPredicate">
<ellipse fill="white" stroke="white" cx="336" cy="-88" rx="93.68" ry="18"/>
<text text-anchor="middle" x="336" y="-84.3" font-family="Times,serif" font-size="14.00">FrontierPredicate</text>
</a>
</g>
</g>
<!-- FrontierPredicate&#45;&gt;CConstImage -->
<g id="edge26" class="edge">
<title>FrontierPredicate&#45;&gt;CConstImage</title>
<path fill="none" stroke="black" stroke-dasharray="5,2" d="M376.13,-104.37C394.69,-110.85 417.19,-117.85 438,-122 562.19,-146.77 595.6,-137.22 722,-145 743.09,-146.3 892.63,-144.55 912,-153 969.9,-178.25 956.89,-223.99 1013,-253 1197.79,-348.54 1280.68,-257.18 1474,-334 1494.37,-342.09 1514.95,-355.49 1530.76,-367.15"/>
<polygon fill="black" stroke="black" points="1528.94,-370.16 1539.02,-373.41 1533.16,-364.58 1528.94,-370.16"/>
<text text-anchor="middle" x="1025.5" y="-241.8" font-family="Times,serif" font-size="14.00">use</text>
</g>
<!-- FrontierPredicate&#45;&gt;CSurfelPredicate -->
<g id="edge22" class="edge">
<title>FrontierPredicate&#45;&gt;CSurfelPredicate</title>
<path fill="none" stroke="black" d="M355.91,-105.77C378.54,-124.82 415.62,-156.05 441.11,-177.52"/>
<polygon fill="black" stroke="black" points="439.05,-180.35 448.95,-184.12 443.56,-175 439.05,-180.35"/>
</g>
<!-- FrontierPredicate&#45;&gt;CCellularGridSpaceND -->
<g id="edge24" class="edge">
<title>FrontierPredicate&#45;&gt;CCellularGridSpaceND</title>
<path fill="none" stroke="black" stroke-dasharray="5,2" d="M332.42,-106.23C327.87,-132.83 323.03,-184.53 345,-220 358.56,-241.89 381.97,-257.54 404.22,-268.26"/>
<polygon fill="black" stroke="black" points="402.78,-271.45 413.33,-272.42 405.68,-265.08 402.78,-271.45"/>
<text text-anchor="middle" x="357.5" y="-198.3" font-family="Times,serif" font-size="14.00">use</text>
</g>
</g>
</svg>
