<?xml version="1.0" encoding="UTF-8" standalone="no"?>
<!DOCTYPE svg PUBLIC "-//W3C//DTD SVG 1.1//EN"
 "http://www.w3.org/Graphics/SVG/1.1/DTD/svg11.dtd">
<!-- Generated by graphviz version 2.43.0 (0)
 -->
<!-- Title: GBASE Pages: 1 -->
<svg width="518pt" height="243pt"
 viewBox="0.00 0.00 518.00 243.00" xmlns="http://www.w3.org/2000/svg" xmlns:xlink="http://www.w3.org/1999/xlink">
<g id="graph0" class="graph" transform="scale(1 1) rotate(0) translate(4 239)">
<title>GBASE</title>
<polygon fill="white" stroke="transparent" points="-4,4 -4,-239 514,-239 514,4 -4,4"/>
<g id="clust1" class="cluster">
<title>cluster_0</title>
<polygon fill="lightgrey" stroke="lightgrey" points="8,-8 8,-227 502,-227 502,-8 8,-8"/>
<text text-anchor="middle" x="255" y="-15.8" font-family="Times,serif" font-size="14.00">Base</text>
</g>
<!-- CSinglePassRange -->
<g id="node1" class="node">
<title>CSinglePassRange</title>
<g id="a_node1"><a xlink:href="structDGtal_1_1concepts_1_1CSinglePassRange.html" target="_top" xlink:title="CSinglePassRange">
<ellipse fill="white" stroke="white" cx="113" cy="-129" rx="96.68" ry="18"/>
<text text-anchor="middle" x="113" y="-125.3" font-family="Times,serif" font-size="14.00">CSinglePassRange</text>
</a>
</g>
</g>
<!-- CConstSinglePassRange -->
<g id="node2" class="node">
<title>CConstSinglePassRange</title>
<g id="a_node2"><a xlink:href="structDGtal_1_1concepts_1_1CConstSinglePassRange.html" target="_top" xlink:title="CConstSinglePassRange">
<ellipse fill="white" stroke="white" cx="250" cy="-201" rx="124.28" ry="18"/>
<text text-anchor="middle" x="250" y="-197.3" font-family="Times,serif" font-size="14.00">CConstSinglePassRange</text>
</a>
</g>
</g>
<!-- CSinglePassRange&#45;&gt;CConstSinglePassRange -->
<g id="edge1" class="edge">
<title>CSinglePassRange&#45;&gt;CConstSinglePassRange</title>
<path fill="none" stroke="black" d="M144.43,-146.06C163.48,-155.79 187.99,-168.32 208.6,-178.85"/>
<polygon fill="black" stroke="black" points="207.27,-182.1 217.76,-183.53 210.45,-175.86 207.27,-182.1"/>
</g>
<!-- CBidirectionalRange -->
<g id="node3" class="node">
<title>CBidirectionalRange</title>
<g id="a_node3"><a xlink:href="structDGtal_1_1concepts_1_1CBidirectionalRange.html" target="_top" xlink:title="CBidirectionalRange">
<ellipse fill="white" stroke="white" cx="242" cy="-57" rx="106.68" ry="18"/>
<text text-anchor="middle" x="242" y="-53.3" font-family="Times,serif" font-size="14.00">CBidirectionalRange</text>
</a>
</g>
</g>
<!-- CBidirectionalRange&#45;&gt;CSinglePassRange -->
<g id="edge3" class="edge">
<title>CBidirectionalRange&#45;&gt;CSinglePassRange</title>
<path fill="none" stroke="black" d="M211.76,-74.41C193.88,-84.11 171.07,-96.49 151.87,-106.91"/>
<polygon fill="black" stroke="black" points="150.18,-103.85 143.06,-111.69 153.51,-110 150.18,-103.85"/>
</g>
<!-- CConstBidirectionalRange -->
<g id="node4" class="node">
<title>CConstBidirectionalRange</title>
<g id="a_node4"><a xlink:href="structDGtal_1_1concepts_1_1CConstBidirectionalRange.html" target="_top" xlink:title="CConstBidirectionalRange">
<ellipse fill="white" stroke="white" cx="361" cy="-129" rx="133.48" ry="18"/>
<text text-anchor="middle" x="361" y="-125.3" font-family="Times,serif" font-size="14.00">CConstBidirectionalRange</text>
</a>
</g>
</g>
<!-- CBidirectionalRange&#45;&gt;CConstBidirectionalRange -->
<g id="edge4" class="edge">
<title>CBidirectionalRange&#45;&gt;CConstBidirectionalRange</title>
<path fill="none" stroke="black" d="M269.9,-74.41C285.93,-83.84 306.27,-95.8 323.66,-106.04"/>
<polygon fill="black" stroke="black" points="322.05,-109.15 332.45,-111.2 325.6,-103.12 322.05,-109.15"/>
</g>
<!-- CConstBidirectionalRange&#45;&gt;CConstSinglePassRange -->
<g id="edge2" class="edge">
<title>CConstBidirectionalRange&#45;&gt;CConstSinglePassRange</title>
<path fill="none" stroke="black" d="M334.41,-146.77C319.58,-156.12 300.94,-167.88 284.94,-177.96"/>
<polygon fill="black" stroke="black" points="282.96,-175.08 276.37,-183.37 286.7,-181 282.96,-175.08"/>
</g>
</g>
</svg>
