<?xml version="1.0" encoding="UTF-8" standalone="no"?>
<!DOCTYPE svg PUBLIC "-//W3C//DTD SVG 1.1//EN"
 "http://www.w3.org/Graphics/SVG/1.1/DTD/svg11.dtd">
<!-- Generated by graphviz version 2.43.0 (0)
 -->
<!-- Title: Graphical Class Hierarchy Pages: 1 -->
<svg width="355pt" height="39pt"
 viewBox="0.00 0.00 355.00 39.00" xmlns="http://www.w3.org/2000/svg" xmlns:xlink="http://www.w3.org/1999/xlink">
<g id="graph0" class="graph" transform="scale(1 1) rotate(0) translate(4 35)">
<title>Graphical Class Hierarchy</title>
<polygon fill="white" stroke="transparent" points="-4,4 -4,-35 351,-35 351,4 -4,4"/>
<!-- Node1025 -->
<g id="node1" class="node">
<title>Node1025</title>
<g id="a_node1"><a xlink:title=" ">
<polygon fill="white" stroke="#bfbfbf" points="0,-0.5 0,-30.5 156,-30.5 156,-0.5 0,-0.5"/>
<text text-anchor="start" x="8" y="-18.5" font-family="FreeSans" font-size="10.00">boost::mutable_bidirectional</text>
<text text-anchor="middle" x="78" y="-7.5" font-family="FreeSans" font-size="10.00">_iterator_archetype</text>
</a>
</g>
</g>
<!-- Node0 -->
<g id="node2" class="node">
<title>Node0</title>
<g id="a_node2"><a xlink:href="structDGtal_1_1CBidirectionalIteratorArchetype.html" target="_top" xlink:title="An archetype of BidirectionalIterator.">
<polygon fill="white" stroke="black" points="192,-0.5 192,-30.5 347,-30.5 347,-0.5 192,-0.5"/>
<text text-anchor="start" x="200" y="-18.5" font-family="FreeSans" font-size="10.00">DGtal::CBidirectionalIterator</text>
<text text-anchor="middle" x="269.5" y="-7.5" font-family="FreeSans" font-size="10.00">Archetype&lt; T &gt;</text>
</a>
</g>
</g>
<!-- Node1025&#45;&gt;Node0 -->
<g id="edge1" class="edge">
<title>Node1025&#45;&gt;Node0</title>
<path fill="none" stroke="midnightblue" d="M166.09,-15.5C174.67,-15.5 183.33,-15.5 191.8,-15.5"/>
<polygon fill="midnightblue" stroke="midnightblue" points="166.08,-12 156.08,-15.5 166.08,-19 166.08,-12"/>
</g>
</g>
</svg>
