<?xml version="1.0" encoding="UTF-8" standalone="no"?>
<!DOCTYPE svg PUBLIC "-//W3C//DTD SVG 1.1//EN"
 "http://www.w3.org/Graphics/SVG/1.1/DTD/svg11.dtd">
<!-- Generated by graphviz version 2.43.0 (0)
 -->
<!-- Title: DGtal::concepts::CCellEmbedder&lt; T &gt; Pages: 1 -->
<svg width="296pt" height="298pt"
 viewBox="0.00 0.00 295.50 298.00" xmlns="http://www.w3.org/2000/svg" xmlns:xlink="http://www.w3.org/1999/xlink">
<g id="graph0" class="graph" transform="scale(1 1) rotate(0) translate(4 294)">
<title>DGtal::concepts::CCellEmbedder&lt; T &gt;</title>
<polygon fill="white" stroke="transparent" points="-4,4 -4,-294 291.5,-294 291.5,4 -4,4"/>
<!-- Node1 -->
<g id="node1" class="node">
<title>Node1</title>
<g id="a_node1"><a xlink:title="Aim: A cell embedder is a mapping from unsigned cells to Euclidean points. It adds inner types to fun...">
<polygon fill="#bfbfbf" stroke="black" points="0,-0.5 0,-19.5 203,-19.5 203,-0.5 0,-0.5"/>
<text text-anchor="middle" x="101.5" y="-7.5" font-family="FreeSans" font-size="10.00">DGtal::concepts::CCellEmbedder&lt; T &gt;</text>
</a>
</g>
</g>
<!-- Node2 -->
<g id="node2" class="node">
<title>Node2</title>
<g id="a_node2"><a xlink:href="structDGtal_1_1concepts_1_1CUnaryFunctor.html" target="_top" xlink:title=" ">
<polygon fill="white" stroke="black" points="15.5,-57.5 15.5,-87.5 187.5,-87.5 187.5,-57.5 15.5,-57.5"/>
<text text-anchor="start" x="23.5" y="-75.5" font-family="FreeSans" font-size="10.00">DGtal::concepts::CUnaryFunctor</text>
<text text-anchor="middle" x="101.5" y="-64.5" font-family="FreeSans" font-size="10.00">&lt; T, T::Cell, T::RealPoint &gt;</text>
</a>
</g>
</g>
<!-- Node2&#45;&gt;Node1 -->
<g id="edge1" class="edge">
<title>Node2&#45;&gt;Node1</title>
<path fill="none" stroke="midnightblue" d="M101.5,-47.35C101.5,-37.51 101.5,-26.78 101.5,-19.54"/>
<polygon fill="midnightblue" stroke="midnightblue" points="98,-47.47 101.5,-57.47 105,-47.47 98,-47.47"/>
</g>
<!-- Node3 -->
<g id="node3" class="node">
<title>Node3</title>
<g id="a_node3"><a xlink:href="structboost_1_1Assignable.html" target="_top" xlink:title="Go to http://www.sgi.com/tech/stl/Assignable.html.">
<polygon fill="white" stroke="black" points="36,-270.5 36,-289.5 167,-289.5 167,-270.5 36,-270.5"/>
<text text-anchor="middle" x="101.5" y="-277.5" font-family="FreeSans" font-size="10.00">boost::Assignable&lt; T &gt;</text>
</a>
</g>
</g>
<!-- Node3&#45;&gt;Node2 -->
<g id="edge2" class="edge">
<title>Node3&#45;&gt;Node2</title>
<path fill="none" stroke="midnightblue" d="M101.5,-260.32C101.5,-219.69 101.5,-124.02 101.5,-87.77"/>
<polygon fill="midnightblue" stroke="midnightblue" points="98,-260.43 101.5,-270.43 105,-260.43 98,-260.43"/>
</g>
<!-- Node5 -->
<g id="node5" class="node">
<title>Node5</title>
<g id="a_node5"><a xlink:href="structboost_1_1Assignable.html" target="_top" xlink:title=" ">
<polygon fill="white" stroke="black" points="123.5,-203.5 123.5,-222.5 255.5,-222.5 255.5,-203.5 123.5,-203.5"/>
<text text-anchor="middle" x="189.5" y="-210.5" font-family="FreeSans" font-size="10.00">boost::Assignable&lt; X &gt;</text>
</a>
</g>
</g>
<!-- Node3&#45;&gt;Node5 -->
<g id="edge5" class="edge">
<title>Node3&#45;&gt;Node5</title>
<path fill="none" stroke="orange" stroke-dasharray="5,2" d="M121.72,-264.07C139.09,-251.24 163.53,-233.19 177.82,-222.63"/>
<polygon fill="orange" stroke="orange" points="119.33,-261.48 113.37,-270.23 123.49,-267.11 119.33,-261.48"/>
<text text-anchor="middle" x="167" y="-244" font-family="FreeSans" font-size="10.00"> &lt; X &gt;</text>
</g>
<!-- Node4 -->
<g id="node4" class="node">
<title>Node4</title>
<g id="a_node4"><a xlink:href="structDGtal_1_1concepts_1_1CUnaryFunctor.html" target="_top" xlink:title="Aim: Defines a unary functor, which associates arguments to results.">
<polygon fill="white" stroke="black" points="113.5,-135.5 113.5,-165.5 285.5,-165.5 285.5,-135.5 113.5,-135.5"/>
<text text-anchor="start" x="121.5" y="-153.5" font-family="FreeSans" font-size="10.00">DGtal::concepts::CUnaryFunctor</text>
<text text-anchor="middle" x="199.5" y="-142.5" font-family="FreeSans" font-size="10.00">&lt; X, A, R &gt;</text>
</a>
</g>
</g>
<!-- Node4&#45;&gt;Node2 -->
<g id="edge3" class="edge">
<title>Node4&#45;&gt;Node2</title>
<path fill="none" stroke="orange" stroke-dasharray="5,2" d="M172.75,-128.75C155.96,-115.73 134.75,-99.28 119.85,-87.73"/>
<polygon fill="orange" stroke="orange" points="171.02,-131.84 181.07,-135.2 175.31,-126.31 171.02,-131.84"/>
<text text-anchor="middle" x="221.5" y="-109" font-family="FreeSans" font-size="10.00"> &lt; T, T::Cell, T::RealPoint &gt;</text>
</g>
<!-- Node5&#45;&gt;Node4 -->
<g id="edge4" class="edge">
<title>Node5&#45;&gt;Node4</title>
<path fill="none" stroke="midnightblue" d="M192.6,-193.22C194.07,-184.36 195.79,-173.96 197.14,-165.76"/>
<polygon fill="midnightblue" stroke="midnightblue" points="189.11,-192.89 190.93,-203.33 196.02,-194.04 189.11,-192.89"/>
</g>
</g>
</svg>
