<?xml version="1.0" encoding="UTF-8" standalone="no"?>
<!DOCTYPE svg PUBLIC "-//W3C//DTD SVG 1.1//EN"
 "http://www.w3.org/Graphics/SVG/1.1/DTD/svg11.dtd">
<!-- Generated by graphviz version 2.43.0 (0)
 -->
<!-- Title: DGtal::concepts::CMatrix&lt; T &gt; Pages: 1 -->
<!--zoomable 176 -->
<svg id="main" version="1.1" xmlns="http://www.w3.org/2000/svg" xmlns:xlink="http://www.w3.org/1999/xlink" xml:space="preserve" onload="init(evt)">
<style type="text/css"><![CDATA[
.edge:hover path { stroke: red; }
.edge:hover polygon { stroke: red; fill: red; }
]]></style>
<script type="text/javascript"><![CDATA[
var edges = document.getElementsByTagName('g');
if (edges && edges.length) {
  for (var i=0;i<edges.length;i++) {
    if (edges[i].id.substr(0,4)=='edge') {
      edges[i].setAttribute('class','edge');
    }
  }
}
]]></script>
        <defs>
                <circle id="rim" cx="0" cy="0" r="7"/>
                <circle id="rim2" cx="0" cy="0" r="3.5"/>
                <g id="zoomPlus">
                        <use xlink:href="#rim" fill="#404040">
                                <set attributeName="fill" to="#808080" begin="zoomplus.mouseover" end="zoomplus.mouseout"/>
                        </use>
                        <path d="M-4,0h8M0,-4v8" fill="none" stroke="white" stroke-width="1.5" pointer-events="none"/>
                </g>
                <g id="zoomMin">
                        <use xlink:href="#rim" fill="#404040">
                                <set attributeName="fill" to="#808080" begin="zoomminus.mouseover" end="zoomminus.mouseout"/>
                        </use>
                        <path d="M-4,0h8" fill="none" stroke="white" stroke-width="1.5" pointer-events="none"/>
                </g>
                <g id="dirArrow">
                        <path fill="none" stroke="white" stroke-width="1.5" d="M0,-3.0v7 M-2.5,-0.5L0,-3.0L2.5,-0.5"/>
                </g>
               <g id="resetDef">
                       <use xlink:href="#rim2" fill="#404040">
                               <set attributeName="fill" to="#808080" begin="reset.mouseover" end="reset.mouseout"/>
                       </use>
               </g>
        </defs>

<script type="text/javascript">
var viewWidth = 748;
var viewHeight = 176;
var sectionId = 'dynsection-0';
</script>
<script xlink:href="svgpan.js"/>
<svg id="graph" class="graph">
<g id="viewport">
<title>DGtal::concepts::CMatrix&lt; T &gt;</title>
<polygon fill="white" stroke="transparent" points="-4,4 -4,-171.5 744,-171.5 744,4 -4,4"/>
<!-- Node1 -->
<g id="node1" class="node">
<title>Node1</title>
<g id="a_node1"><a xlink:title="Aim: Represent any static or dynamic sized matrix having sparse or dense representation.">
<polygon fill="#bfbfbf" stroke="black" points="340,-79 340,-98 507,-98 507,-79 340,-79"/>
<text text-anchor="middle" x="423.5" y="-86" font-family="FreeSans" font-size="10.00">DGtal::concepts::CMatrix&lt; T &gt;</text>
</a>
</g>
</g>
<!-- Node4 -->
<g id="node4" class="node">
<title>Node4</title>
<g id="a_node4"><a xlink:href="structDGtal_1_1concepts_1_1CDenseMatrix.html" target="_top" xlink:title="Aim: Represent any dynamic or static sized matrix having dense representation.">
<polygon fill="white" stroke="black" points="543,-148 543,-167 740,-167 740,-148 543,-148"/>
<text text-anchor="middle" x="641.5" y="-155" font-family="FreeSans" font-size="10.00">DGtal::concepts::CDenseMatrix&lt; T &gt;</text>
</a>
</g>
</g>
<!-- Node1&#45;&gt;Node4 -->
<g id="edge3" class="edge">
<title>Node1&#45;&gt;Node4</title>
<path fill="none" stroke="midnightblue" d="M452.84,-102.42C476.47,-113.55 511.27,-128.83 543,-138.5 555.21,-142.22 568.5,-145.38 581.24,-147.99"/>
<polygon fill="midnightblue" stroke="midnightblue" points="454.28,-99.23 443.75,-98.09 451.27,-105.55 454.28,-99.23"/>
</g>
<!-- Node5 -->
<g id="node5" class="node">
<title>Node5</title>
<g id="a_node5"><a xlink:href="structDGtal_1_1concepts_1_1CDynamicMatrix.html" target="_top" xlink:title="Aim: Represent any dynamic sized matrix having sparse or dense representation.">
<polygon fill="white" stroke="black" points="566.5,-98.5 566.5,-128.5 716.5,-128.5 716.5,-98.5 566.5,-98.5"/>
<text text-anchor="start" x="574.5" y="-116.5" font-family="FreeSans" font-size="10.00">DGtal::concepts::CDynamic</text>
<text text-anchor="middle" x="641.5" y="-105.5" font-family="FreeSans" font-size="10.00">Matrix&lt; T &gt;</text>
</a>
</g>
</g>
<!-- Node1&#45;&gt;Node5 -->
<g id="edge4" class="edge">
<title>Node1&#45;&gt;Node5</title>
<path fill="none" stroke="midnightblue" d="M516.95,-99.2C533.41,-101.11 550.37,-103.07 566.25,-104.91"/>
<polygon fill="midnightblue" stroke="midnightblue" points="517.11,-95.7 506.78,-98.02 516.31,-102.65 517.11,-95.7"/>
</g>
<!-- Node6 -->
<g id="node6" class="node">
<title>Node6</title>
<g id="a_node6"><a xlink:href="structDGtal_1_1concepts_1_1CSparseMatrix.html" target="_top" xlink:title="Aim: Represent any dynamic or static sized matrix having sparse representation.">
<polygon fill="white" stroke="black" points="564,-49.5 564,-79.5 719,-79.5 719,-49.5 564,-49.5"/>
<text text-anchor="start" x="572" y="-67.5" font-family="FreeSans" font-size="10.00">DGtal::concepts::CSparse</text>
<text text-anchor="middle" x="641.5" y="-56.5" font-family="FreeSans" font-size="10.00">Matrix&lt; T, TripletInterator &gt;</text>
</a>
</g>
</g>
<!-- Node1&#45;&gt;Node6 -->
<g id="edge5" class="edge">
<title>Node1&#45;&gt;Node6</title>
<path fill="none" stroke="midnightblue" d="M517.25,-78.19C532.85,-76.46 548.87,-74.68 563.99,-73"/>
<polygon fill="midnightblue" stroke="midnightblue" points="516.64,-74.74 507.08,-79.32 517.41,-81.7 516.64,-74.74"/>
</g>
<!-- Node7 -->
<g id="node7" class="node">
<title>Node7</title>
<g id="a_node7"><a xlink:href="structDGtal_1_1concepts_1_1CStaticMatrix.html" target="_top" xlink:title="Aim: Represent any static sized matrix having sparse or dense representation.">
<polygon fill="white" stroke="black" points="574.5,-0.5 574.5,-30.5 708.5,-30.5 708.5,-0.5 574.5,-0.5"/>
<text text-anchor="start" x="582.5" y="-18.5" font-family="FreeSans" font-size="10.00">DGtal::concepts::CStatic</text>
<text text-anchor="middle" x="641.5" y="-7.5" font-family="FreeSans" font-size="10.00">Matrix&lt; T &gt;</text>
</a>
</g>
</g>
<!-- Node1&#45;&gt;Node7 -->
<g id="edge6" class="edge">
<title>Node1&#45;&gt;Node7</title>
<path fill="none" stroke="midnightblue" d="M454.28,-74.72C477.96,-64.12 512.14,-49.62 543,-39.5 553.02,-36.22 563.75,-33.14 574.3,-30.37"/>
<polygon fill="midnightblue" stroke="midnightblue" points="452.79,-71.55 445.12,-78.86 455.67,-77.93 452.79,-71.55"/>
</g>
<!-- Node2 -->
<g id="node2" class="node">
<title>Node2</title>
<g id="a_node2"><a xlink:href="structDGtal_1_1concepts_1_1CVectorSpace.html" target="_top" xlink:title="Aim: Base concept for vector space structure.">
<polygon fill="white" stroke="black" points="167,-73.5 167,-103.5 304,-103.5 304,-73.5 167,-73.5"/>
<text text-anchor="start" x="175" y="-91.5" font-family="FreeSans" font-size="10.00">DGtal::concepts::CVector</text>
<text text-anchor="middle" x="235.5" y="-80.5" font-family="FreeSans" font-size="10.00">Space&lt; T &gt;</text>
</a>
</g>
</g>
<!-- Node2&#45;&gt;Node1 -->
<g id="edge1" class="edge">
<title>Node2&#45;&gt;Node1</title>
<path fill="none" stroke="midnightblue" d="M314.39,-88.5C322.85,-88.5 331.48,-88.5 339.99,-88.5"/>
<polygon fill="midnightblue" stroke="midnightblue" points="314.18,-85 304.18,-88.5 314.18,-92 314.18,-85"/>
</g>
<!-- Node3 -->
<g id="node3" class="node">
<title>Node3</title>
<g id="a_node3"><a xlink:href="structboost_1_1Assignable.html" target="_top" xlink:title="Go to http://www.sgi.com/tech/stl/Assignable.html.">
<polygon fill="white" stroke="black" points="0,-79 0,-98 131,-98 131,-79 0,-79"/>
<text text-anchor="middle" x="65.5" y="-86" font-family="FreeSans" font-size="10.00">boost::Assignable&lt; T &gt;</text>
</a>
</g>
</g>
<!-- Node3&#45;&gt;Node2 -->
<g id="edge2" class="edge">
<title>Node3&#45;&gt;Node2</title>
<path fill="none" stroke="midnightblue" d="M141.65,-88.5C150.07,-88.5 158.62,-88.5 166.94,-88.5"/>
<polygon fill="midnightblue" stroke="midnightblue" points="141.45,-85 131.45,-88.5 141.45,-92 141.45,-85"/>
</g>
</g>
</svg>
        <g id="navigator" transform="translate(0 0)" fill="#404254">
                <rect fill="#f2f5e9" fill-opacity="0.5" stroke="#606060" stroke-width=".5" x="0" y="0" width="60" height="60"/>
                <use id="zoomplus" xlink:href="#zoomPlus" x="17" y="9" onmousedown="handleZoom(evt,'in')"/>
                <use id="zoomminus" xlink:href="#zoomMin" x="42" y="9" onmousedown="handleZoom(evt,'out')"/>
                <use id="reset" xlink:href="#resetDef" x="30" y="36" onmousedown="handleReset()"/>
                <g id="arrowUp" xlink:href="#dirArrow" transform="translate(30 24)" onmousedown="handlePan(0,-1)">
                  <use xlink:href="#rim" fill="#404040">
                        <set attributeName="fill" to="#808080" begin="arrowUp.mouseover" end="arrowUp.mouseout"/>
                  </use>
                  <path fill="none" stroke="white" stroke-width="1.5" d="M0,-3.0v7 M-2.5,-0.5L0,-3.0L2.5,-0.5"/>
                </g>
                <g id="arrowRight" xlink:href="#dirArrow" transform="rotate(90) translate(36 -43)" onmousedown="handlePan(1,0)">
                  <use xlink:href="#rim" fill="#404040">
                        <set attributeName="fill" to="#808080" begin="arrowRight.mouseover" end="arrowRight.mouseout"/>
                  </use>
                  <path fill="none" stroke="white" stroke-width="1.5" d="M0,-3.0v7 M-2.5,-0.5L0,-3.0L2.5,-0.5"/>
                </g>
                <g id="arrowDown" xlink:href="#dirArrow" transform="rotate(180) translate(-30 -48)" onmousedown="handlePan(0,1)">
                  <use xlink:href="#rim" fill="#404040">
                        <set attributeName="fill" to="#808080" begin="arrowDown.mouseover" end="arrowDown.mouseout"/>
                  </use>
                  <path fill="none" stroke="white" stroke-width="1.5" d="M0,-3.0v7 M-2.5,-0.5L0,-3.0L2.5,-0.5"/>
                </g>
                <g id="arrowLeft" xlink:href="#dirArrow" transform="rotate(270) translate(-36 17)" onmousedown="handlePan(-1,0)">
                  <use xlink:href="#rim" fill="#404040">
                        <set attributeName="fill" to="#808080" begin="arrowLeft.mouseover" end="arrowLeft.mouseout"/>
                  </use>
                  <path fill="none" stroke="white" stroke-width="1.5" d="M0,-3.0v7 M-2.5,-0.5L0,-3.0L2.5,-0.5"/>
                </g>
        </g>
        <svg viewBox="0 0 15 15" width="100%" height="30px" preserveAspectRatio="xMaxYMin meet">
         <g id="arrow_out" transform="scale(0.3 0.3)">
          <a xlink:href="structDGtal_1_1concepts_1_1CMatrix__inherit__graph_org.svg" target="_base">
           <rect id="button" ry="5" rx="5" y="6" x="6" height="38" width="38"
                fill="#f2f5e9" fill-opacity="0.5" stroke="#606060" stroke-width="1.0"/>
           <path id="arrow"
             d="M 11.500037,31.436501 C 11.940474,20.09759 22.043105,11.32322 32.158766,21.979434 L 37.068811,17.246167 C 37.068811,17.246167 37.088388,32 37.088388,32 L 22.160133,31.978069 C 22.160133,31.978069 26.997745,27.140456 26.997745,27.140456 C 18.528582,18.264221 13.291696,25.230495 11.500037,31.436501 z"
             style="fill:#404040;"/>
          </a>
         </g>
        </svg>
</svg>
