<?xml version="1.0" encoding="UTF-8" standalone="no"?>
<!DOCTYPE svg PUBLIC "-//W3C//DTD SVG 1.1//EN"
 "http://www.w3.org/Graphics/SVG/1.1/DTD/svg11.dtd">
<!-- Generated by graphviz version 2.43.0 (0)
 -->
<!-- Title: DGtal::concepts::CConstSinglePassRange&lt; T &gt; Pages: 1 -->
<svg width="936pt" height="395pt"
 viewBox="0.00 0.00 936.00 395.00" xmlns="http://www.w3.org/2000/svg" xmlns:xlink="http://www.w3.org/1999/xlink">
<g id="graph0" class="graph" transform="scale(1 1) rotate(0) translate(4 391)">
<title>DGtal::concepts::CConstSinglePassRange&lt; T &gt;</title>
<polygon fill="white" stroke="transparent" points="-4,4 -4,-391 932,-391 932,4 -4,4"/>
<!-- Node1 -->
<g id="node1" class="node">
<title>Node1</title>
<g id="a_node1"><a xlink:title="Aim: Defines the concept describing a const single pass range.">
<polygon fill="#bfbfbf" stroke="black" points="0,-181.5 0,-211.5 164,-211.5 164,-181.5 0,-181.5"/>
<text text-anchor="start" x="8" y="-199.5" font-family="FreeSans" font-size="10.00">DGtal::concepts::CConstSingle</text>
<text text-anchor="middle" x="82" y="-188.5" font-family="FreeSans" font-size="10.00">PassRange&lt; T &gt;</text>
</a>
</g>
</g>
<!-- Node2 -->
<g id="node2" class="node">
<title>Node2</title>
<g id="a_node2"><a xlink:href="structDGtal_1_1concepts_1_1CConstSinglePassRangeFromPoint.html" target="_top" xlink:title=" ">
<polygon fill="white" stroke="black" points="506,-247.5 506,-277.5 686,-277.5 686,-247.5 506,-247.5"/>
<text text-anchor="start" x="514" y="-265.5" font-family="FreeSans" font-size="10.00">DGtal::concepts::CConstSingle</text>
<text text-anchor="middle" x="596" y="-254.5" font-family="FreeSans" font-size="10.00">PassRangeFromPoint&lt; T, Value &gt;</text>
</a>
</g>
</g>
<!-- Node1&#45;&gt;Node2 -->
<g id="edge1" class="edge">
<title>Node1&#45;&gt;Node2</title>
<path fill="none" stroke="midnightblue" d="M103.4,-219.24C125.06,-241.53 161.57,-274.06 201,-287.5 319.24,-327.8 468.81,-298.05 545.18,-277.56"/>
<polygon fill="midnightblue" stroke="midnightblue" points="105.79,-216.68 96.37,-211.83 100.71,-221.49 105.79,-216.68"/>
</g>
<!-- Node4 -->
<g id="node4" class="node">
<title>Node4</title>
<g id="a_node4"><a xlink:href="structDGtal_1_1concepts_1_1CConstBidirectionalRange.html" target="_top" xlink:title="Aim: Defines the concept describing a bidirectional const range.">
<polygon fill="white" stroke="black" points="201,-335.5 201,-365.5 397,-365.5 397,-335.5 201,-335.5"/>
<text text-anchor="start" x="209" y="-353.5" font-family="FreeSans" font-size="10.00">DGtal::concepts::CConstBidirectional</text>
<text text-anchor="middle" x="299" y="-342.5" font-family="FreeSans" font-size="10.00">Range&lt; T &gt;</text>
</a>
</g>
</g>
<!-- Node1&#45;&gt;Node4 -->
<g id="edge3" class="edge">
<title>Node1&#45;&gt;Node4</title>
<path fill="none" stroke="midnightblue" d="M95.76,-220.55C112.01,-248.81 142.75,-295.06 182,-320.5 191.51,-326.67 202.23,-331.57 213.22,-335.46"/>
<polygon fill="midnightblue" stroke="midnightblue" points="98.75,-218.73 90.82,-211.72 92.65,-222.15 98.75,-218.73"/>
</g>
<!-- Node8 -->
<g id="node8" class="node">
<title>Node8</title>
<g id="a_node8"><a xlink:href="structDGtal_1_1concepts_1_1CConstSinglePassRangeFromPoint.html" target="_top" xlink:title="Aim: refined concept of const single pass range with a begin() method from a point.">
<polygon fill="white" stroke="black" points="217,-247.5 217,-277.5 381,-277.5 381,-247.5 217,-247.5"/>
<text text-anchor="start" x="225" y="-265.5" font-family="FreeSans" font-size="10.00">DGtal::concepts::CConstSingle</text>
<text text-anchor="middle" x="299" y="-254.5" font-family="FreeSans" font-size="10.00">PassRangeFromPoint&lt; T &gt;</text>
</a>
</g>
</g>
<!-- Node1&#45;&gt;Node8 -->
<g id="edge8" class="edge">
<title>Node1&#45;&gt;Node8</title>
<path fill="none" stroke="midnightblue" d="M133.29,-214.99C154.11,-222.39 178.6,-230.73 201,-237.5 212.4,-240.94 224.65,-244.34 236.47,-247.46"/>
<polygon fill="midnightblue" stroke="midnightblue" points="134.28,-211.63 123.69,-211.56 131.93,-218.22 134.28,-211.63"/>
</g>
<!-- Node10 -->
<g id="node10" class="node">
<title>Node10</title>
<g id="a_node10"><a xlink:href="structDGtal_1_1concepts_1_1CDomain.html" target="_top" xlink:title="Aim: This concept represents a digital domain, i.e. a non mutable subset of points of the given digit...">
<polygon fill="white" stroke="black" points="212.5,-209 212.5,-228 385.5,-228 385.5,-209 212.5,-209"/>
<text text-anchor="middle" x="299" y="-216" font-family="FreeSans" font-size="10.00">DGtal::concepts::CDomain&lt; T &gt;</text>
</a>
</g>
</g>
<!-- Node1&#45;&gt;Node10 -->
<g id="edge11" class="edge">
<title>Node1&#45;&gt;Node10</title>
<path fill="none" stroke="midnightblue" d="M174.31,-205.84C186.91,-207.13 199.81,-208.45 212.3,-209.73"/>
<polygon fill="midnightblue" stroke="midnightblue" points="174.59,-202.35 164.28,-204.82 173.87,-209.32 174.59,-202.35"/>
</g>
<!-- Node11 -->
<g id="node11" class="node">
<title>Node11</title>
<g id="a_node11"><a xlink:href="structDGtal_1_1concepts_1_1CPositiveIrreducibleFraction.html" target="_top" xlink:title="Aim: Defines positive irreducible fractions, i.e. fraction p/q, p and q non&#45;negative integers,...">
<polygon fill="white" stroke="black" points="226,-159.5 226,-189.5 372,-189.5 372,-159.5 226,-159.5"/>
<text text-anchor="start" x="234" y="-177.5" font-family="FreeSans" font-size="10.00">DGtal::concepts::CPositive</text>
<text text-anchor="middle" x="299" y="-166.5" font-family="FreeSans" font-size="10.00">IrreducibleFraction&lt; T &gt;</text>
</a>
</g>
</g>
<!-- Node1&#45;&gt;Node11 -->
<g id="edge12" class="edge">
<title>Node1&#45;&gt;Node11</title>
<path fill="none" stroke="midnightblue" d="M174.32,-187.16C191.52,-185.4 209.27,-183.58 225.78,-181.89"/>
<polygon fill="midnightblue" stroke="midnightblue" points="173.87,-183.68 164.28,-188.18 174.59,-190.65 173.87,-183.68"/>
</g>
<!-- Node12 -->
<g id="node12" class="node">
<title>Node12</title>
<g id="a_node12"><a xlink:href="structDGtal_1_1concepts_1_1CSinglePassRange.html" target="_top" xlink:title="Aim: Defines the concept describing a range.">
<polygon fill="white" stroke="black" points="230.5,-110.5 230.5,-140.5 367.5,-140.5 367.5,-110.5 230.5,-110.5"/>
<text text-anchor="start" x="238.5" y="-128.5" font-family="FreeSans" font-size="10.00">DGtal::concepts::CSingle</text>
<text text-anchor="middle" x="299" y="-117.5" font-family="FreeSans" font-size="10.00">PassRange&lt; T &gt;</text>
</a>
</g>
</g>
<!-- Node1&#45;&gt;Node12 -->
<g id="edge13" class="edge">
<title>Node1&#45;&gt;Node12</title>
<path fill="none" stroke="midnightblue" d="M127.6,-177.66C149.49,-168.79 176.39,-158.44 201,-150.5 211.92,-146.98 223.66,-143.61 235.07,-140.55"/>
<polygon fill="midnightblue" stroke="midnightblue" points="126.16,-174.47 118.23,-181.49 128.81,-180.95 126.16,-174.47"/>
</g>
<!-- Node13 -->
<g id="node13" class="node">
<title>Node13</title>
<g id="a_node13"><a xlink:href="structDGtal_1_1concepts_1_1CSinglePassRangeWithWritableIterator.html" target="_top" xlink:title="Aim: refined concept of const single pass range which require that an output iterator exists.">
<polygon fill="white" stroke="black" points="214.5,-50 214.5,-91 383.5,-91 383.5,-50 214.5,-50"/>
<text text-anchor="start" x="222.5" y="-79" font-family="FreeSans" font-size="10.00">DGtal::concepts::CSingle</text>
<text text-anchor="start" x="222.5" y="-68" font-family="FreeSans" font-size="10.00">PassRangeWithWritableIterator</text>
<text text-anchor="middle" x="299" y="-57" font-family="FreeSans" font-size="10.00">&lt; T, Value &gt;</text>
</a>
</g>
</g>
<!-- Node1&#45;&gt;Node13 -->
<g id="edge15" class="edge">
<title>Node1&#45;&gt;Node13</title>
<path fill="none" stroke="midnightblue" d="M105.41,-174.18C127.88,-152.89 164.33,-121.23 201,-101.5 208.16,-97.65 215.88,-94.18 223.73,-91.08"/>
<polygon fill="midnightblue" stroke="midnightblue" points="102.85,-171.79 98.06,-181.24 107.7,-176.84 102.85,-171.79"/>
</g>
<!-- Node16 -->
<g id="node16" class="node">
<title>Node16</title>
<g id="a_node16"><a xlink:href="structDGtal_1_1concepts_1_1CUndirectedSimpleGraph.html" target="_top" xlink:title="Aim: Represents the concept of local graph: each vertex has neighboring vertices, but we do not neces...">
<polygon fill="white" stroke="black" points="219,-0.5 219,-30.5 379,-30.5 379,-0.5 219,-0.5"/>
<text text-anchor="start" x="227" y="-18.5" font-family="FreeSans" font-size="10.00">DGtal::concepts::CUndirected</text>
<text text-anchor="middle" x="299" y="-7.5" font-family="FreeSans" font-size="10.00">SimpleGraph&lt; T &gt;</text>
</a>
</g>
</g>
<!-- Node1&#45;&gt;Node16 -->
<g id="edge19" class="edge">
<title>Node1&#45;&gt;Node16</title>
<path fill="none" stroke="midnightblue" d="M94.55,-172.42C112.43,-137.8 150.11,-74.41 201,-40.5 206.79,-36.64 213.14,-33.38 219.73,-30.62"/>
<polygon fill="midnightblue" stroke="midnightblue" points="91.42,-170.87 90.04,-181.37 97.67,-174.02 91.42,-170.87"/>
</g>
<!-- Node3 -->
<g id="node3" class="node">
<title>Node3</title>
<g id="a_node3"><a xlink:href="structDGtal_1_1concepts_1_1CSinglePassRangeWithWritableIteratorFromPoint.html" target="_top" xlink:title="Aim: refined concept of single pass range with a outputIterator() method from a point.">
<polygon fill="white" stroke="black" points="745,-151 745,-192 914,-192 914,-151 745,-151"/>
<text text-anchor="start" x="753" y="-180" font-family="FreeSans" font-size="10.00">DGtal::concepts::CSingle</text>
<text text-anchor="start" x="753" y="-169" font-family="FreeSans" font-size="10.00">PassRangeWithWritableIterator</text>
<text text-anchor="middle" x="829.5" y="-158" font-family="FreeSans" font-size="10.00">FromPoint&lt; T, Value &gt;</text>
</a>
</g>
</g>
<!-- Node2&#45;&gt;Node3 -->
<g id="edge2" class="edge">
<title>Node2&#45;&gt;Node3</title>
<path fill="none" stroke="midnightblue" d="M648.17,-243.87C662.99,-238.37 679.17,-232.28 694,-226.5 722.44,-215.41 754.04,-202.52 779.47,-192"/>
<polygon fill="midnightblue" stroke="midnightblue" points="646.82,-240.63 638.65,-247.38 649.25,-247.2 646.82,-240.63"/>
</g>
<!-- Node5 -->
<g id="node5" class="node">
<title>Node5</title>
<g id="a_node5"><a xlink:href="structDGtal_1_1concepts_1_1CBidirectionalRange.html" target="_top" xlink:title="Aim: Defines the concept describing a bidirectional range.">
<polygon fill="white" stroke="black" points="512,-307.5 512,-337.5 680,-337.5 680,-307.5 512,-307.5"/>
<text text-anchor="start" x="520" y="-325.5" font-family="FreeSans" font-size="10.00">DGtal::concepts::CBidirectional</text>
<text text-anchor="middle" x="596" y="-314.5" font-family="FreeSans" font-size="10.00">Range&lt; T &gt;</text>
</a>
</g>
</g>
<!-- Node4&#45;&gt;Node5 -->
<g id="edge4" class="edge">
<title>Node4&#45;&gt;Node5</title>
<path fill="none" stroke="midnightblue" d="M407.12,-340.33C441.61,-337.06 479.29,-333.48 511.79,-330.4"/>
<polygon fill="midnightblue" stroke="midnightblue" points="406.63,-336.86 397,-341.29 407.29,-343.83 406.63,-336.86"/>
</g>
<!-- Node7 -->
<g id="node7" class="node">
<title>Node7</title>
<g id="a_node7"><a xlink:href="structDGtal_1_1concepts_1_1CConstBidirectionalRangeFromPoint.html" target="_top" xlink:title="Aim: refined concept of const bidirectional range with a begin() method from a point.">
<polygon fill="white" stroke="black" points="498,-356.5 498,-386.5 694,-386.5 694,-356.5 498,-356.5"/>
<text text-anchor="start" x="506" y="-374.5" font-family="FreeSans" font-size="10.00">DGtal::concepts::CConstBidirectional</text>
<text text-anchor="middle" x="596" y="-363.5" font-family="FreeSans" font-size="10.00">RangeFromPoint&lt; T &gt;</text>
</a>
</g>
</g>
<!-- Node4&#45;&gt;Node7 -->
<g id="edge6" class="edge">
<title>Node4&#45;&gt;Node7</title>
<path fill="none" stroke="midnightblue" d="M406.98,-358.12C436.71,-360.23 468.82,-362.52 497.94,-364.59"/>
<polygon fill="midnightblue" stroke="midnightblue" points="407.23,-354.62 397,-357.41 406.73,-361.61 407.23,-354.62"/>
</g>
<!-- Node6 -->
<g id="node6" class="node">
<title>Node6</title>
<g id="a_node6"><a xlink:href="structDGtal_1_1concepts_1_1CBidirectionalRangeFromPoint.html" target="_top" xlink:title="Aim: refined concept of single pass range with a begin() method from a point.">
<polygon fill="white" stroke="black" points="745.5,-332.5 745.5,-362.5 913.5,-362.5 913.5,-332.5 745.5,-332.5"/>
<text text-anchor="start" x="753.5" y="-350.5" font-family="FreeSans" font-size="10.00">DGtal::concepts::CBidirectional</text>
<text text-anchor="middle" x="829.5" y="-339.5" font-family="FreeSans" font-size="10.00">RangeFromPoint&lt; T &gt;</text>
</a>
</g>
</g>
<!-- Node5&#45;&gt;Node6 -->
<g id="edge5" class="edge">
<title>Node5&#45;&gt;Node6</title>
<path fill="none" stroke="midnightblue" d="M690.26,-332.57C708.43,-334.53 727.38,-336.58 745.21,-338.51"/>
<polygon fill="midnightblue" stroke="midnightblue" points="690.57,-329.08 680.25,-331.49 689.82,-336.04 690.57,-329.08"/>
</g>
<!-- Node7&#45;&gt;Node6 -->
<g id="edge7" class="edge">
<title>Node7&#45;&gt;Node6</title>
<path fill="none" stroke="midnightblue" d="M704.15,-360.39C717.92,-358.96 731.85,-357.52 745.16,-356.14"/>
<polygon fill="midnightblue" stroke="midnightblue" points="703.76,-356.91 694.17,-361.43 704.48,-363.88 703.76,-356.91"/>
</g>
<!-- Node8&#45;&gt;Node2 -->
<g id="edge10" class="edge">
<title>Node8&#45;&gt;Node2</title>
<path fill="none" stroke="orange" stroke-dasharray="5,2" d="M391.14,-262.5C427.65,-262.5 469.58,-262.5 505.89,-262.5"/>
<polygon fill="orange" stroke="orange" points="391,-259 381,-262.5 391,-266 391,-259"/>
<text text-anchor="middle" x="447.5" y="-265.5" font-family="FreeSans" font-size="10.00"> &lt; T, Value &gt;</text>
</g>
<!-- Node9 -->
<g id="node9" class="node">
<title>Node9</title>
<g id="a_node9"><a xlink:href="structDGtal_1_1concepts_1_1CSinglePassRangeFromPoint.html" target="_top" xlink:title="Aim: refined concept of single pass range with a begin() method from a point.">
<polygon fill="white" stroke="black" points="522.5,-186.5 522.5,-216.5 669.5,-216.5 669.5,-186.5 522.5,-186.5"/>
<text text-anchor="start" x="530.5" y="-204.5" font-family="FreeSans" font-size="10.00">DGtal::concepts::CSingle</text>
<text text-anchor="middle" x="596" y="-193.5" font-family="FreeSans" font-size="10.00">PassRangeFromPoint&lt; T &gt;</text>
</a>
</g>
</g>
<!-- Node8&#45;&gt;Node9 -->
<g id="edge9" class="edge">
<title>Node8&#45;&gt;Node9</title>
<path fill="none" stroke="midnightblue" d="M382.35,-245.47C426.36,-236.37 480.06,-225.27 522.48,-216.5"/>
<polygon fill="midnightblue" stroke="midnightblue" points="381.63,-242.05 372.54,-247.5 383.04,-248.9 381.63,-242.05"/>
</g>
<!-- Node12&#45;&gt;Node9 -->
<g id="edge14" class="edge">
<title>Node12&#45;&gt;Node9</title>
<path fill="none" stroke="midnightblue" d="M368.23,-143.08C419.2,-156.21 488.14,-173.97 536.59,-186.45"/>
<polygon fill="midnightblue" stroke="midnightblue" points="368.84,-139.62 358.28,-140.52 367.09,-146.4 368.84,-139.62"/>
</g>
<!-- Node13&#45;&gt;Node3 -->
<g id="edge18" class="edge">
<title>Node13&#45;&gt;Node3</title>
<path fill="none" stroke="midnightblue" d="M393.79,-88.42C493.33,-107.45 649.16,-137.23 744.71,-155.49"/>
<polygon fill="midnightblue" stroke="midnightblue" points="394.22,-84.94 383.74,-86.5 392.91,-91.82 394.22,-84.94"/>
</g>
<!-- Node14 -->
<g id="node14" class="node">
<title>Node14</title>
<g id="a_node14"><a xlink:href="structDGtal_1_1concepts_1_1CBidirectionalRangeWithWritableIterator.html" target="_top" xlink:title="Aim: refined concept of bidirectional range which require that a reverse output iterator exists.">
<polygon fill="white" stroke="black" points="512,-50 512,-91 680,-91 680,-50 512,-50"/>
<text text-anchor="start" x="520" y="-79" font-family="FreeSans" font-size="10.00">DGtal::concepts::CBidirectional</text>
<text text-anchor="start" x="520" y="-68" font-family="FreeSans" font-size="10.00">RangeWithWritableIterator</text>
<text text-anchor="middle" x="596" y="-57" font-family="FreeSans" font-size="10.00">&lt; T, Value &gt;</text>
</a>
</g>
</g>
<!-- Node13&#45;&gt;Node14 -->
<g id="edge16" class="edge">
<title>Node13&#45;&gt;Node14</title>
<path fill="none" stroke="midnightblue" d="M393.77,-70.5C431.67,-70.5 475.05,-70.5 511.81,-70.5"/>
<polygon fill="midnightblue" stroke="midnightblue" points="393.75,-67 383.75,-70.5 393.75,-74 393.75,-67"/>
</g>
<!-- Node15 -->
<g id="node15" class="node">
<title>Node15</title>
<g id="a_node15"><a xlink:href="structDGtal_1_1concepts_1_1CBidirectionalRangeWithWritableIteratorFromPoint.html" target="_top" xlink:title="Aim: refined concept of single pass range with an routputIterator() method from a point.">
<polygon fill="white" stroke="black" points="731,-50 731,-91 928,-91 928,-50 731,-50"/>
<text text-anchor="start" x="739" y="-79" font-family="FreeSans" font-size="10.00">DGtal::concepts::CBidirectional</text>
<text text-anchor="start" x="739" y="-68" font-family="FreeSans" font-size="10.00">RangeWithWritableIteratorFromPoint</text>
<text text-anchor="middle" x="829.5" y="-57" font-family="FreeSans" font-size="10.00">&lt; T, Value &gt;</text>
</a>
</g>
</g>
<!-- Node14&#45;&gt;Node15 -->
<g id="edge17" class="edge">
<title>Node14&#45;&gt;Node15</title>
<path fill="none" stroke="midnightblue" d="M690.31,-70.5C703.58,-70.5 717.26,-70.5 730.62,-70.5"/>
<polygon fill="midnightblue" stroke="midnightblue" points="690.25,-67 680.25,-70.5 690.25,-74 690.25,-67"/>
</g>
</g>
</svg>
