<?xml version="1.0" encoding="UTF-8" standalone="no"?>
<!DOCTYPE svg PUBLIC "-//W3C//DTD SVG 1.1//EN"
 "http://www.w3.org/Graphics/SVG/1.1/DTD/svg11.dtd">
<!-- Generated by graphviz version 2.43.0 (0)
 -->
<!-- Title: DGtal::concepts::CDomainAdjacency&lt; T &gt; Pages: 1 -->
<svg width="1035pt" height="65pt"
 viewBox="0.00 0.00 1035.00 65.00" xmlns="http://www.w3.org/2000/svg" xmlns:xlink="http://www.w3.org/1999/xlink">
<g id="graph0" class="graph" transform="scale(1 1) rotate(0) translate(4 61)">
<title>DGtal::concepts::CDomainAdjacency&lt; T &gt;</title>
<polygon fill="white" stroke="transparent" points="-4,4 -4,-61 1031,-61 1031,4 -4,4"/>
<!-- Node1 -->
<g id="node1" class="node">
<title>Node1</title>
<g id="a_node1"><a xlink:title="Aim: Refines the concept CAdjacency by telling that the adjacency is specific to a given domain of th...">
<polygon fill="#bfbfbf" stroke="black" points="882,-26.5 882,-56.5 1027,-56.5 1027,-26.5 882,-26.5"/>
<text text-anchor="start" x="890" y="-44.5" font-family="FreeSans" font-size="10.00">DGtal::concepts::CDomain</text>
<text text-anchor="middle" x="954.5" y="-33.5" font-family="FreeSans" font-size="10.00">Adjacency&lt; T &gt;</text>
</a>
</g>
</g>
<!-- Node2 -->
<g id="node2" class="node">
<title>Node2</title>
<g id="a_node2"><a xlink:href="structDGtal_1_1concepts_1_1CAdjacency.html" target="_top" xlink:title=" ">
<polygon fill="white" stroke="black" points="660,-32 660,-51 845,-51 845,-32 660,-32"/>
<text text-anchor="middle" x="752.5" y="-39" font-family="FreeSans" font-size="10.00">DGtal::concepts::CAdjacency&lt; T &gt;</text>
</a>
</g>
</g>
<!-- Node2&#45;&gt;Node1 -->
<g id="edge1" class="edge">
<title>Node2&#45;&gt;Node1</title>
<path fill="none" stroke="midnightblue" d="M855.16,-41.5C864.16,-41.5 873.13,-41.5 881.8,-41.5"/>
<polygon fill="midnightblue" stroke="midnightblue" points="855.01,-38 845.01,-41.5 855.01,-45 855.01,-38"/>
</g>
<!-- Node3 -->
<g id="node3" class="node">
<title>Node3</title>
<g id="a_node3"><a xlink:href="structDGtal_1_1concepts_1_1CUndirectedSimpleLocalGraph.html" target="_top" xlink:title="Aim: Represents the concept of local graph: each vertex has neighboring vertices, but we do not neces...">
<polygon fill="white" stroke="black" points="0,-22.5 0,-52.5 160,-52.5 160,-22.5 0,-22.5"/>
<text text-anchor="start" x="8" y="-40.5" font-family="FreeSans" font-size="10.00">DGtal::concepts::CUndirected</text>
<text text-anchor="middle" x="80" y="-29.5" font-family="FreeSans" font-size="10.00">SimpleLocalGraph&lt; T &gt;</text>
</a>
</g>
</g>
<!-- Node3&#45;&gt;Node2 -->
<g id="edge2" class="edge">
<title>Node3&#45;&gt;Node2</title>
<path fill="none" stroke="midnightblue" d="M170.27,-43.22C172.87,-43.33 175.45,-43.42 178,-43.5 369.9,-49.65 418,-44.28 610,-44.5 624.22,-44.52 627.78,-44.69 642,-44.5 647.8,-44.42 653.77,-44.32 659.79,-44.2"/>
<polygon fill="midnightblue" stroke="midnightblue" points="170.27,-39.72 160.12,-42.78 169.96,-46.71 170.27,-39.72"/>
</g>
<!-- Node5 -->
<g id="node5" class="node">
<title>Node5</title>
<g id="a_node5"><a xlink:href="structDGtal_1_1concepts_1_1CUndirectedSimpleLocalGraph.html" target="_top" xlink:title=" ">
<polygon fill="white" stroke="black" points="238,-0.5 238,-30.5 398,-30.5 398,-0.5 238,-0.5"/>
<text text-anchor="start" x="246" y="-18.5" font-family="FreeSans" font-size="10.00">DGtal::concepts::CUndirected</text>
<text text-anchor="middle" x="318" y="-7.5" font-family="FreeSans" font-size="10.00">SimpleLocalGraph&lt; Adj &gt;</text>
</a>
</g>
</g>
<!-- Node3&#45;&gt;Node5 -->
<g id="edge5" class="edge">
<title>Node3&#45;&gt;Node5</title>
<path fill="none" stroke="orange" stroke-dasharray="5,2" d="M170.34,-29.17C192.58,-27.1 216.27,-24.89 237.97,-22.87"/>
<polygon fill="orange" stroke="orange" points="169.87,-25.7 160.24,-30.11 170.52,-32.67 169.87,-25.7"/>
<text text-anchor="middle" x="199" y="-31.5" font-family="FreeSans" font-size="10.00"> &lt; Adj &gt;</text>
</g>
<!-- Node4 -->
<g id="node4" class="node">
<title>Node4</title>
<g id="a_node4"><a xlink:href="structDGtal_1_1concepts_1_1CAdjacency.html" target="_top" xlink:title="Aim: The concept CAdjacency defines an elementary adjacency relation between points of a digital spac...">
<polygon fill="white" stroke="black" points="435,-0.5 435,-30.5 592,-30.5 592,-0.5 435,-0.5"/>
<text text-anchor="start" x="443" y="-18.5" font-family="FreeSans" font-size="10.00">DGtal::concepts::CAdjacency</text>
<text text-anchor="middle" x="513.5" y="-7.5" font-family="FreeSans" font-size="10.00">&lt; Adj &gt;</text>
</a>
</g>
</g>
<!-- Node4&#45;&gt;Node2 -->
<g id="edge3" class="edge">
<title>Node4&#45;&gt;Node2</title>
<path fill="none" stroke="orange" stroke-dasharray="5,2" d="M602.31,-25.13C622.69,-27.37 644.37,-29.75 664.7,-31.98"/>
<polygon fill="orange" stroke="orange" points="602.42,-21.62 592.1,-24.01 601.66,-28.58 602.42,-21.62"/>
<text text-anchor="middle" x="626" y="-32.5" font-family="FreeSans" font-size="10.00"> &lt; T &gt;</text>
</g>
<!-- Node5&#45;&gt;Node4 -->
<g id="edge4" class="edge">
<title>Node5&#45;&gt;Node4</title>
<path fill="none" stroke="midnightblue" d="M408.26,-15.5C417.17,-15.5 426.15,-15.5 434.92,-15.5"/>
<polygon fill="midnightblue" stroke="midnightblue" points="408.26,-12 398.26,-15.5 408.26,-19 408.26,-12"/>
</g>
</g>
</svg>
