<?xml version="1.0" encoding="UTF-8" standalone="no"?>
<!DOCTYPE svg PUBLIC "-//W3C//DTD SVG 1.1//EN"
 "http://www.w3.org/Graphics/SVG/1.1/DTD/svg11.dtd">
<!-- Generated by graphviz version 2.43.0 (0)
 -->
<!-- Title: DGtal::CSinglePassIteratorArchetype&lt; T &gt; Pages: 1 -->
<svg width="153pt" height="106pt"
 viewBox="0.00 0.00 153.00 106.00" xmlns="http://www.w3.org/2000/svg" xmlns:xlink="http://www.w3.org/1999/xlink">
<g id="graph0" class="graph" transform="scale(1 1) rotate(0) translate(4 102)">
<title>DGtal::CSinglePassIteratorArchetype&lt; T &gt;</title>
<polygon fill="white" stroke="transparent" points="-4,4 -4,-102 149,-102 149,4 -4,4"/>
<!-- Node1 -->
<g id="node1" class="node">
<title>Node1</title>
<g id="a_node1"><a xlink:title="An archetype of SingePassIterator.">
<polygon fill="#bfbfbf" stroke="black" points="0,-0.5 0,-30.5 145,-30.5 145,-0.5 0,-0.5"/>
<text text-anchor="start" x="8" y="-18.5" font-family="FreeSans" font-size="10.00">DGtal::CSinglePassIterator</text>
<text text-anchor="middle" x="72.5" y="-7.5" font-family="FreeSans" font-size="10.00">Archetype&lt; T &gt;</text>
</a>
</g>
</g>
<!-- Node2 -->
<g id="node2" class="node">
<title>Node2</title>
<g id="a_node2"><a xlink:title=" ">
<polygon fill="white" stroke="#bfbfbf" points="14.5,-67.5 14.5,-97.5 130.5,-97.5 130.5,-67.5 14.5,-67.5"/>
<text text-anchor="start" x="22.5" y="-85.5" font-family="FreeSans" font-size="10.00">boost::input_iterator</text>
<text text-anchor="middle" x="72.5" y="-74.5" font-family="FreeSans" font-size="10.00">_archetype&lt; T &gt;</text>
</a>
</g>
</g>
<!-- Node2&#45;&gt;Node1 -->
<g id="edge1" class="edge">
<title>Node2&#45;&gt;Node1</title>
<path fill="none" stroke="midnightblue" d="M72.5,-57.11C72.5,-48.15 72.5,-38.32 72.5,-30.58"/>
<polygon fill="midnightblue" stroke="midnightblue" points="69,-57.4 72.5,-67.4 76,-57.4 69,-57.4"/>
</g>
</g>
</svg>
