<?xml version="1.0" encoding="UTF-8" standalone="no"?>
<!DOCTYPE svg PUBLIC "-//W3C//DTD SVG 1.1//EN"
 "http://www.w3.org/Graphics/SVG/1.1/DTD/svg11.dtd">
<!-- Generated by graphviz version 2.43.0 (0)
 -->
<!-- Title: DGtal::functors::TruePointPredicate&lt; TPoint &gt; Pages: 1 -->
<svg width="161pt" height="207pt"
 viewBox="0.00 0.00 160.50 207.00" xmlns="http://www.w3.org/2000/svg" xmlns:xlink="http://www.w3.org/1999/xlink">
<g id="graph0" class="graph" transform="scale(1 1) rotate(0) translate(4 203)">
<title>DGtal::functors::TruePointPredicate&lt; TPoint &gt;</title>
<polygon fill="white" stroke="transparent" points="-4,4 -4,-203 156.5,-203 156.5,4 -4,4"/>
<!-- Node1 -->
<g id="node1" class="node">
<title>Node1</title>
<g id="a_node1"><a xlink:title="Aim: The predicate that returns always true.">
<polygon fill="#bfbfbf" stroke="black" points="0,-0.5 0,-30.5 141,-30.5 141,-0.5 0,-0.5"/>
<text text-anchor="start" x="8" y="-18.5" font-family="FreeSans" font-size="10.00">DGtal::functors::TruePoint</text>
<text text-anchor="middle" x="70.5" y="-7.5" font-family="FreeSans" font-size="10.00">Predicate&lt; TPoint &gt;</text>
</a>
</g>
</g>
<!-- Node2 -->
<g id="node2" class="node">
<title>Node2</title>
<g id="a_node2"><a xlink:href="structDGtal_1_1functors_1_1ConstantPointPredicate.html" target="_top" xlink:title=" ">
<polygon fill="white" stroke="black" points="0.5,-68.5 0.5,-109.5 140.5,-109.5 140.5,-68.5 0.5,-68.5"/>
<text text-anchor="start" x="8.5" y="-97.5" font-family="FreeSans" font-size="10.00">DGtal::functors::Constant</text>
<text text-anchor="start" x="8.5" y="-86.5" font-family="FreeSans" font-size="10.00">PointPredicate&lt; TPoint,</text>
<text text-anchor="middle" x="70.5" y="-75.5" font-family="FreeSans" font-size="10.00"> true &gt;</text>
</a>
</g>
</g>
<!-- Node2&#45;&gt;Node1 -->
<g id="edge1" class="edge">
<title>Node2&#45;&gt;Node1</title>
<path fill="none" stroke="midnightblue" d="M70.5,-58.16C70.5,-48.69 70.5,-38.65 70.5,-30.8"/>
<polygon fill="midnightblue" stroke="midnightblue" points="67,-58.46 70.5,-68.46 74,-58.46 67,-58.46"/>
</g>
<!-- Node3 -->
<g id="node3" class="node">
<title>Node3</title>
<g id="a_node3"><a xlink:href="structDGtal_1_1functors_1_1ConstantPointPredicate.html" target="_top" xlink:title="Aim: The predicate that returns always the same value boolCst.">
<polygon fill="white" stroke="black" points="0.5,-157.5 0.5,-198.5 140.5,-198.5 140.5,-157.5 0.5,-157.5"/>
<text text-anchor="start" x="8.5" y="-186.5" font-family="FreeSans" font-size="10.00">DGtal::functors::Constant</text>
<text text-anchor="start" x="8.5" y="-175.5" font-family="FreeSans" font-size="10.00">PointPredicate&lt; TPoint,</text>
<text text-anchor="middle" x="70.5" y="-164.5" font-family="FreeSans" font-size="10.00"> boolCst &gt;</text>
</a>
</g>
</g>
<!-- Node3&#45;&gt;Node2 -->
<g id="edge2" class="edge">
<title>Node3&#45;&gt;Node2</title>
<path fill="none" stroke="orange" stroke-dasharray="5,2" d="M70.5,-146.94C70.5,-134.6 70.5,-120.66 70.5,-109.66"/>
<polygon fill="orange" stroke="orange" points="67,-147.26 70.5,-157.26 74,-147.26 67,-147.26"/>
<text text-anchor="middle" x="111.5" y="-131" font-family="FreeSans" font-size="10.00"> &lt; TPoint, true &gt;</text>
</g>
</g>
</svg>
