<?xml version="1.0" encoding="UTF-8" standalone="no"?>
<!DOCTYPE svg PUBLIC "-//W3C//DTD SVG 1.1//EN"
 "http://www.w3.org/Graphics/SVG/1.1/DTD/svg11.dtd">
<!-- Generated by graphviz version 2.43.0 (0)
 -->
<!-- Title: DGtal::functors::Projector&lt; S &gt; Pages: 1 -->
<svg width="541pt" height="88pt"
 viewBox="0.00 0.00 541.00 88.00" xmlns="http://www.w3.org/2000/svg" xmlns:xlink="http://www.w3.org/1999/xlink">
<g id="graph0" class="graph" transform="scale(1 1) rotate(0) translate(4 84)">
<title>DGtal::functors::Projector&lt; S &gt;</title>
<polygon fill="white" stroke="transparent" points="-4,4 -4,-84 537,-84 537,4 -4,4"/>
<!-- Node1 -->
<g id="node1" class="node">
<title>Node1</title>
<g id="a_node1"><a xlink:title="Aim: Functor that maps a point P of dimension i to a point Q of dimension j. The member myDims is an ...">
<polygon fill="#bfbfbf" stroke="black" points="0,-30 0,-49 168,-49 168,-30 0,-30"/>
<text text-anchor="middle" x="84" y="-37" font-family="FreeSans" font-size="10.00">DGtal::functors::Projector&lt; S &gt;</text>
</a>
</g>
</g>
<!-- Node2 -->
<g id="node2" class="node">
<title>Node2</title>
<g id="a_node2"><a xlink:href="structDGtal_1_1functors_1_1Projector.html" target="_top" xlink:title=" ">
<polygon fill="white" stroke="black" points="362,-49.5 362,-79.5 533,-79.5 533,-49.5 362,-49.5"/>
<text text-anchor="start" x="370" y="-67.5" font-family="FreeSans" font-size="10.00">DGtal::functors::Projector</text>
<text text-anchor="middle" x="447.5" y="-56.5" font-family="FreeSans" font-size="10.00">&lt; SpaceND&lt; 2, Coordinate &gt; &gt;</text>
</a>
</g>
</g>
<!-- Node1&#45;&gt;Node2 -->
<g id="edge1" class="edge">
<title>Node1&#45;&gt;Node2</title>
<path fill="none" stroke="orange" stroke-dasharray="5,2" d="M178.43,-45.96C235.14,-49.88 306.95,-54.85 361.96,-58.65"/>
<polygon fill="orange" stroke="orange" points="178.61,-42.47 168.39,-45.27 178.12,-49.45 178.61,-42.47"/>
<text text-anchor="middle" x="265" y="-59.5" font-family="FreeSans" font-size="10.00"> &lt; SpaceND&lt; 2, Coordinate &gt; &gt;</text>
</g>
<!-- Node3 -->
<g id="node3" class="node">
<title>Node3</title>
<g id="a_node3"><a xlink:href="structDGtal_1_1functors_1_1Projector.html" target="_top" xlink:title=" ">
<polygon fill="white" stroke="black" points="377.5,-0.5 377.5,-30.5 517.5,-30.5 517.5,-0.5 377.5,-0.5"/>
<text text-anchor="start" x="385.5" y="-18.5" font-family="FreeSans" font-size="10.00">DGtal::functors::Projector</text>
<text text-anchor="middle" x="447.5" y="-7.5" font-family="FreeSans" font-size="10.00">&lt; SpaceND&lt; 2, int &gt; &gt;</text>
</a>
</g>
</g>
<!-- Node1&#45;&gt;Node3 -->
<g id="edge2" class="edge">
<title>Node1&#45;&gt;Node3</title>
<path fill="none" stroke="orange" stroke-dasharray="5,2" d="M178.31,-32.05C180.9,-31.86 183.47,-31.68 186,-31.5 250.86,-26.94 324.86,-22.46 377.37,-19.41"/>
<polygon fill="orange" stroke="orange" points="177.93,-28.57 168.22,-32.79 178.45,-35.55 177.93,-28.57"/>
<text text-anchor="middle" x="265" y="-34.5" font-family="FreeSans" font-size="10.00"> &lt; SpaceND&lt; 2, int &gt; &gt;</text>
</g>
</g>
</svg>
