<?xml version="1.0" encoding="UTF-8" standalone="no"?>
<!DOCTYPE svg PUBLIC "-//W3C//DTD SVG 1.1//EN"
 "http://www.w3.org/Graphics/SVG/1.1/DTD/svg11.dtd">
<!-- Generated by graphviz version 2.43.0 (0)
 -->
<!-- Title: DGtal::concepts::CPredicate&lt; T, TElement &gt; Pages: 1 -->
<svg width="1746pt" height="137pt"
 viewBox="0.00 0.00 1746.00 137.00" xmlns="http://www.w3.org/2000/svg" xmlns:xlink="http://www.w3.org/1999/xlink">
<g id="graph0" class="graph" transform="scale(1 1) rotate(0) translate(4 133)">
<title>DGtal::concepts::CPredicate&lt; T, TElement &gt;</title>
<polygon fill="white" stroke="transparent" points="-4,4 -4,-133 1742,-133 1742,4 -4,4"/>
<!-- Node1 -->
<g id="node1" class="node">
<title>Node1</title>
<g id="a_node1"><a xlink:title="Aim: Defines a predicate function, ie. a functor mapping a domain into the set of booleans.">
<polygon fill="#bfbfbf" stroke="black" points="898,-49.5 898,-79.5 1050,-79.5 1050,-49.5 898,-49.5"/>
<text text-anchor="start" x="906" y="-67.5" font-family="FreeSans" font-size="10.00">DGtal::concepts::CPredicate</text>
<text text-anchor="middle" x="974" y="-56.5" font-family="FreeSans" font-size="10.00">&lt; T, TElement &gt;</text>
</a>
</g>
</g>
<!-- Node6 -->
<g id="node6" class="node">
<title>Node6</title>
<g id="a_node6"><a xlink:href="structDGtal_1_1concepts_1_1CPredicate.html" target="_top" xlink:title=" ">
<polygon fill="white" stroke="black" points="1167,-98.5 1167,-128.5 1319,-128.5 1319,-98.5 1167,-98.5"/>
<text text-anchor="start" x="1175" y="-116.5" font-family="FreeSans" font-size="10.00">DGtal::concepts::CPredicate</text>
<text text-anchor="middle" x="1243" y="-105.5" font-family="FreeSans" font-size="10.00">&lt; T, T::Surfel &gt;</text>
</a>
</g>
</g>
<!-- Node1&#45;&gt;Node6 -->
<g id="edge6" class="edge">
<title>Node1&#45;&gt;Node6</title>
<path fill="none" stroke="orange" stroke-dasharray="5,2" d="M1060.06,-80.11C1094.27,-86.39 1133.38,-93.57 1166.55,-99.65"/>
<polygon fill="orange" stroke="orange" points="1060.55,-76.64 1050.08,-78.28 1059.29,-83.53 1060.55,-76.64"/>
<text text-anchor="middle" x="1108.5" y="-98.5" font-family="FreeSans" font-size="10.00"> &lt; T, T::Surfel &gt;</text>
</g>
<!-- Node8 -->
<g id="node8" class="node">
<title>Node8</title>
<g id="a_node8"><a xlink:href="structDGtal_1_1concepts_1_1CPredicate.html" target="_top" xlink:title=" ">
<polygon fill="white" stroke="black" points="1167,-49.5 1167,-79.5 1319,-79.5 1319,-49.5 1167,-49.5"/>
<text text-anchor="start" x="1175" y="-67.5" font-family="FreeSans" font-size="10.00">DGtal::concepts::CPredicate</text>
<text text-anchor="middle" x="1243" y="-56.5" font-family="FreeSans" font-size="10.00">&lt; T, T::Point &gt;</text>
</a>
</g>
</g>
<!-- Node1&#45;&gt;Node8 -->
<g id="edge8" class="edge">
<title>Node1&#45;&gt;Node8</title>
<path fill="none" stroke="orange" stroke-dasharray="5,2" d="M1060.5,-64.5C1094.6,-64.5 1133.52,-64.5 1166.55,-64.5"/>
<polygon fill="orange" stroke="orange" points="1060.08,-61 1050.08,-64.5 1060.08,-68 1060.08,-61"/>
<text text-anchor="middle" x="1108.5" y="-67.5" font-family="FreeSans" font-size="10.00"> &lt; T, T::Point &gt;</text>
</g>
<!-- Node11 -->
<g id="node11" class="node">
<title>Node11</title>
<g id="a_node11"><a xlink:href="structDGtal_1_1concepts_1_1CPredicate.html" target="_top" xlink:title=" ">
<polygon fill="white" stroke="black" points="1167,-0.5 1167,-30.5 1319,-30.5 1319,-0.5 1167,-0.5"/>
<text text-anchor="start" x="1175" y="-18.5" font-family="FreeSans" font-size="10.00">DGtal::concepts::CPredicate</text>
<text text-anchor="middle" x="1243" y="-7.5" font-family="FreeSans" font-size="10.00">&lt; T, T::Vertex &gt;</text>
</a>
</g>
</g>
<!-- Node1&#45;&gt;Node11 -->
<g id="edge11" class="edge">
<title>Node1&#45;&gt;Node11</title>
<path fill="none" stroke="orange" stroke-dasharray="5,2" d="M1060.06,-48.89C1094.27,-42.61 1133.38,-35.43 1166.55,-29.35"/>
<polygon fill="orange" stroke="orange" points="1059.29,-45.47 1050.08,-50.72 1060.55,-52.36 1059.29,-45.47"/>
<text text-anchor="middle" x="1108.5" y="-50.5" font-family="FreeSans" font-size="10.00"> &lt; T, T::Vertex &gt;</text>
</g>
<!-- Node2 -->
<g id="node2" class="node">
<title>Node2</title>
<g id="a_node2"><a xlink:href="structDGtal_1_1concepts_1_1CUnaryFunctor.html" target="_top" xlink:title=" ">
<polygon fill="white" stroke="black" points="689,-49.5 689,-79.5 861,-79.5 861,-49.5 689,-49.5"/>
<text text-anchor="start" x="697" y="-67.5" font-family="FreeSans" font-size="10.00">DGtal::concepts::CUnaryFunctor</text>
<text text-anchor="middle" x="775" y="-56.5" font-family="FreeSans" font-size="10.00">&lt; T, TElement, bool &gt;</text>
</a>
</g>
</g>
<!-- Node2&#45;&gt;Node1 -->
<g id="edge1" class="edge">
<title>Node2&#45;&gt;Node1</title>
<path fill="none" stroke="midnightblue" d="M871.29,-64.5C880.2,-64.5 889.14,-64.5 897.82,-64.5"/>
<polygon fill="midnightblue" stroke="midnightblue" points="871.26,-61 861.26,-64.5 871.26,-68 871.26,-61"/>
</g>
<!-- Node3 -->
<g id="node3" class="node">
<title>Node3</title>
<g id="a_node3"><a xlink:href="structboost_1_1Assignable.html" target="_top" xlink:title="Go to http://www.sgi.com/tech/stl/Assignable.html.">
<polygon fill="white" stroke="black" points="0,-54 0,-73 131,-73 131,-54 0,-54"/>
<text text-anchor="middle" x="65.5" y="-61" font-family="FreeSans" font-size="10.00">boost::Assignable&lt; T &gt;</text>
</a>
</g>
</g>
<!-- Node3&#45;&gt;Node2 -->
<g id="edge2" class="edge">
<title>Node3&#45;&gt;Node2</title>
<path fill="none" stroke="midnightblue" d="M141.36,-68.24C143.94,-68.34 146.49,-68.42 149,-68.5 380.89,-75.52 439.04,-73 671,-68.5 676.81,-68.39 682.81,-68.24 688.86,-68.06"/>
<polygon fill="midnightblue" stroke="midnightblue" points="141.48,-64.74 131.33,-67.8 141.17,-71.73 141.48,-64.74"/>
</g>
<!-- Node5 -->
<g id="node5" class="node">
<title>Node5</title>
<g id="a_node5"><a xlink:href="structboost_1_1Assignable.html" target="_top" xlink:title=" ">
<polygon fill="white" stroke="black" points="200,-34 200,-53 332,-53 332,-34 200,-34"/>
<text text-anchor="middle" x="266" y="-41" font-family="FreeSans" font-size="10.00">boost::Assignable&lt; X &gt;</text>
</a>
</g>
</g>
<!-- Node3&#45;&gt;Node5 -->
<g id="edge5" class="edge">
<title>Node3&#45;&gt;Node5</title>
<path fill="none" stroke="orange" stroke-dasharray="5,2" d="M141.41,-55.95C160.58,-54.02 181.04,-51.96 199.69,-50.08"/>
<polygon fill="orange" stroke="orange" points="140.82,-52.49 131.22,-56.98 141.52,-59.46 140.82,-52.49"/>
<text text-anchor="middle" x="165.5" y="-58.5" font-family="FreeSans" font-size="10.00"> &lt; X &gt;</text>
</g>
<!-- Node4 -->
<g id="node4" class="node">
<title>Node4</title>
<g id="a_node4"><a xlink:href="structDGtal_1_1concepts_1_1CUnaryFunctor.html" target="_top" xlink:title="Aim: Defines a unary functor, which associates arguments to results.">
<polygon fill="white" stroke="black" points="369,-23.5 369,-53.5 541,-53.5 541,-23.5 369,-23.5"/>
<text text-anchor="start" x="377" y="-41.5" font-family="FreeSans" font-size="10.00">DGtal::concepts::CUnaryFunctor</text>
<text text-anchor="middle" x="455" y="-30.5" font-family="FreeSans" font-size="10.00">&lt; X, A, R &gt;</text>
</a>
</g>
</g>
<!-- Node4&#45;&gt;Node2 -->
<g id="edge3" class="edge">
<title>Node4&#45;&gt;Node2</title>
<path fill="none" stroke="orange" stroke-dasharray="5,2" d="M551.29,-46.29C595,-49.86 646.41,-54.07 688.82,-57.54"/>
<polygon fill="orange" stroke="orange" points="551.47,-42.79 541.22,-45.47 550.9,-49.77 551.47,-42.79"/>
<text text-anchor="middle" x="615" y="-58.5" font-family="FreeSans" font-size="10.00"> &lt; T, TElement, bool &gt;</text>
</g>
<!-- Node5&#45;&gt;Node4 -->
<g id="edge4" class="edge">
<title>Node5&#45;&gt;Node4</title>
<path fill="none" stroke="midnightblue" d="M342.24,-41.49C350.95,-41.26 359.87,-41.02 368.7,-40.78"/>
<polygon fill="midnightblue" stroke="midnightblue" points="342.04,-37.99 332.14,-41.76 342.23,-44.99 342.04,-37.99"/>
</g>
<!-- Node7 -->
<g id="node7" class="node">
<title>Node7</title>
<g id="a_node7"><a xlink:href="structDGtal_1_1concepts_1_1CSurfelPredicate.html" target="_top" xlink:title="Aim: Defines a predicate on a surfel.">
<polygon fill="white" stroke="black" points="1391.5,-98.5 1391.5,-128.5 1526.5,-128.5 1526.5,-98.5 1391.5,-98.5"/>
<text text-anchor="start" x="1399.5" y="-116.5" font-family="FreeSans" font-size="10.00">DGtal::concepts::CSurfel</text>
<text text-anchor="middle" x="1459" y="-105.5" font-family="FreeSans" font-size="10.00">Predicate&lt; T &gt;</text>
</a>
</g>
</g>
<!-- Node6&#45;&gt;Node7 -->
<g id="edge7" class="edge">
<title>Node6&#45;&gt;Node7</title>
<path fill="none" stroke="midnightblue" d="M1329.17,-113.5C1349.81,-113.5 1371.58,-113.5 1391.24,-113.5"/>
<polygon fill="midnightblue" stroke="midnightblue" points="1329.15,-110 1319.15,-113.5 1329.15,-117 1329.15,-110"/>
</g>
<!-- Node9 -->
<g id="node9" class="node">
<title>Node9</title>
<g id="a_node9"><a xlink:href="structDGtal_1_1concepts_1_1CPointPredicate.html" target="_top" xlink:title="Aim: Defines a predicate on a point.">
<polygon fill="white" stroke="black" points="1356,-55 1356,-74 1562,-74 1562,-55 1356,-55"/>
<text text-anchor="middle" x="1459" y="-62" font-family="FreeSans" font-size="10.00">DGtal::concepts::CPointPredicate&lt; T &gt;</text>
</a>
</g>
</g>
<!-- Node8&#45;&gt;Node9 -->
<g id="edge9" class="edge">
<title>Node8&#45;&gt;Node9</title>
<path fill="none" stroke="midnightblue" d="M1329.33,-64.5C1338.1,-64.5 1347.07,-64.5 1355.99,-64.5"/>
<polygon fill="midnightblue" stroke="midnightblue" points="1329.15,-61 1319.15,-64.5 1329.15,-68 1329.15,-61"/>
</g>
<!-- Node10 -->
<g id="node10" class="node">
<title>Node10</title>
<g id="a_node10"><a xlink:href="structDGtal_1_1concepts_1_1CDigitalSet.html" target="_top" xlink:title="Aim: Represents a set of points within the given domain. This set of points is modifiable by the user...">
<polygon fill="white" stroke="black" points="1599,-49.5 1599,-79.5 1738,-79.5 1738,-49.5 1599,-49.5"/>
<text text-anchor="start" x="1607" y="-67.5" font-family="FreeSans" font-size="10.00">DGtal::concepts::CDigital</text>
<text text-anchor="middle" x="1668.5" y="-56.5" font-family="FreeSans" font-size="10.00">Set&lt; T &gt;</text>
</a>
</g>
</g>
<!-- Node9&#45;&gt;Node10 -->
<g id="edge10" class="edge">
<title>Node9&#45;&gt;Node10</title>
<path fill="none" stroke="midnightblue" d="M1572.38,-64.5C1581.34,-64.5 1590.22,-64.5 1598.75,-64.5"/>
<polygon fill="midnightblue" stroke="midnightblue" points="1572.23,-61 1562.23,-64.5 1572.23,-68 1572.23,-61"/>
</g>
<!-- Node12 -->
<g id="node12" class="node">
<title>Node12</title>
<g id="a_node12"><a xlink:href="structDGtal_1_1concepts_1_1CVertexPredicate.html" target="_top" xlink:title="Aim: Defines a predicate on a vertex.">
<polygon fill="white" stroke="black" points="1390,-0.5 1390,-30.5 1528,-30.5 1528,-0.5 1390,-0.5"/>
<text text-anchor="start" x="1398" y="-18.5" font-family="FreeSans" font-size="10.00">DGtal::concepts::CVertex</text>
<text text-anchor="middle" x="1459" y="-7.5" font-family="FreeSans" font-size="10.00">Predicate&lt; T &gt;</text>
</a>
</g>
</g>
<!-- Node11&#45;&gt;Node12 -->
<g id="edge12" class="edge">
<title>Node11&#45;&gt;Node12</title>
<path fill="none" stroke="midnightblue" d="M1329.24,-15.5C1349.37,-15.5 1370.57,-15.5 1389.83,-15.5"/>
<polygon fill="midnightblue" stroke="midnightblue" points="1329.15,-12 1319.15,-15.5 1329.15,-19 1329.15,-12"/>
</g>
</g>
</svg>
