<?xml version="1.0" encoding="UTF-8" standalone="no"?>
<!DOCTYPE svg PUBLIC "-//W3C//DTD SVG 1.1//EN"
 "http://www.w3.org/Graphics/SVG/1.1/DTD/svg11.dtd">
<!-- Generated by graphviz version 2.43.0 (0)
 -->
<!-- Title: DGtal::Board3DTo2DFactory&lt; TSpace, TKSpace &gt; Pages: 1 -->
<svg width="279pt" height="107pt"
 viewBox="0.00 0.00 279.00 107.00" xmlns="http://www.w3.org/2000/svg" xmlns:xlink="http://www.w3.org/1999/xlink">
<g id="graph0" class="graph" transform="scale(1 1) rotate(0) translate(4 103)">
<title>DGtal::Board3DTo2DFactory&lt; TSpace, TKSpace &gt;</title>
<polygon fill="white" stroke="transparent" points="-4,4 -4,-103 275,-103 275,4 -4,4"/>
<!-- Node1 -->
<g id="node1" class="node">
<title>Node1</title>
<g id="a_node1"><a xlink:title="Factory for GPL Display3D:">
<polygon fill="#bfbfbf" stroke="black" points="0,-0.5 0,-30.5 152,-30.5 152,-0.5 0,-0.5"/>
<text text-anchor="start" x="8" y="-18.5" font-family="FreeSans" font-size="10.00">DGtal::Board3DTo2DFactory</text>
<text text-anchor="middle" x="76" y="-7.5" font-family="FreeSans" font-size="10.00">&lt; TSpace, TKSpace &gt;</text>
</a>
</g>
</g>
<!-- Node2 -->
<g id="node2" class="node">
<title>Node2</title>
<g id="a_node2"><a xlink:href="structDGtal_1_1Display3DFactory.html" target="_top" xlink:title=" ">
<polygon fill="white" stroke="black" points="8,-68.5 8,-98.5 144,-98.5 144,-68.5 8,-68.5"/>
<text text-anchor="start" x="16" y="-86.5" font-family="FreeSans" font-size="10.00">DGtal::Display3DFactory</text>
<text text-anchor="middle" x="76" y="-75.5" font-family="FreeSans" font-size="10.00">&lt; TSpace, TKSpace &gt;</text>
</a>
</g>
</g>
<!-- Node2&#45;&gt;Node1 -->
<g id="edge1" class="edge">
<title>Node2&#45;&gt;Node1</title>
<path fill="none" stroke="midnightblue" d="M76,-58.03C76,-48.86 76,-38.74 76,-30.79"/>
<polygon fill="midnightblue" stroke="midnightblue" points="72.5,-58.18 76,-68.18 79.5,-58.18 72.5,-58.18"/>
</g>
<!-- Node2&#45;&gt;Node2 -->
<g id="edge2" class="edge">
<title>Node2&#45;&gt;Node2</title>
<path fill="none" stroke="orange" stroke-dasharray="5,2" d="M154.1,-87.98C159.03,-86.93 162,-85.44 162,-83.5 162,-80.48 154.76,-78.53 144.13,-77.66"/>
<polygon fill="orange" stroke="orange" points="153.57,-84.52 144.13,-89.34 154.51,-91.46 153.57,-84.52"/>
<text text-anchor="middle" x="216.5" y="-81" font-family="FreeSans" font-size="10.00"> &lt; TSpace, TKSpace &gt;</text>
</g>
</g>
</svg>
