<?xml version="1.0" encoding="UTF-8" standalone="no"?>
<!DOCTYPE svg PUBLIC "-//W3C//DTD SVG 1.1//EN"
 "http://www.w3.org/Graphics/SVG/1.1/DTD/svg11.dtd">
<!-- Generated by graphviz version 2.43.0 (0)
 -->
<!-- Title: boost::DefaultConstructible&lt; T &gt; Pages: 1 -->
<svg width="1670pt" height="633pt"
 viewBox="0.00 0.00 1670.00 632.50" xmlns="http://www.w3.org/2000/svg" xmlns:xlink="http://www.w3.org/1999/xlink">
<g id="graph0" class="graph" transform="scale(1 1) rotate(0) translate(4 628.5)">
<title>boost::DefaultConstructible&lt; T &gt;</title>
<polygon fill="white" stroke="transparent" points="-4,4 -4,-628.5 1666,-628.5 1666,4 -4,4"/>
<!-- Node1 -->
<g id="node1" class="node">
<title>Node1</title>
<g id="a_node1"><a xlink:title="Go to http://www.sgi.com/tech/stl/DefaultConstructible.html.">
<polygon fill="#bfbfbf" stroke="black" points="0,-318 0,-337 179,-337 179,-318 0,-318"/>
<text text-anchor="middle" x="89.5" y="-325" font-family="FreeSans" font-size="10.00">boost::DefaultConstructible&lt; T &gt;</text>
</a>
</g>
</g>
<!-- Node2 -->
<g id="node2" class="node">
<title>Node2</title>
<g id="a_node2"><a xlink:href="structDGtal_1_1C2x2DetComputer.html" target="_top" xlink:title="Aim: This concept gathers all models that are able to compute the (sign of the) determinant of a 2x2 ...">
<polygon fill="white" stroke="black" points="265.5,-605 265.5,-624 434.5,-624 434.5,-605 265.5,-605"/>
<text text-anchor="middle" x="350" y="-612" font-family="FreeSans" font-size="10.00">DGtal::C2x2DetComputer&lt; T &gt;</text>
</a>
</g>
</g>
<!-- Node1&#45;&gt;Node2 -->
<g id="edge1" class="edge">
<title>Node1&#45;&gt;Node2</title>
<path fill="none" stroke="midnightblue" d="M97.32,-346.85C111.86,-386.58 148.57,-479.24 197,-546.5 215.18,-571.75 219.4,-581.14 247,-595.5 254.51,-599.41 262.7,-602.52 271.07,-605"/>
<polygon fill="midnightblue" stroke="midnightblue" points="100.57,-345.54 93.89,-337.32 93.99,-347.92 100.57,-345.54"/>
</g>
<!-- Node3 -->
<g id="node3" class="node">
<title>Node3</title>
<g id="a_node3"><a xlink:href="structDGtal_1_1concepts_1_1CLMSTDSSFilter.html" target="_top" xlink:title="Aim: Defines the concept describing a functor which filters DSSes for L&#45;MST calculations.">
<polygon fill="white" stroke="black" points="247,-567 247,-586 453,-586 453,-567 247,-567"/>
<text text-anchor="middle" x="350" y="-574" font-family="FreeSans" font-size="10.00">DGtal::concepts::CLMSTDSSFilter&lt; T &gt;</text>
</a>
</g>
</g>
<!-- Node1&#45;&gt;Node3 -->
<g id="edge2" class="edge">
<title>Node1&#45;&gt;Node3</title>
<path fill="none" stroke="midnightblue" d="M97.03,-346.79C113.69,-392.64 162.52,-507.99 247,-557.5 253.6,-561.37 260.83,-564.48 268.28,-566.97"/>
<polygon fill="midnightblue" stroke="midnightblue" points="100.27,-345.44 93.64,-337.17 93.67,-347.77 100.27,-345.44"/>
</g>
<!-- Node4 -->
<g id="node4" class="node">
<title>Node4</title>
<g id="a_node4"><a xlink:href="structDGtal_1_1concepts_1_1CLMSTTangentFromDSS.html" target="_top" xlink:title="Aim: Defines the concept describing a functor which calculates a direction of the 2D DSS and an eccen...">
<polygon fill="white" stroke="black" points="264.5,-517.5 264.5,-547.5 435.5,-547.5 435.5,-517.5 264.5,-517.5"/>
<text text-anchor="start" x="272.5" y="-535.5" font-family="FreeSans" font-size="10.00">DGtal::concepts::CLMSTTangent</text>
<text text-anchor="middle" x="350" y="-524.5" font-family="FreeSans" font-size="10.00">FromDSS&lt; T &gt;</text>
</a>
</g>
</g>
<!-- Node1&#45;&gt;Node4 -->
<g id="edge3" class="edge">
<title>Node1&#45;&gt;Node4</title>
<path fill="none" stroke="midnightblue" d="M100.29,-346.02C121.39,-383.81 175.09,-469.46 247,-507.5 254.33,-511.38 262.28,-514.67 270.39,-517.46"/>
<polygon fill="midnightblue" stroke="midnightblue" points="103.29,-344.2 95.43,-337.1 97.15,-347.55 103.29,-344.2"/>
</g>
<!-- Node5 -->
<g id="node5" class="node">
<title>Node5</title>
<g id="a_node5"><a xlink:href="structDGtal_1_1concepts_1_1CLabel.html" target="_top" xlink:title="Aim: Define the concept of DGtal labels. Models of CLabel can be default&#45;constructible,...">
<polygon fill="white" stroke="black" points="269.5,-479 269.5,-498 430.5,-498 430.5,-479 269.5,-479"/>
<text text-anchor="middle" x="350" y="-486" font-family="FreeSans" font-size="10.00">DGtal::concepts::CLabel&lt; T &gt;</text>
</a>
</g>
</g>
<!-- Node1&#45;&gt;Node5 -->
<g id="edge4" class="edge">
<title>Node1&#45;&gt;Node5</title>
<path fill="none" stroke="midnightblue" d="M104.16,-345.1C129,-375.76 184.78,-438.63 247,-469.5 254.83,-473.38 263.35,-476.48 272.02,-478.94"/>
<polygon fill="midnightblue" stroke="midnightblue" points="106.7,-342.67 97.73,-337.03 101.22,-347.03 106.7,-342.67"/>
</g>
<!-- Node14 -->
<g id="node14" class="node">
<title>Node14</title>
<g id="a_node14"><a xlink:href="structDGtal_1_1concepts_1_1CPolarPointComparator2D.html" target="_top" xlink:title="Aim: This concept gathers classes that are able to compare the position of two given points &#160;around a...">
<polygon fill="white" stroke="black" points="272,-429.5 272,-459.5 428,-459.5 428,-429.5 272,-429.5"/>
<text text-anchor="start" x="280" y="-447.5" font-family="FreeSans" font-size="10.00">DGtal::concepts::CPolarPoint</text>
<text text-anchor="middle" x="350" y="-436.5" font-family="FreeSans" font-size="10.00">Comparator2D&lt; T &gt;</text>
</a>
</g>
</g>
<!-- Node1&#45;&gt;Node14 -->
<g id="edge14" class="edge">
<title>Node1&#45;&gt;Node14</title>
<path fill="none" stroke="midnightblue" d="M111.78,-343.04C140.91,-363.61 195.47,-399.7 247,-420.5 255.35,-423.87 264.29,-426.83 273.27,-429.42"/>
<polygon fill="midnightblue" stroke="midnightblue" points="113.76,-340.15 103.59,-337.18 109.69,-345.84 113.76,-340.15"/>
</g>
<!-- Node15 -->
<g id="node15" class="node">
<title>Node15</title>
<g id="a_node15"><a xlink:href="structDGtal_1_1concepts_1_1CPositiveIrreducibleFraction.html" target="_top" xlink:title="Aim: Defines positive irreducible fractions, i.e. fraction p/q, p and q non&#45;negative integers,...">
<polygon fill="white" stroke="black" points="277,-380.5 277,-410.5 423,-410.5 423,-380.5 277,-380.5"/>
<text text-anchor="start" x="285" y="-398.5" font-family="FreeSans" font-size="10.00">DGtal::concepts::CPositive</text>
<text text-anchor="middle" x="350" y="-387.5" font-family="FreeSans" font-size="10.00">IrreducibleFraction&lt; T &gt;</text>
</a>
</g>
</g>
<!-- Node1&#45;&gt;Node15 -->
<g id="edge15" class="edge">
<title>Node1&#45;&gt;Node15</title>
<path fill="none" stroke="midnightblue" d="M132.5,-339.84C163.93,-348.94 208.04,-361.44 247,-371.5 258.71,-374.52 271.22,-377.6 283.33,-380.49"/>
<polygon fill="midnightblue" stroke="midnightblue" points="133.34,-336.44 122.76,-337.01 131.39,-343.16 133.34,-336.44"/>
</g>
<!-- Node16 -->
<g id="node16" class="node">
<title>Node16</title>
<g id="a_node16"><a xlink:href="structDGtal_1_1concepts_1_1CPreCellularGridSpaceND.html" target="_top" xlink:title="Aim: This concept describes an unbounded cellular grid space in nD. In these spaces obtained by carte...">
<polygon fill="white" stroke="black" points="270,-331.5 270,-361.5 430,-361.5 430,-331.5 270,-331.5"/>
<text text-anchor="start" x="278" y="-349.5" font-family="FreeSans" font-size="10.00">DGtal::concepts::CPreCellular</text>
<text text-anchor="middle" x="350" y="-338.5" font-family="FreeSans" font-size="10.00">GridSpaceND&lt; T &gt;</text>
</a>
</g>
</g>
<!-- Node1&#45;&gt;Node16 -->
<g id="edge16" class="edge">
<title>Node1&#45;&gt;Node16</title>
<path fill="none" stroke="midnightblue" d="M189.19,-334.75C215.79,-336.71 244.22,-338.8 269.61,-340.66"/>
<polygon fill="midnightblue" stroke="midnightblue" points="189.33,-331.25 179.1,-334.01 188.82,-338.24 189.33,-331.25"/>
</g>
<!-- Node18 -->
<g id="node18" class="node">
<title>Node18</title>
<g id="a_node18"><a xlink:href="structDGtal_1_1concepts_1_1CPrimitiveComputer.html" target="_top" xlink:title="Aim: Defines the concept describing an object that computes some primitive from input points,...">
<polygon fill="white" stroke="black" points="274.5,-282.5 274.5,-312.5 425.5,-312.5 425.5,-282.5 274.5,-282.5"/>
<text text-anchor="start" x="282.5" y="-300.5" font-family="FreeSans" font-size="10.00">DGtal::concepts::CPrimitive</text>
<text text-anchor="middle" x="350" y="-289.5" font-family="FreeSans" font-size="10.00">Computer&lt; T &gt;</text>
</a>
</g>
</g>
<!-- Node1&#45;&gt;Node18 -->
<g id="edge18" class="edge">
<title>Node1&#45;&gt;Node18</title>
<path fill="none" stroke="midnightblue" d="M182.69,-316.8C212.66,-313.32 245.53,-309.51 274.08,-306.19"/>
<polygon fill="midnightblue" stroke="midnightblue" points="182.18,-313.34 172.65,-317.97 182.98,-320.29 182.18,-313.34"/>
</g>
<!-- Node21 -->
<g id="node21" class="node">
<title>Node21</title>
<g id="a_node21"><a xlink:href="structDGtal_1_1concepts_1_1CSTLAssociativeContainer.html" target="_top" xlink:title="Aim: Defines the concept describing an Associative Container of the STL (https://www....">
<polygon fill="white" stroke="black" points="259.5,-233.5 259.5,-263.5 440.5,-263.5 440.5,-233.5 259.5,-233.5"/>
<text text-anchor="start" x="267.5" y="-251.5" font-family="FreeSans" font-size="10.00">DGtal::concepts::CSTLAssociative</text>
<text text-anchor="middle" x="350" y="-240.5" font-family="FreeSans" font-size="10.00">Container&lt; T &gt;</text>
</a>
</g>
</g>
<!-- Node1&#45;&gt;Node21 -->
<g id="edge21" class="edge">
<title>Node1&#45;&gt;Node21</title>
<path fill="none" stroke="midnightblue" d="M125.38,-314.43C156.91,-302.87 204.7,-285.95 247,-273.5 258.81,-270.02 271.48,-266.64 283.74,-263.55"/>
<polygon fill="midnightblue" stroke="midnightblue" points="123.92,-311.24 115.75,-317.98 126.34,-317.81 123.92,-311.24"/>
</g>
<!-- Node22 -->
<g id="node22" class="node">
<title>Node22</title>
<g id="a_node22"><a xlink:href="structDGtal_1_1concepts_1_1CSegment.html" target="_top" xlink:title="Aim: Defines the concept describing a segment, ie. a valid and not empty range.">
<polygon fill="white" stroke="black" points="260.5,-195 260.5,-214 439.5,-214 439.5,-195 260.5,-195"/>
<text text-anchor="middle" x="350" y="-202" font-family="FreeSans" font-size="10.00">DGtal::concepts::CSegment&lt; T &gt;</text>
</a>
</g>
</g>
<!-- Node1&#45;&gt;Node22 -->
<g id="edge22" class="edge">
<title>Node1&#45;&gt;Node22</title>
<path fill="none" stroke="midnightblue" d="M109.62,-311.3C137.79,-288.31 192.97,-246.57 247,-224.5 257.69,-220.13 269.41,-216.7 280.98,-214"/>
<polygon fill="midnightblue" stroke="midnightblue" points="107.25,-308.71 101.78,-317.79 111.71,-314.11 107.25,-308.71"/>
</g>
<!-- Node29 -->
<g id="node29" class="node">
<title>Node29</title>
<g id="a_node29"><a xlink:href="structDGtal_1_1concepts_1_1CStaticMatrix.html" target="_top" xlink:title="Aim: Represent any static sized matrix having sparse or dense representation.">
<polygon fill="white" stroke="black" points="283,-145.5 283,-175.5 417,-175.5 417,-145.5 283,-145.5"/>
<text text-anchor="start" x="291" y="-163.5" font-family="FreeSans" font-size="10.00">DGtal::concepts::CStatic</text>
<text text-anchor="middle" x="350" y="-152.5" font-family="FreeSans" font-size="10.00">Matrix&lt; T &gt;</text>
</a>
</g>
</g>
<!-- Node1&#45;&gt;Node29 -->
<g id="edge30" class="edge">
<title>Node1&#45;&gt;Node29</title>
<path fill="none" stroke="midnightblue" d="M104.62,-309.64C129.78,-279.11 185.54,-217.13 247,-185.5 258.1,-179.78 270.57,-175.34 282.87,-171.89"/>
<polygon fill="midnightblue" stroke="midnightblue" points="101.66,-307.73 98.08,-317.7 107.1,-312.14 101.66,-307.73"/>
</g>
<!-- Node30 -->
<g id="node30" class="node">
<title>Node30</title>
<g id="a_node30"><a xlink:href="structDGtal_1_1concepts_1_1CStaticVector.html" target="_top" xlink:title="Aim: Represent any static sized column vector having sparse or dense representation.">
<polygon fill="white" stroke="black" points="283,-96.5 283,-126.5 417,-126.5 417,-96.5 283,-96.5"/>
<text text-anchor="start" x="291" y="-114.5" font-family="FreeSans" font-size="10.00">DGtal::concepts::CStatic</text>
<text text-anchor="middle" x="350" y="-103.5" font-family="FreeSans" font-size="10.00">Vector&lt; T &gt;</text>
</a>
</g>
</g>
<!-- Node1&#45;&gt;Node30 -->
<g id="edge31" class="edge">
<title>Node1&#45;&gt;Node30</title>
<path fill="none" stroke="midnightblue" d="M100.12,-308.59C121.03,-269.53 174.66,-179.97 247,-136.5 257.86,-129.97 270.34,-125.15 282.76,-121.58"/>
<polygon fill="midnightblue" stroke="midnightblue" points="96.95,-307.1 95.41,-317.58 103.15,-310.35 96.95,-307.1"/>
</g>
<!-- Node31 -->
<g id="node31" class="node">
<title>Node31</title>
<g id="a_node31"><a xlink:href="structDGtal_1_1concepts_1_1CSurfelLocalEstimator.html" target="_top" xlink:title="Aim: This concept describes an object that can process a range of surfels (that are supposed to belon...">
<polygon fill="white" stroke="black" points="282.5,-47.5 282.5,-77.5 417.5,-77.5 417.5,-47.5 282.5,-47.5"/>
<text text-anchor="start" x="290.5" y="-65.5" font-family="FreeSans" font-size="10.00">DGtal::concepts::CSurfel</text>
<text text-anchor="middle" x="350" y="-54.5" font-family="FreeSans" font-size="10.00">LocalEstimator&lt; T &gt;</text>
</a>
</g>
</g>
<!-- Node1&#45;&gt;Node31 -->
<g id="edge32" class="edge">
<title>Node1&#45;&gt;Node31</title>
<path fill="none" stroke="midnightblue" d="M96.65,-308.17C112.74,-261.16 160.86,-140.8 247,-87.5 257.7,-80.88 270.04,-76.01 282.36,-72.43"/>
<polygon fill="midnightblue" stroke="midnightblue" points="93.3,-307.16 93.47,-317.76 99.94,-309.37 93.3,-307.16"/>
</g>
<!-- Node33 -->
<g id="node33" class="node">
<title>Node33</title>
<g id="a_node33"><a xlink:href="structboost_1_1DefaultConstructible.html" target="_top" xlink:title=" ">
<polygon fill="white" stroke="black" points="260.5,-8 260.5,-27 439.5,-27 439.5,-8 260.5,-8"/>
<text text-anchor="middle" x="350" y="-15" font-family="FreeSans" font-size="10.00">boost::DefaultConstructible&lt; S &gt;</text>
</a>
</g>
</g>
<!-- Node1&#45;&gt;Node33 -->
<g id="edge34" class="edge">
<title>Node1&#45;&gt;Node33</title>
<path fill="none" stroke="orange" stroke-dasharray="5,2" d="M96.2,-307.75C109.27,-264.63 144.34,-159.97 197,-85.5 214.61,-60.6 219.93,-52.55 247,-38.5 256.39,-33.63 266.81,-29.89 277.31,-27.01"/>
<polygon fill="orange" stroke="orange" points="92.78,-306.97 93.3,-317.55 99.5,-308.96 92.78,-306.97"/>
<text text-anchor="middle" x="213" y="-88.5" font-family="FreeSans" font-size="10.00"> &lt; S &gt;</text>
</g>
<!-- Node6 -->
<g id="node6" class="node">
<title>Node6</title>
<g id="a_node6"><a xlink:href="structDGtal_1_1concepts_1_1CQuantity.html" target="_top" xlink:title="Aim: defines the concept of quantity in DGtal.">
<polygon fill="white" stroke="black" points="490,-479 490,-498 667,-498 667,-479 490,-479"/>
<text text-anchor="middle" x="578.5" y="-486" font-family="FreeSans" font-size="10.00">DGtal::concepts::CQuantity&lt; T &gt;</text>
</a>
</g>
</g>
<!-- Node5&#45;&gt;Node6 -->
<g id="edge5" class="edge">
<title>Node5&#45;&gt;Node6</title>
<path fill="none" stroke="midnightblue" d="M440.97,-488.5C457,-488.5 473.69,-488.5 489.66,-488.5"/>
<polygon fill="midnightblue" stroke="midnightblue" points="440.54,-485 430.54,-488.5 440.54,-492 440.54,-485"/>
</g>
<!-- Node7 -->
<g id="node7" class="node">
<title>Node7</title>
<g id="a_node7"><a xlink:href="structDGtal_1_1concepts_1_1CBoundedNumber.html" target="_top" xlink:title="Aim: The concept CBoundedNumber specifies what are the bounded numbers. Models of this concept should...">
<polygon fill="white" stroke="black" points="712,-534.5 712,-564.5 861,-564.5 861,-534.5 712,-534.5"/>
<text text-anchor="start" x="720" y="-552.5" font-family="FreeSans" font-size="10.00">DGtal::concepts::CBounded</text>
<text text-anchor="middle" x="786.5" y="-541.5" font-family="FreeSans" font-size="10.00">Number&lt; T &gt;</text>
</a>
</g>
</g>
<!-- Node6&#45;&gt;Node7 -->
<g id="edge6" class="edge">
<title>Node6&#45;&gt;Node7</title>
<path fill="none" stroke="midnightblue" d="M621.42,-500.91C654.18,-510.62 699.87,-524.14 734.71,-534.46"/>
<polygon fill="midnightblue" stroke="midnightblue" points="622.27,-497.51 611.69,-498.03 620.28,-504.23 622.27,-497.51"/>
</g>
<!-- Node8 -->
<g id="node8" class="node">
<title>Node8</title>
<g id="a_node8"><a xlink:href="structDGtal_1_1concepts_1_1CIntegralNumber.html" target="_top" xlink:title="Aim: Concept checking for Integral Numbers. Models of this concept should be listed in NumberTraits c...">
<polygon fill="white" stroke="black" points="887,-490.5 887,-520.5 1031,-520.5 1031,-490.5 887,-490.5"/>
<text text-anchor="start" x="895" y="-508.5" font-family="FreeSans" font-size="10.00">DGtal::concepts::CIntegral</text>
<text text-anchor="middle" x="959" y="-497.5" font-family="FreeSans" font-size="10.00">Number&lt; T &gt;</text>
</a>
</g>
</g>
<!-- Node6&#45;&gt;Node8 -->
<g id="edge7" class="edge">
<title>Node6&#45;&gt;Node8</title>
<path fill="none" stroke="midnightblue" d="M677.63,-492.91C743.13,-495.85 827.76,-499.65 886.83,-502.3"/>
<polygon fill="midnightblue" stroke="midnightblue" points="677.43,-489.4 667.29,-492.44 677.12,-496.39 677.43,-489.4"/>
</g>
<!-- Node10 -->
<g id="node10" class="node">
<title>Node10</title>
<g id="a_node10"><a xlink:href="structDGtal_1_1concepts_1_1CSignedNumber.html" target="_top" xlink:title="Aim: Concept checking for Signed Numbers. Models of this concept should be listed in NumberTraits cla...">
<polygon fill="white" stroke="black" points="716.5,-446.5 716.5,-476.5 856.5,-476.5 856.5,-446.5 716.5,-446.5"/>
<text text-anchor="start" x="724.5" y="-464.5" font-family="FreeSans" font-size="10.00">DGtal::concepts::CSigned</text>
<text text-anchor="middle" x="786.5" y="-453.5" font-family="FreeSans" font-size="10.00">Number&lt; T &gt;</text>
</a>
</g>
</g>
<!-- Node6&#45;&gt;Node10 -->
<g id="edge9" class="edge">
<title>Node6&#45;&gt;Node10</title>
<path fill="none" stroke="midnightblue" d="M662.27,-477.65C680.19,-475.3 698.96,-472.84 716.29,-470.57"/>
<polygon fill="midnightblue" stroke="midnightblue" points="661.59,-474.21 652.13,-478.98 662.5,-481.15 661.59,-474.21"/>
</g>
<!-- Node13 -->
<g id="node13" class="node">
<title>Node13</title>
<g id="a_node13"><a xlink:href="structDGtal_1_1concepts_1_1CUnsignedNumber.html" target="_top" xlink:title="Aim: Concept checking for Unsigned numbers. Models of this concept should be listed in NumberTraits c...">
<polygon fill="white" stroke="black" points="710.5,-397.5 710.5,-427.5 862.5,-427.5 862.5,-397.5 710.5,-397.5"/>
<text text-anchor="start" x="718.5" y="-415.5" font-family="FreeSans" font-size="10.00">DGtal::concepts::CUnsigned</text>
<text text-anchor="middle" x="786.5" y="-404.5" font-family="FreeSans" font-size="10.00">Number&lt; T &gt;</text>
</a>
</g>
</g>
<!-- Node6&#45;&gt;Node13 -->
<g id="edge13" class="edge">
<title>Node6&#45;&gt;Node13</title>
<path fill="none" stroke="midnightblue" d="M610.64,-474.82C635.64,-464.06 671.77,-449.02 704,-437.5 713.62,-434.06 723.97,-430.66 733.96,-427.53"/>
<polygon fill="midnightblue" stroke="midnightblue" points="609.09,-471.68 601.31,-478.86 611.87,-478.1 609.09,-471.68"/>
</g>
<!-- Node9 -->
<g id="node9" class="node">
<title>Node9</title>
<g id="a_node9"><a xlink:href="structDGtal_1_1concepts_1_1CInteger.html" target="_top" xlink:title="Aim: Concept checking for Integer Numbers. More precisely, this concept is a refinement of both CEucl...">
<polygon fill="white" stroke="black" points="1478,-483 1478,-502 1648,-502 1648,-483 1478,-483"/>
<text text-anchor="middle" x="1563" y="-490" font-family="FreeSans" font-size="10.00">DGtal::concepts::CInteger&lt; T &gt;</text>
</a>
</g>
</g>
<!-- Node8&#45;&gt;Node9 -->
<g id="edge8" class="edge">
<title>Node8&#45;&gt;Node9</title>
<path fill="none" stroke="midnightblue" d="M1041.19,-503.75C1155.22,-501.28 1361.77,-496.82 1477.54,-494.32"/>
<polygon fill="midnightblue" stroke="midnightblue" points="1041.05,-500.25 1031.12,-503.96 1041.2,-507.25 1041.05,-500.25"/>
</g>
<!-- Node11 -->
<g id="node11" class="node">
<title>Node11</title>
<g id="a_node11"><a xlink:href="structDGtal_1_1concepts_1_1CCommutativeRing.html" target="_top" xlink:title="Aim: Defines the mathematical concept equivalent to a unitary commutative ring.">
<polygon fill="white" stroke="black" points="1049,-446.5 1049,-476.5 1222,-476.5 1222,-446.5 1049,-446.5"/>
<text text-anchor="start" x="1057" y="-464.5" font-family="FreeSans" font-size="10.00">DGtal::concepts::CCommutative</text>
<text text-anchor="middle" x="1135.5" y="-453.5" font-family="FreeSans" font-size="10.00">Ring&lt; T &gt;</text>
</a>
</g>
</g>
<!-- Node10&#45;&gt;Node11 -->
<g id="edge10" class="edge">
<title>Node10&#45;&gt;Node11</title>
<path fill="none" stroke="midnightblue" d="M867.16,-461.5C921.5,-461.5 993.4,-461.5 1048.95,-461.5"/>
<polygon fill="midnightblue" stroke="midnightblue" points="866.89,-458 856.89,-461.5 866.89,-465 866.89,-458"/>
</g>
<!-- Node12 -->
<g id="node12" class="node">
<title>Node12</title>
<g id="a_node12"><a xlink:href="structDGtal_1_1concepts_1_1CEuclideanRing.html" target="_top" xlink:title="Aim: Defines the mathematical concept equivalent to a unitary commutative ring with a division operat...">
<polygon fill="white" stroke="black" points="1266,-446.5 1266,-476.5 1420,-476.5 1420,-446.5 1266,-446.5"/>
<text text-anchor="start" x="1274" y="-464.5" font-family="FreeSans" font-size="10.00">DGtal::concepts::CEuclidean</text>
<text text-anchor="middle" x="1343" y="-453.5" font-family="FreeSans" font-size="10.00">Ring&lt; T &gt;</text>
</a>
</g>
</g>
<!-- Node11&#45;&gt;Node12 -->
<g id="edge11" class="edge">
<title>Node11&#45;&gt;Node12</title>
<path fill="none" stroke="midnightblue" d="M1232.45,-461.5C1243.69,-461.5 1255.05,-461.5 1265.97,-461.5"/>
<polygon fill="midnightblue" stroke="midnightblue" points="1232.16,-458 1222.16,-461.5 1232.16,-465 1232.16,-458"/>
</g>
<!-- Node12&#45;&gt;Node9 -->
<g id="edge12" class="edge">
<title>Node12&#45;&gt;Node9</title>
<path fill="none" stroke="midnightblue" d="M1430.34,-473.78C1451.8,-476.83 1474.49,-480.06 1494.88,-482.96"/>
<polygon fill="midnightblue" stroke="midnightblue" points="1430.64,-470.29 1420.25,-472.34 1429.65,-477.22 1430.64,-470.29"/>
</g>
<!-- Node17 -->
<g id="node17" class="node">
<title>Node17</title>
<g id="a_node17"><a xlink:href="structDGtal_1_1concepts_1_1CCellularGridSpaceND.html" target="_top" xlink:title="Aim: This concept describes a cellular grid space in nD. In these spaces obtained by cartesian produc...">
<polygon fill="white" stroke="black" points="506.5,-331.5 506.5,-361.5 650.5,-361.5 650.5,-331.5 506.5,-331.5"/>
<text text-anchor="start" x="514.5" y="-349.5" font-family="FreeSans" font-size="10.00">DGtal::concepts::CCellular</text>
<text text-anchor="middle" x="578.5" y="-338.5" font-family="FreeSans" font-size="10.00">GridSpaceND&lt; T &gt;</text>
</a>
</g>
</g>
<!-- Node16&#45;&gt;Node17 -->
<g id="edge17" class="edge">
<title>Node16&#45;&gt;Node17</title>
<path fill="none" stroke="midnightblue" d="M440.49,-346.5C462.33,-346.5 485.41,-346.5 506.27,-346.5"/>
<polygon fill="midnightblue" stroke="midnightblue" points="440.22,-343 430.22,-346.5 440.22,-350 440.22,-343"/>
</g>
<!-- Node19 -->
<g id="node19" class="node">
<title>Node19</title>
<g id="a_node19"><a xlink:href="structDGtal_1_1concepts_1_1CIncrementalPrimitiveComputer.html" target="_top" xlink:title="Aim: Defines the concept describing an object that computes some primitive from input points given on...">
<polygon fill="white" stroke="black" points="496,-282.5 496,-312.5 661,-312.5 661,-282.5 496,-282.5"/>
<text text-anchor="start" x="504" y="-300.5" font-family="FreeSans" font-size="10.00">DGtal::concepts::CIncremental</text>
<text text-anchor="middle" x="578.5" y="-289.5" font-family="FreeSans" font-size="10.00">PrimitiveComputer&lt; T &gt;</text>
</a>
</g>
</g>
<!-- Node18&#45;&gt;Node19 -->
<g id="edge19" class="edge">
<title>Node18&#45;&gt;Node19</title>
<path fill="none" stroke="midnightblue" d="M435.91,-297.5C455.51,-297.5 476.31,-297.5 495.76,-297.5"/>
<polygon fill="midnightblue" stroke="midnightblue" points="435.79,-294 425.79,-297.5 435.79,-301 435.79,-294"/>
</g>
<!-- Node20 -->
<g id="node20" class="node">
<title>Node20</title>
<g id="a_node20"><a xlink:href="structDGtal_1_1concepts_1_1CAdditivePrimitiveComputer.html" target="_top" xlink:title="Aim: Defines the concept describing an object that computes some primitive from input points given gr...">
<polygon fill="white" stroke="black" points="713,-282.5 713,-312.5 860,-312.5 860,-282.5 713,-282.5"/>
<text text-anchor="start" x="721" y="-300.5" font-family="FreeSans" font-size="10.00">DGtal::concepts::CAdditive</text>
<text text-anchor="middle" x="786.5" y="-289.5" font-family="FreeSans" font-size="10.00">PrimitiveComputer&lt; T &gt;</text>
</a>
</g>
</g>
<!-- Node19&#45;&gt;Node20 -->
<g id="edge20" class="edge">
<title>Node19&#45;&gt;Node20</title>
<path fill="none" stroke="midnightblue" d="M671.3,-297.5C685.23,-297.5 699.44,-297.5 712.89,-297.5"/>
<polygon fill="midnightblue" stroke="midnightblue" points="671.21,-294 661.21,-297.5 671.21,-301 671.21,-294"/>
</g>
<!-- Node23 -->
<g id="node23" class="node">
<title>Node23</title>
<g id="a_node23"><a xlink:href="structDGtal_1_1concepts_1_1CSegmentFactory.html" target="_top" xlink:title="Aim: Defines the concept describing a segment ie. a valid and not empty subrange, which can construct...">
<polygon fill="white" stroke="black" points="503.5,-189.5 503.5,-219.5 653.5,-219.5 653.5,-189.5 503.5,-189.5"/>
<text text-anchor="start" x="511.5" y="-207.5" font-family="FreeSans" font-size="10.00">DGtal::concepts::CSegment</text>
<text text-anchor="middle" x="578.5" y="-196.5" font-family="FreeSans" font-size="10.00">Factory&lt; T &gt;</text>
</a>
</g>
</g>
<!-- Node22&#45;&gt;Node23 -->
<g id="edge23" class="edge">
<title>Node22&#45;&gt;Node23</title>
<path fill="none" stroke="midnightblue" d="M449.76,-204.5C467.73,-204.5 486.19,-204.5 503.3,-204.5"/>
<polygon fill="midnightblue" stroke="midnightblue" points="449.54,-201 439.54,-204.5 449.54,-208 449.54,-201"/>
</g>
<!-- Node24 -->
<g id="node24" class="node">
<title>Node24</title>
<g id="a_node24"><a xlink:href="structDGtal_1_1concepts_1_1CIncrementalSegmentComputer.html" target="_top" xlink:title="Aim: Defines the concept describing an incremental segment computer, &#160;&#160;ie. a model of CSegmentFactory...">
<polygon fill="white" stroke="black" points="704,-189.5 704,-219.5 869,-219.5 869,-189.5 704,-189.5"/>
<text text-anchor="start" x="712" y="-207.5" font-family="FreeSans" font-size="10.00">DGtal::concepts::CIncremental</text>
<text text-anchor="middle" x="786.5" y="-196.5" font-family="FreeSans" font-size="10.00">SegmentComputer&lt; T &gt;</text>
</a>
</g>
</g>
<!-- Node23&#45;&gt;Node24 -->
<g id="edge24" class="edge">
<title>Node23&#45;&gt;Node24</title>
<path fill="none" stroke="midnightblue" d="M663.61,-204.5C676.84,-204.5 690.52,-204.5 703.7,-204.5"/>
<polygon fill="midnightblue" stroke="midnightblue" points="663.58,-201 653.58,-204.5 663.58,-208 663.58,-201"/>
</g>
<!-- Node25 -->
<g id="node25" class="node">
<title>Node25</title>
<g id="a_node25"><a xlink:href="structDGtal_1_1concepts_1_1CForwardSegmentComputer.html" target="_top" xlink:title="Aim: Defines the concept describing a forward segment computer. Like any model of CIncrementalSegment...">
<polygon fill="white" stroke="black" points="1062.5,-189.5 1062.5,-219.5 1208.5,-219.5 1208.5,-189.5 1062.5,-189.5"/>
<text text-anchor="start" x="1070.5" y="-207.5" font-family="FreeSans" font-size="10.00">DGtal::concepts::CForward</text>
<text text-anchor="middle" x="1135.5" y="-196.5" font-family="FreeSans" font-size="10.00">SegmentComputer&lt; T &gt;</text>
</a>
</g>
</g>
<!-- Node24&#45;&gt;Node25 -->
<g id="edge25" class="edge">
<title>Node24&#45;&gt;Node25</title>
<path fill="none" stroke="midnightblue" d="M879.43,-204.5C936.69,-204.5 1009.29,-204.5 1062.38,-204.5"/>
<polygon fill="midnightblue" stroke="midnightblue" points="879.29,-201 869.29,-204.5 879.29,-208 879.29,-201"/>
</g>
<!-- Node26 -->
<g id="node26" class="node">
<title>Node26</title>
<g id="a_node26"><a xlink:href="structDGtal_1_1concepts_1_1CBidirectionalSegmentComputer.html" target="_top" xlink:title="Aim: Defines the concept describing a bidirectional segment computer, &#160;&#160;ie. a model of concepts::CSeg...">
<polygon fill="white" stroke="black" points="1259,-211.5 1259,-241.5 1427,-241.5 1427,-211.5 1259,-211.5"/>
<text text-anchor="start" x="1267" y="-229.5" font-family="FreeSans" font-size="10.00">DGtal::concepts::CBidirectional</text>
<text text-anchor="middle" x="1343" y="-218.5" font-family="FreeSans" font-size="10.00">SegmentComputer&lt; T &gt;</text>
</a>
</g>
</g>
<!-- Node25&#45;&gt;Node26 -->
<g id="edge26" class="edge">
<title>Node25&#45;&gt;Node26</title>
<path fill="none" stroke="midnightblue" d="M1218.65,-213.29C1231.86,-214.71 1245.53,-216.17 1258.76,-217.59"/>
<polygon fill="midnightblue" stroke="midnightblue" points="1218.98,-209.81 1208.66,-212.23 1218.23,-216.77 1218.98,-209.81"/>
</g>
<!-- Node28 -->
<g id="node28" class="node">
<title>Node28</title>
<g id="a_node28"><a xlink:href="structDGtal_1_1concepts_1_1CDynamicSegmentComputer.html" target="_top" xlink:title="Aim: Defines the concept describing a dynamic segment computer, &#160;&#160;ie. a model of CSegment that can ex...">
<polygon fill="white" stroke="black" points="1268,-162.5 1268,-192.5 1418,-192.5 1418,-162.5 1268,-162.5"/>
<text text-anchor="start" x="1276" y="-180.5" font-family="FreeSans" font-size="10.00">DGtal::concepts::CDynamic</text>
<text text-anchor="middle" x="1343" y="-169.5" font-family="FreeSans" font-size="10.00">SegmentComputer&lt; T &gt;</text>
</a>
</g>
</g>
<!-- Node25&#45;&gt;Node28 -->
<g id="edge28" class="edge">
<title>Node25&#45;&gt;Node28</title>
<path fill="none" stroke="midnightblue" d="M1218.69,-193.7C1234.96,-191.56 1251.94,-189.33 1267.92,-187.23"/>
<polygon fill="midnightblue" stroke="midnightblue" points="1218.12,-190.25 1208.66,-195.02 1219.03,-197.19 1218.12,-190.25"/>
</g>
<!-- Node27 -->
<g id="node27" class="node">
<title>Node27</title>
<g id="a_node27"><a xlink:href="structDGtal_1_1concepts_1_1CDynamicBidirectionalSegmentComputer.html" target="_top" xlink:title="Aim: Defines the concept describing a dynamic and bidirectional segment computer, ie....">
<polygon fill="white" stroke="black" points="1464,-187.5 1464,-217.5 1662,-217.5 1662,-187.5 1464,-187.5"/>
<text text-anchor="start" x="1472" y="-205.5" font-family="FreeSans" font-size="10.00">DGtal::concepts::CDynamic</text>
<text text-anchor="middle" x="1563" y="-194.5" font-family="FreeSans" font-size="10.00">BidirectionalSegmentComputer&lt; T &gt;</text>
</a>
</g>
</g>
<!-- Node26&#45;&gt;Node27 -->
<g id="edge27" class="edge">
<title>Node26&#45;&gt;Node27</title>
<path fill="none" stroke="midnightblue" d="M1437,-216.26C1445.88,-215.28 1454.91,-214.29 1463.85,-213.31"/>
<polygon fill="midnightblue" stroke="midnightblue" points="1436.6,-212.78 1427.04,-217.36 1437.36,-219.74 1436.6,-212.78"/>
</g>
<!-- Node28&#45;&gt;Node27 -->
<g id="edge29" class="edge">
<title>Node28&#45;&gt;Node27</title>
<path fill="none" stroke="midnightblue" d="M1428.22,-187.16C1439.87,-188.49 1451.91,-189.87 1463.78,-191.24"/>
<polygon fill="midnightblue" stroke="midnightblue" points="1428.44,-183.66 1418.11,-186 1427.65,-190.62 1428.44,-183.66"/>
</g>
<!-- Node32 -->
<g id="node32" class="node">
<title>Node32</title>
<g id="a_node32"><a xlink:href="structDGtal_1_1concepts_1_1CDigitalSurfaceLocalEstimator.html" target="_top" xlink:title="Aim: This concept describes an object that can process a range over some generic digital surface so a...">
<polygon fill="white" stroke="black" points="501,-49.5 501,-79.5 656,-79.5 656,-49.5 501,-49.5"/>
<text text-anchor="start" x="509" y="-67.5" font-family="FreeSans" font-size="10.00">DGtal::concepts::CDigital</text>
<text text-anchor="middle" x="578.5" y="-56.5" font-family="FreeSans" font-size="10.00">SurfaceLocalEstimator&lt; T &gt;</text>
</a>
</g>
</g>
<!-- Node31&#45;&gt;Node32 -->
<g id="edge33" class="edge">
<title>Node31&#45;&gt;Node32</title>
<path fill="none" stroke="midnightblue" d="M428.01,-63.18C451.54,-63.39 477.4,-63.62 500.9,-63.82"/>
<polygon fill="midnightblue" stroke="midnightblue" points="427.76,-59.68 417.73,-63.09 427.7,-66.68 427.76,-59.68"/>
</g>
<!-- Node34 -->
<g id="node34" class="node">
<title>Node34</title>
<g id="a_node34"><a xlink:href="structDGtal_1_1concepts_1_1CLinearAlgebraSolver.html" target="_top" xlink:title="Aim: Describe a linear solver defined over a linear algebra. Problems are of the form:">
<polygon fill="white" stroke="black" points="508,-0.5 508,-30.5 649,-30.5 649,-0.5 508,-0.5"/>
<text text-anchor="start" x="516" y="-18.5" font-family="FreeSans" font-size="10.00">DGtal::concepts::CLinear</text>
<text text-anchor="middle" x="578.5" y="-7.5" font-family="FreeSans" font-size="10.00">AlgebraSolver&lt; S, V, M &gt;</text>
</a>
</g>
</g>
<!-- Node33&#45;&gt;Node34 -->
<g id="edge35" class="edge">
<title>Node33&#45;&gt;Node34</title>
<path fill="none" stroke="midnightblue" d="M449.73,-16.63C469.35,-16.45 489.55,-16.28 507.94,-16.11"/>
<polygon fill="midnightblue" stroke="midnightblue" points="449.51,-13.13 439.54,-16.72 449.57,-20.13 449.51,-13.13"/>
</g>
</g>
</svg>
