<?xml version="1.0" encoding="UTF-8" standalone="no"?>
<!DOCTYPE svg PUBLIC "-//W3C//DTD SVG 1.1//EN"
 "http://www.w3.org/Graphics/SVG/1.1/DTD/svg11.dtd">
<!-- Generated by graphviz version 2.43.0 (0)
 -->
<!-- Title: DGtal::functors::SurfelSetPredicate&lt; TSurfelSet, TSurfel &gt; Pages: 1 -->
<svg width="195pt" height="128pt"
 viewBox="0.00 0.00 195.00 128.00" xmlns="http://www.w3.org/2000/svg" xmlns:xlink="http://www.w3.org/1999/xlink">
<g id="graph0" class="graph" transform="scale(1 1) rotate(0) translate(4 124)">
<title>DGtal::functors::SurfelSetPredicate&lt; TSurfelSet, TSurfel &gt;</title>
<polygon fill="white" stroke="transparent" points="-4,4 -4,-124 191,-124 191,4 -4,4"/>
<!-- Node1 -->
<g id="node1" class="node">
<title>Node1</title>
<g id="a_node1"><a xlink:title="Aim: The predicate returning true iff the point is in the domain given at construction.">
<polygon fill="#bfbfbf" stroke="black" points="12,-78.5 12,-119.5 152,-119.5 152,-78.5 12,-78.5"/>
<text text-anchor="start" x="20" y="-107.5" font-family="FreeSans" font-size="10.00">DGtal::functors::SurfelSet</text>
<text text-anchor="start" x="20" y="-96.5" font-family="FreeSans" font-size="10.00">Predicate&lt; TSurfelSet,</text>
<text text-anchor="middle" x="82" y="-85.5" font-family="FreeSans" font-size="10.00"> TSurfel &gt;</text>
</a>
</g>
</g>
<!-- Node2 -->
<g id="node2" class="node">
<title>Node2</title>
<g id="a_node2"><a xlink:href="structDGtal_1_1functors_1_1SurfelSetPredicate.html" target="_top" xlink:title=" ">
<polygon fill="white" stroke="black" points="0,-0.5 0,-30.5 164,-30.5 164,-0.5 0,-0.5"/>
<text text-anchor="start" x="8" y="-18.5" font-family="FreeSans" font-size="10.00">DGtal::functors::SurfelSet</text>
<text text-anchor="middle" x="82" y="-7.5" font-family="FreeSans" font-size="10.00">Predicate&lt; SurfelSet, Surfel &gt;</text>
</a>
</g>
</g>
<!-- Node1&#45;&gt;Node2 -->
<g id="edge1" class="edge">
<title>Node1&#45;&gt;Node2</title>
<path fill="none" stroke="orange" stroke-dasharray="5,2" d="M82,-68.03C82,-55.26 82,-40.97 82,-30.68"/>
<polygon fill="orange" stroke="orange" points="78.5,-68.27 82,-78.27 85.5,-68.27 78.5,-68.27"/>
<text text-anchor="middle" x="134.5" y="-52" font-family="FreeSans" font-size="10.00"> &lt; SurfelSet, Surfel &gt;</text>
</g>
</g>
</svg>
