<?xml version="1.0" encoding="UTF-8" standalone="no"?>
<!DOCTYPE svg PUBLIC "-//W3C//DTD SVG 1.1//EN"
 "http://www.w3.org/Graphics/SVG/1.1/DTD/svg11.dtd">
<!-- Generated by graphviz version 2.43.0 (0)
 -->
<!-- Title: DGtal::concepts::CPointFunctor&lt; T &gt; Pages: 1 -->
<svg width="1992pt" height="109pt"
 viewBox="0.00 0.00 1992.00 109.00" xmlns="http://www.w3.org/2000/svg" xmlns:xlink="http://www.w3.org/1999/xlink">
<g id="graph0" class="graph" transform="scale(1 1) rotate(0) translate(4 105)">
<title>DGtal::concepts::CPointFunctor&lt; T &gt;</title>
<polygon fill="white" stroke="transparent" points="-4,4 -4,-105 1988,-105 1988,4 -4,4"/>
<!-- Node1 -->
<g id="node1" class="node">
<title>Node1</title>
<g id="a_node1"><a xlink:title="Aim: Defines a functor on points.">
<polygon fill="#bfbfbf" stroke="black" points="904,-52 904,-71 1100,-71 1100,-52 904,-52"/>
<text text-anchor="middle" x="1002" y="-59" font-family="FreeSans" font-size="10.00">DGtal::concepts::CPointFunctor&lt; T &gt;</text>
</a>
</g>
</g>
<!-- Node6 -->
<g id="node6" class="node">
<title>Node6</title>
<g id="a_node6"><a xlink:href="structDGtal_1_1concepts_1_1COrientationFunctor.html" target="_top" xlink:title="Aim: This concept gathers models implementing an orientation test of &#160;points in a space of dimension ...">
<polygon fill="white" stroke="black" points="1181,-69.5 1181,-99.5 1342,-99.5 1342,-69.5 1181,-69.5"/>
<text text-anchor="start" x="1189" y="-87.5" font-family="FreeSans" font-size="10.00">DGtal::concepts::COrientation</text>
<text text-anchor="middle" x="1261.5" y="-76.5" font-family="FreeSans" font-size="10.00">Functor&lt; T &gt;</text>
</a>
</g>
</g>
<!-- Node1&#45;&gt;Node6 -->
<g id="edge6" class="edge">
<title>Node1&#45;&gt;Node6</title>
<path fill="none" stroke="midnightblue" d="M1110.36,-71.09C1133.89,-73.19 1158.39,-75.38 1180.62,-77.36"/>
<polygon fill="midnightblue" stroke="midnightblue" points="1110.62,-67.6 1100.35,-70.2 1110,-74.57 1110.62,-67.6"/>
</g>
<!-- Node8 -->
<g id="node8" class="node">
<title>Node8</title>
<g id="a_node8"><a xlink:href="structDGtal_1_1concepts_1_1CPointFunctor.html" target="_top" xlink:title=" ">
<polygon fill="white" stroke="black" points="1165,-30 1165,-49 1358,-49 1358,-30 1165,-30"/>
<text text-anchor="middle" x="1261.5" y="-37" font-family="FreeSans" font-size="10.00">DGtal::concepts::CPointFunctor&lt; I &gt;</text>
</a>
</g>
</g>
<!-- Node1&#45;&gt;Node8 -->
<g id="edge8" class="edge">
<title>Node1&#45;&gt;Node8</title>
<path fill="none" stroke="orange" stroke-dasharray="5,2" d="M1110.56,-52.31C1128.53,-50.78 1147.07,-49.19 1164.72,-47.68"/>
<polygon fill="orange" stroke="orange" points="1110.02,-48.84 1100.35,-53.18 1110.61,-55.82 1110.02,-48.84"/>
<text text-anchor="middle" x="1132.5" y="-54.5" font-family="FreeSans" font-size="10.00"> &lt; I &gt;</text>
</g>
<!-- Node2 -->
<g id="node2" class="node">
<title>Node2</title>
<g id="a_node2"><a xlink:href="structDGtal_1_1concepts_1_1CUnaryFunctor.html" target="_top" xlink:title=" ">
<polygon fill="white" stroke="black" points="695,-46.5 695,-76.5 867,-76.5 867,-46.5 695,-46.5"/>
<text text-anchor="start" x="703" y="-64.5" font-family="FreeSans" font-size="10.00">DGtal::concepts::CUnaryFunctor</text>
<text text-anchor="middle" x="781" y="-53.5" font-family="FreeSans" font-size="10.00">&lt; T, T::Point, T::Value &gt;</text>
</a>
</g>
</g>
<!-- Node2&#45;&gt;Node1 -->
<g id="edge1" class="edge">
<title>Node2&#45;&gt;Node1</title>
<path fill="none" stroke="midnightblue" d="M877.51,-61.5C886.28,-61.5 895.16,-61.5 903.94,-61.5"/>
<polygon fill="midnightblue" stroke="midnightblue" points="877.3,-58 867.3,-61.5 877.3,-65 877.3,-58"/>
</g>
<!-- Node3 -->
<g id="node3" class="node">
<title>Node3</title>
<g id="a_node3"><a xlink:href="structboost_1_1Assignable.html" target="_top" xlink:title="Go to http://www.sgi.com/tech/stl/Assignable.html.">
<polygon fill="white" stroke="black" points="0,-51 0,-70 131,-70 131,-51 0,-51"/>
<text text-anchor="middle" x="65.5" y="-58" font-family="FreeSans" font-size="10.00">boost::Assignable&lt; T &gt;</text>
</a>
</g>
</g>
<!-- Node3&#45;&gt;Node2 -->
<g id="edge2" class="edge">
<title>Node3&#45;&gt;Node2</title>
<path fill="none" stroke="midnightblue" d="M141.36,-65.24C143.94,-65.34 146.49,-65.42 149,-65.5 383.56,-72.6 442.38,-70.05 677,-65.5 682.81,-65.39 688.81,-65.24 694.86,-65.06"/>
<polygon fill="midnightblue" stroke="midnightblue" points="141.48,-61.74 131.33,-64.8 141.17,-68.73 141.48,-61.74"/>
</g>
<!-- Node5 -->
<g id="node5" class="node">
<title>Node5</title>
<g id="a_node5"><a xlink:href="structboost_1_1Assignable.html" target="_top" xlink:title=" ">
<polygon fill="white" stroke="black" points="200,-31 200,-50 332,-50 332,-31 200,-31"/>
<text text-anchor="middle" x="266" y="-38" font-family="FreeSans" font-size="10.00">boost::Assignable&lt; X &gt;</text>
</a>
</g>
</g>
<!-- Node3&#45;&gt;Node5 -->
<g id="edge5" class="edge">
<title>Node3&#45;&gt;Node5</title>
<path fill="none" stroke="orange" stroke-dasharray="5,2" d="M141.41,-52.95C160.58,-51.02 181.04,-48.96 199.69,-47.08"/>
<polygon fill="orange" stroke="orange" points="140.82,-49.49 131.22,-53.98 141.52,-56.46 140.82,-49.49"/>
<text text-anchor="middle" x="165.5" y="-55.5" font-family="FreeSans" font-size="10.00"> &lt; X &gt;</text>
</g>
<!-- Node4 -->
<g id="node4" class="node">
<title>Node4</title>
<g id="a_node4"><a xlink:href="structDGtal_1_1concepts_1_1CUnaryFunctor.html" target="_top" xlink:title="Aim: Defines a unary functor, which associates arguments to results.">
<polygon fill="white" stroke="black" points="369,-20.5 369,-50.5 541,-50.5 541,-20.5 369,-20.5"/>
<text text-anchor="start" x="377" y="-38.5" font-family="FreeSans" font-size="10.00">DGtal::concepts::CUnaryFunctor</text>
<text text-anchor="middle" x="455" y="-27.5" font-family="FreeSans" font-size="10.00">&lt; X, A, R &gt;</text>
</a>
</g>
</g>
<!-- Node4&#45;&gt;Node2 -->
<g id="edge3" class="edge">
<title>Node4&#45;&gt;Node2</title>
<path fill="none" stroke="orange" stroke-dasharray="5,2" d="M551.29,-43.15C596.79,-46.8 650.78,-51.13 694.88,-54.67"/>
<polygon fill="orange" stroke="orange" points="551.38,-39.64 541.13,-42.33 550.82,-46.62 551.38,-39.64"/>
<text text-anchor="middle" x="618" y="-56.5" font-family="FreeSans" font-size="10.00"> &lt; T, T::Point, T::Value &gt;</text>
</g>
<!-- Node5&#45;&gt;Node4 -->
<g id="edge4" class="edge">
<title>Node5&#45;&gt;Node4</title>
<path fill="none" stroke="midnightblue" d="M342.24,-38.49C350.95,-38.26 359.87,-38.02 368.7,-37.78"/>
<polygon fill="midnightblue" stroke="midnightblue" points="342.04,-34.99 332.14,-38.76 342.23,-41.99 342.04,-34.99"/>
</g>
<!-- Node7 -->
<g id="node7" class="node">
<title>Node7</title>
<g id="a_node7"><a xlink:href="structDGtal_1_1concepts_1_1COrientationFunctor2.html" target="_top" xlink:title="Aim: This concept is a refinement of COrientationFunctor, useful for simple algebraic curves that can...">
<polygon fill="white" stroke="black" points="1395,-70.5 1395,-100.5 1556,-100.5 1556,-70.5 1395,-70.5"/>
<text text-anchor="start" x="1403" y="-88.5" font-family="FreeSans" font-size="10.00">DGtal::concepts::COrientation</text>
<text text-anchor="middle" x="1475.5" y="-77.5" font-family="FreeSans" font-size="10.00">Functor2&lt; T &gt;</text>
</a>
</g>
</g>
<!-- Node6&#45;&gt;Node7 -->
<g id="edge7" class="edge">
<title>Node6&#45;&gt;Node7</title>
<path fill="none" stroke="midnightblue" d="M1352.26,-84.92C1366.42,-84.99 1380.96,-85.06 1394.86,-85.12"/>
<polygon fill="midnightblue" stroke="midnightblue" points="1352.06,-81.42 1342.04,-84.88 1352.03,-88.42 1352.06,-81.42"/>
</g>
<!-- Node9 -->
<g id="node9" class="node">
<title>Node9</title>
<g id="a_node9"><a xlink:href="structDGtal_1_1concepts_1_1CTrivialConstImage.html" target="_top" xlink:title="Aim: Defines the concept describing a read&#45;only image, which is a refinement of CPointFunctor.">
<polygon fill="white" stroke="black" points="1407.5,-21.5 1407.5,-51.5 1543.5,-51.5 1543.5,-21.5 1407.5,-21.5"/>
<text text-anchor="start" x="1415.5" y="-39.5" font-family="FreeSans" font-size="10.00">DGtal::concepts::CTrivial</text>
<text text-anchor="middle" x="1475.5" y="-28.5" font-family="FreeSans" font-size="10.00">ConstImage&lt; I &gt;</text>
</a>
</g>
</g>
<!-- Node8&#45;&gt;Node9 -->
<g id="edge9" class="edge">
<title>Node8&#45;&gt;Node9</title>
<path fill="none" stroke="midnightblue" d="M1368.39,-38C1381.65,-37.81 1394.91,-37.63 1407.34,-37.45"/>
<polygon fill="midnightblue" stroke="midnightblue" points="1368.22,-34.5 1358.27,-38.14 1368.31,-41.5 1368.22,-34.5"/>
</g>
<!-- Node10 -->
<g id="node10" class="node">
<title>Node10</title>
<g id="a_node10"><a xlink:href="structDGtal_1_1concepts_1_1CConstImage.html" target="_top" xlink:title="Aim: Defines the concept describing a read&#45;only image, which is a refinement of CPointFunctor.">
<polygon fill="white" stroke="black" points="1593,-50 1593,-69 1784,-69 1784,-50 1593,-50"/>
<text text-anchor="middle" x="1688.5" y="-57" font-family="FreeSans" font-size="10.00">DGtal::concepts::CConstImage&lt; I &gt;</text>
</a>
</g>
</g>
<!-- Node9&#45;&gt;Node10 -->
<g id="edge10" class="edge">
<title>Node9&#45;&gt;Node10</title>
<path fill="none" stroke="midnightblue" d="M1553.83,-44.93C1568.89,-46.57 1584.78,-48.3 1600.14,-49.98"/>
<polygon fill="midnightblue" stroke="midnightblue" points="1553.87,-41.41 1543.55,-43.81 1553.11,-48.37 1553.87,-41.41"/>
</g>
<!-- Node12 -->
<g id="node12" class="node">
<title>Node12</title>
<g id="a_node12"><a xlink:href="structDGtal_1_1concepts_1_1CTrivialImage.html" target="_top" xlink:title="Aim: Defines the concept describing an image without extra ranges, which is a refinement of CTrivialC...">
<polygon fill="white" stroke="black" points="1620.5,-0.5 1620.5,-30.5 1756.5,-30.5 1756.5,-0.5 1620.5,-0.5"/>
<text text-anchor="start" x="1628.5" y="-18.5" font-family="FreeSans" font-size="10.00">DGtal::concepts::CTrivial</text>
<text text-anchor="middle" x="1688.5" y="-7.5" font-family="FreeSans" font-size="10.00">Image&lt; I &gt;</text>
</a>
</g>
</g>
<!-- Node9&#45;&gt;Node12 -->
<g id="edge12" class="edge">
<title>Node9&#45;&gt;Node12</title>
<path fill="none" stroke="midnightblue" d="M1553.76,-28.81C1575.56,-26.64 1599.1,-24.3 1620.26,-22.19"/>
<polygon fill="midnightblue" stroke="midnightblue" points="1553.16,-25.35 1543.55,-29.83 1553.85,-32.32 1553.16,-25.35"/>
</g>
<!-- Node11 -->
<g id="node11" class="node">
<title>Node11</title>
<g id="a_node11"><a xlink:href="structDGtal_1_1concepts_1_1CImage.html" target="_top" xlink:title="Aim: Defines the concept describing a read/write image, having an output iterator.">
<polygon fill="white" stroke="black" points="1821,-27 1821,-46 1984,-46 1984,-27 1821,-27"/>
<text text-anchor="middle" x="1902.5" y="-34" font-family="FreeSans" font-size="10.00">DGtal::concepts::CImage&lt; I &gt;</text>
</a>
</g>
</g>
<!-- Node10&#45;&gt;Node11 -->
<g id="edge11" class="edge">
<title>Node10&#45;&gt;Node11</title>
<path fill="none" stroke="midnightblue" d="M1787.49,-48.87C1798.69,-47.65 1810.01,-46.43 1820.94,-45.24"/>
<polygon fill="midnightblue" stroke="midnightblue" points="1786.82,-45.42 1777.26,-49.98 1787.58,-52.38 1786.82,-45.42"/>
</g>
<!-- Node12&#45;&gt;Node11 -->
<g id="edge13" class="edge">
<title>Node12&#45;&gt;Node11</title>
<path fill="none" stroke="midnightblue" d="M1766.77,-23.15C1784.34,-24.89 1803.04,-26.75 1820.75,-28.5"/>
<polygon fill="midnightblue" stroke="midnightblue" points="1766.87,-19.65 1756.58,-22.14 1766.18,-26.61 1766.87,-19.65"/>
</g>
</g>
</svg>
