<?xml version="1.0" encoding="UTF-8" standalone="no"?>
<!DOCTYPE svg PUBLIC "-//W3C//DTD SVG 1.1//EN"
 "http://www.w3.org/Graphics/SVG/1.1/DTD/svg11.dtd">
<!-- Generated by graphviz version 2.43.0 (0)
 -->
<!-- Title: DGtal::functors::VectorRounding&lt; TRealVector, TVector &gt; Pages: 1 -->
<svg width="499pt" height="62pt"
 viewBox="0.00 0.00 499.00 62.00" xmlns="http://www.w3.org/2000/svg" xmlns:xlink="http://www.w3.org/1999/xlink">
<g id="graph0" class="graph" transform="scale(1 1) rotate(0) translate(4 58)">
<title>DGtal::functors::VectorRounding&lt; TRealVector, TVector &gt;</title>
<polygon fill="white" stroke="transparent" points="-4,4 -4,-58 495,-58 495,4 -4,4"/>
<!-- Node1 -->
<g id="node1" class="node">
<title>Node1</title>
<g id="a_node1"><a xlink:title=" ">
<polygon fill="#bfbfbf" stroke="black" points="0,-6 0,-36 173,-36 173,-6 0,-6"/>
<text text-anchor="start" x="8" y="-24" font-family="FreeSans" font-size="10.00">DGtal::functors::VectorRounding</text>
<text text-anchor="middle" x="86.5" y="-13" font-family="FreeSans" font-size="10.00">&lt; TRealVector, TVector &gt;</text>
</a>
</g>
</g>
<!-- Node2 -->
<g id="node2" class="node">
<title>Node2</title>
<g id="a_node2"><a xlink:href="structDGtal_1_1functors_1_1VectorRounding.html" target="_top" xlink:title=" ">
<polygon fill="white" stroke="black" points="318,-0.5 318,-41.5 491,-41.5 491,-0.5 318,-0.5"/>
<text text-anchor="start" x="326" y="-29.5" font-family="FreeSans" font-size="10.00">DGtal::functors::VectorRounding</text>
<text text-anchor="start" x="326" y="-18.5" font-family="FreeSans" font-size="10.00">&lt; typename TSpace::RealPoint,</text>
<text text-anchor="middle" x="404.5" y="-7.5" font-family="FreeSans" font-size="10.00"> typename TSpace::Point &gt;</text>
</a>
</g>
</g>
<!-- Node1&#45;&gt;Node2 -->
<g id="edge1" class="edge">
<title>Node1&#45;&gt;Node2</title>
<path fill="none" stroke="orange" stroke-dasharray="5,2" d="M183.18,-21C226.08,-21 276.28,-21 317.92,-21"/>
<polygon fill="orange" stroke="orange" points="183.01,-17.5 173.01,-21 183.01,-24.5 183.01,-17.5"/>
<text text-anchor="start" x="191" y="-46" font-family="FreeSans" font-size="10.00"> &lt; typename TSpace::</text>
<text text-anchor="start" x="191" y="-35" font-family="FreeSans" font-size="10.00">RealPoint, typename</text>
<text text-anchor="middle" x="245.5" y="-24" font-family="FreeSans" font-size="10.00"> TSpace::Point &gt;</text>
</g>
</g>
</svg>
