<?xml version="1.0" encoding="UTF-8" standalone="no"?>
<!DOCTYPE svg PUBLIC "-//W3C//DTD SVG 1.1//EN"
 "http://www.w3.org/Graphics/SVG/1.1/DTD/svg11.dtd">
<!-- Generated by graphviz version 2.43.0 (0)
 -->
<!-- Title: DGtal::KhalimskyPreCell&lt; dim, TInteger &gt; Pages: 1 -->
<svg width="161pt" height="117pt"
 viewBox="0.00 0.00 161.00 117.00" xmlns="http://www.w3.org/2000/svg" xmlns:xlink="http://www.w3.org/1999/xlink">
<g id="graph0" class="graph" transform="scale(1 1) rotate(0) translate(4 113)">
<title>DGtal::KhalimskyPreCell&lt; dim, TInteger &gt;</title>
<polygon fill="white" stroke="transparent" points="-4,4 -4,-113 157,-113 157,4 -4,4"/>
<!-- Node1 -->
<g id="node1" class="node">
<title>Node1</title>
<g id="a_node1"><a xlink:title="Represents an unsigned cell in an unbounded cellular grid space by its Khalimsky coordinates.">
<polygon fill="#bfbfbf" stroke="black" points="0,-78.5 0,-108.5 136,-108.5 136,-78.5 0,-78.5"/>
<text text-anchor="start" x="8" y="-96.5" font-family="FreeSans" font-size="10.00">DGtal::KhalimskyPreCell</text>
<text text-anchor="middle" x="68" y="-85.5" font-family="FreeSans" font-size="10.00">&lt; dim, TInteger &gt;</text>
</a>
</g>
</g>
<!-- Node2 -->
<g id="node2" class="node">
<title>Node2</title>
<g id="a_node2"><a xlink:href="structDGtal_1_1KhalimskyPreCell.html" target="_top" xlink:title=" ">
<polygon fill="white" stroke="black" points="0,-0.5 0,-30.5 136,-30.5 136,-0.5 0,-0.5"/>
<text text-anchor="start" x="8" y="-18.5" font-family="FreeSans" font-size="10.00">DGtal::KhalimskyPreCell</text>
<text text-anchor="middle" x="68" y="-7.5" font-family="FreeSans" font-size="10.00">&lt; dim, Integer &gt;</text>
</a>
</g>
</g>
<!-- Node1&#45;&gt;Node2 -->
<g id="edge1" class="edge">
<title>Node1&#45;&gt;Node2</title>
<path fill="none" stroke="orange" stroke-dasharray="5,2" d="M68,-68.09C68,-55.76 68,-41.22 68,-30.73"/>
<polygon fill="orange" stroke="orange" points="64.5,-68.2 68,-78.2 71.5,-68.21 64.5,-68.2"/>
<text text-anchor="middle" x="110.5" y="-52" font-family="FreeSans" font-size="10.00"> &lt; dim, Integer &gt;</text>
</g>
</g>
</svg>
