<?xml version="1.0" encoding="UTF-8" standalone="no"?>
<!DOCTYPE svg PUBLIC "-//W3C//DTD SVG 1.1//EN"
 "http://www.w3.org/Graphics/SVG/1.1/DTD/svg11.dtd">
<!-- Generated by graphviz version 2.43.0 (0)
 -->
<!-- Title: testSignal.cpp Pages: 1 -->
<svg width="2438pt" height="487pt"
 viewBox="0.00 0.00 2437.91 487.00" xmlns="http://www.w3.org/2000/svg" xmlns:xlink="http://www.w3.org/1999/xlink">
<g id="graph0" class="graph" transform="scale(1 1) rotate(0) translate(4 483)">
<title>testSignal.cpp</title>
<polygon fill="white" stroke="transparent" points="-4,4 -4,-483 2433.91,-483 2433.91,4 -4,4"/>
<!-- Node1 -->
<g id="node1" class="node">
<title>Node1</title>
<g id="a_node1"><a xlink:title=" ">
<polygon fill="#bfbfbf" stroke="black" points="275,-459.5 275,-478.5 361,-478.5 361,-459.5 275,-459.5"/>
<text text-anchor="middle" x="318" y="-466.5" font-family="FreeSans" font-size="10.00">testSignal.cpp</text>
</a>
</g>
</g>
<!-- Node2 -->
<g id="node2" class="node">
<title>Node2</title>
<g id="a_node2"><a xlink:title=" ">
<polygon fill="white" stroke="#bfbfbf" points="1257,-0.5 1257,-19.5 1317,-19.5 1317,-0.5 1257,-0.5"/>
<text text-anchor="middle" x="1287" y="-7.5" font-family="FreeSans" font-size="10.00">iostream</text>
</a>
</g>
</g>
<!-- Node1&#45;&gt;Node2 -->
<g id="edge1" class="edge">
<title>Node1&#45;&gt;Node2</title>
<path fill="none" stroke="midnightblue" d="M274.78,-462.29C187.84,-449.58 0,-415.47 0,-358 0,-358 0,-358 0,-121 0,-84 18.95,-72.63 52,-56 106.51,-28.57 1039.82,-14.35 1246.63,-11.53"/>
<polygon fill="midnightblue" stroke="midnightblue" points="1246.8,-15.03 1256.75,-11.39 1246.71,-8.03 1246.8,-15.03"/>
</g>
<!-- Node3 -->
<g id="node3" class="node">
<title>Node3</title>
<g id="a_node3"><a xlink:href="Common_8h_source.html" target="_top" xlink:title=" ">
<polygon fill="white" stroke="black" points="851.5,-235.5 851.5,-254.5 978.5,-254.5 978.5,-235.5 851.5,-235.5"/>
<text text-anchor="middle" x="915" y="-242.5" font-family="FreeSans" font-size="10.00">DGtal/base/Common.h</text>
</a>
</g>
</g>
<!-- Node1&#45;&gt;Node3 -->
<g id="edge2" class="edge">
<title>Node1&#45;&gt;Node3</title>
<path fill="none" stroke="midnightblue" d="M341.04,-459.43C433.1,-425.2 774.82,-298.13 882.37,-258.13"/>
<polygon fill="midnightblue" stroke="midnightblue" points="883.88,-261.31 892.03,-254.54 881.44,-254.75 883.88,-261.31"/>
</g>
<!-- Node44 -->
<g id="node44" class="node">
<title>Node44</title>
<g id="a_node44"><a xlink:href="Signal_8h_source.html" target="_top" xlink:title=" ">
<polygon fill="white" stroke="black" points="260.5,-403.5 260.5,-422.5 375.5,-422.5 375.5,-403.5 260.5,-403.5"/>
<text text-anchor="middle" x="318" y="-410.5" font-family="FreeSans" font-size="10.00">DGtal/math/Signal.h</text>
</a>
</g>
</g>
<!-- Node1&#45;&gt;Node44 -->
<g id="edge73" class="edge">
<title>Node1&#45;&gt;Node44</title>
<path fill="none" stroke="midnightblue" d="M318,-459.08C318,-452.01 318,-441.86 318,-432.99"/>
<polygon fill="midnightblue" stroke="midnightblue" points="321.5,-432.75 318,-422.75 314.5,-432.75 321.5,-432.75"/>
</g>
<!-- Node3&#45;&gt;Node2 -->
<g id="edge3" class="edge">
<title>Node3&#45;&gt;Node2</title>
<path fill="none" stroke="midnightblue" d="M978.73,-243.23C1180.67,-240.47 1794.9,-229.58 1824,-199 1833.5,-189.02 1833.25,-178.21 1824,-168 1769.27,-107.61 1535.4,-160.38 1459,-132 1425.57,-119.58 1343.01,-55.66 1305.76,-26.07"/>
<polygon fill="midnightblue" stroke="midnightblue" points="1307.73,-23.16 1297.73,-19.66 1303.36,-28.63 1307.73,-23.16"/>
</g>
<!-- Node4 -->
<g id="node4" class="node">
<title>Node4</title>
<g id="a_node4"><a xlink:title=" ">
<polygon fill="white" stroke="#bfbfbf" points="486.5,-174 486.5,-193 551.5,-193 551.5,-174 486.5,-174"/>
<text text-anchor="middle" x="519" y="-181" font-family="FreeSans" font-size="10.00">exception</text>
</a>
</g>
</g>
<!-- Node3&#45;&gt;Node4 -->
<g id="edge4" class="edge">
<title>Node3&#45;&gt;Node4</title>
<path fill="none" stroke="midnightblue" d="M851.32,-239.87C779.9,-234.33 661,-222.35 561,-199 557.59,-198.2 554.07,-197.23 550.59,-196.18"/>
<polygon fill="midnightblue" stroke="midnightblue" points="551.58,-192.82 540.98,-193.04 549.4,-199.47 551.58,-192.82"/>
</g>
<!-- Node5 -->
<g id="node5" class="node">
<title>Node5</title>
<g id="a_node5"><a xlink:title=" ">
<polygon fill="white" stroke="#bfbfbf" points="570,-174 570,-193 674,-193 674,-174 570,-174"/>
<text text-anchor="middle" x="622" y="-181" font-family="FreeSans" font-size="10.00">boost/version.hpp</text>
</a>
</g>
</g>
<!-- Node3&#45;&gt;Node5 -->
<g id="edge5" class="edge">
<title>Node3&#45;&gt;Node5</title>
<path fill="none" stroke="midnightblue" d="M867.78,-235.44C820.82,-226.78 746.77,-212.76 683,-199 677.68,-197.85 672.11,-196.6 666.59,-195.33"/>
<polygon fill="midnightblue" stroke="midnightblue" points="667.32,-191.9 656.78,-193.03 665.72,-198.72 667.32,-191.9"/>
</g>
<!-- Node6 -->
<g id="node6" class="node">
<title>Node6</title>
<g id="a_node6"><a xlink:title=" ">
<polygon fill="white" stroke="#bfbfbf" points="692,-174 692,-193 832,-193 832,-174 692,-174"/>
<text text-anchor="middle" x="762" y="-181" font-family="FreeSans" font-size="10.00">boost/concept_check.hpp</text>
</a>
</g>
</g>
<!-- Node3&#45;&gt;Node6 -->
<g id="edge6" class="edge">
<title>Node3&#45;&gt;Node6</title>
<path fill="none" stroke="midnightblue" d="M893.08,-235.48C866.95,-225.31 823.09,-208.26 793.37,-196.7"/>
<polygon fill="midnightblue" stroke="midnightblue" points="794.47,-193.37 783.88,-193.01 791.93,-199.9 794.47,-193.37"/>
</g>
<!-- Node7 -->
<g id="node7" class="node">
<title>Node7</title>
<g id="a_node7"><a xlink:title=" ">
<polygon fill="white" stroke="#bfbfbf" points="850,-174 850,-193 980,-193 980,-174 850,-174"/>
<text text-anchor="middle" x="915" y="-181" font-family="FreeSans" font-size="10.00">boost/static_assert.hpp</text>
</a>
</g>
</g>
<!-- Node3&#45;&gt;Node7 -->
<g id="edge7" class="edge">
<title>Node3&#45;&gt;Node7</title>
<path fill="none" stroke="midnightblue" d="M915,-235.48C915,-227.08 915,-213.98 915,-203.16"/>
<polygon fill="midnightblue" stroke="midnightblue" points="918.5,-203.01 915,-193.01 911.5,-203.01 918.5,-203.01"/>
</g>
<!-- Node8 -->
<g id="node8" class="node">
<title>Node8</title>
<g id="a_node8"><a xlink:title=" ">
<polygon fill="white" stroke="#bfbfbf" points="998.5,-174 998.5,-193 1137.5,-193 1137.5,-174 998.5,-174"/>
<text text-anchor="middle" x="1068" y="-181" font-family="FreeSans" font-size="10.00">boost/concept/assert.hpp</text>
</a>
</g>
</g>
<!-- Node3&#45;&gt;Node8 -->
<g id="edge8" class="edge">
<title>Node3&#45;&gt;Node8</title>
<path fill="none" stroke="midnightblue" d="M936.92,-235.48C963.05,-225.31 1006.91,-208.26 1036.63,-196.7"/>
<polygon fill="midnightblue" stroke="midnightblue" points="1038.07,-199.9 1046.12,-193.01 1035.53,-193.37 1038.07,-199.9"/>
</g>
<!-- Node9 -->
<g id="node9" class="node">
<title>Node9</title>
<g id="a_node9"><a xlink:title=" ">
<polygon fill="white" stroke="#bfbfbf" points="1155.5,-174 1155.5,-193 1304.5,-193 1304.5,-174 1155.5,-174"/>
<text text-anchor="middle" x="1230" y="-181" font-family="FreeSans" font-size="10.00">boost/concept/requires.hpp</text>
</a>
</g>
</g>
<!-- Node3&#45;&gt;Node9 -->
<g id="edge9" class="edge">
<title>Node3&#45;&gt;Node9</title>
<path fill="none" stroke="midnightblue" d="M960.13,-235.48C1016.86,-224.76 1114.15,-206.38 1175.12,-194.87"/>
<polygon fill="midnightblue" stroke="midnightblue" points="1175.78,-198.3 1184.95,-193.01 1174.48,-191.43 1175.78,-198.3"/>
</g>
<!-- Node10 -->
<g id="node10" class="node">
<title>Node10</title>
<g id="a_node10"><a xlink:title=" ">
<polygon fill="white" stroke="#bfbfbf" points="1323,-168.5 1323,-198.5 1445,-198.5 1445,-168.5 1323,-168.5"/>
<text text-anchor="start" x="1331" y="-186.5" font-family="FreeSans" font-size="10.00">boost/iterator/iterator</text>
<text text-anchor="middle" x="1384" y="-175.5" font-family="FreeSans" font-size="10.00">_concepts.hpp</text>
</a>
</g>
</g>
<!-- Node3&#45;&gt;Node10 -->
<g id="edge10" class="edge">
<title>Node3&#45;&gt;Node10</title>
<path fill="none" stroke="midnightblue" d="M978.82,-238.63C1055.72,-231.74 1189.02,-218.51 1312.93,-199.08"/>
<polygon fill="midnightblue" stroke="midnightblue" points="1313.65,-202.51 1322.98,-197.48 1312.55,-195.59 1313.65,-202.51"/>
</g>
<!-- Node11 -->
<g id="node11" class="node">
<title>Node11</title>
<g id="a_node11"><a xlink:title=" ">
<polygon fill="white" stroke="#bfbfbf" points="1463,-174 1463,-193 1623,-193 1623,-174 1463,-174"/>
<text text-anchor="middle" x="1543" y="-181" font-family="FreeSans" font-size="10.00">boost/concept_archetype.hpp</text>
</a>
</g>
</g>
<!-- Node3&#45;&gt;Node11 -->
<g id="edge11" class="edge">
<title>Node3&#45;&gt;Node11</title>
<path fill="none" stroke="midnightblue" d="M978.64,-240.3C1079.64,-234.08 1282.75,-220.07 1454,-199 1464.02,-197.77 1474.64,-196.24 1484.93,-194.63"/>
<polygon fill="midnightblue" stroke="midnightblue" points="1485.74,-198.05 1495.06,-193.02 1484.64,-191.14 1485.74,-198.05"/>
</g>
<!-- Node12 -->
<g id="node12" class="node">
<title>Node12</title>
<g id="a_node12"><a xlink:title=" ">
<polygon fill="white" stroke="#bfbfbf" points="674.5,-112.5 674.5,-131.5 721.5,-131.5 721.5,-112.5 674.5,-112.5"/>
<text text-anchor="middle" x="698" y="-119.5" font-family="FreeSans" font-size="10.00">cmath</text>
</a>
</g>
</g>
<!-- Node3&#45;&gt;Node12 -->
<g id="edge12" class="edge">
<title>Node3&#45;&gt;Node12</title>
<path fill="none" stroke="midnightblue" d="M851.12,-242.72C726.49,-239.57 460.63,-229.33 433,-199 377.11,-137.65 397.3,-188.92 664.3,-132.16"/>
<polygon fill="midnightblue" stroke="midnightblue" points="665.27,-135.53 674.31,-130.01 663.8,-128.69 665.27,-135.53"/>
</g>
<!-- Node13 -->
<g id="node13" class="node">
<title>Node13</title>
<g id="a_node13"><a xlink:title=" ">
<polygon fill="white" stroke="#bfbfbf" points="1871,-174 1871,-193 1921,-193 1921,-174 1871,-174"/>
<text text-anchor="middle" x="1896" y="-181" font-family="FreeSans" font-size="10.00">stdio.h</text>
</a>
</g>
</g>
<!-- Node3&#45;&gt;Node13 -->
<g id="edge13" class="edge">
<title>Node3&#45;&gt;Node13</title>
<path fill="none" stroke="midnightblue" d="M978.67,-243.5C1161.96,-241.68 1688.48,-233.49 1857,-199 1860.26,-198.33 1863.6,-197.44 1866.9,-196.42"/>
<polygon fill="midnightblue" stroke="midnightblue" points="1868.2,-199.67 1876.51,-193.09 1865.91,-193.06 1868.2,-199.67"/>
</g>
<!-- Node14 -->
<g id="node14" class="node">
<title>Node14</title>
<g id="a_node14"><a xlink:href="Config_8h_source.html" target="_top" xlink:title=" ">
<polygon fill="white" stroke="black" points="2299.5,-56.5 2299.5,-75.5 2412.5,-75.5 2412.5,-56.5 2299.5,-56.5"/>
<text text-anchor="middle" x="2356" y="-63.5" font-family="FreeSans" font-size="10.00">DGtal/base/Config.h</text>
</a>
</g>
</g>
<!-- Node3&#45;&gt;Node14 -->
<g id="edge14" class="edge">
<title>Node3&#45;&gt;Node14</title>
<path fill="none" stroke="midnightblue" d="M978.76,-244.02C1200.44,-243.71 1936.7,-239.6 2169,-199 2265.09,-182.2 2320.51,-210.8 2378,-132 2388.48,-117.63 2379.26,-97.91 2369.74,-83.97"/>
<polygon fill="midnightblue" stroke="midnightblue" points="2372.42,-81.71 2363.66,-75.76 2366.8,-85.88 2372.42,-81.71"/>
</g>
<!-- Node16 -->
<g id="node16" class="node">
<title>Node16</title>
<g id="a_node16"><a xlink:href="Trace_8h_source.html" target="_top" xlink:title=" ">
<polygon fill="white" stroke="black" points="1977,-174 1977,-193 2085,-193 2085,-174 1977,-174"/>
<text text-anchor="middle" x="2031" y="-181" font-family="FreeSans" font-size="10.00">DGtal/base/Trace.h</text>
</a>
</g>
</g>
<!-- Node3&#45;&gt;Node16 -->
<g id="edge17" class="edge">
<title>Node3&#45;&gt;Node16</title>
<path fill="none" stroke="midnightblue" d="M978.52,-242.67C1174.96,-238.32 1770.94,-223.43 1963,-199 1970.66,-198.03 1978.74,-196.63 1986.55,-195.09"/>
<polygon fill="midnightblue" stroke="midnightblue" points="1987.52,-198.46 1996.6,-193 1986.1,-191.61 1987.52,-198.46"/>
</g>
<!-- Node23 -->
<g id="node23" class="node">
<title>Node23</title>
<g id="a_node23"><a xlink:href="TraceWriterTerm_8h_source.html" target="_top" xlink:title=" ">
<polygon fill="white" stroke="black" points="2190,-112.5 2190,-131.5 2352,-131.5 2352,-112.5 2190,-112.5"/>
<text text-anchor="middle" x="2271" y="-119.5" font-family="FreeSans" font-size="10.00">DGtal/base/TraceWriterTerm.h</text>
</a>
</g>
</g>
<!-- Node3&#45;&gt;Node23 -->
<g id="edge40" class="edge">
<title>Node3&#45;&gt;Node23</title>
<path fill="none" stroke="midnightblue" d="M978.84,-243.16C1211.44,-239.89 2005.66,-226.78 2116,-199 2166.88,-186.19 2220.65,-155.36 2249.57,-137.15"/>
<polygon fill="midnightblue" stroke="midnightblue" points="2251.52,-140.06 2258.05,-131.72 2247.74,-134.16 2251.52,-140.06"/>
</g>
<!-- Node24 -->
<g id="node24" class="node">
<title>Node24</title>
<g id="a_node24"><a xlink:href="Assert_8h_source.html" target="_top" xlink:title=" ">
<polygon fill="white" stroke="black" points="2058.5,-112.5 2058.5,-131.5 2171.5,-131.5 2171.5,-112.5 2058.5,-112.5"/>
<text text-anchor="middle" x="2115" y="-119.5" font-family="FreeSans" font-size="10.00">DGtal/base/Assert.h</text>
</a>
</g>
</g>
<!-- Node3&#45;&gt;Node24 -->
<g id="edge45" class="edge">
<title>Node3&#45;&gt;Node24</title>
<path fill="none" stroke="midnightblue" d="M978.6,-243.64C1217.52,-242 2050.01,-233.83 2094,-199 2110.98,-185.55 2114.99,-159.69 2115.58,-141.9"/>
<polygon fill="midnightblue" stroke="midnightblue" points="2119.08,-141.82 2115.58,-131.82 2112.08,-141.82 2119.08,-141.82"/>
</g>
<!-- Node27 -->
<g id="node27" class="node">
<title>Node27</title>
<g id="a_node27"><a xlink:href="TraceWriterFile_8h_source.html" target="_top" xlink:title=" ">
<polygon fill="white" stroke="black" points="1618.5,-112.5 1618.5,-131.5 1773.5,-131.5 1773.5,-112.5 1618.5,-112.5"/>
<text text-anchor="middle" x="1696" y="-119.5" font-family="FreeSans" font-size="10.00">DGtal/base/TraceWriterFile.h</text>
</a>
</g>
</g>
<!-- Node3&#45;&gt;Node27 -->
<g id="edge41" class="edge">
<title>Node3&#45;&gt;Node27</title>
<path fill="none" stroke="midnightblue" d="M978.81,-243.57C1196.31,-241.8 1897.06,-233.43 1930,-199 1939.52,-189.04 1938.77,-178.62 1930,-168 1919.87,-155.74 1837.48,-141.97 1773.29,-132.93"/>
<polygon fill="midnightblue" stroke="midnightblue" points="1773.55,-129.43 1763.16,-131.52 1772.59,-136.37 1773.55,-129.43"/>
</g>
<!-- Node28 -->
<g id="node28" class="node">
<title>Node28</title>
<g id="a_node28"><a xlink:href="ConceptUtils_8h_source.html" target="_top" xlink:title=" ">
<polygon fill="white" stroke="black" points="1030.5,-112.5 1030.5,-131.5 1175.5,-131.5 1175.5,-112.5 1030.5,-112.5"/>
<text text-anchor="middle" x="1103" y="-119.5" font-family="FreeSans" font-size="10.00">DGtal/base/ConceptUtils.h</text>
</a>
</g>
</g>
<!-- Node3&#45;&gt;Node28 -->
<g id="edge46" class="edge">
<title>Node3&#45;&gt;Node28</title>
<path fill="none" stroke="midnightblue" d="M851.32,-242.07C736.08,-237.9 502.53,-226.18 478,-199 468.77,-188.77 468.58,-178.06 478,-168 517.7,-125.59 926.05,-136.33 1019.9,-131.9"/>
<polygon fill="midnightblue" stroke="midnightblue" points="1020.4,-135.38 1030.16,-131.25 1019.95,-128.39 1020.4,-135.38"/>
</g>
<!-- Node29 -->
<g id="node29" class="node">
<title>Node29</title>
<g id="a_node29"><a xlink:href="BasicTypes_8h_source.html" target="_top" xlink:title=" ">
<polygon fill="white" stroke="black" points="875.5,-112.5 875.5,-131.5 1012.5,-131.5 1012.5,-112.5 875.5,-112.5"/>
<text text-anchor="middle" x="944" y="-119.5" font-family="FreeSans" font-size="10.00">DGtal/base/BasicTypes.h</text>
</a>
</g>
</g>
<!-- Node3&#45;&gt;Node29 -->
<g id="edge48" class="edge">
<title>Node3&#45;&gt;Node29</title>
<path fill="none" stroke="midnightblue" d="M851.16,-242.57C728.79,-239.18 470.87,-228.56 444,-199 434.73,-188.8 434.7,-178.17 444,-168 458,-152.68 727.99,-135.25 865.27,-127.32"/>
<polygon fill="midnightblue" stroke="midnightblue" points="865.53,-130.81 875.32,-126.75 865.13,-123.83 865.53,-130.81"/>
</g>
<!-- Node32 -->
<g id="node32" class="node">
<title>Node32</title>
<g id="a_node32"><a xlink:href="BasicFunctors_8h_source.html" target="_top" xlink:title=" ">
<polygon fill="white" stroke="black" points="204,-174 204,-193 354,-193 354,-174 204,-174"/>
<text text-anchor="middle" x="279" y="-181" font-family="FreeSans" font-size="10.00">DGtal/base/BasicFunctors.h</text>
</a>
</g>
</g>
<!-- Node3&#45;&gt;Node32 -->
<g id="edge53" class="edge">
<title>Node3&#45;&gt;Node32</title>
<path fill="none" stroke="midnightblue" d="M851.09,-240.72C747.34,-234.76 536.34,-220.71 359,-199 348.98,-197.77 338.36,-196.24 328.22,-194.64"/>
<polygon fill="midnightblue" stroke="midnightblue" points="328.71,-191.18 318.28,-193.03 327.59,-198.09 328.71,-191.18"/>
</g>
<!-- Node42 -->
<g id="node42" class="node">
<title>Node42</title>
<g id="a_node42"><a xlink:href="BasicArchetypes_8h_source.html" target="_top" xlink:title=" ">
<polygon fill="white" stroke="black" points="1194,-112.5 1194,-131.5 1358,-131.5 1358,-112.5 1194,-112.5"/>
<text text-anchor="middle" x="1276" y="-119.5" font-family="FreeSans" font-size="10.00">DGtal/base/BasicArchetypes.h</text>
</a>
</g>
</g>
<!-- Node3&#45;&gt;Node42 -->
<g id="edge69" class="edge">
<title>Node3&#45;&gt;Node42</title>
<path fill="none" stroke="midnightblue" d="M978.52,-242.35C1149.79,-237.59 1609.79,-222.65 1632,-199 1641.43,-188.96 1641.11,-178.34 1632,-168 1627.56,-162.97 1467.9,-144.33 1363.93,-132.68"/>
<polygon fill="midnightblue" stroke="midnightblue" points="1364.06,-129.17 1353.73,-131.54 1363.28,-136.13 1364.06,-129.17"/>
</g>
<!-- Node43 -->
<g id="node43" class="node">
<title>Node43</title>
<g id="a_node43"><a xlink:href="Exceptions_8h_source.html" target="_top" xlink:title=" ">
<polygon fill="white" stroke="black" points="1679,-174 1679,-193 1815,-193 1815,-174 1679,-174"/>
<text text-anchor="middle" x="1747" y="-181" font-family="FreeSans" font-size="10.00">DGtal/base/Exceptions.h</text>
</a>
</g>
</g>
<!-- Node3&#45;&gt;Node43 -->
<g id="edge71" class="edge">
<title>Node3&#45;&gt;Node43</title>
<path fill="none" stroke="midnightblue" d="M978.93,-242.64C1108.68,-239.34 1412.07,-228.85 1665,-199 1674.48,-197.88 1684.53,-196.37 1694.22,-194.75"/>
<polygon fill="midnightblue" stroke="midnightblue" points="1694.9,-198.19 1704.15,-193.04 1693.7,-191.29 1694.9,-198.19"/>
</g>
<!-- Node14&#45;&gt;Node2 -->
<g id="edge15" class="edge">
<title>Node14&#45;&gt;Node2</title>
<path fill="none" stroke="midnightblue" d="M2299.46,-59.95C2282.59,-58.54 2264.05,-57.1 2247,-56 1890.76,-32.95 1459.42,-17 1327.35,-12.38"/>
<polygon fill="midnightblue" stroke="midnightblue" points="1327.4,-8.88 1317.29,-12.03 1327.16,-15.87 1327.4,-8.88"/>
</g>
<!-- Node15 -->
<g id="node15" class="node">
<title>Node15</title>
<g id="a_node15"><a xlink:title=" ">
<polygon fill="white" stroke="#bfbfbf" points="2249,-0.5 2249,-19.5 2293,-19.5 2293,-0.5 2249,-0.5"/>
<text text-anchor="middle" x="2271" y="-7.5" font-family="FreeSans" font-size="10.00">string</text>
</a>
</g>
</g>
<!-- Node14&#45;&gt;Node15 -->
<g id="edge16" class="edge">
<title>Node14&#45;&gt;Node15</title>
<path fill="none" stroke="midnightblue" d="M2342.34,-56.32C2329.08,-47.9 2308.73,-34.97 2293.15,-25.07"/>
<polygon fill="midnightblue" stroke="midnightblue" points="2294.94,-22.06 2284.62,-19.65 2291.19,-27.97 2294.94,-22.06"/>
</g>
<!-- Node16&#45;&gt;Node2 -->
<g id="edge18" class="edge">
<title>Node16&#45;&gt;Node2</title>
<path fill="none" stroke="midnightblue" d="M1976.83,-174.09C1961.7,-171.91 1945.23,-169.7 1930,-168 1830.52,-156.88 1565.38,-185.84 1481,-132 1448.28,-111.12 1468.35,-80.18 1438,-56 1406.15,-30.62 1360.27,-19.54 1327.45,-14.71"/>
<polygon fill="midnightblue" stroke="midnightblue" points="1327.67,-11.21 1317.29,-13.35 1326.74,-18.15 1327.67,-11.21"/>
</g>
<!-- Node16&#45;&gt;Node14 -->
<g id="edge22" class="edge">
<title>Node16&#45;&gt;Node14</title>
<path fill="none" stroke="midnightblue" d="M2085.01,-182.39C2169.29,-180.93 2326.08,-172.68 2361,-132 2371.92,-119.29 2368.53,-99.54 2363.74,-85.14"/>
<polygon fill="midnightblue" stroke="midnightblue" points="2367.01,-83.89 2360.18,-75.78 2360.46,-86.37 2367.01,-83.89"/>
</g>
<!-- Node16&#45;&gt;Node15 -->
<g id="edge20" class="edge">
<title>Node16&#45;&gt;Node15</title>
<path fill="none" stroke="midnightblue" d="M2085.02,-179.51C2169.75,-174.02 2329.26,-160.21 2378,-132 2411.78,-112.45 2445.33,-87.29 2422,-56 2394.81,-19.53 2339.23,-11.45 2303.61,-10.27"/>
<polygon fill="midnightblue" stroke="midnightblue" points="2303.31,-6.76 2293.25,-10.1 2303.2,-13.76 2303.31,-6.76"/>
</g>
<!-- Node17 -->
<g id="node17" class="node">
<title>Node17</title>
<g id="a_node17"><a xlink:title=" ">
<polygon fill="white" stroke="#bfbfbf" points="1875.5,-0.5 1875.5,-19.5 1932.5,-19.5 1932.5,-0.5 1875.5,-0.5"/>
<text text-anchor="middle" x="1904" y="-7.5" font-family="FreeSans" font-size="10.00">ostream</text>
</a>
</g>
</g>
<!-- Node16&#45;&gt;Node17 -->
<g id="edge19" class="edge">
<title>Node16&#45;&gt;Node17</title>
<path fill="none" stroke="midnightblue" d="M2027.78,-173.81C2022.47,-160.05 2011.05,-132.68 1997,-112 1974.4,-78.73 1941.18,-45.43 1921.17,-26.6"/>
<polygon fill="midnightblue" stroke="midnightblue" points="1923.42,-23.92 1913.71,-19.68 1918.66,-29.05 1923.42,-23.92"/>
</g>
<!-- Node18 -->
<g id="node18" class="node">
<title>Node18</title>
<g id="a_node18"><a xlink:title=" ">
<polygon fill="white" stroke="#bfbfbf" points="1791.5,-112.5 1791.5,-131.5 1834.5,-131.5 1834.5,-112.5 1791.5,-112.5"/>
<text text-anchor="middle" x="1813" y="-119.5" font-family="FreeSans" font-size="10.00">stack</text>
</a>
</g>
</g>
<!-- Node16&#45;&gt;Node18 -->
<g id="edge21" class="edge">
<title>Node16&#45;&gt;Node18</title>
<path fill="none" stroke="midnightblue" d="M1998.52,-173.93C1963.07,-164.53 1904.42,-148.85 1844.32,-132.05"/>
<polygon fill="midnightblue" stroke="midnightblue" points="1845.24,-128.67 1834.67,-129.35 1843.35,-135.41 1845.24,-128.67"/>
</g>
<!-- Node19 -->
<g id="node19" class="node">
<title>Node19</title>
<g id="a_node19"><a xlink:href="Clock_8h_source.html" target="_top" xlink:title=" ">
<polygon fill="white" stroke="black" points="1490,-112.5 1490,-131.5 1600,-131.5 1600,-112.5 1490,-112.5"/>
<text text-anchor="middle" x="1545" y="-119.5" font-family="FreeSans" font-size="10.00">DGtal/base/Clock.h</text>
</a>
</g>
</g>
<!-- Node16&#45;&gt;Node19 -->
<g id="edge23" class="edge">
<title>Node16&#45;&gt;Node19</title>
<path fill="none" stroke="midnightblue" d="M1976.79,-174.41C1961.66,-172.23 1945.2,-169.95 1930,-168 1791.23,-150.24 1753.68,-149.83 1610.36,-132.01"/>
<polygon fill="midnightblue" stroke="midnightblue" points="1610.66,-128.52 1600.31,-130.76 1609.79,-135.47 1610.66,-128.52"/>
</g>
<!-- Node22 -->
<g id="node22" class="node">
<title>Node22</title>
<g id="a_node22"><a xlink:href="TraceWriter_8h_source.html" target="_top" xlink:title=" ">
<polygon fill="white" stroke="black" points="1787.5,-56.5 1787.5,-75.5 1924.5,-75.5 1924.5,-56.5 1787.5,-56.5"/>
<text text-anchor="middle" x="1856" y="-63.5" font-family="FreeSans" font-size="10.00">DGtal/base/TraceWriter.h</text>
</a>
</g>
</g>
<!-- Node16&#45;&gt;Node22 -->
<g id="edge27" class="edge">
<title>Node16&#45;&gt;Node22</title>
<path fill="none" stroke="midnightblue" d="M2026.01,-173.91C2017.12,-159.28 1997.17,-129.43 1973,-112 1951.63,-96.59 1924.3,-85.69 1901.43,-78.48"/>
<polygon fill="midnightblue" stroke="midnightblue" points="1902.19,-75.05 1891.6,-75.52 1900.17,-81.75 1902.19,-75.05"/>
</g>
<!-- Node16&#45;&gt;Node23 -->
<g id="edge30" class="edge">
<title>Node16&#45;&gt;Node23</title>
<path fill="none" stroke="midnightblue" d="M2065.39,-173.98C2107.89,-163.44 2180.3,-145.49 2226.87,-133.94"/>
<polygon fill="midnightblue" stroke="midnightblue" points="2227.81,-137.31 2236.68,-131.51 2226.13,-130.52 2227.81,-137.31"/>
</g>
<!-- Node16&#45;&gt;Node24 -->
<g id="edge35" class="edge">
<title>Node16&#45;&gt;Node24</title>
<path fill="none" stroke="midnightblue" d="M2038.13,-173.98C2049.63,-164.34 2071.66,-148.52 2089.33,-137.05"/>
<polygon fill="midnightblue" stroke="midnightblue" points="2091.51,-139.81 2098.09,-131.51 2087.77,-133.9 2091.51,-139.81"/>
</g>
<!-- Node26 -->
<g id="node26" class="node">
<title>Node26</title>
<g id="a_node26"><a xlink:href="Trace_8ih_source.html" target="_top" xlink:title=" ">
<polygon fill="white" stroke="black" points="1852.5,-112.5 1852.5,-131.5 1963.5,-131.5 1963.5,-112.5 1852.5,-112.5"/>
<text text-anchor="middle" x="1908" y="-119.5" font-family="FreeSans" font-size="10.00">DGtal/base/Trace.ih</text>
</a>
</g>
</g>
<!-- Node16&#45;&gt;Node26 -->
<g id="edge39" class="edge">
<title>Node16&#45;&gt;Node26</title>
<path fill="none" stroke="midnightblue" d="M2013.38,-173.98C1992.83,-164.03 1958.64,-147.49 1934.79,-135.96"/>
<polygon fill="midnightblue" stroke="midnightblue" points="1936.12,-132.71 1925.59,-131.51 1933.07,-139.01 1936.12,-132.71"/>
</g>
<!-- Node19&#45;&gt;Node2 -->
<g id="edge24" class="edge">
<title>Node19&#45;&gt;Node2</title>
<path fill="none" stroke="midnightblue" d="M1538.39,-112.34C1527.16,-98.26 1502.94,-70.53 1476,-56 1428.72,-30.5 1367.11,-19.31 1327.31,-14.5"/>
<polygon fill="midnightblue" stroke="midnightblue" points="1327.52,-11 1317.19,-13.35 1326.73,-17.95 1327.52,-11"/>
</g>
<!-- Node20 -->
<g id="node20" class="node">
<title>Node20</title>
<g id="a_node20"><a xlink:title=" ">
<polygon fill="white" stroke="#bfbfbf" points="1171.5,-56.5 1171.5,-75.5 1220.5,-75.5 1220.5,-56.5 1171.5,-56.5"/>
<text text-anchor="middle" x="1196" y="-63.5" font-family="FreeSans" font-size="10.00">cstdlib</text>
</a>
</g>
</g>
<!-- Node19&#45;&gt;Node20 -->
<g id="edge25" class="edge">
<title>Node19&#45;&gt;Node20</title>
<path fill="none" stroke="midnightblue" d="M1489.7,-112.44C1416.99,-101.19 1291.4,-81.76 1230.75,-72.38"/>
<polygon fill="midnightblue" stroke="midnightblue" points="1230.98,-68.87 1220.56,-70.8 1229.91,-75.79 1230.98,-68.87"/>
</g>
<!-- Node21 -->
<g id="node21" class="node">
<title>Node21</title>
<g id="a_node21"><a xlink:href="Clock_8ih_source.html" target="_top" xlink:title=" ">
<polygon fill="white" stroke="black" points="1528.5,-56.5 1528.5,-75.5 1641.5,-75.5 1641.5,-56.5 1528.5,-56.5"/>
<text text-anchor="middle" x="1585" y="-63.5" font-family="FreeSans" font-size="10.00">DGtal/base/Clock.ih</text>
</a>
</g>
</g>
<!-- Node19&#45;&gt;Node21 -->
<g id="edge26" class="edge">
<title>Node19&#45;&gt;Node21</title>
<path fill="none" stroke="midnightblue" d="M1551.61,-112.08C1557.26,-104.46 1565.54,-93.26 1572.45,-83.94"/>
<polygon fill="midnightblue" stroke="midnightblue" points="1575.38,-85.87 1578.52,-75.75 1569.75,-81.7 1575.38,-85.87"/>
</g>
<!-- Node22&#45;&gt;Node2 -->
<g id="edge28" class="edge">
<title>Node22&#45;&gt;Node2</title>
<path fill="none" stroke="midnightblue" d="M1787.37,-58.49C1667.42,-47.1 1423.3,-23.94 1327.18,-14.81"/>
<polygon fill="midnightblue" stroke="midnightblue" points="1327.29,-11.31 1317.01,-13.85 1326.63,-18.28 1327.29,-11.31"/>
</g>
<!-- Node22&#45;&gt;Node17 -->
<g id="edge29" class="edge">
<title>Node22&#45;&gt;Node17</title>
<path fill="none" stroke="midnightblue" d="M1863.93,-56.08C1870.85,-48.3 1881.07,-36.8 1889.45,-27.37"/>
<polygon fill="midnightblue" stroke="midnightblue" points="1892.19,-29.55 1896.22,-19.75 1886.96,-24.9 1892.19,-29.55"/>
</g>
<!-- Node23&#45;&gt;Node2 -->
<g id="edge31" class="edge">
<title>Node23&#45;&gt;Node2</title>
<path fill="none" stroke="midnightblue" d="M2261.99,-112.22C2246.15,-97.43 2211.6,-68.01 2176,-56 2095.04,-28.69 1490.56,-14.98 1327.45,-11.76"/>
<polygon fill="midnightblue" stroke="midnightblue" points="1327.42,-8.26 1317.36,-11.56 1327.29,-15.25 1327.42,-8.26"/>
</g>
<!-- Node23&#45;&gt;Node14 -->
<g id="edge34" class="edge">
<title>Node23&#45;&gt;Node14</title>
<path fill="none" stroke="midnightblue" d="M2284.66,-112.32C2297.92,-103.9 2318.27,-90.97 2333.85,-81.07"/>
<polygon fill="midnightblue" stroke="midnightblue" points="2335.81,-83.97 2342.38,-75.65 2332.06,-78.06 2335.81,-83.97"/>
</g>
<!-- Node23&#45;&gt;Node15 -->
<g id="edge32" class="edge">
<title>Node23&#45;&gt;Node15</title>
<path fill="none" stroke="midnightblue" d="M2271,-112.37C2271,-94.62 2271,-53.67 2271,-29.6"/>
<polygon fill="midnightblue" stroke="midnightblue" points="2274.5,-29.59 2271,-19.59 2267.5,-29.59 2274.5,-29.59"/>
</g>
<!-- Node23&#45;&gt;Node22 -->
<g id="edge33" class="edge">
<title>Node23&#45;&gt;Node22</title>
<path fill="none" stroke="midnightblue" d="M2205.24,-112.44C2130.87,-102.77 2009.97,-87.04 1931.72,-76.85"/>
<polygon fill="midnightblue" stroke="midnightblue" points="1931.82,-73.34 1921.45,-75.52 1930.92,-80.28 1931.82,-73.34"/>
</g>
<!-- Node24&#45;&gt;Node15 -->
<g id="edge38" class="edge">
<title>Node24&#45;&gt;Node15</title>
<path fill="none" stroke="midnightblue" d="M2127.24,-112.37C2153.9,-93.57 2217.44,-48.77 2250.39,-25.53"/>
<polygon fill="midnightblue" stroke="midnightblue" points="2252.66,-28.21 2258.82,-19.59 2248.63,-22.49 2252.66,-28.21"/>
</g>
<!-- Node24&#45;&gt;Node16 -->
<g id="edge36" class="edge">
<title>Node24&#45;&gt;Node16</title>
<path fill="none" stroke="midnightblue" d="M2107.88,-131.51C2096.4,-141.13 2074.37,-156.96 2056.7,-168.43"/>
<polygon fill="midnightblue" stroke="midnightblue" points="2054.51,-165.67 2047.94,-173.98 2058.26,-171.59 2054.51,-165.67"/>
</g>
<!-- Node25 -->
<g id="node25" class="node">
<title>Node25</title>
<g id="a_node25"><a xlink:title=" ">
<polygon fill="white" stroke="#bfbfbf" points="2019.5,-56.5 2019.5,-75.5 2166.5,-75.5 2166.5,-56.5 2019.5,-56.5"/>
<text text-anchor="middle" x="2093" y="-63.5" font-family="FreeSans" font-size="10.00">boost/current_function.hpp</text>
</a>
</g>
</g>
<!-- Node24&#45;&gt;Node25 -->
<g id="edge37" class="edge">
<title>Node24&#45;&gt;Node25</title>
<path fill="none" stroke="midnightblue" d="M2111.37,-112.08C2108.39,-104.77 2104.07,-94.18 2100.38,-85.1"/>
<polygon fill="midnightblue" stroke="midnightblue" points="2103.58,-83.69 2096.57,-75.75 2097.1,-86.33 2103.58,-83.69"/>
</g>
<!-- Node27&#45;&gt;Node2 -->
<g id="edge42" class="edge">
<title>Node27&#45;&gt;Node2</title>
<path fill="none" stroke="midnightblue" d="M1692.65,-112.04C1686.7,-97.54 1672.84,-69.22 1651,-56 1597.25,-23.48 1410.12,-14.36 1327.15,-11.88"/>
<polygon fill="midnightblue" stroke="midnightblue" points="1327.18,-8.38 1317.09,-11.6 1326.99,-15.38 1327.18,-8.38"/>
</g>
<!-- Node27&#45;&gt;Node15 -->
<g id="edge43" class="edge">
<title>Node27&#45;&gt;Node15</title>
<path fill="none" stroke="midnightblue" d="M1746.35,-112.49C1794.66,-104.09 1869.58,-90.44 1934,-76 1968.5,-68.27 1976.44,-63.47 2011,-56 2092.56,-38.38 2189.67,-23.06 2238.92,-15.68"/>
<polygon fill="midnightblue" stroke="midnightblue" points="2239.59,-19.12 2248.97,-14.18 2238.56,-12.19 2239.59,-19.12"/>
</g>
<!-- Node27&#45;&gt;Node22 -->
<g id="edge44" class="edge">
<title>Node27&#45;&gt;Node22</title>
<path fill="none" stroke="midnightblue" d="M1721.35,-112.44C1748.27,-103.36 1791,-88.94 1821.09,-78.78"/>
<polygon fill="midnightblue" stroke="midnightblue" points="1822.41,-82.03 1830.77,-75.52 1820.17,-75.4 1822.41,-82.03"/>
</g>
<!-- Node28&#45;&gt;Node2 -->
<g id="edge47" class="edge">
<title>Node28&#45;&gt;Node2</title>
<path fill="none" stroke="midnightblue" d="M1142.91,-112.45C1169.22,-105.52 1203.57,-93.92 1230,-76 1248.75,-63.29 1265.21,-42.97 1275.55,-28.43"/>
<polygon fill="midnightblue" stroke="midnightblue" points="1278.67,-30.08 1281.43,-19.86 1272.89,-26.13 1278.67,-30.08"/>
</g>
<!-- Node29&#45;&gt;Node2 -->
<g id="edge50" class="edge">
<title>Node29&#45;&gt;Node2</title>
<path fill="none" stroke="midnightblue" d="M944.35,-112.24C945.43,-98.02 949.76,-70.09 967,-56 1009.06,-21.63 1170.58,-13.51 1246.78,-11.59"/>
<polygon fill="midnightblue" stroke="midnightblue" points="1247.02,-15.09 1256.94,-11.36 1246.86,-8.09 1247.02,-15.09"/>
</g>
<!-- Node29&#45;&gt;Node20 -->
<g id="edge49" class="edge">
<title>Node29&#45;&gt;Node20</title>
<path fill="none" stroke="midnightblue" d="M989.91,-112.45C1032.18,-104.38 1096.84,-91.53 1161.26,-76.31"/>
<polygon fill="midnightblue" stroke="midnightblue" points="1162.26,-79.67 1171.18,-73.95 1160.64,-72.86 1162.26,-79.67"/>
</g>
<!-- Node30 -->
<g id="node30" class="node">
<title>Node30</title>
<g id="a_node30"><a xlink:title=" ">
<polygon fill="white" stroke="#bfbfbf" points="1052.5,-56.5 1052.5,-75.5 1153.5,-75.5 1153.5,-56.5 1052.5,-56.5"/>
<text text-anchor="middle" x="1103" y="-63.5" font-family="FreeSans" font-size="10.00">boost/cstdint.hpp</text>
</a>
</g>
</g>
<!-- Node29&#45;&gt;Node30 -->
<g id="edge51" class="edge">
<title>Node29&#45;&gt;Node30</title>
<path fill="none" stroke="midnightblue" d="M969.19,-112.44C995.94,-103.36 1038.4,-88.94 1068.31,-78.78"/>
<polygon fill="midnightblue" stroke="midnightblue" points="1069.58,-82.05 1077.92,-75.52 1067.33,-75.42 1069.58,-82.05"/>
</g>
<!-- Node31 -->
<g id="node31" class="node">
<title>Node31</title>
<g id="a_node31"><a xlink:title=" ">
<polygon fill="white" stroke="#bfbfbf" points="975.5,-56.5 975.5,-75.5 1034.5,-75.5 1034.5,-56.5 975.5,-56.5"/>
<text text-anchor="middle" x="1005" y="-63.5" font-family="FreeSans" font-size="10.00">gmpxx.h</text>
</a>
</g>
</g>
<!-- Node29&#45;&gt;Node31 -->
<g id="edge52" class="edge">
<title>Node29&#45;&gt;Node31</title>
<path fill="none" stroke="midnightblue" d="M953.8,-112.32C962.82,-104.34 976.41,-92.31 987.32,-82.65"/>
<polygon fill="midnightblue" stroke="midnightblue" points="989.85,-85.08 995.02,-75.83 985.21,-79.84 989.85,-85.08"/>
</g>
<!-- Node32&#45;&gt;Node3 -->
<g id="edge64" class="edge">
<title>Node32&#45;&gt;Node3</title>
<path fill="none" stroke="midnightblue" d="M335.6,-193.03C349.21,-195.19 363.64,-197.36 377,-199 542.44,-219.25 737.19,-232.84 841.07,-239.41"/>
<polygon fill="midnightblue" stroke="midnightblue" points="840.94,-242.91 851.14,-240.05 841.38,-235.92 840.94,-242.91"/>
</g>
<!-- Node32&#45;&gt;Node12 -->
<g id="edge56" class="edge">
<title>Node32&#45;&gt;Node12</title>
<path fill="none" stroke="midnightblue" d="M329.31,-173.93C341.92,-171.89 355.44,-169.78 368,-168 496.86,-149.73 533.41,-157.72 664.32,-132.08"/>
<polygon fill="midnightblue" stroke="midnightblue" points="665.21,-135.48 674.33,-130.09 663.84,-128.61 665.21,-135.48"/>
</g>
<!-- Node33 -->
<g id="node33" class="node">
<title>Node33</title>
<g id="a_node33"><a xlink:title=" ">
<polygon fill="white" stroke="#bfbfbf" points="498,-56.5 498,-75.5 562,-75.5 562,-56.5 498,-56.5"/>
<text text-anchor="middle" x="530" y="-63.5" font-family="FreeSans" font-size="10.00">algorithm</text>
</a>
</g>
</g>
<!-- Node32&#45;&gt;Node33 -->
<g id="edge54" class="edge">
<title>Node32&#45;&gt;Node33</title>
<path fill="none" stroke="midnightblue" d="M290.66,-173.88C310.58,-159.47 352.81,-130.28 392,-112 423.12,-97.48 460.21,-85.67 488.1,-77.8"/>
<polygon fill="midnightblue" stroke="midnightblue" points="489.22,-81.12 497.93,-75.08 487.36,-74.37 489.22,-81.12"/>
</g>
<!-- Node34 -->
<g id="node34" class="node">
<title>Node34</title>
<g id="a_node34"><a xlink:title=" ">
<polygon fill="white" stroke="#bfbfbf" points="591.5,-112.5 591.5,-131.5 656.5,-131.5 656.5,-112.5 591.5,-112.5"/>
<text text-anchor="middle" x="624" y="-119.5" font-family="FreeSans" font-size="10.00">functional</text>
</a>
</g>
</g>
<!-- Node32&#45;&gt;Node34 -->
<g id="edge55" class="edge">
<title>Node32&#45;&gt;Node34</title>
<path fill="none" stroke="midnightblue" d="M331.05,-173.96C404.86,-161.83 535.32,-140.31 581.6,-131.95"/>
<polygon fill="midnightblue" stroke="midnightblue" points="582.28,-135.39 591.47,-130.12 581,-128.51 582.28,-135.39"/>
</g>
<!-- Node35 -->
<g id="node35" class="node">
<title>Node35</title>
<g id="a_node35"><a xlink:href="Color_8h_source.html" target="_top" xlink:title=" ">
<polygon fill="white" stroke="black" points="251.5,-112.5 251.5,-131.5 344.5,-131.5 344.5,-112.5 251.5,-112.5"/>
<text text-anchor="middle" x="298" y="-119.5" font-family="FreeSans" font-size="10.00">DGtal/io/Color.h</text>
</a>
</g>
</g>
<!-- Node32&#45;&gt;Node35 -->
<g id="edge57" class="edge">
<title>Node32&#45;&gt;Node35</title>
<path fill="none" stroke="midnightblue" d="M281.72,-173.98C284.43,-165.49 288.67,-152.2 292.15,-141.32"/>
<polygon fill="midnightblue" stroke="midnightblue" points="295.57,-142.1 295.28,-131.51 288.91,-139.97 295.57,-142.1"/>
</g>
<!-- Node39 -->
<g id="node39" class="node">
<title>Node39</title>
<g id="a_node39"><a xlink:href="BasicBoolFunctors_8h_source.html" target="_top" xlink:title=" ">
<polygon fill="white" stroke="black" points="401,-112.5 401,-131.5 573,-131.5 573,-112.5 401,-112.5"/>
<text text-anchor="middle" x="487" y="-119.5" font-family="FreeSans" font-size="10.00">DGtal/base/BasicBoolFunctors.h</text>
</a>
</g>
</g>
<!-- Node32&#45;&gt;Node39 -->
<g id="edge65" class="edge">
<title>Node32&#45;&gt;Node39</title>
<path fill="none" stroke="midnightblue" d="M308.8,-173.98C345.25,-163.55 407.08,-145.86 447.47,-134.31"/>
<polygon fill="midnightblue" stroke="midnightblue" points="448.6,-137.62 457.25,-131.51 446.68,-130.89 448.6,-137.62"/>
</g>
<!-- Node35&#45;&gt;Node2 -->
<g id="edge58" class="edge">
<title>Node35&#45;&gt;Node2</title>
<path fill="none" stroke="midnightblue" d="M334.55,-112.43C365.99,-104.54 412.26,-91.71 451,-76 468.69,-68.83 470.61,-61.1 489,-56 633.82,-15.86 1104.87,-11.43 1246.42,-11.02"/>
<polygon fill="midnightblue" stroke="midnightblue" points="1246.8,-14.52 1256.8,-10.99 1246.79,-7.52 1246.8,-14.52"/>
</g>
<!-- Node35&#45;&gt;Node3 -->
<g id="edge59" class="edge">
<title>Node35&#45;&gt;Node3</title>
<path fill="none" stroke="midnightblue" d="M251.47,-131.33C230.48,-137.67 207.61,-148.73 195,-168 187.46,-179.53 185.57,-188.96 195,-199 216.88,-222.3 661.8,-237.05 841.08,-242.08"/>
<polygon fill="midnightblue" stroke="midnightblue" points="841.12,-245.58 851.22,-242.36 841.32,-238.58 841.12,-245.58"/>
</g>
<!-- Node35&#45;&gt;Node33 -->
<g id="edge61" class="edge">
<title>Node35&#45;&gt;Node33</title>
<path fill="none" stroke="midnightblue" d="M334.76,-112.44C376.49,-102.73 444.41,-86.92 488.14,-76.74"/>
<polygon fill="midnightblue" stroke="midnightblue" points="488.95,-80.15 497.89,-74.47 487.36,-73.33 488.95,-80.15"/>
</g>
<!-- Node36 -->
<g id="node36" class="node">
<title>Node36</title>
<g id="a_node36"><a xlink:title=" ">
<polygon fill="white" stroke="#bfbfbf" points="256.5,-56.5 256.5,-75.5 381.5,-75.5 381.5,-56.5 256.5,-56.5"/>
<text text-anchor="middle" x="319" y="-63.5" font-family="FreeSans" font-size="10.00">boost/lexical_cast.hpp</text>
</a>
</g>
</g>
<!-- Node35&#45;&gt;Node36 -->
<g id="edge60" class="edge">
<title>Node35&#45;&gt;Node36</title>
<path fill="none" stroke="midnightblue" d="M301.47,-112.08C304.31,-104.77 308.43,-94.18 311.96,-85.1"/>
<polygon fill="midnightblue" stroke="midnightblue" points="315.23,-86.34 315.6,-75.75 308.71,-83.8 315.23,-86.34"/>
</g>
<!-- Node37 -->
<g id="node37" class="node">
<title>Node37</title>
<g id="a_node37"><a xlink:title=" ">
<polygon fill="white" stroke="#bfbfbf" points="400,-56.5 400,-75.5 442,-75.5 442,-56.5 400,-56.5"/>
<text text-anchor="middle" x="421" y="-63.5" font-family="FreeSans" font-size="10.00">array</text>
</a>
</g>
</g>
<!-- Node35&#45;&gt;Node37 -->
<g id="edge62" class="edge">
<title>Node35&#45;&gt;Node37</title>
<path fill="none" stroke="midnightblue" d="M317.49,-112.44C337.64,-103.6 369.32,-89.69 392.33,-79.59"/>
<polygon fill="midnightblue" stroke="midnightblue" points="393.85,-82.74 401.6,-75.52 391.04,-76.33 393.85,-82.74"/>
</g>
<!-- Node38 -->
<g id="node38" class="node">
<title>Node38</title>
<g id="a_node38"><a xlink:href="Color_8ih_source.html" target="_top" xlink:title=" ">
<polygon fill="white" stroke="black" points="142,-56.5 142,-75.5 238,-75.5 238,-56.5 142,-56.5"/>
<text text-anchor="middle" x="190" y="-63.5" font-family="FreeSans" font-size="10.00">DGtal/io/Color.ih</text>
</a>
</g>
</g>
<!-- Node35&#45;&gt;Node38 -->
<g id="edge63" class="edge">
<title>Node35&#45;&gt;Node38</title>
<path fill="none" stroke="midnightblue" d="M280.65,-112.32C263.33,-103.66 236.48,-90.24 216.5,-80.25"/>
<polygon fill="midnightblue" stroke="midnightblue" points="217.82,-77 207.31,-75.65 214.69,-83.26 217.82,-77"/>
</g>
<!-- Node39&#45;&gt;Node2 -->
<g id="edge66" class="edge">
<title>Node39&#45;&gt;Node2</title>
<path fill="none" stroke="midnightblue" d="M503.13,-112.36C535.84,-94.87 607.14,-56.81 610,-56 730.84,-21.74 1120.15,-13.33 1246.79,-11.48"/>
<polygon fill="midnightblue" stroke="midnightblue" points="1246.88,-14.98 1256.83,-11.34 1246.78,-7.98 1246.88,-14.98"/>
</g>
<!-- Node40 -->
<g id="node40" class="node">
<title>Node40</title>
<g id="a_node40"><a xlink:title=" ">
<polygon fill="white" stroke="#bfbfbf" points="618.5,-56.5 618.5,-75.5 725.5,-75.5 725.5,-56.5 618.5,-56.5"/>
<text text-anchor="middle" x="672" y="-63.5" font-family="FreeSans" font-size="10.00">boost/function.hpp</text>
</a>
</g>
</g>
<!-- Node39&#45;&gt;Node40 -->
<g id="edge67" class="edge">
<title>Node39&#45;&gt;Node40</title>
<path fill="none" stroke="midnightblue" d="M516.31,-112.44C547.84,-103.24 598.13,-88.56 632.99,-78.39"/>
<polygon fill="midnightblue" stroke="midnightblue" points="634.2,-81.68 642.82,-75.52 632.24,-74.96 634.2,-81.68"/>
</g>
<!-- Node41 -->
<g id="node41" class="node">
<title>Node41</title>
<g id="a_node41"><a xlink:href="BasicBoolFunctors_8ih_source.html" target="_top" xlink:title=" ">
<polygon fill="white" stroke="black" points="743.5,-56.5 743.5,-75.5 918.5,-75.5 918.5,-56.5 743.5,-56.5"/>
<text text-anchor="middle" x="831" y="-63.5" font-family="FreeSans" font-size="10.00">DGtal/base/BasicBoolFunctors.ih</text>
</a>
</g>
</g>
<!-- Node39&#45;&gt;Node41 -->
<g id="edge68" class="edge">
<title>Node39&#45;&gt;Node41</title>
<path fill="none" stroke="midnightblue" d="M541.51,-112.44C602.65,-102.85 701.74,-87.29 766.64,-77.1"/>
<polygon fill="midnightblue" stroke="midnightblue" points="767.41,-80.52 776.75,-75.52 766.33,-73.61 767.41,-80.52"/>
</g>
<!-- Node42&#45;&gt;Node2 -->
<g id="edge70" class="edge">
<title>Node42&#45;&gt;Node2</title>
<path fill="none" stroke="midnightblue" d="M1276.86,-112.37C1278.64,-94.62 1282.73,-53.67 1285.14,-29.6"/>
<polygon fill="midnightblue" stroke="midnightblue" points="1288.63,-29.89 1286.14,-19.59 1281.66,-29.19 1288.63,-29.89"/>
</g>
<!-- Node43&#45;&gt;Node2 -->
<g id="edge72" class="edge">
<title>Node43&#45;&gt;Node2</title>
<path fill="none" stroke="midnightblue" d="M1689.39,-173.98C1593.54,-159.79 1411.56,-132.78 1410,-132 1360.37,-107.23 1318.19,-54.99 1298.64,-27.97"/>
<polygon fill="midnightblue" stroke="midnightblue" points="1301.32,-25.71 1292.7,-19.56 1295.61,-29.75 1301.32,-25.71"/>
</g>
<!-- Node44&#45;&gt;Node2 -->
<g id="edge74" class="edge">
<title>Node44&#45;&gt;Node2</title>
<path fill="none" stroke="midnightblue" d="M270.5,-403.48C190.62,-387.79 38,-351.36 38,-302 38,-302 38,-302 38,-121 38,-84.82 54.93,-72.74 87,-56 139.45,-28.61 1042.9,-14.41 1246.48,-11.55"/>
<polygon fill="midnightblue" stroke="midnightblue" points="1246.77,-15.04 1256.72,-11.4 1246.68,-8.04 1246.77,-15.04"/>
</g>
<!-- Node44&#45;&gt;Node3 -->
<g id="edge75" class="edge">
<title>Node44&#45;&gt;Node3</title>
<path fill="none" stroke="midnightblue" d="M348.84,-403.42C448.52,-375.71 762.04,-288.53 874.42,-257.28"/>
<polygon fill="midnightblue" stroke="midnightblue" points="875.65,-260.58 884.34,-254.52 873.77,-253.83 875.65,-260.58"/>
</g>
<!-- Node45 -->
<g id="node45" class="node">
<title>Node45</title>
<g id="a_node45"><a xlink:href="CowPtr_8h_source.html" target="_top" xlink:title=" ">
<polygon fill="white" stroke="black" points="193,-347.5 193,-366.5 309,-366.5 309,-347.5 193,-347.5"/>
<text text-anchor="middle" x="251" y="-354.5" font-family="FreeSans" font-size="10.00">DGtal/base/CowPtr.h</text>
</a>
</g>
</g>
<!-- Node44&#45;&gt;Node45 -->
<g id="edge76" class="edge">
<title>Node44&#45;&gt;Node45</title>
<path fill="none" stroke="midnightblue" d="M307.24,-403.32C297.23,-395.26 282.11,-383.08 270.07,-373.37"/>
<polygon fill="midnightblue" stroke="midnightblue" points="271.94,-370.38 261.96,-366.83 267.55,-375.83 271.94,-370.38"/>
</g>
<!-- Node50 -->
<g id="node50" class="node">
<title>Node50</title>
<g id="a_node50"><a xlink:href="Signal_8ih_source.html" target="_top" xlink:title=" ">
<polygon fill="white" stroke="black" points="327,-347.5 327,-366.5 445,-366.5 445,-347.5 327,-347.5"/>
<text text-anchor="middle" x="386" y="-354.5" font-family="FreeSans" font-size="10.00">DGtal/math/Signal.ih</text>
</a>
</g>
</g>
<!-- Node44&#45;&gt;Node50 -->
<g id="edge85" class="edge">
<title>Node44&#45;&gt;Node50</title>
<path fill="none" stroke="midnightblue" d="M328.93,-403.32C339.17,-395.18 354.72,-382.84 367,-373.09"/>
<polygon fill="midnightblue" stroke="midnightblue" points="369.22,-375.79 374.88,-366.83 364.87,-370.31 369.22,-375.79"/>
</g>
<!-- Node45&#45;&gt;Node2 -->
<g id="edge77" class="edge">
<title>Node45&#45;&gt;Node2</title>
<path fill="none" stroke="midnightblue" d="M192.93,-352.71C160.17,-347.89 120.76,-336.67 95,-311 73.68,-289.76 76,-276.1 76,-246 76,-246 76,-246 76,-121 76,-87.08 86.71,-73.11 116,-56 165.8,-26.9 1046.59,-14.04 1246.76,-11.49"/>
<polygon fill="midnightblue" stroke="midnightblue" points="1246.89,-14.99 1256.84,-11.36 1246.8,-7.99 1246.89,-14.99"/>
</g>
<!-- Node45&#45;&gt;Node3 -->
<g id="edge79" class="edge">
<title>Node45&#45;&gt;Node3</title>
<path fill="none" stroke="midnightblue" d="M300.95,-347.48C374.51,-334.97 516.31,-310.93 637,-291 710.57,-278.85 795.14,-265.21 851.5,-256.16"/>
<polygon fill="midnightblue" stroke="midnightblue" points="852.37,-259.57 861.69,-254.53 851.26,-252.65 852.37,-259.57"/>
</g>
<!-- Node46 -->
<g id="node46" class="node">
<title>Node46</title>
<g id="a_node46"><a xlink:title=" ">
<polygon fill="white" stroke="#bfbfbf" points="104.5,-291.5 104.5,-310.5 173.5,-310.5 173.5,-291.5 104.5,-291.5"/>
<text text-anchor="middle" x="139" y="-298.5" font-family="FreeSans" font-size="10.00">type_traits</text>
</a>
</g>
</g>
<!-- Node45&#45;&gt;Node46 -->
<g id="edge78" class="edge">
<title>Node45&#45;&gt;Node46</title>
<path fill="none" stroke="midnightblue" d="M233.01,-347.32C214.96,-338.62 186.95,-325.12 166.2,-315.11"/>
<polygon fill="midnightblue" stroke="midnightblue" points="167.48,-311.84 156.95,-310.65 164.44,-318.15 167.48,-311.84"/>
</g>
<!-- Node47 -->
<g id="node47" class="node">
<title>Node47</title>
<g id="a_node47"><a xlink:href="CountedPtr_8h_source.html" target="_top" xlink:title=" ">
<polygon fill="white" stroke="black" points="329,-291.5 329,-310.5 465,-310.5 465,-291.5 329,-291.5"/>
<text text-anchor="middle" x="397" y="-298.5" font-family="FreeSans" font-size="10.00">DGtal/base/CountedPtr.h</text>
</a>
</g>
</g>
<!-- Node45&#45;&gt;Node47 -->
<g id="edge80" class="edge">
<title>Node45&#45;&gt;Node47</title>
<path fill="none" stroke="midnightblue" d="M274.13,-347.44C298.48,-338.44 337.01,-324.19 364.42,-314.05"/>
<polygon fill="midnightblue" stroke="midnightblue" points="365.81,-317.27 373.97,-310.52 363.38,-310.7 365.81,-317.27"/>
</g>
<!-- Node49 -->
<g id="node49" class="node">
<title>Node49</title>
<g id="a_node49"><a xlink:href="CowPtr_8ih_source.html" target="_top" xlink:title=" ">
<polygon fill="white" stroke="black" points="191.5,-291.5 191.5,-310.5 310.5,-310.5 310.5,-291.5 191.5,-291.5"/>
<text text-anchor="middle" x="251" y="-298.5" font-family="FreeSans" font-size="10.00">DGtal/base/CowPtr.ih</text>
</a>
</g>
</g>
<!-- Node45&#45;&gt;Node49 -->
<g id="edge84" class="edge">
<title>Node45&#45;&gt;Node49</title>
<path fill="none" stroke="midnightblue" d="M251,-347.08C251,-340.01 251,-329.86 251,-320.99"/>
<polygon fill="midnightblue" stroke="midnightblue" points="254.5,-320.75 251,-310.75 247.5,-320.75 254.5,-320.75"/>
</g>
<!-- Node47&#45;&gt;Node2 -->
<g id="edge81" class="edge">
<title>Node47&#45;&gt;Node2</title>
<path fill="none" stroke="midnightblue" d="M378.21,-291.49C327.7,-268.55 192.33,-206.66 185,-199 138.26,-150.13 86.12,-104.74 133,-56 172.41,-15.03 1047.87,-11.33 1246.97,-11.02"/>
<polygon fill="midnightblue" stroke="midnightblue" points="1247,-14.52 1256.99,-11.01 1246.99,-7.52 1247,-14.52"/>
</g>
<!-- Node47&#45;&gt;Node3 -->
<g id="edge82" class="edge">
<title>Node47&#45;&gt;Node3</title>
<path fill="none" stroke="midnightblue" d="M465.25,-292.88C562.73,-282.72 741.09,-264.13 841.42,-253.67"/>
<polygon fill="midnightblue" stroke="midnightblue" points="841.89,-257.14 851.48,-252.62 841.17,-250.18 841.89,-257.14"/>
</g>
<!-- Node48 -->
<g id="node48" class="node">
<title>Node48</title>
<g id="a_node48"><a xlink:href="CountedPtr_8ih_source.html" target="_top" xlink:title=" ">
<polygon fill="white" stroke="black" points="104.5,-235.5 104.5,-254.5 243.5,-254.5 243.5,-235.5 104.5,-235.5"/>
<text text-anchor="middle" x="174" y="-242.5" font-family="FreeSans" font-size="10.00">DGtal/base/CountedPtr.ih</text>
</a>
</g>
</g>
<!-- Node47&#45;&gt;Node48 -->
<g id="edge83" class="edge">
<title>Node47&#45;&gt;Node48</title>
<path fill="none" stroke="midnightblue" d="M361.66,-291.44C323.09,-282.1 261.22,-267.12 219.15,-256.93"/>
<polygon fill="midnightblue" stroke="midnightblue" points="219.71,-253.47 209.17,-254.52 218.07,-260.27 219.71,-253.47"/>
</g>
</g>
</svg>
