<?xml version="1.0" encoding="UTF-8" standalone="no"?>
<!DOCTYPE svg PUBLIC "-//W3C//DTD SVG 1.1//EN"
 "http://www.w3.org/Graphics/SVG/1.1/DTD/svg11.dtd">
<!-- Generated by graphviz version 2.43.0 (0)
 -->
<!-- Title: DGtal::DomainAdjacency&lt; TDomain, TAdjacency &gt; Pages: 1 -->
<svg width="263pt" height="128pt"
 viewBox="0.00 0.00 263.00 128.00" xmlns="http://www.w3.org/2000/svg" xmlns:xlink="http://www.w3.org/1999/xlink">
<g id="graph0" class="graph" transform="scale(1 1) rotate(0) translate(4 124)">
<title>DGtal::DomainAdjacency&lt; TDomain, TAdjacency &gt;</title>
<polygon fill="white" stroke="transparent" points="-4,4 -4,-124 259,-124 259,4 -4,4"/>
<!-- Node1 -->
<g id="node1" class="node">
<title>Node1</title>
<g id="a_node1"><a xlink:title="Aim: Given a domain and an adjacency, limits the given adjacency to the specified domain for all adja...">
<polygon fill="#bfbfbf" stroke="black" points="37.5,-89.5 37.5,-119.5 182.5,-119.5 182.5,-89.5 37.5,-89.5"/>
<text text-anchor="start" x="45.5" y="-107.5" font-family="FreeSans" font-size="10.00">DGtal::DomainAdjacency</text>
<text text-anchor="middle" x="110" y="-96.5" font-family="FreeSans" font-size="10.00">&lt; TDomain, TAdjacency &gt;</text>
</a>
</g>
</g>
<!-- Node2 -->
<g id="node2" class="node">
<title>Node2</title>
<g id="a_node2"><a xlink:href="classDGtal_1_1DomainAdjacency.html" target="_top" xlink:title=" ">
<polygon fill="white" stroke="black" points="0,-0.5 0,-30.5 220,-30.5 220,-0.5 0,-0.5"/>
<text text-anchor="start" x="8" y="-18.5" font-family="FreeSans" font-size="10.00">DGtal::DomainAdjacency</text>
<text text-anchor="middle" x="110" y="-7.5" font-family="FreeSans" font-size="10.00">&lt; ObjectDomain, ForegroundAdjacency &gt;</text>
</a>
</g>
</g>
<!-- Node1&#45;&gt;Node2 -->
<g id="edge1" class="edge">
<title>Node1&#45;&gt;Node2</title>
<path fill="none" stroke="orange" stroke-dasharray="5,2" d="M110,-79.09C110,-63.44 110,-43.68 110,-30.6"/>
<polygon fill="orange" stroke="orange" points="106.5,-79.13 110,-89.13 113.5,-79.13 106.5,-79.13"/>
<text text-anchor="start" x="110" y="-63" font-family="FreeSans" font-size="10.00"> &lt; ObjectDomain, Foreground</text>
<text text-anchor="middle" x="182.5" y="-52" font-family="FreeSans" font-size="10.00">Adjacency &gt;</text>
</g>
</g>
</svg>
