<?xml version="1.0" encoding="UTF-8" standalone="no"?>
<!DOCTYPE svg PUBLIC "-//W3C//DTD SVG 1.1//EN"
 "http://www.w3.org/Graphics/SVG/1.1/DTD/svg11.dtd">
<!-- Generated by graphviz version 2.43.0 (0)
 -->
<!-- Title: DGtal::ArithmeticalDSL&lt; TCoordinate, TInteger, adjacency &gt; Pages: 1 -->
<!--zoomable 137 -->
<svg id="main" version="1.1" xmlns="http://www.w3.org/2000/svg" xmlns:xlink="http://www.w3.org/1999/xlink" xml:space="preserve" onload="init(evt)">
<style type="text/css"><![CDATA[
.edge:hover path { stroke: red; }
.edge:hover polygon { stroke: red; fill: red; }
]]></style>
<script type="text/javascript"><![CDATA[
var edges = document.getElementsByTagName('g');
if (edges && edges.length) {
  for (var i=0;i<edges.length;i++) {
    if (edges[i].id.substr(0,4)=='edge') {
      edges[i].setAttribute('class','edge');
    }
  }
}
]]></script>
        <defs>
                <circle id="rim" cx="0" cy="0" r="7"/>
                <circle id="rim2" cx="0" cy="0" r="3.5"/>
                <g id="zoomPlus">
                        <use xlink:href="#rim" fill="#404040">
                                <set attributeName="fill" to="#808080" begin="zoomplus.mouseover" end="zoomplus.mouseout"/>
                        </use>
                        <path d="M-4,0h8M0,-4v8" fill="none" stroke="white" stroke-width="1.5" pointer-events="none"/>
                </g>
                <g id="zoomMin">
                        <use xlink:href="#rim" fill="#404040">
                                <set attributeName="fill" to="#808080" begin="zoomminus.mouseover" end="zoomminus.mouseout"/>
                        </use>
                        <path d="M-4,0h8" fill="none" stroke="white" stroke-width="1.5" pointer-events="none"/>
                </g>
                <g id="dirArrow">
                        <path fill="none" stroke="white" stroke-width="1.5" d="M0,-3.0v7 M-2.5,-0.5L0,-3.0L2.5,-0.5"/>
                </g>
               <g id="resetDef">
                       <use xlink:href="#rim2" fill="#404040">
                               <set attributeName="fill" to="#808080" begin="reset.mouseover" end="reset.mouseout"/>
                       </use>
               </g>
        </defs>

<script type="text/javascript">
var viewWidth = 722;
var viewHeight = 137;
var sectionId = 'dynsection-0';
</script>
<script xlink:href="svgpan.js"/>
<svg id="graph" class="graph">
<g id="viewport">
<title>DGtal::ArithmeticalDSL&lt; TCoordinate, TInteger, adjacency &gt;</title>
<polygon fill="white" stroke="transparent" points="-4,4 -4,-133 718,-133 718,4 -4,4"/>
<!-- Node1 -->
<g id="node1" class="node">
<title>Node1</title>
<g id="a_node1"><a xlink:title="Aim: This class represents a naive (resp. standard) digital straight line (DSL), ie....">
<polygon fill="#bfbfbf" stroke="black" points="0,-44 0,-85 136,-85 136,-44 0,-44"/>
<text text-anchor="start" x="8" y="-73" font-family="FreeSans" font-size="10.00">DGtal::ArithmeticalDSL</text>
<text text-anchor="start" x="8" y="-62" font-family="FreeSans" font-size="10.00">&lt; TCoordinate, TInteger,</text>
<text text-anchor="middle" x="68" y="-51" font-family="FreeSans" font-size="10.00"> adjacency &gt;</text>
</a>
</g>
</g>
<!-- Node2 -->
<g id="node2" class="node">
<title>Node2</title>
<g id="a_node2"><a xlink:href="classDGtal_1_1ArithmeticalDSL.html" target="_top" xlink:title=" ">
<polygon fill="white" stroke="black" points="333,-98.5 333,-128.5 507,-128.5 507,-98.5 333,-98.5"/>
<text text-anchor="start" x="341" y="-116.5" font-family="FreeSans" font-size="10.00">DGtal::ArithmeticalDSL</text>
<text text-anchor="middle" x="420" y="-105.5" font-family="FreeSans" font-size="10.00">&lt; TCoordinate, TCoordinate, 8 &gt;</text>
</a>
</g>
</g>
<!-- Node1&#45;&gt;Node2 -->
<g id="edge1" class="edge">
<title>Node1&#45;&gt;Node2</title>
<path fill="none" stroke="orange" stroke-dasharray="5,2" d="M146.31,-78.3C148.9,-78.71 151.47,-79.12 154,-79.5 213.61,-88.58 281.02,-97.2 332.93,-103.5"/>
<polygon fill="orange" stroke="orange" points="146.66,-74.81 136.23,-76.66 145.54,-81.72 146.66,-74.81"/>
<text text-anchor="middle" x="234.5" y="-103.5" font-family="FreeSans" font-size="10.00"> &lt; TCoordinate, TCoordinate, 8 &gt;</text>
</g>
<!-- Node4 -->
<g id="node4" class="node">
<title>Node4</title>
<g id="a_node4"><a xlink:href="classDGtal_1_1ArithmeticalDSL.html" target="_top" xlink:title=" ">
<polygon fill="white" stroke="black" points="347.5,-49.5 347.5,-79.5 492.5,-79.5 492.5,-49.5 347.5,-49.5"/>
<text text-anchor="start" x="355.5" y="-67.5" font-family="FreeSans" font-size="10.00">DGtal::ArithmeticalDSL</text>
<text text-anchor="middle" x="420" y="-56.5" font-family="FreeSans" font-size="10.00">&lt; Coordinate, Integer, 8 &gt;</text>
</a>
</g>
</g>
<!-- Node1&#45;&gt;Node4 -->
<g id="edge3" class="edge">
<title>Node1&#45;&gt;Node4</title>
<path fill="none" stroke="orange" stroke-dasharray="5,2" d="M146.25,-64.5C206.24,-64.5 288.81,-64.5 347.34,-64.5"/>
<polygon fill="orange" stroke="orange" points="146.07,-61 136.07,-64.5 146.07,-68 146.07,-61"/>
<text text-anchor="middle" x="234.5" y="-67.5" font-family="FreeSans" font-size="10.00"> &lt; Coordinate, Integer, 8 &gt;</text>
</g>
<!-- Node5 -->
<g id="node5" class="node">
<title>Node5</title>
<g id="a_node5"><a xlink:href="classDGtal_1_1ArithmeticalDSL.html" target="_top" xlink:title=" ">
<polygon fill="white" stroke="black" points="333,-0.5 333,-30.5 507,-30.5 507,-0.5 333,-0.5"/>
<text text-anchor="start" x="341" y="-18.5" font-family="FreeSans" font-size="10.00">DGtal::ArithmeticalDSL</text>
<text text-anchor="middle" x="420" y="-7.5" font-family="FreeSans" font-size="10.00">&lt; TCoordinate, TCoordinate, 4 &gt;</text>
</a>
</g>
</g>
<!-- Node1&#45;&gt;Node5 -->
<g id="edge4" class="edge">
<title>Node1&#45;&gt;Node5</title>
<path fill="none" stroke="orange" stroke-dasharray="5,2" d="M146.31,-50.7C148.9,-50.29 151.47,-49.88 154,-49.5 213.61,-40.42 281.02,-31.8 332.93,-25.5"/>
<polygon fill="orange" stroke="orange" points="145.54,-47.28 136.23,-52.34 146.66,-54.19 145.54,-47.28"/>
<text text-anchor="middle" x="234.5" y="-52.5" font-family="FreeSans" font-size="10.00"> &lt; TCoordinate, TCoordinate, 4 &gt;</text>
</g>
<!-- Node3 -->
<g id="node3" class="node">
<title>Node3</title>
<g id="a_node3"><a xlink:href="classDGtal_1_1NaiveDSL.html" target="_top" xlink:title="Aim: This class is an alias of ArithmeticalDSS for naive DSL. It represents a naive digital straight ...">
<polygon fill="white" stroke="black" points="544,-98.5 544,-128.5 714,-128.5 714,-98.5 544,-98.5"/>
<text text-anchor="start" x="552" y="-116.5" font-family="FreeSans" font-size="10.00">DGtal::NaiveDSL&lt; TCoordinate,</text>
<text text-anchor="middle" x="629" y="-105.5" font-family="FreeSans" font-size="10.00"> TInteger &gt;</text>
</a>
</g>
</g>
<!-- Node2&#45;&gt;Node3 -->
<g id="edge2" class="edge">
<title>Node2&#45;&gt;Node3</title>
<path fill="none" stroke="midnightblue" d="M517.55,-113.5C526.33,-113.5 535.18,-113.5 543.85,-113.5"/>
<polygon fill="midnightblue" stroke="midnightblue" points="517.29,-110 507.29,-113.5 517.29,-117 517.29,-110"/>
</g>
<!-- Node6 -->
<g id="node6" class="node">
<title>Node6</title>
<g id="a_node6"><a xlink:href="classDGtal_1_1StandardDSL.html" target="_top" xlink:title="Aim: This class is an alias of ArithmeticalDSS for standard DSL. It represents a standard digital str...">
<polygon fill="white" stroke="black" points="557,-0.5 557,-30.5 701,-30.5 701,-0.5 557,-0.5"/>
<text text-anchor="start" x="565" y="-18.5" font-family="FreeSans" font-size="10.00">DGtal::StandardDSL</text>
<text text-anchor="middle" x="629" y="-7.5" font-family="FreeSans" font-size="10.00">&lt; TCoordinate, TInteger &gt;</text>
</a>
</g>
</g>
<!-- Node5&#45;&gt;Node6 -->
<g id="edge5" class="edge">
<title>Node5&#45;&gt;Node6</title>
<path fill="none" stroke="midnightblue" d="M517.42,-15.5C530.73,-15.5 544.2,-15.5 556.93,-15.5"/>
<polygon fill="midnightblue" stroke="midnightblue" points="517.29,-12 507.29,-15.5 517.29,-19 517.29,-12"/>
</g>
</g>
</svg>
        <g id="navigator" transform="translate(0 0)" fill="#404254">
                <rect fill="#f2f5e9" fill-opacity="0.5" stroke="#606060" stroke-width=".5" x="0" y="0" width="60" height="60"/>
                <use id="zoomplus" xlink:href="#zoomPlus" x="17" y="9" onmousedown="handleZoom(evt,'in')"/>
                <use id="zoomminus" xlink:href="#zoomMin" x="42" y="9" onmousedown="handleZoom(evt,'out')"/>
                <use id="reset" xlink:href="#resetDef" x="30" y="36" onmousedown="handleReset()"/>
                <g id="arrowUp" xlink:href="#dirArrow" transform="translate(30 24)" onmousedown="handlePan(0,-1)">
                  <use xlink:href="#rim" fill="#404040">
                        <set attributeName="fill" to="#808080" begin="arrowUp.mouseover" end="arrowUp.mouseout"/>
                  </use>
                  <path fill="none" stroke="white" stroke-width="1.5" d="M0,-3.0v7 M-2.5,-0.5L0,-3.0L2.5,-0.5"/>
                </g>
                <g id="arrowRight" xlink:href="#dirArrow" transform="rotate(90) translate(36 -43)" onmousedown="handlePan(1,0)">
                  <use xlink:href="#rim" fill="#404040">
                        <set attributeName="fill" to="#808080" begin="arrowRight.mouseover" end="arrowRight.mouseout"/>
                  </use>
                  <path fill="none" stroke="white" stroke-width="1.5" d="M0,-3.0v7 M-2.5,-0.5L0,-3.0L2.5,-0.5"/>
                </g>
                <g id="arrowDown" xlink:href="#dirArrow" transform="rotate(180) translate(-30 -48)" onmousedown="handlePan(0,1)">
                  <use xlink:href="#rim" fill="#404040">
                        <set attributeName="fill" to="#808080" begin="arrowDown.mouseover" end="arrowDown.mouseout"/>
                  </use>
                  <path fill="none" stroke="white" stroke-width="1.5" d="M0,-3.0v7 M-2.5,-0.5L0,-3.0L2.5,-0.5"/>
                </g>
                <g id="arrowLeft" xlink:href="#dirArrow" transform="rotate(270) translate(-36 17)" onmousedown="handlePan(-1,0)">
                  <use xlink:href="#rim" fill="#404040">
                        <set attributeName="fill" to="#808080" begin="arrowLeft.mouseover" end="arrowLeft.mouseout"/>
                  </use>
                  <path fill="none" stroke="white" stroke-width="1.5" d="M0,-3.0v7 M-2.5,-0.5L0,-3.0L2.5,-0.5"/>
                </g>
        </g>
        <svg viewBox="0 0 15 15" width="100%" height="30px" preserveAspectRatio="xMaxYMin meet">
         <g id="arrow_out" transform="scale(0.3 0.3)">
          <a xlink:href="classDGtal_1_1ArithmeticalDSL__inherit__graph_org.svg" target="_base">
           <rect id="button" ry="5" rx="5" y="6" x="6" height="38" width="38"
                fill="#f2f5e9" fill-opacity="0.5" stroke="#606060" stroke-width="1.0"/>
           <path id="arrow"
             d="M 11.500037,31.436501 C 11.940474,20.09759 22.043105,11.32322 32.158766,21.979434 L 37.068811,17.246167 C 37.068811,17.246167 37.088388,32 37.088388,32 L 22.160133,31.978069 C 22.160133,31.978069 26.997745,27.140456 26.997745,27.140456 C 18.528582,18.264221 13.291696,25.230495 11.500037,31.436501 z"
             style="fill:#404040;"/>
          </a>
         </g>
        </svg>
</svg>
