<?xml version="1.0" encoding="UTF-8" standalone="no"?>
<!DOCTYPE svg PUBLIC "-//W3C//DTD SVG 1.1//EN"
 "http://www.w3.org/Graphics/SVG/1.1/DTD/svg11.dtd">
<!-- Generated by graphviz version 2.43.0 (0)
 -->
<!-- Title: DGtal::TraceWriter Pages: 1 -->
<svg width="280pt" height="84pt"
 viewBox="0.00 0.00 279.50 84.00" xmlns="http://www.w3.org/2000/svg" xmlns:xlink="http://www.w3.org/1999/xlink">
<g id="graph0" class="graph" transform="scale(1 1) rotate(0) translate(4 80)">
<title>DGtal::TraceWriter</title>
<polygon fill="white" stroke="transparent" points="-4,4 -4,-80 275.5,-80 275.5,4 -4,4"/>
<!-- Node1 -->
<g id="node1" class="node">
<title>Node1</title>
<g id="a_node1"><a xlink:title="Virtual Class to implement trace writers.">
<polygon fill="#bfbfbf" stroke="black" points="80.5,-56.5 80.5,-75.5 186.5,-75.5 186.5,-56.5 80.5,-56.5"/>
<text text-anchor="middle" x="133.5" y="-63.5" font-family="FreeSans" font-size="10.00">DGtal::TraceWriter</text>
</a>
</g>
</g>
<!-- Node2 -->
<g id="node2" class="node">
<title>Node2</title>
<g id="a_node2"><a xlink:href="classDGtal_1_1TraceWriterFile.html" target="_top" xlink:title=" ">
<polygon fill="white" stroke="black" points="0,-0.5 0,-19.5 123,-19.5 123,-0.5 0,-0.5"/>
<text text-anchor="middle" x="61.5" y="-7.5" font-family="FreeSans" font-size="10.00">DGtal::TraceWriterFile</text>
</a>
</g>
</g>
<!-- Node1&#45;&gt;Node2 -->
<g id="edge1" class="edge">
<title>Node1&#45;&gt;Node2</title>
<path fill="none" stroke="midnightblue" d="M113.63,-50.1C100.68,-40.38 84.2,-28.03 73.28,-19.83"/>
<polygon fill="midnightblue" stroke="midnightblue" points="111.83,-53.12 121.93,-56.32 116.03,-47.52 111.83,-53.12"/>
</g>
<!-- Node3 -->
<g id="node3" class="node">
<title>Node3</title>
<g id="a_node3"><a xlink:href="classDGtal_1_1TraceWriterTerm.html" target="_top" xlink:title="Implements trace prefix for color terminals.">
<polygon fill="white" stroke="black" points="141.5,-0.5 141.5,-19.5 271.5,-19.5 271.5,-0.5 141.5,-0.5"/>
<text text-anchor="middle" x="206.5" y="-7.5" font-family="FreeSans" font-size="10.00">DGtal::TraceWriterTerm</text>
</a>
</g>
</g>
<!-- Node1&#45;&gt;Node3 -->
<g id="edge2" class="edge">
<title>Node1&#45;&gt;Node3</title>
<path fill="none" stroke="midnightblue" d="M153.64,-50.1C166.78,-40.38 183.48,-28.03 194.56,-19.83"/>
<polygon fill="midnightblue" stroke="midnightblue" points="151.19,-47.56 145.23,-56.32 155.35,-53.19 151.19,-47.56"/>
</g>
</g>
</svg>
