<?xml version="1.0" encoding="UTF-8" standalone="no"?>
<!DOCTYPE svg PUBLIC "-//W3C//DTD SVG 1.1//EN"
 "http://www.w3.org/Graphics/SVG/1.1/DTD/svg11.dtd">
<!-- Generated by graphviz version 2.43.0 (0)
 -->
<!-- Title: DGtal::functors::BackwardRigidTransformation2D&lt; TSpace, TInputValue, TOutputValue, TFunctor &gt; Pages: 1 -->
<svg width="202pt" height="150pt"
 viewBox="0.00 0.00 202.00 150.00" xmlns="http://www.w3.org/2000/svg" xmlns:xlink="http://www.w3.org/1999/xlink">
<g id="graph0" class="graph" transform="scale(1 1) rotate(0) translate(4 146)">
<title>DGtal::functors::BackwardRigidTransformation2D&lt; TSpace, TInputValue, TOutputValue, TFunctor &gt;</title>
<polygon fill="white" stroke="transparent" points="-4,4 -4,-146 198,-146 198,4 -4,4"/>
<!-- Node1 -->
<g id="node1" class="node">
<title>Node1</title>
<g id="a_node1"><a xlink:title="Aim: implements backward rigid transformation of point in the 2D integer space. Warring: This version...">
<polygon fill="#bfbfbf" stroke="black" points="0,-89.5 0,-141.5 194,-141.5 194,-89.5 0,-89.5"/>
<text text-anchor="start" x="8" y="-129.5" font-family="FreeSans" font-size="10.00">DGtal::functors::Backward</text>
<text text-anchor="start" x="8" y="-118.5" font-family="FreeSans" font-size="10.00">RigidTransformation2D&lt;</text>
<text text-anchor="start" x="8" y="-107.5" font-family="FreeSans" font-size="10.00"> TSpace, TInputValue, TOutputValue,</text>
<text text-anchor="middle" x="97" y="-96.5" font-family="FreeSans" font-size="10.00"> TFunctor &gt;</text>
</a>
</g>
</g>
<!-- Node2 -->
<g id="node2" class="node">
<title>Node2</title>
<g id="a_node2"><a xlink:href="classDGtal_1_1functors_1_1BackwardRigidTransformation2D.html" target="_top" xlink:title=" ">
<polygon fill="white" stroke="black" points="25,-0.5 25,-41.5 169,-41.5 169,-0.5 25,-0.5"/>
<text text-anchor="start" x="33" y="-29.5" font-family="FreeSans" font-size="10.00">DGtal::functors::Backward</text>
<text text-anchor="start" x="33" y="-18.5" font-family="FreeSans" font-size="10.00">RigidTransformation2D&lt;</text>
<text text-anchor="middle" x="97" y="-7.5" font-family="FreeSans" font-size="10.00"> Space &gt;</text>
</a>
</g>
</g>
<!-- Node1&#45;&gt;Node2 -->
<g id="edge1" class="edge">
<title>Node1&#45;&gt;Node2</title>
<path fill="none" stroke="orange" stroke-dasharray="5,2" d="M97,-78.95C97,-66.3 97,-52.51 97,-41.67"/>
<polygon fill="orange" stroke="orange" points="93.5,-79.22 97,-89.22 100.5,-79.22 93.5,-79.22"/>
<text text-anchor="middle" x="124.5" y="-63" font-family="FreeSans" font-size="10.00"> &lt; Space &gt;</text>
</g>
</g>
</svg>
