<?xml version="1.0" encoding="UTF-8" standalone="no"?>
<!DOCTYPE svg PUBLIC "-//W3C//DTD SVG 1.1//EN"
 "http://www.w3.org/Graphics/SVG/1.1/DTD/svg11.dtd">
<!-- Generated by graphviz version 2.43.0 (0)
 -->
<!-- Title: DGtal::detail::GridPoint&lt; Integer &gt; Pages: 1 -->
<svg width="295pt" height="117pt"
 viewBox="0.00 0.00 295.00 117.00" xmlns="http://www.w3.org/2000/svg" xmlns:xlink="http://www.w3.org/1999/xlink">
<g id="graph0" class="graph" transform="scale(1 1) rotate(0) translate(4 113)">
<title>DGtal::detail::GridPoint&lt; Integer &gt;</title>
<polygon fill="white" stroke="transparent" points="-4,4 -4,-113 291,-113 291,4 -4,4"/>
<!-- Node1 -->
<g id="node1" class="node">
<title>Node1</title>
<g id="a_node1"><a xlink:title="A grid point consists of a couple of nonnegative coordinates &#160;and an integer index &#160;that determines a...">
<polygon fill="#bfbfbf" stroke="black" points="0,-78.5 0,-108.5 129,-108.5 129,-78.5 0,-78.5"/>
<text text-anchor="start" x="8" y="-96.5" font-family="FreeSans" font-size="10.00">DGtal::detail::GridPoint</text>
<text text-anchor="middle" x="64.5" y="-85.5" font-family="FreeSans" font-size="10.00">&lt; Integer &gt;</text>
</a>
</g>
</g>
<!-- Node1&#45;&gt;Node1 -->
<g id="edge1" class="edge">
<title>Node1&#45;&gt;Node1</title>
<path fill="none" stroke="orange" stroke-dasharray="5,2" d="M139.46,-96C144.16,-95.41 147,-94.58 147,-93.5 147,-91.77 139.74,-90.68 129.18,-90.2"/>
<polygon fill="orange" stroke="orange" points="138.88,-92.54 129.18,-96.8 139.42,-99.51 138.88,-92.54"/>
<text text-anchor="middle" x="177.5" y="-91" font-family="FreeSans" font-size="10.00"> &lt; Integer &gt;</text>
</g>
<!-- Node1&#45;&gt;Node1 -->
<g id="edge3" class="edge">
<title>Node1&#45;&gt;Node1</title>
<path fill="none" stroke="orange" stroke-dasharray="5,2" d="M139.23,-100.55C174.74,-101.08 208,-98.72 208,-93.5 208,-87.79 168.19,-85.51 129.18,-86.67"/>
<polygon fill="orange" stroke="orange" points="139.26,-97.05 129.18,-100.33 139.1,-104.05 139.26,-97.05"/>
<text text-anchor="middle" x="238.5" y="-91" font-family="FreeSans" font-size="10.00"> &lt; Integer &gt;</text>
</g>
<!-- Node2 -->
<g id="node2" class="node">
<title>Node2</title>
<g id="a_node2"><a xlink:href="classDGtal_1_1detail_1_1GridPoint.html" target="_top" xlink:title=" ">
<polygon fill="white" stroke="black" points="0,-0.5 0,-30.5 129,-30.5 129,-0.5 0,-0.5"/>
<text text-anchor="start" x="8" y="-18.5" font-family="FreeSans" font-size="10.00">DGtal::detail::GridPoint</text>
<text text-anchor="middle" x="64.5" y="-7.5" font-family="FreeSans" font-size="10.00">&lt; int &gt;</text>
</a>
</g>
</g>
<!-- Node1&#45;&gt;Node2 -->
<g id="edge2" class="edge">
<title>Node1&#45;&gt;Node2</title>
<path fill="none" stroke="orange" stroke-dasharray="5,2" d="M64.5,-68.09C64.5,-55.76 64.5,-41.22 64.5,-30.73"/>
<polygon fill="orange" stroke="orange" points="61,-68.2 64.5,-78.2 68,-68.21 61,-68.2"/>
<text text-anchor="middle" x="84" y="-52" font-family="FreeSans" font-size="10.00"> &lt; int &gt;</text>
</g>
</g>
</svg>
