<?xml version="1.0" encoding="UTF-8" standalone="no"?>
<!DOCTYPE svg PUBLIC "-//W3C//DTD SVG 1.1//EN"
 "http://www.w3.org/Graphics/SVG/1.1/DTD/svg11.dtd">
<!-- Generated by graphviz version 2.43.0 (0)
 -->
<!-- Title: DGtal::ArithmeticalDSS&lt; TCoordinate, TInteger, adjacency &gt; Pages: 1 -->
<svg width="729pt" height="186pt"
 viewBox="0.00 0.00 729.00 186.00" xmlns="http://www.w3.org/2000/svg" xmlns:xlink="http://www.w3.org/1999/xlink">
<g id="graph0" class="graph" transform="scale(1 1) rotate(0) translate(4 182)">
<title>DGtal::ArithmeticalDSS&lt; TCoordinate, TInteger, adjacency &gt;</title>
<polygon fill="white" stroke="transparent" points="-4,4 -4,-182 725,-182 725,4 -4,4"/>
<!-- Node1 -->
<g id="node1" class="node">
<title>Node1</title>
<g id="a_node1"><a xlink:title="Aim: This class represents a naive (resp. standard) digital straight segment (DSS),...">
<polygon fill="#bfbfbf" stroke="black" points="0,-69 0,-110 136,-110 136,-69 0,-69"/>
<text text-anchor="start" x="8" y="-98" font-family="FreeSans" font-size="10.00">DGtal::ArithmeticalDSS</text>
<text text-anchor="start" x="8" y="-87" font-family="FreeSans" font-size="10.00">&lt; TCoordinate, TInteger,</text>
<text text-anchor="middle" x="68" y="-76" font-family="FreeSans" font-size="10.00"> adjacency &gt;</text>
</a>
</g>
</g>
<!-- Node2 -->
<g id="node2" class="node">
<title>Node2</title>
<g id="a_node2"><a xlink:href="classDGtal_1_1ArithmeticalDSS.html" target="_top" xlink:title=" ">
<polygon fill="white" stroke="black" points="333,-147.5 333,-177.5 507,-177.5 507,-147.5 333,-147.5"/>
<text text-anchor="start" x="341" y="-165.5" font-family="FreeSans" font-size="10.00">DGtal::ArithmeticalDSS</text>
<text text-anchor="middle" x="420" y="-154.5" font-family="FreeSans" font-size="10.00">&lt; TCoordinate, TCoordinate, 8 &gt;</text>
</a>
</g>
</g>
<!-- Node1&#45;&gt;Node2 -->
<g id="edge1" class="edge">
<title>Node1&#45;&gt;Node2</title>
<path fill="none" stroke="orange" stroke-dasharray="5,2" d="M130.22,-113.41C138.15,-116.03 146.22,-118.48 154,-120.5 212.85,-135.74 280.56,-146.36 332.81,-153.1"/>
<polygon fill="orange" stroke="orange" points="131.24,-110.06 120.64,-110.13 128.97,-116.68 131.24,-110.06"/>
<text text-anchor="middle" x="234.5" y="-152.5" font-family="FreeSans" font-size="10.00"> &lt; TCoordinate, TCoordinate, 8 &gt;</text>
</g>
<!-- Node4 -->
<g id="node4" class="node">
<title>Node4</title>
<g id="a_node4"><a xlink:href="classDGtal_1_1ArithmeticalDSS.html" target="_top" xlink:title=" ">
<polygon fill="white" stroke="black" points="347.5,-98.5 347.5,-128.5 492.5,-128.5 492.5,-98.5 347.5,-98.5"/>
<text text-anchor="start" x="355.5" y="-116.5" font-family="FreeSans" font-size="10.00">DGtal::ArithmeticalDSS</text>
<text text-anchor="middle" x="420" y="-105.5" font-family="FreeSans" font-size="10.00">&lt; Coordinate, Integer, 8 &gt;</text>
</a>
</g>
</g>
<!-- Node1&#45;&gt;Node4 -->
<g id="edge3" class="edge">
<title>Node1&#45;&gt;Node4</title>
<path fill="none" stroke="orange" stroke-dasharray="5,2" d="M146.25,-94.8C206.24,-98.91 288.81,-104.57 347.34,-108.59"/>
<polygon fill="orange" stroke="orange" points="146.29,-91.29 136.07,-94.1 145.81,-98.28 146.29,-91.29"/>
<text text-anchor="middle" x="234.5" y="-108.5" font-family="FreeSans" font-size="10.00"> &lt; Coordinate, Integer, 8 &gt;</text>
</g>
<!-- Node5 -->
<g id="node5" class="node">
<title>Node5</title>
<g id="a_node5"><a xlink:href="classDGtal_1_1ArithmeticalDSS.html" target="_top" xlink:title=" ">
<polygon fill="white" stroke="black" points="333,-49.5 333,-79.5 507,-79.5 507,-49.5 333,-49.5"/>
<text text-anchor="start" x="341" y="-67.5" font-family="FreeSans" font-size="10.00">DGtal::ArithmeticalDSS</text>
<text text-anchor="middle" x="420" y="-56.5" font-family="FreeSans" font-size="10.00">&lt; TCoordinate, TCoordinate, 4 &gt;</text>
</a>
</g>
</g>
<!-- Node1&#45;&gt;Node5 -->
<g id="edge4" class="edge">
<title>Node1&#45;&gt;Node5</title>
<path fill="none" stroke="orange" stroke-dasharray="5,2" d="M146.32,-81.16C148.91,-80.93 151.48,-80.71 154,-80.5 213.6,-75.55 280.86,-71.51 332.7,-68.72"/>
<polygon fill="orange" stroke="orange" points="145.88,-77.69 136.25,-82.1 146.53,-84.66 145.88,-77.69"/>
<text text-anchor="middle" x="234.5" y="-83.5" font-family="FreeSans" font-size="10.00"> &lt; TCoordinate, TCoordinate, 4 &gt;</text>
</g>
<!-- Node7 -->
<g id="node7" class="node">
<title>Node7</title>
<g id="a_node7"><a xlink:href="classDGtal_1_1ArithmeticalDSS.html" target="_top" xlink:title=" ">
<polygon fill="white" stroke="black" points="347.5,-0.5 347.5,-30.5 492.5,-30.5 492.5,-0.5 347.5,-0.5"/>
<text text-anchor="start" x="355.5" y="-18.5" font-family="FreeSans" font-size="10.00">DGtal::ArithmeticalDSS</text>
<text text-anchor="middle" x="420" y="-7.5" font-family="FreeSans" font-size="10.00">&lt; Coordinate, Integer, 4 &gt;</text>
</a>
</g>
</g>
<!-- Node1&#45;&gt;Node7 -->
<g id="edge6" class="edge">
<title>Node1&#45;&gt;Node7</title>
<path fill="none" stroke="orange" stroke-dasharray="5,2" d="M122.87,-65.02C133.05,-61.05 143.74,-57.32 154,-54.5 218.23,-36.84 293.55,-26.73 347.45,-21.25"/>
<polygon fill="orange" stroke="orange" points="121.25,-61.9 113.28,-68.88 123.86,-68.39 121.25,-61.9"/>
<text text-anchor="middle" x="234.5" y="-57.5" font-family="FreeSans" font-size="10.00"> &lt; Coordinate, Integer, 4 &gt;</text>
</g>
<!-- Node3 -->
<g id="node3" class="node">
<title>Node3</title>
<g id="a_node3"><a xlink:href="classDGtal_1_1NaiveDSS8.html" target="_top" xlink:title="Aim: This class represents a standard digital straight segment (DSS), ie. the sequence of simply 8&#45;co...">
<polygon fill="white" stroke="black" points="544,-147.5 544,-177.5 721,-177.5 721,-147.5 544,-147.5"/>
<text text-anchor="start" x="552" y="-165.5" font-family="FreeSans" font-size="10.00">DGtal::NaiveDSS8&lt; TCoordinate,</text>
<text text-anchor="middle" x="632.5" y="-154.5" font-family="FreeSans" font-size="10.00"> TInteger &gt;</text>
</a>
</g>
</g>
<!-- Node2&#45;&gt;Node3 -->
<g id="edge2" class="edge">
<title>Node2&#45;&gt;Node3</title>
<path fill="none" stroke="midnightblue" d="M517.45,-162.5C526.2,-162.5 535.03,-162.5 543.7,-162.5"/>
<polygon fill="midnightblue" stroke="midnightblue" points="517.23,-159 507.23,-162.5 517.23,-166 517.23,-159"/>
</g>
<!-- Node6 -->
<g id="node6" class="node">
<title>Node6</title>
<g id="a_node6"><a xlink:href="classDGtal_1_1StandardDSS4.html" target="_top" xlink:title="Aim: This class represents a standard digital straight segment (DSS), ie. the sequence of simply 4&#45;co...">
<polygon fill="white" stroke="black" points="560.5,-49.5 560.5,-79.5 704.5,-79.5 704.5,-49.5 560.5,-49.5"/>
<text text-anchor="start" x="568.5" y="-67.5" font-family="FreeSans" font-size="10.00">DGtal::StandardDSS4</text>
<text text-anchor="middle" x="632.5" y="-56.5" font-family="FreeSans" font-size="10.00">&lt; TCoordinate, TInteger &gt;</text>
</a>
</g>
</g>
<!-- Node5&#45;&gt;Node6 -->
<g id="edge5" class="edge">
<title>Node5&#45;&gt;Node6</title>
<path fill="none" stroke="midnightblue" d="M517.25,-64.5C531.81,-64.5 546.6,-64.5 560.5,-64.5"/>
<polygon fill="midnightblue" stroke="midnightblue" points="517.23,-61 507.23,-64.5 517.23,-68 517.23,-61"/>
</g>
</g>
</svg>
