<?xml version="1.0" encoding="UTF-8" standalone="no"?>
<!DOCTYPE svg PUBLIC "-//W3C//DTD SVG 1.1//EN"
 "http://www.w3.org/Graphics/SVG/1.1/DTD/svg11.dtd">
<!-- Generated by graphviz version 2.43.0 (0)
 -->
<!-- Title: SegmentComputerHierarchy Pages: 1 -->
<svg width="680pt" height="459pt"
 viewBox="0.00 0.00 680.00 459.00" xmlns="http://www.w3.org/2000/svg" xmlns:xlink="http://www.w3.org/1999/xlink">
<g id="graph0" class="graph" transform="scale(1 1) rotate(0) translate(4 455)">
<title>SegmentComputerHierarchy</title>
<polygon fill="white" stroke="transparent" points="-4,4 -4,-455 676,-455 676,4 -4,4"/>
<g id="clust1" class="cluster">
<title>cluster_concepts_1</title>
<polygon fill="lightgrey" stroke="lightgrey" points="8,-8 8,-443 664,-443 664,-8 8,-8"/>
<text text-anchor="middle" x="336" y="-15.8" font-family="Times,serif" font-size="14.00">geometry/curves (main concepts)</text>
</g>
<!-- CSegment -->
<g id="node1" class="node">
<title>CSegment</title>
<g id="a_node1"><a xlink:href="structDGtal_1_1concepts_1_1CSegment.html" target="_top" xlink:title="CSegment">
<ellipse fill="white" stroke="white" cx="338" cy="-417" rx="59.29" ry="18"/>
<text text-anchor="middle" x="338" y="-413.3" font-family="Times,serif" font-size="14.00">CSegment</text>
</a>
</g>
</g>
<!-- CBidirectionalSegmentComputer -->
<g id="node2" class="node">
<title>CBidirectionalSegmentComputer</title>
<g id="a_node2"><a xlink:href="structDGtal_1_1concepts_1_1CBidirectionalSegmentComputer.html" target="_top" xlink:title="CBidirectionalSegmentComputer">
<ellipse fill="white" stroke="white" cx="181" cy="-129" rx="165.17" ry="18"/>
<text text-anchor="middle" x="181" y="-125.3" font-family="Times,serif" font-size="14.00">CBidirectionalSegmentComputer</text>
</a>
</g>
</g>
<!-- CForwardSegmentComputer -->
<g id="node4" class="node">
<title>CForwardSegmentComputer</title>
<g id="a_node4"><a xlink:href="structDGtal_1_1concepts_1_1CForwardSegmentComputer.html" target="_top" xlink:title="CForwardSegmentComputer">
<ellipse fill="white" stroke="white" cx="338" cy="-201" rx="144.07" ry="18"/>
<text text-anchor="middle" x="338" y="-197.3" font-family="Times,serif" font-size="14.00">CForwardSegmentComputer</text>
</a>
</g>
</g>
<!-- CBidirectionalSegmentComputer&#45;&gt;CForwardSegmentComputer -->
<g id="edge1" class="edge">
<title>CBidirectionalSegmentComputer&#45;&gt;CForwardSegmentComputer</title>
<path fill="none" stroke="black" d="M218.21,-146.59C240.2,-156.4 268.25,-168.9 291.67,-179.34"/>
<polygon fill="black" stroke="black" points="290.5,-182.65 301.06,-183.53 293.35,-176.26 290.5,-182.65"/>
</g>
<!-- CIncrementalSegmentComputer -->
<g id="node3" class="node">
<title>CIncrementalSegmentComputer</title>
<g id="a_node3"><a xlink:href="structDGtal_1_1concepts_1_1CIncrementalSegmentComputer.html" target="_top" xlink:title="CIncrementalSegmentComputer">
<ellipse fill="white" stroke="white" cx="338" cy="-273" rx="161.37" ry="18"/>
<text text-anchor="middle" x="338" y="-269.3" font-family="Times,serif" font-size="14.00">CIncrementalSegmentComputer</text>
</a>
</g>
</g>
<!-- CSegmentFactory -->
<g id="node5" class="node">
<title>CSegmentFactory</title>
<g id="a_node5"><a xlink:href="structDGtal_1_1concepts_1_1CSegmentFactory.html" target="_top" xlink:title="CSegmentFactory">
<ellipse fill="white" stroke="white" cx="338" cy="-345" rx="94.48" ry="18"/>
<text text-anchor="middle" x="338" y="-341.3" font-family="Times,serif" font-size="14.00">CSegmentFactory</text>
</a>
</g>
</g>
<!-- CIncrementalSegmentComputer&#45;&gt;CSegmentFactory -->
<g id="edge3" class="edge">
<title>CIncrementalSegmentComputer&#45;&gt;CSegmentFactory</title>
<path fill="none" stroke="black" d="M338,-291.3C338,-299.02 338,-308.29 338,-316.89"/>
<polygon fill="black" stroke="black" points="334.5,-316.9 338,-326.9 341.5,-316.9 334.5,-316.9"/>
</g>
<!-- CForwardSegmentComputer&#45;&gt;CIncrementalSegmentComputer -->
<g id="edge2" class="edge">
<title>CForwardSegmentComputer&#45;&gt;CIncrementalSegmentComputer</title>
<path fill="none" stroke="black" d="M338,-219.3C338,-227.02 338,-236.29 338,-244.89"/>
<polygon fill="black" stroke="black" points="334.5,-244.9 338,-254.9 341.5,-244.9 334.5,-244.9"/>
</g>
<!-- CSegmentFactory&#45;&gt;CSegment -->
<g id="edge4" class="edge">
<title>CSegmentFactory&#45;&gt;CSegment</title>
<path fill="none" stroke="black" d="M338,-363.3C338,-371.02 338,-380.29 338,-388.89"/>
<polygon fill="black" stroke="black" points="334.5,-388.9 338,-398.9 341.5,-388.9 334.5,-388.9"/>
</g>
<!-- CDynamicBidirectionalSegmentComputer -->
<g id="node6" class="node">
<title>CDynamicBidirectionalSegmentComputer</title>
<g id="a_node6"><a xlink:href="structDGtal_1_1concepts_1_1CDynamicBidirectionalSegmentComputer.html" target="_top" xlink:title="CDynamicBidirectionalSegmentComputer">
<ellipse fill="white" stroke="white" cx="336" cy="-57" rx="205.26" ry="18"/>
<text text-anchor="middle" x="336" y="-53.3" font-family="Times,serif" font-size="14.00">CDynamicBidirectionalSegmentComputer</text>
</a>
</g>
</g>
<!-- CDynamicBidirectionalSegmentComputer&#45;&gt;CBidirectionalSegmentComputer -->
<g id="edge7" class="edge">
<title>CDynamicBidirectionalSegmentComputer&#45;&gt;CBidirectionalSegmentComputer</title>
<path fill="none" stroke="black" d="M298.87,-74.77C277.31,-84.51 249.95,-96.86 227.02,-107.22"/>
<polygon fill="black" stroke="black" points="225.5,-104.06 217.82,-111.37 228.38,-110.44 225.5,-104.06"/>
</g>
<!-- CDynamicSegmentComputer -->
<g id="node7" class="node">
<title>CDynamicSegmentComputer</title>
<g id="a_node7"><a xlink:href="structDGtal_1_1concepts_1_1CDynamicSegmentComputer.html" target="_top" xlink:title="CDynamicSegmentComputer">
<ellipse fill="white" stroke="white" cx="510" cy="-129" rx="145.67" ry="18"/>
<text text-anchor="middle" x="510" y="-125.3" font-family="Times,serif" font-size="14.00">CDynamicSegmentComputer</text>
</a>
</g>
</g>
<!-- CDynamicBidirectionalSegmentComputer&#45;&gt;CDynamicSegmentComputer -->
<g id="edge6" class="edge">
<title>CDynamicBidirectionalSegmentComputer&#45;&gt;CDynamicSegmentComputer</title>
<path fill="none" stroke="black" d="M377.68,-74.77C402.39,-84.71 433.87,-97.37 459.93,-107.86"/>
<polygon fill="black" stroke="black" points="458.68,-111.13 469.26,-111.61 461.29,-104.63 458.68,-111.13"/>
</g>
<!-- CDynamicSegmentComputer&#45;&gt;CForwardSegmentComputer -->
<g id="edge5" class="edge">
<title>CDynamicSegmentComputer&#45;&gt;CForwardSegmentComputer</title>
<path fill="none" stroke="black" d="M469.67,-146.41C445.09,-156.42 413.49,-169.28 387.41,-179.89"/>
<polygon fill="black" stroke="black" points="386.02,-176.68 378.07,-183.69 388.66,-183.16 386.02,-176.68"/>
</g>
</g>
</svg>
