<?xml version="1.0" encoding="UTF-8" standalone="no"?>
<!DOCTYPE svg PUBLIC "-//W3C//DTD SVG 1.1//EN"
 "http://www.w3.org/Graphics/SVG/1.1/DTD/svg11.dtd">
<!-- Generated by graphviz version 2.43.0 (0)
 -->
<!-- Title: GGraph Pages: 1 -->
<svg width="2261pt" height="491pt"
 viewBox="0.00 0.00 2261.00 491.00" xmlns="http://www.w3.org/2000/svg" xmlns:xlink="http://www.w3.org/1999/xlink">
<g id="graph0" class="graph" transform="scale(1 1) rotate(0) translate(4 487)">
<title>GGraph</title>
<polygon fill="white" stroke="transparent" points="-4,4 -4,-487 2257,-487 2257,4 -4,4"/>
<g id="clust1" class="cluster">
<title>cluster_ext</title>
</g>
<g id="clust2" class="cluster">
<title>cluster_base</title>
<polygon fill="#eeeeff" stroke="#eeeeff" points="556,-392 556,-467 696,-467 696,-392 556,-392"/>
<text text-anchor="middle" x="626" y="-399.8" font-family="Times,serif" font-size="14.00">base</text>
</g>
<g id="clust5" class="cluster">
<title>cluster_boost</title>
<polygon fill="white" stroke="white" points="704,-392 704,-467 2119,-467 2119,-392 704,-392"/>
<text text-anchor="middle" x="1411.5" y="-399.8" font-family="Times,serif" font-size="14.00">boost</text>
</g>
<g id="clust7" class="cluster">
<title>cluster_concepts</title>
<polygon fill="lightgrey" stroke="lightgrey" points="737,-130 737,-365 1187,-365 1187,-130 737,-130"/>
<text text-anchor="middle" x="962" y="-137.8" font-family="Times,serif" font-size="14.00">Graph (main concepts)</text>
</g>
<g id="clust8" class="cluster">
<title>cluster_down</title>
<polygon fill="none" stroke="black" points="8,-8 8,-99 2245,-99 2245,-8 8,-8"/>
</g>
<g id="clust9" class="cluster">
<title>cluster_models</title>
<polygon fill="#ccffcc" stroke="#ccffcc" points="687,-16 687,-91 2237,-91 2237,-16 687,-16"/>
<text text-anchor="middle" x="1462" y="-23.8" font-family="Times,serif" font-size="14.00">Graph (main models and classes)</text>
</g>
<g id="clust10" class="cluster">
<title>cluster_topology</title>
<polygon fill="#ccffcc" stroke="#ccffcc" points="16,-16 16,-91 679,-91 679,-16 16,-16"/>
<text text-anchor="middle" x="347.5" y="-23.8" font-family="Times,serif" font-size="14.00">Topology (related concepts and models)</text>
</g>
<!-- CPredicate -->
<g id="node1" class="node">
<title>CPredicate</title>
<g id="a_node1"><a xlink:href="structDGtal_1_1concepts_1_1CPredicate.html" target="_top" xlink:title="CPredicate">
<ellipse fill="white" stroke="white" cx="626" cy="-441" rx="61.99" ry="18"/>
<text text-anchor="middle" x="626" y="-437.3" font-family="Times,serif" font-size="14.00">CPredicate</text>
</a>
</g>
</g>
<!-- boost_Assignable -->
<g id="node2" class="node">
<title>boost_Assignable</title>
<g id="a_node2"><a xlink:href="structboost_1_1Assignable.html" target="_top" xlink:title="boost::Assignable">
<ellipse fill="orange" stroke="orange" cx="1318" cy="-441" rx="92.08" ry="18"/>
<text text-anchor="middle" x="1318" y="-437.3" font-family="Times,serif" font-size="14.00">boost::Assignable</text>
</a>
</g>
</g>
<!-- boost_CopyConstructible -->
<g id="node3" class="node">
<title>boost_CopyConstructible</title>
<g id="a_node3"><a xlink:href="structboost_1_1CopyConstructible.html" target="_top" xlink:title="boost::CopyConstructible">
<ellipse fill="orange" stroke="orange" cx="840" cy="-441" rx="128.08" ry="18"/>
<text text-anchor="middle" x="840" y="-437.3" font-family="Times,serif" font-size="14.00">boost::CopyConstructible</text>
</a>
</g>
</g>
<!-- boost_OutputIterator -->
<g id="node4" class="node">
<title>boost_OutputIterator</title>
<g id="a_node4"><a xlink:href="structboost_1_1OutputIterator.html" target="_top" xlink:title="boost::OutputIterator">
<ellipse fill="orange" stroke="orange" cx="1097" cy="-441" rx="110.48" ry="18"/>
<text text-anchor="middle" x="1097" y="-437.3" font-family="Times,serif" font-size="14.00">boost::OutputIterator</text>
</a>
</g>
</g>
<!-- boost_UniqueAssociativeContainer -->
<g id="node5" class="node">
<title>boost_UniqueAssociativeContainer</title>
<g id="a_node5"><a xlink:href="structboost_1_1UniqueAssociativeContainer.html" target="_top" xlink:title="boost::UniqueAssociativeContainer">
<ellipse fill="orange" stroke="orange" cx="1602" cy="-441" rx="173.57" ry="18"/>
<text text-anchor="middle" x="1602" y="-437.3" font-family="Times,serif" font-size="14.00">boost::UniqueAssociativeContainer</text>
</a>
</g>
</g>
<!-- boost_PairAssociativeContainer -->
<g id="node6" class="node">
<title>boost_PairAssociativeContainer</title>
<g id="a_node6"><a xlink:href="structboost_1_1PairAssociativeContainer.html" target="_top" xlink:title="boost::PairAssociativeContainer">
<ellipse fill="orange" stroke="orange" cx="1952" cy="-441" rx="158.67" ry="18"/>
<text text-anchor="middle" x="1952" y="-437.3" font-family="Times,serif" font-size="14.00">boost::PairAssociativeContainer</text>
</a>
</g>
</g>
<!-- CUndirectedSimpleLocalGraph -->
<g id="node7" class="node">
<title>CUndirectedSimpleLocalGraph</title>
<g id="a_node7"><a xlink:href="structDGtal_1_1concepts_1_1CUndirectedSimpleLocalGraph.html" target="_top" xlink:title="CUndirectedSimpleLocalGraph">
<ellipse fill="white" stroke="white" cx="1024" cy="-252" rx="155.17" ry="18"/>
<text text-anchor="middle" x="1024" y="-248.3" font-family="Times,serif" font-size="14.00">CUndirectedSimpleLocalGraph</text>
</a>
</g>
</g>
<!-- CUndirectedSimpleLocalGraph&#45;&gt;boost_OutputIterator -->
<g id="edge5" class="edge">
<title>CUndirectedSimpleLocalGraph&#45;&gt;boost_OutputIterator</title>
<path fill="none" stroke="black" stroke-dasharray="5,2" d="M936.61,-266.89C857.71,-283.01 760.45,-314.11 806,-365 831.5,-393.49 940.19,-373.67 977,-384 1005.79,-392.08 1036.31,-406.41 1059.36,-418.55"/>
<polygon fill="black" stroke="black" points="1057.97,-421.78 1068.44,-423.42 1061.28,-415.61 1057.97,-421.78"/>
<text text-anchor="middle" x="818.5" y="-335.3" font-family="Times,serif" font-size="14.00">use</text>
</g>
<!-- CVertexPredicate -->
<g id="node9" class="node">
<title>CVertexPredicate</title>
<g id="a_node9"><a xlink:href="structDGtal_1_1concepts_1_1CVertexPredicate.html" target="_top" xlink:title="CVertexPredicate">
<ellipse fill="white" stroke="white" cx="932" cy="-339" rx="92.08" ry="18"/>
<text text-anchor="middle" x="932" y="-335.3" font-family="Times,serif" font-size="14.00">CVertexPredicate</text>
</a>
</g>
</g>
<!-- CUndirectedSimpleLocalGraph&#45;&gt;CVertexPredicate -->
<g id="edge6" class="edge">
<title>CUndirectedSimpleLocalGraph&#45;&gt;CVertexPredicate</title>
<path fill="none" stroke="black" stroke-dasharray="5,2" d="M1005.38,-270.2C991.7,-282.84 972.94,-300.18 957.81,-314.15"/>
<polygon fill="black" stroke="black" points="955.25,-311.76 950.28,-321.11 960,-316.9 955.25,-311.76"/>
<text text-anchor="middle" x="995.5" y="-291.8" font-family="Times,serif" font-size="14.00">use</text>
</g>
<!-- CVertexMap -->
<g id="node10" class="node">
<title>CVertexMap</title>
<g id="a_node10"><a xlink:href="structDGtal_1_1concepts_1_1CVertexMap.html" target="_top" xlink:title="CVertexMap">
<ellipse fill="white" stroke="white" cx="1111" cy="-339" rx="68.49" ry="18"/>
<text text-anchor="middle" x="1111" y="-335.3" font-family="Times,serif" font-size="14.00">CVertexMap</text>
</a>
</g>
</g>
<!-- CUndirectedSimpleLocalGraph&#45;&gt;CVertexMap -->
<g id="edge4" class="edge">
<title>CUndirectedSimpleLocalGraph&#45;&gt;CVertexMap</title>
<path fill="none" stroke="black" stroke-dasharray="5,2" d="M1041.61,-270.2C1054.51,-282.81 1072.19,-300.08 1086.48,-314.04"/>
<polygon fill="black" stroke="black" points="1084.41,-316.92 1094.01,-321.4 1089.31,-311.91 1084.41,-316.92"/>
<text text-anchor="middle" x="1084.5" y="-291.8" font-family="Times,serif" font-size="14.00">use</text>
</g>
<!-- CUndirectedSimpleGraph -->
<g id="node8" class="node">
<title>CUndirectedSimpleGraph</title>
<g id="a_node8"><a xlink:href="structDGtal_1_1concepts_1_1CUndirectedSimpleGraph.html" target="_top" xlink:title="CUndirectedSimpleGraph">
<ellipse fill="white" stroke="white" cx="876" cy="-179" rx="130.78" ry="18"/>
<text text-anchor="middle" x="876" y="-175.3" font-family="Times,serif" font-size="14.00">CUndirectedSimpleGraph</text>
</a>
</g>
</g>
<!-- CUndirectedSimpleGraph&#45;&gt;CUndirectedSimpleLocalGraph -->
<g id="edge3" class="edge">
<title>CUndirectedSimpleGraph&#45;&gt;CUndirectedSimpleLocalGraph</title>
<path fill="none" stroke="black" d="M910.33,-196.47C931.1,-206.43 957.79,-219.24 980.09,-229.93"/>
<polygon fill="black" stroke="black" points="978.82,-233.21 989.35,-234.38 981.84,-226.9 978.82,-233.21"/>
</g>
<!-- CVertexPredicate&#45;&gt;CPredicate -->
<g id="edge1" class="edge">
<title>CVertexPredicate&#45;&gt;CPredicate</title>
<path fill="none" stroke="black" d="M877.99,-353.64C861.37,-357.59 842.99,-361.72 826,-365 770.39,-375.73 752.19,-362.01 700,-384 681.63,-391.74 663.73,-405.08 650.14,-416.79"/>
<polygon fill="black" stroke="black" points="647.81,-414.19 642.67,-423.45 652.46,-419.42 647.81,-414.19"/>
</g>
<!-- CVertexMap&#45;&gt;boost_Assignable -->
<g id="edge2" class="edge">
<title>CVertexMap&#45;&gt;boost_Assignable</title>
<path fill="none" stroke="black" d="M1147.86,-354.34C1168.19,-362.52 1193.75,-373.27 1216,-384 1238.15,-394.68 1262.29,-407.87 1281.53,-418.76"/>
<polygon fill="black" stroke="black" points="1279.85,-421.83 1290.27,-423.74 1283.32,-415.75 1279.85,-421.83"/>
</g>
<!-- CGraphVisitor -->
<g id="node11" class="node">
<title>CGraphVisitor</title>
<g id="a_node11"><a xlink:href="structDGtal_1_1concepts_1_1CGraphVisitor.html" target="_top" xlink:title="CGraphVisitor">
<ellipse fill="white" stroke="white" cx="1102" cy="-179" rx="77.19" ry="18"/>
<text text-anchor="middle" x="1102" y="-175.3" font-family="Times,serif" font-size="14.00">CGraphVisitor</text>
</a>
</g>
</g>
<!-- CGraphVisitor&#45;&gt;boost_CopyConstructible -->
<g id="edge7" class="edge">
<title>CGraphVisitor&#45;&gt;boost_CopyConstructible</title>
<path fill="none" stroke="black" d="M1046.16,-191.49C977.2,-205.82 867.96,-229.05 860,-234 817.86,-260.21 806.49,-274.19 790,-321 783.5,-339.44 784.33,-346.28 790,-365 795.56,-383.36 807.25,-401.33 817.94,-415.07"/>
<polygon fill="black" stroke="black" points="815.38,-417.48 824.4,-423.05 820.83,-413.08 815.38,-417.48"/>
</g>
<!-- CVertexPredicateArchetype -->
<g id="node12" class="node">
<title>CVertexPredicateArchetype</title>
<g id="a_node12"><a xlink:href="structDGtal_1_1concepts_1_1CVertexPredicateArchetype.html" target="_top" xlink:title="CVertexPredicateArchetype">
<ellipse fill="white" stroke="white" cx="1776" cy="-65" rx="139.98" ry="18"/>
<text text-anchor="middle" x="1776" y="-61.3" font-family="Times,serif" font-size="14.00">CVertexPredicateArchetype</text>
</a>
</g>
</g>
<!-- CVertexPredicateArchetype&#45;&gt;CVertexPredicate -->
<g id="edge8" class="edge">
<title>CVertexPredicateArchetype&#45;&gt;CVertexPredicate</title>
<path fill="none" stroke="black" d="M1741.35,-82.6C1685.37,-109.02 1571.16,-161.31 1471,-197 1309.87,-254.42 1267.09,-262.07 1101,-303 1070.03,-310.63 1035.59,-317.97 1005.92,-323.94"/>
<polygon fill="black" stroke="black" points="1005.17,-320.52 996.05,-325.91 1006.55,-327.38 1005.17,-320.52"/>
</g>
<!-- STLMapToVertexMapAdapter -->
<g id="node13" class="node">
<title>STLMapToVertexMapAdapter</title>
<g id="a_node13"><a xlink:href="classDGtal_1_1STLMapToVertexMapAdapter.html" target="_top" xlink:title="STLMapToVertexMapAdapter">
<ellipse fill="white" stroke="white" cx="2081" cy="-65" rx="147.57" ry="18"/>
<text text-anchor="middle" x="2081" y="-61.3" font-family="Times,serif" font-size="14.00">STLMapToVertexMapAdapter</text>
</a>
</g>
</g>
<!-- STLMapToVertexMapAdapter&#45;&gt;boost_UniqueAssociativeContainer -->
<g id="edge10" class="edge">
<title>STLMapToVertexMapAdapter&#45;&gt;boost_UniqueAssociativeContainer</title>
<path fill="none" stroke="black" stroke-dasharray="5,2" d="M1985.58,-78.79C1928.51,-92.41 1867,-120.45 1867,-178 1867,-178 1867,-178 1867,-340 1867,-350.89 1740.07,-394.6 1661.9,-420.49"/>
<polygon fill="black" stroke="black" points="1660.55,-417.25 1652.16,-423.71 1662.75,-423.9 1660.55,-417.25"/>
<text text-anchor="middle" x="1879.5" y="-248.3" font-family="Times,serif" font-size="14.00">use</text>
</g>
<!-- STLMapToVertexMapAdapter&#45;&gt;boost_PairAssociativeContainer -->
<g id="edge11" class="edge">
<title>STLMapToVertexMapAdapter&#45;&gt;boost_PairAssociativeContainer</title>
<path fill="none" stroke="black" stroke-dasharray="5,2" d="M2057.15,-82.83C2032.32,-102.54 1997,-137.65 1997,-178 1997,-178 1997,-178 1997,-340 1997,-367.12 1983.07,-395.02 1970.71,-414.43"/>
<polygon fill="black" stroke="black" points="1967.64,-412.72 1965.02,-422.98 1973.47,-416.6 1967.64,-412.72"/>
<text text-anchor="middle" x="2009.5" y="-248.3" font-family="Times,serif" font-size="14.00">use</text>
</g>
<!-- STLMapToVertexMapAdapter&#45;&gt;CVertexMap -->
<g id="edge9" class="edge">
<title>STLMapToVertexMapAdapter&#45;&gt;CVertexMap</title>
<path fill="none" stroke="black" d="M2015.99,-81.24C1988.09,-87.39 1955.06,-94.16 1925,-99 1893.21,-104.12 1884.5,-100.36 1853,-107 1722.61,-134.49 1694.21,-157.32 1567,-197 1420.9,-242.57 1248.27,-295.78 1163.43,-321.88"/>
<polygon fill="black" stroke="black" points="1162.3,-318.57 1153.77,-324.85 1164.36,-325.26 1162.3,-318.57"/>
</g>
<!-- BreadthFirstVisitor -->
<g id="node14" class="node">
<title>BreadthFirstVisitor</title>
<g id="a_node14"><a xlink:href="classDGtal_1_1BreadthFirstVisitor.html" target="_top" xlink:title="BreadthFirstVisitor">
<ellipse fill="white" stroke="white" cx="1314" cy="-65" rx="101.28" ry="18"/>
<text text-anchor="middle" x="1314" y="-61.3" font-family="Times,serif" font-size="14.00">BreadthFirstVisitor</text>
</a>
</g>
</g>
<!-- BreadthFirstVisitor&#45;&gt;CUndirectedSimpleLocalGraph -->
<g id="edge16" class="edge">
<title>BreadthFirstVisitor&#45;&gt;CUndirectedSimpleLocalGraph</title>
<path fill="none" stroke="black" stroke-dasharray="5,2" d="M1311.65,-83.12C1307.19,-110.03 1295.29,-162.7 1267,-197 1250.82,-216.61 1198.18,-229.61 1146.01,-237.92"/>
<polygon fill="black" stroke="black" points="1145.29,-234.49 1135.94,-239.47 1146.35,-241.41 1145.29,-234.49"/>
<text text-anchor="middle" x="1312.5" y="-175.3" font-family="Times,serif" font-size="14.00">use</text>
</g>
<!-- BreadthFirstVisitor&#45;&gt;CGraphVisitor -->
<g id="edge17" class="edge">
<title>BreadthFirstVisitor&#45;&gt;CGraphVisitor</title>
<path fill="none" stroke="black" d="M1283.17,-82.29C1245.49,-102.2 1181.68,-135.91 1140.72,-157.55"/>
<polygon fill="black" stroke="black" points="1139.04,-154.47 1131.84,-162.24 1142.31,-160.66 1139.04,-154.47"/>
</g>
<!-- DepthFirstVisitor -->
<g id="node15" class="node">
<title>DepthFirstVisitor</title>
<g id="a_node15"><a xlink:href="classDGtal_1_1DepthFirstVisitor.html" target="_top" xlink:title="DepthFirstVisitor">
<ellipse fill="white" stroke="white" cx="1526" cy="-65" rx="92.08" ry="18"/>
<text text-anchor="middle" x="1526" y="-61.3" font-family="Times,serif" font-size="14.00">DepthFirstVisitor</text>
</a>
</g>
</g>
<!-- DepthFirstVisitor&#45;&gt;CUndirectedSimpleLocalGraph -->
<g id="edge18" class="edge">
<title>DepthFirstVisitor&#45;&gt;CUndirectedSimpleLocalGraph</title>
<path fill="none" stroke="black" stroke-dasharray="5,2" d="M1506.12,-82.73C1472.06,-110.54 1399.4,-166.28 1329,-197 1277.03,-219.67 1216.13,-232.83 1162.48,-240.46"/>
<polygon fill="black" stroke="black" points="1161.98,-237 1152.55,-241.83 1162.93,-243.94 1161.98,-237"/>
<text text-anchor="middle" x="1454.5" y="-175.3" font-family="Times,serif" font-size="14.00">use</text>
</g>
<!-- DepthFirstVisitor&#45;&gt;CGraphVisitor -->
<g id="edge19" class="edge">
<title>DepthFirstVisitor&#45;&gt;CGraphVisitor</title>
<path fill="none" stroke="black" d="M1484.23,-81.12C1465.93,-87.32 1444.09,-94.17 1424,-99 1339.53,-119.32 1315.01,-107.86 1231,-130 1202.24,-137.58 1170.95,-149.14 1146.39,-159.01"/>
<polygon fill="black" stroke="black" points="1144.92,-155.83 1136.98,-162.84 1147.57,-162.31 1144.92,-155.83"/>
</g>
<!-- DistanceBreadthFirstVisitor -->
<g id="node16" class="node">
<title>DistanceBreadthFirstVisitor</title>
<g id="a_node16"><a xlink:href="classDGtal_1_1DistanceBreadthFirstVisitor.html" target="_top" xlink:title="DistanceBreadthFirstVisitor">
<ellipse fill="white" stroke="white" cx="1053" cy="-65" rx="141.88" ry="18"/>
<text text-anchor="middle" x="1053" y="-61.3" font-family="Times,serif" font-size="14.00">DistanceBreadthFirstVisitor</text>
</a>
</g>
</g>
<!-- DistanceBreadthFirstVisitor&#45;&gt;CUndirectedSimpleLocalGraph -->
<g id="edge20" class="edge">
<title>DistanceBreadthFirstVisitor&#45;&gt;CUndirectedSimpleLocalGraph</title>
<path fill="none" stroke="black" stroke-dasharray="5,2" d="M1142.19,-79.02C1172.3,-88.15 1202.85,-103.66 1221,-130 1242.69,-161.47 1245.55,-186.7 1221,-216 1211.79,-226.99 1188.05,-234.53 1160.11,-239.7"/>
<polygon fill="black" stroke="black" points="1159.32,-236.28 1150.06,-241.43 1160.51,-243.18 1159.32,-236.28"/>
<text text-anchor="middle" x="1250.5" y="-175.3" font-family="Times,serif" font-size="14.00">use</text>
</g>
<!-- DistanceBreadthFirstVisitor&#45;&gt;CGraphVisitor -->
<g id="edge21" class="edge">
<title>DistanceBreadthFirstVisitor&#45;&gt;CGraphVisitor</title>
<path fill="none" stroke="black" d="M1100.46,-82.13C1111.38,-88.18 1121.64,-96.28 1128,-107 1136.4,-121.17 1130.32,-138.51 1121.93,-152.51"/>
<polygon fill="black" stroke="black" points="1118.81,-150.89 1116.21,-161.16 1124.65,-154.74 1118.81,-150.89"/>
</g>
<!-- GraphVisitorRange -->
<g id="node17" class="node">
<title>GraphVisitorRange</title>
<g id="a_node17"><a xlink:href="classDGtal_1_1GraphVisitorRange.html" target="_top" xlink:title="GraphVisitorRange">
<ellipse fill="white" stroke="white" cx="794" cy="-65" rx="99.38" ry="18"/>
<text text-anchor="middle" x="794" y="-61.3" font-family="Times,serif" font-size="14.00">GraphVisitorRange</text>
</a>
</g>
</g>
<!-- GraphVisitorRange&#45;&gt;CGraphVisitor -->
<g id="edge22" class="edge">
<title>GraphVisitorRange&#45;&gt;CGraphVisitor</title>
<path fill="none" stroke="black" stroke-dasharray="5,2" d="M841.49,-80.86C860.29,-86.65 882.13,-93.26 902,-99 952.45,-113.56 967.38,-110.17 1016,-130 1033.87,-137.29 1052.69,-147.48 1068.16,-156.6"/>
<polygon fill="black" stroke="black" points="1066.47,-159.66 1076.85,-161.81 1070.08,-153.66 1066.47,-159.66"/>
<text text-anchor="middle" x="1004.5" y="-110.8" font-family="Times,serif" font-size="14.00">use</text>
</g>
<!-- CAdjacency -->
<g id="node18" class="node">
<title>CAdjacency</title>
<g id="a_node18"><a xlink:href="structDGtal_1_1concepts_1_1CAdjacency.html" target="_top" xlink:title="CAdjacency">
<ellipse fill="white" stroke="white" cx="607" cy="-65" rx="64.19" ry="18"/>
<text text-anchor="middle" x="607" y="-61.3" font-family="Times,serif" font-size="14.00">CAdjacency</text>
</a>
</g>
</g>
<!-- CAdjacency&#45;&gt;CUndirectedSimpleLocalGraph -->
<g id="edge12" class="edge">
<title>CAdjacency&#45;&gt;CUndirectedSimpleLocalGraph</title>
<path fill="none" stroke="black" d="M635.77,-81.32C649.65,-87.97 666.77,-95.11 683,-99 686.42,-99.82 1185.59,-127.44 1188,-130 1208.4,-151.69 1205.46,-172.87 1188,-197 1175.12,-214.8 1156.18,-226.83 1135.7,-234.94"/>
<polygon fill="black" stroke="black" points="1134.4,-231.69 1126.2,-238.4 1136.79,-238.27 1134.4,-231.69"/>
</g>
<!-- DigitalSurface -->
<g id="node19" class="node">
<title>DigitalSurface</title>
<g id="a_node19"><a xlink:href="classDGtal_1_1DigitalSurface.html" target="_top" xlink:title="DigitalSurface">
<ellipse fill="white" stroke="white" cx="101" cy="-65" rx="77.19" ry="18"/>
<text text-anchor="middle" x="101" y="-61.3" font-family="Times,serif" font-size="14.00">DigitalSurface</text>
</a>
</g>
</g>
<!-- DigitalSurface&#45;&gt;CUndirectedSimpleGraph -->
<g id="edge13" class="edge">
<title>DigitalSurface&#45;&gt;CUndirectedSimpleGraph</title>
<path fill="none" stroke="black" d="M135.09,-81.18C150.9,-87.63 170.11,-94.65 188,-99 377.2,-144.99 602.35,-164.41 742.25,-172.47"/>
<polygon fill="black" stroke="black" points="742.41,-175.98 752.6,-173.05 742.81,-168.99 742.41,-175.98"/>
</g>
<!-- IndexedDigitalSurface -->
<g id="node20" class="node">
<title>IndexedDigitalSurface</title>
<g id="a_node20"><a xlink:href="classDGtal_1_1IndexedDigitalSurface.html" target="_top" xlink:title="IndexedDigitalSurface">
<ellipse fill="white" stroke="white" cx="311" cy="-65" rx="114.28" ry="18"/>
<text text-anchor="middle" x="311" y="-61.3" font-family="Times,serif" font-size="14.00">IndexedDigitalSurface</text>
</a>
</g>
</g>
<!-- IndexedDigitalSurface&#45;&gt;CUndirectedSimpleGraph -->
<g id="edge14" class="edge">
<title>IndexedDigitalSurface&#45;&gt;CUndirectedSimpleGraph</title>
<path fill="none" stroke="black" d="M363.45,-81.01C385.19,-86.99 410.72,-93.69 434,-99 552.86,-126.11 691.44,-149.58 781.3,-163.74"/>
<polygon fill="black" stroke="black" points="780.78,-167.2 791.2,-165.29 781.86,-160.28 780.78,-167.2"/>
</g>
<!-- Object -->
<g id="node21" class="node">
<title>Object</title>
<g id="a_node21"><a xlink:href="classDGtal_1_1Object.html" target="_top" xlink:title="Object">
<ellipse fill="white" stroke="white" cx="484" cy="-65" rx="40.89" ry="18"/>
<text text-anchor="middle" x="484" y="-61.3" font-family="Times,serif" font-size="14.00">Object</text>
</a>
</g>
</g>
<!-- Object&#45;&gt;CUndirectedSimpleGraph -->
<g id="edge15" class="edge">
<title>Object&#45;&gt;CUndirectedSimpleGraph</title>
<path fill="none" stroke="black" d="M503.5,-81.22C512.39,-87.52 523.29,-94.41 534,-99 611.53,-132.26 705.23,-152.65 774.93,-164.36"/>
<polygon fill="black" stroke="black" points="774.6,-167.85 785.03,-166.03 775.73,-160.95 774.6,-167.85"/>
</g>
</g>
</svg>
