<?xml version="1.0" encoding="UTF-8" standalone="no"?>
<!DOCTYPE svg PUBLIC "-//W3C//DTD SVG 1.1//EN"
 "http://www.w3.org/Graphics/SVG/1.1/DTD/svg11.dtd">
<!-- Generated by graphviz version 2.43.0 (0)
 -->
<!-- Title: Graphical Class Hierarchy Pages: 1 -->
<svg width="324pt" height="100pt"
 viewBox="0.00 0.00 324.00 99.50" xmlns="http://www.w3.org/2000/svg" xmlns:xlink="http://www.w3.org/1999/xlink">
<g id="graph0" class="graph" transform="scale(1 1) rotate(0) translate(4 95.5)">
<title>Graphical Class Hierarchy</title>
<polygon fill="white" stroke="transparent" points="-4,4 -4,-95.5 320,-95.5 320,4 -4,4"/>
<!-- Node867 -->
<g id="node1" class="node">
<title>Node867</title>
<g id="a_node1"><a xlink:title=" ">
<polygon fill="white" stroke="#bfbfbf" points="0,-33 0,-52 128,-52 128,-33 0,-33"/>
<text text-anchor="middle" x="64" y="-40" font-family="FreeSans" font-size="10.00">boost::iterator_adaptor</text>
</a>
</g>
</g>
<!-- Node0 -->
<g id="node2" class="node">
<title>Node0</title>
<g id="a_node2"><a xlink:href="classDGtal_1_1ConstIteratorAdapter.html" target="_top" xlink:title="This class adapts any iterator so that operator* returns another element than the one pointed to by t...">
<polygon fill="white" stroke="black" points="164,-50 164,-91 316,-91 316,-50 164,-50"/>
<text text-anchor="start" x="172" y="-79" font-family="FreeSans" font-size="10.00">DGtal::ConstIteratorAdapter</text>
<text text-anchor="start" x="172" y="-68" font-family="FreeSans" font-size="10.00">&lt; TIterator, TLightFunctor,</text>
<text text-anchor="middle" x="240" y="-57" font-family="FreeSans" font-size="10.00"> TReturnType &gt;</text>
</a>
</g>
</g>
<!-- Node867&#45;&gt;Node0 -->
<g id="edge1" class="edge">
<title>Node867&#45;&gt;Node0</title>
<path fill="none" stroke="midnightblue" d="M134.37,-53.66C144.07,-55.22 154.07,-56.83 163.87,-58.41"/>
<polygon fill="midnightblue" stroke="midnightblue" points="134.82,-50.19 124.39,-52.06 133.71,-57.1 134.82,-50.19"/>
</g>
<!-- Node869 -->
<g id="node3" class="node">
<title>Node869</title>
<g id="a_node3"><a xlink:href="classDGtal_1_1ReverseIterator.html" target="_top" xlink:title="This class adapts any bidirectional iterator so that operator++ calls operator&#45;&#45; and vice versa.">
<polygon fill="white" stroke="black" points="177,-0.5 177,-30.5 303,-30.5 303,-0.5 177,-0.5"/>
<text text-anchor="start" x="185" y="-18.5" font-family="FreeSans" font-size="10.00">DGtal::ReverseIterator</text>
<text text-anchor="middle" x="240" y="-7.5" font-family="FreeSans" font-size="10.00">&lt; Iterator &gt;</text>
</a>
</g>
</g>
<!-- Node867&#45;&gt;Node869 -->
<g id="edge2" class="edge">
<title>Node867&#45;&gt;Node869</title>
<path fill="none" stroke="midnightblue" d="M136.45,-31.41C149.81,-29.34 163.68,-27.19 176.74,-25.16"/>
<polygon fill="midnightblue" stroke="midnightblue" points="135.69,-27.99 126.35,-32.98 136.76,-34.91 135.69,-27.99"/>
</g>
</g>
</svg>
