<?xml version="1.0" encoding="UTF-8" standalone="no"?>
<!DOCTYPE svg PUBLIC "-//W3C//DTD SVG 1.1//EN"
 "http://www.w3.org/Graphics/SVG/1.1/DTD/svg11.dtd">
<!-- Generated by graphviz version 2.43.0 (0)
 -->
<!-- Title: Graphical Class Hierarchy Pages: 1 -->
<svg width="329pt" height="137pt"
 viewBox="0.00 0.00 329.00 137.00" xmlns="http://www.w3.org/2000/svg" xmlns:xlink="http://www.w3.org/1999/xlink">
<g id="graph0" class="graph" transform="scale(1 1) rotate(0) translate(4 133)">
<title>Graphical Class Hierarchy</title>
<polygon fill="white" stroke="transparent" points="-4,4 -4,-133 325,-133 325,4 -4,4"/>
<!-- Node1492 -->
<g id="node1" class="node">
<title>Node1492</title>
<g id="a_node1"><a xlink:title=" ">
<polygon fill="white" stroke="#bfbfbf" points="0,-55 0,-74 97,-74 97,-55 0,-55"/>
<text text-anchor="middle" x="48.5" y="-62" font-family="FreeSans" font-size="10.00">std::vector&lt; T &gt;</text>
</a>
</g>
</g>
<!-- Node0 -->
<g id="node2" class="node">
<title>Node0</title>
<g id="a_node2"><a xlink:href="classDGtal_1_1ImageContainerBySTLVector.html" target="_top" xlink:title=" ">
<polygon fill="white" stroke="black" points="133,-98.5 133,-128.5 321,-128.5 321,-98.5 133,-98.5"/>
<text text-anchor="start" x="141" y="-116.5" font-family="FreeSans" font-size="10.00">DGtal::ImageContainerBySTLVector</text>
<text text-anchor="middle" x="227" y="-105.5" font-family="FreeSans" font-size="10.00">&lt; Domain, Storage * &gt;</text>
</a>
</g>
</g>
<!-- Node1492&#45;&gt;Node0 -->
<g id="edge1" class="edge">
<title>Node1492&#45;&gt;Node0</title>
<path fill="none" stroke="midnightblue" d="M89.94,-76.95C103.59,-81.06 118.92,-85.58 133,-89.5 143.76,-92.5 155.26,-95.57 166.37,-98.47"/>
<polygon fill="midnightblue" stroke="midnightblue" points="90.93,-73.59 80.35,-74.04 88.9,-80.29 90.93,-73.59"/>
</g>
<!-- Node1494 -->
<g id="node3" class="node">
<title>Node1494</title>
<g id="a_node3"><a xlink:href="classDGtal_1_1ImageContainerBySTLVector.html" target="_top" xlink:title=" ">
<polygon fill="white" stroke="black" points="133,-49.5 133,-79.5 321,-79.5 321,-49.5 133,-49.5"/>
<text text-anchor="start" x="141" y="-67.5" font-family="FreeSans" font-size="10.00">DGtal::ImageContainerBySTLVector</text>
<text text-anchor="middle" x="227" y="-56.5" font-family="FreeSans" font-size="10.00">&lt; Domain, Value &gt;</text>
</a>
</g>
</g>
<!-- Node1492&#45;&gt;Node1494 -->
<g id="edge2" class="edge">
<title>Node1492&#45;&gt;Node1494</title>
<path fill="none" stroke="midnightblue" d="M107.44,-64.5C115.66,-64.5 124.28,-64.5 132.97,-64.5"/>
<polygon fill="midnightblue" stroke="midnightblue" points="107.26,-61 97.26,-64.5 107.26,-68 107.26,-61"/>
</g>
<!-- Node1495 -->
<g id="node4" class="node">
<title>Node1495</title>
<g id="a_node4"><a xlink:href="classDGtal_1_1ImageContainerBySTLVector.html" target="_top" xlink:title=" ">
<polygon fill="white" stroke="black" points="133,-0.5 133,-30.5 321,-30.5 321,-0.5 133,-0.5"/>
<text text-anchor="start" x="141" y="-18.5" font-family="FreeSans" font-size="10.00">DGtal::ImageContainerBySTLVector</text>
<text text-anchor="middle" x="227" y="-7.5" font-family="FreeSans" font-size="10.00">&lt; TDomain, TValue &gt;</text>
</a>
</g>
</g>
<!-- Node1492&#45;&gt;Node1495 -->
<g id="edge3" class="edge">
<title>Node1492&#45;&gt;Node1495</title>
<path fill="none" stroke="midnightblue" d="M92.09,-52.1C105.2,-48.33 119.68,-44.2 133,-40.5 144.76,-37.23 157.37,-33.79 169.4,-30.55"/>
<polygon fill="midnightblue" stroke="midnightblue" points="91.02,-48.77 82.38,-54.91 92.96,-55.5 91.02,-48.77"/>
</g>
</g>
</svg>
