<?xml version="1.0" encoding="UTF-8" standalone="no"?>
<!DOCTYPE svg PUBLIC "-//W3C//DTD SVG 1.1//EN"
 "http://www.w3.org/Graphics/SVG/1.1/DTD/svg11.dtd">
<!-- Generated by graphviz version 2.43.0 (0)
 -->
<!-- Title: Graphical Class Hierarchy Pages: 1 -->
<svg width="277pt" height="50pt"
 viewBox="0.00 0.00 277.00 50.00" xmlns="http://www.w3.org/2000/svg" xmlns:xlink="http://www.w3.org/1999/xlink">
<g id="graph0" class="graph" transform="scale(1 1) rotate(0) translate(4 46)">
<title>Graphical Class Hierarchy</title>
<polygon fill="white" stroke="transparent" points="-4,4 -4,-46 273,-46 273,4 -4,4"/>
<!-- Node1091 -->
<g id="node1" class="node">
<title>Node1091</title>
<g id="a_node1"><a xlink:title=" ">
<polygon fill="white" stroke="#bfbfbf" points="0,-11.5 0,-30.5 56,-30.5 56,-11.5 0,-11.5"/>
<text text-anchor="middle" x="28" y="-18.5" font-family="FreeSans" font-size="10.00">std::pair</text>
</a>
</g>
</g>
<!-- Node0 -->
<g id="node2" class="node">
<title>Node0</title>
<g id="a_node2"><a xlink:href="structDGtal_1_1DistanceBreadthFirstVisitor_1_1Node.html" target="_top" xlink:title=" ">
<polygon fill="white" stroke="black" points="92,-0.5 92,-41.5 269,-41.5 269,-0.5 92,-0.5"/>
<text text-anchor="start" x="100" y="-29.5" font-family="FreeSans" font-size="10.00">DGtal::DistanceBreadthFirst</text>
<text text-anchor="start" x="100" y="-18.5" font-family="FreeSans" font-size="10.00">Visitor&lt; TGraph, TVertexFunctor,</text>
<text text-anchor="middle" x="180.5" y="-7.5" font-family="FreeSans" font-size="10.00"> TMarkSet &gt;::Node</text>
</a>
</g>
</g>
<!-- Node1091&#45;&gt;Node0 -->
<g id="edge1" class="edge">
<title>Node1091&#45;&gt;Node0</title>
<path fill="none" stroke="midnightblue" d="M66.5,-21C74.39,-21 83.03,-21 91.9,-21"/>
<polygon fill="midnightblue" stroke="midnightblue" points="66.25,-17.5 56.25,-21 66.25,-24.5 66.25,-17.5"/>
</g>
</g>
</svg>
