<?xml version="1.0" encoding="UTF-8" standalone="no"?>
<!DOCTYPE svg PUBLIC "-//W3C//DTD SVG 1.1//EN"
 "http://www.w3.org/Graphics/SVG/1.1/DTD/svg11.dtd">
<!-- Generated by graphviz version 2.43.0 (0)
 -->
<!-- Title: Graphical Class Hierarchy Pages: 1 -->
<svg width="308pt" height="50pt"
 viewBox="0.00 0.00 308.00 50.00" xmlns="http://www.w3.org/2000/svg" xmlns:xlink="http://www.w3.org/1999/xlink">
<g id="graph0" class="graph" transform="scale(1 1) rotate(0) translate(4 46)">
<title>Graphical Class Hierarchy</title>
<polygon fill="white" stroke="transparent" points="-4,4 -4,-46 304,-46 304,4 -4,4"/>
<!-- Node1350 -->
<g id="node1" class="node">
<title>Node1350</title>
<g id="a_node1"><a xlink:title=" ">
<polygon fill="white" stroke="#bfbfbf" points="0,-11.5 0,-30.5 113,-30.5 113,-11.5 0,-11.5"/>
<text text-anchor="middle" x="56.5" y="-18.5" font-family="FreeSans" font-size="10.00">boost::static_visitor</text>
</a>
</g>
</g>
<!-- Node0 -->
<g id="node2" class="node">
<title>Node0</title>
<g id="a_node2"><a xlink:href="structDGtal_1_1MPolynomialReader_1_1ExprNodeMaker.html" target="_top" xlink:title=" ">
<polygon fill="white" stroke="black" points="149,-0.5 149,-41.5 300,-41.5 300,-0.5 149,-0.5"/>
<text text-anchor="start" x="157" y="-29.5" font-family="FreeSans" font-size="10.00">DGtal::MPolynomialReader</text>
<text text-anchor="start" x="157" y="-18.5" font-family="FreeSans" font-size="10.00">&lt; n, TRing, TAlloc, TIterator</text>
<text text-anchor="middle" x="224.5" y="-7.5" font-family="FreeSans" font-size="10.00"> &gt;::ExprNodeMaker</text>
</a>
</g>
</g>
<!-- Node1350&#45;&gt;Node0 -->
<g id="edge1" class="edge">
<title>Node1350&#45;&gt;Node0</title>
<path fill="none" stroke="midnightblue" d="M123.29,-21C131.65,-21 140.25,-21 148.74,-21"/>
<polygon fill="midnightblue" stroke="midnightblue" points="123.24,-17.5 113.24,-21 123.24,-24.5 123.24,-17.5"/>
</g>
</g>
</svg>
