<?xml version="1.0" encoding="UTF-8" standalone="no"?>
<!DOCTYPE svg PUBLIC "-//W3C//DTD SVG 1.1//EN"
 "http://www.w3.org/Graphics/SVG/1.1/DTD/svg11.dtd">
<!-- Generated by graphviz version 2.43.0 (0)
 -->
<!-- Title: Graphical Class Hierarchy Pages: 1 -->
<svg width="305pt" height="39pt"
 viewBox="0.00 0.00 305.00 39.00" xmlns="http://www.w3.org/2000/svg" xmlns:xlink="http://www.w3.org/1999/xlink">
<g id="graph0" class="graph" transform="scale(1 1) rotate(0) translate(4 35)">
<title>Graphical Class Hierarchy</title>
<polygon fill="white" stroke="transparent" points="-4,4 -4,-35 301,-35 301,4 -4,4"/>
<!-- Node813 -->
<g id="node1" class="node">
<title>Node813</title>
<g id="a_node1"><a xlink:title=" ">
<polygon fill="white" stroke="#bfbfbf" points="0,-0.5 0,-30.5 116,-30.5 116,-0.5 0,-0.5"/>
<text text-anchor="start" x="8" y="-18.5" font-family="FreeSans" font-size="10.00">boost::input_iterator</text>
<text text-anchor="middle" x="58" y="-7.5" font-family="FreeSans" font-size="10.00">_archetype</text>
</a>
</g>
</g>
<!-- Node0 -->
<g id="node2" class="node">
<title>Node0</title>
<g id="a_node2"><a xlink:href="structDGtal_1_1CSinglePassIteratorArchetype.html" target="_top" xlink:title="An archetype of SingePassIterator.">
<polygon fill="white" stroke="black" points="152,-0.5 152,-30.5 297,-30.5 297,-0.5 152,-0.5"/>
<text text-anchor="start" x="160" y="-18.5" font-family="FreeSans" font-size="10.00">DGtal::CSinglePassIterator</text>
<text text-anchor="middle" x="224.5" y="-7.5" font-family="FreeSans" font-size="10.00">Archetype&lt; T &gt;</text>
</a>
</g>
</g>
<!-- Node813&#45;&gt;Node0 -->
<g id="edge1" class="edge">
<title>Node813&#45;&gt;Node0</title>
<path fill="none" stroke="midnightblue" d="M126.21,-15.5C134.63,-15.5 143.26,-15.5 151.75,-15.5"/>
<polygon fill="midnightblue" stroke="midnightblue" points="126.07,-12 116.07,-15.5 126.07,-19 126.07,-12"/>
</g>
</g>
</svg>
