<?xml version="1.0" encoding="UTF-8" standalone="no"?>
<!DOCTYPE svg PUBLIC "-//W3C//DTD SVG 1.1//EN"
 "http://www.w3.org/Graphics/SVG/1.1/DTD/svg11.dtd">
<!-- Generated by graphviz version 2.43.0 (0)
 -->
<!-- Title: DGtal::UnorderedAssociativeCategory Pages: 1 -->
<svg width="746pt" height="186pt"
 viewBox="0.00 0.00 746.00 186.00" xmlns="http://www.w3.org/2000/svg" xmlns:xlink="http://www.w3.org/1999/xlink">
<g id="graph0" class="graph" transform="scale(1 1) rotate(0) translate(4 182)">
<title>DGtal::UnorderedAssociativeCategory</title>
<polygon fill="white" stroke="transparent" points="-4,4 -4,-182 742,-182 742,4 -4,4"/>
<!-- Node1 -->
<g id="node1" class="node">
<title>Node1</title>
<g id="a_node1"><a xlink:title=" ">
<polygon fill="#bfbfbf" stroke="black" points="365,-73.5 365,-103.5 523,-103.5 523,-73.5 365,-73.5"/>
<text text-anchor="start" x="373" y="-91.5" font-family="FreeSans" font-size="10.00">DGtal::UnorderedAssociative</text>
<text text-anchor="middle" x="444" y="-80.5" font-family="FreeSans" font-size="10.00">Category</text>
</a>
</g>
</g>
<!-- Node4 -->
<g id="node4" class="node">
<title>Node4</title>
<g id="a_node4"><a xlink:href="structDGtal_1_1UnorderedMapAssociativeCategory.html" target="_top" xlink:title=" ">
<polygon fill="white" stroke="black" points="559,-147.5 559,-177.5 738,-177.5 738,-147.5 559,-147.5"/>
<text text-anchor="start" x="567" y="-165.5" font-family="FreeSans" font-size="10.00">DGtal::UnorderedMapAssociative</text>
<text text-anchor="middle" x="648.5" y="-154.5" font-family="FreeSans" font-size="10.00">Category</text>
</a>
</g>
</g>
<!-- Node1&#45;&gt;Node4 -->
<g id="edge3" class="edge">
<title>Node1&#45;&gt;Node4</title>
<path fill="none" stroke="midnightblue" d="M485.13,-107.85C506.71,-117.8 533.97,-129.67 559,-138.5 568.01,-141.68 577.65,-144.68 587.15,-147.42"/>
<polygon fill="midnightblue" stroke="midnightblue" points="486.49,-104.62 475.95,-103.57 483.53,-110.96 486.49,-104.62"/>
</g>
<!-- Node5 -->
<g id="node5" class="node">
<title>Node5</title>
<g id="a_node5"><a xlink:href="structDGtal_1_1UnorderedMultimapAssociativeCategory.html" target="_top" xlink:title=" ">
<polygon fill="white" stroke="black" points="574.5,-98.5 574.5,-128.5 722.5,-128.5 722.5,-98.5 574.5,-98.5"/>
<text text-anchor="start" x="582.5" y="-116.5" font-family="FreeSans" font-size="10.00">DGtal::UnorderedMultimap</text>
<text text-anchor="middle" x="648.5" y="-105.5" font-family="FreeSans" font-size="10.00">AssociativeCategory</text>
</a>
</g>
</g>
<!-- Node1&#45;&gt;Node5 -->
<g id="edge4" class="edge">
<title>Node1&#45;&gt;Node5</title>
<path fill="none" stroke="midnightblue" d="M532.95,-99.36C546.71,-101.06 560.8,-102.8 574.19,-104.45"/>
<polygon fill="midnightblue" stroke="midnightblue" points="533.36,-95.88 523,-98.13 532.5,-102.83 533.36,-95.88"/>
</g>
<!-- Node6 -->
<g id="node6" class="node">
<title>Node6</title>
<g id="a_node6"><a xlink:href="structDGtal_1_1UnorderedMultisetAssociativeCategory.html" target="_top" xlink:title=" ">
<polygon fill="white" stroke="black" points="578,-49.5 578,-79.5 719,-79.5 719,-49.5 578,-49.5"/>
<text text-anchor="start" x="586" y="-67.5" font-family="FreeSans" font-size="10.00">DGtal::UnorderedMultiset</text>
<text text-anchor="middle" x="648.5" y="-56.5" font-family="FreeSans" font-size="10.00">AssociativeCategory</text>
</a>
</g>
</g>
<!-- Node1&#45;&gt;Node6 -->
<g id="edge5" class="edge">
<title>Node1&#45;&gt;Node6</title>
<path fill="none" stroke="midnightblue" d="M533.25,-78.04C548.16,-76.27 563.46,-74.46 577.81,-72.76"/>
<polygon fill="midnightblue" stroke="midnightblue" points="532.52,-74.6 523,-79.26 533.34,-81.55 532.52,-74.6"/>
</g>
<!-- Node7 -->
<g id="node7" class="node">
<title>Node7</title>
<g id="a_node7"><a xlink:href="structDGtal_1_1UnorderedSetAssociativeCategory.html" target="_top" xlink:title=" ">
<polygon fill="white" stroke="black" points="562,-0.5 562,-30.5 735,-30.5 735,-0.5 562,-0.5"/>
<text text-anchor="start" x="570" y="-18.5" font-family="FreeSans" font-size="10.00">DGtal::UnorderedSetAssociative</text>
<text text-anchor="middle" x="648.5" y="-7.5" font-family="FreeSans" font-size="10.00">Category</text>
</a>
</g>
</g>
<!-- Node1&#45;&gt;Node7 -->
<g id="edge6" class="edge">
<title>Node1&#45;&gt;Node7</title>
<path fill="none" stroke="midnightblue" d="M486.09,-69.17C507.54,-59.51 534.37,-48.09 559,-39.5 568.02,-36.36 577.67,-33.37 587.17,-30.63"/>
<polygon fill="midnightblue" stroke="midnightblue" points="484.61,-66 476.95,-73.33 487.5,-72.37 484.61,-66"/>
</g>
<!-- Node2 -->
<g id="node2" class="node">
<title>Node2</title>
<g id="a_node2"><a xlink:href="structDGtal_1_1AssociativeCategory.html" target="_top" xlink:title=" ">
<polygon fill="white" stroke="black" points="178,-79 178,-98 329,-98 329,-79 178,-79"/>
<text text-anchor="middle" x="253.5" y="-86" font-family="FreeSans" font-size="10.00">DGtal::AssociativeCategory</text>
</a>
</g>
</g>
<!-- Node2&#45;&gt;Node1 -->
<g id="edge1" class="edge">
<title>Node2&#45;&gt;Node1</title>
<path fill="none" stroke="midnightblue" d="M339.26,-88.5C347.73,-88.5 356.31,-88.5 364.71,-88.5"/>
<polygon fill="midnightblue" stroke="midnightblue" points="339,-85 329,-88.5 339,-92 339,-85"/>
</g>
<!-- Node3 -->
<g id="node3" class="node">
<title>Node3</title>
<g id="a_node3"><a xlink:href="structDGtal_1_1ContainerCategory.html" target="_top" xlink:title=" ">
<polygon fill="white" stroke="black" points="0,-79 0,-98 142,-98 142,-79 0,-79"/>
<text text-anchor="middle" x="71" y="-86" font-family="FreeSans" font-size="10.00">DGtal::ContainerCategory</text>
</a>
</g>
</g>
<!-- Node3&#45;&gt;Node2 -->
<g id="edge2" class="edge">
<title>Node3&#45;&gt;Node2</title>
<path fill="none" stroke="midnightblue" d="M152.28,-88.5C160.74,-88.5 169.32,-88.5 177.71,-88.5"/>
<polygon fill="midnightblue" stroke="midnightblue" points="152.04,-85 142.04,-88.5 152.04,-92 152.04,-85"/>
</g>
</g>
</svg>
