<?xml version="1.0" encoding="UTF-8" standalone="no"?>
<!DOCTYPE svg PUBLIC "-//W3C//DTD SVG 1.1//EN"
 "http://www.w3.org/Graphics/SVG/1.1/DTD/svg11.dtd">
<!-- Generated by graphviz version 2.43.0 (0)
 -->
<!-- Title: DGtal::concepts::CBidirectionalRangeWithWritableIteratorFromPoint&lt; T, Value &gt; Pages: 1 -->
<svg width="205pt" height="273pt"
 viewBox="0.00 0.00 205.00 273.00" xmlns="http://www.w3.org/2000/svg" xmlns:xlink="http://www.w3.org/1999/xlink">
<g id="graph0" class="graph" transform="scale(1 1) rotate(0) translate(4 269)">
<title>DGtal::concepts::CBidirectionalRangeWithWritableIteratorFromPoint&lt; T, Value &gt;</title>
<polygon fill="white" stroke="transparent" points="-4,4 -4,-269 201,-269 201,4 -4,4"/>
<!-- Node1 -->
<g id="node1" class="node">
<title>Node1</title>
<g id="a_node1"><a xlink:title="Aim: refined concept of single pass range with an routputIterator() method from a point.">
<polygon fill="#bfbfbf" stroke="black" points="0,-0.5 0,-41.5 197,-41.5 197,-0.5 0,-0.5"/>
<text text-anchor="start" x="8" y="-29.5" font-family="FreeSans" font-size="10.00">DGtal::concepts::CBidirectional</text>
<text text-anchor="start" x="8" y="-18.5" font-family="FreeSans" font-size="10.00">RangeWithWritableIteratorFromPoint</text>
<text text-anchor="middle" x="98.5" y="-7.5" font-family="FreeSans" font-size="10.00">&lt; T, Value &gt;</text>
</a>
</g>
</g>
<!-- Node2 -->
<g id="node2" class="node">
<title>Node2</title>
<g id="a_node2"><a xlink:href="structDGtal_1_1concepts_1_1CBidirectionalRangeWithWritableIterator.html" target="_top" xlink:title="Aim: refined concept of bidirectional range which require that a reverse output iterator exists.">
<polygon fill="white" stroke="black" points="14.5,-78.5 14.5,-119.5 182.5,-119.5 182.5,-78.5 14.5,-78.5"/>
<text text-anchor="start" x="22.5" y="-107.5" font-family="FreeSans" font-size="10.00">DGtal::concepts::CBidirectional</text>
<text text-anchor="start" x="22.5" y="-96.5" font-family="FreeSans" font-size="10.00">RangeWithWritableIterator</text>
<text text-anchor="middle" x="98.5" y="-85.5" font-family="FreeSans" font-size="10.00">&lt; T, Value &gt;</text>
</a>
</g>
</g>
<!-- Node2&#45;&gt;Node1 -->
<g id="edge1" class="edge">
<title>Node2&#45;&gt;Node1</title>
<path fill="none" stroke="midnightblue" d="M98.5,-68.3C98.5,-59.3 98.5,-49.65 98.5,-41.51"/>
<polygon fill="midnightblue" stroke="midnightblue" points="95,-68.43 98.5,-78.43 102,-68.43 95,-68.43"/>
</g>
<!-- Node3 -->
<g id="node3" class="node">
<title>Node3</title>
<g id="a_node3"><a xlink:href="structDGtal_1_1concepts_1_1CSinglePassRangeWithWritableIterator.html" target="_top" xlink:title="Aim: refined concept of const single pass range which require that an output iterator exists.">
<polygon fill="white" stroke="black" points="14,-156.5 14,-197.5 183,-197.5 183,-156.5 14,-156.5"/>
<text text-anchor="start" x="22" y="-185.5" font-family="FreeSans" font-size="10.00">DGtal::concepts::CSingle</text>
<text text-anchor="start" x="22" y="-174.5" font-family="FreeSans" font-size="10.00">PassRangeWithWritableIterator</text>
<text text-anchor="middle" x="98.5" y="-163.5" font-family="FreeSans" font-size="10.00">&lt; T, Value &gt;</text>
</a>
</g>
</g>
<!-- Node3&#45;&gt;Node2 -->
<g id="edge2" class="edge">
<title>Node3&#45;&gt;Node2</title>
<path fill="none" stroke="midnightblue" d="M98.5,-146.3C98.5,-137.3 98.5,-127.65 98.5,-119.51"/>
<polygon fill="midnightblue" stroke="midnightblue" points="95,-146.43 98.5,-156.43 102,-146.43 95,-146.43"/>
</g>
<!-- Node4 -->
<g id="node4" class="node">
<title>Node4</title>
<g id="a_node4"><a xlink:href="structDGtal_1_1concepts_1_1CConstSinglePassRange.html" target="_top" xlink:title="Aim: Defines the concept describing a const single pass range.">
<polygon fill="white" stroke="black" points="16.5,-234.5 16.5,-264.5 180.5,-264.5 180.5,-234.5 16.5,-234.5"/>
<text text-anchor="start" x="24.5" y="-252.5" font-family="FreeSans" font-size="10.00">DGtal::concepts::CConstSingle</text>
<text text-anchor="middle" x="98.5" y="-241.5" font-family="FreeSans" font-size="10.00">PassRange&lt; T &gt;</text>
</a>
</g>
</g>
<!-- Node4&#45;&gt;Node3 -->
<g id="edge3" class="edge">
<title>Node4&#45;&gt;Node3</title>
<path fill="none" stroke="midnightblue" d="M98.5,-223.98C98.5,-215.35 98.5,-205.76 98.5,-197.59"/>
<polygon fill="midnightblue" stroke="midnightblue" points="95,-224.23 98.5,-234.23 102,-224.23 95,-224.23"/>
</g>
</g>
</svg>
