<?xml version="1.0" encoding="UTF-8" standalone="no"?>
<!DOCTYPE svg PUBLIC "-//W3C//DTD SVG 1.1//EN"
 "http://www.w3.org/Graphics/SVG/1.1/DTD/svg11.dtd">
<!-- Generated by graphviz version 2.43.0 (0)
 -->
<!-- Title: DGtal::functors::Projector&lt; S &gt; Pages: 1 -->
<svg width="560pt" height="149pt"
 viewBox="0.00 0.00 560.00 148.50" xmlns="http://www.w3.org/2000/svg" xmlns:xlink="http://www.w3.org/1999/xlink">
<g id="graph0" class="graph" transform="scale(1 1) rotate(0) translate(4 144.5)">
<title>DGtal::functors::Projector&lt; S &gt;</title>
<polygon fill="white" stroke="transparent" points="-4,4 -4,-144.5 556,-144.5 556,4 -4,4"/>
<!-- Node1 -->
<g id="node1" class="node">
<title>Node1</title>
<g id="a_node1"><a xlink:title="Aim: Functor that maps a point P of dimension i to a point Q of dimension j. The member myDims is an ...">
<polygon fill="#bfbfbf" stroke="black" points="0,-66.5 0,-85.5 168,-85.5 168,-66.5 0,-66.5"/>
<text text-anchor="middle" x="84" y="-73.5" font-family="FreeSans" font-size="10.00">DGtal::functors::Projector&lt; S &gt;</text>
</a>
</g>
</g>
<!-- Node2 -->
<g id="node2" class="node">
<title>Node2</title>
<g id="a_node2"><a xlink:href="structDGtal_1_1functors_1_1Projector.html" target="_top" xlink:title=" ">
<polygon fill="white" stroke="black" points="371.5,-110 371.5,-140 542.5,-140 542.5,-110 371.5,-110"/>
<text text-anchor="start" x="379.5" y="-128" font-family="FreeSans" font-size="10.00">DGtal::functors::Projector</text>
<text text-anchor="middle" x="457" y="-117" font-family="FreeSans" font-size="10.00">&lt; SpaceND&lt; 2, Coordinate &gt; &gt;</text>
</a>
</g>
</g>
<!-- Node1&#45;&gt;Node2 -->
<g id="edge1" class="edge">
<title>Node1&#45;&gt;Node2</title>
<path fill="none" stroke="orange" stroke-dasharray="5,2" d="M157.92,-87.03C167.36,-88.4 176.91,-89.75 186,-91 248.02,-99.51 318.17,-108.32 371.42,-114.84"/>
<polygon fill="orange" stroke="orange" points="158.14,-83.52 147.74,-85.54 157.13,-90.45 158.14,-83.52"/>
<text text-anchor="middle" x="265" y="-113" font-family="FreeSans" font-size="10.00"> &lt; SpaceND&lt; 2, Coordinate &gt; &gt;</text>
</g>
<!-- Node3 -->
<g id="node3" class="node">
<title>Node3</title>
<g id="a_node3"><a xlink:href="structDGtal_1_1functors_1_1Projector.html" target="_top" xlink:title=" ">
<polygon fill="white" stroke="black" points="387,-61 387,-91 527,-91 527,-61 387,-61"/>
<text text-anchor="start" x="395" y="-79" font-family="FreeSans" font-size="10.00">DGtal::functors::Projector</text>
<text text-anchor="middle" x="457" y="-68" font-family="FreeSans" font-size="10.00">&lt; SpaceND&lt; 2, int &gt; &gt;</text>
</a>
</g>
</g>
<!-- Node1&#45;&gt;Node3 -->
<g id="edge2" class="edge">
<title>Node1&#45;&gt;Node3</title>
<path fill="none" stroke="orange" stroke-dasharray="5,2" d="M178.47,-76C243.2,-76 327.96,-76 386.7,-76"/>
<polygon fill="orange" stroke="orange" points="178.26,-72.5 168.26,-76 178.26,-79.5 178.26,-72.5"/>
<text text-anchor="middle" x="265" y="-79" font-family="FreeSans" font-size="10.00"> &lt; SpaceND&lt; 2, int &gt; &gt;</text>
</g>
<!-- Node4 -->
<g id="node4" class="node">
<title>Node4</title>
<g id="a_node4"><a xlink:href="structDGtal_1_1functors_1_1Projector.html" target="_top" xlink:title=" ">
<polygon fill="white" stroke="black" points="362,-0.5 362,-41.5 552,-41.5 552,-0.5 362,-0.5"/>
<text text-anchor="start" x="370" y="-29.5" font-family="FreeSans" font-size="10.00">DGtal::functors::Projector</text>
<text text-anchor="start" x="370" y="-18.5" font-family="FreeSans" font-size="10.00">&lt; SpaceND&lt; 2, typename TKSpace</text>
<text text-anchor="middle" x="457" y="-7.5" font-family="FreeSans" font-size="10.00">::Space::Integer &gt; &gt;</text>
</a>
</g>
</g>
<!-- Node1&#45;&gt;Node4 -->
<g id="edge3" class="edge">
<title>Node1&#45;&gt;Node4</title>
<path fill="none" stroke="orange" stroke-dasharray="5,2" d="M126.7,-63.82C144.79,-58.91 166.31,-53.57 186,-50 243.98,-39.48 309.72,-32.32 361.81,-27.75"/>
<polygon fill="orange" stroke="orange" points="125.74,-60.45 117.03,-66.49 127.6,-67.2 125.74,-60.45"/>
<text text-anchor="start" x="193" y="-64" font-family="FreeSans" font-size="10.00"> &lt; SpaceND&lt; 2, typename</text>
<text text-anchor="middle" x="265" y="-53" font-family="FreeSans" font-size="10.00"> TKSpace::Space::Integer &gt; &gt;</text>
</g>
</g>
</svg>
