<?xml version="1.0" encoding="UTF-8" standalone="no"?>
<!DOCTYPE svg PUBLIC "-//W3C//DTD SVG 1.1//EN"
 "http://www.w3.org/Graphics/SVG/1.1/DTD/svg11.dtd">
<!-- Generated by graphviz version 2.43.0 (0)
 -->
<!-- Title: LibBoard::Shape Pages: 1 -->
<!--zoomable 256 -->
<svg id="main" version="1.1" xmlns="http://www.w3.org/2000/svg" xmlns:xlink="http://www.w3.org/1999/xlink" xml:space="preserve" onload="init(evt)">
<style type="text/css"><![CDATA[
.edge:hover path { stroke: red; }
.edge:hover polygon { stroke: red; fill: red; }
]]></style>
<script type="text/javascript"><![CDATA[
var edges = document.getElementsByTagName('g');
if (edges && edges.length) {
  for (var i=0;i<edges.length;i++) {
    if (edges[i].id.substr(0,4)=='edge') {
      edges[i].setAttribute('class','edge');
    }
  }
}
]]></script>
        <defs>
                <circle id="rim" cx="0" cy="0" r="7"/>
                <circle id="rim2" cx="0" cy="0" r="3.5"/>
                <g id="zoomPlus">
                        <use xlink:href="#rim" fill="#404040">
                                <set attributeName="fill" to="#808080" begin="zoomplus.mouseover" end="zoomplus.mouseout"/>
                        </use>
                        <path d="M-4,0h8M0,-4v8" fill="none" stroke="white" stroke-width="1.5" pointer-events="none"/>
                </g>
                <g id="zoomMin">
                        <use xlink:href="#rim" fill="#404040">
                                <set attributeName="fill" to="#808080" begin="zoomminus.mouseover" end="zoomminus.mouseout"/>
                        </use>
                        <path d="M-4,0h8" fill="none" stroke="white" stroke-width="1.5" pointer-events="none"/>
                </g>
                <g id="dirArrow">
                        <path fill="none" stroke="white" stroke-width="1.5" d="M0,-3.0v7 M-2.5,-0.5L0,-3.0L2.5,-0.5"/>
                </g>
               <g id="resetDef">
                       <use xlink:href="#rim2" fill="#404040">
                               <set attributeName="fill" to="#808080" begin="reset.mouseover" end="reset.mouseout"/>
                       </use>
               </g>
        </defs>

<script type="text/javascript">
var viewWidth = 612;
var viewHeight = 256;
var sectionId = 'dynsection-0';
</script>
<script xlink:href="svgpan.js"/>
<svg id="graph" class="graph">
<g id="viewport">
<title>LibBoard::Shape</title>
<polygon fill="white" stroke="transparent" points="-4,4 -4,-252 608,-252 608,4 -4,4"/>
<!-- Node1 -->
<g id="node1" class="node">
<title>Node1</title>
<g id="a_node1"><a xlink:title="Abstract structure for a 2D shape.">
<polygon fill="#bfbfbf" stroke="black" points="0,-133.5 0,-152.5 95,-152.5 95,-133.5 0,-133.5"/>
<text text-anchor="middle" x="47.5" y="-140.5" font-family="FreeSans" font-size="10.00">LibBoard::Shape</text>
</a>
</g>
</g>
<!-- Node2 -->
<g id="node2" class="node">
<title>Node2</title>
<g id="a_node2"><a xlink:href="structLibBoard_1_1Dot.html" target="_top" xlink:title="A line between two points.">
<polygon fill="white" stroke="black" points="146,-228.5 146,-247.5 229,-247.5 229,-228.5 146,-228.5"/>
<text text-anchor="middle" x="187.5" y="-235.5" font-family="FreeSans" font-size="10.00">LibBoard::Dot</text>
</a>
</g>
</g>
<!-- Node1&#45;&gt;Node2 -->
<g id="edge1" class="edge">
<title>Node1&#45;&gt;Node2</title>
<path fill="none" stroke="midnightblue" d="M63.11,-160.1C78.47,-177.13 104.11,-202.99 131,-219 137.3,-222.75 144.45,-225.9 151.47,-228.48"/>
<polygon fill="midnightblue" stroke="midnightblue" points="65.67,-157.71 56.43,-152.53 60.42,-162.34 65.67,-157.71"/>
</g>
<!-- Node3 -->
<g id="node3" class="node">
<title>Node3</title>
<g id="a_node3"><a xlink:href="structLibBoard_1_1Ellipse.html" target="_top" xlink:title="An ellipse.">
<polygon fill="white" stroke="black" points="138.5,-190.5 138.5,-209.5 236.5,-209.5 236.5,-190.5 138.5,-190.5"/>
<text text-anchor="middle" x="187.5" y="-197.5" font-family="FreeSans" font-size="10.00">LibBoard::Ellipse</text>
</a>
</g>
</g>
<!-- Node1&#45;&gt;Node3 -->
<g id="edge2" class="edge">
<title>Node1&#45;&gt;Node3</title>
<path fill="none" stroke="midnightblue" d="M77.12,-157.06C92.85,-164.56 112.81,-173.72 131,-181 139.32,-184.33 148.48,-187.62 156.92,-190.49"/>
<polygon fill="midnightblue" stroke="midnightblue" points="78.45,-153.81 67.92,-152.63 75.42,-160.12 78.45,-153.81"/>
</g>
<!-- Node6 -->
<g id="node6" class="node">
<title>Node6</title>
<g id="a_node6"><a xlink:href="structLibBoard_1_1Line.html" target="_top" xlink:title="A line between two points.">
<polygon fill="white" stroke="black" points="144.5,-152.5 144.5,-171.5 230.5,-171.5 230.5,-152.5 144.5,-152.5"/>
<text text-anchor="middle" x="187.5" y="-159.5" font-family="FreeSans" font-size="10.00">LibBoard::Line</text>
</a>
</g>
</g>
<!-- Node1&#45;&gt;Node6 -->
<g id="edge5" class="edge">
<title>Node1&#45;&gt;Node6</title>
<path fill="none" stroke="midnightblue" d="M105.13,-150.8C118.29,-152.61 132.06,-154.51 144.46,-156.21"/>
<polygon fill="midnightblue" stroke="midnightblue" points="105.6,-147.33 95.22,-149.43 104.65,-154.26 105.6,-147.33"/>
</g>
<!-- Node8 -->
<g id="node8" class="node">
<title>Node8</title>
<g id="a_node8"><a xlink:href="structLibBoard_1_1Polyline.html" target="_top" xlink:title="A polygonal line described by a series of 2D points.">
<polygon fill="white" stroke="black" points="135.5,-114.5 135.5,-133.5 239.5,-133.5 239.5,-114.5 135.5,-114.5"/>
<text text-anchor="middle" x="187.5" y="-121.5" font-family="FreeSans" font-size="10.00">LibBoard::Polyline</text>
</a>
</g>
</g>
<!-- Node1&#45;&gt;Node8 -->
<g id="edge7" class="edge">
<title>Node1&#45;&gt;Node8</title>
<path fill="none" stroke="midnightblue" d="M105.33,-135.18C115.19,-133.82 125.39,-132.41 135.09,-131.08"/>
<polygon fill="midnightblue" stroke="midnightblue" points="104.65,-131.74 95.22,-136.57 105.6,-138.67 104.65,-131.74"/>
</g>
<!-- Node14 -->
<g id="node14" class="node">
<title>Node14</title>
<g id="a_node14"><a xlink:href="structLibBoard_1_1ShapeList.html" target="_top" xlink:title="A group of shapes.">
<polygon fill="white" stroke="black" points="131,-57.5 131,-76.5 244,-76.5 244,-57.5 131,-57.5"/>
<text text-anchor="middle" x="187.5" y="-64.5" font-family="FreeSans" font-size="10.00">LibBoard::ShapeList</text>
</a>
</g>
</g>
<!-- Node1&#45;&gt;Node14 -->
<g id="edge13" class="edge">
<title>Node1&#45;&gt;Node14</title>
<path fill="none" stroke="midnightblue" d="M74.75,-128.54C102.47,-113.28 145.39,-89.64 169.16,-76.55"/>
<polygon fill="midnightblue" stroke="midnightblue" points="73.05,-125.48 65.98,-133.37 76.43,-131.62 73.05,-125.48"/>
</g>
<!-- Node18 -->
<g id="node18" class="node">
<title>Node18</title>
<g id="a_node18"><a xlink:href="structLibBoard_1_1Text.html" target="_top" xlink:title="A piece of text.">
<polygon fill="white" stroke="black" points="144.5,-19.5 144.5,-38.5 230.5,-38.5 230.5,-19.5 144.5,-19.5"/>
<text text-anchor="middle" x="187.5" y="-26.5" font-family="FreeSans" font-size="10.00">LibBoard::Text</text>
</a>
</g>
</g>
<!-- Node1&#45;&gt;Node18 -->
<g id="edge17" class="edge">
<title>Node1&#45;&gt;Node18</title>
<path fill="none" stroke="midnightblue" d="M59.78,-125.01C73.97,-103.78 100.23,-68.73 131,-48 136.66,-44.19 143.16,-41.07 149.67,-38.54"/>
<polygon fill="midnightblue" stroke="midnightblue" points="56.82,-123.15 54.3,-133.44 62.69,-126.97 56.82,-123.15"/>
</g>
<!-- Node4 -->
<g id="node4" class="node">
<title>Node4</title>
<g id="a_node4"><a xlink:href="structLibBoard_1_1Circle.html" target="_top" xlink:title="A circle.">
<polygon fill="white" stroke="black" points="306,-228.5 306,-247.5 399,-247.5 399,-228.5 306,-228.5"/>
<text text-anchor="middle" x="352.5" y="-235.5" font-family="FreeSans" font-size="10.00">LibBoard::Circle</text>
</a>
</g>
</g>
<!-- Node3&#45;&gt;Node4 -->
<g id="edge3" class="edge">
<title>Node3&#45;&gt;Node4</title>
<path fill="none" stroke="midnightblue" d="M239.53,-211.9C262.44,-217.24 289.1,-223.45 310.66,-228.48"/>
<polygon fill="midnightblue" stroke="midnightblue" points="240.17,-208.45 229.63,-209.59 238.58,-215.27 240.17,-208.45"/>
</g>
<!-- Node5 -->
<g id="node5" class="node">
<title>Node5</title>
<g id="a_node5"><a xlink:href="structLibBoard_1_1Arc.html" target="_top" xlink:title="An arc.">
<polygon fill="white" stroke="black" points="492,-228.5 492,-247.5 573,-247.5 573,-228.5 492,-228.5"/>
<text text-anchor="middle" x="532.5" y="-235.5" font-family="FreeSans" font-size="10.00">LibBoard::Arc</text>
</a>
</g>
</g>
<!-- Node4&#45;&gt;Node5 -->
<g id="edge4" class="edge">
<title>Node4&#45;&gt;Node5</title>
<path fill="none" stroke="midnightblue" d="M409.35,-238C436.13,-238 467.58,-238 491.86,-238"/>
<polygon fill="midnightblue" stroke="midnightblue" points="409.34,-234.5 399.34,-238 409.34,-241.5 409.34,-234.5"/>
</g>
<!-- Node7 -->
<g id="node7" class="node">
<title>Node7</title>
<g id="a_node7"><a xlink:href="structLibBoard_1_1Arrow.html" target="_top" xlink:title="A line between two points with an arrow at one extremity.">
<polygon fill="white" stroke="black" points="305.5,-190.5 305.5,-209.5 399.5,-209.5 399.5,-190.5 305.5,-190.5"/>
<text text-anchor="middle" x="352.5" y="-197.5" font-family="FreeSans" font-size="10.00">LibBoard::Arrow</text>
</a>
</g>
</g>
<!-- Node6&#45;&gt;Node7 -->
<g id="edge6" class="edge">
<title>Node6&#45;&gt;Node7</title>
<path fill="none" stroke="midnightblue" d="M239.53,-173.9C262.44,-179.24 289.1,-185.45 310.66,-190.48"/>
<polygon fill="midnightblue" stroke="midnightblue" points="240.17,-170.45 229.63,-171.59 238.58,-177.27 240.17,-170.45"/>
</g>
<!-- Node9 -->
<g id="node9" class="node">
<title>Node9</title>
<g id="a_node9"><a xlink:href="structLibBoard_1_1GouraudTriangle.html" target="_top" xlink:title="A triangle with shaded filling according to colors given for each vertex.">
<polygon fill="white" stroke="black" points="280,-152.5 280,-171.5 425,-171.5 425,-152.5 280,-152.5"/>
<text text-anchor="middle" x="352.5" y="-159.5" font-family="FreeSans" font-size="10.00">LibBoard::GouraudTriangle</text>
</a>
</g>
</g>
<!-- Node8&#45;&gt;Node9 -->
<g id="edge8" class="edge">
<title>Node8&#45;&gt;Node9</title>
<path fill="none" stroke="midnightblue" d="M239.53,-135.9C262.44,-141.24 289.1,-147.45 310.66,-152.48"/>
<polygon fill="midnightblue" stroke="midnightblue" points="240.17,-132.45 229.63,-133.59 238.58,-139.27 240.17,-132.45"/>
</g>
<!-- Node10 -->
<g id="node10" class="node">
<title>Node10</title>
<g id="a_node10"><a xlink:href="structLibBoard_1_1Rectangle.html" target="_top" xlink:title="A rectangle.">
<polygon fill="white" stroke="black" points="295.5,-114.5 295.5,-133.5 409.5,-133.5 409.5,-114.5 295.5,-114.5"/>
<text text-anchor="middle" x="352.5" y="-121.5" font-family="FreeSans" font-size="10.00">LibBoard::Rectangle</text>
</a>
</g>
</g>
<!-- Node8&#45;&gt;Node10 -->
<g id="edge9" class="edge">
<title>Node8&#45;&gt;Node10</title>
<path fill="none" stroke="midnightblue" d="M249.81,-124C264.79,-124 280.74,-124 295.46,-124"/>
<polygon fill="midnightblue" stroke="midnightblue" points="249.63,-120.5 239.63,-124 249.63,-127.5 249.63,-120.5"/>
</g>
<!-- Node12 -->
<g id="node12" class="node">
<title>Node12</title>
<g id="a_node12"><a xlink:href="structLibBoard_1_1Triangle.html" target="_top" xlink:title="A triangle. Basically a Polyline with a convenient constructor.">
<polygon fill="white" stroke="black" points="300.5,-76.5 300.5,-95.5 404.5,-95.5 404.5,-76.5 300.5,-76.5"/>
<text text-anchor="middle" x="352.5" y="-83.5" font-family="FreeSans" font-size="10.00">LibBoard::Triangle</text>
</a>
</g>
</g>
<!-- Node8&#45;&gt;Node12 -->
<g id="edge11" class="edge">
<title>Node8&#45;&gt;Node12</title>
<path fill="none" stroke="midnightblue" d="M239.53,-112.1C262.44,-106.76 289.1,-100.55 310.66,-95.52"/>
<polygon fill="midnightblue" stroke="midnightblue" points="238.58,-108.73 229.63,-114.41 240.17,-115.55 238.58,-108.73"/>
</g>
<!-- Node11 -->
<g id="node11" class="node">
<title>Node11</title>
<g id="a_node11"><a xlink:href="structLibBoard_1_1Image.html" target="_top" xlink:title="Used to draw image in figure.">
<polygon fill="white" stroke="black" points="484.5,-120.5 484.5,-139.5 580.5,-139.5 580.5,-120.5 484.5,-120.5"/>
<text text-anchor="middle" x="532.5" y="-127.5" font-family="FreeSans" font-size="10.00">LibBoard::Image</text>
</a>
</g>
</g>
<!-- Node10&#45;&gt;Node11 -->
<g id="edge10" class="edge">
<title>Node10&#45;&gt;Node11</title>
<path fill="none" stroke="midnightblue" d="M419.86,-126.24C441.35,-126.96 464.72,-127.75 484.5,-128.42"/>
<polygon fill="midnightblue" stroke="midnightblue" points="419.93,-122.74 409.82,-125.9 419.7,-129.73 419.93,-122.74"/>
</g>
<!-- Node13 -->
<g id="node13" class="node">
<title>Node13</title>
<g id="a_node13"><a xlink:href="structLibBoard_1_1QuadraticBezierCurve.html" target="_top" xlink:title="A quadratic Bezier curve having 3 control points. NB. It is also a parabola arc.">
<polygon fill="white" stroke="black" points="461,-71 461,-101 604,-101 604,-71 461,-71"/>
<text text-anchor="start" x="469" y="-89" font-family="FreeSans" font-size="10.00">LibBoard::QuadraticBezier</text>
<text text-anchor="middle" x="532.5" y="-78" font-family="FreeSans" font-size="10.00">Curve</text>
</a>
</g>
</g>
<!-- Node12&#45;&gt;Node13 -->
<g id="edge12" class="edge">
<title>Node12&#45;&gt;Node13</title>
<path fill="none" stroke="midnightblue" d="M414.62,-86C429.53,-86 445.61,-86 460.92,-86"/>
<polygon fill="midnightblue" stroke="midnightblue" points="414.51,-82.5 404.51,-86 414.51,-89.5 414.51,-82.5"/>
</g>
<!-- Node15 -->
<g id="node15" class="node">
<title>Node15</title>
<g id="a_node15"><a xlink:href="classLibBoard_1_1Board.html" target="_top" xlink:title="Class for EPS, FIG or SVG drawings.">
<polygon fill="white" stroke="black" points="305.5,-38.5 305.5,-57.5 399.5,-57.5 399.5,-38.5 305.5,-38.5"/>
<text text-anchor="middle" x="352.5" y="-45.5" font-family="FreeSans" font-size="10.00">LibBoard::Board</text>
</a>
</g>
</g>
<!-- Node14&#45;&gt;Node15 -->
<g id="edge14" class="edge">
<title>Node14&#45;&gt;Node15</title>
<path fill="none" stroke="midnightblue" d="M254.11,-59.35C271.27,-57.35 289.4,-55.24 305.32,-53.38"/>
<polygon fill="midnightblue" stroke="midnightblue" points="253.67,-55.88 244.14,-60.51 254.48,-62.83 253.67,-55.88"/>
</g>
<!-- Node17 -->
<g id="node17" class="node">
<title>Node17</title>
<g id="a_node17"><a xlink:href="structLibBoard_1_1Group.html" target="_top" xlink:title="A group of shapes. A group is basically a ShapeList except that when rendered in either an SVG of a F...">
<polygon fill="white" stroke="black" points="305,-0.5 305,-19.5 400,-19.5 400,-0.5 305,-0.5"/>
<text text-anchor="middle" x="352.5" y="-7.5" font-family="FreeSans" font-size="10.00">LibBoard::Group</text>
</a>
</g>
</g>
<!-- Node14&#45;&gt;Node17 -->
<g id="edge16" class="edge">
<title>Node14&#45;&gt;Node17</title>
<path fill="none" stroke="midnightblue" d="M228.86,-54.01C234,-52.11 239.16,-50.09 244,-48 260.61,-40.83 263.15,-35.59 280,-29 289.21,-25.4 299.35,-22.25 309.02,-19.6"/>
<polygon fill="midnightblue" stroke="midnightblue" points="227.32,-50.84 219.07,-57.49 229.66,-57.44 227.32,-50.84"/>
</g>
<!-- Node16 -->
<g id="node16" class="node">
<title>Node16</title>
<g id="a_node16"><a xlink:href="classDGtal_1_1Board2D.html" target="_top" xlink:title="Aim: This class specializes a &#39;Board&#39; class so as to display DGtal objects more naturally (with &lt;&lt;)....">
<polygon fill="white" stroke="black" points="486.5,-32.5 486.5,-51.5 578.5,-51.5 578.5,-32.5 486.5,-32.5"/>
<text text-anchor="middle" x="532.5" y="-39.5" font-family="FreeSans" font-size="10.00">DGtal::Board2D</text>
</a>
</g>
</g>
<!-- Node15&#45;&gt;Node16 -->
<g id="edge15" class="edge">
<title>Node15&#45;&gt;Node16</title>
<path fill="none" stroke="midnightblue" d="M410.1,-46.09C434.72,-45.26 463.18,-44.3 486.35,-43.52"/>
<polygon fill="midnightblue" stroke="midnightblue" points="409.68,-42.6 399.8,-46.44 409.92,-49.6 409.68,-42.6"/>
</g>
</g>
</svg>
        <g id="navigator" transform="translate(0 0)" fill="#404254">
                <rect fill="#f2f5e9" fill-opacity="0.5" stroke="#606060" stroke-width=".5" x="0" y="0" width="60" height="60"/>
                <use id="zoomplus" xlink:href="#zoomPlus" x="17" y="9" onmousedown="handleZoom(evt,'in')"/>
                <use id="zoomminus" xlink:href="#zoomMin" x="42" y="9" onmousedown="handleZoom(evt,'out')"/>
                <use id="reset" xlink:href="#resetDef" x="30" y="36" onmousedown="handleReset()"/>
                <g id="arrowUp" xlink:href="#dirArrow" transform="translate(30 24)" onmousedown="handlePan(0,-1)">
                  <use xlink:href="#rim" fill="#404040">
                        <set attributeName="fill" to="#808080" begin="arrowUp.mouseover" end="arrowUp.mouseout"/>
                  </use>
                  <path fill="none" stroke="white" stroke-width="1.5" d="M0,-3.0v7 M-2.5,-0.5L0,-3.0L2.5,-0.5"/>
                </g>
                <g id="arrowRight" xlink:href="#dirArrow" transform="rotate(90) translate(36 -43)" onmousedown="handlePan(1,0)">
                  <use xlink:href="#rim" fill="#404040">
                        <set attributeName="fill" to="#808080" begin="arrowRight.mouseover" end="arrowRight.mouseout"/>
                  </use>
                  <path fill="none" stroke="white" stroke-width="1.5" d="M0,-3.0v7 M-2.5,-0.5L0,-3.0L2.5,-0.5"/>
                </g>
                <g id="arrowDown" xlink:href="#dirArrow" transform="rotate(180) translate(-30 -48)" onmousedown="handlePan(0,1)">
                  <use xlink:href="#rim" fill="#404040">
                        <set attributeName="fill" to="#808080" begin="arrowDown.mouseover" end="arrowDown.mouseout"/>
                  </use>
                  <path fill="none" stroke="white" stroke-width="1.5" d="M0,-3.0v7 M-2.5,-0.5L0,-3.0L2.5,-0.5"/>
                </g>
                <g id="arrowLeft" xlink:href="#dirArrow" transform="rotate(270) translate(-36 17)" onmousedown="handlePan(-1,0)">
                  <use xlink:href="#rim" fill="#404040">
                        <set attributeName="fill" to="#808080" begin="arrowLeft.mouseover" end="arrowLeft.mouseout"/>
                  </use>
                  <path fill="none" stroke="white" stroke-width="1.5" d="M0,-3.0v7 M-2.5,-0.5L0,-3.0L2.5,-0.5"/>
                </g>
        </g>
        <svg viewBox="0 0 15 15" width="100%" height="30px" preserveAspectRatio="xMaxYMin meet">
         <g id="arrow_out" transform="scale(0.3 0.3)">
          <a xlink:href="structLibBoard_1_1Shape__inherit__graph_org.svg" target="_base">
           <rect id="button" ry="5" rx="5" y="6" x="6" height="38" width="38"
                fill="#f2f5e9" fill-opacity="0.5" stroke="#606060" stroke-width="1.0"/>
           <path id="arrow"
             d="M 11.500037,31.436501 C 11.940474,20.09759 22.043105,11.32322 32.158766,21.979434 L 37.068811,17.246167 C 37.068811,17.246167 37.088388,32 37.088388,32 L 22.160133,31.978069 C 22.160133,31.978069 26.997745,27.140456 26.997745,27.140456 C 18.528582,18.264221 13.291696,25.230495 11.500037,31.436501 z"
             style="fill:#404040;"/>
          </a>
         </g>
        </svg>
</svg>
