<?xml version="1.0" encoding="UTF-8" standalone="no"?>
<!DOCTYPE svg PUBLIC "-//W3C//DTD SVG 1.1//EN"
 "http://www.w3.org/Graphics/SVG/1.1/DTD/svg11.dtd">
<!-- Generated by graphviz version 2.43.0 (0)
 -->
<!-- Title: boost::CopyConstructible&lt; T &gt; Pages: 1 -->
<!--zoomable 849 -->
<svg id="main" version="1.1" xmlns="http://www.w3.org/2000/svg" xmlns:xlink="http://www.w3.org/1999/xlink" xml:space="preserve" onload="init(evt)">
<style type="text/css"><![CDATA[
.edge:hover path { stroke: red; }
.edge:hover polygon { stroke: red; fill: red; }
]]></style>
<script type="text/javascript"><![CDATA[
var edges = document.getElementsByTagName('g');
if (edges && edges.length) {
  for (var i=0;i<edges.length;i++) {
    if (edges[i].id.substr(0,4)=='edge') {
      edges[i].setAttribute('class','edge');
    }
  }
}
]]></script>
        <defs>
                <circle id="rim" cx="0" cy="0" r="7"/>
                <circle id="rim2" cx="0" cy="0" r="3.5"/>
                <g id="zoomPlus">
                        <use xlink:href="#rim" fill="#404040">
                                <set attributeName="fill" to="#808080" begin="zoomplus.mouseover" end="zoomplus.mouseout"/>
                        </use>
                        <path d="M-4,0h8M0,-4v8" fill="none" stroke="white" stroke-width="1.5" pointer-events="none"/>
                </g>
                <g id="zoomMin">
                        <use xlink:href="#rim" fill="#404040">
                                <set attributeName="fill" to="#808080" begin="zoomminus.mouseover" end="zoomminus.mouseout"/>
                        </use>
                        <path d="M-4,0h8" fill="none" stroke="white" stroke-width="1.5" pointer-events="none"/>
                </g>
                <g id="dirArrow">
                        <path fill="none" stroke="white" stroke-width="1.5" d="M0,-3.0v7 M-2.5,-0.5L0,-3.0L2.5,-0.5"/>
                </g>
               <g id="resetDef">
                       <use xlink:href="#rim2" fill="#404040">
                               <set attributeName="fill" to="#808080" begin="reset.mouseover" end="reset.mouseout"/>
                       </use>
               </g>
        </defs>

<script type="text/javascript">
var viewWidth = 1459;
var viewHeight = 849;
var sectionId = 'dynsection-0';
</script>
<script xlink:href="svgpan.js"/>
<svg id="graph" class="graph">
<g id="viewport">
<title>boost::CopyConstructible&lt; T &gt;</title>
<polygon fill="white" stroke="transparent" points="-4,4 -4,-844.5 1455,-844.5 1455,4 -4,4"/>
<!-- Node1 -->
<g id="node1" class="node">
<title>Node1</title>
<g id="a_node1"><a xlink:title="Go to http://www.sgi.com/tech/stl/CopyConstructible.html.">
<polygon fill="#bfbfbf" stroke="black" points="0,-417 0,-436 167,-436 167,-417 0,-417"/>
<text text-anchor="middle" x="83.5" y="-424" font-family="FreeSans" font-size="10.00">boost::CopyConstructible&lt; T &gt;</text>
</a>
</g>
</g>
<!-- Node2 -->
<g id="node2" class="node">
<title>Node2</title>
<g id="a_node2"><a xlink:href="structDGtal_1_1C2x2DetComputer.html" target="_top" xlink:title="Aim: This concept gathers all models that are able to compute the (sign of the) determinant of a 2x2 ...">
<polygon fill="white" stroke="black" points="221.5,-821 221.5,-840 390.5,-840 390.5,-821 221.5,-821"/>
<text text-anchor="middle" x="306" y="-828" font-family="FreeSans" font-size="10.00">DGtal::C2x2DetComputer&lt; T &gt;</text>
</a>
</g>
</g>
<!-- Node1&#45;&gt;Node2 -->
<g id="edge1" class="edge">
<title>Node1&#45;&gt;Node2</title>
<path fill="none" stroke="midnightblue" d="M84,-446.41C83.56,-510.35 91.45,-712.04 203,-811.5 208.38,-816.3 214.57,-820.06 221.18,-822.99"/>
<polygon fill="midnightblue" stroke="midnightblue" points="87.5,-446.19 84.16,-436.13 80.5,-446.08 87.5,-446.19"/>
</g>
<!-- Node3 -->
<g id="node3" class="node">
<title>Node3</title>
<g id="a_node3"><a xlink:href="structDGtal_1_1concepts_1_1CBinner.html" target="_top" xlink:title="Aim: Represents an object that places a quantity into a bin, i.e. a functor that associates a natural...">
<polygon fill="white" stroke="black" points="222.5,-783 222.5,-802 389.5,-802 389.5,-783 222.5,-783"/>
<text text-anchor="middle" x="306" y="-790" font-family="FreeSans" font-size="10.00">DGtal::concepts::CBinner&lt; T &gt;</text>
</a>
</g>
</g>
<!-- Node1&#45;&gt;Node3 -->
<g id="edge2" class="edge">
<title>Node1&#45;&gt;Node3</title>
<path fill="none" stroke="midnightblue" d="M84.77,-446.41C86.72,-506.2 101.2,-685.48 203,-773.5 208.72,-778.45 215.31,-782.28 222.33,-785.24"/>
<polygon fill="midnightblue" stroke="midnightblue" points="88.26,-446.02 84.52,-436.1 81.26,-446.19 88.26,-446.02"/>
</g>
<!-- Node4 -->
<g id="node4" class="node">
<title>Node4</title>
<g id="a_node4"><a xlink:href="structDGtal_1_1concepts_1_1CDigitalSet.html" target="_top" xlink:title="Aim: Represents a set of points within the given domain. This set of points is modifiable by the user...">
<polygon fill="white" stroke="black" points="236.5,-733.5 236.5,-763.5 375.5,-763.5 375.5,-733.5 236.5,-733.5"/>
<text text-anchor="start" x="244.5" y="-751.5" font-family="FreeSans" font-size="10.00">DGtal::concepts::CDigital</text>
<text text-anchor="middle" x="306" y="-740.5" font-family="FreeSans" font-size="10.00">Set&lt; T &gt;</text>
</a>
</g>
</g>
<!-- Node1&#45;&gt;Node4 -->
<g id="edge3" class="edge">
<title>Node1&#45;&gt;Node4</title>
<path fill="none" stroke="midnightblue" d="M86.21,-446.21C91.94,-499.76 115.41,-648.95 203,-724.5 212.51,-732.7 224.3,-738.22 236.45,-741.91"/>
<polygon fill="midnightblue" stroke="midnightblue" points="89.67,-445.65 85.21,-436.04 82.7,-446.33 89.67,-445.65"/>
</g>
<!-- Node5 -->
<g id="node5" class="node">
<title>Node5</title>
<g id="a_node5"><a xlink:href="structDGtal_1_1concepts_1_1CDigitalSurfaceContainer.html" target="_top" xlink:title="Aim: The digital surface container concept describes a minimal set of inner types and methods so as t...">
<polygon fill="white" stroke="black" points="236.5,-684.5 236.5,-714.5 375.5,-714.5 375.5,-684.5 236.5,-684.5"/>
<text text-anchor="start" x="244.5" y="-702.5" font-family="FreeSans" font-size="10.00">DGtal::concepts::CDigital</text>
<text text-anchor="middle" x="306" y="-691.5" font-family="FreeSans" font-size="10.00">SurfaceContainer&lt; T &gt;</text>
</a>
</g>
</g>
<!-- Node1&#45;&gt;Node5 -->
<g id="edge4" class="edge">
<title>Node1&#45;&gt;Node5</title>
<path fill="none" stroke="midnightblue" d="M87.88,-446.11C97.11,-493.41 127.28,-614.41 203,-675.5 212.63,-683.27 224.34,-688.6 236.34,-692.25"/>
<polygon fill="midnightblue" stroke="midnightblue" points="91.31,-445.42 86.05,-436.22 84.43,-446.69 91.31,-445.42"/>
</g>
<!-- Node6 -->
<g id="node6" class="node">
<title>Node6</title>
<g id="a_node6"><a xlink:href="structDGtal_1_1concepts_1_1CDigitalSurfaceTracker.html" target="_top" xlink:title="Aim:">
<polygon fill="white" stroke="black" points="236.5,-635.5 236.5,-665.5 375.5,-665.5 375.5,-635.5 236.5,-635.5"/>
<text text-anchor="start" x="244.5" y="-653.5" font-family="FreeSans" font-size="10.00">DGtal::concepts::CDigital</text>
<text text-anchor="middle" x="306" y="-642.5" font-family="FreeSans" font-size="10.00">SurfaceTracker&lt; T &gt;</text>
</a>
</g>
</g>
<!-- Node1&#45;&gt;Node6 -->
<g id="edge5" class="edge">
<title>Node1&#45;&gt;Node6</title>
<path fill="none" stroke="midnightblue" d="M90.35,-445.86C103.5,-485.99 139.34,-578.4 203,-625.5 212.82,-632.77 224.49,-637.94 236.36,-641.62"/>
<polygon fill="midnightblue" stroke="midnightblue" points="93.65,-444.7 87.3,-436.22 86.97,-446.81 93.65,-444.7"/>
</g>
<!-- Node7 -->
<g id="node7" class="node">
<title>Node7</title>
<g id="a_node7"><a xlink:href="structDGtal_1_1concepts_1_1CGraphVisitor.html" target="_top" xlink:title="Aim: Defines the concept of a visitor onto a graph, that is an object that traverses vertices of the ...">
<polygon fill="white" stroke="black" points="208,-597 208,-616 404,-616 404,-597 208,-597"/>
<text text-anchor="middle" x="306" y="-604" font-family="FreeSans" font-size="10.00">DGtal::concepts::CGraphVisitor&lt; T &gt;</text>
</a>
</g>
</g>
<!-- Node1&#45;&gt;Node7 -->
<g id="edge6" class="edge">
<title>Node1&#45;&gt;Node7</title>
<path fill="none" stroke="midnightblue" d="M92.62,-445.44C108.43,-479.83 146.78,-552.23 203,-587.5 209.1,-591.33 215.79,-594.42 222.73,-596.92"/>
<polygon fill="midnightblue" stroke="midnightblue" points="95.72,-443.78 88.45,-436.07 89.32,-446.63 95.72,-443.78"/>
</g>
<!-- Node8 -->
<g id="node8" class="node">
<title>Node8</title>
<g id="a_node8"><a xlink:href="structDGtal_1_1concepts_1_1CLMSTDSSFilter.html" target="_top" xlink:title="Aim: Defines the concept describing a functor which filters DSSes for L&#45;MST calculations.">
<polygon fill="white" stroke="black" points="203,-559 203,-578 409,-578 409,-559 203,-559"/>
<text text-anchor="middle" x="306" y="-566" font-family="FreeSans" font-size="10.00">DGtal::concepts::CLMSTDSSFilter&lt; T &gt;</text>
</a>
</g>
</g>
<!-- Node1&#45;&gt;Node8 -->
<g id="edge7" class="edge">
<title>Node1&#45;&gt;Node8</title>
<path fill="none" stroke="midnightblue" d="M96.42,-444.76C115.43,-472.26 155.36,-523.84 203,-549.5 210.22,-553.39 218.09,-556.49 226.16,-558.97"/>
<polygon fill="midnightblue" stroke="midnightblue" points="99.08,-442.45 90.59,-436.11 93.28,-446.36 99.08,-442.45"/>
</g>
<!-- Node9 -->
<g id="node9" class="node">
<title>Node9</title>
<g id="a_node9"><a xlink:href="structDGtal_1_1concepts_1_1CLMSTTangentFromDSS.html" target="_top" xlink:title="Aim: Defines the concept describing a functor which calculates a direction of the 2D DSS and an eccen...">
<polygon fill="white" stroke="black" points="220.5,-509.5 220.5,-539.5 391.5,-539.5 391.5,-509.5 220.5,-509.5"/>
<text text-anchor="start" x="228.5" y="-527.5" font-family="FreeSans" font-size="10.00">DGtal::concepts::CLMSTTangent</text>
<text text-anchor="middle" x="306" y="-516.5" font-family="FreeSans" font-size="10.00">FromDSS&lt; T &gt;</text>
</a>
</g>
</g>
<!-- Node1&#45;&gt;Node9 -->
<g id="edge8" class="edge">
<title>Node1&#45;&gt;Node9</title>
<path fill="none" stroke="midnightblue" d="M105.1,-442.31C127.88,-459.07 166.23,-485.19 203,-500.5 211.14,-503.89 219.86,-506.86 228.65,-509.44"/>
<polygon fill="midnightblue" stroke="midnightblue" points="107,-439.36 96.89,-436.18 102.81,-444.97 107,-439.36"/>
</g>
<!-- Node10 -->
<g id="node10" class="node">
<title>Node10</title>
<g id="a_node10"><a xlink:href="structDGtal_1_1concepts_1_1CMetricSpace.html" target="_top" xlink:title="Aim: defines the concept of metric spaces.">
<polygon fill="white" stroke="black" points="237.5,-460.5 237.5,-490.5 374.5,-490.5 374.5,-460.5 237.5,-460.5"/>
<text text-anchor="start" x="245.5" y="-478.5" font-family="FreeSans" font-size="10.00">DGtal::concepts::CMetric</text>
<text text-anchor="middle" x="306" y="-467.5" font-family="FreeSans" font-size="10.00">Space&lt; T &gt;</text>
</a>
</g>
</g>
<!-- Node1&#45;&gt;Node10 -->
<g id="edge9" class="edge">
<title>Node1&#45;&gt;Node10</title>
<path fill="none" stroke="midnightblue" d="M137.12,-438.19C167.1,-444.86 204.99,-453.27 237.18,-460.43"/>
<polygon fill="midnightblue" stroke="midnightblue" points="137.8,-434.76 127.28,-436.01 136.28,-441.59 137.8,-434.76"/>
</g>
<!-- Node13 -->
<g id="node13" class="node">
<title>Node13</title>
<g id="a_node13"><a xlink:href="structDGtal_1_1concepts_1_1CPolarPointComparator2D.html" target="_top" xlink:title="Aim: This concept gathers classes that are able to compare the position of two given points &#160;around a...">
<polygon fill="white" stroke="black" points="228,-411.5 228,-441.5 384,-441.5 384,-411.5 228,-411.5"/>
<text text-anchor="start" x="236" y="-429.5" font-family="FreeSans" font-size="10.00">DGtal::concepts::CPolarPoint</text>
<text text-anchor="middle" x="306" y="-418.5" font-family="FreeSans" font-size="10.00">Comparator2D&lt; T &gt;</text>
</a>
</g>
</g>
<!-- Node1&#45;&gt;Node13 -->
<g id="edge12" class="edge">
<title>Node1&#45;&gt;Node13</title>
<path fill="none" stroke="midnightblue" d="M177.6,-426.5C194.39,-426.5 211.73,-426.5 228,-426.5"/>
<polygon fill="midnightblue" stroke="midnightblue" points="177.23,-423 167.23,-426.5 177.23,-430 177.23,-423"/>
</g>
<!-- Node14 -->
<g id="node14" class="node">
<title>Node14</title>
<g id="a_node14"><a xlink:href="structDGtal_1_1concepts_1_1CPositiveIrreducibleFraction.html" target="_top" xlink:title="Aim: Defines positive irreducible fractions, i.e. fraction p/q, p and q non&#45;negative integers,...">
<polygon fill="white" stroke="black" points="233,-362.5 233,-392.5 379,-392.5 379,-362.5 233,-362.5"/>
<text text-anchor="start" x="241" y="-380.5" font-family="FreeSans" font-size="10.00">DGtal::concepts::CPositive</text>
<text text-anchor="middle" x="306" y="-369.5" font-family="FreeSans" font-size="10.00">IrreducibleFraction&lt; T &gt;</text>
</a>
</g>
</g>
<!-- Node1&#45;&gt;Node14 -->
<g id="edge13" class="edge">
<title>Node1&#45;&gt;Node14</title>
<path fill="none" stroke="midnightblue" d="M137.12,-414.81C167.1,-408.14 204.99,-399.73 237.18,-392.57"/>
<polygon fill="midnightblue" stroke="midnightblue" points="136.28,-411.41 127.28,-416.99 137.8,-418.24 136.28,-411.41"/>
</g>
<!-- Node15 -->
<g id="node15" class="node">
<title>Node15</title>
<g id="a_node15"><a xlink:href="structDGtal_1_1concepts_1_1CPowerMetric.html" target="_top" xlink:title="Aim: defines the concept of special weighted metrics, so called power metrics.">
<polygon fill="white" stroke="black" points="208,-324 208,-343 404,-343 404,-324 208,-324"/>
<text text-anchor="middle" x="306" y="-331" font-family="FreeSans" font-size="10.00">DGtal::concepts::CPowerMetric&lt; T &gt;</text>
</a>
</g>
</g>
<!-- Node1&#45;&gt;Node15 -->
<g id="edge14" class="edge">
<title>Node1&#45;&gt;Node15</title>
<path fill="none" stroke="midnightblue" d="M105.03,-410.65C127.75,-393.9 166.05,-367.95 203,-353.5 214.09,-349.16 226.24,-345.73 238.17,-343.03"/>
<polygon fill="midnightblue" stroke="midnightblue" points="102.75,-407.98 96.85,-416.78 106.95,-413.58 102.75,-407.98"/>
</g>
<!-- Node17 -->
<g id="node17" class="node">
<title>Node17</title>
<g id="a_node17"><a xlink:href="structDGtal_1_1concepts_1_1CPreCellularGridSpaceND.html" target="_top" xlink:title="Aim: This concept describes an unbounded cellular grid space in nD. In these spaces obtained by carte...">
<polygon fill="white" stroke="black" points="226,-274.5 226,-304.5 386,-304.5 386,-274.5 226,-274.5"/>
<text text-anchor="start" x="234" y="-292.5" font-family="FreeSans" font-size="10.00">DGtal::concepts::CPreCellular</text>
<text text-anchor="middle" x="306" y="-281.5" font-family="FreeSans" font-size="10.00">GridSpaceND&lt; T &gt;</text>
</a>
</g>
</g>
<!-- Node1&#45;&gt;Node17 -->
<g id="edge16" class="edge">
<title>Node1&#45;&gt;Node17</title>
<path fill="none" stroke="midnightblue" d="M97.87,-409.11C117.94,-384.24 158.3,-338.85 203,-314.5 210.12,-310.62 217.85,-307.33 225.76,-304.55"/>
<polygon fill="midnightblue" stroke="midnightblue" points="95.1,-406.97 91.64,-416.98 100.59,-411.31 95.1,-406.97"/>
</g>
<!-- Node19 -->
<g id="node19" class="node">
<title>Node19</title>
<g id="a_node19"><a xlink:href="structDGtal_1_1concepts_1_1CPrimitiveComputer.html" target="_top" xlink:title="Aim: Defines the concept describing an object that computes some primitive from input points,...">
<polygon fill="white" stroke="black" points="230.5,-225.5 230.5,-255.5 381.5,-255.5 381.5,-225.5 230.5,-225.5"/>
<text text-anchor="start" x="238.5" y="-243.5" font-family="FreeSans" font-size="10.00">DGtal::concepts::CPrimitive</text>
<text text-anchor="middle" x="306" y="-232.5" font-family="FreeSans" font-size="10.00">Computer&lt; T &gt;</text>
</a>
</g>
</g>
<!-- Node1&#45;&gt;Node19 -->
<g id="edge18" class="edge">
<title>Node1&#45;&gt;Node19</title>
<path fill="none" stroke="midnightblue" d="M93.05,-407.38C109.31,-373.29 148.05,-302.16 203,-265.5 211.27,-259.99 220.64,-255.69 230.26,-252.33"/>
<polygon fill="midnightblue" stroke="midnightblue" points="89.76,-406.15 88.73,-416.69 96.11,-409.09 89.76,-406.15"/>
</g>
<!-- Node22 -->
<g id="node22" class="node">
<title>Node22</title>
<g id="a_node22"><a xlink:href="structDGtal_1_1concepts_1_1CSegment.html" target="_top" xlink:title="Aim: Defines the concept describing a segment, ie. a valid and not empty range.">
<polygon fill="white" stroke="black" points="216.5,-187 216.5,-206 395.5,-206 395.5,-187 216.5,-187"/>
<text text-anchor="middle" x="306" y="-194" font-family="FreeSans" font-size="10.00">DGtal::concepts::CSegment&lt; T &gt;</text>
</a>
</g>
</g>
<!-- Node1&#45;&gt;Node22 -->
<g id="edge21" class="edge">
<title>Node1&#45;&gt;Node22</title>
<path fill="none" stroke="midnightblue" d="M89.59,-406.7C101.56,-364.39 135.7,-265.09 203,-216.5 208.93,-212.22 215.53,-208.8 222.45,-206.06"/>
<polygon fill="midnightblue" stroke="midnightblue" points="86.15,-406.03 86.91,-416.6 92.9,-407.86 86.15,-406.03"/>
</g>
<!-- Node29 -->
<g id="node29" class="node">
<title>Node29</title>
<g id="a_node29"><a xlink:href="structDGtal_1_1concepts_1_1CSegmentComputerEstimator.html" target="_top" xlink:title="Aim: This concept is a refinement of CCurveLocalGeometricEstimator devoted to the estimation of a geo...">
<polygon fill="white" stroke="black" points="231,-137.5 231,-167.5 381,-167.5 381,-137.5 231,-137.5"/>
<text text-anchor="start" x="239" y="-155.5" font-family="FreeSans" font-size="10.00">DGtal::concepts::CSegment</text>
<text text-anchor="middle" x="306" y="-144.5" font-family="FreeSans" font-size="10.00">ComputerEstimator&lt; T &gt;</text>
</a>
</g>
</g>
<!-- Node1&#45;&gt;Node29 -->
<g id="edge29" class="edge">
<title>Node1&#45;&gt;Node29</title>
<path fill="none" stroke="midnightblue" d="M87.92,-406.94C97.22,-359.73 127.57,-238.94 203,-177.5 211.13,-170.88 220.75,-165.97 230.79,-162.34"/>
<polygon fill="midnightblue" stroke="midnightblue" points="84.47,-406.33 86.07,-416.81 91.35,-407.62 84.47,-406.33"/>
</g>
<!-- Node30 -->
<g id="node30" class="node">
<title>Node30</title>
<g id="a_node30"><a xlink:href="structDGtal_1_1concepts_1_1CStack.html" target="_top" xlink:title="Aim: This concept gathers classes that provide a stack interface.">
<polygon fill="white" stroke="black" points="225,-99 225,-118 387,-118 387,-99 225,-99"/>
<text text-anchor="middle" x="306" y="-106" font-family="FreeSans" font-size="10.00">DGtal::concepts::CStack&lt; T &gt;</text>
</a>
</g>
</g>
<!-- Node1&#45;&gt;Node30 -->
<g id="edge30" class="edge">
<title>Node1&#45;&gt;Node30</title>
<path fill="none" stroke="midnightblue" d="M86.06,-406.61C91.41,-352.62 114.01,-202.39 203,-128.5 209.46,-123.14 216.93,-119.07 224.84,-115.99"/>
<polygon fill="midnightblue" stroke="midnightblue" points="82.54,-406.6 85.14,-416.88 89.52,-407.23 82.54,-406.6"/>
</g>
<!-- Node31 -->
<g id="node31" class="node">
<title>Node31</title>
<g id="a_node31"><a xlink:href="structDGtal_1_1concepts_1_1CSurfelLocalEstimator.html" target="_top" xlink:title="Aim: This concept describes an object that can process a range of surfels (that are supposed to belon...">
<polygon fill="white" stroke="black" points="238.5,-49.5 238.5,-79.5 373.5,-79.5 373.5,-49.5 238.5,-49.5"/>
<text text-anchor="start" x="246.5" y="-67.5" font-family="FreeSans" font-size="10.00">DGtal::concepts::CSurfel</text>
<text text-anchor="middle" x="306" y="-56.5" font-family="FreeSans" font-size="10.00">LocalEstimator&lt; T &gt;</text>
</a>
</g>
</g>
<!-- Node1&#45;&gt;Node31 -->
<g id="edge31" class="edge">
<title>Node1&#45;&gt;Node31</title>
<path fill="none" stroke="midnightblue" d="M85.23,-406.66C88.5,-348.52 106.29,-177.19 203,-89.5 212.86,-80.56 225.39,-74.69 238.27,-70.86"/>
<polygon fill="midnightblue" stroke="midnightblue" points="81.72,-406.84 84.74,-417 88.71,-407.17 81.72,-406.84"/>
</g>
<!-- Node33 -->
<g id="node33" class="node">
<title>Node33</title>
<g id="a_node33"><a xlink:href="structDGtal_1_1deprecated_1_1concepts_1_1CConvolutionWeights.html" target="_top" xlink:title="Aim: defines models of centered convolution kernel used for normal vector integration for instance.">
<polygon fill="white" stroke="black" points="206.5,-0.5 206.5,-30.5 405.5,-30.5 405.5,-0.5 206.5,-0.5"/>
<text text-anchor="start" x="214.5" y="-18.5" font-family="FreeSans" font-size="10.00">DGtal::deprecated::</text>
<text text-anchor="middle" x="306" y="-7.5" font-family="FreeSans" font-size="10.00">concepts::CConvolutionWeights&lt; T &gt;</text>
</a>
</g>
</g>
<!-- Node1&#45;&gt;Node33 -->
<g id="edge33" class="edge">
<title>Node1&#45;&gt;Node33</title>
<path fill="none" stroke="midnightblue" d="M84.16,-406.7C84.2,-343.08 93.37,-142.12 203,-39.5 206.59,-36.14 210.55,-33.23 214.77,-30.7"/>
<polygon fill="midnightblue" stroke="midnightblue" points="80.66,-406.95 84.23,-416.92 87.66,-406.9 80.66,-406.95"/>
</g>
<!-- Node11 -->
<g id="node11" class="node">
<title>Node11</title>
<g id="a_node11"><a xlink:href="structDGtal_1_1concepts_1_1CDigitalMetricSpace.html" target="_top" xlink:title="Aim: defines the concept of digital metric spaces.">
<polygon fill="white" stroke="black" points="468,-484.5 468,-514.5 607,-514.5 607,-484.5 468,-484.5"/>
<text text-anchor="start" x="476" y="-502.5" font-family="FreeSans" font-size="10.00">DGtal::concepts::CDigital</text>
<text text-anchor="middle" x="537.5" y="-491.5" font-family="FreeSans" font-size="10.00">MetricSpace&lt; T &gt;</text>
</a>
</g>
</g>
<!-- Node10&#45;&gt;Node11 -->
<g id="edge10" class="edge">
<title>Node10&#45;&gt;Node11</title>
<path fill="none" stroke="midnightblue" d="M384.77,-483.63C411.69,-486.45 441.64,-489.58 467.78,-492.31"/>
<polygon fill="midnightblue" stroke="midnightblue" points="384.93,-480.13 374.62,-482.57 384.2,-487.09 384.93,-480.13"/>
</g>
<!-- Node12 -->
<g id="node12" class="node">
<title>Node12</title>
<g id="a_node12"><a xlink:href="structDGtal_1_1concepts_1_1CSeparableMetric.html" target="_top" xlink:title="Aim: defines the concept of separable metrics.">
<polygon fill="white" stroke="black" points="460,-435.5 460,-465.5 615,-465.5 615,-435.5 460,-435.5"/>
<text text-anchor="start" x="468" y="-453.5" font-family="FreeSans" font-size="10.00">DGtal::concepts::CSeparable</text>
<text text-anchor="middle" x="537.5" y="-442.5" font-family="FreeSans" font-size="10.00">Metric&lt; T &gt;</text>
</a>
</g>
</g>
<!-- Node10&#45;&gt;Node12 -->
<g id="edge11" class="edge">
<title>Node10&#45;&gt;Node12</title>
<path fill="none" stroke="midnightblue" d="M384.81,-467.02C408.98,-464.39 435.6,-461.49 459.7,-458.87"/>
<polygon fill="midnightblue" stroke="midnightblue" points="384.18,-463.57 374.62,-468.13 384.94,-470.53 384.18,-463.57"/>
</g>
<!-- Node16 -->
<g id="node16" class="node">
<title>Node16</title>
<g id="a_node16"><a xlink:href="structDGtal_1_1concepts_1_1CPowerSeparableMetric.html" target="_top" xlink:title="Aim: defines the concept of separable metrics.">
<polygon fill="white" stroke="black" points="445,-323.5 445,-353.5 630,-353.5 630,-323.5 445,-323.5"/>
<text text-anchor="start" x="453" y="-341.5" font-family="FreeSans" font-size="10.00">DGtal::concepts::CPowerSeparable</text>
<text text-anchor="middle" x="537.5" y="-330.5" font-family="FreeSans" font-size="10.00">Metric&lt; T &gt;</text>
</a>
</g>
</g>
<!-- Node15&#45;&gt;Node16 -->
<g id="edge15" class="edge">
<title>Node15&#45;&gt;Node16</title>
<path fill="none" stroke="midnightblue" d="M414.46,-335.84C424.62,-336.06 434.86,-336.29 444.86,-336.5"/>
<polygon fill="midnightblue" stroke="midnightblue" points="414.4,-332.34 404.33,-335.62 414.25,-339.34 414.4,-332.34"/>
</g>
<!-- Node18 -->
<g id="node18" class="node">
<title>Node18</title>
<g id="a_node18"><a xlink:href="structDGtal_1_1concepts_1_1CCellularGridSpaceND.html" target="_top" xlink:title="Aim: This concept describes a cellular grid space in nD. In these spaces obtained by cartesian produc...">
<polygon fill="white" stroke="black" points="465.5,-274.5 465.5,-304.5 609.5,-304.5 609.5,-274.5 465.5,-274.5"/>
<text text-anchor="start" x="473.5" y="-292.5" font-family="FreeSans" font-size="10.00">DGtal::concepts::CCellular</text>
<text text-anchor="middle" x="537.5" y="-281.5" font-family="FreeSans" font-size="10.00">GridSpaceND&lt; T &gt;</text>
</a>
</g>
</g>
<!-- Node17&#45;&gt;Node18 -->
<g id="edge17" class="edge">
<title>Node17&#45;&gt;Node18</title>
<path fill="none" stroke="midnightblue" d="M396.34,-289.5C419.19,-289.5 443.46,-289.5 465.26,-289.5"/>
<polygon fill="midnightblue" stroke="midnightblue" points="396.3,-286 386.3,-289.5 396.3,-293 396.3,-286"/>
</g>
<!-- Node20 -->
<g id="node20" class="node">
<title>Node20</title>
<g id="a_node20"><a xlink:href="structDGtal_1_1concepts_1_1CIncrementalPrimitiveComputer.html" target="_top" xlink:title="Aim: Defines the concept describing an object that computes some primitive from input points given on...">
<polygon fill="white" stroke="black" points="455,-225.5 455,-255.5 620,-255.5 620,-225.5 455,-225.5"/>
<text text-anchor="start" x="463" y="-243.5" font-family="FreeSans" font-size="10.00">DGtal::concepts::CIncremental</text>
<text text-anchor="middle" x="537.5" y="-232.5" font-family="FreeSans" font-size="10.00">PrimitiveComputer&lt; T &gt;</text>
</a>
</g>
</g>
<!-- Node19&#45;&gt;Node20 -->
<g id="edge19" class="edge">
<title>Node19&#45;&gt;Node20</title>
<path fill="none" stroke="midnightblue" d="M391.53,-240.5C412.21,-240.5 434.29,-240.5 454.83,-240.5"/>
<polygon fill="midnightblue" stroke="midnightblue" points="391.51,-237 381.51,-240.5 391.51,-244 391.51,-237"/>
</g>
<!-- Node21 -->
<g id="node21" class="node">
<title>Node21</title>
<g id="a_node21"><a xlink:href="structDGtal_1_1concepts_1_1CAdditivePrimitiveComputer.html" target="_top" xlink:title="Aim: Defines the concept describing an object that computes some primitive from input points given gr...">
<polygon fill="white" stroke="black" points="675,-225.5 675,-255.5 822,-255.5 822,-225.5 675,-225.5"/>
<text text-anchor="start" x="683" y="-243.5" font-family="FreeSans" font-size="10.00">DGtal::concepts::CAdditive</text>
<text text-anchor="middle" x="748.5" y="-232.5" font-family="FreeSans" font-size="10.00">PrimitiveComputer&lt; T &gt;</text>
</a>
</g>
</g>
<!-- Node20&#45;&gt;Node21 -->
<g id="edge20" class="edge">
<title>Node20&#45;&gt;Node21</title>
<path fill="none" stroke="midnightblue" d="M630.4,-240.5C645.23,-240.5 660.4,-240.5 674.69,-240.5"/>
<polygon fill="midnightblue" stroke="midnightblue" points="630.2,-237 620.2,-240.5 630.2,-244 630.2,-237"/>
</g>
<!-- Node23 -->
<g id="node23" class="node">
<title>Node23</title>
<g id="a_node23"><a xlink:href="structDGtal_1_1concepts_1_1CSegmentFactory.html" target="_top" xlink:title="Aim: Defines the concept describing a segment ie. a valid and not empty subrange, which can construct...">
<polygon fill="white" stroke="black" points="462.5,-176.5 462.5,-206.5 612.5,-206.5 612.5,-176.5 462.5,-176.5"/>
<text text-anchor="start" x="470.5" y="-194.5" font-family="FreeSans" font-size="10.00">DGtal::concepts::CSegment</text>
<text text-anchor="middle" x="537.5" y="-183.5" font-family="FreeSans" font-size="10.00">Factory&lt; T &gt;</text>
</a>
</g>
</g>
<!-- Node22&#45;&gt;Node23 -->
<g id="edge22" class="edge">
<title>Node22&#45;&gt;Node23</title>
<path fill="none" stroke="midnightblue" d="M405.84,-194.35C424.72,-193.94 444.19,-193.51 462.15,-193.12"/>
<polygon fill="midnightblue" stroke="midnightblue" points="405.65,-190.85 395.73,-194.57 405.8,-197.85 405.65,-190.85"/>
</g>
<!-- Node24 -->
<g id="node24" class="node">
<title>Node24</title>
<g id="a_node24"><a xlink:href="structDGtal_1_1concepts_1_1CIncrementalSegmentComputer.html" target="_top" xlink:title="Aim: Defines the concept describing an incremental segment computer, &#160;&#160;ie. a model of CSegmentFactory...">
<polygon fill="white" stroke="black" points="666,-176.5 666,-206.5 831,-206.5 831,-176.5 666,-176.5"/>
<text text-anchor="start" x="674" y="-194.5" font-family="FreeSans" font-size="10.00">DGtal::concepts::CIncremental</text>
<text text-anchor="middle" x="748.5" y="-183.5" font-family="FreeSans" font-size="10.00">SegmentComputer&lt; T &gt;</text>
</a>
</g>
</g>
<!-- Node23&#45;&gt;Node24 -->
<g id="edge23" class="edge">
<title>Node23&#45;&gt;Node24</title>
<path fill="none" stroke="midnightblue" d="M622.93,-191.5C637.03,-191.5 651.62,-191.5 665.65,-191.5"/>
<polygon fill="midnightblue" stroke="midnightblue" points="622.77,-188 612.77,-191.5 622.77,-195 622.77,-188"/>
</g>
<!-- Node25 -->
<g id="node25" class="node">
<title>Node25</title>
<g id="a_node25"><a xlink:href="structDGtal_1_1concepts_1_1CForwardSegmentComputer.html" target="_top" xlink:title="Aim: Defines the concept describing a forward segment computer. Like any model of CIncrementalSegment...">
<polygon fill="white" stroke="black" points="867,-176.5 867,-206.5 1013,-206.5 1013,-176.5 867,-176.5"/>
<text text-anchor="start" x="875" y="-194.5" font-family="FreeSans" font-size="10.00">DGtal::concepts::CForward</text>
<text text-anchor="middle" x="940" y="-183.5" font-family="FreeSans" font-size="10.00">SegmentComputer&lt; T &gt;</text>
</a>
</g>
</g>
<!-- Node24&#45;&gt;Node25 -->
<g id="edge24" class="edge">
<title>Node24&#45;&gt;Node25</title>
<path fill="none" stroke="midnightblue" d="M841.26,-191.5C849.83,-191.5 858.42,-191.5 866.77,-191.5"/>
<polygon fill="midnightblue" stroke="midnightblue" points="841.24,-188 831.24,-191.5 841.24,-195 841.24,-188"/>
</g>
<!-- Node26 -->
<g id="node26" class="node">
<title>Node26</title>
<g id="a_node26"><a xlink:href="structDGtal_1_1concepts_1_1CBidirectionalSegmentComputer.html" target="_top" xlink:title="Aim: Defines the concept describing a bidirectional segment computer, &#160;&#160;ie. a model of concepts::CSeg...">
<polygon fill="white" stroke="black" points="1049,-201.5 1049,-231.5 1217,-231.5 1217,-201.5 1049,-201.5"/>
<text text-anchor="start" x="1057" y="-219.5" font-family="FreeSans" font-size="10.00">DGtal::concepts::CBidirectional</text>
<text text-anchor="middle" x="1133" y="-208.5" font-family="FreeSans" font-size="10.00">SegmentComputer&lt; T &gt;</text>
</a>
</g>
</g>
<!-- Node25&#45;&gt;Node26 -->
<g id="edge25" class="edge">
<title>Node25&#45;&gt;Node26</title>
<path fill="none" stroke="midnightblue" d="M1023.39,-202.28C1031.81,-203.39 1040.37,-204.51 1048.79,-205.61"/>
<polygon fill="midnightblue" stroke="midnightblue" points="1023.58,-198.78 1013.21,-200.95 1022.67,-205.72 1023.58,-198.78"/>
</g>
<!-- Node28 -->
<g id="node28" class="node">
<title>Node28</title>
<g id="a_node28"><a xlink:href="structDGtal_1_1concepts_1_1CDynamicSegmentComputer.html" target="_top" xlink:title="Aim: Defines the concept describing a dynamic segment computer, &#160;&#160;ie. a model of CSegment that can ex...">
<polygon fill="white" stroke="black" points="1058,-152.5 1058,-182.5 1208,-182.5 1208,-152.5 1058,-152.5"/>
<text text-anchor="start" x="1066" y="-170.5" font-family="FreeSans" font-size="10.00">DGtal::concepts::CDynamic</text>
<text text-anchor="middle" x="1133" y="-159.5" font-family="FreeSans" font-size="10.00">SegmentComputer&lt; T &gt;</text>
</a>
</g>
</g>
<!-- Node25&#45;&gt;Node28 -->
<g id="edge27" class="edge">
<title>Node25&#45;&gt;Node28</title>
<path fill="none" stroke="midnightblue" d="M1023.22,-181.17C1034.71,-179.73 1046.46,-178.25 1057.78,-176.83"/>
<polygon fill="midnightblue" stroke="midnightblue" points="1022.69,-177.71 1013.21,-182.43 1023.57,-184.65 1022.69,-177.71"/>
</g>
<!-- Node27 -->
<g id="node27" class="node">
<title>Node27</title>
<g id="a_node27"><a xlink:href="structDGtal_1_1concepts_1_1CDynamicBidirectionalSegmentComputer.html" target="_top" xlink:title="Aim: Defines the concept describing a dynamic and bidirectional segment computer, ie....">
<polygon fill="white" stroke="black" points="1253,-176.5 1253,-206.5 1451,-206.5 1451,-176.5 1253,-176.5"/>
<text text-anchor="start" x="1261" y="-194.5" font-family="FreeSans" font-size="10.00">DGtal::concepts::CDynamic</text>
<text text-anchor="middle" x="1352" y="-183.5" font-family="FreeSans" font-size="10.00">BidirectionalSegmentComputer&lt; T &gt;</text>
</a>
</g>
</g>
<!-- Node26&#45;&gt;Node27 -->
<g id="edge26" class="edge">
<title>Node26&#45;&gt;Node27</title>
<path fill="none" stroke="midnightblue" d="M1227.42,-205.74C1235.79,-204.77 1244.29,-203.79 1252.71,-202.82"/>
<polygon fill="midnightblue" stroke="midnightblue" points="1226.81,-202.28 1217.28,-206.91 1227.61,-209.24 1226.81,-202.28"/>
</g>
<!-- Node28&#45;&gt;Node27 -->
<g id="edge28" class="edge">
<title>Node28&#45;&gt;Node27</title>
<path fill="none" stroke="midnightblue" d="M1218.31,-176.82C1229.58,-178.07 1241.22,-179.36 1252.7,-180.63"/>
<polygon fill="midnightblue" stroke="midnightblue" points="1218.4,-173.31 1208.07,-175.69 1217.63,-180.27 1218.4,-173.31"/>
</g>
<!-- Node32 -->
<g id="node32" class="node">
<title>Node32</title>
<g id="a_node32"><a xlink:href="structDGtal_1_1concepts_1_1CDigitalSurfaceLocalEstimator.html" target="_top" xlink:title="Aim: This concept describes an object that can process a range over some generic digital surface so a...">
<polygon fill="white" stroke="black" points="460,-49.5 460,-79.5 615,-79.5 615,-49.5 460,-49.5"/>
<text text-anchor="start" x="468" y="-67.5" font-family="FreeSans" font-size="10.00">DGtal::concepts::CDigital</text>
<text text-anchor="middle" x="537.5" y="-56.5" font-family="FreeSans" font-size="10.00">SurfaceLocalEstimator&lt; T &gt;</text>
</a>
</g>
</g>
<!-- Node31&#45;&gt;Node32 -->
<g id="edge32" class="edge">
<title>Node31&#45;&gt;Node32</title>
<path fill="none" stroke="midnightblue" d="M384,-64.5C408.47,-64.5 435.51,-64.5 459.94,-64.5"/>
<polygon fill="midnightblue" stroke="midnightblue" points="383.69,-61 373.69,-64.5 383.69,-68 383.69,-61"/>
</g>
</g>
</svg>
        <g id="navigator" transform="translate(0 0)" fill="#404254">
                <rect fill="#f2f5e9" fill-opacity="0.5" stroke="#606060" stroke-width=".5" x="0" y="0" width="60" height="60"/>
                <use id="zoomplus" xlink:href="#zoomPlus" x="17" y="9" onmousedown="handleZoom(evt,'in')"/>
                <use id="zoomminus" xlink:href="#zoomMin" x="42" y="9" onmousedown="handleZoom(evt,'out')"/>
                <use id="reset" xlink:href="#resetDef" x="30" y="36" onmousedown="handleReset()"/>
                <g id="arrowUp" xlink:href="#dirArrow" transform="translate(30 24)" onmousedown="handlePan(0,-1)">
                  <use xlink:href="#rim" fill="#404040">
                        <set attributeName="fill" to="#808080" begin="arrowUp.mouseover" end="arrowUp.mouseout"/>
                  </use>
                  <path fill="none" stroke="white" stroke-width="1.5" d="M0,-3.0v7 M-2.5,-0.5L0,-3.0L2.5,-0.5"/>
                </g>
                <g id="arrowRight" xlink:href="#dirArrow" transform="rotate(90) translate(36 -43)" onmousedown="handlePan(1,0)">
                  <use xlink:href="#rim" fill="#404040">
                        <set attributeName="fill" to="#808080" begin="arrowRight.mouseover" end="arrowRight.mouseout"/>
                  </use>
                  <path fill="none" stroke="white" stroke-width="1.5" d="M0,-3.0v7 M-2.5,-0.5L0,-3.0L2.5,-0.5"/>
                </g>
                <g id="arrowDown" xlink:href="#dirArrow" transform="rotate(180) translate(-30 -48)" onmousedown="handlePan(0,1)">
                  <use xlink:href="#rim" fill="#404040">
                        <set attributeName="fill" to="#808080" begin="arrowDown.mouseover" end="arrowDown.mouseout"/>
                  </use>
                  <path fill="none" stroke="white" stroke-width="1.5" d="M0,-3.0v7 M-2.5,-0.5L0,-3.0L2.5,-0.5"/>
                </g>
                <g id="arrowLeft" xlink:href="#dirArrow" transform="rotate(270) translate(-36 17)" onmousedown="handlePan(-1,0)">
                  <use xlink:href="#rim" fill="#404040">
                        <set attributeName="fill" to="#808080" begin="arrowLeft.mouseover" end="arrowLeft.mouseout"/>
                  </use>
                  <path fill="none" stroke="white" stroke-width="1.5" d="M0,-3.0v7 M-2.5,-0.5L0,-3.0L2.5,-0.5"/>
                </g>
        </g>
        <svg viewBox="0 0 15 15" width="100%" height="30px" preserveAspectRatio="xMaxYMin meet">
         <g id="arrow_out" transform="scale(0.3 0.3)">
          <a xlink:href="structboost_1_1CopyConstructible__inherit__graph_org.svg" target="_base">
           <rect id="button" ry="5" rx="5" y="6" x="6" height="38" width="38"
                fill="#f2f5e9" fill-opacity="0.5" stroke="#606060" stroke-width="1.0"/>
           <path id="arrow"
             d="M 11.500037,31.436501 C 11.940474,20.09759 22.043105,11.32322 32.158766,21.979434 L 37.068811,17.246167 C 37.068811,17.246167 37.088388,32 37.088388,32 L 22.160133,31.978069 C 22.160133,31.978069 26.997745,27.140456 26.997745,27.140456 C 18.528582,18.264221 13.291696,25.230495 11.500037,31.436501 z"
             style="fill:#404040;"/>
          </a>
         </g>
        </svg>
</svg>
