<?xml version="1.0" encoding="UTF-8" standalone="no"?>
<!DOCTYPE svg PUBLIC "-//W3C//DTD SVG 1.1//EN"
 "http://www.w3.org/Graphics/SVG/1.1/DTD/svg11.dtd">
<!-- Generated by graphviz version 2.43.0 (0)
 -->
<!-- Title: DGtal::concepts::CDiscreteExteriorCalculusVectorSpace&lt; T &gt; Pages: 1 -->
<svg width="193pt" height="162pt"
 viewBox="0.00 0.00 193.00 162.00" xmlns="http://www.w3.org/2000/svg" xmlns:xlink="http://www.w3.org/1999/xlink">
<g id="graph0" class="graph" transform="scale(1 1) rotate(0) translate(4 158)">
<title>DGtal::concepts::CDiscreteExteriorCalculusVectorSpace&lt; T &gt;</title>
<polygon fill="white" stroke="transparent" points="-4,4 -4,-158 189,-158 189,4 -4,4"/>
<!-- Node1 -->
<g id="node1" class="node">
<title>Node1</title>
<g id="a_node1"><a xlink:title="Aim: Lift linear algebra container concept into the dec package.">
<polygon fill="#bfbfbf" stroke="black" points="0,-0.5 0,-30.5 185,-30.5 185,-0.5 0,-0.5"/>
<text text-anchor="start" x="8" y="-18.5" font-family="FreeSans" font-size="10.00">DGtal::concepts::CDiscrete</text>
<text text-anchor="middle" x="92.5" y="-7.5" font-family="FreeSans" font-size="10.00">ExteriorCalculusVectorSpace&lt; T &gt;</text>
</a>
</g>
</g>
<!-- Node2 -->
<g id="node2" class="node">
<title>Node2</title>
<g id="a_node2"><a xlink:href="structDGtal_1_1concepts_1_1CVectorSpace.html" target="_top" xlink:title="Aim: Base concept for vector space structure.">
<polygon fill="white" stroke="black" points="24,-67.5 24,-97.5 161,-97.5 161,-67.5 24,-67.5"/>
<text text-anchor="start" x="32" y="-85.5" font-family="FreeSans" font-size="10.00">DGtal::concepts::CVector</text>
<text text-anchor="middle" x="92.5" y="-74.5" font-family="FreeSans" font-size="10.00">Space&lt; T &gt;</text>
</a>
</g>
</g>
<!-- Node2&#45;&gt;Node1 -->
<g id="edge1" class="edge">
<title>Node2&#45;&gt;Node1</title>
<path fill="none" stroke="midnightblue" d="M92.5,-57.11C92.5,-48.15 92.5,-38.32 92.5,-30.58"/>
<polygon fill="midnightblue" stroke="midnightblue" points="89,-57.4 92.5,-67.4 96,-57.4 89,-57.4"/>
</g>
<!-- Node3 -->
<g id="node3" class="node">
<title>Node3</title>
<g id="a_node3"><a xlink:href="structboost_1_1Assignable.html" target="_top" xlink:title="Go to http://www.sgi.com/tech/stl/Assignable.html.">
<polygon fill="white" stroke="black" points="27,-134.5 27,-153.5 158,-153.5 158,-134.5 27,-134.5"/>
<text text-anchor="middle" x="92.5" y="-141.5" font-family="FreeSans" font-size="10.00">boost::Assignable&lt; T &gt;</text>
</a>
</g>
</g>
<!-- Node3&#45;&gt;Node2 -->
<g id="edge2" class="edge">
<title>Node3&#45;&gt;Node2</title>
<path fill="none" stroke="midnightblue" d="M92.5,-124.23C92.5,-115.59 92.5,-105.5 92.5,-97.52"/>
<polygon fill="midnightblue" stroke="midnightblue" points="89,-124.48 92.5,-134.48 96,-124.48 89,-124.48"/>
</g>
</g>
</svg>
