<?xml version="1.0" encoding="UTF-8" standalone="no"?>
<!DOCTYPE svg PUBLIC "-//W3C//DTD SVG 1.1//EN"
 "http://www.w3.org/Graphics/SVG/1.1/DTD/svg11.dtd">
<!-- Generated by graphviz version 2.43.0 (0)
 -->
<!-- Title: DGtal::IsArithmeticConversionValid&lt; T, U, typename std::conditional&lt; false, ArithmeticConversionType&lt; T, U &gt;, void &gt;::type &gt; Pages: 1 -->
<svg width="232pt" height="117pt"
 viewBox="0.00 0.00 232.00 117.00" xmlns="http://www.w3.org/2000/svg" xmlns:xlink="http://www.w3.org/1999/xlink">
<g id="graph0" class="graph" transform="scale(1 1) rotate(0) translate(4 113)">
<title>DGtal::IsArithmeticConversionValid&lt; T, U, typename std::conditional&lt; false, ArithmeticConversionType&lt; T, U &gt;, void &gt;::type &gt;</title>
<polygon fill="white" stroke="transparent" points="-4,4 -4,-113 228,-113 228,4 -4,4"/>
<!-- Node1 -->
<g id="node1" class="node">
<title>Node1</title>
<g id="a_node1"><a xlink:title="Specialization when arithmetic operation between the two given type is valid.">
<polygon fill="#bfbfbf" stroke="black" points="0,-0.5 0,-52.5 224,-52.5 224,-0.5 0,-0.5"/>
<text text-anchor="start" x="8" y="-40.5" font-family="FreeSans" font-size="10.00">DGtal::IsArithmeticConversion</text>
<text text-anchor="start" x="8" y="-29.5" font-family="FreeSans" font-size="10.00">Valid&lt; T, U, typename std</text>
<text text-anchor="start" x="8" y="-18.5" font-family="FreeSans" font-size="10.00">::conditional&lt; false, ArithmeticConversion</text>
<text text-anchor="middle" x="112" y="-7.5" font-family="FreeSans" font-size="10.00">Type&lt; T, U &gt;, void &gt;::type &gt;</text>
</a>
</g>
</g>
<!-- Node2 -->
<g id="node2" class="node">
<title>Node2</title>
<g id="a_node2"><a xlink:title=" ">
<polygon fill="white" stroke="#bfbfbf" points="70,-89.5 70,-108.5 154,-108.5 154,-89.5 70,-89.5"/>
<text text-anchor="middle" x="112" y="-96.5" font-family="FreeSans" font-size="10.00">std::true_type</text>
</a>
</g>
</g>
<!-- Node2&#45;&gt;Node1 -->
<g id="edge1" class="edge">
<title>Node2&#45;&gt;Node1</title>
<path fill="none" stroke="midnightblue" d="M112,-79.1C112,-70.96 112,-61.33 112,-52.6"/>
<polygon fill="midnightblue" stroke="midnightblue" points="108.5,-79.36 112,-89.36 115.5,-79.36 108.5,-79.36"/>
</g>
</g>
</svg>
