<?xml version="1.0" encoding="UTF-8" standalone="no"?>
<!DOCTYPE svg PUBLIC "-//W3C//DTD SVG 1.1//EN"
 "http://www.w3.org/Graphics/SVG/1.1/DTD/svg11.dtd">
<!-- Generated by graphviz version 2.43.0 (0)
 -->
<!-- Title: testBasicBoolFunctors.cpp Pages: 1 -->
<!--zoomable 319 -->
<svg id="main" version="1.1" xmlns="http://www.w3.org/2000/svg" xmlns:xlink="http://www.w3.org/1999/xlink" xml:space="preserve" onload="init(evt)">
<style type="text/css"><![CDATA[
.edge:hover path { stroke: red; }
.edge:hover polygon { stroke: red; fill: red; }
]]></style>
<script type="text/javascript"><![CDATA[
var edges = document.getElementsByTagName('g');
if (edges && edges.length) {
  for (var i=0;i<edges.length;i++) {
    if (edges[i].id.substr(0,4)=='edge') {
      edges[i].setAttribute('class','edge');
    }
  }
}
]]></script>
        <defs>
                <circle id="rim" cx="0" cy="0" r="7"/>
                <circle id="rim2" cx="0" cy="0" r="3.5"/>
                <g id="zoomPlus">
                        <use xlink:href="#rim" fill="#404040">
                                <set attributeName="fill" to="#808080" begin="zoomplus.mouseover" end="zoomplus.mouseout"/>
                        </use>
                        <path d="M-4,0h8M0,-4v8" fill="none" stroke="white" stroke-width="1.5" pointer-events="none"/>
                </g>
                <g id="zoomMin">
                        <use xlink:href="#rim" fill="#404040">
                                <set attributeName="fill" to="#808080" begin="zoomminus.mouseover" end="zoomminus.mouseout"/>
                        </use>
                        <path d="M-4,0h8" fill="none" stroke="white" stroke-width="1.5" pointer-events="none"/>
                </g>
                <g id="dirArrow">
                        <path fill="none" stroke="white" stroke-width="1.5" d="M0,-3.0v7 M-2.5,-0.5L0,-3.0L2.5,-0.5"/>
                </g>
               <g id="resetDef">
                       <use xlink:href="#rim2" fill="#404040">
                               <set attributeName="fill" to="#808080" begin="reset.mouseover" end="reset.mouseout"/>
                       </use>
               </g>
        </defs>

<script type="text/javascript">
var viewWidth = 2795;
var viewHeight = 319;
var sectionId = 'dynsection-0';
</script>
<script xlink:href="svgpan.js"/>
<svg id="graph" class="graph">
<g id="viewport">
<title>testBasicBoolFunctors.cpp</title>
<polygon fill="white" stroke="transparent" points="-4,4 -4,-315 2790.5,-315 2790.5,4 -4,4"/>
<!-- Node1 -->
<g id="node1" class="node">
<title>Node1</title>
<g id="a_node1"><a xlink:title=" ">
<polygon fill="#bfbfbf" stroke="black" points="184.5,-291.5 184.5,-310.5 329.5,-310.5 329.5,-291.5 184.5,-291.5"/>
<text text-anchor="middle" x="257" y="-298.5" font-family="FreeSans" font-size="10.00">testBasicBoolFunctors.cpp</text>
</a>
</g>
</g>
<!-- Node2 -->
<g id="node2" class="node">
<title>Node2</title>
<g id="a_node2"><a xlink:title=" ">
<polygon fill="white" stroke="#bfbfbf" points="1520,-0.5 1520,-19.5 1580,-19.5 1580,-0.5 1520,-0.5"/>
<text text-anchor="middle" x="1550" y="-7.5" font-family="FreeSans" font-size="10.00">iostream</text>
</a>
</g>
</g>
<!-- Node1&#45;&gt;Node2 -->
<g id="edge1" class="edge">
<title>Node1&#45;&gt;Node2</title>
<path fill="none" stroke="midnightblue" d="M184.38,-297.35C108.39,-290.23 0,-265.82 0,-184.5 0,-184.5 0,-184.5 0,-121 0,-85.86 14.12,-72.77 45,-56 111.14,-20.08 1276.62,-12.37 1509.65,-11.18"/>
<polygon fill="midnightblue" stroke="midnightblue" points="1509.74,-14.68 1519.72,-11.13 1509.71,-7.68 1509.74,-14.68"/>
</g>
<!-- Node3 -->
<g id="node3" class="node">
<title>Node3</title>
<g id="a_node3"><a xlink:href="Common_8h_source.html" target="_top" xlink:title=" ">
<polygon fill="white" stroke="black" points="1166.5,-235.5 1166.5,-254.5 1293.5,-254.5 1293.5,-235.5 1166.5,-235.5"/>
<text text-anchor="middle" x="1230" y="-242.5" font-family="FreeSans" font-size="10.00">DGtal/base/Common.h</text>
</a>
</g>
</g>
<!-- Node1&#45;&gt;Node3 -->
<g id="edge2" class="edge">
<title>Node1&#45;&gt;Node3</title>
<path fill="none" stroke="midnightblue" d="M329.74,-295.96C509.78,-285.97 974.72,-260.17 1156.04,-250.1"/>
<polygon fill="midnightblue" stroke="midnightblue" points="1156.49,-253.59 1166.28,-249.54 1156.1,-246.6 1156.49,-253.59"/>
</g>
<!-- Node39 -->
<g id="node39" class="node">
<title>Node39</title>
<g id="a_node39"><a xlink:href="BasicBoolFunctors_8h_source.html" target="_top" xlink:title=" ">
<polygon fill="white" stroke="black" points="193,-112.5 193,-131.5 365,-131.5 365,-112.5 193,-112.5"/>
<text text-anchor="middle" x="279" y="-119.5" font-family="FreeSans" font-size="10.00">DGtal/base/BasicBoolFunctors.h</text>
</a>
</g>
</g>
<!-- Node1&#45;&gt;Node39 -->
<g id="edge73" class="edge">
<title>Node1&#45;&gt;Node39</title>
<path fill="none" stroke="midnightblue" d="M258.06,-291.46C261.42,-264.43 271.89,-180.24 276.62,-142.11"/>
<polygon fill="midnightblue" stroke="midnightblue" points="280.14,-142.22 277.9,-131.87 273.19,-141.36 280.14,-142.22"/>
</g>
<!-- Node3&#45;&gt;Node2 -->
<g id="edge3" class="edge">
<title>Node3&#45;&gt;Node2</title>
<path fill="none" stroke="midnightblue" d="M1293.67,-243.9C1438.71,-243.02 1783.87,-236.92 1819,-199 1828.36,-188.89 1828.08,-178.36 1819,-168 1738.63,-76.29 1627.37,-223.71 1547,-132 1522.05,-103.53 1533.7,-55.2 1542.8,-29.06"/>
<polygon fill="midnightblue" stroke="midnightblue" points="1546.1,-30.23 1546.31,-19.64 1539.54,-27.79 1546.1,-30.23"/>
</g>
<!-- Node4 -->
<g id="node4" class="node">
<title>Node4</title>
<g id="a_node4"><a xlink:title=" ">
<polygon fill="white" stroke="#bfbfbf" points="567.5,-174 567.5,-193 632.5,-193 632.5,-174 567.5,-174"/>
<text text-anchor="middle" x="600" y="-181" font-family="FreeSans" font-size="10.00">exception</text>
</a>
</g>
</g>
<!-- Node3&#45;&gt;Node4 -->
<g id="edge4" class="edge">
<title>Node3&#45;&gt;Node4</title>
<path fill="none" stroke="midnightblue" d="M1166.17,-244.43C1057.41,-243.98 829.72,-237.91 642,-199 638.49,-198.27 634.88,-197.33 631.31,-196.28"/>
<polygon fill="midnightblue" stroke="midnightblue" points="632.09,-192.86 621.5,-193.11 629.94,-199.52 632.09,-192.86"/>
</g>
<!-- Node5 -->
<g id="node5" class="node">
<title>Node5</title>
<g id="a_node5"><a xlink:title=" ">
<polygon fill="white" stroke="#bfbfbf" points="651,-174 651,-193 755,-193 755,-174 651,-174"/>
<text text-anchor="middle" x="703" y="-181" font-family="FreeSans" font-size="10.00">boost/version.hpp</text>
</a>
</g>
</g>
<!-- Node3&#45;&gt;Node5 -->
<g id="edge5" class="edge">
<title>Node3&#45;&gt;Node5</title>
<path fill="none" stroke="midnightblue" d="M1166.33,-240.62C1076.26,-235.22 906.72,-222.74 764,-199 757.8,-197.97 751.29,-196.66 744.93,-195.26"/>
<polygon fill="midnightblue" stroke="midnightblue" points="745.65,-191.84 735.12,-193.01 744.08,-198.66 745.65,-191.84"/>
</g>
<!-- Node6 -->
<g id="node6" class="node">
<title>Node6</title>
<g id="a_node6"><a xlink:title=" ">
<polygon fill="white" stroke="#bfbfbf" points="773,-174 773,-193 913,-193 913,-174 773,-174"/>
<text text-anchor="middle" x="843" y="-181" font-family="FreeSans" font-size="10.00">boost/concept_check.hpp</text>
</a>
</g>
</g>
<!-- Node3&#45;&gt;Node6 -->
<g id="edge6" class="edge">
<title>Node3&#45;&gt;Node6</title>
<path fill="none" stroke="midnightblue" d="M1167.07,-235.49C1104.75,-226.9 1006.65,-212.95 922,-199 914.26,-197.72 906.11,-196.31 898.1,-194.88"/>
<polygon fill="midnightblue" stroke="midnightblue" points="898.53,-191.4 888.07,-193.07 897.29,-198.29 898.53,-191.4"/>
</g>
<!-- Node7 -->
<g id="node7" class="node">
<title>Node7</title>
<g id="a_node7"><a xlink:title=" ">
<polygon fill="white" stroke="#bfbfbf" points="931,-174 931,-193 1061,-193 1061,-174 931,-174"/>
<text text-anchor="middle" x="996" y="-181" font-family="FreeSans" font-size="10.00">boost/static_assert.hpp</text>
</a>
</g>
</g>
<!-- Node3&#45;&gt;Node7 -->
<g id="edge7" class="edge">
<title>Node3&#45;&gt;Node7</title>
<path fill="none" stroke="midnightblue" d="M1196.47,-235.48C1155.12,-224.96 1084.73,-207.06 1039.32,-195.51"/>
<polygon fill="midnightblue" stroke="midnightblue" points="1040.02,-192.08 1029.46,-193.01 1038.29,-198.87 1040.02,-192.08"/>
</g>
<!-- Node8 -->
<g id="node8" class="node">
<title>Node8</title>
<g id="a_node8"><a xlink:title=" ">
<polygon fill="white" stroke="#bfbfbf" points="1079.5,-174 1079.5,-193 1218.5,-193 1218.5,-174 1079.5,-174"/>
<text text-anchor="middle" x="1149" y="-181" font-family="FreeSans" font-size="10.00">boost/concept/assert.hpp</text>
</a>
</g>
</g>
<!-- Node3&#45;&gt;Node8 -->
<g id="edge8" class="edge">
<title>Node3&#45;&gt;Node8</title>
<path fill="none" stroke="midnightblue" d="M1218.39,-235.48C1205.52,-226.02 1184.53,-210.6 1168.99,-199.19"/>
<polygon fill="midnightblue" stroke="midnightblue" points="1170.72,-196.11 1160.58,-193.01 1166.57,-201.75 1170.72,-196.11"/>
</g>
<!-- Node9 -->
<g id="node9" class="node">
<title>Node9</title>
<g id="a_node9"><a xlink:title=" ">
<polygon fill="white" stroke="#bfbfbf" points="1236.5,-174 1236.5,-193 1385.5,-193 1385.5,-174 1236.5,-174"/>
<text text-anchor="middle" x="1311" y="-181" font-family="FreeSans" font-size="10.00">boost/concept/requires.hpp</text>
</a>
</g>
</g>
<!-- Node3&#45;&gt;Node9 -->
<g id="edge9" class="edge">
<title>Node3&#45;&gt;Node9</title>
<path fill="none" stroke="midnightblue" d="M1241.61,-235.48C1254.48,-226.02 1275.47,-210.6 1291.01,-199.19"/>
<polygon fill="midnightblue" stroke="midnightblue" points="1293.43,-201.75 1299.42,-193.01 1289.28,-196.11 1293.43,-201.75"/>
</g>
<!-- Node10 -->
<g id="node10" class="node">
<title>Node10</title>
<g id="a_node10"><a xlink:title=" ">
<polygon fill="white" stroke="#bfbfbf" points="1404,-168.5 1404,-198.5 1526,-198.5 1526,-168.5 1404,-168.5"/>
<text text-anchor="start" x="1412" y="-186.5" font-family="FreeSans" font-size="10.00">boost/iterator/iterator</text>
<text text-anchor="middle" x="1465" y="-175.5" font-family="FreeSans" font-size="10.00">_concepts.hpp</text>
</a>
</g>
</g>
<!-- Node3&#45;&gt;Node10 -->
<g id="edge10" class="edge">
<title>Node3&#45;&gt;Node10</title>
<path fill="none" stroke="midnightblue" d="M1263.67,-235.48C1299.07,-226.51 1355.64,-212.19 1399.82,-201"/>
<polygon fill="midnightblue" stroke="midnightblue" points="1400.78,-204.37 1409.62,-198.52 1399.06,-197.58 1400.78,-204.37"/>
</g>
<!-- Node11 -->
<g id="node11" class="node">
<title>Node11</title>
<g id="a_node11"><a xlink:title=" ">
<polygon fill="white" stroke="#bfbfbf" points="1544,-174 1544,-193 1704,-193 1704,-174 1544,-174"/>
<text text-anchor="middle" x="1624" y="-181" font-family="FreeSans" font-size="10.00">boost/concept_archetype.hpp</text>
</a>
</g>
</g>
<!-- Node3&#45;&gt;Node11 -->
<g id="edge11" class="edge">
<title>Node3&#45;&gt;Node11</title>
<path fill="none" stroke="midnightblue" d="M1289.65,-235.47C1351.16,-226.61 1449.85,-212.22 1535,-199 1543.77,-197.64 1553.01,-196.17 1562.1,-194.71"/>
<polygon fill="midnightblue" stroke="midnightblue" points="1562.94,-198.12 1572.25,-193.07 1561.82,-191.21 1562.94,-198.12"/>
</g>
<!-- Node12 -->
<g id="node12" class="node">
<title>Node12</title>
<g id="a_node12"><a xlink:title=" ">
<polygon fill="white" stroke="#bfbfbf" points="623.5,-112.5 623.5,-131.5 670.5,-131.5 670.5,-112.5 623.5,-112.5"/>
<text text-anchor="middle" x="647" y="-119.5" font-family="FreeSans" font-size="10.00">cmath</text>
</a>
</g>
</g>
<!-- Node3&#45;&gt;Node12 -->
<g id="edge12" class="edge">
<title>Node3&#45;&gt;Node12</title>
<path fill="none" stroke="midnightblue" d="M1166.31,-244.63C1004.91,-245.56 589.71,-243.56 548,-199 538.58,-188.94 540.54,-179.58 548,-168 555.62,-156.16 587.99,-142.84 613.66,-133.78"/>
<polygon fill="midnightblue" stroke="midnightblue" points="615.14,-136.97 623.46,-130.41 612.87,-130.35 615.14,-136.97"/>
</g>
<!-- Node13 -->
<g id="node13" class="node">
<title>Node13</title>
<g id="a_node13"><a xlink:title=" ">
<polygon fill="white" stroke="#bfbfbf" points="1760,-174 1760,-193 1810,-193 1810,-174 1760,-174"/>
<text text-anchor="middle" x="1785" y="-181" font-family="FreeSans" font-size="10.00">stdio.h</text>
</a>
</g>
</g>
<!-- Node3&#45;&gt;Node13 -->
<g id="edge13" class="edge">
<title>Node3&#45;&gt;Node13</title>
<path fill="none" stroke="midnightblue" d="M1293.59,-243.92C1391.83,-242.57 1585.9,-235.05 1746,-199 1749.07,-198.31 1752.23,-197.43 1755.35,-196.45"/>
<polygon fill="midnightblue" stroke="midnightblue" points="1756.77,-199.67 1765.07,-193.08 1754.48,-193.05 1756.77,-199.67"/>
</g>
<!-- Node14 -->
<g id="node14" class="node">
<title>Node14</title>
<g id="a_node14"><a xlink:href="Config_8h_source.html" target="_top" xlink:title=" ">
<polygon fill="white" stroke="black" points="1904.5,-56.5 1904.5,-75.5 2017.5,-75.5 2017.5,-56.5 1904.5,-56.5"/>
<text text-anchor="middle" x="1961" y="-63.5" font-family="FreeSans" font-size="10.00">DGtal/base/Config.h</text>
</a>
</g>
</g>
<!-- Node3&#45;&gt;Node14 -->
<g id="edge14" class="edge">
<title>Node3&#45;&gt;Node14</title>
<path fill="none" stroke="midnightblue" d="M1293.67,-242.62C1445.49,-238.88 1819.82,-226.91 1869,-199 1914.22,-173.34 1942.32,-115.21 1954.29,-85.39"/>
<polygon fill="midnightblue" stroke="midnightblue" points="1957.65,-86.39 1957.97,-75.8 1951.12,-83.88 1957.65,-86.39"/>
</g>
<!-- Node16 -->
<g id="node16" class="node">
<title>Node16</title>
<g id="a_node16"><a xlink:href="Trace_8h_source.html" target="_top" xlink:title=" ">
<polygon fill="white" stroke="black" points="2315,-174 2315,-193 2423,-193 2423,-174 2315,-174"/>
<text text-anchor="middle" x="2369" y="-181" font-family="FreeSans" font-size="10.00">DGtal/base/Trace.h</text>
</a>
</g>
</g>
<!-- Node3&#45;&gt;Node16 -->
<g id="edge17" class="edge">
<title>Node3&#45;&gt;Node16</title>
<path fill="none" stroke="midnightblue" d="M1293.73,-241.33C1443.97,-234.94 1832.03,-217.9 2156,-199 2205.91,-196.09 2262.35,-192.22 2304.59,-189.21"/>
<polygon fill="midnightblue" stroke="midnightblue" points="2305.01,-192.69 2314.74,-188.49 2304.52,-185.71 2305.01,-192.69"/>
</g>
<!-- Node23 -->
<g id="node23" class="node">
<title>Node23</title>
<g id="a_node23"><a xlink:href="TraceWriterTerm_8h_source.html" target="_top" xlink:title=" ">
<polygon fill="white" stroke="black" points="1980,-112.5 1980,-131.5 2142,-131.5 2142,-112.5 1980,-112.5"/>
<text text-anchor="middle" x="2061" y="-119.5" font-family="FreeSans" font-size="10.00">DGtal/base/TraceWriterTerm.h</text>
</a>
</g>
</g>
<!-- Node3&#45;&gt;Node23 -->
<g id="edge40" class="edge">
<title>Node3&#45;&gt;Node23</title>
<path fill="none" stroke="midnightblue" d="M1293.56,-243.56C1442.49,-241.93 1810.32,-234.34 1928,-199 1972.01,-185.78 2017.2,-155.79 2041.93,-137.68"/>
<polygon fill="midnightblue" stroke="midnightblue" points="2044.15,-140.39 2050.07,-131.6 2039.96,-134.78 2044.15,-140.39"/>
</g>
<!-- Node24 -->
<g id="node24" class="node">
<title>Node24</title>
<g id="a_node24"><a xlink:href="Assert_8h_source.html" target="_top" xlink:title=" ">
<polygon fill="white" stroke="black" points="2639.5,-112.5 2639.5,-131.5 2752.5,-131.5 2752.5,-112.5 2639.5,-112.5"/>
<text text-anchor="middle" x="2696" y="-119.5" font-family="FreeSans" font-size="10.00">DGtal/base/Assert.h</text>
</a>
</g>
</g>
<!-- Node3&#45;&gt;Node24 -->
<g id="edge45" class="edge">
<title>Node3&#45;&gt;Node24</title>
<path fill="none" stroke="midnightblue" d="M1293.68,-243.65C1509.13,-242.16 2209.69,-234.62 2432,-199 2517.69,-185.27 2614.95,-152.66 2664.03,-134.95"/>
<polygon fill="midnightblue" stroke="midnightblue" points="2665.27,-138.22 2673.47,-131.51 2662.88,-131.64 2665.27,-138.22"/>
</g>
<!-- Node27 -->
<g id="node27" class="node">
<title>Node27</title>
<g id="a_node27"><a xlink:href="TraceWriterFile_8h_source.html" target="_top" xlink:title=" ">
<polygon fill="white" stroke="black" points="2160.5,-112.5 2160.5,-131.5 2315.5,-131.5 2315.5,-112.5 2160.5,-112.5"/>
<text text-anchor="middle" x="2238" y="-119.5" font-family="FreeSans" font-size="10.00">DGtal/base/TraceWriterFile.h</text>
</a>
</g>
</g>
<!-- Node3&#45;&gt;Node27 -->
<g id="edge41" class="edge">
<title>Node3&#45;&gt;Node27</title>
<path fill="none" stroke="midnightblue" d="M1293.74,-244.84C1423.03,-245.51 1725,-241.83 1974,-199 2059.09,-184.36 2155.85,-152.42 2205.23,-134.97"/>
<polygon fill="midnightblue" stroke="midnightblue" points="2206.5,-138.23 2214.74,-131.58 2204.15,-131.64 2206.5,-138.23"/>
</g>
<!-- Node28 -->
<g id="node28" class="node">
<title>Node28</title>
<g id="a_node28"><a xlink:href="ConceptUtils_8h_source.html" target="_top" xlink:title=" ">
<polygon fill="white" stroke="black" points="839.5,-112.5 839.5,-131.5 984.5,-131.5 984.5,-112.5 839.5,-112.5"/>
<text text-anchor="middle" x="912" y="-119.5" font-family="FreeSans" font-size="10.00">DGtal/base/ConceptUtils.h</text>
</a>
</g>
</g>
<!-- Node3&#45;&gt;Node28 -->
<g id="edge46" class="edge">
<title>Node3&#45;&gt;Node28</title>
<path fill="none" stroke="midnightblue" d="M1166.46,-244.55C1007.05,-245.28 599.95,-242.78 559,-199 549.59,-188.94 549.89,-178.34 559,-168 576.57,-148.04 730.15,-134.58 828.87,-127.9"/>
<polygon fill="midnightblue" stroke="midnightblue" points="829.39,-131.37 839.13,-127.21 828.92,-124.39 829.39,-131.37"/>
</g>
<!-- Node29 -->
<g id="node29" class="node">
<title>Node29</title>
<g id="a_node29"><a xlink:href="BasicTypes_8h_source.html" target="_top" xlink:title=" ">
<polygon fill="white" stroke="black" points="1362.5,-112.5 1362.5,-131.5 1499.5,-131.5 1499.5,-112.5 1362.5,-112.5"/>
<text text-anchor="middle" x="1431" y="-119.5" font-family="FreeSans" font-size="10.00">DGtal/base/BasicTypes.h</text>
</a>
</g>
</g>
<!-- Node3&#45;&gt;Node29 -->
<g id="edge48" class="edge">
<title>Node3&#45;&gt;Node29</title>
<path fill="none" stroke="midnightblue" d="M1293.53,-242.75C1418.21,-239.62 1685.28,-229.43 1713,-199 1722.28,-188.82 1721.94,-178.48 1713,-168 1706.32,-160.17 1589.53,-143.55 1508.37,-132.85"/>
<polygon fill="midnightblue" stroke="midnightblue" points="1508.53,-129.34 1498.16,-131.51 1507.62,-136.28 1508.53,-129.34"/>
</g>
<!-- Node32 -->
<g id="node32" class="node">
<title>Node32</title>
<g id="a_node32"><a xlink:href="BasicFunctors_8h_source.html" target="_top" xlink:title=" ">
<polygon fill="white" stroke="black" points="323,-174 323,-193 473,-193 473,-174 323,-174"/>
<text text-anchor="middle" x="398" y="-181" font-family="FreeSans" font-size="10.00">DGtal/base/BasicFunctors.h</text>
</a>
</g>
</g>
<!-- Node3&#45;&gt;Node32 -->
<g id="edge53" class="edge">
<title>Node3&#45;&gt;Node32</title>
<path fill="none" stroke="midnightblue" d="M1166.21,-242.45C1036.15,-238.7 731.66,-227.27 478,-199 467.73,-197.86 456.84,-196.34 446.49,-194.71"/>
<polygon fill="midnightblue" stroke="midnightblue" points="446.79,-191.22 436.36,-193.07 445.66,-198.13 446.79,-191.22"/>
</g>
<!-- Node42 -->
<g id="node42" class="node">
<title>Node42</title>
<g id="a_node42"><a xlink:href="BasicArchetypes_8h_source.html" target="_top" xlink:title=" ">
<polygon fill="white" stroke="black" points="1556,-112.5 1556,-131.5 1720,-131.5 1720,-112.5 1556,-112.5"/>
<text text-anchor="middle" x="1638" y="-119.5" font-family="FreeSans" font-size="10.00">DGtal/base/BasicArchetypes.h</text>
</a>
</g>
</g>
<!-- Node3&#45;&gt;Node42 -->
<g id="edge69" class="edge">
<title>Node3&#45;&gt;Node42</title>
<path fill="none" stroke="midnightblue" d="M1293.57,-244.19C1444.48,-243.97 1814.53,-239.28 1852,-199 1861.38,-188.91 1860.68,-178.7 1852,-168 1842.71,-156.56 1765.97,-142.44 1707.01,-133.1"/>
<polygon fill="midnightblue" stroke="midnightblue" points="1707.4,-129.62 1696.98,-131.53 1706.31,-136.54 1707.4,-129.62"/>
</g>
<!-- Node43 -->
<g id="node43" class="node">
<title>Node43</title>
<g id="a_node43"><a xlink:href="Exceptions_8h_source.html" target="_top" xlink:title=" ">
<polygon fill="white" stroke="black" points="71,-174 71,-193 207,-193 207,-174 71,-174"/>
<text text-anchor="middle" x="139" y="-181" font-family="FreeSans" font-size="10.00">DGtal/base/Exceptions.h</text>
</a>
</g>
</g>
<!-- Node3&#45;&gt;Node43 -->
<g id="edge71" class="edge">
<title>Node3&#45;&gt;Node43</title>
<path fill="none" stroke="midnightblue" d="M1166.34,-242.18C1013.52,-237.54 613.87,-223.87 281,-199 260.29,-197.45 237.93,-195.37 217.21,-193.26"/>
<polygon fill="midnightblue" stroke="midnightblue" points="217.49,-189.77 207.19,-192.22 216.78,-196.73 217.49,-189.77"/>
</g>
<!-- Node14&#45;&gt;Node2 -->
<g id="edge15" class="edge">
<title>Node14&#45;&gt;Node2</title>
<path fill="none" stroke="midnightblue" d="M1904.28,-57.55C1820.01,-46.48 1663.8,-25.95 1590.26,-16.29"/>
<polygon fill="midnightblue" stroke="midnightblue" points="1590.4,-12.78 1580.03,-14.95 1589.49,-19.72 1590.4,-12.78"/>
</g>
<!-- Node15 -->
<g id="node15" class="node">
<title>Node15</title>
<g id="a_node15"><a xlink:title=" ">
<polygon fill="white" stroke="#bfbfbf" points="2207,-0.5 2207,-19.5 2251,-19.5 2251,-0.5 2207,-0.5"/>
<text text-anchor="middle" x="2229" y="-7.5" font-family="FreeSans" font-size="10.00">string</text>
</a>
</g>
</g>
<!-- Node14&#45;&gt;Node15 -->
<g id="edge16" class="edge">
<title>Node14&#45;&gt;Node15</title>
<path fill="none" stroke="midnightblue" d="M2003.47,-56.44C2057.23,-45.61 2148.65,-27.19 2196.93,-17.46"/>
<polygon fill="midnightblue" stroke="midnightblue" points="2197.72,-20.87 2206.83,-15.47 2196.34,-14.01 2197.72,-20.87"/>
</g>
<!-- Node16&#45;&gt;Node2 -->
<g id="edge18" class="edge">
<title>Node16&#45;&gt;Node2</title>
<path fill="none" stroke="midnightblue" d="M2314.99,-179.44C2218.32,-173.37 2019.85,-158.11 1956,-132 1904.66,-111 1908.09,-77.61 1857,-56 1767.14,-17.99 1650.76,-11.24 1590.36,-10.54"/>
<polygon fill="midnightblue" stroke="midnightblue" points="1590.13,-7.04 1580.11,-10.48 1590.09,-14.04 1590.13,-7.04"/>
</g>
<!-- Node16&#45;&gt;Node14 -->
<g id="edge22" class="edge">
<title>Node16&#45;&gt;Node14</title>
<path fill="none" stroke="midnightblue" d="M2314.65,-183.36C2217.27,-183.69 2018.71,-178.47 1971,-132 1958.88,-120.19 1957.44,-100.27 1958.38,-85.58"/>
<polygon fill="midnightblue" stroke="midnightblue" points="1961.86,-85.91 1959.42,-75.6 1954.9,-85.18 1961.86,-85.91"/>
</g>
<!-- Node16&#45;&gt;Node15 -->
<g id="edge20" class="edge">
<title>Node16&#45;&gt;Node15</title>
<path fill="none" stroke="midnightblue" d="M2402.4,-173.93C2455.06,-160.34 2551.65,-135.08 2554,-132 2559.39,-124.94 2559.07,-119.3 2554,-112 2519.96,-62.96 2337.18,-28.41 2261.67,-16.03"/>
<polygon fill="midnightblue" stroke="midnightblue" points="2261.77,-12.5 2251.34,-14.37 2260.65,-19.41 2261.77,-12.5"/>
</g>
<!-- Node17 -->
<g id="node17" class="node">
<title>Node17</title>
<g id="a_node17"><a xlink:title=" ">
<polygon fill="white" stroke="#bfbfbf" points="2439.5,-0.5 2439.5,-19.5 2496.5,-19.5 2496.5,-0.5 2439.5,-0.5"/>
<text text-anchor="middle" x="2468" y="-7.5" font-family="FreeSans" font-size="10.00">ostream</text>
</a>
</g>
</g>
<!-- Node16&#45;&gt;Node17 -->
<g id="edge19" class="edge">
<title>Node16&#45;&gt;Node17</title>
<path fill="none" stroke="midnightblue" d="M2403.29,-173.96C2411.39,-171.97 2419.99,-169.89 2428,-168 2498.52,-151.35 2541.78,-188.61 2587,-132 2621.17,-89.23 2543.07,-44.81 2497.66,-23.66"/>
<polygon fill="midnightblue" stroke="midnightblue" points="2499.07,-20.46 2488.51,-19.51 2496.17,-26.83 2499.07,-20.46"/>
</g>
<!-- Node18 -->
<g id="node18" class="node">
<title>Node18</title>
<g id="a_node18"><a xlink:title=" ">
<polygon fill="white" stroke="#bfbfbf" points="2372.5,-112.5 2372.5,-131.5 2415.5,-131.5 2415.5,-112.5 2372.5,-112.5"/>
<text text-anchor="middle" x="2394" y="-119.5" font-family="FreeSans" font-size="10.00">stack</text>
</a>
</g>
</g>
<!-- Node16&#45;&gt;Node18 -->
<g id="edge21" class="edge">
<title>Node16&#45;&gt;Node18</title>
<path fill="none" stroke="midnightblue" d="M2372.58,-173.98C2376.18,-165.4 2381.85,-151.93 2386.44,-140.98"/>
<polygon fill="midnightblue" stroke="midnightblue" points="2389.78,-142.08 2390.42,-131.51 2383.32,-139.37 2389.78,-142.08"/>
</g>
<!-- Node19 -->
<g id="node19" class="node">
<title>Node19</title>
<g id="a_node19"><a xlink:href="Clock_8h_source.html" target="_top" xlink:title=" ">
<polygon fill="white" stroke="black" points="1738,-112.5 1738,-131.5 1848,-131.5 1848,-112.5 1738,-112.5"/>
<text text-anchor="middle" x="1793" y="-119.5" font-family="FreeSans" font-size="10.00">DGtal/base/Clock.h</text>
</a>
</g>
</g>
<!-- Node16&#45;&gt;Node19 -->
<g id="edge23" class="edge">
<title>Node16&#45;&gt;Node19</title>
<path fill="none" stroke="midnightblue" d="M2314.92,-177.66C2222.15,-169.23 2026.77,-150.95 1862,-132 1860.89,-131.87 1859.77,-131.74 1858.64,-131.61"/>
<polygon fill="midnightblue" stroke="midnightblue" points="1858.69,-128.09 1848.34,-130.37 1857.85,-135.04 1858.69,-128.09"/>
</g>
<!-- Node22 -->
<g id="node22" class="node">
<title>Node22</title>
<g id="a_node22"><a xlink:href="TraceWriter_8h_source.html" target="_top" xlink:title=" ">
<polygon fill="white" stroke="black" points="2257.5,-56.5 2257.5,-75.5 2394.5,-75.5 2394.5,-56.5 2257.5,-56.5"/>
<text text-anchor="middle" x="2326" y="-63.5" font-family="FreeSans" font-size="10.00">DGtal/base/TraceWriter.h</text>
</a>
</g>
</g>
<!-- Node16&#45;&gt;Node22 -->
<g id="edge27" class="edge">
<title>Node16&#45;&gt;Node22</title>
<path fill="none" stroke="midnightblue" d="M2365.77,-173.82C2358.8,-155.09 2342.21,-110.55 2332.81,-85.29"/>
<polygon fill="midnightblue" stroke="midnightblue" points="2336.04,-83.93 2329.27,-75.78 2329.48,-86.37 2336.04,-83.93"/>
</g>
<!-- Node16&#45;&gt;Node23 -->
<g id="edge30" class="edge">
<title>Node16&#45;&gt;Node23</title>
<path fill="none" stroke="midnightblue" d="M2324.87,-173.98C2269.52,-163.28 2174.66,-144.96 2115.03,-133.44"/>
<polygon fill="midnightblue" stroke="midnightblue" points="2115.53,-129.97 2105.05,-131.51 2114.2,-136.84 2115.53,-129.97"/>
</g>
<!-- Node16&#45;&gt;Node24 -->
<g id="edge35" class="edge">
<title>Node16&#45;&gt;Node24</title>
<path fill="none" stroke="midnightblue" d="M2410.95,-173.98C2467.61,-163.24 2568.8,-144.81 2634.17,-133.29"/>
<polygon fill="midnightblue" stroke="midnightblue" points="2635.09,-136.69 2644.34,-131.51 2633.88,-129.79 2635.09,-136.69"/>
</g>
<!-- Node26 -->
<g id="node26" class="node">
<title>Node26</title>
<g id="a_node26"><a xlink:href="Trace_8ih_source.html" target="_top" xlink:title=" ">
<polygon fill="white" stroke="black" points="2433.5,-112.5 2433.5,-131.5 2544.5,-131.5 2544.5,-112.5 2433.5,-112.5"/>
<text text-anchor="middle" x="2489" y="-119.5" font-family="FreeSans" font-size="10.00">DGtal/base/Trace.ih</text>
</a>
</g>
</g>
<!-- Node16&#45;&gt;Node26 -->
<g id="edge39" class="edge">
<title>Node16&#45;&gt;Node26</title>
<path fill="none" stroke="midnightblue" d="M2386.19,-173.98C2406.24,-164.03 2439.6,-147.49 2462.86,-135.96"/>
<polygon fill="midnightblue" stroke="midnightblue" points="2464.43,-139.09 2471.84,-131.51 2461.32,-132.82 2464.43,-139.09"/>
</g>
<!-- Node19&#45;&gt;Node2 -->
<g id="edge24" class="edge">
<title>Node19&#45;&gt;Node2</title>
<path fill="none" stroke="midnightblue" d="M1779.2,-112.46C1757.54,-99.27 1714,-73.63 1675,-56 1646.24,-43 1612.51,-31.04 1587.34,-22.72"/>
<polygon fill="midnightblue" stroke="midnightblue" points="1588.4,-19.39 1577.81,-19.61 1586.23,-26.04 1588.4,-19.39"/>
</g>
<!-- Node20 -->
<g id="node20" class="node">
<title>Node20</title>
<g id="a_node20"><a xlink:title=" ">
<polygon fill="white" stroke="#bfbfbf" points="1616.5,-56.5 1616.5,-75.5 1665.5,-75.5 1665.5,-56.5 1616.5,-56.5"/>
<text text-anchor="middle" x="1641" y="-63.5" font-family="FreeSans" font-size="10.00">cstdlib</text>
</a>
</g>
</g>
<!-- Node19&#45;&gt;Node20 -->
<g id="edge25" class="edge">
<title>Node19&#45;&gt;Node20</title>
<path fill="none" stroke="midnightblue" d="M1768.92,-112.44C1743.46,-103.4 1703.11,-89.06 1674.54,-78.92"/>
<polygon fill="midnightblue" stroke="midnightblue" points="1675.57,-75.57 1664.97,-75.52 1673.22,-82.16 1675.57,-75.57"/>
</g>
<!-- Node21 -->
<g id="node21" class="node">
<title>Node21</title>
<g id="a_node21"><a xlink:href="Clock_8ih_source.html" target="_top" xlink:title=" ">
<polygon fill="white" stroke="black" points="1734.5,-56.5 1734.5,-75.5 1847.5,-75.5 1847.5,-56.5 1734.5,-56.5"/>
<text text-anchor="middle" x="1791" y="-63.5" font-family="FreeSans" font-size="10.00">DGtal/base/Clock.ih</text>
</a>
</g>
</g>
<!-- Node19&#45;&gt;Node21 -->
<g id="edge26" class="edge">
<title>Node19&#45;&gt;Node21</title>
<path fill="none" stroke="midnightblue" d="M1792.67,-112.08C1792.41,-105.01 1792.03,-94.86 1791.7,-85.99"/>
<polygon fill="midnightblue" stroke="midnightblue" points="1795.19,-85.61 1791.32,-75.75 1788.2,-85.87 1795.19,-85.61"/>
</g>
<!-- Node22&#45;&gt;Node2 -->
<g id="edge28" class="edge">
<title>Node22&#45;&gt;Node2</title>
<path fill="none" stroke="midnightblue" d="M2257.48,-60.23C2100.02,-49.27 1716.31,-22.57 1590.61,-13.83"/>
<polygon fill="midnightblue" stroke="midnightblue" points="1590.5,-10.31 1580.29,-13.11 1590.02,-17.29 1590.5,-10.31"/>
</g>
<!-- Node22&#45;&gt;Node17 -->
<g id="edge29" class="edge">
<title>Node22&#45;&gt;Node17</title>
<path fill="none" stroke="midnightblue" d="M2348.5,-56.44C2372.08,-47.48 2409.32,-33.31 2435.96,-23.18"/>
<polygon fill="midnightblue" stroke="midnightblue" points="2437.5,-26.34 2445.6,-19.52 2435.01,-19.8 2437.5,-26.34"/>
</g>
<!-- Node23&#45;&gt;Node2 -->
<g id="edge31" class="edge">
<title>Node23&#45;&gt;Node2</title>
<path fill="none" stroke="midnightblue" d="M2059.17,-112.04C2055.7,-97.54 2046.66,-69.21 2027,-56 1991.12,-31.9 1699.12,-17.27 1590.5,-12.62"/>
<polygon fill="midnightblue" stroke="midnightblue" points="1590.41,-9.11 1580.28,-12.19 1590.12,-16.11 1590.41,-9.11"/>
</g>
<!-- Node23&#45;&gt;Node14 -->
<g id="edge34" class="edge">
<title>Node23&#45;&gt;Node14</title>
<path fill="none" stroke="midnightblue" d="M2044.93,-112.32C2029.04,-103.74 2004.49,-90.49 1986.04,-80.52"/>
<polygon fill="midnightblue" stroke="midnightblue" points="1987.49,-77.33 1977.03,-75.65 1984.16,-83.49 1987.49,-77.33"/>
</g>
<!-- Node23&#45;&gt;Node15 -->
<g id="edge32" class="edge">
<title>Node23&#45;&gt;Node15</title>
<path fill="none" stroke="midnightblue" d="M2074.18,-112.37C2103.01,-93.49 2171.9,-48.38 2207.26,-25.24"/>
<polygon fill="midnightblue" stroke="midnightblue" points="2209.43,-28 2215.88,-19.59 2205.6,-22.14 2209.43,-28"/>
</g>
<!-- Node23&#45;&gt;Node22 -->
<g id="edge33" class="edge">
<title>Node23&#45;&gt;Node22</title>
<path fill="none" stroke="midnightblue" d="M2102.99,-112.44C2149.41,-102.98 2224.23,-87.74 2274.24,-77.55"/>
<polygon fill="midnightblue" stroke="midnightblue" points="2275.11,-80.94 2284.21,-75.52 2273.71,-74.08 2275.11,-80.94"/>
</g>
<!-- Node24&#45;&gt;Node15 -->
<g id="edge38" class="edge">
<title>Node24&#45;&gt;Node15</title>
<path fill="none" stroke="midnightblue" d="M2680.23,-112.27C2653.89,-98.1 2598.91,-70.24 2549,-56 2446.41,-26.72 2319.66,-16.11 2261.25,-12.59"/>
<polygon fill="midnightblue" stroke="midnightblue" points="2261.35,-9.09 2251.16,-12.01 2260.95,-16.08 2261.35,-9.09"/>
</g>
<!-- Node24&#45;&gt;Node16 -->
<g id="edge36" class="edge">
<title>Node24&#45;&gt;Node16</title>
<path fill="none" stroke="midnightblue" d="M2654.13,-131.51C2597.51,-142.24 2496.33,-160.67 2430.93,-172.19"/>
<polygon fill="midnightblue" stroke="midnightblue" points="2430,-168.8 2420.75,-173.98 2431.21,-175.69 2430,-168.8"/>
</g>
<!-- Node25 -->
<g id="node25" class="node">
<title>Node25</title>
<g id="a_node25"><a xlink:title=" ">
<polygon fill="white" stroke="#bfbfbf" points="2639.5,-56.5 2639.5,-75.5 2786.5,-75.5 2786.5,-56.5 2639.5,-56.5"/>
<text text-anchor="middle" x="2713" y="-63.5" font-family="FreeSans" font-size="10.00">boost/current_function.hpp</text>
</a>
</g>
</g>
<!-- Node24&#45;&gt;Node25 -->
<g id="edge37" class="edge">
<title>Node24&#45;&gt;Node25</title>
<path fill="none" stroke="midnightblue" d="M2698.81,-112.08C2701.08,-104.85 2704.37,-94.41 2707.21,-85.4"/>
<polygon fill="midnightblue" stroke="midnightblue" points="2710.58,-86.34 2710.25,-75.75 2703.9,-84.24 2710.58,-86.34"/>
</g>
<!-- Node27&#45;&gt;Node2 -->
<g id="edge42" class="edge">
<title>Node27&#45;&gt;Node2</title>
<path fill="none" stroke="midnightblue" d="M2218.31,-112.45C2184.44,-98.15 2112.62,-69.6 2049,-56 1881.2,-20.13 1675.7,-12.82 1590.24,-11.35"/>
<polygon fill="midnightblue" stroke="midnightblue" points="1590.24,-7.85 1580.19,-11.2 1590.13,-14.85 1590.24,-7.85"/>
</g>
<!-- Node27&#45;&gt;Node15 -->
<g id="edge43" class="edge">
<title>Node27&#45;&gt;Node15</title>
<path fill="none" stroke="midnightblue" d="M2237.29,-112.37C2235.84,-94.62 2232.49,-53.67 2230.52,-29.6"/>
<polygon fill="midnightblue" stroke="midnightblue" points="2234.01,-29.27 2229.7,-19.59 2227.03,-29.84 2234.01,-29.27"/>
</g>
<!-- Node27&#45;&gt;Node22 -->
<g id="edge44" class="edge">
<title>Node27&#45;&gt;Node22</title>
<path fill="none" stroke="midnightblue" d="M2252.14,-112.32C2265.87,-103.9 2286.94,-90.97 2303.06,-81.07"/>
<polygon fill="midnightblue" stroke="midnightblue" points="2305.2,-83.87 2311.9,-75.65 2301.54,-77.9 2305.2,-83.87"/>
</g>
<!-- Node28&#45;&gt;Node2 -->
<g id="edge47" class="edge">
<title>Node28&#45;&gt;Node2</title>
<path fill="none" stroke="midnightblue" d="M958.38,-112.47C1027.36,-99.83 1161.1,-75.52 1275,-56 1358.37,-41.72 1456.14,-25.95 1509.75,-17.39"/>
<polygon fill="midnightblue" stroke="midnightblue" points="1510.54,-20.81 1519.86,-15.78 1509.44,-13.9 1510.54,-20.81"/>
</g>
<!-- Node29&#45;&gt;Node2 -->
<g id="edge50" class="edge">
<title>Node29&#45;&gt;Node2</title>
<path fill="none" stroke="midnightblue" d="M1440.34,-112.37C1460.41,-93.81 1507.9,-49.91 1533.3,-26.44"/>
<polygon fill="midnightblue" stroke="midnightblue" points="1535.74,-28.95 1540.71,-19.59 1530.99,-23.81 1535.74,-28.95"/>
</g>
<!-- Node29&#45;&gt;Node20 -->
<g id="edge49" class="edge">
<title>Node29&#45;&gt;Node20</title>
<path fill="none" stroke="midnightblue" d="M1464.28,-112.44C1503.13,-102.45 1567.09,-86.01 1606.48,-75.88"/>
<polygon fill="midnightblue" stroke="midnightblue" points="1607.6,-79.2 1616.41,-73.32 1605.85,-72.42 1607.6,-79.2"/>
</g>
<!-- Node30 -->
<g id="node30" class="node">
<title>Node30</title>
<g id="a_node30"><a xlink:title=" ">
<polygon fill="white" stroke="#bfbfbf" points="1360.5,-56.5 1360.5,-75.5 1461.5,-75.5 1461.5,-56.5 1360.5,-56.5"/>
<text text-anchor="middle" x="1411" y="-63.5" font-family="FreeSans" font-size="10.00">boost/cstdint.hpp</text>
</a>
</g>
</g>
<!-- Node29&#45;&gt;Node30 -->
<g id="edge51" class="edge">
<title>Node29&#45;&gt;Node30</title>
<path fill="none" stroke="midnightblue" d="M1427.7,-112.08C1425.02,-104.85 1421.15,-94.41 1417.81,-85.4"/>
<polygon fill="midnightblue" stroke="midnightblue" points="1421,-83.91 1414.24,-75.75 1414.43,-86.34 1421,-83.91"/>
</g>
<!-- Node31 -->
<g id="node31" class="node">
<title>Node31</title>
<g id="a_node31"><a xlink:title=" ">
<polygon fill="white" stroke="#bfbfbf" points="1283.5,-56.5 1283.5,-75.5 1342.5,-75.5 1342.5,-56.5 1283.5,-56.5"/>
<text text-anchor="middle" x="1313" y="-63.5" font-family="FreeSans" font-size="10.00">gmpxx.h</text>
</a>
</g>
</g>
<!-- Node29&#45;&gt;Node31 -->
<g id="edge52" class="edge">
<title>Node29&#45;&gt;Node31</title>
<path fill="none" stroke="midnightblue" d="M1412.3,-112.44C1393.06,-103.64 1362.85,-89.81 1340.8,-79.72"/>
<polygon fill="midnightblue" stroke="midnightblue" points="1342.16,-76.5 1331.61,-75.52 1339.25,-82.86 1342.16,-76.5"/>
</g>
<!-- Node32&#45;&gt;Node3 -->
<g id="edge64" class="edge">
<title>Node32&#45;&gt;Node3</title>
<path fill="none" stroke="midnightblue" d="M453.63,-193.07C467.51,-195.28 482.31,-197.47 496,-199 736.96,-225.86 1023.79,-237.52 1156.3,-241.83"/>
<polygon fill="midnightblue" stroke="midnightblue" points="1156.24,-245.33 1166.34,-242.15 1156.46,-238.33 1156.24,-245.33"/>
</g>
<!-- Node32&#45;&gt;Node12 -->
<g id="edge56" class="edge">
<title>Node32&#45;&gt;Node12</title>
<path fill="none" stroke="midnightblue" d="M436.94,-174C478.43,-164.82 546.26,-149.45 613.37,-132.34"/>
<polygon fill="midnightblue" stroke="midnightblue" points="614.45,-135.68 623.27,-129.8 612.71,-128.9 614.45,-135.68"/>
</g>
<!-- Node33 -->
<g id="node33" class="node">
<title>Node33</title>
<g id="a_node33"><a xlink:title=" ">
<polygon fill="white" stroke="#bfbfbf" points="779,-56.5 779,-75.5 843,-75.5 843,-56.5 779,-56.5"/>
<text text-anchor="middle" x="811" y="-63.5" font-family="FreeSans" font-size="10.00">algorithm</text>
</a>
</g>
</g>
<!-- Node32&#45;&gt;Node33 -->
<g id="edge54" class="edge">
<title>Node32&#45;&gt;Node33</title>
<path fill="none" stroke="midnightblue" d="M414.25,-173.86C449.25,-155.27 528.89,-113.03 532,-112 631.5,-79.16 661.78,-94.06 765,-76 766.26,-75.78 767.54,-75.55 768.84,-75.32"/>
<polygon fill="midnightblue" stroke="midnightblue" points="769.67,-78.72 778.86,-73.46 768.39,-71.84 769.67,-78.72"/>
</g>
<!-- Node34 -->
<g id="node34" class="node">
<title>Node34</title>
<g id="a_node34"><a xlink:title=" ">
<polygon fill="white" stroke="#bfbfbf" points="540.5,-112.5 540.5,-131.5 605.5,-131.5 605.5,-112.5 540.5,-112.5"/>
<text text-anchor="middle" x="573" y="-119.5" font-family="FreeSans" font-size="10.00">functional</text>
</a>
</g>
</g>
<!-- Node32&#45;&gt;Node34 -->
<g id="edge55" class="edge">
<title>Node32&#45;&gt;Node34</title>
<path fill="none" stroke="midnightblue" d="M423.07,-173.98C453.35,-163.68 504.44,-146.31 538.44,-134.75"/>
<polygon fill="midnightblue" stroke="midnightblue" points="539.63,-138.04 547.97,-131.51 537.38,-131.41 539.63,-138.04"/>
</g>
<!-- Node35 -->
<g id="node35" class="node">
<title>Node35</title>
<g id="a_node35"><a xlink:href="Color_8h_source.html" target="_top" xlink:title=" ">
<polygon fill="white" stroke="black" points="390.5,-112.5 390.5,-131.5 483.5,-131.5 483.5,-112.5 390.5,-112.5"/>
<text text-anchor="middle" x="437" y="-119.5" font-family="FreeSans" font-size="10.00">DGtal/io/Color.h</text>
</a>
</g>
</g>
<!-- Node32&#45;&gt;Node35 -->
<g id="edge57" class="edge">
<title>Node32&#45;&gt;Node35</title>
<path fill="none" stroke="midnightblue" d="M403.59,-173.98C409.38,-165.14 418.59,-151.09 425.87,-139.98"/>
<polygon fill="midnightblue" stroke="midnightblue" points="428.87,-141.79 431.42,-131.51 423.01,-137.95 428.87,-141.79"/>
</g>
<!-- Node32&#45;&gt;Node39 -->
<g id="edge65" class="edge">
<title>Node32&#45;&gt;Node39</title>
<path fill="none" stroke="midnightblue" d="M380.95,-173.98C361.16,-164.08 328.28,-147.64 305.23,-136.12"/>
<polygon fill="midnightblue" stroke="midnightblue" points="306.53,-132.85 296.02,-131.51 303.4,-139.11 306.53,-132.85"/>
</g>
<!-- Node35&#45;&gt;Node2 -->
<g id="edge58" class="edge">
<title>Node35&#45;&gt;Node2</title>
<path fill="none" stroke="midnightblue" d="M483.53,-113.04C485.71,-112.69 487.88,-112.34 490,-112 597.39,-94.9 628.65,-109.8 732,-76 750.14,-70.07 751.61,-61.11 770,-56 911.22,-16.76 1369.91,-11.7 1509.39,-11.08"/>
<polygon fill="midnightblue" stroke="midnightblue" points="1509.65,-14.58 1519.63,-11.04 1509.62,-7.58 1509.65,-14.58"/>
</g>
<!-- Node35&#45;&gt;Node3 -->
<g id="edge59" class="edge">
<title>Node35&#45;&gt;Node3</title>
<path fill="none" stroke="midnightblue" d="M398.35,-131.56C351.92,-143.49 283.8,-167.28 314,-199 342.9,-229.35 943.89,-240.22 1156.37,-243.12"/>
<polygon fill="midnightblue" stroke="midnightblue" points="1156.45,-246.62 1166.5,-243.25 1156.54,-239.62 1156.45,-246.62"/>
</g>
<!-- Node35&#45;&gt;Node33 -->
<g id="edge61" class="edge">
<title>Node35&#45;&gt;Node33</title>
<path fill="none" stroke="midnightblue" d="M483.62,-114.06C488.47,-113.36 493.34,-112.66 498,-112 616.56,-95.26 646.86,-95.5 765,-76 766.26,-75.79 767.55,-75.57 768.84,-75.35"/>
<polygon fill="midnightblue" stroke="midnightblue" points="769.66,-78.76 778.87,-73.54 768.41,-71.87 769.66,-78.76"/>
</g>
<!-- Node36 -->
<g id="node36" class="node">
<title>Node36</title>
<g id="a_node36"><a xlink:title=" ">
<polygon fill="white" stroke="#bfbfbf" points="597.5,-56.5 597.5,-75.5 722.5,-75.5 722.5,-56.5 597.5,-56.5"/>
<text text-anchor="middle" x="660" y="-63.5" font-family="FreeSans" font-size="10.00">boost/lexical_cast.hpp</text>
</a>
</g>
</g>
<!-- Node35&#45;&gt;Node36 -->
<g id="edge60" class="edge">
<title>Node35&#45;&gt;Node36</title>
<path fill="none" stroke="midnightblue" d="M472.34,-112.44C510.91,-103.1 572.78,-88.12 614.85,-77.93"/>
<polygon fill="midnightblue" stroke="midnightblue" points="615.93,-81.27 624.83,-75.52 614.29,-74.47 615.93,-81.27"/>
</g>
<!-- Node37 -->
<g id="node37" class="node">
<title>Node37</title>
<g id="a_node37"><a xlink:title=" ">
<polygon fill="white" stroke="#bfbfbf" points="423,-56.5 423,-75.5 465,-75.5 465,-56.5 423,-56.5"/>
<text text-anchor="middle" x="444" y="-63.5" font-family="FreeSans" font-size="10.00">array</text>
</a>
</g>
</g>
<!-- Node35&#45;&gt;Node37 -->
<g id="edge62" class="edge">
<title>Node35&#45;&gt;Node37</title>
<path fill="none" stroke="midnightblue" d="M438.16,-112.08C439.08,-104.93 440.42,-94.64 441.58,-85.69"/>
<polygon fill="midnightblue" stroke="midnightblue" points="445.05,-86.12 442.87,-75.75 438.11,-85.22 445.05,-86.12"/>
</g>
<!-- Node38 -->
<g id="node38" class="node">
<title>Node38</title>
<g id="a_node38"><a xlink:href="Color_8ih_source.html" target="_top" xlink:title=" ">
<polygon fill="white" stroke="black" points="483,-56.5 483,-75.5 579,-75.5 579,-56.5 483,-56.5"/>
<text text-anchor="middle" x="531" y="-63.5" font-family="FreeSans" font-size="10.00">DGtal/io/Color.ih</text>
</a>
</g>
</g>
<!-- Node35&#45;&gt;Node38 -->
<g id="edge63" class="edge">
<title>Node35&#45;&gt;Node38</title>
<path fill="none" stroke="midnightblue" d="M452.1,-112.32C466.9,-103.82 489.69,-90.73 506.98,-80.8"/>
<polygon fill="midnightblue" stroke="midnightblue" points="509.01,-83.67 515.93,-75.65 505.52,-77.6 509.01,-83.67"/>
</g>
<!-- Node39&#45;&gt;Node2 -->
<g id="edge66" class="edge">
<title>Node39&#45;&gt;Node2</title>
<path fill="none" stroke="midnightblue" d="M298.09,-112.48C317.75,-103.64 349.21,-89.25 376,-76 393.11,-67.54 395.57,-60.94 414,-56 521.41,-27.19 1320.08,-14.23 1509.7,-11.54"/>
<polygon fill="midnightblue" stroke="midnightblue" points="1509.85,-15.04 1519.79,-11.4 1509.75,-8.04 1509.85,-15.04"/>
</g>
<!-- Node40 -->
<g id="node40" class="node">
<title>Node40</title>
<g id="a_node40"><a xlink:title=" ">
<polygon fill="white" stroke="#bfbfbf" points="66.5,-56.5 66.5,-75.5 173.5,-75.5 173.5,-56.5 66.5,-56.5"/>
<text text-anchor="middle" x="120" y="-63.5" font-family="FreeSans" font-size="10.00">boost/function.hpp</text>
</a>
</g>
</g>
<!-- Node39&#45;&gt;Node40 -->
<g id="edge67" class="edge">
<title>Node39&#45;&gt;Node40</title>
<path fill="none" stroke="midnightblue" d="M253.81,-112.44C227.06,-103.36 184.6,-88.94 154.69,-78.78"/>
<polygon fill="midnightblue" stroke="midnightblue" points="155.67,-75.42 145.08,-75.52 153.42,-82.05 155.67,-75.42"/>
</g>
<!-- Node41 -->
<g id="node41" class="node">
<title>Node41</title>
<g id="a_node41"><a xlink:href="BasicBoolFunctors_8ih_source.html" target="_top" xlink:title=" ">
<polygon fill="white" stroke="black" points="191.5,-56.5 191.5,-75.5 366.5,-75.5 366.5,-56.5 191.5,-56.5"/>
<text text-anchor="middle" x="279" y="-63.5" font-family="FreeSans" font-size="10.00">DGtal/base/BasicBoolFunctors.ih</text>
</a>
</g>
</g>
<!-- Node39&#45;&gt;Node41 -->
<g id="edge68" class="edge">
<title>Node39&#45;&gt;Node41</title>
<path fill="none" stroke="midnightblue" d="M279,-112.08C279,-105.01 279,-94.86 279,-85.99"/>
<polygon fill="midnightblue" stroke="midnightblue" points="282.5,-85.75 279,-75.75 275.5,-85.75 282.5,-85.75"/>
</g>
<!-- Node42&#45;&gt;Node2 -->
<g id="edge70" class="edge">
<title>Node42&#45;&gt;Node2</title>
<path fill="none" stroke="midnightblue" d="M1631.09,-112.37C1616.51,-94.14 1582.34,-51.43 1563.34,-27.68"/>
<polygon fill="midnightblue" stroke="midnightblue" points="1565.85,-25.21 1556.87,-19.59 1560.39,-29.59 1565.85,-25.21"/>
</g>
<!-- Node43&#45;&gt;Node2 -->
<g id="edge72" class="edge">
<title>Node43&#45;&gt;Node2</title>
<path fill="none" stroke="midnightblue" d="M125.75,-173.69C94.39,-151.84 20.95,-94.18 58,-56 84.01,-29.2 1273.59,-14.17 1509.56,-11.45"/>
<polygon fill="midnightblue" stroke="midnightblue" points="1509.8,-14.95 1519.76,-11.33 1509.72,-7.95 1509.8,-14.95"/>
</g>
</g>
</svg>
        <g id="navigator" transform="translate(0 0)" fill="#404254">
                <rect fill="#f2f5e9" fill-opacity="0.5" stroke="#606060" stroke-width=".5" x="0" y="0" width="60" height="60"/>
                <use id="zoomplus" xlink:href="#zoomPlus" x="17" y="9" onmousedown="handleZoom(evt,'in')"/>
                <use id="zoomminus" xlink:href="#zoomMin" x="42" y="9" onmousedown="handleZoom(evt,'out')"/>
                <use id="reset" xlink:href="#resetDef" x="30" y="36" onmousedown="handleReset()"/>
                <g id="arrowUp" xlink:href="#dirArrow" transform="translate(30 24)" onmousedown="handlePan(0,-1)">
                  <use xlink:href="#rim" fill="#404040">
                        <set attributeName="fill" to="#808080" begin="arrowUp.mouseover" end="arrowUp.mouseout"/>
                  </use>
                  <path fill="none" stroke="white" stroke-width="1.5" d="M0,-3.0v7 M-2.5,-0.5L0,-3.0L2.5,-0.5"/>
                </g>
                <g id="arrowRight" xlink:href="#dirArrow" transform="rotate(90) translate(36 -43)" onmousedown="handlePan(1,0)">
                  <use xlink:href="#rim" fill="#404040">
                        <set attributeName="fill" to="#808080" begin="arrowRight.mouseover" end="arrowRight.mouseout"/>
                  </use>
                  <path fill="none" stroke="white" stroke-width="1.5" d="M0,-3.0v7 M-2.5,-0.5L0,-3.0L2.5,-0.5"/>
                </g>
                <g id="arrowDown" xlink:href="#dirArrow" transform="rotate(180) translate(-30 -48)" onmousedown="handlePan(0,1)">
                  <use xlink:href="#rim" fill="#404040">
                        <set attributeName="fill" to="#808080" begin="arrowDown.mouseover" end="arrowDown.mouseout"/>
                  </use>
                  <path fill="none" stroke="white" stroke-width="1.5" d="M0,-3.0v7 M-2.5,-0.5L0,-3.0L2.5,-0.5"/>
                </g>
                <g id="arrowLeft" xlink:href="#dirArrow" transform="rotate(270) translate(-36 17)" onmousedown="handlePan(-1,0)">
                  <use xlink:href="#rim" fill="#404040">
                        <set attributeName="fill" to="#808080" begin="arrowLeft.mouseover" end="arrowLeft.mouseout"/>
                  </use>
                  <path fill="none" stroke="white" stroke-width="1.5" d="M0,-3.0v7 M-2.5,-0.5L0,-3.0L2.5,-0.5"/>
                </g>
        </g>
        <svg viewBox="0 0 15 15" width="100%" height="30px" preserveAspectRatio="xMaxYMin meet">
         <g id="arrow_out" transform="scale(0.3 0.3)">
          <a xlink:href="testBasicBoolFunctors_8cpp__incl_org.svg" target="_base">
           <rect id="button" ry="5" rx="5" y="6" x="6" height="38" width="38"
                fill="#f2f5e9" fill-opacity="0.5" stroke="#606060" stroke-width="1.0"/>
           <path id="arrow"
             d="M 11.500037,31.436501 C 11.940474,20.09759 22.043105,11.32322 32.158766,21.979434 L 37.068811,17.246167 C 37.068811,17.246167 37.088388,32 37.088388,32 L 22.160133,31.978069 C 22.160133,31.978069 26.997745,27.140456 26.997745,27.140456 C 18.528582,18.264221 13.291696,25.230495 11.500037,31.436501 z"
             style="fill:#404040;"/>
          </a>
         </g>
        </svg>
</svg>
