<?xml version="1.0" encoding="UTF-8" standalone="no"?>
<!DOCTYPE svg PUBLIC "-//W3C//DTD SVG 1.1//EN"
 "http://www.w3.org/Graphics/SVG/1.1/DTD/svg11.dtd">
<!-- Generated by graphviz version 2.43.0 (0)
 -->
<!-- Title: DGtal::PlaneProbingRNeighborhood&lt; TPredicate &gt; Pages: 1 -->
<svg width="646pt" height="88pt"
 viewBox="0.00 0.00 646.00 88.00" xmlns="http://www.w3.org/2000/svg" xmlns:xlink="http://www.w3.org/1999/xlink">
<g id="graph0" class="graph" transform="scale(1 1) rotate(0) translate(4 84)">
<title>DGtal::PlaneProbingRNeighborhood&lt; TPredicate &gt;</title>
<polygon fill="white" stroke="transparent" points="-4,4 -4,-84 642,-84 642,4 -4,4"/>
<!-- Node1 -->
<g id="node1" class="node">
<title>Node1</title>
<g id="a_node1"><a xlink:title="Aim: Represent a way to probe the R&#45;neighborhood.">
<polygon fill="#bfbfbf" stroke="black" points="218,-24.5 218,-54.5 407,-54.5 407,-24.5 218,-24.5"/>
<text text-anchor="start" x="226" y="-42.5" font-family="FreeSans" font-size="10.00">DGtal::PlaneProbingRNeighborhood</text>
<text text-anchor="middle" x="312.5" y="-31.5" font-family="FreeSans" font-size="10.00">&lt; TPredicate &gt;</text>
</a>
</g>
</g>
<!-- Node3 -->
<g id="node3" class="node">
<title>Node3</title>
<g id="a_node3"><a xlink:href="classDGtal_1_1PlaneProbingLNeighborhood.html" target="_top" xlink:title="Aim: Represents a way to probe the L&#45;neighborhood, see &#160;for details.">
<polygon fill="white" stroke="black" points="446.5,-49.5 446.5,-79.5 634.5,-79.5 634.5,-49.5 446.5,-49.5"/>
<text text-anchor="start" x="454.5" y="-67.5" font-family="FreeSans" font-size="10.00">DGtal::PlaneProbingLNeighborhood</text>
<text text-anchor="middle" x="540.5" y="-56.5" font-family="FreeSans" font-size="10.00">&lt; TPredicate &gt;</text>
</a>
</g>
</g>
<!-- Node1&#45;&gt;Node3 -->
<g id="edge2" class="edge">
<title>Node1&#45;&gt;Node3</title>
<path fill="none" stroke="midnightblue" d="M417.16,-50.97C426.91,-52.04 436.74,-53.13 446.38,-54.2"/>
<polygon fill="midnightblue" stroke="midnightblue" points="417.38,-47.47 407.05,-49.85 416.61,-54.43 417.38,-47.47"/>
</g>
<!-- Node4 -->
<g id="node4" class="node">
<title>Node4</title>
<g id="a_node4"><a xlink:href="classDGtal_1_1PlaneProbingR1Neighborhood.html" target="_top" xlink:title="Aim: Represent a way to probe the R&#45;neighborhood, with the R1 optimization, see &#160;for details.">
<polygon fill="white" stroke="black" points="443,-0.5 443,-30.5 638,-30.5 638,-0.5 443,-0.5"/>
<text text-anchor="start" x="451" y="-18.5" font-family="FreeSans" font-size="10.00">DGtal::PlaneProbingR1Neighborhood</text>
<text text-anchor="middle" x="540.5" y="-7.5" font-family="FreeSans" font-size="10.00">&lt; TPredicate &gt;</text>
</a>
</g>
</g>
<!-- Node1&#45;&gt;Node4 -->
<g id="edge3" class="edge">
<title>Node1&#45;&gt;Node4</title>
<path fill="none" stroke="midnightblue" d="M417.05,-28.5C425.6,-27.6 434.23,-26.68 442.73,-25.78"/>
<polygon fill="midnightblue" stroke="midnightblue" points="416.63,-25.03 407.05,-29.57 417.37,-31.99 416.63,-25.03"/>
</g>
<!-- Node2 -->
<g id="node2" class="node">
<title>Node2</title>
<g id="a_node2"><a xlink:href="classDGtal_1_1PlaneProbingNeighborhood.html" target="_top" xlink:title="Aim: A base virtual class that represents a way to probe a neighborhood, used in the plane probing ba...">
<polygon fill="white" stroke="black" points="0,-24.5 0,-54.5 182,-54.5 182,-24.5 0,-24.5"/>
<text text-anchor="start" x="8" y="-42.5" font-family="FreeSans" font-size="10.00">DGtal::PlaneProbingNeighborhood</text>
<text text-anchor="middle" x="91" y="-31.5" font-family="FreeSans" font-size="10.00">&lt; TPredicate &gt;</text>
</a>
</g>
</g>
<!-- Node2&#45;&gt;Node1 -->
<g id="edge1" class="edge">
<title>Node2&#45;&gt;Node1</title>
<path fill="none" stroke="midnightblue" d="M192.44,-39.5C200.86,-39.5 209.35,-39.5 217.71,-39.5"/>
<polygon fill="midnightblue" stroke="midnightblue" points="192.23,-36 182.23,-39.5 192.23,-43 192.23,-36"/>
</g>
</g>
</svg>
