<?xml version="1.0" encoding="UTF-8" standalone="no"?>
<!DOCTYPE svg PUBLIC "-//W3C//DTD SVG 1.1//EN"
 "http://www.w3.org/Graphics/SVG/1.1/DTD/svg11.dtd">
<!-- Generated by graphviz version 2.43.0 (0)
 -->
<!-- Title: DGtal::DiscreteExteriorCalculusSolver&lt; TCalculus, TLinearAlgebraSolver, order_in, duality_in, order_out, duality_out &gt; Pages: 1 -->
<svg width="621pt" height="170pt"
 viewBox="0.00 0.00 621.00 170.00" xmlns="http://www.w3.org/2000/svg" xmlns:xlink="http://www.w3.org/1999/xlink">
<g id="graph0" class="graph" transform="scale(1 1) rotate(0) translate(4 166)">
<title>DGtal::DiscreteExteriorCalculusSolver&lt; TCalculus, TLinearAlgebraSolver, order_in, duality_in, order_out, duality_out &gt;</title>
<polygon fill="white" stroke="transparent" points="-4,4 -4,-166 617,-166 617,4 -4,4"/>
<!-- Node1 -->
<g id="node1" class="node">
<title>Node1</title>
<g id="a_node1"><a xlink:title="Aim: This wraps a linear algebra solver around a discrete exterior calculus.">
<polygon fill="#bfbfbf" stroke="black" points="0,-55 0,-107 218,-107 218,-55 0,-55"/>
<text text-anchor="start" x="8" y="-95" font-family="FreeSans" font-size="10.00">DGtal::DiscreteExteriorCalculus</text>
<text text-anchor="start" x="8" y="-84" font-family="FreeSans" font-size="10.00">Solver&lt; TCalculus, TLinearAlgebraSolver,</text>
<text text-anchor="start" x="8" y="-73" font-family="FreeSans" font-size="10.00"> order_in, duality_in, order_out,</text>
<text text-anchor="middle" x="109" y="-62" font-family="FreeSans" font-size="10.00"> duality_out &gt;</text>
</a>
</g>
</g>
<!-- Node2 -->
<g id="node2" class="node">
<title>Node2</title>
<g id="a_node2"><a xlink:href="classDGtal_1_1DiscreteExteriorCalculusSolver.html" target="_top" xlink:title=" ">
<polygon fill="white" stroke="black" points="406,-120.5 406,-161.5 613,-161.5 613,-120.5 406,-120.5"/>
<text text-anchor="start" x="414" y="-149.5" font-family="FreeSans" font-size="10.00">DGtal::DiscreteExteriorCalculus</text>
<text text-anchor="start" x="414" y="-138.5" font-family="FreeSans" font-size="10.00">Solver&lt; Calculus, LinearAlgebraSolver,</text>
<text text-anchor="middle" x="509.5" y="-127.5" font-family="FreeSans" font-size="10.00"> 2, PRIMAL, 2, PRIMAL &gt;</text>
</a>
</g>
</g>
<!-- Node1&#45;&gt;Node2 -->
<g id="edge1" class="edge">
<title>Node1&#45;&gt;Node2</title>
<path fill="none" stroke="orange" stroke-dasharray="5,2" d="M228.26,-105.69C230.86,-106.14 233.45,-106.58 236,-107 291.97,-116.25 354.79,-124.25 406,-130.16"/>
<polygon fill="orange" stroke="orange" points="228.61,-102.2 218.15,-103.89 227.38,-109.09 228.61,-102.2"/>
<text text-anchor="start" x="236" y="-141" font-family="FreeSans" font-size="10.00"> &lt; Calculus, LinearAlgebra</text>
<text text-anchor="middle" x="312" y="-130" font-family="FreeSans" font-size="10.00">Solver, 2, PRIMAL, 2, PRIMAL &gt;</text>
</g>
<!-- Node3 -->
<g id="node3" class="node">
<title>Node3</title>
<g id="a_node3"><a xlink:href="classDGtal_1_1DiscreteExteriorCalculusSolver.html" target="_top" xlink:title=" ">
<polygon fill="white" stroke="black" points="406,-60.5 406,-101.5 613,-101.5 613,-60.5 406,-60.5"/>
<text text-anchor="start" x="414" y="-89.5" font-family="FreeSans" font-size="10.00">DGtal::DiscreteExteriorCalculus</text>
<text text-anchor="start" x="414" y="-78.5" font-family="FreeSans" font-size="10.00">Solver&lt; Calculus, LinearAlgebraSolver,</text>
<text text-anchor="middle" x="509.5" y="-67.5" font-family="FreeSans" font-size="10.00"> 1, PRIMAL, 1, PRIMAL &gt;</text>
</a>
</g>
</g>
<!-- Node1&#45;&gt;Node3 -->
<g id="edge2" class="edge">
<title>Node1&#45;&gt;Node3</title>
<path fill="none" stroke="orange" stroke-dasharray="5,2" d="M228.15,-81C284.62,-81 351.55,-81 405.86,-81"/>
<polygon fill="orange" stroke="orange" points="228.1,-77.5 218.1,-81 228.1,-84.5 228.1,-77.5"/>
<text text-anchor="start" x="236" y="-95" font-family="FreeSans" font-size="10.00"> &lt; Calculus, LinearAlgebra</text>
<text text-anchor="middle" x="312" y="-84" font-family="FreeSans" font-size="10.00">Solver, 1, PRIMAL, 1, PRIMAL &gt;</text>
</g>
<!-- Node4 -->
<g id="node4" class="node">
<title>Node4</title>
<g id="a_node4"><a xlink:href="classDGtal_1_1DiscreteExteriorCalculusSolver.html" target="_top" xlink:title=" ">
<polygon fill="white" stroke="black" points="406,-0.5 406,-41.5 613,-41.5 613,-0.5 406,-0.5"/>
<text text-anchor="start" x="414" y="-29.5" font-family="FreeSans" font-size="10.00">DGtal::DiscreteExteriorCalculus</text>
<text text-anchor="start" x="414" y="-18.5" font-family="FreeSans" font-size="10.00">Solver&lt; Calculus, LinearAlgebraSolver,</text>
<text text-anchor="middle" x="509.5" y="-7.5" font-family="FreeSans" font-size="10.00"> 0, PRIMAL, 0, PRIMAL &gt;</text>
</a>
</g>
</g>
<!-- Node1&#45;&gt;Node4 -->
<g id="edge3" class="edge">
<title>Node1&#45;&gt;Node4</title>
<path fill="none" stroke="orange" stroke-dasharray="5,2" d="M228.26,-56.31C230.86,-55.86 233.45,-55.42 236,-55 291.97,-45.75 354.79,-37.75 406,-31.84"/>
<polygon fill="orange" stroke="orange" points="227.38,-52.91 218.15,-58.11 228.61,-59.8 227.38,-52.91"/>
<text text-anchor="start" x="236" y="-69" font-family="FreeSans" font-size="10.00"> &lt; Calculus, LinearAlgebra</text>
<text text-anchor="middle" x="312" y="-58" font-family="FreeSans" font-size="10.00">Solver, 0, PRIMAL, 0, PRIMAL &gt;</text>
</g>
</g>
</svg>
