<?xml version="1.0" encoding="UTF-8" standalone="no"?>
<!DOCTYPE svg PUBLIC "-//W3C//DTD SVG 1.1//EN"
 "http://www.w3.org/Graphics/SVG/1.1/DTD/svg11.dtd">
<!-- Generated by graphviz version 2.43.0 (0)
 -->
<!-- Title: GIMAGE Pages: 1 -->
<svg width="1685pt" height="477pt"
 viewBox="0.00 0.00 1685.00 477.00" xmlns="http://www.w3.org/2000/svg" xmlns:xlink="http://www.w3.org/1999/xlink">
<g id="graph0" class="graph" transform="scale(1 1) rotate(0) translate(4 473)">
<title>GIMAGE</title>
<polygon fill="white" stroke="transparent" points="-4,4 -4,-473 1681,-473 1681,4 -4,4"/>
<g id="clust1" class="cluster">
<title>cluster_ext</title>
</g>
<g id="clust2" class="cluster">
<title>cluster_base</title>
<polygon fill="#eeeeff" stroke="#eeeeff" points="1226,-378 1226,-453 1328,-453 1328,-378 1226,-378"/>
<text text-anchor="middle" x="1277" y="-385.8" font-family="Times,serif" font-size="14.00">base</text>
</g>
<g id="clust3" class="cluster">
<title>cluster_kernel</title>
<polygon fill="#eeeeff" stroke="#eeeeff" points="16,-378 16,-453 1218,-453 1218,-378 16,-378"/>
<text text-anchor="middle" x="617" y="-385.8" font-family="Times,serif" font-size="14.00">kernel</text>
</g>
<g id="clust4" class="cluster">
<title>cluster_main</title>
<polygon fill="lightgrey" stroke="lightgrey" points="845,-102 845,-337 1177,-337 1177,-102 845,-102"/>
<text text-anchor="middle" x="1011" y="-109.8" font-family="Times,serif" font-size="14.00">Image (main concepts)</text>
</g>
<g id="clust5" class="cluster">
<title>cluster_models</title>
<polygon fill="#ccffcc" stroke="#ccffcc" points="74,-8 74,-83 1669,-83 1669,-8 74,-8"/>
<text text-anchor="middle" x="871.5" y="-15.8" font-family="Times,serif" font-size="14.00">Image (main models)</text>
</g>
<!-- CLabel -->
<g id="node1" class="node">
<title>CLabel</title>
<g id="a_node1"><a xlink:href="structDGtal_1_1concepts_1_1CLabel.html" target="_top" xlink:title="CLabel">
<ellipse fill="white" stroke="white" cx="1277" cy="-427" rx="42.79" ry="18"/>
<text text-anchor="middle" x="1277" y="-423.3" font-family="Times,serif" font-size="14.00">CLabel</text>
</a>
</g>
</g>
<!-- CPointFunctor -->
<g id="node2" class="node">
<title>CPointFunctor</title>
<g id="a_node2"><a xlink:href="structDGtal_1_1concepts_1_1CPointFunctor.html" target="_top" xlink:title="CPointFunctor">
<ellipse fill="white" stroke="white" cx="1132" cy="-427" rx="77.99" ry="18"/>
<text text-anchor="middle" x="1132" y="-423.3" font-family="Times,serif" font-size="14.00">CPointFunctor</text>
</a>
</g>
</g>
<!-- CDomain -->
<g id="node3" class="node">
<title>CDomain</title>
<g id="a_node3"><a xlink:href="structDGtal_1_1concepts_1_1CDomain.html" target="_top" xlink:title="CDomain">
<ellipse fill="white" stroke="white" cx="983" cy="-427" rx="53.09" ry="18"/>
<text text-anchor="middle" x="983" y="-423.3" font-family="Times,serif" font-size="14.00">CDomain</text>
</a>
</g>
</g>
<!-- CConstBidirectionalRangeFromPoint -->
<g id="node4" class="node">
<title>CConstBidirectionalRangeFromPoint</title>
<g id="a_node4"><a xlink:href="structDGtal_1_1concepts_1_1CConstBidirectionalRangeFromPoint.html" target="_top" xlink:title="CConstBidirectionalRangeFromPoint">
<ellipse fill="white" stroke="white" cx="730" cy="-427" rx="181.97" ry="18"/>
<text text-anchor="middle" x="730" y="-423.3" font-family="Times,serif" font-size="14.00">CConstBidirectionalRangeFromPoint</text>
</a>
</g>
</g>
<!-- CBidirectionalRangeWithWritableIteratorFromPoint -->
<g id="node5" class="node">
<title>CBidirectionalRangeWithWritableIteratorFromPoint</title>
<g id="a_node5"><a xlink:href="structDGtal_1_1concepts_1_1CBidirectionalRangeWithWritableIteratorFromPoint.html" target="_top" xlink:title="CBidirectionalRangeWithWritableIteratorFromPoint">
<ellipse fill="white" stroke="white" cx="277" cy="-427" rx="252.66" ry="18"/>
<text text-anchor="middle" x="277" y="-423.3" font-family="Times,serif" font-size="14.00">CBidirectionalRangeWithWritableIteratorFromPoint</text>
</a>
</g>
</g>
<!-- CImage -->
<g id="node6" class="node">
<title>CImage</title>
<g id="a_node6"><a xlink:href="structDGtal_1_1concepts_1_1CImage.html" target="_top" xlink:title="CImage">
<ellipse fill="white" stroke="white" cx="912" cy="-151" rx="46.29" ry="18"/>
<text text-anchor="middle" x="912" y="-147.3" font-family="Times,serif" font-size="14.00">CImage</text>
</a>
</g>
</g>
<!-- CImage&#45;&gt;CBidirectionalRangeWithWritableIteratorFromPoint -->
<g id="edge9" class="edge">
<title>CImage&#45;&gt;CBidirectionalRangeWithWritableIteratorFromPoint</title>
<path fill="none" stroke="black" stroke-dasharray="5,2" d="M882.22,-164.85C781.14,-208.47 450.45,-351.16 325.45,-405.1"/>
<polygon fill="black" stroke="black" points="323.9,-401.95 316.1,-409.13 326.67,-408.38 323.9,-401.95"/>
<text text-anchor="middle" x="672.5" y="-263.8" font-family="Times,serif" font-size="14.00">use</text>
</g>
<!-- CConstImage -->
<g id="node7" class="node">
<title>CConstImage</title>
<g id="a_node7"><a xlink:href="structDGtal_1_1concepts_1_1CConstImage.html" target="_top" xlink:title="CConstImage">
<ellipse fill="white" stroke="white" cx="926" cy="-224" rx="73.39" ry="18"/>
<text text-anchor="middle" x="926" y="-220.3" font-family="Times,serif" font-size="14.00">CConstImage</text>
</a>
</g>
</g>
<!-- CImage&#45;&gt;CConstImage -->
<g id="edge1" class="edge">
<title>CImage&#45;&gt;CConstImage</title>
<path fill="none" stroke="black" d="M915.39,-169.19C916.97,-177.21 918.89,-186.95 920.66,-195.93"/>
<polygon fill="black" stroke="black" points="917.27,-196.84 922.64,-205.97 924.14,-195.48 917.27,-196.84"/>
</g>
<!-- CTrivialImage -->
<g id="node8" class="node">
<title>CTrivialImage</title>
<g id="a_node8"><a xlink:href="structDGtal_1_1concepts_1_1CTrivialImage.html" target="_top" xlink:title="CTrivialImage">
<ellipse fill="white" stroke="white" cx="1093" cy="-224" rx="76.09" ry="18"/>
<text text-anchor="middle" x="1093" y="-220.3" font-family="Times,serif" font-size="14.00">CTrivialImage</text>
</a>
</g>
</g>
<!-- CImage&#45;&gt;CTrivialImage -->
<g id="edge2" class="edge">
<title>CImage&#45;&gt;CTrivialImage</title>
<path fill="none" stroke="black" d="M943.53,-164.37C971.8,-175.46 1013.67,-191.88 1045.91,-204.53"/>
<polygon fill="black" stroke="black" points="1044.99,-207.93 1055.58,-208.32 1047.55,-201.41 1044.99,-207.93"/>
</g>
<!-- CConstImage&#45;&gt;CDomain -->
<g id="edge7" class="edge">
<title>CConstImage&#45;&gt;CDomain</title>
<path fill="none" stroke="black" stroke-dasharray="5,2" d="M923.79,-242.12C921.5,-264.46 919.45,-304.53 929,-337 935.95,-360.62 950.8,-384.31 963.17,-401.3"/>
<polygon fill="black" stroke="black" points="960.55,-403.65 969.36,-409.54 966.15,-399.45 960.55,-403.65"/>
<text text-anchor="middle" x="941.5" y="-307.3" font-family="Times,serif" font-size="14.00">use</text>
</g>
<!-- CConstImage&#45;&gt;CConstBidirectionalRangeFromPoint -->
<g id="edge8" class="edge">
<title>CConstImage&#45;&gt;CConstBidirectionalRangeFromPoint</title>
<path fill="none" stroke="black" stroke-dasharray="5,2" d="M909.63,-241.79C874.98,-277.32 794.13,-360.23 753.78,-401.61"/>
<polygon fill="black" stroke="black" points="751.22,-399.23 746.74,-408.83 756.23,-404.11 751.22,-399.23"/>
<text text-anchor="middle" x="869.5" y="-307.3" font-family="Times,serif" font-size="14.00">use</text>
</g>
<!-- CTrivialConstImage -->
<g id="node9" class="node">
<title>CTrivialConstImage</title>
<g id="a_node9"><a xlink:href="structDGtal_1_1concepts_1_1CTrivialConstImage.html" target="_top" xlink:title="CTrivialConstImage">
<ellipse fill="white" stroke="white" cx="1066" cy="-311" rx="102.88" ry="18"/>
<text text-anchor="middle" x="1066" y="-307.3" font-family="Times,serif" font-size="14.00">CTrivialConstImage</text>
</a>
</g>
</g>
<!-- CConstImage&#45;&gt;CTrivialConstImage -->
<g id="edge3" class="edge">
<title>CConstImage&#45;&gt;CTrivialConstImage</title>
<path fill="none" stroke="black" d="M952.33,-240.99C974.34,-254.35 1005.94,-273.54 1030.24,-288.29"/>
<polygon fill="black" stroke="black" points="1028.47,-291.31 1038.83,-293.5 1032.1,-285.32 1028.47,-291.31"/>
</g>
<!-- CTrivialImage&#45;&gt;CTrivialConstImage -->
<g id="edge4" class="edge">
<title>CTrivialImage&#45;&gt;CTrivialConstImage</title>
<path fill="none" stroke="black" d="M1087.54,-242.2C1083.8,-253.95 1078.78,-269.76 1074.53,-283.16"/>
<polygon fill="black" stroke="black" points="1071.15,-282.23 1071.46,-292.82 1077.82,-284.35 1071.15,-282.23"/>
</g>
<!-- CTrivialConstImage&#45;&gt;CLabel -->
<g id="edge5" class="edge">
<title>CTrivialConstImage&#45;&gt;CLabel</title>
<path fill="none" stroke="black" stroke-dasharray="5,2" d="M1121.83,-326.25C1152.88,-335.72 1191.33,-350.12 1222,-370 1235.34,-378.65 1247.95,-391.05 1257.72,-401.98"/>
<polygon fill="black" stroke="black" points="1255.11,-404.32 1264.3,-409.61 1260.41,-399.75 1255.11,-404.32"/>
<text text-anchor="middle" x="1218.5" y="-350.8" font-family="Times,serif" font-size="14.00">use</text>
</g>
<!-- CTrivialConstImage&#45;&gt;CPointFunctor -->
<g id="edge10" class="edge">
<title>CTrivialConstImage&#45;&gt;CPointFunctor</title>
<path fill="none" stroke="black" d="M1076.02,-329.31C1086.94,-348.17 1104.52,-378.53 1117.06,-400.2"/>
<polygon fill="black" stroke="black" points="1114.06,-402 1122.1,-408.9 1120.12,-398.49 1114.06,-402"/>
</g>
<!-- CTrivialConstImage&#45;&gt;CDomain -->
<g id="edge6" class="edge">
<title>CTrivialConstImage&#45;&gt;CDomain</title>
<path fill="none" stroke="black" stroke-dasharray="5,2" d="M1053.39,-329.31C1039.46,-348.45 1016.9,-379.43 1001.09,-401.16"/>
<polygon fill="black" stroke="black" points="998.24,-399.12 995.18,-409.27 1003.9,-403.24 998.24,-399.12"/>
<text text-anchor="middle" x="1051.5" y="-350.8" font-family="Times,serif" font-size="14.00">use</text>
</g>
<!-- ImageContainerBySTLVector -->
<g id="node10" class="node">
<title>ImageContainerBySTLVector</title>
<g id="a_node10"><a xlink:href="classDGtal_1_1ImageContainerBySTLVector.html" target="_top" xlink:title="ImageContainerBySTLVector">
<ellipse fill="white" stroke="white" cx="700" cy="-57" rx="144.07" ry="18"/>
<text text-anchor="middle" x="700" y="-53.3" font-family="Times,serif" font-size="14.00">ImageContainerBySTLVector</text>
</a>
</g>
</g>
<!-- ImageContainerBySTLVector&#45;&gt;CImage -->
<g id="edge13" class="edge">
<title>ImageContainerBySTLVector&#45;&gt;CImage</title>
<path fill="none" stroke="black" d="M737.9,-74.45C776,-90.98 834.45,-116.35 872.95,-133.06"/>
<polygon fill="black" stroke="black" points="871.72,-136.34 882.29,-137.11 874.51,-129.91 871.72,-136.34"/>
</g>
<!-- ImageContainerBySTLMap -->
<g id="node11" class="node">
<title>ImageContainerBySTLMap</title>
<g id="a_node11"><a xlink:href="classDGtal_1_1ImageContainerBySTLMap.html" target="_top" xlink:title="ImageContainerBySTLMap">
<ellipse fill="white" stroke="white" cx="998" cy="-57" rx="135.68" ry="18"/>
<text text-anchor="middle" x="998" y="-53.3" font-family="Times,serif" font-size="14.00">ImageContainerBySTLMap</text>
</a>
</g>
</g>
<!-- ImageContainerBySTLMap&#45;&gt;CImage -->
<g id="edge14" class="edge">
<title>ImageContainerBySTLMap&#45;&gt;CImage</title>
<path fill="none" stroke="black" d="M964.34,-74.46C956.03,-79.6 947.62,-85.83 941,-93 932.9,-101.78 926.48,-113.25 921.77,-123.6"/>
<polygon fill="black" stroke="black" points="918.44,-122.48 917.77,-133.05 924.89,-125.2 918.44,-122.48"/>
</g>
<!-- ImageContainerByHashTree -->
<g id="node12" class="node">
<title>ImageContainerByHashTree</title>
<g id="a_node12"><a xlink:href="classDGtal_1_1experimental_1_1ImageContainerByHashTree.html" target="_top" xlink:title="ImageContainerByHashTree">
<ellipse fill="white" stroke="white" cx="1294" cy="-57" rx="142.17" ry="18"/>
<text text-anchor="middle" x="1294" y="-53.3" font-family="Times,serif" font-size="14.00">ImageContainerByHashTree</text>
</a>
</g>
</g>
<!-- ImageContainerByHashTree&#45;&gt;CImage -->
<g id="edge15" class="edge">
<title>ImageContainerByHashTree&#45;&gt;CImage</title>
<path fill="none" stroke="black" d="M1217.79,-72.23C1193.92,-76.25 1167.43,-80.27 1143,-83 1105.17,-87.23 1006.92,-77.86 972,-93 955.67,-100.08 941.1,-113.65 930.4,-125.78"/>
<polygon fill="black" stroke="black" points="927.71,-123.55 923.96,-133.45 933.07,-128.05 927.71,-123.55"/>
</g>
<!-- ImageContainerByITKImage -->
<g id="node13" class="node">
<title>ImageContainerByITKImage</title>
<g id="a_node13"><a xlink:href="classDGtal_1_1ImageContainerByITKImage.html" target="_top" xlink:title="ImageContainerByITKImage">
<ellipse fill="white" stroke="white" cx="224" cy="-57" rx="142.17" ry="18"/>
<text text-anchor="middle" x="224" y="-53.3" font-family="Times,serif" font-size="14.00">ImageContainerByITKImage</text>
</a>
</g>
</g>
<!-- ImageContainerByITKImage&#45;&gt;CImage -->
<g id="edge16" class="edge">
<title>ImageContainerByITKImage&#45;&gt;CImage</title>
<path fill="none" stroke="black" d="M304.23,-71.9C327.07,-75.68 351.99,-79.66 375,-83 551.28,-108.58 760.99,-133.02 857.93,-143.98"/>
<polygon fill="black" stroke="black" points="857.74,-147.48 868.07,-145.12 858.52,-140.52 857.74,-147.48"/>
</g>
<!-- ImageAdapter -->
<g id="node14" class="node">
<title>ImageAdapter</title>
<g id="a_node14"><a xlink:href="classDGtal_1_1ImageAdapter.html" target="_top" xlink:title="ImageAdapter">
<ellipse fill="white" stroke="white" cx="461" cy="-57" rx="76.89" ry="18"/>
<text text-anchor="middle" x="461" y="-53.3" font-family="Times,serif" font-size="14.00">ImageAdapter</text>
</a>
</g>
</g>
<!-- ImageAdapter&#45;&gt;CImage -->
<g id="edge11" class="edge">
<title>ImageAdapter&#45;&gt;CImage</title>
<path fill="none" stroke="black" d="M505.41,-71.84C518.71,-75.73 533.38,-79.78 547,-83 657.4,-109.11 788.62,-131 859.78,-142.12"/>
<polygon fill="black" stroke="black" points="859.42,-145.61 869.84,-143.68 860.49,-138.69 859.42,-145.61"/>
</g>
<!-- ConstImageAdapter -->
<g id="node15" class="node">
<title>ConstImageAdapter</title>
<g id="a_node15"><a xlink:href="classDGtal_1_1ConstImageAdapter.html" target="_top" xlink:title="ConstImageAdapter">
<ellipse fill="white" stroke="white" cx="1558" cy="-57" rx="103.18" ry="18"/>
<text text-anchor="middle" x="1558" y="-53.3" font-family="Times,serif" font-size="14.00">ConstImageAdapter</text>
</a>
</g>
</g>
<!-- ConstImageAdapter&#45;&gt;CConstImage -->
<g id="edge12" class="edge">
<title>ConstImageAdapter&#45;&gt;CConstImage</title>
<path fill="none" stroke="black" d="M1503.29,-72.28C1384.88,-103.2 1105.71,-176.08 984.2,-207.81"/>
<polygon fill="black" stroke="black" points="983.12,-204.47 974.33,-210.38 984.89,-211.24 983.12,-204.47"/>
</g>
</g>
</svg>
