<?xml version="1.0" encoding="UTF-8" standalone="no"?>
<!DOCTYPE svg PUBLIC "-//W3C//DTD SVG 1.1//EN"
 "http://www.w3.org/Graphics/SVG/1.1/DTD/svg11.dtd">
<!-- Generated by graphviz version 2.43.0 (0)
 -->
<!-- Title: GITERATORS Pages: 1 -->
<svg width="812pt" height="427pt"
 viewBox="0.00 0.00 811.88 427.00" xmlns="http://www.w3.org/2000/svg" xmlns:xlink="http://www.w3.org/1999/xlink">
<g id="graph0" class="graph" transform="scale(1 1) rotate(0) translate(4 423)">
<title>GITERATORS</title>
<polygon fill="white" stroke="transparent" points="-4,4 -4,-423 807.88,-423 807.88,4 -4,4"/>
<text text-anchor="middle" x="401.94" y="-7.8" font-family="Times,serif" font-size="14.00">boost_concepts</text>
<!-- ReadableIteratorConcept -->
<g id="node1" class="node">
<title>ReadableIteratorConcept</title>
<ellipse fill="none" stroke="black" cx="161.84" cy="-41" rx="128.08" ry="18"/>
<text text-anchor="middle" x="161.84" y="-37.3" font-family="Times,serif" font-size="14.00">ReadableIteratorConcept</text>
</g>
<!-- WritableIteratorConcept -->
<g id="node2" class="node">
<title>WritableIteratorConcept</title>
<ellipse fill="none" stroke="black" cx="431.84" cy="-41" rx="124.28" ry="18"/>
<text text-anchor="middle" x="431.84" y="-37.3" font-family="Times,serif" font-size="14.00">WritableIteratorConcept</text>
</g>
<!-- LValueIteratorConcept -->
<g id="node3" class="node">
<title>LValueIteratorConcept</title>
<ellipse fill="none" stroke="black" cx="688.84" cy="-41" rx="115.08" ry="18"/>
<text text-anchor="middle" x="688.84" y="-37.3" font-family="Times,serif" font-size="14.00">LValueIteratorConcept</text>
</g>
<!-- RandomAccessTraversalConcept -->
<g id="node4" class="node">
<title>RandomAccessTraversalConcept</title>
<ellipse fill="none" stroke="black" cx="161.84" cy="-113" rx="161.67" ry="18"/>
<text text-anchor="middle" x="161.84" y="-109.3" font-family="Times,serif" font-size="14.00">RandomAccessTraversalConcept</text>
</g>
<!-- BidirectionalTraversalConcept -->
<g id="node5" class="node">
<title>BidirectionalTraversalConcept</title>
<ellipse fill="none" stroke="black" cx="161.84" cy="-185" rx="152.17" ry="18"/>
<text text-anchor="middle" x="161.84" y="-181.3" font-family="Times,serif" font-size="14.00">BidirectionalTraversalConcept</text>
</g>
<!-- RandomAccessTraversalConcept&#45;&gt;BidirectionalTraversalConcept -->
<g id="edge1" class="edge">
<title>RandomAccessTraversalConcept&#45;&gt;BidirectionalTraversalConcept</title>
<path fill="none" stroke="black" d="M161.84,-131.3C161.84,-139.02 161.84,-148.29 161.84,-156.89"/>
<polygon fill="black" stroke="black" points="158.34,-156.9 161.84,-166.9 165.34,-156.9 158.34,-156.9"/>
</g>
<!-- ForwardTraversalConcept -->
<g id="node6" class="node">
<title>ForwardTraversalConcept</title>
<ellipse fill="none" stroke="black" cx="161.84" cy="-257" rx="131.88" ry="18"/>
<text text-anchor="middle" x="161.84" y="-253.3" font-family="Times,serif" font-size="14.00">ForwardTraversalConcept</text>
</g>
<!-- BidirectionalTraversalConcept&#45;&gt;ForwardTraversalConcept -->
<g id="edge2" class="edge">
<title>BidirectionalTraversalConcept&#45;&gt;ForwardTraversalConcept</title>
<path fill="none" stroke="black" d="M161.84,-203.3C161.84,-211.02 161.84,-220.29 161.84,-228.89"/>
<polygon fill="black" stroke="black" points="158.34,-228.9 161.84,-238.9 165.34,-228.9 158.34,-228.9"/>
</g>
<!-- SinglePassTraversalConcept -->
<g id="node7" class="node">
<title>SinglePassTraversalConcept</title>
<ellipse fill="none" stroke="black" cx="161.84" cy="-329" rx="142.97" ry="18"/>
<text text-anchor="middle" x="161.84" y="-325.3" font-family="Times,serif" font-size="14.00">SinglePassTraversalConcept</text>
</g>
<!-- ForwardTraversalConcept&#45;&gt;SinglePassTraversalConcept -->
<g id="edge3" class="edge">
<title>ForwardTraversalConcept&#45;&gt;SinglePassTraversalConcept</title>
<path fill="none" stroke="black" d="M161.84,-275.3C161.84,-283.02 161.84,-292.29 161.84,-300.89"/>
<polygon fill="black" stroke="black" points="158.34,-300.9 161.84,-310.9 165.34,-300.9 158.34,-300.9"/>
</g>
<!-- IncrementableTraversalConcept -->
<g id="node8" class="node">
<title>IncrementableTraversalConcept</title>
<ellipse fill="none" stroke="black" cx="161.84" cy="-401" rx="159.77" ry="18"/>
<text text-anchor="middle" x="161.84" y="-397.3" font-family="Times,serif" font-size="14.00">IncrementableTraversalConcept</text>
</g>
<!-- SinglePassTraversalConcept&#45;&gt;IncrementableTraversalConcept -->
<g id="edge4" class="edge">
<title>SinglePassTraversalConcept&#45;&gt;IncrementableTraversalConcept</title>
<path fill="none" stroke="black" d="M161.84,-347.3C161.84,-355.02 161.84,-364.29 161.84,-372.89"/>
<polygon fill="black" stroke="black" points="158.34,-372.9 161.84,-382.9 165.34,-372.9 158.34,-372.9"/>
</g>
</g>
</svg>
