<?xml version="1.0" encoding="UTF-8" standalone="no"?>
<!DOCTYPE svg PUBLIC "-//W3C//DTD SVG 1.1//EN"
 "http://www.w3.org/Graphics/SVG/1.1/DTD/svg11.dtd">
<!-- Generated by graphviz version 2.43.0 (0)
 -->
<!-- Title: Graphical Class Hierarchy Pages: 1 -->
<svg width="458pt" height="50pt"
 viewBox="0.00 0.00 458.00 50.00" xmlns="http://www.w3.org/2000/svg" xmlns:xlink="http://www.w3.org/1999/xlink">
<g id="graph0" class="graph" transform="scale(1 1) rotate(0) translate(4 46)">
<title>Graphical Class Hierarchy</title>
<polygon fill="white" stroke="transparent" points="-4,4 -4,-46 454,-46 454,4 -4,4"/>
<!-- Node0 -->
<g id="node1" class="node">
<title>Node0</title>
<g id="a_node1"><a xlink:href="classDGtal_1_1detail_1_1PosIndepScaleIndepSCEstimator.html" target="_top" xlink:title=" ">
<polygon fill="white" stroke="black" points="0,-0.5 0,-41.5 234,-41.5 234,-0.5 0,-0.5"/>
<text text-anchor="start" x="8" y="-29.5" font-family="FreeSans" font-size="10.00">DGtal::detail::PosIndepScale</text>
<text text-anchor="start" x="8" y="-18.5" font-family="FreeSans" font-size="10.00">IndepSCEstimator&lt; DSSComputer,</text>
<text text-anchor="middle" x="117" y="-7.5" font-family="FreeSans" font-size="10.00"> detail::NormalizedTangentVectorFromDSS &gt;</text>
</a>
</g>
</g>
<!-- Node1 -->
<g id="node2" class="node">
<title>Node1</title>
<g id="a_node2"><a xlink:href="classDGtal_1_1TangentFromDSSEstimator.html" target="_top" xlink:title=" ">
<polygon fill="white" stroke="black" points="270,-6 270,-36 450,-36 450,-6 270,-6"/>
<text text-anchor="start" x="278" y="-24" font-family="FreeSans" font-size="10.00">DGtal::TangentFromDSSEstimator</text>
<text text-anchor="middle" x="360" y="-13" font-family="FreeSans" font-size="10.00">&lt; DSSComputer &gt;</text>
</a>
</g>
</g>
<!-- Node0&#45;&gt;Node1 -->
<g id="edge1" class="edge">
<title>Node0&#45;&gt;Node1</title>
<path fill="none" stroke="midnightblue" d="M244.32,-21C252.88,-21 261.4,-21 269.71,-21"/>
<polygon fill="midnightblue" stroke="midnightblue" points="244.26,-17.5 234.26,-21 244.26,-24.5 244.26,-17.5"/>
</g>
</g>
</svg>
