<?xml version="1.0" encoding="UTF-8" standalone="no"?>
<!DOCTYPE svg PUBLIC "-//W3C//DTD SVG 1.1//EN"
 "http://www.w3.org/Graphics/SVG/1.1/DTD/svg11.dtd">
<!-- Generated by graphviz version 2.43.0 (0)
 -->
<!-- Title: Graphical Class Hierarchy Pages: 1 -->
<svg width="638pt" height="547pt"
 viewBox="0.00 0.00 638.00 546.50" xmlns="http://www.w3.org/2000/svg" xmlns:xlink="http://www.w3.org/1999/xlink">
<g id="graph0" class="graph" transform="scale(1 1) rotate(0) translate(4 542.5)">
<title>Graphical Class Hierarchy</title>
<polygon fill="white" stroke="transparent" points="-4,4 -4,-542.5 634,-542.5 634,4 -4,4"/>
<!-- Node0 -->
<g id="node1" class="node">
<title>Node0</title>
<g id="a_node1"><a xlink:href="structDGtal_1_1DrawableWithDisplay3D.html" target="_top" xlink:title=" ">
<polygon fill="white" stroke="black" points="9,-462 9,-481 179,-481 179,-462 9,-462"/>
<text text-anchor="middle" x="94" y="-469" font-family="FreeSans" font-size="10.00">DGtal::DrawableWithDisplay3D</text>
</a>
</g>
</g>
<!-- Node1 -->
<g id="node2" class="node">
<title>Node1</title>
<g id="a_node2"><a xlink:href="structDGtal_1_1DrawWithBoard3DTo2DModifier.html" target="_top" xlink:title="Base class specifying the methods for classes which intend to modify a Viewer3D stream.">
<polygon fill="white" stroke="black" points="238,-456.5 238,-486.5 395,-486.5 395,-456.5 238,-456.5"/>
<text text-anchor="start" x="246" y="-474.5" font-family="FreeSans" font-size="10.00">DGtal::DrawWithBoard3DTo2</text>
<text text-anchor="middle" x="316.5" y="-463.5" font-family="FreeSans" font-size="10.00">DModifier</text>
</a>
</g>
</g>
<!-- Node0&#45;&gt;Node1 -->
<g id="edge1" class="edge">
<title>Node0&#45;&gt;Node1</title>
<path fill="none" stroke="midnightblue" d="M189.75,-471.5C205.77,-471.5 222.24,-471.5 237.76,-471.5"/>
<polygon fill="midnightblue" stroke="midnightblue" points="189.31,-468 179.31,-471.5 189.31,-475 189.31,-468"/>
</g>
<!-- Node2 -->
<g id="node3" class="node">
<title>Node2</title>
<g id="a_node3"><a xlink:href="structDGtal_1_1CameraDirection.html" target="_top" xlink:title="CameraDirection class to set camera direction.">
<polygon fill="white" stroke="black" points="471,-443 471,-462 604,-462 604,-443 471,-443"/>
<text text-anchor="middle" x="537.5" y="-450" font-family="FreeSans" font-size="10.00">DGtal::CameraDirection</text>
</a>
</g>
</g>
<!-- Node1&#45;&gt;Node2 -->
<g id="edge2" class="edge">
<title>Node1&#45;&gt;Node2</title>
<path fill="none" stroke="midnightblue" d="M404.99,-463.91C426.9,-462.01 450.03,-460 470.69,-458.21"/>
<polygon fill="midnightblue" stroke="midnightblue" points="404.68,-460.42 395.02,-464.77 405.28,-467.4 404.68,-460.42"/>
</g>
<!-- Node3 -->
<g id="node4" class="node">
<title>Node3</title>
<g id="a_node4"><a xlink:href="structDGtal_1_1CameraPosition.html" target="_top" xlink:title="CameraPosition class to set camera position.">
<polygon fill="white" stroke="black" points="473.5,-405 473.5,-424 601.5,-424 601.5,-405 473.5,-405"/>
<text text-anchor="middle" x="537.5" y="-412" font-family="FreeSans" font-size="10.00">DGtal::CameraPosition</text>
</a>
</g>
</g>
<!-- Node1&#45;&gt;Node3 -->
<g id="edge3" class="edge">
<title>Node1&#45;&gt;Node3</title>
<path fill="none" stroke="midnightblue" d="M374.3,-453.45C396.27,-446.76 421.69,-439.38 445,-433.5 458.37,-430.13 472.95,-426.9 486.46,-424.09"/>
<polygon fill="midnightblue" stroke="midnightblue" points="373,-450.18 364.46,-456.46 375.05,-456.88 373,-450.18"/>
</g>
<!-- Node4 -->
<g id="node5" class="node">
<title>Node4</title>
<g id="a_node5"><a xlink:href="structDGtal_1_1CameraUpVector.html" target="_top" xlink:title="CameraUpVector class to set camera up&#45;vector.">
<polygon fill="white" stroke="black" points="471,-519 471,-538 604,-538 604,-519 471,-519"/>
<text text-anchor="middle" x="537.5" y="-526" font-family="FreeSans" font-size="10.00">DGtal::CameraUpVector</text>
</a>
</g>
</g>
<!-- Node1&#45;&gt;Node4 -->
<g id="edge4" class="edge">
<title>Node1&#45;&gt;Node4</title>
<path fill="none" stroke="midnightblue" d="M374.3,-489.55C396.27,-496.24 421.69,-503.62 445,-509.5 458.37,-512.87 472.95,-516.1 486.46,-518.91"/>
<polygon fill="midnightblue" stroke="midnightblue" points="375.05,-486.12 364.46,-486.54 373,-492.82 375.05,-486.12"/>
</g>
<!-- Node5 -->
<g id="node6" class="node">
<title>Node5</title>
<g id="a_node6"><a xlink:href="structDGtal_1_1CameraZNearFar.html" target="_top" xlink:title="CameraZNearFar class to set near and far distance.">
<polygon fill="white" stroke="black" points="471,-481 471,-500 604,-500 604,-481 471,-481"/>
<text text-anchor="middle" x="537.5" y="-488" font-family="FreeSans" font-size="10.00">DGtal::CameraZNearFar</text>
</a>
</g>
</g>
<!-- Node1&#45;&gt;Node5 -->
<g id="edge5" class="edge">
<title>Node1&#45;&gt;Node5</title>
<path fill="none" stroke="midnightblue" d="M404.99,-479.09C426.9,-480.99 450.03,-483 470.69,-484.79"/>
<polygon fill="midnightblue" stroke="midnightblue" points="405.28,-475.6 395.02,-478.23 404.68,-482.58 405.28,-475.6"/>
</g>
<!-- Node577 -->
<g id="node7" class="node">
<title>Node577</title>
<g id="a_node7"><a xlink:href="structDGtal_1_1DrawWithDisplay3DModifier.html" target="_top" xlink:title="Base class specifying the methods for classes which intend to modify a Viewer3D stream.">
<polygon fill="white" stroke="black" points="0,-274 0,-293 188,-293 188,-274 0,-274"/>
<text text-anchor="middle" x="94" y="-281" font-family="FreeSans" font-size="10.00">DGtal::DrawWithDisplay3DModifier</text>
</a>
</g>
</g>
<!-- Node578 -->
<g id="node8" class="node">
<title>Node578</title>
<g id="a_node8"><a xlink:href="structDGtal_1_1ClippingPlane.html" target="_top" xlink:title="Class for adding a Clipping plane through the Viewer3D stream. Realizes the concept CDrawableWithView...">
<polygon fill="white" stroke="black" points="258,-255 258,-274 375,-274 375,-255 258,-255"/>
<text text-anchor="middle" x="316.5" y="-262" font-family="FreeSans" font-size="10.00">DGtal::ClippingPlane</text>
</a>
</g>
</g>
<!-- Node577&#45;&gt;Node578 -->
<g id="edge6" class="edge">
<title>Node577&#45;&gt;Node578</title>
<path fill="none" stroke="midnightblue" d="M198.21,-274.61C218.7,-272.84 239.51,-271.05 257.8,-269.47"/>
<polygon fill="midnightblue" stroke="midnightblue" points="197.85,-271.12 188.19,-275.47 198.46,-278.1 197.85,-271.12"/>
</g>
<!-- Node579 -->
<g id="node9" class="node">
<title>Node579</title>
<g id="a_node9"><a xlink:href="structDGtal_1_1CustomColors3D.html" target="_top" xlink:title=" ">
<polygon fill="white" stroke="black" points="250.5,-217 250.5,-236 382.5,-236 382.5,-217 250.5,-217"/>
<text text-anchor="middle" x="316.5" y="-224" font-family="FreeSans" font-size="10.00">DGtal::CustomColors3D</text>
</a>
</g>
</g>
<!-- Node577&#45;&gt;Node579 -->
<g id="edge7" class="edge">
<title>Node577&#45;&gt;Node579</title>
<path fill="none" stroke="midnightblue" d="M134.44,-270.97C159.86,-263.12 193.71,-253.09 224,-245.5 237.53,-242.11 252.3,-238.85 265.95,-236.02"/>
<polygon fill="midnightblue" stroke="midnightblue" points="133.3,-267.66 124.79,-273.97 135.37,-274.35 133.3,-267.66"/>
</g>
<!-- Node580 -->
<g id="node10" class="node">
<title>Node580</title>
<g id="a_node10"><a xlink:href="structDGtal_1_1CustomStyle3D.html" target="_top" xlink:title="Modifier class in a Display3D stream. Useful to choose your own style for a given class....">
<polygon fill="white" stroke="black" points="253.5,-179 253.5,-198 379.5,-198 379.5,-179 253.5,-179"/>
<text text-anchor="middle" x="316.5" y="-186" font-family="FreeSans" font-size="10.00">DGtal::CustomStyle3D</text>
</a>
</g>
</g>
<!-- Node577&#45;&gt;Node580 -->
<g id="edge8" class="edge">
<title>Node577&#45;&gt;Node580</title>
<path fill="none" stroke="midnightblue" d="M116.06,-268.14C140.72,-250.86 183.4,-223.18 224,-207.5 233.84,-203.7 244.58,-200.61 255.13,-198.1"/>
<polygon fill="midnightblue" stroke="midnightblue" points="113.95,-265.34 107.82,-273.99 118,-271.05 113.95,-265.34"/>
</g>
<!-- Node581 -->
<g id="node11" class="node">
<title>Node581</title>
<g id="a_node11"><a xlink:href="structDGtal_1_1DrawWithViewer3DModifier.html" target="_top" xlink:title="Base class specifying the methods for classes which intend to modify a Viewer3D stream.">
<polygon fill="white" stroke="black" points="224,-293 224,-312 409,-312 409,-293 224,-293"/>
<text text-anchor="middle" x="316.5" y="-300" font-family="FreeSans" font-size="10.00">DGtal::DrawWithViewer3DModifier</text>
</a>
</g>
</g>
<!-- Node577&#45;&gt;Node581 -->
<g id="edge9" class="edge">
<title>Node577&#45;&gt;Node581</title>
<path fill="none" stroke="midnightblue" d="M198.16,-292.39C206.68,-293.12 215.26,-293.86 223.7,-294.59"/>
<polygon fill="midnightblue" stroke="midnightblue" points="198.46,-288.9 188.19,-291.53 197.85,-295.88 198.46,-288.9"/>
</g>
<!-- Node590 -->
<g id="node20" class="node">
<title>Node590</title>
<g id="a_node20"><a xlink:href="structDGtal_1_1SetMode3D.html" target="_top" xlink:title="Modifier class in a Display3D stream. Useful to choose your own mode for a given class....">
<polygon fill="white" stroke="black" points="263,-141 263,-160 370,-160 370,-141 263,-141"/>
<text text-anchor="middle" x="316.5" y="-148" font-family="FreeSans" font-size="10.00">DGtal::SetMode3D</text>
</a>
</g>
</g>
<!-- Node577&#45;&gt;Node590 -->
<g id="edge22" class="edge">
<title>Node577&#45;&gt;Node590</title>
<path fill="none" stroke="midnightblue" d="M109.42,-265.94C131.37,-240.47 175.74,-193.67 224,-169.5 235.9,-163.54 249.56,-159.45 262.64,-156.64"/>
<polygon fill="midnightblue" stroke="midnightblue" points="106.65,-263.8 102.87,-273.7 111.99,-268.32 106.65,-263.8"/>
</g>
<!-- Node591 -->
<g id="node21" class="node">
<title>Node591</title>
<g id="a_node21"><a xlink:href="structDGtal_1_1SetName3D.html" target="_top" xlink:title=" ">
<polygon fill="white" stroke="black" points="262,-407 262,-426 371,-426 371,-407 262,-407"/>
<text text-anchor="middle" x="316.5" y="-414" font-family="FreeSans" font-size="10.00">DGtal::SetName3D</text>
</a>
</g>
</g>
<!-- Node577&#45;&gt;Node591 -->
<g id="edge23" class="edge">
<title>Node577&#45;&gt;Node591</title>
<path fill="none" stroke="midnightblue" d="M109.42,-301.06C131.37,-326.53 175.74,-373.33 224,-397.5 235.61,-403.31 248.89,-407.35 261.68,-410.15"/>
<polygon fill="midnightblue" stroke="midnightblue" points="111.99,-298.68 102.87,-293.3 106.65,-303.2 111.99,-298.68"/>
</g>
<!-- Node592 -->
<g id="node22" class="node">
<title>Node592</title>
<g id="a_node22"><a xlink:href="structDGtal_1_1SetSelectCallback3D.html" target="_top" xlink:title=" ">
<polygon fill="white" stroke="black" points="240.5,-369 240.5,-388 392.5,-388 392.5,-369 240.5,-369"/>
<text text-anchor="middle" x="316.5" y="-376" font-family="FreeSans" font-size="10.00">DGtal::SetSelectCallback3D</text>
</a>
</g>
</g>
<!-- Node577&#45;&gt;Node592 -->
<g id="edge24" class="edge">
<title>Node577&#45;&gt;Node592</title>
<path fill="none" stroke="midnightblue" d="M116.06,-298.86C140.72,-316.14 183.4,-343.82 224,-359.5 233.84,-363.3 244.58,-366.39 255.13,-368.9"/>
<polygon fill="midnightblue" stroke="midnightblue" points="118,-295.95 107.82,-293.01 113.95,-301.66 118,-295.95"/>
</g>
<!-- Node593 -->
<g id="node23" class="node">
<title>Node593</title>
<g id="a_node23"><a xlink:href="structDGtal_1_1TransformedPrism.html" target="_top" xlink:title="class to modify the position and scale to construct better illustration mode.">
<polygon fill="white" stroke="black" points="247,-331 247,-350 386,-350 386,-331 247,-331"/>
<text text-anchor="middle" x="316.5" y="-338" font-family="FreeSans" font-size="10.00">DGtal::TransformedPrism</text>
</a>
</g>
</g>
<!-- Node577&#45;&gt;Node593 -->
<g id="edge25" class="edge">
<title>Node577&#45;&gt;Node593</title>
<path fill="none" stroke="midnightblue" d="M134.44,-296.03C159.86,-303.88 193.71,-313.91 224,-321.5 237.53,-324.89 252.3,-328.15 265.95,-330.98"/>
<polygon fill="midnightblue" stroke="midnightblue" points="135.37,-292.65 124.79,-293.03 133.3,-299.34 135.37,-292.65"/>
</g>
<!-- Node581&#45;&gt;Node2 -->
<g id="edge12" class="edge">
<title>Node581&#45;&gt;Node2</title>
<path fill="none" stroke="midnightblue" d="M403.59,-317.2C405.48,-318.53 407.28,-319.96 409,-321.5 447.88,-356.46 406.12,-398.54 445,-433.5 452.36,-440.12 461.41,-444.66 470.92,-447.74"/>
<polygon fill="midnightblue" stroke="midnightblue" points="405.28,-314.14 394.9,-312.04 401.71,-320.16 405.28,-314.14"/>
</g>
<!-- Node581&#45;&gt;Node3 -->
<g id="edge13" class="edge">
<title>Node581&#45;&gt;Node3</title>
<path fill="none" stroke="midnightblue" d="M402.05,-316.79C404.46,-318.22 406.79,-319.79 409,-321.5 437.61,-343.64 416.51,-372.21 445,-394.5 453.2,-400.91 463.01,-405.37 473.13,-408.45"/>
<polygon fill="midnightblue" stroke="midnightblue" points="403.44,-313.57 392.94,-312.16 400.27,-319.81 403.44,-313.57"/>
</g>
<!-- Node581&#45;&gt;Node4 -->
<g id="edge14" class="edge">
<title>Node581&#45;&gt;Node4</title>
<path fill="none" stroke="midnightblue" d="M405.07,-317.9C406.43,-319.03 407.75,-320.23 409,-321.5 468.69,-382.12 385.31,-448.88 445,-509.5 452.06,-516.67 461.06,-521.48 470.66,-524.65"/>
<polygon fill="midnightblue" stroke="midnightblue" points="406.93,-314.94 396.7,-312.19 402.98,-320.72 406.93,-314.94"/>
</g>
<!-- Node581&#45;&gt;Node5 -->
<g id="edge15" class="edge">
<title>Node581&#45;&gt;Node5</title>
<path fill="none" stroke="midnightblue" d="M404.86,-317.88C406.29,-319.01 407.68,-320.22 409,-321.5 458.22,-369.23 395.78,-423.77 445,-471.5 452.22,-478.5 461.31,-483.23 470.94,-486.37"/>
<polygon fill="midnightblue" stroke="midnightblue" points="406.37,-314.69 396.08,-312.15 402.54,-320.55 406.37,-314.69"/>
</g>
<!-- Node582 -->
<g id="node12" class="node">
<title>Node582</title>
<g id="a_node12"><a xlink:href="structDGtal_1_1AddTextureImage2DWithFunctor.html" target="_top" xlink:title="class to insert a custom 2D textured image by using a conversion functor and allows to change the def...">
<polygon fill="white" stroke="black" points="450.5,-148 450.5,-189 624.5,-189 624.5,-148 450.5,-148"/>
<text text-anchor="start" x="458.5" y="-177" font-family="FreeSans" font-size="10.00">DGtal::AddTextureImage2DWith</text>
<text text-anchor="start" x="458.5" y="-166" font-family="FreeSans" font-size="10.00">Functor&lt; TImageType, TFunctor,</text>
<text text-anchor="middle" x="537.5" y="-155" font-family="FreeSans" font-size="10.00"> Space, KSpace &gt;</text>
</a>
</g>
</g>
<!-- Node581&#45;&gt;Node582 -->
<g id="edge10" class="edge">
<title>Node581&#45;&gt;Node582</title>
<path fill="none" stroke="midnightblue" d="M402.61,-288.11C404.83,-286.7 406.97,-285.17 409,-283.5 440.71,-257.47 414.8,-226.27 445,-198.5 448.81,-194.99 453.05,-191.89 457.54,-189.16"/>
<polygon fill="midnightblue" stroke="midnightblue" points="400.78,-285.12 393.63,-292.94 404.1,-291.28 400.78,-285.12"/>
</g>
<!-- Node583 -->
<g id="node13" class="node">
<title>Node583</title>
<g id="a_node13"><a xlink:href="structDGtal_1_1AddTextureImage3DWithFunctor.html" target="_top" xlink:title="class to insert a custom 3D textured image by using a conversion functor and allows to change the def...">
<polygon fill="white" stroke="black" points="450.5,-88 450.5,-129 624.5,-129 624.5,-88 450.5,-88"/>
<text text-anchor="start" x="458.5" y="-117" font-family="FreeSans" font-size="10.00">DGtal::AddTextureImage3DWith</text>
<text text-anchor="start" x="458.5" y="-106" font-family="FreeSans" font-size="10.00">Functor&lt; TImageType, TFunctor,</text>
<text text-anchor="middle" x="537.5" y="-95" font-family="FreeSans" font-size="10.00"> Space, KSpace &gt;</text>
</a>
</g>
</g>
<!-- Node581&#45;&gt;Node583 -->
<g id="edge11" class="edge">
<title>Node581&#45;&gt;Node583</title>
<path fill="none" stroke="midnightblue" d="M404.84,-287.1C406.29,-285.98 407.67,-284.78 409,-283.5 456.85,-237.46 399.8,-187.15 445,-138.5 448.3,-134.95 452.03,-131.82 456.04,-129.05"/>
<polygon fill="midnightblue" stroke="midnightblue" points="402.53,-284.43 396.05,-292.82 406.34,-290.31 402.53,-284.43"/>
</g>
<!-- Node584 -->
<g id="node14" class="node">
<title>Node584</title>
<g id="a_node14"><a xlink:href="structDGtal_1_1Translate2DDomain.html" target="_top" xlink:title="class to modify the data of an given image and also the possibility to translate it (optional).">
<polygon fill="white" stroke="black" points="464.5,-50 464.5,-69 610.5,-69 610.5,-50 464.5,-50"/>
<text text-anchor="middle" x="537.5" y="-57" font-family="FreeSans" font-size="10.00">DGtal::Translate2DDomain</text>
</a>
</g>
</g>
<!-- Node581&#45;&gt;Node584 -->
<g id="edge16" class="edge">
<title>Node581&#45;&gt;Node584</title>
<path fill="none" stroke="midnightblue" d="M405.09,-287.12C406.45,-285.99 407.76,-284.78 409,-283.5 473.39,-217.09 380.61,-144.91 445,-78.5 450.42,-72.91 457.03,-68.75 464.18,-65.67"/>
<polygon fill="midnightblue" stroke="midnightblue" points="403,-284.31 396.77,-292.88 406.98,-290.07 403,-284.31"/>
</g>
<!-- Node585 -->
<g id="node15" class="node">
<title>Node585</title>
<g id="a_node15"><a xlink:href="structDGtal_1_1Update2DDomainPosition.html" target="_top" xlink:title="class to modify the position and orientation of an 2D domain.">
<polygon fill="white" stroke="black" points="449.5,-0.5 449.5,-30.5 625.5,-30.5 625.5,-0.5 449.5,-0.5"/>
<text text-anchor="start" x="457.5" y="-18.5" font-family="FreeSans" font-size="10.00">DGtal::Update2DDomainPosition</text>
<text text-anchor="middle" x="537.5" y="-7.5" font-family="FreeSans" font-size="10.00">&lt; Space, KSpace &gt;</text>
</a>
</g>
</g>
<!-- Node581&#45;&gt;Node585 -->
<g id="edge17" class="edge">
<title>Node581&#45;&gt;Node585</title>
<path fill="none" stroke="midnightblue" d="M405.14,-287.17C406.49,-286.02 407.77,-284.8 409,-283.5 483.94,-204.11 372.55,-122.18 445,-40.5 448.39,-36.68 452.3,-33.42 456.55,-30.64"/>
<polygon fill="midnightblue" stroke="midnightblue" points="403.04,-284.37 396.88,-292.99 407.07,-290.09 403.04,-284.37"/>
</g>
<!-- Node586 -->
<g id="node16" class="node">
<title>Node586</title>
<g id="a_node16"><a xlink:href="structDGtal_1_1UpdateImage3DEmbedding.html" target="_top" xlink:title="class to modify the 3d embedding of the image (useful to display not only 2D slice images)....">
<polygon fill="white" stroke="black" points="445,-355.5 445,-385.5 630,-385.5 630,-355.5 445,-355.5"/>
<text text-anchor="start" x="453" y="-373.5" font-family="FreeSans" font-size="10.00">DGtal::UpdateImage3DEmbedding</text>
<text text-anchor="middle" x="537.5" y="-362.5" font-family="FreeSans" font-size="10.00">&lt; Space, KSpace &gt;</text>
</a>
</g>
</g>
<!-- Node581&#45;&gt;Node586 -->
<g id="edge18" class="edge">
<title>Node581&#45;&gt;Node586</title>
<path fill="none" stroke="midnightblue" d="M389.41,-314.67C396.14,-316.63 402.77,-318.89 409,-321.5 426.74,-328.92 427.5,-337.53 445,-345.5 453.24,-349.25 462.17,-352.55 471.1,-355.41"/>
<polygon fill="midnightblue" stroke="midnightblue" points="390.08,-311.22 379.51,-312.01 388.26,-317.98 390.08,-311.22"/>
</g>
<!-- Node587 -->
<g id="node17" class="node">
<title>Node587</title>
<g id="a_node17"><a xlink:href="structDGtal_1_1UpdateImageData.html" target="_top" xlink:title="class to modify the data of an given image and also the possibility to translate it (optional).">
<polygon fill="white" stroke="black" points="464.5,-306.5 464.5,-336.5 610.5,-336.5 610.5,-306.5 464.5,-306.5"/>
<text text-anchor="start" x="472.5" y="-324.5" font-family="FreeSans" font-size="10.00">DGtal::UpdateImageData</text>
<text text-anchor="middle" x="537.5" y="-313.5" font-family="FreeSans" font-size="10.00">&lt; TImageType, TFunctor &gt;</text>
</a>
</g>
</g>
<!-- Node581&#45;&gt;Node587 -->
<g id="edge19" class="edge">
<title>Node581&#45;&gt;Node587</title>
<path fill="none" stroke="midnightblue" d="M419.08,-311.31C434.32,-312.64 449.77,-313.98 464.24,-315.23"/>
<polygon fill="midnightblue" stroke="midnightblue" points="419.37,-307.83 409.11,-310.45 418.77,-314.8 419.37,-307.83"/>
</g>
<!-- Node588 -->
<g id="node18" class="node">
<title>Node588</title>
<g id="a_node18"><a xlink:href="structDGtal_1_1UpdateImagePosition.html" target="_top" xlink:title="class to modify the position and orientation of an textured 2D image.">
<polygon fill="white" stroke="black" points="460,-257.5 460,-287.5 615,-287.5 615,-257.5 460,-257.5"/>
<text text-anchor="start" x="468" y="-275.5" font-family="FreeSans" font-size="10.00">DGtal::UpdateImagePosition</text>
<text text-anchor="middle" x="537.5" y="-264.5" font-family="FreeSans" font-size="10.00">&lt; Space, KSpace &gt;</text>
</a>
</g>
</g>
<!-- Node581&#45;&gt;Node588 -->
<g id="edge20" class="edge">
<title>Node581&#45;&gt;Node588</title>
<path fill="none" stroke="midnightblue" d="M397.02,-291.61C417.51,-288.8 439.53,-285.78 459.87,-283"/>
<polygon fill="midnightblue" stroke="midnightblue" points="396.53,-288.14 387.09,-292.97 397.48,-295.08 396.53,-288.14"/>
</g>
<!-- Node589 -->
<g id="node19" class="node">
<title>Node589</title>
<g id="a_node19"><a xlink:href="structDGtal_1_1UpdateLastImagePosition.html" target="_top" xlink:title="class to modify the position and orientation of an textured 2D image.">
<polygon fill="white" stroke="black" points="449.5,-208.5 449.5,-238.5 625.5,-238.5 625.5,-208.5 449.5,-208.5"/>
<text text-anchor="start" x="457.5" y="-226.5" font-family="FreeSans" font-size="10.00">DGtal::UpdateLastImagePosition</text>
<text text-anchor="middle" x="537.5" y="-215.5" font-family="FreeSans" font-size="10.00">&lt; Space, KSpace &gt;</text>
</a>
</g>
</g>
<!-- Node581&#45;&gt;Node589 -->
<g id="edge21" class="edge">
<title>Node581&#45;&gt;Node589</title>
<path fill="none" stroke="midnightblue" d="M395.66,-289.57C400.28,-287.8 404.76,-285.79 409,-283.5 428.91,-272.75 425.37,-258.76 445,-247.5 450.98,-244.07 457.46,-241.11 464.12,-238.58"/>
<polygon fill="midnightblue" stroke="midnightblue" points="394.35,-286.32 386.03,-292.88 396.62,-292.94 394.35,-286.32"/>
</g>
</g>
</svg>
