<?xml version="1.0" encoding="UTF-8" standalone="no"?>
<!DOCTYPE svg PUBLIC "-//W3C//DTD SVG 1.1//EN"
 "http://www.w3.org/Graphics/SVG/1.1/DTD/svg11.dtd">
<!-- Generated by graphviz version 2.43.0 (0)
 -->
<!-- Title: DGtal::concepts::CInteger&lt; T &gt; Pages: 1 -->
<svg width="1400pt" height="115pt"
 viewBox="0.00 0.00 1400.00 114.50" xmlns="http://www.w3.org/2000/svg" xmlns:xlink="http://www.w3.org/1999/xlink">
<g id="graph0" class="graph" transform="scale(1 1) rotate(0) translate(4 110.5)">
<title>DGtal::concepts::CInteger&lt; T &gt;</title>
<polygon fill="white" stroke="transparent" points="-4,4 -4,-110.5 1396,-110.5 1396,4 -4,4"/>
<!-- Node1 -->
<g id="node1" class="node">
<title>Node1</title>
<g id="a_node1"><a xlink:title="Aim: Concept checking for Integer Numbers. More precisely, this concept is a refinement of both CEucl...">
<polygon fill="#bfbfbf" stroke="black" points="1222,-30 1222,-49 1392,-49 1392,-30 1222,-30"/>
<text text-anchor="middle" x="1307" y="-37" font-family="FreeSans" font-size="10.00">DGtal::concepts::CInteger&lt; T &gt;</text>
</a>
</g>
</g>
<!-- Node2 -->
<g id="node2" class="node">
<title>Node2</title>
<g id="a_node2"><a xlink:href="structDGtal_1_1concepts_1_1CEuclideanRing.html" target="_top" xlink:title="Aim: Defines the mathematical concept equivalent to a unitary commutative ring with a division operat...">
<polygon fill="white" stroke="black" points="1032,-47.5 1032,-77.5 1186,-77.5 1186,-47.5 1032,-47.5"/>
<text text-anchor="start" x="1040" y="-65.5" font-family="FreeSans" font-size="10.00">DGtal::concepts::CEuclidean</text>
<text text-anchor="middle" x="1109" y="-54.5" font-family="FreeSans" font-size="10.00">Ring&lt; T &gt;</text>
</a>
</g>
</g>
<!-- Node2&#45;&gt;Node1 -->
<g id="edge1" class="edge">
<title>Node2&#45;&gt;Node1</title>
<path fill="none" stroke="midnightblue" d="M1196.27,-52.38C1205.75,-51.26 1215.38,-50.13 1224.79,-49.03"/>
<polygon fill="midnightblue" stroke="midnightblue" points="1195.58,-48.93 1186.06,-53.57 1196.4,-55.89 1195.58,-48.93"/>
</g>
<!-- Node3 -->
<g id="node3" class="node">
<title>Node3</title>
<g id="a_node3"><a xlink:href="structDGtal_1_1concepts_1_1CCommutativeRing.html" target="_top" xlink:title="Aim: Defines the mathematical concept equivalent to a unitary commutative ring.">
<polygon fill="white" stroke="black" points="823,-49.5 823,-79.5 996,-79.5 996,-49.5 823,-49.5"/>
<text text-anchor="start" x="831" y="-67.5" font-family="FreeSans" font-size="10.00">DGtal::concepts::CCommutative</text>
<text text-anchor="middle" x="909.5" y="-56.5" font-family="FreeSans" font-size="10.00">Ring&lt; T &gt;</text>
</a>
</g>
</g>
<!-- Node3&#45;&gt;Node2 -->
<g id="edge2" class="edge">
<title>Node3&#45;&gt;Node2</title>
<path fill="none" stroke="midnightblue" d="M1006.32,-63.53C1014.92,-63.44 1023.54,-63.36 1031.93,-63.27"/>
<polygon fill="midnightblue" stroke="midnightblue" points="1006.23,-60.03 996.26,-63.63 1006.3,-67.03 1006.23,-60.03"/>
</g>
<!-- Node4 -->
<g id="node4" class="node">
<title>Node4</title>
<g id="a_node4"><a xlink:href="structDGtal_1_1concepts_1_1CSignedNumber.html" target="_top" xlink:title="Aim: Concept checking for Signed Numbers. Models of this concept should be listed in NumberTraits cla...">
<polygon fill="white" stroke="black" points="647,-47.5 647,-77.5 787,-77.5 787,-47.5 647,-47.5"/>
<text text-anchor="start" x="655" y="-65.5" font-family="FreeSans" font-size="10.00">DGtal::concepts::CSigned</text>
<text text-anchor="middle" x="717" y="-54.5" font-family="FreeSans" font-size="10.00">Number&lt; T &gt;</text>
</a>
</g>
</g>
<!-- Node4&#45;&gt;Node3 -->
<g id="edge3" class="edge">
<title>Node4&#45;&gt;Node3</title>
<path fill="none" stroke="midnightblue" d="M797.23,-63.33C805.67,-63.42 814.28,-63.51 822.79,-63.6"/>
<polygon fill="midnightblue" stroke="midnightblue" points="797.08,-59.83 787.04,-63.22 797.01,-66.83 797.08,-59.83"/>
</g>
<!-- Node5 -->
<g id="node5" class="node">
<title>Node5</title>
<g id="a_node5"><a xlink:href="structDGtal_1_1concepts_1_1CQuantity.html" target="_top" xlink:title="Aim: defines the concept of quantity in DGtal.">
<polygon fill="white" stroke="black" points="434,-30 434,-49 611,-49 611,-30 434,-30"/>
<text text-anchor="middle" x="522.5" y="-37" font-family="FreeSans" font-size="10.00">DGtal::concepts::CQuantity&lt; T &gt;</text>
</a>
</g>
</g>
<!-- Node5&#45;&gt;Node4 -->
<g id="edge4" class="edge">
<title>Node5&#45;&gt;Node4</title>
<path fill="none" stroke="midnightblue" d="M613.44,-50.25C624.65,-51.59 635.98,-52.94 646.81,-54.23"/>
<polygon fill="midnightblue" stroke="midnightblue" points="613.53,-46.73 603.19,-49.02 612.7,-53.68 613.53,-46.73"/>
</g>
<!-- Node11 -->
<g id="node11" class="node">
<title>Node11</title>
<g id="a_node11"><a xlink:href="structDGtal_1_1concepts_1_1CIntegralNumber.html" target="_top" xlink:title="Aim: Concept checking for Integral Numbers. Models of this concept should be listed in NumberTraits c...">
<polygon fill="white" stroke="black" points="837.5,-0.5 837.5,-30.5 981.5,-30.5 981.5,-0.5 837.5,-0.5"/>
<text text-anchor="start" x="845.5" y="-18.5" font-family="FreeSans" font-size="10.00">DGtal::concepts::CIntegral</text>
<text text-anchor="middle" x="909.5" y="-7.5" font-family="FreeSans" font-size="10.00">Number&lt; T &gt;</text>
</a>
</g>
</g>
<!-- Node5&#45;&gt;Node11 -->
<g id="edge11" class="edge">
<title>Node5&#45;&gt;Node11</title>
<path fill="none" stroke="midnightblue" d="M621.55,-33.39C688.9,-29.19 776.77,-23.71 837.43,-19.93"/>
<polygon fill="midnightblue" stroke="midnightblue" points="621.11,-29.91 611.34,-34.02 621.54,-36.89 621.11,-29.91"/>
</g>
<!-- Node6 -->
<g id="node6" class="node">
<title>Node6</title>
<g id="a_node6"><a xlink:href="structDGtal_1_1concepts_1_1CLabel.html" target="_top" xlink:title="Aim: Define the concept of DGtal labels. Models of CLabel can be default&#45;constructible,...">
<polygon fill="white" stroke="black" points="226,-49 226,-68 387,-68 387,-49 226,-49"/>
<text text-anchor="middle" x="306.5" y="-56" font-family="FreeSans" font-size="10.00">DGtal::concepts::CLabel&lt; T &gt;</text>
</a>
</g>
</g>
<!-- Node6&#45;&gt;Node5 -->
<g id="edge5" class="edge">
<title>Node6&#45;&gt;Node5</title>
<path fill="none" stroke="midnightblue" d="M397.27,-50.53C409.37,-49.46 421.77,-48.35 433.84,-47.28"/>
<polygon fill="midnightblue" stroke="midnightblue" points="396.84,-47.05 387.19,-51.43 397.46,-54.03 396.84,-47.05"/>
</g>
<!-- Node7 -->
<g id="node7" class="node">
<title>Node7</title>
<g id="a_node7"><a xlink:href="structboost_1_1DefaultConstructible.html" target="_top" xlink:title="Go to http://www.sgi.com/tech/stl/DefaultConstructible.html.">
<polygon fill="white" stroke="black" points="0,-87 0,-106 179,-106 179,-87 0,-87"/>
<text text-anchor="middle" x="89.5" y="-94" font-family="FreeSans" font-size="10.00">boost::DefaultConstructible&lt; T &gt;</text>
</a>
</g>
</g>
<!-- Node7&#45;&gt;Node6 -->
<g id="edge6" class="edge">
<title>Node7&#45;&gt;Node6</title>
<path fill="none" stroke="midnightblue" d="M154.7,-85.15C185.55,-79.7 222.11,-73.24 251.5,-68.04"/>
<polygon fill="midnightblue" stroke="midnightblue" points="153.71,-81.77 144.48,-86.96 154.93,-88.67 153.71,-81.77"/>
</g>
<!-- Node8 -->
<g id="node8" class="node">
<title>Node8</title>
<g id="a_node8"><a xlink:href="structboost_1_1Assignable.html" target="_top" xlink:title="Go to http://www.sgi.com/tech/stl/Assignable.html.">
<polygon fill="white" stroke="black" points="24,-49 24,-68 155,-68 155,-49 24,-49"/>
<text text-anchor="middle" x="89.5" y="-56" font-family="FreeSans" font-size="10.00">boost::Assignable&lt; T &gt;</text>
</a>
</g>
</g>
<!-- Node8&#45;&gt;Node6 -->
<g id="edge7" class="edge">
<title>Node8&#45;&gt;Node6</title>
<path fill="none" stroke="midnightblue" d="M165.1,-58.5C184.71,-58.5 205.94,-58.5 225.81,-58.5"/>
<polygon fill="midnightblue" stroke="midnightblue" points="165.01,-55 155.01,-58.5 165.01,-62 165.01,-55"/>
</g>
<!-- Node9 -->
<g id="node9" class="node">
<title>Node9</title>
<g id="a_node9"><a xlink:href="structboost_1_1EqualityComparable.html" target="_top" xlink:title="Go to http://www.sgi.com/tech/stl/EqualityComparable.html.">
<polygon fill="white" stroke="black" points="1,-11 1,-30 178,-30 178,-11 1,-11"/>
<text text-anchor="middle" x="89.5" y="-18" font-family="FreeSans" font-size="10.00">boost::EqualityComparable&lt; T &gt;</text>
</a>
</g>
</g>
<!-- Node9&#45;&gt;Node6 -->
<g id="edge8" class="edge">
<title>Node9&#45;&gt;Node6</title>
<path fill="none" stroke="midnightblue" d="M154.7,-31.85C185.55,-37.3 222.11,-43.76 251.5,-48.96"/>
<polygon fill="midnightblue" stroke="midnightblue" points="154.93,-28.33 144.48,-30.04 153.71,-35.23 154.93,-28.33"/>
</g>
<!-- Node10 -->
<g id="node10" class="node">
<title>Node10</title>
<g id="a_node10"><a xlink:href="structboost_1_1LessThanComparable.html" target="_top" xlink:title="Go to http://www.sgi.com/tech/stl/LessThanComparable.html.">
<polygon fill="white" stroke="black" points="215,-11 215,-30 398,-30 398,-11 215,-11"/>
<text text-anchor="middle" x="306.5" y="-18" font-family="FreeSans" font-size="10.00">boost::LessThanComparable&lt; T &gt;</text>
</a>
</g>
</g>
<!-- Node10&#45;&gt;Node5 -->
<g id="edge9" class="edge">
<title>Node10&#45;&gt;Node5</title>
<path fill="none" stroke="midnightblue" d="M408.48,-29.47C416.9,-30.21 425.37,-30.96 433.67,-31.7"/>
<polygon fill="midnightblue" stroke="midnightblue" points="408.53,-25.96 398.26,-28.56 407.91,-32.93 408.53,-25.96"/>
</g>
<!-- Node11&#45;&gt;Node1 -->
<g id="edge10" class="edge">
<title>Node11&#45;&gt;Node1</title>
<path fill="none" stroke="midnightblue" d="M991.77,-20.43C1058.86,-24.5 1153.76,-30.26 1221.68,-34.38"/>
<polygon fill="midnightblue" stroke="midnightblue" points="991.86,-16.93 981.66,-19.82 991.43,-23.92 991.86,-16.93"/>
</g>
</g>
</svg>
