<?xml version="1.0" encoding="UTF-8" standalone="no"?>
<!DOCTYPE svg PUBLIC "-//W3C//DTD SVG 1.1//EN"
 "http://www.w3.org/Graphics/SVG/1.1/DTD/svg11.dtd">
<!-- Generated by graphviz version 2.43.0 (0)
 -->
<!-- Title: DGtal::concepts::CSinglePassRangeWithWritableIterator&lt; T, Value &gt; Pages: 1 -->
<svg width="815pt" height="110pt"
 viewBox="0.00 0.00 815.00 110.00" xmlns="http://www.w3.org/2000/svg" xmlns:xlink="http://www.w3.org/1999/xlink">
<g id="graph0" class="graph" transform="scale(1 1) rotate(0) translate(4 106)">
<title>DGtal::concepts::CSinglePassRangeWithWritableIterator&lt; T, Value &gt;</title>
<polygon fill="white" stroke="transparent" points="-4,4 -4,-106 811,-106 811,4 -4,4"/>
<!-- Node1 -->
<g id="node1" class="node">
<title>Node1</title>
<g id="a_node1"><a xlink:title="Aim: refined concept of const single pass range which require that an output iterator exists.">
<polygon fill="#bfbfbf" stroke="black" points="200,-30.5 200,-71.5 369,-71.5 369,-30.5 200,-30.5"/>
<text text-anchor="start" x="208" y="-59.5" font-family="FreeSans" font-size="10.00">DGtal::concepts::CSingle</text>
<text text-anchor="start" x="208" y="-48.5" font-family="FreeSans" font-size="10.00">PassRangeWithWritableIterator</text>
<text text-anchor="middle" x="284.5" y="-37.5" font-family="FreeSans" font-size="10.00">&lt; T, Value &gt;</text>
</a>
</g>
</g>
<!-- Node3 -->
<g id="node3" class="node">
<title>Node3</title>
<g id="a_node3"><a xlink:href="structDGtal_1_1concepts_1_1CBidirectionalRangeWithWritableIterator.html" target="_top" xlink:title="Aim: refined concept of bidirectional range which require that a reverse output iterator exists.">
<polygon fill="white" stroke="black" points="405.5,-60.5 405.5,-101.5 573.5,-101.5 573.5,-60.5 405.5,-60.5"/>
<text text-anchor="start" x="413.5" y="-89.5" font-family="FreeSans" font-size="10.00">DGtal::concepts::CBidirectional</text>
<text text-anchor="start" x="413.5" y="-78.5" font-family="FreeSans" font-size="10.00">RangeWithWritableIterator</text>
<text text-anchor="middle" x="489.5" y="-67.5" font-family="FreeSans" font-size="10.00">&lt; T, Value &gt;</text>
</a>
</g>
</g>
<!-- Node1&#45;&gt;Node3 -->
<g id="edge2" class="edge">
<title>Node1&#45;&gt;Node3</title>
<path fill="none" stroke="midnightblue" d="M379.35,-64.87C388,-66.15 396.73,-67.44 405.28,-68.7"/>
<polygon fill="midnightblue" stroke="midnightblue" points="379.64,-61.37 369.24,-63.38 378.62,-68.3 379.64,-61.37"/>
</g>
<!-- Node5 -->
<g id="node5" class="node">
<title>Node5</title>
<g id="a_node5"><a xlink:href="structDGtal_1_1concepts_1_1CSinglePassRangeWithWritableIteratorFromPoint.html" target="_top" xlink:title="Aim: refined concept of single pass range with a outputIterator() method from a point.">
<polygon fill="white" stroke="black" points="405,-0.5 405,-41.5 574,-41.5 574,-0.5 405,-0.5"/>
<text text-anchor="start" x="413" y="-29.5" font-family="FreeSans" font-size="10.00">DGtal::concepts::CSingle</text>
<text text-anchor="start" x="413" y="-18.5" font-family="FreeSans" font-size="10.00">PassRangeWithWritableIterator</text>
<text text-anchor="middle" x="489.5" y="-7.5" font-family="FreeSans" font-size="10.00">FromPoint&lt; T, Value &gt;</text>
</a>
</g>
</g>
<!-- Node1&#45;&gt;Node5 -->
<g id="edge4" class="edge">
<title>Node1&#45;&gt;Node5</title>
<path fill="none" stroke="midnightblue" d="M379.26,-37.14C387.83,-35.88 396.48,-34.6 404.95,-33.35"/>
<polygon fill="midnightblue" stroke="midnightblue" points="378.62,-33.7 369.24,-38.62 379.64,-40.63 378.62,-33.7"/>
</g>
<!-- Node2 -->
<g id="node2" class="node">
<title>Node2</title>
<g id="a_node2"><a xlink:href="structDGtal_1_1concepts_1_1CConstSinglePassRange.html" target="_top" xlink:title="Aim: Defines the concept describing a const single pass range.">
<polygon fill="white" stroke="black" points="0,-36 0,-66 164,-66 164,-36 0,-36"/>
<text text-anchor="start" x="8" y="-54" font-family="FreeSans" font-size="10.00">DGtal::concepts::CConstSingle</text>
<text text-anchor="middle" x="82" y="-43" font-family="FreeSans" font-size="10.00">PassRange&lt; T &gt;</text>
</a>
</g>
</g>
<!-- Node2&#45;&gt;Node1 -->
<g id="edge1" class="edge">
<title>Node2&#45;&gt;Node1</title>
<path fill="none" stroke="midnightblue" d="M174.5,-51C182.94,-51 191.47,-51 199.84,-51"/>
<polygon fill="midnightblue" stroke="midnightblue" points="174.26,-47.5 164.26,-51 174.26,-54.5 174.26,-47.5"/>
</g>
<!-- Node4 -->
<g id="node4" class="node">
<title>Node4</title>
<g id="a_node4"><a xlink:href="structDGtal_1_1concepts_1_1CBidirectionalRangeWithWritableIteratorFromPoint.html" target="_top" xlink:title="Aim: refined concept of single pass range with an routputIterator() method from a point.">
<polygon fill="white" stroke="black" points="610,-60.5 610,-101.5 807,-101.5 807,-60.5 610,-60.5"/>
<text text-anchor="start" x="618" y="-89.5" font-family="FreeSans" font-size="10.00">DGtal::concepts::CBidirectional</text>
<text text-anchor="start" x="618" y="-78.5" font-family="FreeSans" font-size="10.00">RangeWithWritableIteratorFromPoint</text>
<text text-anchor="middle" x="708.5" y="-67.5" font-family="FreeSans" font-size="10.00">&lt; T, Value &gt;</text>
</a>
</g>
</g>
<!-- Node3&#45;&gt;Node4 -->
<g id="edge3" class="edge">
<title>Node3&#45;&gt;Node4</title>
<path fill="none" stroke="midnightblue" d="M583.85,-81C592.49,-81 601.26,-81 609.94,-81"/>
<polygon fill="midnightblue" stroke="midnightblue" points="583.78,-77.5 573.78,-81 583.78,-84.5 583.78,-77.5"/>
</g>
</g>
</svg>
