<?xml version="1.0" encoding="UTF-8" standalone="no"?>
<!DOCTYPE svg PUBLIC "-//W3C//DTD SVG 1.1//EN"
 "http://www.w3.org/Graphics/SVG/1.1/DTD/svg11.dtd">
<!-- Generated by graphviz version 2.43.0 (0)
 -->
<!-- Title: DGtal::concepts::CDrawableWithDisplay3D&lt; T, Sp, KSp &gt; Pages: 1 -->
<svg width="622pt" height="88pt"
 viewBox="0.00 0.00 622.00 88.00" xmlns="http://www.w3.org/2000/svg" xmlns:xlink="http://www.w3.org/1999/xlink">
<g id="graph0" class="graph" transform="scale(1 1) rotate(0) translate(4 84)">
<title>DGtal::concepts::CDrawableWithDisplay3D&lt; T, Sp, KSp &gt;</title>
<polygon fill="white" stroke="transparent" points="-4,4 -4,-84 618,-84 618,4 -4,4"/>
<!-- Node1 -->
<g id="node1" class="node">
<title>Node1</title>
<g id="a_node1"><a xlink:title=" ">
<polygon fill="#bfbfbf" stroke="black" points="0,-24.5 0,-54.5 161,-54.5 161,-24.5 0,-24.5"/>
<text text-anchor="start" x="8" y="-42.5" font-family="FreeSans" font-size="10.00">DGtal::concepts::CDrawable</text>
<text text-anchor="middle" x="80.5" y="-31.5" font-family="FreeSans" font-size="10.00">WithDisplay3D&lt; T, Sp, KSp &gt;</text>
</a>
</g>
</g>
<!-- Node2 -->
<g id="node2" class="node">
<title>Node2</title>
<g id="a_node2"><a xlink:href="structDGtal_1_1concepts_1_1CDrawableWithDisplay3D.html" target="_top" xlink:title=" ">
<polygon fill="white" stroke="black" points="260,-24.5 260,-54.5 413,-54.5 413,-24.5 260,-24.5"/>
<text text-anchor="start" x="268" y="-42.5" font-family="FreeSans" font-size="10.00">DGtal::concepts::CDrawable</text>
<text text-anchor="middle" x="336.5" y="-31.5" font-family="FreeSans" font-size="10.00">WithDisplay3D&lt; T, S, KS &gt;</text>
</a>
</g>
</g>
<!-- Node1&#45;&gt;Node2 -->
<g id="edge1" class="edge">
<title>Node1&#45;&gt;Node2</title>
<path fill="none" stroke="orange" stroke-dasharray="5,2" d="M171.25,-39.5C200.12,-39.5 231.81,-39.5 259.58,-39.5"/>
<polygon fill="orange" stroke="orange" points="171.17,-36 161.17,-39.5 171.17,-43 171.17,-36"/>
<text text-anchor="middle" x="210.5" y="-42.5" font-family="FreeSans" font-size="10.00"> &lt; T, S, KS &gt;</text>
</g>
<!-- Node3 -->
<g id="node3" class="node">
<title>Node3</title>
<g id="a_node3"><a xlink:href="structDGtal_1_1concepts_1_1CDrawableWithBoard3DTo2D.html" target="_top" xlink:title=" ">
<polygon fill="white" stroke="black" points="450,-49.5 450,-79.5 614,-79.5 614,-49.5 450,-49.5"/>
<text text-anchor="start" x="458" y="-67.5" font-family="FreeSans" font-size="10.00">DGtal::concepts::CDrawable</text>
<text text-anchor="middle" x="532" y="-56.5" font-family="FreeSans" font-size="10.00">WithBoard3DTo2D&lt; T, S, KS &gt;</text>
</a>
</g>
</g>
<!-- Node2&#45;&gt;Node3 -->
<g id="edge2" class="edge">
<title>Node2&#45;&gt;Node3</title>
<path fill="none" stroke="midnightblue" d="M423.14,-50.57C432.06,-51.72 441.11,-52.89 449.98,-54.03"/>
<polygon fill="midnightblue" stroke="midnightblue" points="423.51,-47.08 413.14,-49.27 422.61,-54.03 423.51,-47.08"/>
</g>
<!-- Node4 -->
<g id="node4" class="node">
<title>Node4</title>
<g id="a_node4"><a xlink:href="structDGtal_1_1concepts_1_1CDrawableWithViewer3D.html" target="_top" xlink:title="Aim: The concept CDrawableWithViewer3D specifies what are the classes that admit an export with Viewe...">
<polygon fill="white" stroke="black" points="455.5,-0.5 455.5,-30.5 608.5,-30.5 608.5,-0.5 455.5,-0.5"/>
<text text-anchor="start" x="463.5" y="-18.5" font-family="FreeSans" font-size="10.00">DGtal::concepts::CDrawable</text>
<text text-anchor="middle" x="532" y="-7.5" font-family="FreeSans" font-size="10.00">WithViewer3D&lt; T, S, KS &gt;</text>
</a>
</g>
</g>
<!-- Node2&#45;&gt;Node4 -->
<g id="edge3" class="edge">
<title>Node2&#45;&gt;Node4</title>
<path fill="none" stroke="midnightblue" d="M423.32,-28.86C434.01,-27.53 444.89,-26.18 455.41,-24.88"/>
<polygon fill="midnightblue" stroke="midnightblue" points="422.64,-25.41 413.14,-30.12 423.5,-32.36 422.64,-25.41"/>
</g>
</g>
</svg>
