<?xml version="1.0" encoding="UTF-8" standalone="no"?>
<!DOCTYPE svg PUBLIC "-//W3C//DTD SVG 1.1//EN"
 "http://www.w3.org/Graphics/SVG/1.1/DTD/svg11.dtd">
<!-- Generated by graphviz version 2.43.0 (0)
 -->
<!-- Title: testTrace.cpp Pages: 1 -->
<svg width="2950pt" height="319pt"
 viewBox="0.00 0.00 2950.00 319.00" xmlns="http://www.w3.org/2000/svg" xmlns:xlink="http://www.w3.org/1999/xlink">
<g id="graph0" class="graph" transform="scale(1 1) rotate(0) translate(4 315)">
<title>testTrace.cpp</title>
<polygon fill="white" stroke="transparent" points="-4,4 -4,-315 2946,-315 2946,4 -4,4"/>
<!-- Node1 -->
<g id="node1" class="node">
<title>Node1</title>
<g id="a_node1"><a xlink:title=" ">
<polygon fill="#bfbfbf" stroke="black" points="1158.5,-291.5 1158.5,-310.5 1239.5,-310.5 1239.5,-291.5 1158.5,-291.5"/>
<text text-anchor="middle" x="1199" y="-298.5" font-family="FreeSans" font-size="10.00">testTrace.cpp</text>
</a>
</g>
</g>
<!-- Node2 -->
<g id="node2" class="node">
<title>Node2</title>
<g id="a_node2"><a xlink:title=" ">
<polygon fill="white" stroke="#bfbfbf" points="0,-235.5 0,-254.5 46,-254.5 46,-235.5 0,-235.5"/>
<text text-anchor="middle" x="23" y="-242.5" font-family="FreeSans" font-size="10.00">cstdio</text>
</a>
</g>
</g>
<!-- Node1&#45;&gt;Node2 -->
<g id="edge1" class="edge">
<title>Node1&#45;&gt;Node2</title>
<path fill="none" stroke="midnightblue" d="M1158.29,-299.48C981.4,-297.04 278.65,-285.6 60,-255 58.75,-254.82 57.48,-254.63 56.2,-254.41"/>
<polygon fill="midnightblue" stroke="midnightblue" points="56.85,-250.97 46.35,-252.42 55.46,-257.83 56.85,-250.97"/>
</g>
<!-- Node3 -->
<g id="node3" class="node">
<title>Node3</title>
<g id="a_node3"><a xlink:title=" ">
<polygon fill="white" stroke="#bfbfbf" points="2712.5,-112.5 2712.5,-131.5 2759.5,-131.5 2759.5,-112.5 2712.5,-112.5"/>
<text text-anchor="middle" x="2736" y="-119.5" font-family="FreeSans" font-size="10.00">cmath</text>
</a>
</g>
</g>
<!-- Node1&#45;&gt;Node3 -->
<g id="edge2" class="edge">
<title>Node1&#45;&gt;Node3</title>
<path fill="none" stroke="midnightblue" d="M1239.78,-298.96C1482.46,-292.56 2727.59,-256.99 2782,-199 2799.45,-180.4 2775.16,-154.11 2755.77,-137.84"/>
<polygon fill="midnightblue" stroke="midnightblue" points="2757.89,-135.05 2747.9,-131.52 2753.51,-140.51 2757.89,-135.05"/>
</g>
<!-- Node4 -->
<g id="node4" class="node">
<title>Node4</title>
<g id="a_node4"><a xlink:title=" ">
<polygon fill="white" stroke="#bfbfbf" points="1003,-0.5 1003,-19.5 1063,-19.5 1063,-0.5 1003,-0.5"/>
<text text-anchor="middle" x="1033" y="-7.5" font-family="FreeSans" font-size="10.00">iostream</text>
</a>
</g>
</g>
<!-- Node1&#45;&gt;Node4 -->
<g id="edge3" class="edge">
<title>Node1&#45;&gt;Node4</title>
<path fill="none" stroke="midnightblue" d="M1178.52,-291.41C1144.93,-276.55 1077.43,-243.31 1033,-199 982.62,-148.75 926.51,-118.24 961,-56 969.09,-41.41 984.1,-30.92 998.34,-23.76"/>
<polygon fill="midnightblue" stroke="midnightblue" points="999.89,-26.9 1007.5,-19.53 996.95,-20.55 999.89,-26.9"/>
</g>
<!-- Node5 -->
<g id="node5" class="node">
<title>Node5</title>
<g id="a_node5"><a xlink:title=" ">
<polygon fill="white" stroke="#bfbfbf" points="2850.5,-235.5 2850.5,-254.5 2905.5,-254.5 2905.5,-235.5 2850.5,-235.5"/>
<text text-anchor="middle" x="2878" y="-242.5" font-family="FreeSans" font-size="10.00">fstream</text>
</a>
</g>
</g>
<!-- Node1&#45;&gt;Node5 -->
<g id="edge4" class="edge">
<title>Node1&#45;&gt;Node5</title>
<path fill="none" stroke="midnightblue" d="M1239.72,-299.89C1460.22,-299.17 2513.13,-293.7 2836,-255 2837.29,-254.85 2838.6,-254.67 2839.92,-254.48"/>
<polygon fill="midnightblue" stroke="midnightblue" points="2840.84,-257.87 2850.11,-252.72 2839.66,-250.97 2840.84,-257.87"/>
</g>
<!-- Node6 -->
<g id="node6" class="node">
<title>Node6</title>
<g id="a_node6"><a xlink:href="Config_8h_source.html" target="_top" xlink:title=" ">
<polygon fill="white" stroke="black" points="86.5,-56.5 86.5,-75.5 199.5,-75.5 199.5,-56.5 86.5,-56.5"/>
<text text-anchor="middle" x="143" y="-63.5" font-family="FreeSans" font-size="10.00">DGtal/base/Config.h</text>
</a>
</g>
</g>
<!-- Node1&#45;&gt;Node6 -->
<g id="edge5" class="edge">
<title>Node1&#45;&gt;Node6</title>
<path fill="none" stroke="midnightblue" d="M1158.32,-300.32C990.96,-301 356.38,-296.95 187,-199 155.29,-180.66 150.2,-166.88 139,-132 134.14,-116.86 135.82,-98.74 138.33,-85.48"/>
<polygon fill="midnightblue" stroke="midnightblue" points="141.76,-86.18 140.51,-75.66 134.93,-84.67 141.76,-86.18"/>
</g>
<!-- Node8 -->
<g id="node8" class="node">
<title>Node8</title>
<g id="a_node8"><a xlink:href="Common_8h_source.html" target="_top" xlink:title=" ">
<polygon fill="white" stroke="black" points="1407.5,-235.5 1407.5,-254.5 1534.5,-254.5 1534.5,-235.5 1407.5,-235.5"/>
<text text-anchor="middle" x="1471" y="-242.5" font-family="FreeSans" font-size="10.00">DGtal/base/Common.h</text>
</a>
</g>
</g>
<!-- Node1&#45;&gt;Node8 -->
<g id="edge8" class="edge">
<title>Node1&#45;&gt;Node8</title>
<path fill="none" stroke="midnightblue" d="M1239.72,-291.92C1287.1,-282.51 1365.48,-266.95 1417.68,-256.59"/>
<polygon fill="midnightblue" stroke="midnightblue" points="1418.62,-259.97 1427.75,-254.59 1417.26,-253.1 1418.62,-259.97"/>
</g>
<!-- Node6&#45;&gt;Node4 -->
<g id="edge6" class="edge">
<title>Node6&#45;&gt;Node4</title>
<path fill="none" stroke="midnightblue" d="M199.54,-61.53C226.87,-59.85 260.14,-57.82 290,-56 558.35,-39.66 881.23,-20.16 992.79,-13.43"/>
<polygon fill="midnightblue" stroke="midnightblue" points="993.15,-16.91 1002.92,-12.81 992.73,-9.92 993.15,-16.91"/>
</g>
<!-- Node7 -->
<g id="node7" class="node">
<title>Node7</title>
<g id="a_node7"><a xlink:title=" ">
<polygon fill="white" stroke="#bfbfbf" points="206,-0.5 206,-19.5 250,-19.5 250,-0.5 206,-0.5"/>
<text text-anchor="middle" x="228" y="-7.5" font-family="FreeSans" font-size="10.00">string</text>
</a>
</g>
</g>
<!-- Node6&#45;&gt;Node7 -->
<g id="edge7" class="edge">
<title>Node6&#45;&gt;Node7</title>
<path fill="none" stroke="midnightblue" d="M156.66,-56.32C169.92,-47.9 190.27,-34.97 205.85,-25.07"/>
<polygon fill="midnightblue" stroke="midnightblue" points="207.81,-27.97 214.38,-19.65 204.06,-22.06 207.81,-27.97"/>
</g>
<!-- Node8&#45;&gt;Node3 -->
<g id="edge18" class="edge">
<title>Node8&#45;&gt;Node3</title>
<path fill="none" stroke="midnightblue" d="M1534.53,-244.21C1788.84,-244.75 2721.86,-243.67 2765,-199 2780.87,-182.56 2765.1,-156.55 2751.34,-139.62"/>
<polygon fill="midnightblue" stroke="midnightblue" points="2753.69,-136.99 2744.51,-131.7 2748.39,-141.56 2753.69,-136.99"/>
</g>
<!-- Node8&#45;&gt;Node4 -->
<g id="edge9" class="edge">
<title>Node8&#45;&gt;Node4</title>
<path fill="none" stroke="midnightblue" d="M1407.28,-240.71C1377.88,-235.6 1345.46,-224.11 1327,-199 1302.77,-166.05 1326.91,-139.7 1357,-112 1389.74,-81.86 1469.69,-89.15 1440,-56 1415.78,-28.95 1170.99,-16.41 1073.12,-12.45"/>
<polygon fill="midnightblue" stroke="midnightblue" points="1073.16,-8.95 1063.03,-12.06 1072.88,-15.95 1073.16,-8.95"/>
</g>
<!-- Node8&#45;&gt;Node6 -->
<g id="edge20" class="edge">
<title>Node8&#45;&gt;Node6</title>
<path fill="none" stroke="midnightblue" d="M1407.37,-243.99C1200.12,-243.57 545.98,-239.03 339,-199 251.91,-182.16 206.46,-201.23 151,-132 140.68,-119.12 139.49,-99.94 140.4,-85.75"/>
<polygon fill="midnightblue" stroke="midnightblue" points="143.89,-85.96 141.44,-75.66 136.93,-85.25 143.89,-85.96"/>
</g>
<!-- Node9 -->
<g id="node9" class="node">
<title>Node9</title>
<g id="a_node9"><a xlink:title=" ">
<polygon fill="white" stroke="#bfbfbf" points="1551.5,-174 1551.5,-193 1616.5,-193 1616.5,-174 1551.5,-174"/>
<text text-anchor="middle" x="1584" y="-181" font-family="FreeSans" font-size="10.00">exception</text>
</a>
</g>
</g>
<!-- Node8&#45;&gt;Node9 -->
<g id="edge10" class="edge">
<title>Node8&#45;&gt;Node9</title>
<path fill="none" stroke="midnightblue" d="M1487.19,-235.48C1505.9,-225.62 1536.92,-209.29 1558.8,-197.77"/>
<polygon fill="midnightblue" stroke="midnightblue" points="1560.62,-200.77 1567.84,-193.01 1557.36,-194.57 1560.62,-200.77"/>
</g>
<!-- Node10 -->
<g id="node10" class="node">
<title>Node10</title>
<g id="a_node10"><a xlink:title=" ">
<polygon fill="white" stroke="#bfbfbf" points="1635,-174 1635,-193 1739,-193 1739,-174 1635,-174"/>
<text text-anchor="middle" x="1687" y="-181" font-family="FreeSans" font-size="10.00">boost/version.hpp</text>
</a>
</g>
</g>
<!-- Node8&#45;&gt;Node10 -->
<g id="edge11" class="edge">
<title>Node8&#45;&gt;Node10</title>
<path fill="none" stroke="midnightblue" d="M1501.95,-235.48C1539.88,-225.03 1604.28,-207.29 1646.22,-195.73"/>
<polygon fill="midnightblue" stroke="midnightblue" points="1647.4,-199.04 1656.11,-193.01 1645.54,-192.29 1647.4,-199.04"/>
</g>
<!-- Node11 -->
<g id="node11" class="node">
<title>Node11</title>
<g id="a_node11"><a xlink:title=" ">
<polygon fill="white" stroke="#bfbfbf" points="1757,-174 1757,-193 1897,-193 1897,-174 1757,-174"/>
<text text-anchor="middle" x="1827" y="-181" font-family="FreeSans" font-size="10.00">boost/concept_check.hpp</text>
</a>
</g>
</g>
<!-- Node8&#45;&gt;Node11 -->
<g id="edge12" class="edge">
<title>Node8&#45;&gt;Node11</title>
<path fill="none" stroke="midnightblue" d="M1525.45,-235.49C1581.35,-226.68 1670.83,-212.35 1748,-199 1755.63,-197.68 1763.67,-196.25 1771.58,-194.82"/>
<polygon fill="midnightblue" stroke="midnightblue" points="1772.28,-198.25 1781.49,-193.02 1771.03,-191.36 1772.28,-198.25"/>
</g>
<!-- Node12 -->
<g id="node12" class="node">
<title>Node12</title>
<g id="a_node12"><a xlink:title=" ">
<polygon fill="white" stroke="#bfbfbf" points="1915,-174 1915,-193 2045,-193 2045,-174 1915,-174"/>
<text text-anchor="middle" x="1980" y="-181" font-family="FreeSans" font-size="10.00">boost/static_assert.hpp</text>
</a>
</g>
</g>
<!-- Node8&#45;&gt;Node12 -->
<g id="edge13" class="edge">
<title>Node8&#45;&gt;Node12</title>
<path fill="none" stroke="midnightblue" d="M1534.62,-239.23C1619.57,-232.45 1774.59,-218.63 1906,-199 1913.74,-197.84 1921.9,-196.44 1929.86,-194.96"/>
<polygon fill="midnightblue" stroke="midnightblue" points="1930.62,-198.38 1939.79,-193.07 1929.31,-191.5 1930.62,-198.38"/>
</g>
<!-- Node13 -->
<g id="node13" class="node">
<title>Node13</title>
<g id="a_node13"><a xlink:title=" ">
<polygon fill="white" stroke="#bfbfbf" points="2063.5,-174 2063.5,-193 2202.5,-193 2202.5,-174 2063.5,-174"/>
<text text-anchor="middle" x="2133" y="-181" font-family="FreeSans" font-size="10.00">boost/concept/assert.hpp</text>
</a>
</g>
</g>
<!-- Node8&#45;&gt;Node13 -->
<g id="edge14" class="edge">
<title>Node8&#45;&gt;Node13</title>
<path fill="none" stroke="midnightblue" d="M1534.63,-241.27C1642.04,-236.17 1866,-223.44 2054,-199 2062.74,-197.86 2071.98,-196.4 2080.94,-194.85"/>
<polygon fill="midnightblue" stroke="midnightblue" points="2081.67,-198.28 2090.9,-193.07 2080.44,-191.39 2081.67,-198.28"/>
</g>
<!-- Node14 -->
<g id="node14" class="node">
<title>Node14</title>
<g id="a_node14"><a xlink:title=" ">
<polygon fill="white" stroke="#bfbfbf" points="2220.5,-174 2220.5,-193 2369.5,-193 2369.5,-174 2220.5,-174"/>
<text text-anchor="middle" x="2295" y="-181" font-family="FreeSans" font-size="10.00">boost/concept/requires.hpp</text>
</a>
</g>
</g>
<!-- Node8&#45;&gt;Node14 -->
<g id="edge15" class="edge">
<title>Node8&#45;&gt;Node14</title>
<path fill="none" stroke="midnightblue" d="M1534.65,-242.54C1663.11,-239.07 1962.39,-228.29 2212,-199 2221.6,-197.87 2231.77,-196.36 2241.58,-194.74"/>
<polygon fill="midnightblue" stroke="midnightblue" points="2242.36,-198.16 2251.63,-193.02 2241.18,-191.26 2242.36,-198.16"/>
</g>
<!-- Node15 -->
<g id="node15" class="node">
<title>Node15</title>
<g id="a_node15"><a xlink:title=" ">
<polygon fill="white" stroke="#bfbfbf" points="2388,-168.5 2388,-198.5 2510,-198.5 2510,-168.5 2388,-168.5"/>
<text text-anchor="start" x="2396" y="-186.5" font-family="FreeSans" font-size="10.00">boost/iterator/iterator</text>
<text text-anchor="middle" x="2449" y="-175.5" font-family="FreeSans" font-size="10.00">_concepts.hpp</text>
</a>
</g>
</g>
<!-- Node8&#45;&gt;Node15 -->
<g id="edge16" class="edge">
<title>Node8&#45;&gt;Node15</title>
<path fill="none" stroke="midnightblue" d="M1534.59,-244.22C1681.56,-244.01 2056.13,-239.29 2377.65,-199.03"/>
<polygon fill="midnightblue" stroke="midnightblue" points="2378.15,-202.5 2387.63,-197.77 2377.27,-195.56 2378.15,-202.5"/>
</g>
<!-- Node16 -->
<g id="node16" class="node">
<title>Node16</title>
<g id="a_node16"><a xlink:title=" ">
<polygon fill="white" stroke="#bfbfbf" points="2528,-174 2528,-193 2688,-193 2688,-174 2528,-174"/>
<text text-anchor="middle" x="2608" y="-181" font-family="FreeSans" font-size="10.00">boost/concept_archetype.hpp</text>
</a>
</g>
</g>
<!-- Node8&#45;&gt;Node16 -->
<g id="edge17" class="edge">
<title>Node8&#45;&gt;Node16</title>
<path fill="none" stroke="midnightblue" d="M1534.69,-243.89C1698.45,-243.04 2147.39,-237.11 2519,-199 2529.73,-197.9 2541.13,-196.34 2552.07,-194.65"/>
<polygon fill="midnightblue" stroke="midnightblue" points="2552.62,-198.11 2561.95,-193.07 2551.52,-191.19 2552.62,-198.11"/>
</g>
<!-- Node17 -->
<g id="node17" class="node">
<title>Node17</title>
<g id="a_node17"><a xlink:title=" ">
<polygon fill="white" stroke="#bfbfbf" points="2706,-174 2706,-193 2756,-193 2756,-174 2706,-174"/>
<text text-anchor="middle" x="2731" y="-181" font-family="FreeSans" font-size="10.00">stdio.h</text>
</a>
</g>
</g>
<!-- Node8&#45;&gt;Node17 -->
<g id="edge19" class="edge">
<title>Node8&#45;&gt;Node17</title>
<path fill="none" stroke="midnightblue" d="M1534.5,-243.03C1769.68,-239.23 2583.39,-224.39 2697,-199 2699.52,-198.44 2702.09,-197.69 2704.63,-196.84"/>
<polygon fill="midnightblue" stroke="midnightblue" points="2706.06,-200.03 2714.11,-193.14 2703.52,-193.51 2706.06,-200.03"/>
</g>
<!-- Node18 -->
<g id="node18" class="node">
<title>Node18</title>
<g id="a_node18"><a xlink:href="Trace_8h_source.html" target="_top" xlink:title=" ">
<polygon fill="white" stroke="black" points="465,-174 465,-193 573,-193 573,-174 465,-174"/>
<text text-anchor="middle" x="519" y="-181" font-family="FreeSans" font-size="10.00">DGtal/base/Trace.h</text>
</a>
</g>
</g>
<!-- Node8&#45;&gt;Node18 -->
<g id="edge21" class="edge">
<title>Node8&#45;&gt;Node18</title>
<path fill="none" stroke="midnightblue" d="M1407.43,-240.03C1234.45,-229.22 756.66,-199.35 583.08,-188.51"/>
<polygon fill="midnightblue" stroke="midnightblue" points="583.28,-185.01 573.08,-187.88 582.84,-192 583.28,-185.01"/>
</g>
<!-- Node25 -->
<g id="node25" class="node">
<title>Node25</title>
<g id="a_node25"><a xlink:href="TraceWriterTerm_8h_source.html" target="_top" xlink:title=" ">
<polygon fill="white" stroke="black" points="178,-112.5 178,-131.5 340,-131.5 340,-112.5 178,-112.5"/>
<text text-anchor="middle" x="259" y="-119.5" font-family="FreeSans" font-size="10.00">DGtal/base/TraceWriterTerm.h</text>
</a>
</g>
</g>
<!-- Node8&#45;&gt;Node25 -->
<g id="edge44" class="edge">
<title>Node8&#45;&gt;Node25</title>
<path fill="none" stroke="midnightblue" d="M1407.4,-244.41C1210.77,-245.19 614.62,-243.71 427,-199 372.25,-185.95 313.46,-154.98 282.01,-136.86"/>
<polygon fill="midnightblue" stroke="midnightblue" points="283.56,-133.71 273.16,-131.68 280.02,-139.75 283.56,-133.71"/>
</g>
<!-- Node26 -->
<g id="node26" class="node">
<title>Node26</title>
<g id="a_node26"><a xlink:href="Assert_8h_source.html" target="_top" xlink:title=" ">
<polygon fill="white" stroke="black" points="358.5,-112.5 358.5,-131.5 471.5,-131.5 471.5,-112.5 358.5,-112.5"/>
<text text-anchor="middle" x="415" y="-119.5" font-family="FreeSans" font-size="10.00">DGtal/base/Assert.h</text>
</a>
</g>
</g>
<!-- Node8&#45;&gt;Node26 -->
<g id="edge49" class="edge">
<title>Node8&#45;&gt;Node26</title>
<path fill="none" stroke="midnightblue" d="M1407.36,-242.9C1191.2,-238.94 496.35,-224.31 456,-199 435.61,-186.21 424.66,-159.56 419.34,-141.47"/>
<polygon fill="midnightblue" stroke="midnightblue" points="422.71,-140.52 416.77,-131.75 415.94,-142.31 422.71,-140.52"/>
</g>
<!-- Node29 -->
<g id="node29" class="node">
<title>Node29</title>
<g id="a_node29"><a xlink:href="TraceWriterFile_8h_source.html" target="_top" xlink:title=" ">
<polygon fill="white" stroke="black" points="756.5,-112.5 756.5,-131.5 911.5,-131.5 911.5,-112.5 756.5,-112.5"/>
<text text-anchor="middle" x="834" y="-119.5" font-family="FreeSans" font-size="10.00">DGtal/base/TraceWriterFile.h</text>
</a>
</g>
</g>
<!-- Node8&#45;&gt;Node29 -->
<g id="edge45" class="edge">
<title>Node8&#45;&gt;Node29</title>
<path fill="none" stroke="midnightblue" d="M1407.39,-242.67C1321.38,-239.71 1163.7,-230.1 1033,-199 969.26,-183.83 898.43,-153.26 860.86,-135.87"/>
<polygon fill="midnightblue" stroke="midnightblue" points="862.15,-132.61 851.61,-131.54 859.18,-138.95 862.15,-132.61"/>
</g>
<!-- Node30 -->
<g id="node30" class="node">
<title>Node30</title>
<g id="a_node30"><a xlink:href="ConceptUtils_8h_source.html" target="_top" xlink:title=" ">
<polygon fill="white" stroke="black" points="1366.5,-112.5 1366.5,-131.5 1511.5,-131.5 1511.5,-112.5 1366.5,-112.5"/>
<text text-anchor="middle" x="1439" y="-119.5" font-family="FreeSans" font-size="10.00">DGtal/base/ConceptUtils.h</text>
</a>
</g>
</g>
<!-- Node8&#45;&gt;Node30 -->
<g id="edge50" class="edge">
<title>Node8&#45;&gt;Node30</title>
<path fill="none" stroke="midnightblue" d="M1407.32,-238.84C1380.79,-233.17 1352.4,-221.75 1336,-199 1327.94,-187.82 1328.46,-179.53 1336,-168 1346.5,-151.95 1364.13,-141.59 1381.85,-134.92"/>
<polygon fill="midnightblue" stroke="midnightblue" points="1383.33,-138.11 1391.67,-131.58 1381.07,-131.49 1383.33,-138.11"/>
</g>
<!-- Node31 -->
<g id="node31" class="node">
<title>Node31</title>
<g id="a_node31"><a xlink:href="BasicTypes_8h_source.html" target="_top" xlink:title=" ">
<polygon fill="white" stroke="black" points="1172.5,-112.5 1172.5,-131.5 1309.5,-131.5 1309.5,-112.5 1172.5,-112.5"/>
<text text-anchor="middle" x="1241" y="-119.5" font-family="FreeSans" font-size="10.00">DGtal/base/BasicTypes.h</text>
</a>
</g>
</g>
<!-- Node8&#45;&gt;Node31 -->
<g id="edge52" class="edge">
<title>Node8&#45;&gt;Node31</title>
<path fill="none" stroke="midnightblue" d="M1407.32,-237.11C1354.77,-230.19 1285.61,-217.82 1265,-199 1248.91,-184.31 1243.53,-158.93 1241.78,-141.57"/>
<polygon fill="midnightblue" stroke="midnightblue" points="1245.26,-141.25 1241.07,-131.52 1238.28,-141.74 1245.26,-141.25"/>
</g>
<!-- Node34 -->
<g id="node34" class="node">
<title>Node34</title>
<g id="a_node34"><a xlink:href="BasicFunctors_8h_source.html" target="_top" xlink:title=" ">
<polygon fill="white" stroke="black" points="1345,-174 1345,-193 1495,-193 1495,-174 1345,-174"/>
<text text-anchor="middle" x="1420" y="-181" font-family="FreeSans" font-size="10.00">DGtal/base/BasicFunctors.h</text>
</a>
</g>
</g>
<!-- Node8&#45;&gt;Node34 -->
<g id="edge57" class="edge">
<title>Node8&#45;&gt;Node34</title>
<path fill="none" stroke="midnightblue" d="M1458.79,-235.48C1449.29,-226.64 1436.83,-212.59 1428.39,-201.48"/>
<polygon fill="midnightblue" stroke="midnightblue" points="1431.03,-199.15 1422.4,-193.01 1425.32,-203.19 1431.03,-199.15"/>
</g>
<!-- Node44 -->
<g id="node44" class="node">
<title>Node44</title>
<g id="a_node44"><a xlink:href="BasicArchetypes_8h_source.html" target="_top" xlink:title=" ">
<polygon fill="white" stroke="black" points="2778,-112.5 2778,-131.5 2942,-131.5 2942,-112.5 2778,-112.5"/>
<text text-anchor="middle" x="2860" y="-119.5" font-family="FreeSans" font-size="10.00">DGtal/base/BasicArchetypes.h</text>
</a>
</g>
</g>
<!-- Node8&#45;&gt;Node44 -->
<g id="edge73" class="edge">
<title>Node8&#45;&gt;Node44</title>
<path fill="none" stroke="midnightblue" d="M1534.57,-243.09C1789.15,-239.29 2724.14,-223.69 2782,-199 2810.86,-186.68 2835.08,-158.4 2848.55,-140.02"/>
<polygon fill="midnightblue" stroke="midnightblue" points="2851.53,-141.87 2854.43,-131.68 2845.81,-137.84 2851.53,-141.87"/>
</g>
<!-- Node45 -->
<g id="node45" class="node">
<title>Node45</title>
<g id="a_node45"><a xlink:href="Exceptions_8h_source.html" target="_top" xlink:title=" ">
<polygon fill="white" stroke="black" points="1042,-174 1042,-193 1178,-193 1178,-174 1042,-174"/>
<text text-anchor="middle" x="1110" y="-181" font-family="FreeSans" font-size="10.00">DGtal/base/Exceptions.h</text>
</a>
</g>
</g>
<!-- Node8&#45;&gt;Node45 -->
<g id="edge75" class="edge">
<title>Node8&#45;&gt;Node45</title>
<path fill="none" stroke="midnightblue" d="M1419.28,-235.48C1353.87,-224.69 1241.38,-206.15 1171.6,-194.65"/>
<polygon fill="midnightblue" stroke="midnightblue" points="1172.06,-191.18 1161.63,-193.01 1170.92,-198.09 1172.06,-191.18"/>
</g>
<!-- Node18&#45;&gt;Node4 -->
<g id="edge22" class="edge">
<title>Node18&#45;&gt;Node4</title>
<path fill="none" stroke="midnightblue" d="M573.4,-179.59C677.68,-173.45 897.43,-157.59 920,-132 943.43,-105.43 875.23,-84.69 896,-56 917.83,-25.85 960.52,-15.54 992.47,-12.2"/>
<polygon fill="midnightblue" stroke="midnightblue" points="993.19,-15.65 1002.85,-11.31 992.59,-8.68 993.19,-15.65"/>
</g>
<!-- Node18&#45;&gt;Node6 -->
<g id="edge26" class="edge">
<title>Node18&#45;&gt;Node6</title>
<path fill="none" stroke="midnightblue" d="M464.87,-181.16C378.3,-177.97 213.87,-167.31 169,-132 154.84,-120.86 148.36,-100.83 145.42,-85.94"/>
<polygon fill="midnightblue" stroke="midnightblue" points="148.83,-85.1 143.78,-75.79 141.92,-86.21 148.83,-85.1"/>
</g>
<!-- Node18&#45;&gt;Node7 -->
<g id="edge24" class="edge">
<title>Node18&#45;&gt;Node7</title>
<path fill="none" stroke="midnightblue" d="M465,-178.46C376.94,-171.32 206.65,-155.01 151,-132 112.89,-116.24 95.37,-112.93 77,-76 53.27,-28.28 144.49,-15.59 195.59,-12.22"/>
<polygon fill="midnightblue" stroke="midnightblue" points="196.05,-15.7 205.84,-11.63 195.65,-8.71 196.05,-15.7"/>
</g>
<!-- Node19 -->
<g id="node19" class="node">
<title>Node19</title>
<g id="a_node19"><a xlink:title=" ">
<polygon fill="white" stroke="#bfbfbf" points="546.5,-0.5 546.5,-19.5 603.5,-19.5 603.5,-0.5 546.5,-0.5"/>
<text text-anchor="middle" x="575" y="-7.5" font-family="FreeSans" font-size="10.00">ostream</text>
</a>
</g>
</g>
<!-- Node18&#45;&gt;Node19 -->
<g id="edge23" class="edge">
<title>Node18&#45;&gt;Node19</title>
<path fill="none" stroke="midnightblue" d="M521.28,-173.76C524.82,-160.38 531.95,-134.06 539,-112 548.37,-82.69 560.65,-49.12 568.17,-29.02"/>
<polygon fill="midnightblue" stroke="midnightblue" points="571.48,-30.17 571.72,-19.58 564.93,-27.71 571.48,-30.17"/>
</g>
<!-- Node20 -->
<g id="node20" class="node">
<title>Node20</title>
<g id="a_node20"><a xlink:title=" ">
<polygon fill="white" stroke="#bfbfbf" points="566.5,-112.5 566.5,-131.5 609.5,-131.5 609.5,-112.5 566.5,-112.5"/>
<text text-anchor="middle" x="588" y="-119.5" font-family="FreeSans" font-size="10.00">stack</text>
</a>
</g>
</g>
<!-- Node18&#45;&gt;Node20 -->
<g id="edge25" class="edge">
<title>Node18&#45;&gt;Node20</title>
<path fill="none" stroke="midnightblue" d="M528.89,-173.98C539.65,-164.7 557.07,-149.67 570.22,-138.33"/>
<polygon fill="midnightblue" stroke="midnightblue" points="572.84,-140.69 578.13,-131.51 568.27,-135.39 572.84,-140.69"/>
</g>
<!-- Node21 -->
<g id="node21" class="node">
<title>Node21</title>
<g id="a_node21"><a xlink:href="Clock_8h_source.html" target="_top" xlink:title=" ">
<polygon fill="white" stroke="black" points="1044,-112.5 1044,-131.5 1154,-131.5 1154,-112.5 1044,-112.5"/>
<text text-anchor="middle" x="1099" y="-119.5" font-family="FreeSans" font-size="10.00">DGtal/base/Clock.h</text>
</a>
</g>
</g>
<!-- Node18&#45;&gt;Node21 -->
<g id="edge27" class="edge">
<title>Node18&#45;&gt;Node21</title>
<path fill="none" stroke="midnightblue" d="M573.04,-176.96C679.92,-165.99 917.9,-141.58 1033.49,-129.72"/>
<polygon fill="midnightblue" stroke="midnightblue" points="1034.02,-133.18 1043.61,-128.68 1033.3,-126.22 1034.02,-133.18"/>
</g>
<!-- Node24 -->
<g id="node24" class="node">
<title>Node24</title>
<g id="a_node24"><a xlink:href="TraceWriter_8h_source.html" target="_top" xlink:title=" ">
<polygon fill="white" stroke="black" points="574.5,-56.5 574.5,-75.5 711.5,-75.5 711.5,-56.5 574.5,-56.5"/>
<text text-anchor="middle" x="643" y="-63.5" font-family="FreeSans" font-size="10.00">DGtal/base/TraceWriter.h</text>
</a>
</g>
</g>
<!-- Node18&#45;&gt;Node24 -->
<g id="edge31" class="edge">
<title>Node18&#45;&gt;Node24</title>
<path fill="none" stroke="midnightblue" d="M521.84,-173.65C526.88,-159.16 538.6,-130.17 557,-112 571.43,-97.75 591.31,-86.95 608.31,-79.51"/>
<polygon fill="midnightblue" stroke="midnightblue" points="610.04,-82.58 617.93,-75.51 607.36,-76.11 610.04,-82.58"/>
</g>
<!-- Node18&#45;&gt;Node25 -->
<g id="edge34" class="edge">
<title>Node18&#45;&gt;Node25</title>
<path fill="none" stroke="midnightblue" d="M481.75,-173.98C435.51,-163.39 356.6,-145.34 306.18,-133.8"/>
<polygon fill="midnightblue" stroke="midnightblue" points="306.71,-130.33 296.18,-131.51 305.15,-137.15 306.71,-130.33"/>
</g>
<!-- Node18&#45;&gt;Node26 -->
<g id="edge39" class="edge">
<title>Node18&#45;&gt;Node26</title>
<path fill="none" stroke="midnightblue" d="M499.2,-173.98C480.18,-164.3 452.03,-148.37 433.47,-136.89"/>
<polygon fill="midnightblue" stroke="midnightblue" points="435.3,-133.91 424.98,-131.51 431.55,-139.82 435.3,-133.91"/>
</g>
<!-- Node28 -->
<g id="node28" class="node">
<title>Node28</title>
<g id="a_node28"><a xlink:href="Trace_8ih_source.html" target="_top" xlink:title=" ">
<polygon fill="white" stroke="black" points="627.5,-112.5 627.5,-131.5 738.5,-131.5 738.5,-112.5 627.5,-112.5"/>
<text text-anchor="middle" x="683" y="-119.5" font-family="FreeSans" font-size="10.00">DGtal/base/Trace.ih</text>
</a>
</g>
</g>
<!-- Node18&#45;&gt;Node28 -->
<g id="edge43" class="edge">
<title>Node18&#45;&gt;Node28</title>
<path fill="none" stroke="midnightblue" d="M542.5,-173.98C570.63,-163.77 617.93,-146.61 649.79,-135.05"/>
<polygon fill="midnightblue" stroke="midnightblue" points="651.34,-138.21 659.55,-131.51 648.95,-131.63 651.34,-138.21"/>
</g>
<!-- Node21&#45;&gt;Node4 -->
<g id="edge28" class="edge">
<title>Node21&#45;&gt;Node4</title>
<path fill="none" stroke="midnightblue" d="M1101.22,-112.39C1104.1,-99.33 1107.67,-74.12 1098,-56 1090.61,-42.16 1076.87,-31.71 1063.92,-24.38"/>
<polygon fill="midnightblue" stroke="midnightblue" points="1065.21,-21.11 1054.73,-19.59 1061.98,-27.32 1065.21,-21.11"/>
</g>
<!-- Node22 -->
<g id="node22" class="node">
<title>Node22</title>
<g id="a_node22"><a xlink:title=" ">
<polygon fill="white" stroke="#bfbfbf" points="1146.5,-56.5 1146.5,-75.5 1195.5,-75.5 1195.5,-56.5 1146.5,-56.5"/>
<text text-anchor="middle" x="1171" y="-63.5" font-family="FreeSans" font-size="10.00">cstdlib</text>
</a>
</g>
</g>
<!-- Node21&#45;&gt;Node22 -->
<g id="edge29" class="edge">
<title>Node21&#45;&gt;Node22</title>
<path fill="none" stroke="midnightblue" d="M1110.57,-112.32C1121.42,-104.18 1137.88,-91.84 1150.88,-82.09"/>
<polygon fill="midnightblue" stroke="midnightblue" points="1153.32,-84.63 1159.22,-75.83 1149.12,-79.03 1153.32,-84.63"/>
</g>
<!-- Node23 -->
<g id="node23" class="node">
<title>Node23</title>
<g id="a_node23"><a xlink:href="Clock_8ih_source.html" target="_top" xlink:title=" ">
<polygon fill="white" stroke="black" points="976.5,-56.5 976.5,-75.5 1089.5,-75.5 1089.5,-56.5 976.5,-56.5"/>
<text text-anchor="middle" x="1033" y="-63.5" font-family="FreeSans" font-size="10.00">DGtal/base/Clock.ih</text>
</a>
</g>
</g>
<!-- Node21&#45;&gt;Node23 -->
<g id="edge30" class="edge">
<title>Node21&#45;&gt;Node23</title>
<path fill="none" stroke="midnightblue" d="M1088.4,-112.32C1078.54,-104.26 1063.65,-92.08 1051.78,-82.37"/>
<polygon fill="midnightblue" stroke="midnightblue" points="1053.75,-79.46 1043.8,-75.83 1049.32,-84.88 1053.75,-79.46"/>
</g>
<!-- Node24&#45;&gt;Node4 -->
<g id="edge32" class="edge">
<title>Node24&#45;&gt;Node4</title>
<path fill="none" stroke="midnightblue" d="M704.8,-56.44C785.49,-45.27 924.49,-26.02 992.77,-16.57"/>
<polygon fill="midnightblue" stroke="midnightblue" points="993.28,-20.03 1002.71,-15.19 992.32,-13.1 993.28,-20.03"/>
</g>
<!-- Node24&#45;&gt;Node19 -->
<g id="edge33" class="edge">
<title>Node24&#45;&gt;Node19</title>
<path fill="none" stroke="midnightblue" d="M632.07,-56.32C621.83,-48.18 606.28,-35.84 594,-26.09"/>
<polygon fill="midnightblue" stroke="midnightblue" points="596.13,-23.31 586.12,-19.83 591.78,-28.79 596.13,-23.31"/>
</g>
<!-- Node25&#45;&gt;Node4 -->
<g id="edge35" class="edge">
<title>Node25&#45;&gt;Node4</title>
<path fill="none" stroke="midnightblue" d="M264.41,-112.29C274.1,-97.62 295.92,-68.36 323,-56 383.91,-28.2 851.08,-15.21 992.54,-11.88"/>
<polygon fill="midnightblue" stroke="midnightblue" points="993,-15.37 1002.92,-11.64 992.84,-8.38 993,-15.37"/>
</g>
<!-- Node25&#45;&gt;Node6 -->
<g id="edge38" class="edge">
<title>Node25&#45;&gt;Node6</title>
<path fill="none" stroke="midnightblue" d="M240.62,-112.44C221.78,-103.68 192.27,-89.94 170.62,-79.86"/>
<polygon fill="midnightblue" stroke="midnightblue" points="171.84,-76.56 161.29,-75.52 168.88,-82.91 171.84,-76.56"/>
</g>
<!-- Node25&#45;&gt;Node7 -->
<g id="edge36" class="edge">
<title>Node25&#45;&gt;Node7</title>
<path fill="none" stroke="midnightblue" d="M256.57,-112.37C251.54,-94.54 239.92,-53.3 233.15,-29.27"/>
<polygon fill="midnightblue" stroke="midnightblue" points="236.5,-28.27 230.42,-19.59 229.77,-30.17 236.5,-28.27"/>
</g>
<!-- Node25&#45;&gt;Node24 -->
<g id="edge37" class="edge">
<title>Node25&#45;&gt;Node24</title>
<path fill="none" stroke="midnightblue" d="M319.85,-112.44C388.52,-102.79 500.07,-87.1 572.49,-76.92"/>
<polygon fill="midnightblue" stroke="midnightblue" points="573.02,-80.37 582.44,-75.52 572.05,-73.44 573.02,-80.37"/>
</g>
<!-- Node26&#45;&gt;Node7 -->
<g id="edge42" class="edge">
<title>Node26&#45;&gt;Node7</title>
<path fill="none" stroke="midnightblue" d="M395.55,-112.48C376.63,-103.97 347.27,-90.14 323,-76 295.87,-60.2 266.26,-39.31 247.43,-25.53"/>
<polygon fill="midnightblue" stroke="midnightblue" points="249.47,-22.69 239.35,-19.56 245.32,-28.32 249.47,-22.69"/>
</g>
<!-- Node26&#45;&gt;Node18 -->
<g id="edge40" class="edge">
<title>Node26&#45;&gt;Node18</title>
<path fill="none" stroke="midnightblue" d="M434.77,-131.51C453.78,-141.18 481.93,-157.1 500.5,-168.59"/>
<polygon fill="midnightblue" stroke="midnightblue" points="498.68,-171.58 509,-173.98 502.43,-165.67 498.68,-171.58"/>
</g>
<!-- Node27 -->
<g id="node27" class="node">
<title>Node27</title>
<g id="a_node27"><a xlink:title=" ">
<polygon fill="white" stroke="#bfbfbf" points="332.5,-56.5 332.5,-75.5 479.5,-75.5 479.5,-56.5 332.5,-56.5"/>
<text text-anchor="middle" x="406" y="-63.5" font-family="FreeSans" font-size="10.00">boost/current_function.hpp</text>
</a>
</g>
</g>
<!-- Node26&#45;&gt;Node27 -->
<g id="edge41" class="edge">
<title>Node26&#45;&gt;Node27</title>
<path fill="none" stroke="midnightblue" d="M413.51,-112.08C412.32,-104.93 410.61,-94.64 409.12,-85.69"/>
<polygon fill="midnightblue" stroke="midnightblue" points="412.55,-85.04 407.46,-75.75 405.65,-86.19 412.55,-85.04"/>
</g>
<!-- Node29&#45;&gt;Node4 -->
<g id="edge46" class="edge">
<title>Node29&#45;&gt;Node4</title>
<path fill="none" stroke="midnightblue" d="M834.68,-112.44C836.25,-98.51 841.39,-70.99 858,-56 894.93,-22.66 953.26,-13.36 992.31,-11.11"/>
<polygon fill="midnightblue" stroke="midnightblue" points="992.94,-14.58 1002.78,-10.64 992.63,-7.59 992.94,-14.58"/>
</g>
<!-- Node29&#45;&gt;Node7 -->
<g id="edge47" class="edge">
<title>Node29&#45;&gt;Node7</title>
<path fill="none" stroke="midnightblue" d="M773.88,-112.5C719.18,-104.39 636.32,-91.2 565,-76 530.42,-68.63 522.56,-63.47 488,-56 406.44,-38.38 309.33,-23.06 260.08,-15.68"/>
<polygon fill="midnightblue" stroke="midnightblue" points="260.44,-12.19 250.03,-14.18 259.41,-19.12 260.44,-12.19"/>
</g>
<!-- Node29&#45;&gt;Node24 -->
<g id="edge48" class="edge">
<title>Node29&#45;&gt;Node24</title>
<path fill="none" stroke="midnightblue" d="M803.74,-112.44C771.04,-103.2 718.82,-88.44 682.82,-78.26"/>
<polygon fill="midnightblue" stroke="midnightblue" points="683.7,-74.87 673.12,-75.52 681.79,-81.61 683.7,-74.87"/>
</g>
<!-- Node30&#45;&gt;Node4 -->
<g id="edge51" class="edge">
<title>Node30&#45;&gt;Node4</title>
<path fill="none" stroke="midnightblue" d="M1449.77,-112.16C1464.8,-98.8 1488.53,-73.2 1473,-56 1446.44,-26.59 1176.66,-15.35 1073.14,-12.1"/>
<polygon fill="midnightblue" stroke="midnightblue" points="1073.19,-8.6 1063.08,-11.79 1072.97,-15.6 1073.19,-8.6"/>
</g>
<!-- Node31&#45;&gt;Node4 -->
<g id="edge54" class="edge">
<title>Node31&#45;&gt;Node4</title>
<path fill="none" stroke="midnightblue" d="M1238.51,-112.38C1234,-98.36 1223.15,-70.72 1204,-56 1165.96,-26.76 1110.62,-16.45 1073.29,-12.85"/>
<polygon fill="midnightblue" stroke="midnightblue" points="1073.53,-9.36 1063.27,-12.01 1072.94,-16.34 1073.53,-9.36"/>
</g>
<!-- Node31&#45;&gt;Node22 -->
<g id="edge53" class="edge">
<title>Node31&#45;&gt;Node22</title>
<path fill="none" stroke="midnightblue" d="M1229.75,-112.32C1219.2,-104.18 1203.2,-91.84 1190.56,-82.09"/>
<polygon fill="midnightblue" stroke="midnightblue" points="1192.51,-79.17 1182.45,-75.83 1188.23,-84.71 1192.51,-79.17"/>
</g>
<!-- Node32 -->
<g id="node32" class="node">
<title>Node32</title>
<g id="a_node32"><a xlink:title=" ">
<polygon fill="white" stroke="#bfbfbf" points="1329.5,-56.5 1329.5,-75.5 1430.5,-75.5 1430.5,-56.5 1329.5,-56.5"/>
<text text-anchor="middle" x="1380" y="-63.5" font-family="FreeSans" font-size="10.00">boost/cstdint.hpp</text>
</a>
</g>
</g>
<!-- Node31&#45;&gt;Node32 -->
<g id="edge55" class="edge">
<title>Node31&#45;&gt;Node32</title>
<path fill="none" stroke="midnightblue" d="M1263.02,-112.44C1286.1,-103.48 1322.56,-89.31 1348.64,-79.18"/>
<polygon fill="midnightblue" stroke="midnightblue" points="1350.02,-82.4 1358.08,-75.52 1347.49,-75.88 1350.02,-82.4"/>
</g>
<!-- Node33 -->
<g id="node33" class="node">
<title>Node33</title>
<g id="a_node33"><a xlink:title=" ">
<polygon fill="white" stroke="#bfbfbf" points="1252.5,-56.5 1252.5,-75.5 1311.5,-75.5 1311.5,-56.5 1252.5,-56.5"/>
<text text-anchor="middle" x="1282" y="-63.5" font-family="FreeSans" font-size="10.00">gmpxx.h</text>
</a>
</g>
</g>
<!-- Node31&#45;&gt;Node33 -->
<g id="edge56" class="edge">
<title>Node31&#45;&gt;Node33</title>
<path fill="none" stroke="midnightblue" d="M1247.77,-112.08C1253.56,-104.46 1262.06,-93.26 1269.14,-83.94"/>
<polygon fill="midnightblue" stroke="midnightblue" points="1272.1,-85.83 1275.36,-75.75 1266.52,-81.6 1272.1,-85.83"/>
</g>
<!-- Node34&#45;&gt;Node3 -->
<g id="edge60" class="edge">
<title>Node34&#45;&gt;Node3</title>
<path fill="none" stroke="midnightblue" d="M1484.06,-173.97C1503.01,-171.71 1523.81,-169.49 1543,-168 2001.18,-132.41 2560.61,-124.71 2702.21,-123.29"/>
<polygon fill="midnightblue" stroke="midnightblue" points="2702.45,-126.79 2712.41,-123.19 2702.38,-119.79 2702.45,-126.79"/>
</g>
<!-- Node34&#45;&gt;Node8 -->
<g id="edge68" class="edge">
<title>Node34&#45;&gt;Node8</title>
<path fill="none" stroke="midnightblue" d="M1432.19,-193.01C1441.69,-201.84 1454.15,-215.89 1462.6,-227.01"/>
<polygon fill="midnightblue" stroke="midnightblue" points="1459.96,-229.34 1468.59,-235.48 1465.67,-225.29 1459.96,-229.34"/>
</g>
<!-- Node35 -->
<g id="node35" class="node">
<title>Node35</title>
<g id="a_node35"><a xlink:title=" ">
<polygon fill="white" stroke="#bfbfbf" points="1882,-56.5 1882,-75.5 1946,-75.5 1946,-56.5 1882,-56.5"/>
<text text-anchor="middle" x="1914" y="-63.5" font-family="FreeSans" font-size="10.00">algorithm</text>
</a>
</g>
</g>
<!-- Node34&#45;&gt;Node35 -->
<g id="edge58" class="edge">
<title>Node34&#45;&gt;Node35</title>
<path fill="none" stroke="midnightblue" d="M1471.49,-173.98C1552,-160.59 1699.72,-135.77 1711,-132 1729.47,-125.82 1731.84,-119.06 1750,-112 1772.12,-103.4 1831.12,-87.86 1871.97,-77.48"/>
<polygon fill="midnightblue" stroke="midnightblue" points="1872.83,-80.87 1881.67,-75.03 1871.12,-74.09 1872.83,-80.87"/>
</g>
<!-- Node36 -->
<g id="node36" class="node">
<title>Node36</title>
<g id="a_node36"><a xlink:title=" ">
<polygon fill="white" stroke="#bfbfbf" points="1758.5,-112.5 1758.5,-131.5 1823.5,-131.5 1823.5,-112.5 1758.5,-112.5"/>
<text text-anchor="middle" x="1791" y="-119.5" font-family="FreeSans" font-size="10.00">functional</text>
</a>
</g>
</g>
<!-- Node34&#45;&gt;Node36 -->
<g id="edge59" class="edge">
<title>Node34&#45;&gt;Node36</title>
<path fill="none" stroke="midnightblue" d="M1471.75,-173.98C1483.97,-172 1496.94,-169.91 1509,-168 1613.37,-151.5 1639.87,-149.94 1744,-132 1745.46,-131.75 1746.94,-131.49 1748.44,-131.22"/>
<polygon fill="midnightblue" stroke="midnightblue" points="1749.2,-134.64 1758.41,-129.4 1747.95,-127.75 1749.2,-134.64"/>
</g>
<!-- Node37 -->
<g id="node37" class="node">
<title>Node37</title>
<g id="a_node37"><a xlink:href="Color_8h_source.html" target="_top" xlink:title=" ">
<polygon fill="white" stroke="black" points="1927.5,-112.5 1927.5,-131.5 2020.5,-131.5 2020.5,-112.5 1927.5,-112.5"/>
<text text-anchor="middle" x="1974" y="-119.5" font-family="FreeSans" font-size="10.00">DGtal/io/Color.h</text>
</a>
</g>
</g>
<!-- Node34&#45;&gt;Node37 -->
<g id="edge61" class="edge">
<title>Node34&#45;&gt;Node37</title>
<path fill="none" stroke="midnightblue" d="M1468.88,-173.95C1481.89,-171.83 1495.96,-169.69 1509,-168 1655.81,-148.96 1829.65,-134.19 1917.35,-127.29"/>
<polygon fill="midnightblue" stroke="midnightblue" points="1917.66,-130.77 1927.36,-126.5 1917.11,-123.8 1917.66,-130.77"/>
</g>
<!-- Node41 -->
<g id="node41" class="node">
<title>Node41</title>
<g id="a_node41"><a xlink:href="BasicBoolFunctors_8h_source.html" target="_top" xlink:title=" ">
<polygon fill="white" stroke="black" points="1530,-112.5 1530,-131.5 1702,-131.5 1702,-112.5 1530,-112.5"/>
<text text-anchor="middle" x="1616" y="-119.5" font-family="FreeSans" font-size="10.00">DGtal/base/BasicBoolFunctors.h</text>
</a>
</g>
</g>
<!-- Node34&#45;&gt;Node41 -->
<g id="edge69" class="edge">
<title>Node34&#45;&gt;Node41</title>
<path fill="none" stroke="midnightblue" d="M1448.08,-173.98C1482.29,-163.59 1540.2,-146.01 1578.27,-134.45"/>
<polygon fill="midnightblue" stroke="midnightblue" points="1579.42,-137.76 1587.97,-131.51 1577.38,-131.06 1579.42,-137.76"/>
</g>
<!-- Node37&#45;&gt;Node4 -->
<g id="edge62" class="edge">
<title>Node37&#45;&gt;Node4</title>
<path fill="none" stroke="midnightblue" d="M1974.37,-112.11C1974.42,-97.72 1972.17,-69.54 1955,-56 1919.92,-28.35 1246.6,-14.73 1073.36,-11.67"/>
<polygon fill="midnightblue" stroke="midnightblue" points="1073.21,-8.17 1063.15,-11.5 1073.09,-15.17 1073.21,-8.17"/>
</g>
<!-- Node37&#45;&gt;Node8 -->
<g id="edge63" class="edge">
<title>Node37&#45;&gt;Node8</title>
<path fill="none" stroke="midnightblue" d="M1927.17,-126.05C1822.65,-133.12 1576.86,-151.3 1543,-168 1528.88,-174.96 1500.9,-207.31 1484.28,-227.49"/>
<polygon fill="midnightblue" stroke="midnightblue" points="1481.53,-225.33 1477.93,-235.29 1486.96,-229.75 1481.53,-225.33"/>
</g>
<!-- Node37&#45;&gt;Node35 -->
<g id="edge65" class="edge">
<title>Node37&#45;&gt;Node35</title>
<path fill="none" stroke="midnightblue" d="M1964.36,-112.32C1955.49,-104.34 1942.13,-92.31 1931.39,-82.65"/>
<polygon fill="midnightblue" stroke="midnightblue" points="1933.59,-79.92 1923.82,-75.83 1928.91,-85.13 1933.59,-79.92"/>
</g>
<!-- Node38 -->
<g id="node38" class="node">
<title>Node38</title>
<g id="a_node38"><a xlink:title=" ">
<polygon fill="white" stroke="#bfbfbf" points="2002.5,-56.5 2002.5,-75.5 2127.5,-75.5 2127.5,-56.5 2002.5,-56.5"/>
<text text-anchor="middle" x="2065" y="-63.5" font-family="FreeSans" font-size="10.00">boost/lexical_cast.hpp</text>
</a>
</g>
</g>
<!-- Node37&#45;&gt;Node38 -->
<g id="edge64" class="edge">
<title>Node37&#45;&gt;Node38</title>
<path fill="none" stroke="midnightblue" d="M1988.62,-112.32C2002.95,-103.82 2025.01,-90.73 2041.75,-80.8"/>
<polygon fill="midnightblue" stroke="midnightblue" points="2043.6,-83.77 2050.42,-75.65 2040.03,-77.75 2043.6,-83.77"/>
</g>
<!-- Node39 -->
<g id="node39" class="node">
<title>Node39</title>
<g id="a_node39"><a xlink:title=" ">
<polygon fill="white" stroke="#bfbfbf" points="2146,-56.5 2146,-75.5 2188,-75.5 2188,-56.5 2146,-56.5"/>
<text text-anchor="middle" x="2167" y="-63.5" font-family="FreeSans" font-size="10.00">array</text>
</a>
</g>
</g>
<!-- Node37&#45;&gt;Node39 -->
<g id="edge66" class="edge">
<title>Node37&#45;&gt;Node39</title>
<path fill="none" stroke="midnightblue" d="M2005.61,-112.5C2036.5,-104.14 2085.1,-90.85 2135.87,-76.28"/>
<polygon fill="midnightblue" stroke="midnightblue" points="2137.07,-79.58 2145.71,-73.45 2135.13,-72.85 2137.07,-79.58"/>
</g>
<!-- Node40 -->
<g id="node40" class="node">
<title>Node40</title>
<g id="a_node40"><a xlink:href="Color_8ih_source.html" target="_top" xlink:title=" ">
<polygon fill="white" stroke="black" points="2206,-56.5 2206,-75.5 2302,-75.5 2302,-56.5 2206,-56.5"/>
<text text-anchor="middle" x="2254" y="-63.5" font-family="FreeSans" font-size="10.00">DGtal/io/Color.ih</text>
</a>
</g>
</g>
<!-- Node37&#45;&gt;Node40 -->
<g id="edge67" class="edge">
<title>Node37&#45;&gt;Node40</title>
<path fill="none" stroke="midnightblue" d="M2018.37,-112.44C2067.62,-102.94 2147.13,-87.61 2199.97,-77.42"/>
<polygon fill="midnightblue" stroke="midnightblue" points="2200.68,-80.85 2209.84,-75.52 2199.36,-73.97 2200.68,-80.85"/>
</g>
<!-- Node41&#45;&gt;Node4 -->
<g id="edge70" class="edge">
<title>Node41&#45;&gt;Node4</title>
<path fill="none" stroke="midnightblue" d="M1603.34,-112.46C1581.23,-98.03 1533.68,-69.12 1489,-56 1411.48,-33.23 1169.87,-18.26 1073.39,-13.05"/>
<polygon fill="midnightblue" stroke="midnightblue" points="1073.34,-9.54 1063.17,-12.51 1072.97,-16.53 1073.34,-9.54"/>
</g>
<!-- Node42 -->
<g id="node42" class="node">
<title>Node42</title>
<g id="a_node42"><a xlink:title=" ">
<polygon fill="white" stroke="#bfbfbf" points="1563.5,-56.5 1563.5,-75.5 1670.5,-75.5 1670.5,-56.5 1563.5,-56.5"/>
<text text-anchor="middle" x="1617" y="-63.5" font-family="FreeSans" font-size="10.00">boost/function.hpp</text>
</a>
</g>
</g>
<!-- Node41&#45;&gt;Node42 -->
<g id="edge71" class="edge">
<title>Node41&#45;&gt;Node42</title>
<path fill="none" stroke="midnightblue" d="M1616.17,-112.08C1616.3,-105.01 1616.48,-94.86 1616.65,-85.99"/>
<polygon fill="midnightblue" stroke="midnightblue" points="1620.15,-85.81 1616.84,-75.75 1613.15,-85.68 1620.15,-85.81"/>
</g>
<!-- Node43 -->
<g id="node43" class="node">
<title>Node43</title>
<g id="a_node43"><a xlink:href="BasicBoolFunctors_8ih_source.html" target="_top" xlink:title=" ">
<polygon fill="white" stroke="black" points="1688.5,-56.5 1688.5,-75.5 1863.5,-75.5 1863.5,-56.5 1688.5,-56.5"/>
<text text-anchor="middle" x="1776" y="-63.5" font-family="FreeSans" font-size="10.00">DGtal/base/BasicBoolFunctors.ih</text>
</a>
</g>
</g>
<!-- Node41&#45;&gt;Node43 -->
<g id="edge72" class="edge">
<title>Node41&#45;&gt;Node43</title>
<path fill="none" stroke="midnightblue" d="M1641.35,-112.44C1668.27,-103.36 1711,-88.94 1741.09,-78.78"/>
<polygon fill="midnightblue" stroke="midnightblue" points="1742.41,-82.03 1750.77,-75.52 1740.17,-75.4 1742.41,-82.03"/>
</g>
<!-- Node44&#45;&gt;Node4 -->
<g id="edge74" class="edge">
<title>Node44&#45;&gt;Node4</title>
<path fill="none" stroke="midnightblue" d="M2801.65,-112.48C2701.53,-98.23 2490.43,-69.76 2311,-56 1824.66,-18.71 1231.81,-12.28 1073.46,-11.21"/>
<polygon fill="midnightblue" stroke="midnightblue" points="1073.26,-7.71 1063.24,-11.14 1073.22,-14.71 1073.26,-7.71"/>
</g>
<!-- Node45&#45;&gt;Node4 -->
<g id="edge76" class="edge">
<title>Node45&#45;&gt;Node4</title>
<path fill="none" stroke="midnightblue" d="M1087.65,-173.96C1053.86,-159.64 991.18,-127.23 967,-76 956.73,-54.24 981.01,-35.71 1002.96,-24.07"/>
<polygon fill="midnightblue" stroke="midnightblue" points="1004.73,-27.1 1012.12,-19.51 1001.61,-20.83 1004.73,-27.1"/>
</g>
</g>
</svg>
